G75*
%MOIN*%
%OFA0B0*%
%FSLAX24Y24*%
%IPPOS*%
%LPD*%
%AMOC8*
5,1,8,0,0,1.08239X$1,22.5*
%
%ADD10C,0.1000*%
%ADD11OC8,0.1000*%
%ADD12R,0.0512X0.0591*%
%ADD13R,0.0472X0.0236*%
%ADD14R,0.0827X0.0827*%
%ADD15R,0.0630X0.0512*%
%ADD16R,0.0512X0.0630*%
%ADD17C,0.0520*%
%ADD18R,0.0880X0.0480*%
%ADD19R,0.0866X0.1417*%
%ADD20C,0.0476*%
%ADD21OC8,0.0660*%
%ADD22C,0.0600*%
%ADD23C,0.0160*%
%ADD24R,0.0396X0.0396*%
%ADD25C,0.0200*%
%ADD26C,0.0400*%
D10*
X029646Y011583D03*
D11*
X029646Y013583D03*
D12*
X013668Y015521D03*
X012998Y015521D03*
X012998Y017271D03*
X013668Y017271D03*
D13*
X011097Y010457D03*
X011097Y009709D03*
X010069Y009709D03*
X010069Y010083D03*
X010069Y010457D03*
D14*
X007748Y011583D03*
X005583Y011583D03*
X008083Y007748D03*
X008083Y005583D03*
X015083Y005583D03*
X015083Y007748D03*
X022083Y007748D03*
X022083Y005583D03*
X029083Y005583D03*
X029083Y007748D03*
X034918Y010756D03*
X037083Y010756D03*
X037083Y012410D03*
X034918Y012410D03*
X036083Y007748D03*
X036083Y005583D03*
X037083Y019756D03*
X037083Y021410D03*
X034918Y021410D03*
X034918Y019756D03*
X036083Y023918D03*
X036083Y026083D03*
X029083Y026083D03*
X029083Y023918D03*
X022083Y023918D03*
X022083Y026083D03*
X015083Y026083D03*
X015083Y023918D03*
X008083Y023918D03*
X008083Y026083D03*
D15*
X006333Y009707D03*
X006333Y008959D03*
D16*
X007709Y009583D03*
X008457Y009583D03*
X010209Y008083D03*
X010957Y008083D03*
X012209Y008583D03*
X012957Y008583D03*
X010895Y012333D03*
X010147Y012333D03*
X010144Y013512D03*
X010892Y013512D03*
X010897Y015521D03*
X011645Y015521D03*
D17*
X009218Y015458D02*
X008698Y015458D01*
X007218Y016458D02*
X006698Y016458D01*
X008698Y017458D02*
X009218Y017458D01*
D18*
X013363Y012243D03*
X013363Y011333D03*
X013363Y010423D03*
X019926Y010361D03*
X019926Y011271D03*
X019926Y012181D03*
D19*
X022366Y011271D03*
X015803Y011333D03*
D20*
X005083Y016083D03*
X005083Y017083D03*
X005083Y018083D03*
D21*
X004646Y021583D03*
X003646Y021583D03*
X003583Y024833D03*
X004583Y024833D03*
X004583Y006583D03*
X003583Y006583D03*
D22*
X008021Y021583D03*
X009021Y021583D03*
X010021Y021583D03*
D23*
X003063Y003663D02*
X003063Y003063D01*
X005608Y003063D01*
X005423Y003248D01*
X005277Y003501D01*
X005201Y003783D01*
X005201Y004076D01*
X005277Y004358D01*
X005423Y004611D01*
X005630Y004818D01*
X005883Y004964D01*
X006165Y005039D01*
X006458Y005039D01*
X006740Y004964D01*
X006993Y004818D01*
X007200Y004611D01*
X007346Y004358D01*
X007421Y004076D01*
X007421Y003783D01*
X007346Y003501D01*
X007200Y003248D01*
X007015Y003063D01*
X009152Y003063D01*
X008967Y003248D01*
X008820Y003501D01*
X008745Y003783D01*
X008745Y004076D01*
X008820Y004358D01*
X008967Y004611D01*
X009173Y004818D01*
X009426Y004964D01*
X009709Y005039D01*
X010001Y005039D01*
X010283Y004964D01*
X010536Y004818D01*
X010743Y004611D01*
X010889Y004358D01*
X010965Y004076D01*
X010965Y003783D01*
X010889Y003501D01*
X010743Y003248D01*
X010558Y003063D01*
X012608Y003063D01*
X012423Y003248D01*
X012277Y003501D01*
X012201Y003783D01*
X012201Y004076D01*
X012277Y004358D01*
X012423Y004611D01*
X012630Y004818D01*
X012883Y004964D01*
X013165Y005039D01*
X013458Y005039D01*
X013740Y004964D01*
X013993Y004818D01*
X014200Y004611D01*
X014346Y004358D01*
X014421Y004076D01*
X014421Y003783D01*
X014346Y003501D01*
X014200Y003248D01*
X014015Y003063D01*
X016152Y003063D01*
X015967Y003248D01*
X015820Y003501D01*
X015745Y003783D01*
X015745Y004076D01*
X015820Y004358D01*
X015967Y004611D01*
X016173Y004818D01*
X016426Y004964D01*
X016709Y005039D01*
X017001Y005039D01*
X017283Y004964D01*
X017536Y004818D01*
X017743Y004611D01*
X017889Y004358D01*
X017965Y004076D01*
X017965Y003783D01*
X017889Y003501D01*
X017743Y003248D01*
X017558Y003063D01*
X019608Y003063D01*
X019423Y003248D01*
X019277Y003501D01*
X019201Y003783D01*
X019201Y004076D01*
X019277Y004358D01*
X019423Y004611D01*
X019630Y004818D01*
X019883Y004964D01*
X020165Y005039D01*
X020458Y005039D01*
X020740Y004964D01*
X020993Y004818D01*
X021200Y004611D01*
X021346Y004358D01*
X021421Y004076D01*
X021421Y003783D01*
X021346Y003501D01*
X021200Y003248D01*
X021015Y003063D01*
X023152Y003063D01*
X022967Y003248D01*
X022820Y003501D01*
X022745Y003783D01*
X022745Y004076D01*
X022820Y004358D01*
X022967Y004611D01*
X023173Y004818D01*
X023426Y004964D01*
X023709Y005039D01*
X024001Y005039D01*
X024283Y004964D01*
X024536Y004818D01*
X024743Y004611D01*
X024889Y004358D01*
X024965Y004076D01*
X024965Y003783D01*
X024889Y003501D01*
X024743Y003248D01*
X024558Y003063D01*
X026608Y003063D01*
X026423Y003248D01*
X026277Y003501D01*
X026201Y003783D01*
X026201Y004076D01*
X026277Y004358D01*
X026423Y004611D01*
X026630Y004818D01*
X026883Y004964D01*
X027165Y005039D01*
X027458Y005039D01*
X027740Y004964D01*
X027993Y004818D01*
X028200Y004611D01*
X028346Y004358D01*
X028421Y004076D01*
X028421Y003783D01*
X028346Y003501D01*
X028200Y003248D01*
X028015Y003063D01*
X030152Y003063D01*
X029967Y003248D01*
X029820Y003501D01*
X029745Y003783D01*
X029745Y004076D01*
X029820Y004358D01*
X029967Y004611D01*
X030173Y004818D01*
X030426Y004964D01*
X030709Y005039D01*
X031001Y005039D01*
X031283Y004964D01*
X031536Y004818D01*
X031743Y004611D01*
X031889Y004358D01*
X031965Y004076D01*
X031965Y003783D01*
X031889Y003501D01*
X031743Y003248D01*
X031558Y003063D01*
X033608Y003063D01*
X033423Y003248D01*
X033277Y003501D01*
X033201Y003783D01*
X033201Y004076D01*
X033277Y004358D01*
X033423Y004611D01*
X033630Y004818D01*
X033883Y004964D01*
X034165Y005039D01*
X034458Y005039D01*
X034740Y004964D01*
X034993Y004818D01*
X035200Y004611D01*
X035346Y004358D01*
X035421Y004076D01*
X035421Y003783D01*
X035346Y003501D01*
X035200Y003248D01*
X035015Y003063D01*
X037152Y003063D01*
X036967Y003248D01*
X036820Y003501D01*
X036745Y003783D01*
X036745Y004076D01*
X036820Y004358D01*
X036967Y004611D01*
X037173Y004818D01*
X037426Y004964D01*
X037709Y005039D01*
X038001Y005039D01*
X038283Y004964D01*
X038536Y004818D01*
X038743Y004611D01*
X038889Y004358D01*
X038965Y004076D01*
X038965Y003783D01*
X038889Y003501D01*
X038743Y003248D01*
X038558Y003063D01*
X039473Y003063D01*
X039473Y008152D01*
X039418Y008096D01*
X039165Y007950D01*
X038883Y007875D01*
X038590Y007875D01*
X038308Y007950D01*
X038055Y008096D01*
X037848Y008303D01*
X037702Y008556D01*
X037627Y008839D01*
X037627Y009131D01*
X037702Y009413D01*
X037848Y009666D01*
X038055Y009873D01*
X038308Y010019D01*
X038590Y010095D01*
X038883Y010095D01*
X039165Y010019D01*
X039418Y009873D01*
X039473Y009818D01*
X039473Y013348D01*
X039418Y013293D01*
X039165Y013147D01*
X038883Y013072D01*
X038590Y013072D01*
X038308Y013147D01*
X038055Y013293D01*
X037848Y013500D01*
X037702Y013753D01*
X037627Y014035D01*
X037627Y014328D01*
X037702Y014610D01*
X037848Y014863D01*
X038055Y015070D01*
X038308Y015216D01*
X038590Y015291D01*
X038883Y015291D01*
X039165Y015216D01*
X039418Y015070D01*
X039473Y015015D01*
X039473Y017152D01*
X039418Y017096D01*
X039165Y016950D01*
X038883Y016875D01*
X038590Y016875D01*
X038308Y016950D01*
X038055Y017096D01*
X037848Y017303D01*
X037702Y017556D01*
X037627Y017839D01*
X037627Y018131D01*
X037702Y018413D01*
X037848Y018666D01*
X038055Y018873D01*
X038308Y019019D01*
X038590Y019095D01*
X038883Y019095D01*
X039165Y019019D01*
X039418Y018873D01*
X039473Y018818D01*
X039473Y022348D01*
X039418Y022293D01*
X039165Y022147D01*
X038883Y022072D01*
X038590Y022072D01*
X038308Y022147D01*
X038055Y022293D01*
X037848Y022500D01*
X037702Y022753D01*
X037627Y023035D01*
X037627Y023328D01*
X037702Y023610D01*
X037848Y023863D01*
X038055Y024070D01*
X038308Y024216D01*
X038590Y024291D01*
X038883Y024291D01*
X039165Y024216D01*
X039418Y024070D01*
X039473Y024015D01*
X039473Y028599D01*
X038562Y028599D01*
X038743Y028418D01*
X038889Y028165D01*
X038965Y027883D01*
X038965Y027590D01*
X038889Y027308D01*
X038743Y027055D01*
X038536Y026848D01*
X038283Y026702D01*
X038001Y026627D01*
X037709Y026627D01*
X037426Y026702D01*
X037173Y026848D01*
X036967Y027055D01*
X036820Y027308D01*
X036745Y027590D01*
X036745Y027883D01*
X036820Y028165D01*
X036967Y028418D01*
X037148Y028599D01*
X035019Y028599D01*
X035200Y028418D01*
X035346Y028165D01*
X035421Y027883D01*
X035421Y027590D01*
X035346Y027308D01*
X035200Y027055D01*
X034993Y026848D01*
X034740Y026702D01*
X034458Y026627D01*
X034165Y026627D01*
X033883Y026702D01*
X033630Y026848D01*
X033423Y027055D01*
X033277Y027308D01*
X033201Y027590D01*
X033201Y027883D01*
X033277Y028165D01*
X033423Y028418D01*
X033604Y028599D01*
X031562Y028599D01*
X031743Y028418D01*
X031889Y028165D01*
X031965Y027883D01*
X031965Y027590D01*
X031889Y027308D01*
X031743Y027055D01*
X031536Y026848D01*
X031283Y026702D01*
X031001Y026627D01*
X030709Y026627D01*
X030426Y026702D01*
X030173Y026848D01*
X029967Y027055D01*
X029820Y027308D01*
X029745Y027590D01*
X029745Y027883D01*
X029820Y028165D01*
X029967Y028418D01*
X030148Y028599D01*
X028019Y028599D01*
X028200Y028418D01*
X028346Y028165D01*
X028421Y027883D01*
X028421Y027590D01*
X028346Y027308D01*
X028200Y027055D01*
X027993Y026848D01*
X027740Y026702D01*
X027458Y026627D01*
X027165Y026627D01*
X026883Y026702D01*
X026630Y026848D01*
X026423Y027055D01*
X026277Y027308D01*
X026201Y027590D01*
X026201Y027883D01*
X026277Y028165D01*
X026423Y028418D01*
X026604Y028599D01*
X024562Y028599D01*
X024743Y028418D01*
X024889Y028165D01*
X024965Y027883D01*
X024965Y027590D01*
X024889Y027308D01*
X024743Y027055D01*
X024536Y026848D01*
X024283Y026702D01*
X024001Y026627D01*
X023709Y026627D01*
X023426Y026702D01*
X023173Y026848D01*
X022967Y027055D01*
X022820Y027308D01*
X022745Y027590D01*
X022745Y027883D01*
X022820Y028165D01*
X022967Y028418D01*
X023148Y028599D01*
X021019Y028599D01*
X021200Y028418D01*
X021346Y028165D01*
X021421Y027883D01*
X021421Y027590D01*
X021346Y027308D01*
X021200Y027055D01*
X020993Y026848D01*
X020740Y026702D01*
X020458Y026627D01*
X020165Y026627D01*
X019883Y026702D01*
X019630Y026848D01*
X019423Y027055D01*
X019277Y027308D01*
X019201Y027590D01*
X019201Y027883D01*
X019277Y028165D01*
X019423Y028418D01*
X019604Y028599D01*
X017562Y028599D01*
X017743Y028418D01*
X017889Y028165D01*
X017965Y027883D01*
X017965Y027590D01*
X017889Y027308D01*
X017743Y027055D01*
X017536Y026848D01*
X017283Y026702D01*
X017001Y026627D01*
X016709Y026627D01*
X016426Y026702D01*
X016173Y026848D01*
X015967Y027055D01*
X015820Y027308D01*
X015745Y027590D01*
X015745Y027883D01*
X015820Y028165D01*
X015967Y028418D01*
X016148Y028599D01*
X014019Y028599D01*
X014200Y028418D01*
X014346Y028165D01*
X014421Y027883D01*
X014421Y027590D01*
X014346Y027308D01*
X014200Y027055D01*
X013993Y026848D01*
X013740Y026702D01*
X013458Y026627D01*
X013165Y026627D01*
X012883Y026702D01*
X012630Y026848D01*
X012423Y027055D01*
X012277Y027308D01*
X012201Y027590D01*
X012201Y027883D01*
X012277Y028165D01*
X012423Y028418D01*
X012604Y028599D01*
X010562Y028599D01*
X010743Y028418D01*
X010889Y028165D01*
X010965Y027883D01*
X010965Y027590D01*
X010889Y027308D01*
X010743Y027055D01*
X010536Y026848D01*
X010283Y026702D01*
X010001Y026627D01*
X009709Y026627D01*
X009426Y026702D01*
X009173Y026848D01*
X008967Y027055D01*
X008820Y027308D01*
X008745Y027590D01*
X008745Y027883D01*
X008820Y028165D01*
X008967Y028418D01*
X009148Y028599D01*
X007019Y028599D01*
X007200Y028418D01*
X007346Y028165D01*
X007421Y027883D01*
X007421Y027590D01*
X007346Y027308D01*
X007200Y027055D01*
X006993Y026848D01*
X006740Y026702D01*
X006458Y026627D01*
X006165Y026627D01*
X005883Y026702D01*
X005630Y026848D01*
X005423Y027055D01*
X005277Y027308D01*
X005201Y027590D01*
X005201Y027883D01*
X005277Y028165D01*
X005423Y028418D01*
X005604Y028599D01*
X003063Y028599D01*
X003063Y027924D01*
X003101Y027990D01*
X003301Y028190D01*
X003545Y028331D01*
X003817Y028404D01*
X004099Y028404D01*
X004371Y028331D01*
X004615Y028190D01*
X004815Y027990D01*
X004956Y027746D01*
X005029Y027474D01*
X005029Y027192D01*
X004956Y026920D01*
X004815Y026676D01*
X004615Y026476D01*
X004371Y026335D01*
X004099Y026263D01*
X003817Y026263D01*
X003545Y026335D01*
X003301Y026476D01*
X003101Y026676D01*
X003063Y026742D01*
X003063Y014058D01*
X003248Y014243D01*
X003501Y014389D01*
X003783Y014465D01*
X004076Y014465D01*
X004358Y014389D01*
X004611Y014243D01*
X004818Y014036D01*
X004964Y013783D01*
X005039Y013501D01*
X005039Y013209D01*
X004964Y012926D01*
X004818Y012673D01*
X004611Y012467D01*
X004358Y012320D01*
X004076Y012245D01*
X003783Y012245D01*
X003501Y012320D01*
X003248Y012467D01*
X003063Y012652D01*
X003063Y010515D01*
X003248Y010700D01*
X003501Y010846D01*
X003783Y010921D01*
X004076Y010921D01*
X004358Y010846D01*
X004611Y010700D01*
X004818Y010493D01*
X004964Y010240D01*
X005039Y009958D01*
X005039Y009665D01*
X004964Y009383D01*
X004818Y009130D01*
X004611Y008923D01*
X004358Y008777D01*
X004076Y008701D01*
X003783Y008701D01*
X003501Y008777D01*
X003248Y008923D01*
X003063Y009108D01*
X003063Y004628D01*
X003164Y004803D01*
X003363Y005002D01*
X003607Y005143D01*
X003880Y005216D01*
X004162Y005216D01*
X004434Y005143D01*
X004678Y005002D01*
X004877Y004803D01*
X005018Y004559D01*
X005091Y004287D01*
X005091Y004005D01*
X005018Y003732D01*
X004877Y003488D01*
X004678Y003289D01*
X004434Y003148D01*
X004162Y003075D01*
X003880Y003075D01*
X003607Y003148D01*
X003363Y003289D01*
X003164Y003488D01*
X003063Y003663D01*
X003063Y003534D02*
X003137Y003534D01*
X003063Y003376D02*
X003277Y003376D01*
X003488Y003217D02*
X003063Y003217D01*
X004553Y003217D02*
X005454Y003217D01*
X005350Y003376D02*
X004765Y003376D01*
X004904Y003534D02*
X005268Y003534D01*
X005226Y003693D02*
X004995Y003693D01*
X005050Y003851D02*
X005201Y003851D01*
X005201Y004010D02*
X005091Y004010D01*
X005091Y004168D02*
X005226Y004168D01*
X005269Y004327D02*
X005080Y004327D01*
X005038Y004485D02*
X005351Y004485D01*
X005456Y004644D02*
X004969Y004644D01*
X004878Y004802D02*
X005614Y004802D01*
X005877Y004961D02*
X004720Y004961D01*
X004476Y005119D02*
X007497Y005119D01*
X007502Y005100D02*
X007526Y005059D01*
X007559Y005026D01*
X007600Y005002D01*
X007646Y004990D01*
X008025Y004990D01*
X008025Y005525D01*
X008141Y005525D01*
X008141Y004990D01*
X008520Y004990D01*
X008566Y005002D01*
X008607Y005026D01*
X008640Y005059D01*
X008664Y005100D01*
X008676Y005146D01*
X008676Y005525D01*
X008141Y005525D01*
X008141Y005641D01*
X008676Y005641D01*
X008676Y006020D01*
X008664Y006066D01*
X008640Y006107D01*
X008607Y006140D01*
X008566Y006164D01*
X008520Y006176D01*
X008141Y006176D01*
X008141Y005641D01*
X008025Y005641D01*
X008025Y005525D01*
X007490Y005525D01*
X007490Y005146D01*
X007502Y005100D01*
X007490Y005278D02*
X003063Y005278D01*
X003063Y005436D02*
X007490Y005436D01*
X007490Y005641D02*
X008025Y005641D01*
X008025Y006176D01*
X007646Y006176D01*
X007600Y006164D01*
X007559Y006140D01*
X007526Y006107D01*
X007502Y006066D01*
X007490Y006020D01*
X007490Y005641D01*
X007490Y005753D02*
X003063Y005753D01*
X003063Y005595D02*
X008025Y005595D01*
X008141Y005595D02*
X015025Y005595D01*
X015025Y005641D02*
X015025Y005525D01*
X015141Y005525D01*
X015141Y004990D01*
X015520Y004990D01*
X015566Y005002D01*
X015607Y005026D01*
X015640Y005059D01*
X015664Y005100D01*
X015676Y005146D01*
X015676Y005525D01*
X015141Y005525D01*
X015141Y005641D01*
X015676Y005641D01*
X015676Y006020D01*
X015664Y006066D01*
X015640Y006107D01*
X015607Y006140D01*
X015566Y006164D01*
X015520Y006176D01*
X015141Y006176D01*
X015141Y005641D01*
X015025Y005641D01*
X014490Y005641D01*
X014490Y006020D01*
X014502Y006066D01*
X014526Y006107D01*
X014559Y006140D01*
X014600Y006164D01*
X014646Y006176D01*
X015025Y006176D01*
X015025Y005641D01*
X015025Y005753D02*
X015141Y005753D01*
X015141Y005595D02*
X022025Y005595D01*
X022025Y005641D02*
X022025Y005525D01*
X022141Y005525D01*
X022141Y004990D01*
X022520Y004990D01*
X022566Y005002D01*
X022607Y005026D01*
X022640Y005059D01*
X022664Y005100D01*
X022676Y005146D01*
X022676Y005525D01*
X022141Y005525D01*
X022141Y005641D01*
X022676Y005641D01*
X022676Y006020D01*
X022664Y006066D01*
X022640Y006107D01*
X022607Y006140D01*
X022566Y006164D01*
X022520Y006176D01*
X022141Y006176D01*
X022141Y005641D01*
X022025Y005641D01*
X021490Y005641D01*
X021490Y006020D01*
X021502Y006066D01*
X021526Y006107D01*
X021559Y006140D01*
X021600Y006164D01*
X021646Y006176D01*
X022025Y006176D01*
X022025Y005641D01*
X022025Y005753D02*
X022141Y005753D01*
X022141Y005595D02*
X029025Y005595D01*
X029025Y005641D02*
X029025Y005525D01*
X029141Y005525D01*
X029141Y004990D01*
X029520Y004990D01*
X029566Y005002D01*
X029607Y005026D01*
X029640Y005059D01*
X029664Y005100D01*
X029676Y005146D01*
X029676Y005525D01*
X029141Y005525D01*
X029141Y005641D01*
X029676Y005641D01*
X029676Y006020D01*
X029664Y006066D01*
X029640Y006107D01*
X029607Y006140D01*
X029566Y006164D01*
X029520Y006176D01*
X029141Y006176D01*
X029141Y005641D01*
X029025Y005641D01*
X028490Y005641D01*
X028490Y006020D01*
X028502Y006066D01*
X028526Y006107D01*
X028559Y006140D01*
X028600Y006164D01*
X028646Y006176D01*
X029025Y006176D01*
X029025Y005641D01*
X029025Y005753D02*
X029141Y005753D01*
X029141Y005595D02*
X036025Y005595D01*
X036025Y005641D02*
X036025Y005525D01*
X036141Y005525D01*
X036141Y004990D01*
X036520Y004990D01*
X036566Y005002D01*
X036607Y005026D01*
X036640Y005059D01*
X036664Y005100D01*
X036676Y005146D01*
X036676Y005525D01*
X036141Y005525D01*
X036141Y005641D01*
X036676Y005641D01*
X036676Y006020D01*
X036664Y006066D01*
X036640Y006107D01*
X036607Y006140D01*
X036566Y006164D01*
X036520Y006176D01*
X036141Y006176D01*
X036141Y005641D01*
X036025Y005641D01*
X035490Y005641D01*
X035490Y006020D01*
X035502Y006066D01*
X035526Y006107D01*
X035559Y006140D01*
X035600Y006164D01*
X035646Y006176D01*
X036025Y006176D01*
X036025Y005641D01*
X036025Y005753D02*
X036141Y005753D01*
X036141Y005595D02*
X037558Y005595D01*
X037476Y005676D02*
X037676Y005476D01*
X037920Y005335D01*
X038192Y005263D01*
X038474Y005263D01*
X038746Y005335D01*
X038990Y005476D01*
X039190Y005676D01*
X039331Y005920D01*
X039404Y006192D01*
X039404Y006474D01*
X039331Y006746D01*
X039190Y006990D01*
X038990Y007190D01*
X038746Y007331D01*
X038474Y007404D01*
X038192Y007404D01*
X037920Y007331D01*
X037676Y007190D01*
X037476Y006990D01*
X037335Y006746D01*
X037263Y006474D01*
X037263Y006192D01*
X037335Y005920D01*
X037476Y005676D01*
X037432Y005753D02*
X036676Y005753D01*
X036676Y005912D02*
X037340Y005912D01*
X037295Y006070D02*
X036662Y006070D01*
X036141Y006070D02*
X036025Y006070D01*
X036025Y005912D02*
X036141Y005912D01*
X036025Y005525D02*
X035490Y005525D01*
X035490Y005146D01*
X035502Y005100D01*
X035526Y005059D01*
X035559Y005026D01*
X035600Y005002D01*
X035646Y004990D01*
X036025Y004990D01*
X036025Y005525D01*
X036025Y005436D02*
X036141Y005436D01*
X036141Y005278D02*
X036025Y005278D01*
X036025Y005119D02*
X036141Y005119D01*
X036669Y005119D02*
X039473Y005119D01*
X039473Y004961D02*
X038289Y004961D01*
X038552Y004802D02*
X039473Y004802D01*
X039473Y004644D02*
X038710Y004644D01*
X038816Y004485D02*
X039473Y004485D01*
X039473Y004327D02*
X038897Y004327D01*
X038940Y004168D02*
X039473Y004168D01*
X039473Y004010D02*
X038965Y004010D01*
X038965Y003851D02*
X039473Y003851D01*
X039473Y003693D02*
X038940Y003693D01*
X038898Y003534D02*
X039473Y003534D01*
X039473Y003376D02*
X038817Y003376D01*
X038712Y003217D02*
X039473Y003217D01*
X037421Y004961D02*
X034745Y004961D01*
X035009Y004802D02*
X037158Y004802D01*
X036999Y004644D02*
X035167Y004644D01*
X035272Y004485D02*
X036894Y004485D01*
X036812Y004327D02*
X035354Y004327D01*
X035397Y004168D02*
X036770Y004168D01*
X036745Y004010D02*
X035421Y004010D01*
X035421Y003851D02*
X036745Y003851D01*
X036769Y003693D02*
X035397Y003693D01*
X035355Y003534D02*
X036812Y003534D01*
X036893Y003376D02*
X035273Y003376D01*
X035169Y003217D02*
X036998Y003217D01*
X036676Y005278D02*
X038136Y005278D01*
X038530Y005278D02*
X039473Y005278D01*
X039473Y005436D02*
X038921Y005436D01*
X039109Y005595D02*
X039473Y005595D01*
X039473Y005753D02*
X039234Y005753D01*
X039326Y005912D02*
X039473Y005912D01*
X039473Y006070D02*
X039371Y006070D01*
X039404Y006229D02*
X039473Y006229D01*
X039473Y006387D02*
X039404Y006387D01*
X039384Y006546D02*
X039473Y006546D01*
X039473Y006704D02*
X039342Y006704D01*
X039264Y006863D02*
X039473Y006863D01*
X039473Y007021D02*
X039159Y007021D01*
X039001Y007180D02*
X039473Y007180D01*
X039473Y007338D02*
X038719Y007338D01*
X039473Y007497D02*
X036736Y007497D01*
X036736Y007655D02*
X039473Y007655D01*
X039473Y007814D02*
X036736Y007814D01*
X036736Y007972D02*
X038271Y007972D01*
X038021Y008131D02*
X036736Y008131D01*
X036736Y008210D02*
X036700Y008298D01*
X036632Y008365D01*
X036544Y008402D01*
X035622Y008402D01*
X035534Y008365D01*
X035466Y008298D01*
X035430Y008210D01*
X035430Y007287D01*
X035466Y007199D01*
X035534Y007132D01*
X035622Y007095D01*
X036544Y007095D01*
X036632Y007132D01*
X036700Y007199D01*
X036736Y007287D01*
X036736Y008210D01*
X036704Y008289D02*
X037863Y008289D01*
X037765Y008448D02*
X013453Y008448D01*
X013453Y008606D02*
X037689Y008606D01*
X037647Y008765D02*
X013453Y008765D01*
X013453Y008923D02*
X037627Y008923D01*
X037627Y009082D02*
X013369Y009082D01*
X013349Y009101D02*
X013297Y009123D01*
X013297Y009943D01*
X013851Y009943D01*
X013939Y009980D01*
X014007Y010047D01*
X014043Y010135D01*
X014043Y010711D01*
X014007Y010799D01*
X013939Y010867D01*
X013851Y010903D01*
X012875Y010903D01*
X012787Y010867D01*
X012720Y010799D01*
X012719Y010797D01*
X011437Y010797D01*
X011437Y012198D01*
X011390Y012311D01*
X011390Y012348D01*
X011875Y012832D01*
X012016Y012832D01*
X012105Y012869D01*
X012114Y012879D01*
X012124Y012869D01*
X012212Y012832D01*
X012704Y012832D01*
X012792Y012869D01*
X012860Y012937D01*
X012896Y013025D01*
X012896Y013228D01*
X013191Y013523D01*
X013287Y013618D01*
X013338Y013743D01*
X013338Y013868D01*
X017757Y013868D01*
X019246Y012380D01*
X019246Y011893D01*
X019282Y011805D01*
X019350Y011737D01*
X019377Y011726D01*
X019350Y011714D01*
X019282Y011647D01*
X019246Y011558D01*
X019246Y010983D01*
X019282Y010895D01*
X019350Y010827D01*
X019377Y010816D01*
X019350Y010804D01*
X019282Y010737D01*
X019246Y010648D01*
X019246Y010073D01*
X019282Y009985D01*
X019350Y009917D01*
X019438Y009881D01*
X020413Y009881D01*
X020502Y009917D01*
X020569Y009985D01*
X020606Y010073D01*
X020606Y010648D01*
X020569Y010737D01*
X020502Y010804D01*
X020474Y010816D01*
X020502Y010827D01*
X020569Y010895D01*
X020584Y010931D01*
X021693Y010931D01*
X021693Y010514D01*
X021729Y010426D01*
X021797Y010358D01*
X021885Y010322D01*
X022846Y010322D01*
X022935Y010358D01*
X023002Y010426D01*
X023039Y010514D01*
X023039Y012027D01*
X023002Y012115D01*
X022935Y012183D01*
X022846Y012219D01*
X022736Y012219D01*
X022736Y016901D01*
X022684Y017026D01*
X022588Y017121D01*
X019151Y020559D01*
X019026Y020611D01*
X009104Y020611D01*
X009042Y020672D01*
X008954Y020709D01*
X008462Y020709D01*
X008374Y020672D01*
X008306Y020605D01*
X008270Y020516D01*
X008270Y020025D01*
X008306Y019937D01*
X008374Y019869D01*
X008462Y019832D01*
X008954Y019832D01*
X009042Y019869D01*
X009104Y019931D01*
X018817Y019931D01*
X022056Y016692D01*
X022056Y012219D01*
X021885Y012219D01*
X021797Y012183D01*
X021729Y012115D01*
X021693Y012027D01*
X021693Y011611D01*
X020584Y011611D01*
X020569Y011647D01*
X020502Y011714D01*
X020474Y011726D01*
X020502Y011737D01*
X020569Y011805D01*
X020606Y011893D01*
X020606Y012468D01*
X020569Y012557D01*
X020502Y012624D01*
X020413Y012661D01*
X019926Y012661D01*
X018091Y014496D01*
X017966Y014548D01*
X013338Y014548D01*
X013338Y015000D01*
X013390Y015022D01*
X013414Y015045D01*
X013620Y015045D01*
X013620Y015473D01*
X013716Y015473D01*
X013716Y015569D01*
X013620Y015569D01*
X013620Y015996D01*
X013438Y015996D01*
X013438Y016795D01*
X013620Y016795D01*
X013620Y017223D01*
X013716Y017223D01*
X013716Y017319D01*
X013620Y017319D01*
X013620Y017746D01*
X013414Y017746D01*
X013390Y017769D01*
X013302Y017806D01*
X012695Y017806D01*
X012607Y017769D01*
X012539Y017702D01*
X012503Y017614D01*
X012503Y016928D01*
X012539Y016839D01*
X012558Y016820D01*
X012558Y015971D01*
X012539Y015952D01*
X012503Y015864D01*
X012503Y015861D01*
X012140Y015861D01*
X012140Y015883D01*
X012104Y015971D01*
X012036Y016039D01*
X011948Y016076D01*
X011341Y016076D01*
X011271Y016046D01*
X011200Y016076D01*
X010593Y016076D01*
X010505Y016039D01*
X010437Y015971D01*
X010401Y015883D01*
X010401Y015858D01*
X009525Y015858D01*
X009501Y015882D01*
X009318Y015958D01*
X008599Y015958D01*
X008415Y015882D01*
X008274Y015741D01*
X008198Y015558D01*
X008198Y015359D01*
X008274Y015175D01*
X008415Y015034D01*
X008599Y014958D01*
X009318Y014958D01*
X009501Y015034D01*
X009642Y015175D01*
X009643Y015178D01*
X010401Y015178D01*
X010401Y015158D01*
X010437Y015070D01*
X010505Y015002D01*
X010552Y014983D01*
X010552Y014052D01*
X010518Y014038D01*
X010448Y014067D01*
X009840Y014067D01*
X009752Y014030D01*
X009685Y013963D01*
X009648Y013875D01*
X009648Y013149D01*
X009685Y013061D01*
X009752Y012993D01*
X009807Y012971D01*
X009807Y012873D01*
X009755Y012851D01*
X009687Y012784D01*
X009651Y012696D01*
X009651Y011970D01*
X009687Y011882D01*
X009729Y011840D01*
X009729Y010792D01*
X009697Y010779D01*
X009629Y010711D01*
X009593Y010623D01*
X009593Y010291D01*
X009629Y010203D01*
X009653Y010180D01*
X009653Y010083D01*
X009653Y009987D01*
X009629Y009963D01*
X009613Y009923D01*
X008953Y009923D01*
X008953Y009946D01*
X008916Y010034D01*
X008849Y010101D01*
X008761Y010138D01*
X008153Y010138D01*
X008083Y010109D01*
X008013Y010138D01*
X007405Y010138D01*
X007317Y010101D01*
X007250Y010034D01*
X007213Y009946D01*
X007213Y009568D01*
X006944Y009299D01*
X006873Y009299D01*
X006859Y009333D01*
X006888Y009403D01*
X006888Y010011D01*
X006851Y010099D01*
X006798Y010152D01*
X007576Y010930D01*
X008210Y010930D01*
X008298Y010966D01*
X008365Y011034D01*
X008402Y011122D01*
X008402Y012044D01*
X008365Y012132D01*
X008298Y012200D01*
X008210Y012236D01*
X007287Y012236D01*
X007199Y012200D01*
X007132Y012132D01*
X007095Y012044D01*
X007095Y011411D01*
X006140Y010456D01*
X006045Y010360D01*
X005993Y010235D01*
X005993Y010203D01*
X005970Y010203D01*
X005882Y010166D01*
X005815Y010099D01*
X005778Y010011D01*
X005778Y009403D01*
X005807Y009333D01*
X005778Y009263D01*
X005778Y008655D01*
X005815Y008567D01*
X005882Y008500D01*
X005970Y008463D01*
X005982Y008463D01*
X004672Y007153D01*
X004347Y007153D01*
X004041Y006847D01*
X003794Y007093D01*
X003583Y007093D01*
X003372Y007093D01*
X003073Y006794D01*
X003073Y006583D01*
X003073Y006372D01*
X003372Y006073D01*
X003583Y006073D01*
X003583Y006583D01*
X003583Y006583D01*
X003073Y006583D01*
X003583Y006583D01*
X003583Y006583D01*
X003583Y006073D01*
X003794Y006073D01*
X004041Y006319D01*
X004347Y006013D01*
X004819Y006013D01*
X005153Y006347D01*
X005153Y006672D01*
X006526Y008045D01*
X006621Y008140D01*
X006673Y008265D01*
X006673Y008463D01*
X006696Y008463D01*
X006784Y008500D01*
X006851Y008567D01*
X006873Y008619D01*
X007153Y008619D01*
X007278Y008671D01*
X007635Y009028D01*
X008013Y009028D01*
X008083Y009057D01*
X008153Y009028D01*
X008761Y009028D01*
X008849Y009065D01*
X008916Y009132D01*
X008953Y009220D01*
X008953Y009243D01*
X009729Y009243D01*
X009729Y008484D01*
X009713Y008446D01*
X009713Y007720D01*
X009750Y007632D01*
X009817Y007565D01*
X009905Y007528D01*
X010513Y007528D01*
X010601Y007565D01*
X010636Y007599D01*
X010677Y007588D01*
X010909Y007588D01*
X010909Y008035D01*
X011005Y008035D01*
X011005Y007588D01*
X011237Y007588D01*
X011282Y007600D01*
X011324Y007624D01*
X011357Y007658D01*
X011381Y007699D01*
X011393Y007744D01*
X011393Y008035D01*
X011005Y008035D01*
X011005Y008131D01*
X010909Y008131D01*
X010909Y008578D01*
X010677Y008578D01*
X010636Y008567D01*
X010601Y008601D01*
X010513Y008638D01*
X010409Y008638D01*
X010409Y009374D01*
X010441Y009387D01*
X010509Y009455D01*
X010545Y009543D01*
X010545Y009875D01*
X010509Y009963D01*
X010485Y009987D01*
X010485Y010083D01*
X010069Y010083D01*
X010069Y010083D01*
X010485Y010083D01*
X010485Y010180D01*
X010509Y010203D01*
X010545Y010291D01*
X010545Y010623D01*
X010509Y010711D01*
X010441Y010779D01*
X010409Y010792D01*
X010409Y011778D01*
X010450Y011778D01*
X010521Y011807D01*
X010591Y011778D01*
X010757Y011778D01*
X010757Y010792D01*
X010725Y010779D01*
X010658Y010711D01*
X010621Y010623D01*
X010621Y010291D01*
X010658Y010203D01*
X010725Y010136D01*
X010813Y010099D01*
X011381Y010099D01*
X011425Y010117D01*
X011759Y010117D01*
X011731Y010089D01*
X011714Y010048D01*
X011427Y010048D01*
X011381Y010067D01*
X010813Y010067D01*
X010725Y010031D01*
X010658Y009963D01*
X010621Y009875D01*
X010621Y009543D01*
X010658Y009455D01*
X010725Y009387D01*
X010813Y009351D01*
X011381Y009351D01*
X011423Y009368D01*
X011812Y009368D01*
X011869Y009311D01*
X011869Y009123D01*
X011817Y009101D01*
X011750Y009034D01*
X011713Y008946D01*
X011713Y008220D01*
X011750Y008132D01*
X011817Y008065D01*
X011905Y008028D01*
X012513Y008028D01*
X012583Y008057D01*
X012653Y008028D01*
X013261Y008028D01*
X013349Y008065D01*
X013416Y008132D01*
X013453Y008220D01*
X013453Y008946D01*
X013416Y009034D01*
X013349Y009101D01*
X013297Y009240D02*
X037656Y009240D01*
X037698Y009399D02*
X013297Y009399D01*
X013297Y009557D02*
X037785Y009557D01*
X037898Y009716D02*
X013297Y009716D01*
X013297Y009874D02*
X038057Y009874D01*
X038359Y010033D02*
X020589Y010033D01*
X020606Y010191D02*
X034317Y010191D01*
X034301Y010207D02*
X034368Y010139D01*
X034457Y010103D01*
X035379Y010103D01*
X035467Y010139D01*
X035535Y010207D01*
X035571Y010295D01*
X035571Y011217D01*
X035535Y011306D01*
X035467Y011373D01*
X035379Y011410D01*
X034457Y011410D01*
X034368Y011373D01*
X034301Y011306D01*
X034264Y011217D01*
X034264Y010295D01*
X034301Y010207D01*
X034264Y010350D02*
X022913Y010350D01*
X023036Y010508D02*
X034264Y010508D01*
X034264Y010667D02*
X023039Y010667D01*
X023039Y010825D02*
X034264Y010825D01*
X034264Y010984D02*
X030093Y010984D01*
X030065Y010956D02*
X030273Y011164D01*
X030386Y011436D01*
X030386Y011730D01*
X030273Y012002D01*
X030065Y012210D01*
X029793Y012323D01*
X029498Y012323D01*
X029226Y012210D01*
X029018Y012002D01*
X028906Y011730D01*
X028906Y011436D01*
X029018Y011164D01*
X029226Y010956D01*
X029498Y010843D01*
X029793Y010843D01*
X030065Y010956D01*
X030251Y011142D02*
X034264Y011142D01*
X034299Y011301D02*
X030330Y011301D01*
X030386Y011459D02*
X039473Y011459D01*
X039473Y011301D02*
X037620Y011301D01*
X037607Y011314D02*
X037566Y011337D01*
X037520Y011350D01*
X037141Y011350D01*
X037141Y010814D01*
X037676Y010814D01*
X037676Y011193D01*
X037664Y011239D01*
X037640Y011280D01*
X037607Y011314D01*
X037676Y011142D02*
X039473Y011142D01*
X039473Y010984D02*
X037676Y010984D01*
X037676Y010825D02*
X039473Y010825D01*
X039473Y010667D02*
X037676Y010667D01*
X037676Y010699D02*
X037141Y010699D01*
X037141Y010814D01*
X037025Y010814D01*
X037025Y010699D01*
X036490Y010699D01*
X036490Y010319D01*
X036502Y010273D01*
X036526Y010232D01*
X036559Y010199D01*
X036600Y010175D01*
X036646Y010163D01*
X037025Y010163D01*
X037025Y010698D01*
X037141Y010698D01*
X037141Y010163D01*
X037520Y010163D01*
X037566Y010175D01*
X037607Y010199D01*
X037640Y010232D01*
X037664Y010273D01*
X037676Y010319D01*
X037676Y010699D01*
X037676Y010508D02*
X039473Y010508D01*
X039473Y010350D02*
X037676Y010350D01*
X037593Y010191D02*
X039473Y010191D01*
X039473Y010033D02*
X039114Y010033D01*
X039416Y009874D02*
X039473Y009874D01*
X039473Y011618D02*
X030386Y011618D01*
X030367Y011776D02*
X034409Y011776D01*
X034368Y011793D02*
X034457Y011756D01*
X035379Y011756D01*
X035467Y011793D01*
X035535Y011861D01*
X035571Y011949D01*
X035571Y012871D01*
X035535Y012959D01*
X035467Y013027D01*
X035379Y013063D01*
X034457Y013063D01*
X034368Y013027D01*
X034301Y012959D01*
X034264Y012871D01*
X034264Y011949D01*
X034301Y011861D01*
X034368Y011793D01*
X034270Y011935D02*
X030301Y011935D01*
X030182Y012093D02*
X034264Y012093D01*
X034264Y012252D02*
X029965Y012252D01*
X029326Y012252D02*
X022736Y012252D01*
X022736Y012410D02*
X034264Y012410D01*
X034264Y012569D02*
X022736Y012569D01*
X022736Y012727D02*
X034264Y012727D01*
X034270Y012886D02*
X022736Y012886D01*
X022736Y013044D02*
X029223Y013044D01*
X029364Y012903D02*
X028966Y013301D01*
X028966Y013563D01*
X029626Y013563D01*
X029666Y013563D01*
X029666Y013603D01*
X030326Y013603D01*
X030326Y013865D01*
X029927Y014263D01*
X029666Y014263D01*
X029666Y013603D01*
X029626Y013603D01*
X029626Y014263D01*
X029364Y014263D01*
X028966Y013865D01*
X028966Y013603D01*
X029626Y013603D01*
X029626Y013563D01*
X029626Y012903D01*
X029364Y012903D01*
X029626Y013044D02*
X029666Y013044D01*
X029666Y012903D02*
X029927Y012903D01*
X030326Y013301D01*
X030326Y013563D01*
X029666Y013563D01*
X029666Y012903D01*
X029666Y013203D02*
X029626Y013203D01*
X029626Y013361D02*
X029666Y013361D01*
X029666Y013520D02*
X029626Y013520D01*
X029626Y013678D02*
X029666Y013678D01*
X029666Y013837D02*
X029626Y013837D01*
X029626Y013995D02*
X029666Y013995D01*
X029666Y014154D02*
X029626Y014154D01*
X029254Y014154D02*
X022736Y014154D01*
X022736Y014312D02*
X037627Y014312D01*
X037627Y014154D02*
X030037Y014154D01*
X030195Y013995D02*
X037637Y013995D01*
X037680Y013837D02*
X030326Y013837D01*
X030326Y013678D02*
X037746Y013678D01*
X037837Y013520D02*
X030326Y013520D01*
X030326Y013361D02*
X037987Y013361D01*
X038212Y013203D02*
X030227Y013203D01*
X030068Y013044D02*
X034410Y013044D01*
X035425Y013044D02*
X039473Y013044D01*
X039473Y012886D02*
X037666Y012886D01*
X037664Y012893D02*
X037640Y012934D01*
X037607Y012967D01*
X037566Y012991D01*
X037520Y013003D01*
X037141Y013003D01*
X037141Y012468D01*
X037025Y012468D01*
X037025Y013003D01*
X036646Y013003D01*
X036600Y012991D01*
X036559Y012967D01*
X036526Y012934D01*
X036502Y012893D01*
X036490Y012847D01*
X036490Y012468D01*
X037025Y012468D01*
X037025Y012352D01*
X036490Y012352D01*
X036490Y011973D01*
X036502Y011927D01*
X036526Y011886D01*
X036559Y011852D01*
X036600Y011829D01*
X036646Y011816D01*
X037025Y011816D01*
X037025Y012352D01*
X037141Y012352D01*
X037141Y012468D01*
X037676Y012468D01*
X037676Y012847D01*
X037664Y012893D01*
X037676Y012727D02*
X039473Y012727D01*
X039473Y012569D02*
X037676Y012569D01*
X037676Y012352D02*
X037141Y012352D01*
X037141Y011816D01*
X037520Y011816D01*
X037566Y011829D01*
X037607Y011852D01*
X037640Y011886D01*
X037664Y011927D01*
X037676Y011973D01*
X037676Y012352D01*
X037676Y012252D02*
X039473Y012252D01*
X039473Y012410D02*
X037141Y012410D01*
X037025Y012410D02*
X035571Y012410D01*
X035571Y012252D02*
X036490Y012252D01*
X036490Y012093D02*
X035571Y012093D01*
X035565Y011935D02*
X036500Y011935D01*
X037025Y011935D02*
X037141Y011935D01*
X037141Y012093D02*
X037025Y012093D01*
X037025Y012252D02*
X037141Y012252D01*
X037141Y012569D02*
X037025Y012569D01*
X037025Y012727D02*
X037141Y012727D01*
X037141Y012886D02*
X037025Y012886D01*
X036500Y012886D02*
X035565Y012886D01*
X035571Y012727D02*
X036490Y012727D01*
X036490Y012569D02*
X035571Y012569D01*
X035426Y011776D02*
X039473Y011776D01*
X039473Y011935D02*
X037666Y011935D01*
X037676Y012093D02*
X039473Y012093D01*
X039473Y013203D02*
X039261Y013203D01*
X037665Y014471D02*
X022736Y014471D01*
X022736Y014629D02*
X037713Y014629D01*
X037805Y014788D02*
X022736Y014788D01*
X022736Y014946D02*
X037932Y014946D01*
X038116Y015105D02*
X022736Y015105D01*
X022736Y015263D02*
X038485Y015263D01*
X038988Y015263D02*
X039473Y015263D01*
X039473Y015105D02*
X039358Y015105D01*
X039473Y015422D02*
X022736Y015422D01*
X022736Y015580D02*
X039473Y015580D01*
X039473Y015739D02*
X022736Y015739D01*
X022736Y015897D02*
X039473Y015897D01*
X039473Y016056D02*
X022736Y016056D01*
X022736Y016214D02*
X039473Y016214D01*
X039473Y016373D02*
X022736Y016373D01*
X022736Y016531D02*
X039473Y016531D01*
X039473Y016690D02*
X022736Y016690D01*
X022736Y016848D02*
X039473Y016848D01*
X039473Y017007D02*
X039262Y017007D01*
X038211Y017007D02*
X022692Y017007D01*
X022544Y017165D02*
X037986Y017165D01*
X037837Y017324D02*
X022386Y017324D01*
X022227Y017482D02*
X037745Y017482D01*
X037680Y017641D02*
X022069Y017641D01*
X021910Y017799D02*
X037637Y017799D01*
X037627Y017958D02*
X021752Y017958D01*
X021593Y018116D02*
X037627Y018116D01*
X037665Y018275D02*
X021435Y018275D01*
X021276Y018433D02*
X037714Y018433D01*
X037805Y018592D02*
X021118Y018592D01*
X020959Y018750D02*
X037932Y018750D01*
X038117Y018909D02*
X020801Y018909D01*
X020642Y019067D02*
X038488Y019067D01*
X038985Y019067D02*
X039473Y019067D01*
X039473Y018909D02*
X039356Y018909D01*
X039473Y019226D02*
X037634Y019226D01*
X037640Y019232D02*
X037664Y019273D01*
X037676Y019319D01*
X037676Y019699D01*
X037141Y019699D01*
X037141Y019814D01*
X037676Y019814D01*
X037676Y020193D01*
X037664Y020239D01*
X037640Y020280D01*
X037607Y020314D01*
X037566Y020337D01*
X037520Y020350D01*
X037141Y020350D01*
X037141Y019814D01*
X037025Y019814D01*
X037025Y019699D01*
X036490Y019699D01*
X036490Y019319D01*
X036502Y019273D01*
X036526Y019232D01*
X036559Y019199D01*
X036600Y019175D01*
X036646Y019163D01*
X037025Y019163D01*
X037025Y019698D01*
X037141Y019698D01*
X037141Y019163D01*
X037520Y019163D01*
X037566Y019175D01*
X037607Y019199D01*
X037640Y019232D01*
X037676Y019384D02*
X039473Y019384D01*
X039473Y019543D02*
X037676Y019543D01*
X037676Y019860D02*
X039473Y019860D01*
X039473Y020018D02*
X037676Y020018D01*
X037676Y020177D02*
X039473Y020177D01*
X039473Y020335D02*
X037570Y020335D01*
X037141Y020335D02*
X037025Y020335D01*
X037025Y020350D02*
X036646Y020350D01*
X036600Y020337D01*
X036559Y020314D01*
X036526Y020280D01*
X036502Y020239D01*
X036490Y020193D01*
X036490Y019814D01*
X037025Y019814D01*
X037025Y020350D01*
X037025Y020177D02*
X037141Y020177D01*
X037141Y020018D02*
X037025Y020018D01*
X037025Y019860D02*
X037141Y019860D01*
X037141Y019701D02*
X039473Y019701D01*
X039473Y020494D02*
X019216Y020494D01*
X019374Y020335D02*
X034330Y020335D01*
X034301Y020306D02*
X034264Y020217D01*
X034264Y019295D01*
X034301Y019207D01*
X034368Y019139D01*
X034457Y019103D01*
X035379Y019103D01*
X035467Y019139D01*
X035535Y019207D01*
X035571Y019295D01*
X035571Y020217D01*
X035535Y020306D01*
X035467Y020373D01*
X035379Y020410D01*
X034457Y020410D01*
X034368Y020373D01*
X034301Y020306D01*
X034264Y020177D02*
X019533Y020177D01*
X019691Y020018D02*
X034264Y020018D01*
X034264Y019860D02*
X019850Y019860D01*
X020008Y019701D02*
X034264Y019701D01*
X034264Y019543D02*
X020167Y019543D01*
X020325Y019384D02*
X034264Y019384D01*
X034293Y019226D02*
X020484Y019226D01*
X019998Y018750D02*
X016521Y018750D01*
X016521Y018650D02*
X016521Y019141D01*
X016485Y019230D01*
X016417Y019297D01*
X016329Y019334D01*
X015837Y019334D01*
X015749Y019297D01*
X015687Y019236D01*
X006828Y019236D01*
X006703Y019184D01*
X005561Y018042D01*
X005561Y018178D01*
X005488Y018354D01*
X005354Y018488D01*
X005178Y018561D01*
X004988Y018561D01*
X004812Y018488D01*
X004678Y018354D01*
X004605Y018178D01*
X004605Y017988D01*
X004678Y017812D01*
X004812Y017678D01*
X004988Y017605D01*
X005124Y017605D01*
X005080Y017561D01*
X004988Y017561D01*
X004812Y017488D01*
X004678Y017354D01*
X004605Y017178D01*
X004605Y016988D01*
X004678Y016812D01*
X004812Y016678D01*
X004988Y016605D01*
X005178Y016605D01*
X005354Y016678D01*
X005488Y016812D01*
X005561Y016988D01*
X005561Y017080D01*
X007036Y018556D01*
X015687Y018556D01*
X015749Y018494D01*
X015837Y018457D01*
X016329Y018457D01*
X016417Y018494D01*
X016485Y018562D01*
X016521Y018650D01*
X016497Y018592D02*
X020156Y018592D01*
X020315Y018433D02*
X006914Y018433D01*
X006755Y018275D02*
X020473Y018275D01*
X020632Y018116D02*
X006597Y018116D01*
X006438Y017958D02*
X008597Y017958D01*
X008599Y017958D02*
X008415Y017882D01*
X008274Y017741D01*
X008198Y017558D01*
X008198Y017359D01*
X008274Y017175D01*
X008415Y017034D01*
X008599Y016958D01*
X009318Y016958D01*
X009501Y017034D01*
X009642Y017175D01*
X009718Y017359D01*
X009718Y017558D01*
X009642Y017741D01*
X009501Y017882D01*
X009318Y017958D01*
X008599Y017958D01*
X008332Y017799D02*
X006280Y017799D01*
X006121Y017641D02*
X008232Y017641D01*
X008198Y017482D02*
X005963Y017482D01*
X005804Y017324D02*
X008213Y017324D01*
X008284Y017165D02*
X005646Y017165D01*
X005561Y017007D02*
X008481Y017007D01*
X007626Y016627D02*
X007594Y016689D01*
X007554Y016745D01*
X007505Y016794D01*
X007449Y016834D01*
X007387Y016866D01*
X007321Y016887D01*
X007253Y016898D01*
X006958Y016898D01*
X006663Y016898D01*
X006595Y016887D01*
X006529Y016866D01*
X006467Y016834D01*
X006411Y016794D01*
X006362Y016745D01*
X006322Y016689D01*
X006290Y016627D01*
X006269Y016561D01*
X006258Y016493D01*
X006258Y016458D01*
X006258Y016423D01*
X006269Y016355D01*
X006290Y016289D01*
X006322Y016227D01*
X006362Y016171D01*
X006411Y016122D01*
X006467Y016082D01*
X006529Y016050D01*
X006595Y016029D01*
X006663Y016018D01*
X006958Y016018D01*
X006958Y016458D01*
X006958Y016458D01*
X006258Y016458D01*
X006958Y016458D01*
X006958Y016458D01*
X006958Y016018D01*
X007253Y016018D01*
X007321Y016029D01*
X007387Y016050D01*
X007449Y016082D01*
X007505Y016122D01*
X007554Y016171D01*
X007594Y016227D01*
X007626Y016289D01*
X007647Y016355D01*
X007658Y016423D01*
X007658Y016458D01*
X006958Y016458D01*
X006958Y016898D01*
X006958Y016458D01*
X006958Y016458D01*
X006958Y016458D01*
X007658Y016458D01*
X007658Y016493D01*
X007647Y016561D01*
X007626Y016627D01*
X007594Y016690D02*
X012558Y016690D01*
X012558Y016531D02*
X007652Y016531D01*
X007650Y016373D02*
X012558Y016373D01*
X012558Y016214D02*
X007585Y016214D01*
X007397Y016056D02*
X010545Y016056D01*
X010406Y015897D02*
X009465Y015897D01*
X009572Y015105D02*
X010423Y015105D01*
X010552Y014946D02*
X003063Y014946D01*
X003063Y014788D02*
X010552Y014788D01*
X010552Y014629D02*
X003063Y014629D01*
X003063Y014471D02*
X010552Y014471D01*
X010552Y014312D02*
X004491Y014312D01*
X004700Y014154D02*
X010552Y014154D01*
X009717Y013995D02*
X004841Y013995D01*
X004933Y013837D02*
X009648Y013837D01*
X009648Y013678D02*
X004992Y013678D01*
X005034Y013520D02*
X009648Y013520D01*
X009648Y013361D02*
X005039Y013361D01*
X005038Y013203D02*
X009648Y013203D01*
X009702Y013044D02*
X004995Y013044D01*
X004940Y012886D02*
X009807Y012886D01*
X009664Y012727D02*
X004849Y012727D01*
X004713Y012569D02*
X009651Y012569D01*
X009651Y012410D02*
X004513Y012410D01*
X004101Y012252D02*
X009651Y012252D01*
X009651Y012093D02*
X008382Y012093D01*
X008402Y011935D02*
X009665Y011935D01*
X009729Y011776D02*
X008402Y011776D01*
X008402Y011618D02*
X009729Y011618D01*
X009729Y011459D02*
X008402Y011459D01*
X008402Y011301D02*
X009729Y011301D01*
X009729Y011142D02*
X008402Y011142D01*
X008315Y010984D02*
X009729Y010984D01*
X009729Y010825D02*
X007471Y010825D01*
X007313Y010667D02*
X009611Y010667D01*
X009593Y010508D02*
X007154Y010508D01*
X006996Y010350D02*
X009593Y010350D01*
X009641Y010191D02*
X006837Y010191D01*
X006879Y010033D02*
X007249Y010033D01*
X007213Y009874D02*
X006888Y009874D01*
X006888Y009716D02*
X007213Y009716D01*
X007202Y009557D02*
X006888Y009557D01*
X006886Y009399D02*
X007044Y009399D01*
X007530Y008923D02*
X009729Y008923D01*
X009729Y008765D02*
X007371Y008765D01*
X007534Y008365D02*
X007466Y008298D01*
X007430Y008210D01*
X007430Y007287D01*
X007466Y007199D01*
X007534Y007132D01*
X007622Y007095D01*
X008544Y007095D01*
X008632Y007132D01*
X008700Y007199D01*
X008736Y007287D01*
X008736Y008210D01*
X008700Y008298D01*
X008632Y008365D01*
X008544Y008402D01*
X007622Y008402D01*
X007534Y008365D01*
X007463Y008289D02*
X006673Y008289D01*
X006673Y008448D02*
X009714Y008448D01*
X009729Y008606D02*
X006868Y008606D01*
X006611Y008131D02*
X007430Y008131D01*
X007430Y007972D02*
X006453Y007972D01*
X006294Y007814D02*
X007430Y007814D01*
X007430Y007655D02*
X006136Y007655D01*
X005977Y007497D02*
X007430Y007497D01*
X007430Y007338D02*
X005819Y007338D01*
X005660Y007180D02*
X007486Y007180D01*
X007504Y006070D02*
X004876Y006070D01*
X005035Y006229D02*
X037263Y006229D01*
X037263Y006387D02*
X005153Y006387D01*
X005153Y006546D02*
X037282Y006546D01*
X037324Y006704D02*
X005185Y006704D01*
X005343Y006863D02*
X037403Y006863D01*
X037507Y007021D02*
X005502Y007021D01*
X005016Y007497D02*
X003063Y007497D01*
X003063Y007655D02*
X005174Y007655D01*
X005333Y007814D02*
X003063Y007814D01*
X003063Y007972D02*
X005491Y007972D01*
X005650Y008131D02*
X003063Y008131D01*
X003063Y008289D02*
X005808Y008289D01*
X005967Y008448D02*
X003063Y008448D01*
X003063Y008606D02*
X005799Y008606D01*
X005778Y008765D02*
X004311Y008765D01*
X004611Y008923D02*
X005778Y008923D01*
X005778Y009082D02*
X004769Y009082D01*
X004881Y009240D02*
X005778Y009240D01*
X005780Y009399D02*
X004968Y009399D01*
X005010Y009557D02*
X005778Y009557D01*
X005778Y009716D02*
X005039Y009716D01*
X005039Y009874D02*
X005778Y009874D01*
X005787Y010033D02*
X005019Y010033D01*
X004977Y010191D02*
X005942Y010191D01*
X006040Y010350D02*
X004900Y010350D01*
X004803Y010508D02*
X006193Y010508D01*
X006351Y010667D02*
X004644Y010667D01*
X004394Y010825D02*
X006510Y010825D01*
X006668Y010984D02*
X003063Y010984D01*
X003063Y011142D02*
X004991Y011142D01*
X004990Y011146D02*
X005002Y011100D01*
X005026Y011059D01*
X005059Y011026D01*
X005100Y011002D01*
X005146Y010990D01*
X005525Y010990D01*
X005525Y011525D01*
X005641Y011525D01*
X005641Y010990D01*
X006020Y010990D01*
X006066Y011002D01*
X006107Y011026D01*
X006140Y011059D01*
X006164Y011100D01*
X006176Y011146D01*
X006176Y011525D01*
X005641Y011525D01*
X005641Y011641D01*
X005525Y011641D01*
X005525Y011525D01*
X004990Y011525D01*
X004990Y011146D01*
X004990Y011301D02*
X003063Y011301D01*
X003063Y011459D02*
X004990Y011459D01*
X004990Y011641D02*
X005525Y011641D01*
X005525Y012176D01*
X005146Y012176D01*
X005100Y012164D01*
X005059Y012140D01*
X005026Y012107D01*
X005002Y012066D01*
X004990Y012020D01*
X004990Y011641D01*
X004990Y011776D02*
X003063Y011776D01*
X003063Y011618D02*
X005525Y011618D01*
X005641Y011618D02*
X007095Y011618D01*
X007095Y011776D02*
X006176Y011776D01*
X006176Y011641D02*
X006176Y012020D01*
X006164Y012066D01*
X006140Y012107D01*
X006107Y012140D01*
X006066Y012164D01*
X006020Y012176D01*
X005641Y012176D01*
X005641Y011641D01*
X006176Y011641D01*
X006176Y011459D02*
X007095Y011459D01*
X006985Y011301D02*
X006176Y011301D01*
X006175Y011142D02*
X006827Y011142D01*
X007095Y011935D02*
X006176Y011935D01*
X006149Y012093D02*
X007115Y012093D01*
X005641Y012093D02*
X005525Y012093D01*
X005525Y011935D02*
X005641Y011935D01*
X005641Y011776D02*
X005525Y011776D01*
X005525Y011459D02*
X005641Y011459D01*
X005641Y011301D02*
X005525Y011301D01*
X005525Y011142D02*
X005641Y011142D01*
X004990Y011935D02*
X003063Y011935D01*
X003063Y012093D02*
X005018Y012093D01*
X003758Y012252D02*
X003063Y012252D01*
X003063Y012410D02*
X003346Y012410D01*
X003146Y012569D02*
X003063Y012569D01*
X003063Y014154D02*
X003159Y014154D01*
X003063Y014312D02*
X003368Y014312D01*
X003063Y015105D02*
X008344Y015105D01*
X008238Y015263D02*
X003063Y015263D01*
X003063Y015422D02*
X008198Y015422D01*
X008207Y015580D02*
X003063Y015580D01*
X003063Y015739D02*
X004846Y015739D01*
X004864Y015726D02*
X004923Y015696D01*
X004985Y015676D01*
X005050Y015665D01*
X005083Y015665D01*
X005083Y016083D01*
X004665Y016083D01*
X004665Y016050D01*
X004676Y015985D01*
X004696Y015923D01*
X004726Y015864D01*
X004764Y015811D01*
X004811Y015764D01*
X004864Y015726D01*
X005083Y015739D02*
X005083Y015739D01*
X005083Y015665D02*
X005116Y015665D01*
X005181Y015676D01*
X005243Y015696D01*
X005302Y015726D01*
X005355Y015764D01*
X005402Y015811D01*
X005440Y015864D01*
X005470Y015923D01*
X005491Y015985D01*
X005501Y016050D01*
X005501Y016083D01*
X005083Y016083D01*
X005083Y016083D01*
X005083Y016083D01*
X004665Y016083D01*
X004665Y016116D01*
X004676Y016181D01*
X004696Y016243D01*
X004726Y016302D01*
X004764Y016355D01*
X004811Y016402D01*
X004864Y016440D01*
X004923Y016470D01*
X004985Y016491D01*
X005050Y016501D01*
X005083Y016501D01*
X005083Y016083D01*
X005083Y015665D01*
X005083Y015897D02*
X005083Y015897D01*
X005083Y016056D02*
X005083Y016056D01*
X005083Y016083D02*
X005083Y016083D01*
X005083Y016083D01*
X005083Y016501D01*
X005116Y016501D01*
X005181Y016491D01*
X005243Y016470D01*
X005302Y016440D01*
X005355Y016402D01*
X005402Y016355D01*
X005440Y016302D01*
X005470Y016243D01*
X005491Y016181D01*
X005501Y016116D01*
X005501Y016083D01*
X005083Y016083D01*
X005083Y016214D02*
X005083Y016214D01*
X005083Y016373D02*
X005083Y016373D01*
X004782Y016373D02*
X003063Y016373D01*
X003063Y016531D02*
X006264Y016531D01*
X006266Y016373D02*
X005384Y016373D01*
X005480Y016214D02*
X006331Y016214D01*
X006519Y016056D02*
X005501Y016056D01*
X005457Y015897D02*
X008451Y015897D01*
X008273Y015739D02*
X005320Y015739D01*
X004709Y015897D02*
X003063Y015897D01*
X003063Y016056D02*
X004665Y016056D01*
X004686Y016214D02*
X003063Y016214D01*
X003063Y016690D02*
X004801Y016690D01*
X004663Y016848D02*
X003063Y016848D01*
X003063Y017007D02*
X004605Y017007D01*
X004605Y017165D02*
X003063Y017165D01*
X003063Y017324D02*
X004666Y017324D01*
X004806Y017482D02*
X003063Y017482D01*
X003063Y017641D02*
X004903Y017641D01*
X004691Y017799D02*
X003063Y017799D01*
X003063Y017958D02*
X004618Y017958D01*
X004605Y018116D02*
X003063Y018116D01*
X003063Y018275D02*
X004645Y018275D01*
X004757Y018433D02*
X003063Y018433D01*
X003063Y018592D02*
X006111Y018592D01*
X006269Y018750D02*
X003063Y018750D01*
X003063Y018909D02*
X006428Y018909D01*
X006586Y019067D02*
X003063Y019067D01*
X003063Y019226D02*
X006804Y019226D01*
X005952Y018433D02*
X005409Y018433D01*
X005521Y018275D02*
X005794Y018275D01*
X005635Y018116D02*
X005561Y018116D01*
X005503Y016848D02*
X006494Y016848D01*
X006322Y016690D02*
X005365Y016690D01*
X006958Y016690D02*
X006958Y016690D01*
X006958Y016848D02*
X006958Y016848D01*
X006958Y016531D02*
X006958Y016531D01*
X006958Y016373D02*
X006958Y016373D01*
X006958Y016214D02*
X006958Y016214D01*
X006958Y016056D02*
X006958Y016056D01*
X007422Y016848D02*
X012535Y016848D01*
X012503Y017007D02*
X009435Y017007D01*
X009632Y017165D02*
X012503Y017165D01*
X012503Y017324D02*
X009704Y017324D01*
X009718Y017482D02*
X012503Y017482D01*
X012514Y017641D02*
X009684Y017641D01*
X009584Y017799D02*
X012678Y017799D01*
X013318Y017799D02*
X020949Y017799D01*
X021107Y017641D02*
X014088Y017641D01*
X014091Y017635D02*
X014068Y017676D01*
X014034Y017710D01*
X013993Y017734D01*
X013947Y017746D01*
X013716Y017746D01*
X013716Y017319D01*
X014104Y017319D01*
X014104Y017590D01*
X014091Y017635D01*
X014104Y017482D02*
X021266Y017482D01*
X021424Y017324D02*
X014104Y017324D01*
X014104Y017223D02*
X013716Y017223D01*
X013716Y016795D01*
X013947Y016795D01*
X013993Y016808D01*
X014034Y016831D01*
X014068Y016865D01*
X014091Y016906D01*
X014104Y016952D01*
X014104Y017223D01*
X014104Y017165D02*
X021583Y017165D01*
X021741Y017007D02*
X014104Y017007D01*
X014051Y016848D02*
X021900Y016848D01*
X022056Y016690D02*
X013438Y016690D01*
X013438Y016531D02*
X022056Y016531D01*
X022056Y016373D02*
X013438Y016373D01*
X013438Y016214D02*
X022056Y016214D01*
X022056Y016056D02*
X013438Y016056D01*
X013620Y015897D02*
X013716Y015897D01*
X013716Y015996D02*
X013716Y015569D01*
X014104Y015569D01*
X014104Y015840D01*
X014091Y015885D01*
X014068Y015926D01*
X014034Y015960D01*
X013993Y015984D01*
X013947Y015996D01*
X013716Y015996D01*
X013716Y015739D02*
X013620Y015739D01*
X013620Y015580D02*
X013716Y015580D01*
X013716Y015473D02*
X014104Y015473D01*
X014104Y015202D01*
X014091Y015156D01*
X014068Y015115D01*
X014034Y015081D01*
X013993Y015058D01*
X013947Y015045D01*
X013716Y015045D01*
X013716Y015473D01*
X013716Y015422D02*
X013620Y015422D01*
X013620Y015263D02*
X013716Y015263D01*
X013716Y015105D02*
X013620Y015105D01*
X013338Y014946D02*
X022056Y014946D01*
X022056Y014788D02*
X013338Y014788D01*
X013338Y014629D02*
X022056Y014629D01*
X022056Y014471D02*
X018116Y014471D01*
X018275Y014312D02*
X022056Y014312D01*
X022056Y014154D02*
X018433Y014154D01*
X018592Y013995D02*
X022056Y013995D01*
X022056Y013837D02*
X018750Y013837D01*
X018909Y013678D02*
X022056Y013678D01*
X022056Y013520D02*
X019067Y013520D01*
X019226Y013361D02*
X022056Y013361D01*
X022056Y013203D02*
X019384Y013203D01*
X019543Y013044D02*
X022056Y013044D01*
X022056Y012886D02*
X019701Y012886D01*
X019860Y012727D02*
X022056Y012727D01*
X022056Y012569D02*
X020557Y012569D01*
X020606Y012410D02*
X022056Y012410D01*
X022056Y012252D02*
X020606Y012252D01*
X020606Y012093D02*
X021720Y012093D01*
X021693Y011935D02*
X020606Y011935D01*
X020540Y011776D02*
X021693Y011776D01*
X021693Y011618D02*
X020581Y011618D01*
X020497Y010825D02*
X021693Y010825D01*
X021693Y010667D02*
X020598Y010667D01*
X020606Y010508D02*
X021695Y010508D01*
X021818Y010350D02*
X020606Y010350D01*
X019355Y010825D02*
X017577Y010825D01*
X017548Y010854D02*
X017548Y011651D01*
X017496Y011776D01*
X019311Y011776D01*
X019270Y011618D02*
X017548Y011618D01*
X017548Y011459D02*
X019246Y011459D01*
X019246Y011301D02*
X017548Y011301D01*
X017548Y011142D02*
X019246Y011142D01*
X019246Y010984D02*
X017548Y010984D01*
X017548Y010854D02*
X017610Y010792D01*
X017646Y010704D01*
X017646Y010212D01*
X017610Y010124D01*
X017542Y010056D01*
X017454Y010020D01*
X016962Y010020D01*
X016874Y010056D01*
X016806Y010124D01*
X016770Y010212D01*
X016770Y010704D01*
X016806Y010792D01*
X016868Y010854D01*
X016868Y011442D01*
X016416Y011894D01*
X016416Y011413D01*
X015883Y011413D01*
X015723Y011413D01*
X015723Y011253D01*
X015190Y011253D01*
X015190Y010601D01*
X015202Y010555D01*
X015226Y010514D01*
X015260Y010480D01*
X015301Y010457D01*
X015346Y010444D01*
X015723Y010444D01*
X015723Y011253D01*
X015883Y011253D01*
X015883Y010444D01*
X016260Y010444D01*
X016306Y010457D01*
X016347Y010480D01*
X016380Y010514D01*
X016404Y010555D01*
X016416Y010601D01*
X016416Y011253D01*
X015883Y011253D01*
X015883Y011413D01*
X015883Y012222D01*
X016089Y012222D01*
X015755Y012556D01*
X014161Y012556D01*
X014043Y012437D01*
X014043Y011955D01*
X014007Y011867D01*
X013939Y011800D01*
X013851Y011763D01*
X012875Y011763D01*
X012787Y011800D01*
X012720Y011867D01*
X012683Y011955D01*
X012683Y012531D01*
X012720Y012619D01*
X012787Y012687D01*
X012875Y012723D01*
X013367Y012723D01*
X013732Y013088D01*
X013828Y013184D01*
X013953Y013236D01*
X015963Y013236D01*
X016088Y013184D01*
X017401Y011871D01*
X017496Y011776D01*
X017337Y011935D02*
X019246Y011935D01*
X019246Y012093D02*
X017179Y012093D01*
X017020Y012252D02*
X019246Y012252D01*
X019215Y012410D02*
X016862Y012410D01*
X016703Y012569D02*
X019057Y012569D01*
X018898Y012727D02*
X016545Y012727D01*
X016386Y012886D02*
X018740Y012886D01*
X018581Y013044D02*
X016228Y013044D01*
X016043Y013203D02*
X018423Y013203D01*
X018264Y013361D02*
X013029Y013361D01*
X012896Y013203D02*
X013873Y013203D01*
X013688Y013044D02*
X012896Y013044D01*
X012809Y012886D02*
X013530Y012886D01*
X013371Y012727D02*
X011769Y012727D01*
X011611Y012569D02*
X012699Y012569D01*
X012683Y012410D02*
X011452Y012410D01*
X011415Y012252D02*
X012683Y012252D01*
X012683Y012093D02*
X011437Y012093D01*
X011437Y011935D02*
X012692Y011935D01*
X012844Y011776D02*
X011437Y011776D01*
X011437Y011618D02*
X012749Y011618D01*
X012743Y011597D02*
X012743Y011373D01*
X013323Y011373D01*
X013323Y011293D01*
X013403Y011293D01*
X013403Y010913D01*
X013827Y010913D01*
X013873Y010925D01*
X013914Y010949D01*
X013947Y010983D01*
X013971Y011024D01*
X013983Y011069D01*
X013983Y011293D01*
X013403Y011293D01*
X013403Y011373D01*
X013323Y011373D01*
X013323Y011753D01*
X012899Y011753D01*
X012854Y011741D01*
X012813Y011717D01*
X012779Y011684D01*
X012755Y011643D01*
X012743Y011597D01*
X012743Y011459D02*
X011437Y011459D01*
X011437Y011301D02*
X013323Y011301D01*
X013323Y011293D02*
X012743Y011293D01*
X012743Y011069D01*
X012755Y011024D01*
X012779Y010983D01*
X012813Y010949D01*
X012854Y010925D01*
X012899Y010913D01*
X013323Y010913D01*
X013323Y011293D01*
X013403Y011301D02*
X015723Y011301D01*
X015723Y011413D02*
X015190Y011413D01*
X015190Y012065D01*
X015202Y012111D01*
X015226Y012152D01*
X015260Y012186D01*
X015301Y012209D01*
X015346Y012222D01*
X015723Y012222D01*
X015723Y011413D01*
X015723Y011459D02*
X015883Y011459D01*
X015883Y011301D02*
X016868Y011301D01*
X016868Y011142D02*
X016416Y011142D01*
X016416Y010984D02*
X016868Y010984D01*
X016839Y010825D02*
X016416Y010825D01*
X016416Y010667D02*
X016770Y010667D01*
X016770Y010508D02*
X016374Y010508D01*
X016770Y010350D02*
X014043Y010350D01*
X014043Y010508D02*
X015232Y010508D01*
X015190Y010667D02*
X014043Y010667D01*
X013980Y010825D02*
X015190Y010825D01*
X015190Y010984D02*
X013948Y010984D01*
X013983Y011142D02*
X015190Y011142D01*
X015190Y011459D02*
X013983Y011459D01*
X013983Y011373D02*
X013983Y011597D01*
X013971Y011643D01*
X013947Y011684D01*
X013914Y011717D01*
X013873Y011741D01*
X013827Y011753D01*
X013403Y011753D01*
X013403Y011373D01*
X013983Y011373D01*
X013977Y011618D02*
X015190Y011618D01*
X015190Y011776D02*
X013882Y011776D01*
X014034Y011935D02*
X015190Y011935D01*
X015197Y012093D02*
X014043Y012093D01*
X014043Y012252D02*
X016059Y012252D01*
X015900Y012410D02*
X014043Y012410D01*
X013403Y011618D02*
X013323Y011618D01*
X013323Y011459D02*
X013403Y011459D01*
X013403Y011142D02*
X013323Y011142D01*
X013323Y010984D02*
X013403Y010984D01*
X012778Y010984D02*
X011437Y010984D01*
X011437Y011142D02*
X012743Y011142D01*
X012746Y010825D02*
X011437Y010825D01*
X010757Y010825D02*
X010409Y010825D01*
X010409Y010984D02*
X010757Y010984D01*
X010757Y011142D02*
X010409Y011142D01*
X010409Y011301D02*
X010757Y011301D01*
X010757Y011459D02*
X010409Y011459D01*
X010409Y011618D02*
X010757Y011618D01*
X010757Y011776D02*
X010409Y011776D01*
X010527Y010667D02*
X010639Y010667D01*
X010621Y010508D02*
X010545Y010508D01*
X010545Y010350D02*
X010621Y010350D01*
X010670Y010191D02*
X010497Y010191D01*
X010485Y010033D02*
X010730Y010033D01*
X010621Y009874D02*
X010545Y009874D01*
X010545Y009716D02*
X010621Y009716D01*
X010621Y009557D02*
X010545Y009557D01*
X010452Y009399D02*
X010714Y009399D01*
X010409Y009240D02*
X011869Y009240D01*
X011797Y009082D02*
X010409Y009082D01*
X010409Y008923D02*
X011713Y008923D01*
X011713Y008765D02*
X010409Y008765D01*
X010590Y008606D02*
X011713Y008606D01*
X011713Y008448D02*
X011386Y008448D01*
X011381Y008468D02*
X011357Y008509D01*
X011324Y008542D01*
X011282Y008566D01*
X011237Y008578D01*
X011005Y008578D01*
X011005Y008131D01*
X011393Y008131D01*
X011393Y008422D01*
X011381Y008468D01*
X011393Y008289D02*
X011713Y008289D01*
X011751Y008131D02*
X011005Y008131D01*
X011005Y008289D02*
X010909Y008289D01*
X010909Y008448D02*
X011005Y008448D01*
X011005Y007972D02*
X010909Y007972D01*
X010909Y007814D02*
X011005Y007814D01*
X011005Y007655D02*
X010909Y007655D01*
X011355Y007655D02*
X014430Y007655D01*
X014430Y007497D02*
X008736Y007497D01*
X008736Y007655D02*
X009740Y007655D01*
X009713Y007814D02*
X008736Y007814D01*
X008736Y007972D02*
X009713Y007972D01*
X009713Y008131D02*
X008736Y008131D01*
X008704Y008289D02*
X009713Y008289D01*
X009729Y009082D02*
X008866Y009082D01*
X008953Y009240D02*
X009729Y009240D01*
X009653Y010033D02*
X008917Y010033D01*
X009653Y010083D02*
X010069Y010083D01*
X010069Y010083D01*
X009653Y010083D01*
X011393Y007972D02*
X014430Y007972D01*
X014430Y007814D02*
X011393Y007814D01*
X013415Y008131D02*
X014430Y008131D01*
X014430Y008210D02*
X014430Y007287D01*
X014466Y007199D01*
X014534Y007132D01*
X014622Y007095D01*
X015544Y007095D01*
X015632Y007132D01*
X015700Y007199D01*
X015736Y007287D01*
X015736Y008210D01*
X015700Y008298D01*
X015632Y008365D01*
X015544Y008402D01*
X014622Y008402D01*
X014534Y008365D01*
X014466Y008298D01*
X014430Y008210D01*
X014463Y008289D02*
X013453Y008289D01*
X014430Y007338D02*
X008736Y007338D01*
X008680Y007180D02*
X014486Y007180D01*
X014504Y006070D02*
X008662Y006070D01*
X008676Y005912D02*
X014490Y005912D01*
X014490Y005753D02*
X008676Y005753D01*
X008676Y005436D02*
X014490Y005436D01*
X014490Y005525D02*
X014490Y005146D01*
X014502Y005100D01*
X014526Y005059D01*
X014559Y005026D01*
X014600Y005002D01*
X014646Y004990D01*
X015025Y004990D01*
X015025Y005525D01*
X014490Y005525D01*
X014490Y005278D02*
X008676Y005278D01*
X008669Y005119D02*
X014497Y005119D01*
X014009Y004802D02*
X016158Y004802D01*
X015999Y004644D02*
X014167Y004644D01*
X014272Y004485D02*
X015894Y004485D01*
X015812Y004327D02*
X014354Y004327D01*
X014397Y004168D02*
X015770Y004168D01*
X015745Y004010D02*
X014421Y004010D01*
X014421Y003851D02*
X015745Y003851D01*
X015769Y003693D02*
X014397Y003693D01*
X014355Y003534D02*
X015812Y003534D01*
X015893Y003376D02*
X014273Y003376D01*
X014169Y003217D02*
X015998Y003217D01*
X017712Y003217D02*
X019454Y003217D01*
X019350Y003376D02*
X017817Y003376D01*
X017898Y003534D02*
X019268Y003534D01*
X019226Y003693D02*
X017940Y003693D01*
X017965Y003851D02*
X019201Y003851D01*
X019201Y004010D02*
X017965Y004010D01*
X017940Y004168D02*
X019226Y004168D01*
X019269Y004327D02*
X017897Y004327D01*
X017816Y004485D02*
X019351Y004485D01*
X019456Y004644D02*
X017710Y004644D01*
X017552Y004802D02*
X019614Y004802D01*
X019877Y004961D02*
X017289Y004961D01*
X016421Y004961D02*
X013745Y004961D01*
X012877Y004961D02*
X010289Y004961D01*
X010552Y004802D02*
X012614Y004802D01*
X012456Y004644D02*
X010710Y004644D01*
X010816Y004485D02*
X012351Y004485D01*
X012269Y004327D02*
X010897Y004327D01*
X010940Y004168D02*
X012226Y004168D01*
X012201Y004010D02*
X010965Y004010D01*
X010965Y003851D02*
X012201Y003851D01*
X012226Y003693D02*
X010940Y003693D01*
X010898Y003534D02*
X012268Y003534D01*
X012350Y003376D02*
X010817Y003376D01*
X010712Y003217D02*
X012454Y003217D01*
X015025Y005119D02*
X015141Y005119D01*
X015141Y005278D02*
X015025Y005278D01*
X015025Y005436D02*
X015141Y005436D01*
X015141Y005912D02*
X015025Y005912D01*
X015025Y006070D02*
X015141Y006070D01*
X015662Y006070D02*
X021504Y006070D01*
X021490Y005912D02*
X015676Y005912D01*
X015676Y005753D02*
X021490Y005753D01*
X021490Y005525D02*
X021490Y005146D01*
X021502Y005100D01*
X021526Y005059D01*
X021559Y005026D01*
X021600Y005002D01*
X021646Y004990D01*
X022025Y004990D01*
X022025Y005525D01*
X021490Y005525D01*
X021490Y005436D02*
X015676Y005436D01*
X015676Y005278D02*
X021490Y005278D01*
X021497Y005119D02*
X015669Y005119D01*
X015680Y007180D02*
X021486Y007180D01*
X021466Y007199D02*
X021534Y007132D01*
X021622Y007095D01*
X022544Y007095D01*
X022632Y007132D01*
X022700Y007199D01*
X022736Y007287D01*
X022736Y008210D01*
X022700Y008298D01*
X022632Y008365D01*
X022544Y008402D01*
X021622Y008402D01*
X021534Y008365D01*
X021466Y008298D01*
X021430Y008210D01*
X021430Y007287D01*
X021466Y007199D01*
X021430Y007338D02*
X015736Y007338D01*
X015736Y007497D02*
X021430Y007497D01*
X021430Y007655D02*
X015736Y007655D01*
X015736Y007814D02*
X021430Y007814D01*
X021430Y007972D02*
X015736Y007972D01*
X015736Y008131D02*
X021430Y008131D01*
X021463Y008289D02*
X015704Y008289D01*
X016932Y010033D02*
X013992Y010033D01*
X014043Y010191D02*
X016779Y010191D01*
X017484Y010033D02*
X019262Y010033D01*
X019246Y010191D02*
X017637Y010191D01*
X017646Y010350D02*
X019246Y010350D01*
X019246Y010508D02*
X017646Y010508D01*
X017646Y010667D02*
X019253Y010667D01*
X016851Y011459D02*
X016416Y011459D01*
X016416Y011618D02*
X016693Y011618D01*
X016534Y011776D02*
X016416Y011776D01*
X015883Y011776D02*
X015723Y011776D01*
X015723Y011618D02*
X015883Y011618D01*
X015883Y011935D02*
X015723Y011935D01*
X015723Y012093D02*
X015883Y012093D01*
X015883Y011142D02*
X015723Y011142D01*
X015723Y010984D02*
X015883Y010984D01*
X015883Y010825D02*
X015723Y010825D01*
X015723Y010667D02*
X015883Y010667D01*
X015883Y010508D02*
X015723Y010508D01*
X018106Y013520D02*
X013188Y013520D01*
X013311Y013678D02*
X017947Y013678D01*
X017789Y013837D02*
X013338Y013837D01*
X014057Y015105D02*
X022056Y015105D01*
X022056Y015263D02*
X014104Y015263D01*
X014104Y015422D02*
X022056Y015422D01*
X022056Y015580D02*
X014104Y015580D01*
X014104Y015739D02*
X022056Y015739D01*
X022056Y015897D02*
X014085Y015897D01*
X013716Y016848D02*
X013620Y016848D01*
X013620Y017007D02*
X013716Y017007D01*
X013716Y017165D02*
X013620Y017165D01*
X013620Y017324D02*
X013716Y017324D01*
X013716Y017482D02*
X013620Y017482D01*
X013620Y017641D02*
X013716Y017641D01*
X012558Y016056D02*
X011996Y016056D01*
X012135Y015897D02*
X012516Y015897D01*
X011293Y016056D02*
X011248Y016056D01*
X009319Y017958D02*
X020790Y017958D01*
X019839Y018909D02*
X016521Y018909D01*
X016521Y019067D02*
X019681Y019067D01*
X019522Y019226D02*
X016486Y019226D01*
X018888Y019860D02*
X009019Y019860D01*
X008397Y019860D02*
X003063Y019860D01*
X003063Y020018D02*
X008273Y020018D01*
X008270Y020177D02*
X003063Y020177D01*
X003063Y020335D02*
X008270Y020335D01*
X008270Y020494D02*
X003063Y020494D01*
X003063Y020652D02*
X008354Y020652D01*
X008128Y021043D02*
X007913Y021043D01*
X007715Y021125D01*
X007563Y021277D01*
X007481Y021476D01*
X007481Y021690D01*
X007563Y021889D01*
X007715Y022041D01*
X007913Y022123D01*
X008128Y022123D01*
X008326Y022041D01*
X008478Y021889D01*
X008521Y021787D01*
X008563Y021889D01*
X008715Y022041D01*
X008913Y022123D01*
X009128Y022123D01*
X009326Y022041D01*
X009478Y021889D01*
X009521Y021787D01*
X009563Y021889D01*
X009715Y022041D01*
X009913Y022123D01*
X010128Y022123D01*
X010326Y022041D01*
X010478Y021889D01*
X010561Y021690D01*
X010561Y021476D01*
X010478Y021277D01*
X010326Y021125D01*
X010128Y021043D01*
X009913Y021043D01*
X009715Y021125D01*
X009563Y021277D01*
X009521Y021379D01*
X009478Y021277D01*
X009326Y021125D01*
X009128Y021043D01*
X008913Y021043D01*
X008715Y021125D01*
X008563Y021277D01*
X008521Y021379D01*
X008478Y021277D01*
X008326Y021125D01*
X008128Y021043D01*
X008329Y021128D02*
X008712Y021128D01*
X008559Y021286D02*
X008482Y021286D01*
X007712Y021128D02*
X004996Y021128D01*
X004882Y021013D02*
X005216Y021347D01*
X005216Y021819D01*
X004882Y022153D01*
X004409Y022153D01*
X004103Y021847D01*
X003857Y022093D01*
X003646Y022093D01*
X003646Y021583D01*
X003646Y021073D01*
X003857Y021073D01*
X004103Y021319D01*
X004409Y021013D01*
X004882Y021013D01*
X005155Y021286D02*
X007559Y021286D01*
X007493Y021445D02*
X005216Y021445D01*
X005216Y021603D02*
X007481Y021603D01*
X007510Y021762D02*
X005216Y021762D01*
X005115Y021920D02*
X007594Y021920D01*
X007806Y022079D02*
X004956Y022079D01*
X004335Y022079D02*
X003871Y022079D01*
X004030Y021920D02*
X004177Y021920D01*
X003646Y021920D02*
X003646Y021920D01*
X003646Y021762D02*
X003646Y021762D01*
X003646Y021603D02*
X003646Y021603D01*
X003646Y021583D02*
X003646Y022093D01*
X003434Y022093D01*
X003136Y021794D01*
X003136Y021583D01*
X003136Y021372D01*
X003434Y021073D01*
X003646Y021073D01*
X003646Y021583D01*
X003646Y021583D01*
X003646Y021583D01*
X003136Y021583D01*
X003646Y021583D01*
X003646Y021583D01*
X003646Y021445D02*
X003646Y021445D01*
X003646Y021286D02*
X003646Y021286D01*
X003646Y021128D02*
X003646Y021128D01*
X003911Y021128D02*
X004295Y021128D01*
X004136Y021286D02*
X004070Y021286D01*
X003380Y021128D02*
X003063Y021128D01*
X003063Y021286D02*
X003221Y021286D01*
X003136Y021445D02*
X003063Y021445D01*
X003063Y021603D02*
X003136Y021603D01*
X003136Y021762D02*
X003063Y021762D01*
X003063Y021920D02*
X003261Y021920D01*
X003420Y022079D02*
X003063Y022079D01*
X003063Y022237D02*
X038153Y022237D01*
X037953Y022396D02*
X003063Y022396D01*
X003063Y022554D02*
X037817Y022554D01*
X037726Y022713D02*
X003063Y022713D01*
X003063Y022871D02*
X037671Y022871D01*
X037628Y023030D02*
X003063Y023030D01*
X003063Y023188D02*
X037627Y023188D01*
X037632Y023347D02*
X036678Y023347D01*
X036700Y023368D02*
X036632Y023301D01*
X036544Y023264D01*
X035622Y023264D01*
X035534Y023301D01*
X035466Y023368D01*
X035430Y023457D01*
X035430Y024379D01*
X035466Y024467D01*
X035534Y024535D01*
X035622Y024571D01*
X036544Y024571D01*
X036632Y024535D01*
X036700Y024467D01*
X036736Y024379D01*
X036736Y023457D01*
X036700Y023368D01*
X036736Y023505D02*
X037674Y023505D01*
X037733Y023664D02*
X036736Y023664D01*
X036736Y023822D02*
X037825Y023822D01*
X037966Y023981D02*
X036736Y023981D01*
X036736Y024139D02*
X038175Y024139D01*
X038287Y024388D02*
X038559Y024460D01*
X038803Y024601D01*
X039002Y024801D01*
X039143Y025045D01*
X039216Y025317D01*
X039216Y025599D01*
X039143Y025871D01*
X039002Y026115D01*
X038803Y026315D01*
X038559Y026456D01*
X038287Y026529D01*
X038005Y026529D01*
X037732Y026456D01*
X037488Y026315D01*
X037289Y026115D01*
X037148Y025871D01*
X037075Y025599D01*
X037075Y025317D01*
X037148Y025045D01*
X037289Y024801D01*
X037488Y024601D01*
X037732Y024460D01*
X038005Y024388D01*
X038287Y024388D01*
X038542Y024456D02*
X039473Y024456D01*
X039473Y024298D02*
X036736Y024298D01*
X036704Y024456D02*
X037749Y024456D01*
X037475Y024615D02*
X005153Y024615D01*
X005153Y024597D02*
X005153Y025069D01*
X004819Y025403D01*
X004347Y025403D01*
X004041Y025097D01*
X003794Y025343D01*
X003583Y025343D01*
X003372Y025343D01*
X003073Y025044D01*
X003073Y024833D01*
X003073Y024622D01*
X003372Y024323D01*
X003583Y024323D01*
X003583Y024833D01*
X003583Y024833D01*
X003073Y024833D01*
X003583Y024833D01*
X003583Y024833D01*
X003583Y024323D01*
X003794Y024323D01*
X004041Y024569D01*
X004347Y024263D01*
X004819Y024263D01*
X005153Y024597D01*
X005153Y024773D02*
X037317Y024773D01*
X037213Y024932D02*
X005153Y024932D01*
X005132Y025090D02*
X037136Y025090D01*
X037093Y025249D02*
X004974Y025249D01*
X004193Y025249D02*
X003889Y025249D01*
X003583Y025249D02*
X003583Y025249D01*
X003583Y025343D02*
X003583Y024833D01*
X003583Y024833D01*
X003583Y025343D01*
X003583Y025090D02*
X003583Y025090D01*
X003583Y024932D02*
X003583Y024932D01*
X003583Y024773D02*
X003583Y024773D01*
X003583Y024615D02*
X003583Y024615D01*
X003583Y024456D02*
X003583Y024456D01*
X003239Y024456D02*
X003063Y024456D01*
X003063Y024298D02*
X004312Y024298D01*
X004154Y024456D02*
X003927Y024456D01*
X003080Y024615D02*
X003063Y024615D01*
X003063Y024773D02*
X003073Y024773D01*
X003063Y024932D02*
X003073Y024932D01*
X003063Y025090D02*
X003119Y025090D01*
X003063Y025249D02*
X003277Y025249D01*
X003063Y025407D02*
X037075Y025407D01*
X037075Y025566D02*
X036644Y025566D01*
X036640Y025559D02*
X036664Y025600D01*
X036676Y025646D01*
X036676Y026025D01*
X036141Y026025D01*
X036141Y025490D01*
X036520Y025490D01*
X036566Y025502D01*
X036607Y025526D01*
X036640Y025559D01*
X036676Y025724D02*
X037109Y025724D01*
X037155Y025883D02*
X036676Y025883D01*
X036676Y026141D02*
X036141Y026141D01*
X036025Y026141D01*
X036025Y026025D01*
X035490Y026025D01*
X035490Y025646D01*
X035502Y025600D01*
X035526Y025559D01*
X035559Y025526D01*
X035600Y025502D01*
X035646Y025490D01*
X036025Y025490D01*
X036025Y026025D01*
X036141Y026025D01*
X036141Y026141D01*
X036141Y026676D01*
X036520Y026676D01*
X036566Y026664D01*
X036607Y026640D01*
X036640Y026607D01*
X036664Y026566D01*
X036676Y026520D01*
X036676Y026141D01*
X036676Y026200D02*
X037373Y026200D01*
X037246Y026041D02*
X036141Y026041D01*
X036025Y026041D02*
X029141Y026041D01*
X029141Y026025D02*
X029141Y026141D01*
X029025Y026141D01*
X029025Y026025D01*
X028490Y026025D01*
X028490Y025646D01*
X028502Y025600D01*
X028526Y025559D01*
X028559Y025526D01*
X028600Y025502D01*
X028646Y025490D01*
X029025Y025490D01*
X029025Y026025D01*
X029141Y026025D01*
X029141Y025490D01*
X029520Y025490D01*
X029566Y025502D01*
X029607Y025526D01*
X029640Y025559D01*
X029664Y025600D01*
X029676Y025646D01*
X029676Y026025D01*
X029141Y026025D01*
X029141Y026141D02*
X029676Y026141D01*
X029676Y026520D01*
X029664Y026566D01*
X029640Y026607D01*
X029607Y026640D01*
X029566Y026664D01*
X029520Y026676D01*
X029141Y026676D01*
X029141Y026141D01*
X029141Y026200D02*
X029025Y026200D01*
X029025Y026141D02*
X029025Y026676D01*
X028646Y026676D01*
X028600Y026664D01*
X028559Y026640D01*
X028526Y026607D01*
X028502Y026566D01*
X028490Y026520D01*
X028490Y026141D01*
X029025Y026141D01*
X029025Y026041D02*
X022141Y026041D01*
X022141Y026025D02*
X022141Y026141D01*
X022025Y026141D01*
X022025Y026025D01*
X021490Y026025D01*
X021490Y025646D01*
X021502Y025600D01*
X021526Y025559D01*
X021559Y025526D01*
X021600Y025502D01*
X021646Y025490D01*
X022025Y025490D01*
X022025Y026025D01*
X022141Y026025D01*
X022141Y025490D01*
X022520Y025490D01*
X022566Y025502D01*
X022607Y025526D01*
X022640Y025559D01*
X022664Y025600D01*
X022676Y025646D01*
X022676Y026025D01*
X022141Y026025D01*
X022141Y026141D02*
X022676Y026141D01*
X022676Y026520D01*
X022664Y026566D01*
X022640Y026607D01*
X022607Y026640D01*
X022566Y026664D01*
X022520Y026676D01*
X022141Y026676D01*
X022141Y026141D01*
X022141Y026200D02*
X022025Y026200D01*
X022025Y026141D02*
X022025Y026676D01*
X021646Y026676D01*
X021600Y026664D01*
X021559Y026640D01*
X021526Y026607D01*
X021502Y026566D01*
X021490Y026520D01*
X021490Y026141D01*
X022025Y026141D01*
X022025Y026041D02*
X015141Y026041D01*
X015141Y026025D02*
X015141Y026141D01*
X015025Y026141D01*
X015025Y026025D01*
X014490Y026025D01*
X014490Y025646D01*
X014502Y025600D01*
X014526Y025559D01*
X014559Y025526D01*
X014600Y025502D01*
X014646Y025490D01*
X015025Y025490D01*
X015025Y026025D01*
X015141Y026025D01*
X015141Y025490D01*
X015520Y025490D01*
X015566Y025502D01*
X015607Y025526D01*
X015640Y025559D01*
X015664Y025600D01*
X015676Y025646D01*
X015676Y026025D01*
X015141Y026025D01*
X015141Y026141D02*
X015676Y026141D01*
X015676Y026520D01*
X015664Y026566D01*
X015640Y026607D01*
X015607Y026640D01*
X015566Y026664D01*
X015520Y026676D01*
X015141Y026676D01*
X015141Y026141D01*
X015141Y026200D02*
X015025Y026200D01*
X015025Y026141D02*
X015025Y026676D01*
X014646Y026676D01*
X014600Y026664D01*
X014559Y026640D01*
X014526Y026607D01*
X014502Y026566D01*
X014490Y026520D01*
X014490Y026141D01*
X015025Y026141D01*
X015025Y026041D02*
X008141Y026041D01*
X008141Y026025D02*
X008141Y026141D01*
X008025Y026141D01*
X008025Y026025D01*
X007490Y026025D01*
X007490Y025646D01*
X007502Y025600D01*
X007526Y025559D01*
X007559Y025526D01*
X007600Y025502D01*
X007646Y025490D01*
X008025Y025490D01*
X008025Y026025D01*
X008141Y026025D01*
X008141Y025490D01*
X008520Y025490D01*
X008566Y025502D01*
X008607Y025526D01*
X008640Y025559D01*
X008664Y025600D01*
X008676Y025646D01*
X008676Y026025D01*
X008141Y026025D01*
X008141Y026141D02*
X008676Y026141D01*
X008676Y026520D01*
X008664Y026566D01*
X008640Y026607D01*
X008607Y026640D01*
X008566Y026664D01*
X008520Y026676D01*
X008141Y026676D01*
X008141Y026141D01*
X008141Y026200D02*
X008025Y026200D01*
X008025Y026141D02*
X008025Y026676D01*
X007646Y026676D01*
X007600Y026664D01*
X007559Y026640D01*
X007526Y026607D01*
X007502Y026566D01*
X007490Y026520D01*
X007490Y026141D01*
X008025Y026141D01*
X008025Y026041D02*
X003063Y026041D01*
X003063Y025883D02*
X007490Y025883D01*
X007490Y025724D02*
X003063Y025724D01*
X003063Y025566D02*
X007522Y025566D01*
X008025Y025566D02*
X008141Y025566D01*
X008141Y025724D02*
X008025Y025724D01*
X008025Y025883D02*
X008141Y025883D01*
X008676Y025883D02*
X014490Y025883D01*
X014490Y025724D02*
X008676Y025724D01*
X008644Y025566D02*
X014522Y025566D01*
X015025Y025566D02*
X015141Y025566D01*
X015141Y025724D02*
X015025Y025724D01*
X015025Y025883D02*
X015141Y025883D01*
X015676Y025883D02*
X021490Y025883D01*
X021490Y025724D02*
X015676Y025724D01*
X015644Y025566D02*
X021522Y025566D01*
X022025Y025566D02*
X022141Y025566D01*
X022141Y025724D02*
X022025Y025724D01*
X022025Y025883D02*
X022141Y025883D01*
X021490Y026200D02*
X015676Y026200D01*
X015676Y026358D02*
X021490Y026358D01*
X021490Y026517D02*
X015676Y026517D01*
X015525Y026675D02*
X016528Y026675D01*
X016199Y026834D02*
X013967Y026834D01*
X014137Y026992D02*
X016030Y026992D01*
X015911Y027151D02*
X014255Y027151D01*
X014346Y027309D02*
X015820Y027309D01*
X015778Y027468D02*
X014388Y027468D01*
X014421Y027626D02*
X015745Y027626D01*
X015745Y027785D02*
X014421Y027785D01*
X014405Y027943D02*
X015761Y027943D01*
X015803Y028102D02*
X014363Y028102D01*
X014291Y028260D02*
X015875Y028260D01*
X015967Y028419D02*
X014199Y028419D01*
X014041Y028577D02*
X016126Y028577D01*
X017584Y028577D02*
X019582Y028577D01*
X019424Y028419D02*
X017742Y028419D01*
X017834Y028260D02*
X019332Y028260D01*
X019260Y028102D02*
X017906Y028102D01*
X017948Y027943D02*
X019218Y027943D01*
X019201Y027785D02*
X017965Y027785D01*
X017965Y027626D02*
X019201Y027626D01*
X019234Y027468D02*
X017932Y027468D01*
X017889Y027309D02*
X019277Y027309D01*
X019368Y027151D02*
X017798Y027151D01*
X017680Y026992D02*
X019486Y026992D01*
X019656Y026834D02*
X017511Y026834D01*
X017182Y026675D02*
X019985Y026675D01*
X020638Y026675D02*
X021641Y026675D01*
X022025Y026675D02*
X022141Y026675D01*
X022141Y026517D02*
X022025Y026517D01*
X022025Y026358D02*
X022141Y026358D01*
X022525Y026675D02*
X023528Y026675D01*
X023199Y026834D02*
X020967Y026834D01*
X021137Y026992D02*
X023030Y026992D01*
X022911Y027151D02*
X021255Y027151D01*
X021346Y027309D02*
X022820Y027309D01*
X022778Y027468D02*
X021388Y027468D01*
X021421Y027626D02*
X022745Y027626D01*
X022745Y027785D02*
X021421Y027785D01*
X021405Y027943D02*
X022761Y027943D01*
X022803Y028102D02*
X021363Y028102D01*
X021291Y028260D02*
X022875Y028260D01*
X022967Y028419D02*
X021199Y028419D01*
X021041Y028577D02*
X023126Y028577D01*
X024584Y028577D02*
X026582Y028577D01*
X026424Y028419D02*
X024742Y028419D01*
X024834Y028260D02*
X026332Y028260D01*
X026260Y028102D02*
X024906Y028102D01*
X024948Y027943D02*
X026218Y027943D01*
X026201Y027785D02*
X024965Y027785D01*
X024965Y027626D02*
X026201Y027626D01*
X026234Y027468D02*
X024932Y027468D01*
X024889Y027309D02*
X026277Y027309D01*
X026368Y027151D02*
X024798Y027151D01*
X024680Y026992D02*
X026486Y026992D01*
X026656Y026834D02*
X024511Y026834D01*
X024182Y026675D02*
X026985Y026675D01*
X027638Y026675D02*
X028641Y026675D01*
X028490Y026517D02*
X022676Y026517D01*
X022676Y026358D02*
X028490Y026358D01*
X028490Y026200D02*
X022676Y026200D01*
X022676Y025883D02*
X028490Y025883D01*
X028490Y025724D02*
X022676Y025724D01*
X022644Y025566D02*
X028522Y025566D01*
X029025Y025566D02*
X029141Y025566D01*
X029141Y025724D02*
X029025Y025724D01*
X029025Y025883D02*
X029141Y025883D01*
X029676Y025883D02*
X035490Y025883D01*
X035490Y025724D02*
X029676Y025724D01*
X029644Y025566D02*
X035522Y025566D01*
X036025Y025566D02*
X036141Y025566D01*
X036141Y025724D02*
X036025Y025724D01*
X036025Y025883D02*
X036141Y025883D01*
X036025Y026141D02*
X035490Y026141D01*
X035490Y026520D01*
X035502Y026566D01*
X035526Y026607D01*
X035559Y026640D01*
X035600Y026664D01*
X035646Y026676D01*
X036025Y026676D01*
X036025Y026141D01*
X036025Y026200D02*
X036141Y026200D01*
X036141Y026358D02*
X036025Y026358D01*
X036025Y026517D02*
X036141Y026517D01*
X036141Y026675D02*
X036025Y026675D01*
X035641Y026675D02*
X034638Y026675D01*
X034967Y026834D02*
X037199Y026834D01*
X037030Y026992D02*
X035137Y026992D01*
X035255Y027151D02*
X036911Y027151D01*
X036820Y027309D02*
X035346Y027309D01*
X035388Y027468D02*
X036778Y027468D01*
X036745Y027626D02*
X035421Y027626D01*
X035421Y027785D02*
X036745Y027785D01*
X036761Y027943D02*
X035405Y027943D01*
X035363Y028102D02*
X036803Y028102D01*
X036875Y028260D02*
X035291Y028260D01*
X035199Y028419D02*
X036967Y028419D01*
X037126Y028577D02*
X035041Y028577D01*
X033582Y028577D02*
X031584Y028577D01*
X031742Y028419D02*
X033424Y028419D01*
X033332Y028260D02*
X031834Y028260D01*
X031906Y028102D02*
X033260Y028102D01*
X033218Y027943D02*
X031948Y027943D01*
X031965Y027785D02*
X033201Y027785D01*
X033201Y027626D02*
X031965Y027626D01*
X031932Y027468D02*
X033234Y027468D01*
X033277Y027309D02*
X031889Y027309D01*
X031798Y027151D02*
X033368Y027151D01*
X033486Y026992D02*
X031680Y026992D01*
X031511Y026834D02*
X033656Y026834D01*
X033985Y026675D02*
X031182Y026675D01*
X030528Y026675D02*
X029525Y026675D01*
X029676Y026517D02*
X035490Y026517D01*
X035490Y026358D02*
X029676Y026358D01*
X029676Y026200D02*
X035490Y026200D01*
X036525Y026675D02*
X037528Y026675D01*
X037563Y026358D02*
X036676Y026358D01*
X036676Y026517D02*
X037960Y026517D01*
X038182Y026675D02*
X039473Y026675D01*
X039473Y026517D02*
X038331Y026517D01*
X038511Y026834D02*
X039473Y026834D01*
X039473Y026992D02*
X038680Y026992D01*
X038798Y027151D02*
X039473Y027151D01*
X039473Y027309D02*
X038889Y027309D01*
X038932Y027468D02*
X039473Y027468D01*
X039473Y027626D02*
X038965Y027626D01*
X038965Y027785D02*
X039473Y027785D01*
X039473Y027943D02*
X038948Y027943D01*
X038906Y028102D02*
X039473Y028102D01*
X039473Y028260D02*
X038834Y028260D01*
X038742Y028419D02*
X039473Y028419D01*
X039473Y028577D02*
X038584Y028577D01*
X038728Y026358D02*
X039473Y026358D01*
X039473Y026200D02*
X038918Y026200D01*
X039045Y026041D02*
X039473Y026041D01*
X039473Y025883D02*
X039137Y025883D01*
X039183Y025724D02*
X039473Y025724D01*
X039473Y025566D02*
X039216Y025566D01*
X039216Y025407D02*
X039473Y025407D01*
X039473Y025249D02*
X039198Y025249D01*
X039155Y025090D02*
X039473Y025090D01*
X039473Y024932D02*
X039078Y024932D01*
X038975Y024773D02*
X039473Y024773D01*
X039473Y024615D02*
X038816Y024615D01*
X039298Y024139D02*
X039473Y024139D01*
X039473Y022237D02*
X039321Y022237D01*
X039473Y022079D02*
X038909Y022079D01*
X038564Y022079D02*
X010235Y022079D01*
X010447Y021920D02*
X034285Y021920D01*
X034301Y021959D02*
X034264Y021871D01*
X034264Y020949D01*
X034301Y020861D01*
X034368Y020793D01*
X034457Y020756D01*
X035379Y020756D01*
X035467Y020793D01*
X035535Y020861D01*
X035571Y020949D01*
X035571Y021871D01*
X035535Y021959D01*
X035467Y022027D01*
X035379Y022063D01*
X034457Y022063D01*
X034368Y022027D01*
X034301Y021959D01*
X034264Y021762D02*
X010531Y021762D01*
X010561Y021603D02*
X034264Y021603D01*
X034264Y021445D02*
X010548Y021445D01*
X010482Y021286D02*
X034264Y021286D01*
X034264Y021128D02*
X010329Y021128D01*
X009712Y021128D02*
X009329Y021128D01*
X009482Y021286D02*
X009559Y021286D01*
X009594Y021920D02*
X009447Y021920D01*
X009235Y022079D02*
X009806Y022079D01*
X008806Y022079D02*
X008235Y022079D01*
X008447Y021920D02*
X008594Y021920D01*
X008544Y023264D02*
X007622Y023264D01*
X007534Y023301D01*
X007466Y023368D01*
X007430Y023457D01*
X007430Y024379D01*
X007466Y024467D01*
X007534Y024535D01*
X007622Y024571D01*
X008544Y024571D01*
X008632Y024535D01*
X008700Y024467D01*
X008736Y024379D01*
X008736Y023457D01*
X008700Y023368D01*
X008632Y023301D01*
X008544Y023264D01*
X008678Y023347D02*
X014488Y023347D01*
X014466Y023368D02*
X014534Y023301D01*
X014622Y023264D01*
X015544Y023264D01*
X015632Y023301D01*
X015700Y023368D01*
X015736Y023457D01*
X015736Y024379D01*
X015700Y024467D01*
X015632Y024535D01*
X015544Y024571D01*
X014622Y024571D01*
X014534Y024535D01*
X014466Y024467D01*
X014430Y024379D01*
X014430Y023457D01*
X014466Y023368D01*
X014430Y023505D02*
X008736Y023505D01*
X008736Y023664D02*
X014430Y023664D01*
X014430Y023822D02*
X008736Y023822D01*
X008736Y023981D02*
X014430Y023981D01*
X014430Y024139D02*
X008736Y024139D01*
X008736Y024298D02*
X014430Y024298D01*
X014462Y024456D02*
X008704Y024456D01*
X007462Y024456D02*
X005012Y024456D01*
X004854Y024298D02*
X007430Y024298D01*
X007430Y024139D02*
X003063Y024139D01*
X003063Y023981D02*
X007430Y023981D01*
X007430Y023822D02*
X003063Y023822D01*
X003063Y023664D02*
X007430Y023664D01*
X007430Y023505D02*
X003063Y023505D01*
X003063Y023347D02*
X007488Y023347D01*
X009062Y020652D02*
X039473Y020652D01*
X039473Y020811D02*
X035485Y020811D01*
X035571Y020969D02*
X036491Y020969D01*
X036490Y020973D02*
X036502Y020927D01*
X036526Y020886D01*
X036559Y020852D01*
X036600Y020829D01*
X036646Y020816D01*
X037025Y020816D01*
X037025Y021352D01*
X036490Y021352D01*
X036490Y020973D01*
X036490Y021128D02*
X035571Y021128D01*
X035571Y021286D02*
X036490Y021286D01*
X036490Y021468D02*
X036490Y021847D01*
X036502Y021893D01*
X036526Y021934D01*
X036559Y021967D01*
X036600Y021991D01*
X036646Y022003D01*
X037025Y022003D01*
X037025Y021468D01*
X037141Y021468D01*
X037141Y022003D01*
X037520Y022003D01*
X037566Y021991D01*
X037607Y021967D01*
X037640Y021934D01*
X037664Y021893D01*
X037676Y021847D01*
X037676Y021468D01*
X037141Y021468D01*
X037141Y021352D01*
X037676Y021352D01*
X037676Y020973D01*
X037664Y020927D01*
X037640Y020886D01*
X037607Y020852D01*
X037566Y020829D01*
X037520Y020816D01*
X037141Y020816D01*
X037141Y021352D01*
X037025Y021352D01*
X037025Y021468D01*
X036490Y021468D01*
X036490Y021603D02*
X035571Y021603D01*
X035571Y021445D02*
X037025Y021445D01*
X037141Y021445D02*
X039473Y021445D01*
X039473Y021603D02*
X037676Y021603D01*
X037676Y021762D02*
X039473Y021762D01*
X039473Y021920D02*
X037648Y021920D01*
X037141Y021920D02*
X037025Y021920D01*
X037025Y021762D02*
X037141Y021762D01*
X037141Y021603D02*
X037025Y021603D01*
X037025Y021286D02*
X037141Y021286D01*
X037141Y021128D02*
X037025Y021128D01*
X037025Y020969D02*
X037141Y020969D01*
X037675Y020969D02*
X039473Y020969D01*
X039473Y021128D02*
X037676Y021128D01*
X037676Y021286D02*
X039473Y021286D01*
X037141Y019543D02*
X037025Y019543D01*
X037025Y019701D02*
X035571Y019701D01*
X035571Y019543D02*
X036490Y019543D01*
X036490Y019384D02*
X035571Y019384D01*
X035542Y019226D02*
X036532Y019226D01*
X037025Y019226D02*
X037141Y019226D01*
X037141Y019384D02*
X037025Y019384D01*
X036490Y019860D02*
X035571Y019860D01*
X035571Y020018D02*
X036490Y020018D01*
X036490Y020177D02*
X035571Y020177D01*
X035505Y020335D02*
X036596Y020335D01*
X036490Y021762D02*
X035571Y021762D01*
X035551Y021920D02*
X036518Y021920D01*
X035488Y023347D02*
X029678Y023347D01*
X029700Y023368D02*
X029736Y023457D01*
X029736Y024379D01*
X029700Y024467D01*
X029632Y024535D01*
X029544Y024571D01*
X028622Y024571D01*
X028534Y024535D01*
X028466Y024467D01*
X028430Y024379D01*
X028430Y023457D01*
X028466Y023368D01*
X028534Y023301D01*
X028622Y023264D01*
X029544Y023264D01*
X029632Y023301D01*
X029700Y023368D01*
X029736Y023505D02*
X035430Y023505D01*
X035430Y023664D02*
X029736Y023664D01*
X029736Y023822D02*
X035430Y023822D01*
X035430Y023981D02*
X029736Y023981D01*
X029736Y024139D02*
X035430Y024139D01*
X035430Y024298D02*
X029736Y024298D01*
X029704Y024456D02*
X035462Y024456D01*
X034264Y020969D02*
X003063Y020969D01*
X003063Y020811D02*
X034351Y020811D01*
X028488Y023347D02*
X022678Y023347D01*
X022700Y023368D02*
X022736Y023457D01*
X022736Y024379D01*
X022700Y024467D01*
X022632Y024535D01*
X022544Y024571D01*
X021622Y024571D01*
X021534Y024535D01*
X021466Y024467D01*
X021430Y024379D01*
X021430Y023457D01*
X021466Y023368D01*
X021534Y023301D01*
X021622Y023264D01*
X022544Y023264D01*
X022632Y023301D01*
X022700Y023368D01*
X022736Y023505D02*
X028430Y023505D01*
X028430Y023664D02*
X022736Y023664D01*
X022736Y023822D02*
X028430Y023822D01*
X028430Y023981D02*
X022736Y023981D01*
X022736Y024139D02*
X028430Y024139D01*
X028430Y024298D02*
X022736Y024298D01*
X022704Y024456D02*
X028462Y024456D01*
X029025Y026358D02*
X029141Y026358D01*
X029141Y026517D02*
X029025Y026517D01*
X029025Y026675D02*
X029141Y026675D01*
X029911Y027151D02*
X028255Y027151D01*
X028346Y027309D02*
X029820Y027309D01*
X029778Y027468D02*
X028388Y027468D01*
X028421Y027626D02*
X029745Y027626D01*
X029745Y027785D02*
X028421Y027785D01*
X028405Y027943D02*
X029761Y027943D01*
X029803Y028102D02*
X028363Y028102D01*
X028291Y028260D02*
X029875Y028260D01*
X029967Y028419D02*
X028199Y028419D01*
X028041Y028577D02*
X030126Y028577D01*
X030030Y026992D02*
X028137Y026992D01*
X027967Y026834D02*
X030199Y026834D01*
X021462Y024456D02*
X015704Y024456D01*
X015736Y024298D02*
X021430Y024298D01*
X021430Y024139D02*
X015736Y024139D01*
X015736Y023981D02*
X021430Y023981D01*
X021430Y023822D02*
X015736Y023822D01*
X015736Y023664D02*
X021430Y023664D01*
X021430Y023505D02*
X015736Y023505D01*
X015678Y023347D02*
X021488Y023347D01*
X019047Y019701D02*
X003063Y019701D01*
X003063Y019543D02*
X019205Y019543D01*
X019364Y019384D02*
X003063Y019384D01*
X003646Y022079D02*
X003646Y022079D01*
X003063Y026200D02*
X007490Y026200D01*
X007490Y026358D02*
X004410Y026358D01*
X004656Y026517D02*
X007490Y026517D01*
X007641Y026675D02*
X006638Y026675D01*
X006967Y026834D02*
X009199Y026834D01*
X009030Y026992D02*
X007137Y026992D01*
X007255Y027151D02*
X008911Y027151D01*
X008820Y027309D02*
X007346Y027309D01*
X007388Y027468D02*
X008778Y027468D01*
X008745Y027626D02*
X007421Y027626D01*
X007421Y027785D02*
X008745Y027785D01*
X008761Y027943D02*
X007405Y027943D01*
X007363Y028102D02*
X008803Y028102D01*
X008875Y028260D02*
X007291Y028260D01*
X007199Y028419D02*
X008967Y028419D01*
X009126Y028577D02*
X007041Y028577D01*
X005582Y028577D02*
X003063Y028577D01*
X003063Y028419D02*
X005424Y028419D01*
X005332Y028260D02*
X004493Y028260D01*
X004704Y028102D02*
X005260Y028102D01*
X005218Y027943D02*
X004842Y027943D01*
X004934Y027785D02*
X005201Y027785D01*
X005201Y027626D02*
X004988Y027626D01*
X005029Y027468D02*
X005234Y027468D01*
X005277Y027309D02*
X005029Y027309D01*
X005017Y027151D02*
X005368Y027151D01*
X005486Y026992D02*
X004975Y026992D01*
X004906Y026834D02*
X005656Y026834D01*
X005985Y026675D02*
X004814Y026675D01*
X003506Y026358D02*
X003063Y026358D01*
X003063Y026517D02*
X003261Y026517D01*
X003102Y026675D02*
X003063Y026675D01*
X003063Y027943D02*
X003074Y027943D01*
X003063Y028102D02*
X003213Y028102D01*
X003063Y028260D02*
X003423Y028260D01*
X008025Y026675D02*
X008141Y026675D01*
X008141Y026517D02*
X008025Y026517D01*
X008025Y026358D02*
X008141Y026358D01*
X008525Y026675D02*
X009528Y026675D01*
X010182Y026675D02*
X012985Y026675D01*
X012656Y026834D02*
X010511Y026834D01*
X010680Y026992D02*
X012486Y026992D01*
X012368Y027151D02*
X010798Y027151D01*
X010889Y027309D02*
X012277Y027309D01*
X012234Y027468D02*
X010932Y027468D01*
X010965Y027626D02*
X012201Y027626D01*
X012201Y027785D02*
X010965Y027785D01*
X010948Y027943D02*
X012218Y027943D01*
X012260Y028102D02*
X010906Y028102D01*
X010834Y028260D02*
X012332Y028260D01*
X012424Y028419D02*
X010742Y028419D01*
X010584Y028577D02*
X012582Y028577D01*
X013638Y026675D02*
X014641Y026675D01*
X014490Y026517D02*
X008676Y026517D01*
X008676Y026358D02*
X014490Y026358D01*
X014490Y026200D02*
X008676Y026200D01*
X015025Y026358D02*
X015141Y026358D01*
X015141Y026517D02*
X015025Y026517D01*
X015025Y026675D02*
X015141Y026675D01*
X022736Y013995D02*
X029096Y013995D01*
X028966Y013837D02*
X022736Y013837D01*
X022736Y013678D02*
X028966Y013678D01*
X028966Y013520D02*
X022736Y013520D01*
X022736Y013361D02*
X028966Y013361D01*
X029064Y013203D02*
X022736Y013203D01*
X023011Y012093D02*
X029109Y012093D01*
X028990Y011935D02*
X023039Y011935D01*
X023039Y011776D02*
X028925Y011776D01*
X028906Y011618D02*
X023039Y011618D01*
X023039Y011459D02*
X028906Y011459D01*
X028962Y011301D02*
X023039Y011301D01*
X023039Y011142D02*
X029040Y011142D01*
X029199Y010984D02*
X023039Y010984D01*
X022704Y008289D02*
X028463Y008289D01*
X028466Y008298D02*
X028430Y008210D01*
X028430Y007287D01*
X028466Y007199D01*
X028534Y007132D01*
X028622Y007095D01*
X029544Y007095D01*
X029632Y007132D01*
X029700Y007199D01*
X029736Y007287D01*
X029736Y008210D01*
X029700Y008298D01*
X029632Y008365D01*
X029544Y008402D01*
X028622Y008402D01*
X028534Y008365D01*
X028466Y008298D01*
X028430Y008131D02*
X022736Y008131D01*
X022736Y007972D02*
X028430Y007972D01*
X028430Y007814D02*
X022736Y007814D01*
X022736Y007655D02*
X028430Y007655D01*
X028430Y007497D02*
X022736Y007497D01*
X022736Y007338D02*
X028430Y007338D01*
X028486Y007180D02*
X022680Y007180D01*
X022662Y006070D02*
X028504Y006070D01*
X028490Y005912D02*
X022676Y005912D01*
X022676Y005753D02*
X028490Y005753D01*
X028490Y005525D02*
X028490Y005146D01*
X028502Y005100D01*
X028526Y005059D01*
X028559Y005026D01*
X028600Y005002D01*
X028646Y004990D01*
X029025Y004990D01*
X029025Y005525D01*
X028490Y005525D01*
X028490Y005436D02*
X022676Y005436D01*
X022676Y005278D02*
X028490Y005278D01*
X028497Y005119D02*
X022669Y005119D01*
X023158Y004802D02*
X021009Y004802D01*
X021167Y004644D02*
X022999Y004644D01*
X022894Y004485D02*
X021272Y004485D01*
X021354Y004327D02*
X022812Y004327D01*
X022770Y004168D02*
X021397Y004168D01*
X021421Y004010D02*
X022745Y004010D01*
X022745Y003851D02*
X021421Y003851D01*
X021397Y003693D02*
X022769Y003693D01*
X022812Y003534D02*
X021355Y003534D01*
X021273Y003376D02*
X022893Y003376D01*
X022998Y003217D02*
X021169Y003217D01*
X020745Y004961D02*
X023421Y004961D01*
X024289Y004961D02*
X026877Y004961D01*
X026614Y004802D02*
X024552Y004802D01*
X024710Y004644D02*
X026456Y004644D01*
X026351Y004485D02*
X024816Y004485D01*
X024897Y004327D02*
X026269Y004327D01*
X026226Y004168D02*
X024940Y004168D01*
X024965Y004010D02*
X026201Y004010D01*
X026201Y003851D02*
X024965Y003851D01*
X024940Y003693D02*
X026226Y003693D01*
X026268Y003534D02*
X024898Y003534D01*
X024817Y003376D02*
X026350Y003376D01*
X026454Y003217D02*
X024712Y003217D01*
X022141Y005119D02*
X022025Y005119D01*
X022025Y005278D02*
X022141Y005278D01*
X022141Y005436D02*
X022025Y005436D01*
X022025Y005912D02*
X022141Y005912D01*
X022141Y006070D02*
X022025Y006070D01*
X027745Y004961D02*
X030421Y004961D01*
X030158Y004802D02*
X028009Y004802D01*
X028167Y004644D02*
X029999Y004644D01*
X029894Y004485D02*
X028272Y004485D01*
X028354Y004327D02*
X029812Y004327D01*
X029770Y004168D02*
X028397Y004168D01*
X028421Y004010D02*
X029745Y004010D01*
X029745Y003851D02*
X028421Y003851D01*
X028397Y003693D02*
X029769Y003693D01*
X029812Y003534D02*
X028355Y003534D01*
X028273Y003376D02*
X029893Y003376D01*
X029998Y003217D02*
X028169Y003217D01*
X029025Y005119D02*
X029141Y005119D01*
X029141Y005278D02*
X029025Y005278D01*
X029025Y005436D02*
X029141Y005436D01*
X029141Y005912D02*
X029025Y005912D01*
X029025Y006070D02*
X029141Y006070D01*
X029662Y006070D02*
X035504Y006070D01*
X035490Y005912D02*
X029676Y005912D01*
X029676Y005753D02*
X035490Y005753D01*
X035490Y005436D02*
X029676Y005436D01*
X029676Y005278D02*
X035490Y005278D01*
X035497Y005119D02*
X029669Y005119D01*
X031289Y004961D02*
X033877Y004961D01*
X033614Y004802D02*
X031552Y004802D01*
X031710Y004644D02*
X033456Y004644D01*
X033351Y004485D02*
X031816Y004485D01*
X031897Y004327D02*
X033269Y004327D01*
X033226Y004168D02*
X031940Y004168D01*
X031965Y004010D02*
X033201Y004010D01*
X033201Y003851D02*
X031965Y003851D01*
X031940Y003693D02*
X033226Y003693D01*
X033268Y003534D02*
X031898Y003534D01*
X031817Y003376D02*
X033350Y003376D01*
X033454Y003217D02*
X031712Y003217D01*
X036676Y005436D02*
X037746Y005436D01*
X037666Y007180D02*
X036680Y007180D01*
X036736Y007338D02*
X037948Y007338D01*
X039203Y007972D02*
X039473Y007972D01*
X039473Y008131D02*
X039452Y008131D01*
X037141Y010191D02*
X037025Y010191D01*
X037025Y010350D02*
X037141Y010350D01*
X037141Y010508D02*
X037025Y010508D01*
X037025Y010667D02*
X037141Y010667D01*
X037141Y010825D02*
X037025Y010825D01*
X037025Y010814D02*
X037025Y011350D01*
X036646Y011350D01*
X036600Y011337D01*
X036559Y011314D01*
X036526Y011280D01*
X036502Y011239D01*
X036490Y011193D01*
X036490Y010814D01*
X037025Y010814D01*
X037025Y010984D02*
X037141Y010984D01*
X037141Y011142D02*
X037025Y011142D01*
X037025Y011301D02*
X037141Y011301D01*
X036546Y011301D02*
X035537Y011301D01*
X035571Y011142D02*
X036490Y011142D01*
X036490Y010984D02*
X035571Y010984D01*
X035571Y010825D02*
X036490Y010825D01*
X036490Y010667D02*
X035571Y010667D01*
X035571Y010508D02*
X036490Y010508D01*
X036490Y010350D02*
X035571Y010350D01*
X035519Y010191D02*
X036573Y010191D01*
X035463Y008289D02*
X029704Y008289D01*
X029736Y008131D02*
X035430Y008131D01*
X035430Y007972D02*
X029736Y007972D01*
X029736Y007814D02*
X035430Y007814D01*
X035430Y007655D02*
X029736Y007655D01*
X029736Y007497D02*
X035430Y007497D01*
X035430Y007338D02*
X029736Y007338D01*
X029680Y007180D02*
X035486Y007180D01*
X009421Y004961D02*
X006745Y004961D01*
X007009Y004802D02*
X009158Y004802D01*
X008999Y004644D02*
X007167Y004644D01*
X007272Y004485D02*
X008894Y004485D01*
X008812Y004327D02*
X007354Y004327D01*
X007397Y004168D02*
X008770Y004168D01*
X008745Y004010D02*
X007421Y004010D01*
X007421Y003851D02*
X008745Y003851D01*
X008769Y003693D02*
X007397Y003693D01*
X007355Y003534D02*
X008812Y003534D01*
X008893Y003376D02*
X007273Y003376D01*
X007169Y003217D02*
X008998Y003217D01*
X008141Y005119D02*
X008025Y005119D01*
X008025Y005278D02*
X008141Y005278D01*
X008141Y005436D02*
X008025Y005436D01*
X008025Y005753D02*
X008141Y005753D01*
X008141Y005912D02*
X008025Y005912D01*
X008025Y006070D02*
X008141Y006070D01*
X007490Y005912D02*
X003063Y005912D01*
X003063Y006070D02*
X004290Y006070D01*
X004131Y006229D02*
X003950Y006229D01*
X003583Y006229D02*
X003583Y006229D01*
X003583Y006387D02*
X003583Y006387D01*
X003583Y006546D02*
X003583Y006546D01*
X003583Y006583D02*
X003583Y007093D01*
X003583Y006583D01*
X003583Y006583D01*
X003583Y006704D02*
X003583Y006704D01*
X003583Y006863D02*
X003583Y006863D01*
X003583Y007021D02*
X003583Y007021D01*
X003300Y007021D02*
X003063Y007021D01*
X003063Y006863D02*
X003141Y006863D01*
X003073Y006704D02*
X003063Y006704D01*
X003063Y006546D02*
X003073Y006546D01*
X003063Y006387D02*
X003073Y006387D01*
X003063Y006229D02*
X003216Y006229D01*
X004025Y006863D02*
X004056Y006863D01*
X004215Y007021D02*
X003866Y007021D01*
X003063Y007180D02*
X004699Y007180D01*
X004857Y007338D02*
X003063Y007338D01*
X003063Y008765D02*
X003548Y008765D01*
X003248Y008923D02*
X003063Y008923D01*
X003063Y009082D02*
X003090Y009082D01*
X003063Y010667D02*
X003215Y010667D01*
X003063Y010825D02*
X003465Y010825D01*
X003566Y005119D02*
X003063Y005119D01*
X003063Y004961D02*
X003322Y004961D01*
X003163Y004802D02*
X003063Y004802D01*
X003063Y004644D02*
X003072Y004644D01*
D24*
X012208Y009708D03*
X012458Y013271D03*
X011771Y013271D03*
X017208Y010458D03*
X016083Y018896D03*
X008708Y020271D03*
D25*
X018958Y020271D01*
X022396Y016833D01*
X022396Y011300D01*
X022366Y011271D01*
X019926Y011271D01*
X019926Y012181D02*
X017898Y014208D01*
X013021Y014208D01*
X012998Y014230D01*
X012998Y013811D01*
X012458Y013271D01*
X011771Y013271D02*
X011771Y013209D01*
X010895Y012333D01*
X010895Y012457D01*
X010895Y012333D02*
X011097Y012130D01*
X011097Y010457D01*
X012958Y010457D01*
X012957Y010456D01*
X012957Y008583D01*
X012209Y008583D02*
X012209Y009707D01*
X012208Y009708D01*
X012020Y009897D01*
X012208Y009708D02*
X011098Y009708D01*
X011097Y009709D01*
X010069Y009709D02*
X010069Y008223D01*
X010209Y008083D01*
X009943Y009583D02*
X008457Y009583D01*
X007709Y009583D02*
X007085Y008959D01*
X006333Y008959D01*
X006333Y008333D01*
X004583Y006583D01*
X006333Y009707D02*
X006333Y010168D01*
X007748Y011583D01*
X007748Y011502D01*
X007748Y011583D02*
X007709Y011622D01*
X010069Y012255D02*
X010069Y010457D01*
X010069Y009709D02*
X009943Y009583D01*
X012958Y010457D02*
X013329Y010457D01*
X013363Y012243D02*
X013368Y012243D01*
X014021Y012896D01*
X015896Y012896D01*
X017208Y011583D01*
X017208Y010458D01*
X012998Y014230D02*
X012998Y015521D01*
X011645Y015521D01*
X010897Y015521D02*
X010892Y015518D01*
X009018Y015518D01*
X008958Y015458D01*
X010892Y015518D02*
X010892Y013512D01*
X010147Y013509D02*
X010144Y013512D01*
X010147Y013509D02*
X010147Y012333D01*
X010069Y012255D01*
X005083Y017083D02*
X006896Y018896D01*
X016083Y018896D01*
D26*
X012998Y017271D02*
X012998Y015521D01*
M02*
