G75*
%MOIN*%
%OFA0B0*%
%FSLAX24Y24*%
%IPPOS*%
%LPD*%
%AMOC8*
5,1,8,0,0,1.08239X$1,22.5*
%
%ADD10C,0.1261*%
%ADD11C,0.1080*%
%ADD12OC8,0.1080*%
%ADD13R,0.0592X0.0671*%
%ADD14R,0.0502X0.0276*%
%ADD15R,0.0907X0.0907*%
%ADD16C,0.1340*%
%ADD17R,0.0710X0.0592*%
%ADD18R,0.0592X0.0710*%
%ADD19C,0.0600*%
%ADD20R,0.0960X0.0560*%
%ADD21R,0.0946X0.1497*%
%ADD22C,0.0556*%
%ADD23OC8,0.0740*%
%ADD24C,0.0680*%
%ADD25R,0.0476X0.0476*%
D10*
X004021Y004146D03*
X003958Y027333D03*
X038146Y025458D03*
X038333Y006333D03*
D11*
X029646Y011583D03*
D12*
X029646Y013583D03*
D13*
X013668Y015521D03*
X012998Y015521D03*
X012998Y017271D03*
X013668Y017271D03*
D14*
X011100Y010457D03*
X011100Y009709D03*
X010066Y009709D03*
X010066Y010083D03*
X010066Y010457D03*
D15*
X007748Y011583D03*
X005583Y011583D03*
X008083Y007748D03*
X008083Y005583D03*
X015083Y005583D03*
X015083Y007748D03*
X022083Y007748D03*
X022083Y005583D03*
X029083Y005583D03*
X029083Y007748D03*
X034918Y010756D03*
X037083Y010756D03*
X037083Y012410D03*
X034918Y012410D03*
X036083Y007748D03*
X036083Y005583D03*
X037083Y019756D03*
X037083Y021410D03*
X034918Y021410D03*
X034918Y019756D03*
X036083Y023918D03*
X036083Y026083D03*
X029083Y026083D03*
X029083Y023918D03*
X022083Y023918D03*
X022083Y026083D03*
X015083Y026083D03*
X015083Y023918D03*
X008083Y023918D03*
X008083Y026083D03*
D16*
X006311Y027737D03*
X009855Y027737D03*
X013311Y027737D03*
X016855Y027737D03*
X020311Y027737D03*
X023855Y027737D03*
X027311Y027737D03*
X030855Y027737D03*
X034311Y027737D03*
X037855Y027737D03*
X038737Y023181D03*
X038737Y017985D03*
X038737Y014181D03*
X038737Y008985D03*
X037855Y003930D03*
X034311Y003930D03*
X030855Y003930D03*
X027311Y003930D03*
X023855Y003930D03*
X020311Y003930D03*
X016855Y003930D03*
X013311Y003930D03*
X009855Y003930D03*
X006311Y003930D03*
X003930Y009811D03*
X003930Y013355D03*
D17*
X006333Y009707D03*
X006333Y008959D03*
D18*
X007709Y009583D03*
X008457Y009583D03*
X010209Y008083D03*
X010957Y008083D03*
X012209Y008583D03*
X012957Y008583D03*
X010895Y012333D03*
X010147Y012333D03*
X010144Y013512D03*
X010892Y013512D03*
X010897Y015521D03*
X011645Y015521D03*
D19*
X009218Y015458D02*
X008698Y015458D01*
X007218Y016458D02*
X006698Y016458D01*
X008698Y017458D02*
X009218Y017458D01*
D20*
X013363Y012243D03*
X013363Y011333D03*
X013363Y010423D03*
X019926Y010361D03*
X019926Y011271D03*
X019926Y012181D03*
D21*
X022366Y011271D03*
X015803Y011333D03*
D22*
X005083Y016083D03*
X005083Y017083D03*
X005083Y018083D03*
D23*
X004646Y021583D03*
X003646Y021583D03*
X003583Y024833D03*
X004583Y024833D03*
X004583Y006583D03*
X003583Y006583D03*
D24*
X008021Y021583D03*
X009021Y021583D03*
X010021Y021583D03*
D25*
X008708Y020271D03*
X016083Y018896D03*
X012458Y013271D03*
X011771Y013271D03*
X012208Y009708D03*
X017208Y010458D03*
M02*
