G75*
%MOIN*%
%OFA0B0*%
%FSLAX24Y24*%
%IPPOS*%
%LPD*%
%AMOC8*
5,1,8,0,0,1.08239X$1,22.5*
%
%ADD10R,0.0551X0.0256*%
%ADD11R,0.0256X0.0551*%
%ADD12C,0.0060*%
%ADD13C,0.0020*%
D10*
X010082Y006267D03*
X010082Y006847D03*
X012207Y012642D03*
X012207Y013222D03*
X011082Y013392D03*
X011082Y013972D03*
X014584Y013218D03*
X014584Y012638D03*
X015834Y012638D03*
X015834Y013218D03*
X020334Y011343D03*
X020334Y010763D03*
X011082Y017767D03*
X011082Y018347D03*
X032584Y010093D03*
X032584Y009513D03*
X033084Y006218D03*
X033084Y005638D03*
D11*
X031371Y009054D03*
X030791Y009054D03*
X031420Y014056D03*
X032000Y014056D03*
X033420Y014556D03*
X034000Y014556D03*
D12*
X006684Y007545D02*
X006684Y005565D01*
X008482Y005565D01*
X008482Y007545D01*
X006684Y007545D01*
X007883Y007195D02*
X007885Y007221D01*
X007891Y007247D01*
X007900Y007271D01*
X007913Y007294D01*
X007929Y007315D01*
X007948Y007333D01*
X007969Y007349D01*
X007993Y007361D01*
X008017Y007369D01*
X008043Y007374D01*
X008070Y007375D01*
X008096Y007372D01*
X008121Y007365D01*
X008145Y007355D01*
X008168Y007341D01*
X008188Y007325D01*
X008205Y007305D01*
X008220Y007283D01*
X008231Y007259D01*
X008239Y007234D01*
X008243Y007208D01*
X008243Y007182D01*
X008239Y007156D01*
X008231Y007131D01*
X008220Y007107D01*
X008205Y007085D01*
X008188Y007065D01*
X008168Y007049D01*
X008145Y007035D01*
X008121Y007025D01*
X008096Y007018D01*
X008070Y007015D01*
X008043Y007016D01*
X008017Y007021D01*
X007993Y007029D01*
X007969Y007041D01*
X007948Y007057D01*
X007929Y007075D01*
X007913Y007096D01*
X007900Y007119D01*
X007891Y007143D01*
X007885Y007169D01*
X007883Y007195D01*
X022809Y009690D02*
X024607Y009690D01*
X024607Y011670D01*
X022809Y011670D01*
X022809Y009690D01*
X023048Y010040D02*
X023050Y010066D01*
X023056Y010092D01*
X023065Y010116D01*
X023078Y010139D01*
X023094Y010160D01*
X023113Y010178D01*
X023134Y010194D01*
X023158Y010206D01*
X023182Y010214D01*
X023208Y010219D01*
X023235Y010220D01*
X023261Y010217D01*
X023286Y010210D01*
X023310Y010200D01*
X023333Y010186D01*
X023353Y010170D01*
X023370Y010150D01*
X023385Y010128D01*
X023396Y010104D01*
X023404Y010079D01*
X023408Y010053D01*
X023408Y010027D01*
X023404Y010001D01*
X023396Y009976D01*
X023385Y009952D01*
X023370Y009930D01*
X023353Y009910D01*
X023333Y009894D01*
X023310Y009880D01*
X023286Y009870D01*
X023261Y009863D01*
X023235Y009860D01*
X023208Y009861D01*
X023182Y009866D01*
X023158Y009874D01*
X023134Y009886D01*
X023113Y009902D01*
X023094Y009920D01*
X023078Y009941D01*
X023065Y009964D01*
X023056Y009988D01*
X023050Y010014D01*
X023048Y010040D01*
X030093Y007204D02*
X030093Y005406D01*
X032073Y005406D01*
X032073Y007204D01*
X030093Y007204D01*
X030263Y006785D02*
X030265Y006811D01*
X030271Y006837D01*
X030280Y006861D01*
X030293Y006884D01*
X030309Y006905D01*
X030328Y006923D01*
X030349Y006939D01*
X030373Y006951D01*
X030397Y006959D01*
X030423Y006964D01*
X030450Y006965D01*
X030476Y006962D01*
X030501Y006955D01*
X030525Y006945D01*
X030548Y006931D01*
X030568Y006915D01*
X030585Y006895D01*
X030600Y006873D01*
X030611Y006849D01*
X030619Y006824D01*
X030623Y006798D01*
X030623Y006772D01*
X030619Y006746D01*
X030611Y006721D01*
X030600Y006697D01*
X030585Y006675D01*
X030568Y006655D01*
X030548Y006639D01*
X030525Y006625D01*
X030501Y006615D01*
X030476Y006608D01*
X030450Y006605D01*
X030423Y006606D01*
X030397Y006611D01*
X030373Y006619D01*
X030349Y006631D01*
X030328Y006647D01*
X030309Y006665D01*
X030293Y006686D01*
X030280Y006709D01*
X030271Y006733D01*
X030265Y006759D01*
X030263Y006785D01*
X034559Y006420D02*
X034559Y004440D01*
X036357Y004440D01*
X036357Y006420D01*
X034559Y006420D01*
X034798Y004790D02*
X034800Y004816D01*
X034806Y004842D01*
X034815Y004866D01*
X034828Y004889D01*
X034844Y004910D01*
X034863Y004928D01*
X034884Y004944D01*
X034908Y004956D01*
X034932Y004964D01*
X034958Y004969D01*
X034985Y004970D01*
X035011Y004967D01*
X035036Y004960D01*
X035060Y004950D01*
X035083Y004936D01*
X035103Y004920D01*
X035120Y004900D01*
X035135Y004878D01*
X035146Y004854D01*
X035154Y004829D01*
X035158Y004803D01*
X035158Y004777D01*
X035154Y004751D01*
X035146Y004726D01*
X035135Y004702D01*
X035120Y004680D01*
X035103Y004660D01*
X035083Y004644D01*
X035060Y004630D01*
X035036Y004620D01*
X035011Y004613D01*
X034985Y004610D01*
X034958Y004611D01*
X034932Y004616D01*
X034908Y004624D01*
X034884Y004636D01*
X034863Y004652D01*
X034844Y004670D01*
X034828Y004691D01*
X034815Y004714D01*
X034806Y004738D01*
X034800Y004764D01*
X034798Y004790D01*
X034559Y008815D02*
X036357Y008815D01*
X036357Y010795D01*
X034559Y010795D01*
X034559Y008815D01*
X034798Y009165D02*
X034800Y009191D01*
X034806Y009217D01*
X034815Y009241D01*
X034828Y009264D01*
X034844Y009285D01*
X034863Y009303D01*
X034884Y009319D01*
X034908Y009331D01*
X034932Y009339D01*
X034958Y009344D01*
X034985Y009345D01*
X035011Y009342D01*
X035036Y009335D01*
X035060Y009325D01*
X035083Y009311D01*
X035103Y009295D01*
X035120Y009275D01*
X035135Y009253D01*
X035146Y009229D01*
X035154Y009204D01*
X035158Y009178D01*
X035158Y009152D01*
X035154Y009126D01*
X035146Y009101D01*
X035135Y009077D01*
X035120Y009055D01*
X035103Y009035D01*
X035083Y009019D01*
X035060Y009005D01*
X035036Y008995D01*
X035011Y008988D01*
X034985Y008985D01*
X034958Y008986D01*
X034932Y008991D01*
X034908Y008999D01*
X034884Y009011D01*
X034863Y009027D01*
X034844Y009045D01*
X034828Y009066D01*
X034815Y009089D01*
X034806Y009113D01*
X034800Y009139D01*
X034798Y009165D01*
X034559Y016065D02*
X036357Y016065D01*
X036357Y018045D01*
X034559Y018045D01*
X034559Y016065D01*
X034798Y016415D02*
X034800Y016441D01*
X034806Y016467D01*
X034815Y016491D01*
X034828Y016514D01*
X034844Y016535D01*
X034863Y016553D01*
X034884Y016569D01*
X034908Y016581D01*
X034932Y016589D01*
X034958Y016594D01*
X034985Y016595D01*
X035011Y016592D01*
X035036Y016585D01*
X035060Y016575D01*
X035083Y016561D01*
X035103Y016545D01*
X035120Y016525D01*
X035135Y016503D01*
X035146Y016479D01*
X035154Y016454D01*
X035158Y016428D01*
X035158Y016402D01*
X035154Y016376D01*
X035146Y016351D01*
X035135Y016327D01*
X035120Y016305D01*
X035103Y016285D01*
X035083Y016269D01*
X035060Y016255D01*
X035036Y016245D01*
X035011Y016238D01*
X034985Y016235D01*
X034958Y016236D01*
X034932Y016241D01*
X034908Y016249D01*
X034884Y016261D01*
X034863Y016277D01*
X034844Y016295D01*
X034828Y016316D01*
X034815Y016339D01*
X034806Y016363D01*
X034800Y016389D01*
X034798Y016415D01*
X032573Y016156D02*
X032573Y017954D01*
X030593Y017954D01*
X030593Y016156D01*
X032573Y016156D01*
X032043Y016575D02*
X032045Y016601D01*
X032051Y016627D01*
X032060Y016651D01*
X032073Y016674D01*
X032089Y016695D01*
X032108Y016713D01*
X032129Y016729D01*
X032153Y016741D01*
X032177Y016749D01*
X032203Y016754D01*
X032230Y016755D01*
X032256Y016752D01*
X032281Y016745D01*
X032305Y016735D01*
X032328Y016721D01*
X032348Y016705D01*
X032365Y016685D01*
X032380Y016663D01*
X032391Y016639D01*
X032399Y016614D01*
X032403Y016588D01*
X032403Y016562D01*
X032399Y016536D01*
X032391Y016511D01*
X032380Y016487D01*
X032365Y016465D01*
X032348Y016445D01*
X032328Y016429D01*
X032305Y016415D01*
X032281Y016405D01*
X032256Y016398D01*
X032230Y016395D01*
X032203Y016396D01*
X032177Y016401D01*
X032153Y016409D01*
X032129Y016421D01*
X032108Y016437D01*
X032089Y016455D01*
X032073Y016476D01*
X032060Y016499D01*
X032051Y016523D01*
X032045Y016549D01*
X032043Y016575D01*
X008482Y017440D02*
X006684Y017440D01*
X006684Y019420D01*
X008482Y019420D01*
X008482Y017440D01*
X007883Y019070D02*
X007885Y019096D01*
X007891Y019122D01*
X007900Y019146D01*
X007913Y019169D01*
X007929Y019190D01*
X007948Y019208D01*
X007969Y019224D01*
X007993Y019236D01*
X008017Y019244D01*
X008043Y019249D01*
X008070Y019250D01*
X008096Y019247D01*
X008121Y019240D01*
X008145Y019230D01*
X008168Y019216D01*
X008188Y019200D01*
X008205Y019180D01*
X008220Y019158D01*
X008231Y019134D01*
X008239Y019109D01*
X008243Y019083D01*
X008243Y019057D01*
X008239Y019031D01*
X008231Y019006D01*
X008220Y018982D01*
X008205Y018960D01*
X008188Y018940D01*
X008168Y018924D01*
X008145Y018910D01*
X008121Y018900D01*
X008096Y018893D01*
X008070Y018890D01*
X008043Y018891D01*
X008017Y018896D01*
X007993Y018904D01*
X007969Y018916D01*
X007948Y018932D01*
X007929Y018950D01*
X007913Y018971D01*
X007900Y018994D01*
X007891Y019018D01*
X007885Y019044D01*
X007883Y019070D01*
D13*
X008392Y019330D02*
X006774Y019330D01*
X006774Y017530D01*
X008392Y017530D01*
X008392Y019330D01*
X022899Y011580D02*
X024517Y011580D01*
X024517Y009780D01*
X022899Y009780D01*
X022899Y011580D01*
X030183Y007114D02*
X030183Y005496D01*
X031983Y005496D01*
X031983Y007114D01*
X030183Y007114D01*
X034649Y006330D02*
X034649Y004530D01*
X036267Y004530D01*
X036267Y006330D01*
X034649Y006330D01*
X034649Y008905D02*
X036267Y008905D01*
X036267Y010705D01*
X034649Y010705D01*
X034649Y008905D01*
X034649Y016155D02*
X036267Y016155D01*
X036267Y017955D01*
X034649Y017955D01*
X034649Y016155D01*
X032483Y016246D02*
X032483Y017864D01*
X030683Y017864D01*
X030683Y016246D01*
X032483Y016246D01*
X008392Y007455D02*
X008392Y005655D01*
X006774Y005655D01*
X006774Y007455D01*
X008392Y007455D01*
M02*
