G75*
%MOIN*%
%OFA0B0*%
%FSLAX24Y24*%
%IPPOS*%
%LPD*%
%AMOC8*
5,1,8,0,0,1.08239X$1,22.5*
%
%ADD10R,0.0827X0.0827*%
%ADD11R,0.0551X0.0433*%
%ADD12R,0.0433X0.0551*%
%ADD13R,0.0120X0.0390*%
%ADD14R,0.0390X0.0120*%
%ADD15C,0.0397*%
%ADD16R,0.0594X0.0594*%
%ADD17C,0.0594*%
%ADD18R,0.0551X0.0394*%
%ADD19R,0.0591X0.0512*%
%ADD20R,0.0512X0.0591*%
%ADD21C,0.0160*%
%ADD22R,0.0768X0.0768*%
%ADD23R,0.0396X0.0396*%
%ADD24C,0.0100*%
%ADD25C,0.0450*%
%ADD26C,0.0200*%
%ADD27C,0.0300*%
D10*
X005583Y011680D03*
X007748Y011680D03*
D11*
X011083Y013286D03*
X012208Y013324D03*
X012208Y012536D03*
X011083Y014074D03*
X014583Y013324D03*
X014583Y012536D03*
X015833Y012536D03*
X015833Y013324D03*
X020333Y011449D03*
X020333Y010661D03*
X010083Y006949D03*
X010083Y006161D03*
X011083Y017661D03*
X011083Y018449D03*
X032583Y010199D03*
X032583Y009411D03*
X033083Y006324D03*
X033083Y005536D03*
D12*
X031477Y009055D03*
X030689Y009055D03*
X031314Y014055D03*
X032102Y014055D03*
X033314Y014555D03*
X034102Y014555D03*
D13*
X032479Y015906D03*
X032223Y015906D03*
X031967Y015906D03*
X031711Y015906D03*
X031455Y015906D03*
X031199Y015906D03*
X030943Y015906D03*
X030687Y015906D03*
X030687Y018204D03*
X030943Y018204D03*
X031199Y018204D03*
X031455Y018204D03*
X031711Y018204D03*
X031967Y018204D03*
X032223Y018204D03*
X032479Y018204D03*
X031979Y007454D03*
X031723Y007454D03*
X031467Y007454D03*
X031211Y007454D03*
X030955Y007454D03*
X030699Y007454D03*
X030443Y007454D03*
X030187Y007454D03*
X030187Y005156D03*
X030443Y005156D03*
X030699Y005156D03*
X030955Y005156D03*
X031211Y005156D03*
X031467Y005156D03*
X031723Y005156D03*
X031979Y005156D03*
D14*
X034309Y005046D03*
X034309Y004790D03*
X034309Y004534D03*
X034309Y005302D03*
X034309Y005558D03*
X034309Y005814D03*
X034309Y006070D03*
X034309Y006326D03*
X036607Y006326D03*
X036607Y006070D03*
X036607Y005814D03*
X036607Y005558D03*
X036607Y005302D03*
X036607Y005046D03*
X036607Y004790D03*
X036607Y004534D03*
X036607Y008909D03*
X036607Y009165D03*
X036607Y009421D03*
X036607Y009677D03*
X036607Y009933D03*
X036607Y010189D03*
X036607Y010445D03*
X036607Y010701D03*
X034309Y010701D03*
X034309Y010445D03*
X034309Y010189D03*
X034309Y009933D03*
X034309Y009677D03*
X034309Y009421D03*
X034309Y009165D03*
X034309Y008909D03*
X024857Y009784D03*
X024857Y010040D03*
X024857Y010296D03*
X024857Y010552D03*
X024857Y010808D03*
X024857Y011064D03*
X024857Y011320D03*
X024857Y011576D03*
X022559Y011576D03*
X022559Y011320D03*
X022559Y011064D03*
X022559Y010808D03*
X022559Y010552D03*
X022559Y010296D03*
X022559Y010040D03*
X022559Y009784D03*
X034309Y016159D03*
X034309Y016415D03*
X034309Y016671D03*
X034309Y016927D03*
X034309Y017183D03*
X034309Y017439D03*
X034309Y017695D03*
X034309Y017951D03*
X036607Y017951D03*
X036607Y017695D03*
X036607Y017439D03*
X036607Y017183D03*
X036607Y016927D03*
X036607Y016671D03*
X036607Y016415D03*
X036607Y016159D03*
X008732Y017534D03*
X008732Y017790D03*
X008732Y018046D03*
X008732Y018302D03*
X008732Y018558D03*
X008732Y018814D03*
X008732Y019070D03*
X008732Y019326D03*
X006434Y019326D03*
X006434Y019070D03*
X006434Y018814D03*
X006434Y018558D03*
X006434Y018302D03*
X006434Y018046D03*
X006434Y017790D03*
X006434Y017534D03*
X006434Y007451D03*
X006434Y007195D03*
X006434Y006939D03*
X006434Y006683D03*
X006434Y006427D03*
X006434Y006171D03*
X006434Y005915D03*
X006434Y005659D03*
X008732Y005659D03*
X008732Y005915D03*
X008732Y006171D03*
X008732Y006427D03*
X008732Y006683D03*
X008732Y006939D03*
X008732Y007195D03*
X008732Y007451D03*
D15*
X004274Y007391D02*
X003877Y007391D01*
X003877Y006899D02*
X004274Y006899D01*
X004274Y006406D02*
X003877Y006406D01*
X003877Y005914D02*
X004274Y005914D01*
X004274Y005422D02*
X003877Y005422D01*
X003877Y004930D02*
X004274Y004930D01*
X004274Y004438D02*
X003877Y004438D01*
X003877Y003946D02*
X004274Y003946D01*
X004274Y003454D02*
X003877Y003454D01*
X003877Y002961D02*
X004274Y002961D01*
X004274Y002469D02*
X003877Y002469D01*
X003752Y015844D02*
X004149Y015844D01*
X004149Y016336D02*
X003752Y016336D01*
X003752Y016829D02*
X004149Y016829D01*
X004149Y017321D02*
X003752Y017321D01*
X003752Y017813D02*
X004149Y017813D01*
X004149Y018305D02*
X003752Y018305D01*
X003752Y018797D02*
X004149Y018797D01*
X004149Y019289D02*
X003752Y019289D01*
X003752Y019781D02*
X004149Y019781D01*
X004149Y020274D02*
X003752Y020274D01*
X003752Y020766D02*
X004149Y020766D01*
X027893Y014391D02*
X028289Y014391D01*
X028289Y013899D02*
X027893Y013899D01*
X027893Y013406D02*
X028289Y013406D01*
X028289Y012914D02*
X027893Y012914D01*
X027893Y012422D02*
X028289Y012422D01*
X028289Y011930D02*
X027893Y011930D01*
X027893Y011438D02*
X028289Y011438D01*
X028289Y010946D02*
X027893Y010946D01*
X027893Y010454D02*
X028289Y010454D01*
X028289Y009961D02*
X027893Y009961D01*
X027893Y009469D02*
X028289Y009469D01*
X038643Y009461D02*
X039039Y009461D01*
X039039Y009954D02*
X038643Y009954D01*
X038643Y010446D02*
X039039Y010446D01*
X039039Y010938D02*
X038643Y010938D01*
X038643Y011430D02*
X039039Y011430D01*
X039039Y011922D02*
X038643Y011922D01*
X038643Y012414D02*
X039039Y012414D01*
X039039Y012906D02*
X038643Y012906D01*
X038643Y013399D02*
X039039Y013399D01*
X039039Y013891D02*
X038643Y013891D01*
X038518Y015719D02*
X038914Y015719D01*
X038914Y016211D02*
X038518Y016211D01*
X038518Y016704D02*
X038914Y016704D01*
X038914Y017196D02*
X038518Y017196D01*
X038518Y017688D02*
X038914Y017688D01*
X038914Y018180D02*
X038518Y018180D01*
X038518Y018672D02*
X038914Y018672D01*
X038914Y019164D02*
X038518Y019164D01*
X038518Y019656D02*
X038914Y019656D01*
X038914Y020149D02*
X038518Y020149D01*
X038518Y020641D02*
X038914Y020641D01*
X035044Y020761D02*
X035044Y020364D01*
X034552Y020364D02*
X034552Y020761D01*
X034059Y020761D02*
X034059Y020364D01*
X033567Y020364D02*
X033567Y020761D01*
X033075Y020761D02*
X033075Y020364D01*
X032583Y020364D02*
X032583Y020761D01*
X032091Y020761D02*
X032091Y020364D01*
X031599Y020364D02*
X031599Y020761D01*
X031107Y020761D02*
X031107Y020364D01*
X030615Y020364D02*
X030615Y020761D01*
X030122Y020761D02*
X030122Y020364D01*
X038643Y008969D02*
X039039Y008969D01*
X039039Y007016D02*
X038643Y007016D01*
X038643Y006524D02*
X039039Y006524D01*
X039039Y006031D02*
X038643Y006031D01*
X038643Y005539D02*
X039039Y005539D01*
X039039Y005047D02*
X038643Y005047D01*
X038643Y004555D02*
X039039Y004555D01*
X039039Y004063D02*
X038643Y004063D01*
X038643Y003571D02*
X039039Y003571D01*
X039039Y003079D02*
X038643Y003079D01*
X038643Y002586D02*
X039039Y002586D01*
X039039Y002094D02*
X038643Y002094D01*
X035044Y002724D02*
X035044Y003121D01*
X034552Y003121D02*
X034552Y002724D01*
X034059Y002724D02*
X034059Y003121D01*
X033567Y003121D02*
X033567Y002724D01*
X033075Y002724D02*
X033075Y003121D01*
X032583Y003121D02*
X032583Y002724D01*
X032091Y002724D02*
X032091Y003121D01*
X031599Y003121D02*
X031599Y002724D01*
X031107Y002724D02*
X031107Y003121D01*
X030615Y003121D02*
X030615Y002724D01*
X030122Y002724D02*
X030122Y003121D01*
D16*
X028333Y002555D03*
X028333Y021555D03*
D17*
X027333Y021555D03*
X026333Y021555D03*
X025333Y021555D03*
X024333Y021555D03*
X023333Y021555D03*
X022333Y021555D03*
X021333Y021555D03*
X020333Y021555D03*
X019333Y021555D03*
X018333Y021555D03*
X017333Y021555D03*
X016333Y021555D03*
X015333Y021555D03*
X014333Y021555D03*
X013333Y021555D03*
X012333Y021555D03*
X011333Y021555D03*
X010333Y021555D03*
X009333Y021555D03*
X008333Y021555D03*
X007333Y021555D03*
X006333Y021555D03*
X006333Y020555D03*
X007333Y020555D03*
X008333Y020555D03*
X009333Y020555D03*
X010333Y020555D03*
X011333Y020555D03*
X012333Y020555D03*
X013333Y020555D03*
X014333Y020555D03*
X015333Y020555D03*
X016333Y020555D03*
X017333Y020555D03*
X018333Y020555D03*
X019333Y020555D03*
X020333Y020555D03*
X021333Y020555D03*
X022333Y020555D03*
X023333Y020555D03*
X024333Y020555D03*
X025333Y020555D03*
X026333Y020555D03*
X027333Y020555D03*
X028333Y020555D03*
X027333Y002555D03*
X026333Y002555D03*
X025333Y002555D03*
X024333Y002555D03*
X023333Y002555D03*
X022333Y002555D03*
X021333Y002555D03*
X020333Y002555D03*
X019333Y002555D03*
X018333Y002555D03*
X017333Y002555D03*
X016333Y002555D03*
X015333Y002555D03*
X014333Y002555D03*
X013333Y002555D03*
X012333Y002555D03*
X011333Y002555D03*
X010333Y002555D03*
X009333Y002555D03*
X008333Y002555D03*
X007333Y002555D03*
X006333Y002555D03*
X006333Y001555D03*
X007333Y001555D03*
X008333Y001555D03*
X009333Y001555D03*
X010333Y001555D03*
X011333Y001555D03*
X012333Y001555D03*
X013333Y001555D03*
X014333Y001555D03*
X015333Y001555D03*
X016333Y001555D03*
X017333Y001555D03*
X018333Y001555D03*
X019333Y001555D03*
X020333Y001555D03*
X021333Y001555D03*
X022333Y001555D03*
X023333Y001555D03*
X024333Y001555D03*
X025333Y001555D03*
X026333Y001555D03*
X027333Y001555D03*
X028333Y001555D03*
D18*
X024900Y013181D03*
X024900Y013929D03*
X025766Y013555D03*
D19*
X016583Y017806D03*
X016583Y018554D03*
X016583Y018556D03*
X016583Y019304D03*
X008458Y013554D03*
X008458Y012806D03*
X008521Y010429D03*
X008521Y009681D03*
X011708Y006992D03*
X011708Y006243D03*
D20*
X017522Y010680D03*
X018270Y010680D03*
X024647Y012243D03*
X025395Y012243D03*
X030772Y010930D03*
X031520Y010930D03*
X031897Y012680D03*
X032645Y012680D03*
X033272Y008180D03*
X034020Y008180D03*
X013457Y018243D03*
X012709Y018243D03*
D21*
X002688Y022071D02*
X002688Y000910D01*
X040098Y000910D01*
X040098Y022071D01*
X016955Y022071D01*
X017063Y021963D01*
X017063Y021959D01*
X017238Y022032D01*
X017428Y022032D01*
X017603Y021959D01*
X017737Y021825D01*
X017810Y021650D01*
X017810Y021460D01*
X017737Y021285D01*
X017603Y021151D01*
X017428Y021078D01*
X017238Y021078D01*
X017063Y021151D01*
X017063Y020959D01*
X017238Y021032D01*
X017428Y021032D01*
X017603Y020959D01*
X017737Y020825D01*
X017810Y020650D01*
X017810Y020460D01*
X017737Y020285D01*
X017603Y020151D01*
X017428Y020078D01*
X017376Y020078D01*
X017376Y017960D01*
X017241Y017825D01*
X017058Y017643D01*
X017058Y017476D01*
X016953Y017370D01*
X016213Y017370D01*
X016108Y017476D01*
X016108Y018136D01*
X016151Y018180D01*
X016108Y018224D01*
X016108Y018325D01*
X016063Y018325D01*
X016063Y013720D01*
X016183Y013720D01*
X016289Y013615D01*
X016289Y013033D01*
X016186Y012930D01*
X016191Y012925D01*
X016767Y013502D01*
X016767Y013828D01*
X016873Y013933D01*
X017418Y013933D01*
X017524Y013828D01*
X017524Y013282D01*
X017418Y013177D01*
X017093Y013177D01*
X016289Y012373D01*
X016289Y012245D01*
X016183Y012140D01*
X015483Y012140D01*
X015377Y012245D01*
X015377Y012306D01*
X015039Y012306D01*
X015039Y012245D01*
X014933Y012140D01*
X014233Y012140D01*
X014127Y012245D01*
X014127Y012306D01*
X012664Y012306D01*
X012664Y012245D01*
X012558Y012140D01*
X011858Y012140D01*
X011752Y012245D01*
X011752Y012827D01*
X011855Y012930D01*
X011779Y013006D01*
X011539Y013006D01*
X011539Y012995D01*
X011433Y012890D01*
X010733Y012890D01*
X010627Y012995D01*
X010627Y013185D01*
X009886Y013927D01*
X009738Y013927D01*
X009738Y012085D01*
X018540Y012085D01*
X022115Y015659D01*
X022115Y015659D01*
X024144Y017689D01*
X024144Y018013D01*
X024250Y018119D01*
X025166Y018119D01*
X025272Y018013D01*
X025272Y017097D01*
X025166Y016991D01*
X024592Y016991D01*
X023311Y015710D01*
X028139Y015710D01*
X028242Y015667D01*
X028320Y015589D01*
X030324Y013585D01*
X031592Y013585D01*
X031709Y013701D01*
X031708Y013702D01*
X031605Y013599D01*
X031023Y013599D01*
X030918Y013705D01*
X030918Y014405D01*
X030978Y014465D01*
X030978Y015531D01*
X030553Y015531D01*
X030506Y015578D01*
X030481Y015552D01*
X029935Y015552D01*
X029830Y015657D01*
X029830Y016203D01*
X029929Y016302D01*
X029685Y016302D01*
X029580Y016407D01*
X029580Y016953D01*
X029685Y017058D01*
X030231Y017058D01*
X030336Y016953D01*
X030336Y016910D01*
X030803Y016910D01*
X030938Y016775D01*
X031188Y016525D01*
X031188Y016281D01*
X031590Y016281D01*
X031598Y016273D01*
X031627Y016281D01*
X031711Y016281D01*
X031711Y015906D01*
X031711Y015906D01*
X031711Y016281D01*
X031795Y016281D01*
X031824Y016273D01*
X031832Y016281D01*
X031993Y016281D01*
X031993Y016790D01*
X032705Y017502D01*
X032705Y017828D01*
X032810Y017933D01*
X033356Y017933D01*
X033461Y017828D01*
X033461Y017508D01*
X033613Y017660D01*
X033934Y017660D01*
X033934Y017829D01*
X033942Y017837D01*
X033934Y017867D01*
X033934Y017951D01*
X034309Y017951D01*
X034309Y017951D01*
X034309Y018191D01*
X034091Y018191D01*
X034045Y018178D01*
X034004Y018155D01*
X033970Y018121D01*
X033947Y018080D01*
X033934Y018034D01*
X033934Y017951D01*
X034309Y017951D01*
X034309Y017951D01*
X034309Y018191D01*
X034528Y018191D01*
X034574Y018178D01*
X034615Y018155D01*
X034648Y018121D01*
X034672Y018080D01*
X034684Y018034D01*
X034684Y017951D01*
X034309Y017951D01*
X034309Y017951D01*
X034684Y017951D01*
X034684Y017910D01*
X034863Y017910D01*
X035158Y018205D01*
X035080Y018282D01*
X035080Y018828D01*
X035185Y018933D01*
X035731Y018933D01*
X035836Y018828D01*
X035836Y018282D01*
X035731Y018177D01*
X035688Y018177D01*
X035688Y018085D01*
X035553Y017950D01*
X035053Y017450D01*
X034684Y017450D01*
X034684Y017048D01*
X034676Y017040D01*
X034684Y017011D01*
X034684Y016927D01*
X034309Y016927D01*
X034309Y016927D01*
X034684Y016927D01*
X034684Y016910D01*
X035053Y016910D01*
X035813Y016150D01*
X035813Y015058D01*
X035856Y015058D01*
X035961Y014953D01*
X035961Y014407D01*
X035856Y014302D01*
X035310Y014302D01*
X035205Y014407D01*
X035205Y014953D01*
X035310Y015058D01*
X035353Y015058D01*
X035353Y015960D01*
X035188Y016125D01*
X035188Y007308D01*
X035231Y007308D01*
X035336Y007203D01*
X035336Y006657D01*
X035231Y006552D01*
X035188Y006552D01*
X035188Y004835D01*
X035053Y004700D01*
X034928Y004575D01*
X034684Y004575D01*
X034684Y004400D01*
X034579Y004294D01*
X034040Y004294D01*
X033934Y004400D01*
X033934Y004816D01*
X033669Y004816D01*
X033563Y004710D01*
X033428Y004575D01*
X033013Y004575D01*
X033678Y003910D01*
X033813Y003775D01*
X033813Y003410D01*
X033813Y003410D01*
X033845Y003441D01*
X033984Y003499D01*
X034135Y003499D01*
X034274Y003441D01*
X034306Y003410D01*
X034337Y003441D01*
X034476Y003499D01*
X034627Y003499D01*
X034766Y003441D01*
X034798Y003410D01*
X034802Y003414D01*
X034864Y003456D01*
X034933Y003484D01*
X035006Y003499D01*
X035044Y003499D01*
X035044Y002922D01*
X035044Y002922D01*
X035422Y002922D01*
X035422Y002686D01*
X035408Y002613D01*
X035379Y002544D01*
X035338Y002482D01*
X035285Y002430D01*
X035223Y002388D01*
X035154Y002360D01*
X035081Y002345D01*
X035044Y002345D01*
X035044Y002922D01*
X035422Y002922D01*
X035422Y003158D01*
X035408Y003231D01*
X035379Y003300D01*
X035338Y003362D01*
X035285Y003414D01*
X035223Y003456D01*
X035154Y003484D01*
X035081Y003499D01*
X035044Y003499D01*
X035044Y002922D01*
X035044Y002922D01*
X035044Y002922D01*
X035044Y002345D01*
X035006Y002345D01*
X034933Y002360D01*
X034864Y002388D01*
X034802Y002430D01*
X034798Y002435D01*
X034766Y002403D01*
X034627Y002345D01*
X034476Y002345D01*
X034337Y002403D01*
X034306Y002435D01*
X034274Y002403D01*
X034135Y002345D01*
X033984Y002345D01*
X033845Y002403D01*
X033813Y002435D01*
X033782Y002403D01*
X033643Y002345D01*
X033492Y002345D01*
X033353Y002403D01*
X033321Y002435D01*
X033290Y002403D01*
X033150Y002345D01*
X033000Y002345D01*
X032861Y002403D01*
X032829Y002435D01*
X032797Y002403D01*
X032658Y002345D01*
X032508Y002345D01*
X032369Y002403D01*
X032337Y002435D01*
X032305Y002403D01*
X032166Y002345D01*
X032016Y002345D01*
X031877Y002403D01*
X031845Y002435D01*
X031813Y002403D01*
X031674Y002345D01*
X031524Y002345D01*
X031384Y002403D01*
X031353Y002435D01*
X031321Y002403D01*
X031182Y002345D01*
X031031Y002345D01*
X030892Y002403D01*
X030861Y002435D01*
X030829Y002403D01*
X030690Y002345D01*
X030539Y002345D01*
X030400Y002403D01*
X030369Y002435D01*
X030337Y002403D01*
X030198Y002345D01*
X030047Y002345D01*
X029908Y002403D01*
X029802Y002509D01*
X029744Y002648D01*
X029744Y003196D01*
X029802Y003335D01*
X029853Y003386D01*
X029853Y004650D01*
X029957Y004755D01*
X029957Y004877D01*
X029947Y004887D01*
X029947Y005426D01*
X030053Y005531D01*
X031907Y005531D01*
X030646Y006792D01*
X030438Y006585D01*
X030303Y006450D01*
X029754Y006450D01*
X029731Y006427D01*
X029185Y006427D01*
X029080Y006532D01*
X029080Y007078D01*
X023883Y007078D01*
X024041Y006920D02*
X029080Y006920D01*
X029080Y007078D02*
X029185Y007183D01*
X029731Y007183D01*
X029836Y007078D01*
X030213Y007078D01*
X030213Y007079D02*
X030213Y007011D01*
X030113Y006910D01*
X029836Y006910D01*
X029836Y007078D01*
X029947Y007184D02*
X030053Y007079D01*
X030213Y007079D01*
X030122Y006920D02*
X029836Y006920D01*
X029947Y007184D02*
X029947Y007723D01*
X030053Y007829D01*
X030080Y007829D01*
X030080Y008328D01*
X030185Y008433D01*
X030731Y008433D01*
X030836Y008328D01*
X030836Y008002D01*
X030929Y007909D01*
X030929Y007829D01*
X030955Y007829D01*
X030955Y007454D01*
X030955Y007454D01*
X030955Y007829D01*
X030981Y007829D01*
X030981Y008438D01*
X030820Y008599D01*
X030398Y008599D01*
X030293Y008705D01*
X030293Y008775D01*
X029449Y008775D01*
X028695Y008021D01*
X028617Y007943D01*
X028514Y007900D01*
X023061Y007900D01*
X024092Y006869D01*
X024416Y006869D01*
X024522Y006763D01*
X024522Y005847D01*
X024416Y005741D01*
X023500Y005741D01*
X023394Y005847D01*
X023394Y006421D01*
X021979Y007837D01*
X019604Y010212D01*
X019604Y010212D01*
X018656Y011160D01*
X018656Y011100D01*
X018705Y011050D01*
X018705Y010310D01*
X018600Y010205D01*
X017939Y010205D01*
X017896Y010248D01*
X017895Y010248D01*
X017896Y010248D02*
X017888Y010241D01*
X017847Y010217D01*
X017801Y010205D01*
X017570Y010205D01*
X017570Y010632D01*
X017474Y010632D01*
X017474Y010205D01*
X017242Y010205D01*
X017196Y010217D01*
X017155Y010241D01*
X017122Y010274D01*
X017098Y010315D01*
X017086Y010361D01*
X017086Y010632D01*
X017474Y010632D01*
X017474Y010728D01*
X017474Y011155D01*
X017242Y011155D01*
X017196Y011143D01*
X017155Y011119D01*
X017122Y011086D01*
X017098Y011045D01*
X017086Y010999D01*
X017086Y010728D01*
X017474Y010728D01*
X017570Y010728D01*
X017570Y011155D01*
X017801Y011155D01*
X017847Y011143D01*
X017888Y011119D01*
X017896Y011112D01*
X017939Y011155D01*
X018136Y011155D01*
X018136Y011275D01*
X010363Y011275D01*
X010363Y007345D01*
X010433Y007345D01*
X010527Y007252D01*
X011233Y007252D01*
X011233Y007322D01*
X011338Y007427D01*
X012078Y007427D01*
X012183Y007322D01*
X012183Y006661D01*
X012140Y006618D01*
X012147Y006610D01*
X012171Y006569D01*
X012183Y006523D01*
X012183Y006291D01*
X011756Y006291D01*
X011756Y006196D01*
X012183Y006196D01*
X012183Y005964D01*
X012171Y005918D01*
X012147Y005877D01*
X012114Y005844D01*
X012073Y005820D01*
X012027Y005808D01*
X011756Y005808D01*
X011756Y006196D01*
X011660Y006196D01*
X011233Y006196D01*
X011233Y005964D01*
X011245Y005918D01*
X011269Y005877D01*
X011302Y005844D01*
X011343Y005820D01*
X011389Y005808D01*
X011660Y005808D01*
X011660Y006196D01*
X011660Y006291D01*
X011233Y006291D01*
X011233Y006523D01*
X011245Y006569D01*
X011269Y006610D01*
X011276Y006618D01*
X011233Y006661D01*
X011233Y006732D01*
X010539Y006732D01*
X010539Y006658D01*
X010436Y006555D01*
X010539Y006452D01*
X010539Y005870D01*
X010433Y005765D01*
X009733Y005765D01*
X009627Y005870D01*
X009627Y005931D01*
X009107Y005931D01*
X009107Y005915D01*
X008732Y005915D01*
X008732Y005915D01*
X009107Y005915D01*
X009107Y005832D01*
X009099Y005802D01*
X009107Y005794D01*
X009107Y005525D01*
X009001Y005419D01*
X008462Y005419D01*
X008452Y005429D01*
X008383Y005429D01*
X008113Y005700D01*
X007978Y005835D01*
X007978Y006400D01*
X008100Y006522D01*
X008235Y006657D01*
X008357Y006657D01*
X008357Y006683D01*
X008732Y006683D01*
X009107Y006683D01*
X009107Y006700D01*
X009153Y006700D01*
X009113Y006660D01*
X009107Y006660D01*
X009107Y006683D01*
X008732Y006683D01*
X008732Y006683D01*
X008732Y006683D01*
X008357Y006683D01*
X008357Y006767D01*
X008365Y006796D01*
X008357Y006804D01*
X008357Y007585D01*
X008462Y007691D01*
X008978Y007691D01*
X008978Y009346D01*
X008960Y009315D01*
X008926Y009281D01*
X008885Y009257D01*
X008840Y009245D01*
X008569Y009245D01*
X008569Y009633D01*
X008473Y009633D01*
X008473Y009245D01*
X008202Y009245D01*
X008156Y009257D01*
X008115Y009281D01*
X008081Y009315D01*
X008058Y009356D01*
X008045Y009401D01*
X008045Y009633D01*
X008473Y009633D01*
X008473Y009729D01*
X008045Y009729D01*
X008045Y009961D01*
X008058Y010006D01*
X008081Y010047D01*
X008089Y010055D01*
X008045Y010099D01*
X008045Y010759D01*
X008128Y010842D01*
X008128Y011087D01*
X007260Y011087D01*
X007155Y011192D01*
X007155Y012168D01*
X007260Y012273D01*
X008128Y012273D01*
X008128Y012370D01*
X008088Y012370D01*
X007983Y012476D01*
X007983Y013136D01*
X008026Y013180D01*
X008019Y013188D01*
X007995Y013229D01*
X007983Y013274D01*
X007983Y013506D01*
X008410Y013506D01*
X008410Y013602D01*
X007983Y013602D01*
X007983Y013834D01*
X007995Y013879D01*
X008019Y013920D01*
X008052Y013954D01*
X008093Y013978D01*
X008139Y013990D01*
X008410Y013990D01*
X008410Y013602D01*
X008506Y013602D01*
X008506Y013990D01*
X008777Y013990D01*
X008823Y013978D01*
X008864Y013954D01*
X008897Y013920D01*
X008921Y013879D01*
X008933Y013834D01*
X008933Y013602D01*
X008506Y013602D01*
X008506Y013506D01*
X008933Y013506D01*
X008933Y013274D01*
X008921Y013229D01*
X008897Y013188D01*
X008890Y013180D01*
X008933Y013136D01*
X008933Y012476D01*
X008828Y012370D01*
X008788Y012370D01*
X008788Y012085D01*
X009178Y012085D01*
X009178Y014736D01*
X009221Y014839D01*
X009299Y014917D01*
X011553Y017171D01*
X011553Y017939D01*
X011439Y018053D01*
X011437Y018056D01*
X011436Y018055D01*
X011539Y017952D01*
X011539Y017370D01*
X011433Y017265D01*
X010733Y017265D01*
X010627Y017370D01*
X010627Y017450D01*
X009863Y017450D01*
X009497Y017816D01*
X009107Y017816D01*
X009107Y017790D01*
X008732Y017790D01*
X008732Y017790D01*
X009107Y017790D01*
X009107Y017707D01*
X009099Y017677D01*
X009107Y017669D01*
X009107Y017400D01*
X009001Y017294D01*
X008938Y017294D01*
X008938Y015808D01*
X008981Y015808D01*
X009086Y015703D01*
X009086Y015157D01*
X008981Y015052D01*
X008435Y015052D01*
X008330Y015157D01*
X008330Y015703D01*
X008435Y015808D01*
X008478Y015808D01*
X008478Y017294D01*
X008462Y017294D01*
X008357Y017400D01*
X008357Y017669D01*
X008365Y017677D01*
X008357Y017707D01*
X008357Y017790D01*
X008732Y017790D01*
X008732Y017790D01*
X008357Y017790D01*
X008357Y017874D01*
X008365Y017904D01*
X008357Y017912D01*
X008357Y018437D01*
X008365Y018445D01*
X008357Y018474D01*
X008357Y018558D01*
X008732Y018558D01*
X009107Y018558D01*
X009107Y018584D01*
X010187Y018584D01*
X010322Y018719D01*
X010428Y018825D01*
X010713Y018825D01*
X010627Y018740D01*
X010627Y018532D01*
X009107Y018532D01*
X009107Y018558D01*
X008732Y018558D01*
X008732Y018558D01*
X008732Y018558D01*
X008357Y018558D01*
X008357Y018642D01*
X008365Y018671D01*
X008357Y018679D01*
X008357Y019460D01*
X008462Y019566D01*
X009001Y019566D01*
X009107Y019460D01*
X009107Y019300D01*
X009503Y019300D01*
X009863Y019660D01*
X015053Y019660D01*
X015188Y019525D01*
X015928Y018785D01*
X016108Y018785D01*
X016108Y018886D01*
X016151Y018930D01*
X016108Y018974D01*
X016108Y019518D01*
X015800Y019825D01*
X015666Y019960D01*
X015666Y020213D01*
X015603Y020151D01*
X015428Y020078D01*
X015238Y020078D01*
X015063Y020151D01*
X014929Y020285D01*
X014856Y020460D01*
X014856Y020650D01*
X014929Y020825D01*
X015063Y020959D01*
X015238Y021032D01*
X015428Y021032D01*
X015603Y020959D01*
X015666Y020897D01*
X015666Y020897D01*
X015468Y021095D01*
X015428Y021078D01*
X015238Y021078D01*
X015063Y021151D01*
X014929Y021285D01*
X014856Y021460D01*
X014856Y021650D01*
X014929Y021825D01*
X014928Y021825D01*
X014793Y021690D01*
X014810Y021650D01*
X014810Y021460D01*
X014737Y021285D01*
X014603Y021151D01*
X014428Y021078D01*
X014238Y021078D01*
X014063Y021151D01*
X013929Y021285D01*
X013856Y021460D01*
X013856Y021650D01*
X013929Y021825D01*
X014063Y021959D01*
X014238Y022032D01*
X014428Y022032D01*
X014468Y022015D01*
X014524Y022071D01*
X002688Y022071D01*
X002688Y021977D02*
X006111Y021977D01*
X006083Y021963D02*
X006022Y021919D01*
X005969Y021866D01*
X005925Y021805D01*
X005891Y021738D01*
X005868Y021667D01*
X005856Y021593D01*
X005856Y021573D01*
X006315Y021573D01*
X006315Y021537D01*
X006351Y021537D01*
X006351Y021078D01*
X006371Y021078D01*
X006445Y021090D01*
X006516Y021113D01*
X006583Y021147D01*
X006644Y021191D01*
X006697Y021244D01*
X006741Y021305D01*
X006775Y021372D01*
X006798Y021443D01*
X006810Y021517D01*
X006810Y021537D01*
X006352Y021537D01*
X006352Y021573D01*
X006810Y021573D01*
X006810Y021593D01*
X006798Y021667D01*
X006775Y021738D01*
X006741Y021805D01*
X006697Y021866D01*
X006644Y021919D01*
X006583Y021963D01*
X006516Y021997D01*
X006445Y022020D01*
X006371Y022032D01*
X006351Y022032D01*
X006351Y021573D01*
X006315Y021573D01*
X006315Y022032D01*
X006296Y022032D01*
X006221Y022020D01*
X006150Y021997D01*
X006083Y021963D01*
X005935Y021819D02*
X002688Y021819D01*
X002688Y021660D02*
X005867Y021660D01*
X005856Y021537D02*
X005856Y021517D01*
X005868Y021443D01*
X005891Y021372D01*
X005925Y021305D01*
X005969Y021244D01*
X006022Y021191D01*
X006083Y021147D01*
X006150Y021113D01*
X006221Y021090D01*
X006296Y021078D01*
X006315Y021078D01*
X006315Y021537D01*
X005856Y021537D01*
X005859Y021502D02*
X002688Y021502D01*
X002688Y021343D02*
X005906Y021343D01*
X006032Y021185D02*
X002688Y021185D01*
X002688Y021026D02*
X003477Y021026D01*
X003431Y020980D02*
X003537Y021086D01*
X003676Y021144D01*
X004224Y021144D01*
X004363Y021086D01*
X004454Y020996D01*
X005090Y020996D01*
X006520Y019566D01*
X006704Y019566D01*
X006809Y019460D01*
X006809Y017400D01*
X006704Y017294D01*
X006165Y017294D01*
X006155Y017304D01*
X005283Y017304D01*
X005188Y017210D01*
X005053Y017075D01*
X004438Y017075D01*
X004438Y017075D01*
X004469Y017043D01*
X004527Y016904D01*
X004527Y016753D01*
X004469Y016614D01*
X004438Y016583D01*
X004469Y016551D01*
X004527Y016412D01*
X004527Y016261D01*
X004469Y016122D01*
X004438Y016090D01*
X004443Y016086D01*
X004484Y016024D01*
X004513Y015955D01*
X004527Y015882D01*
X004527Y015844D01*
X003950Y015844D01*
X003950Y015844D01*
X003950Y015466D01*
X003714Y015466D01*
X003641Y015480D01*
X003573Y015509D01*
X003511Y015550D01*
X003458Y015603D01*
X003416Y015665D01*
X003388Y015734D01*
X003373Y015807D01*
X003373Y015844D01*
X003950Y015844D01*
X003950Y015844D01*
X003950Y015466D01*
X004186Y015466D01*
X004259Y015480D01*
X004328Y015509D01*
X004390Y015550D01*
X004443Y015603D01*
X004484Y015665D01*
X004513Y015734D01*
X004527Y015807D01*
X004527Y015844D01*
X003950Y015844D01*
X003373Y015844D01*
X003373Y015882D01*
X003388Y015955D01*
X003416Y016024D01*
X003458Y016086D01*
X003463Y016090D01*
X003431Y016122D01*
X003373Y016261D01*
X003373Y016412D01*
X003431Y016551D01*
X003463Y016583D01*
X003431Y016614D01*
X003373Y016753D01*
X003373Y016904D01*
X003431Y017043D01*
X003463Y017075D01*
X003431Y017106D01*
X003373Y017245D01*
X003373Y017396D01*
X003431Y017535D01*
X003463Y017567D01*
X003431Y017599D01*
X003373Y017738D01*
X003373Y017888D01*
X003431Y018027D01*
X003463Y018059D01*
X003431Y018091D01*
X003373Y018230D01*
X003373Y018380D01*
X003431Y018519D01*
X003463Y018551D01*
X003431Y018583D01*
X003373Y018722D01*
X003373Y018872D01*
X003431Y019011D01*
X003463Y019043D01*
X003431Y019075D01*
X003373Y019214D01*
X003373Y019365D01*
X003431Y019504D01*
X003463Y019535D01*
X003431Y019567D01*
X003373Y019706D01*
X003373Y019857D01*
X003431Y019996D01*
X003463Y020027D01*
X003431Y020059D01*
X003373Y020198D01*
X003373Y020349D01*
X003431Y020488D01*
X003463Y020520D01*
X003431Y020551D01*
X003373Y020690D01*
X003373Y020841D01*
X003431Y020980D01*
X003384Y020868D02*
X002688Y020868D01*
X002688Y020709D02*
X003373Y020709D01*
X003432Y020551D02*
X002688Y020551D01*
X002688Y020392D02*
X003391Y020392D01*
X003373Y020234D02*
X002688Y020234D01*
X002688Y020075D02*
X003424Y020075D01*
X003398Y019917D02*
X002688Y019917D01*
X002688Y019758D02*
X003373Y019758D01*
X003417Y019600D02*
X002688Y019600D01*
X002688Y019441D02*
X003405Y019441D01*
X003373Y019283D02*
X002688Y019283D01*
X002688Y019124D02*
X003411Y019124D01*
X003412Y018966D02*
X002688Y018966D01*
X002688Y018807D02*
X003373Y018807D01*
X003404Y018649D02*
X002688Y018649D01*
X002688Y018490D02*
X003419Y018490D01*
X003373Y018332D02*
X002688Y018332D01*
X002688Y018173D02*
X003397Y018173D01*
X003426Y018015D02*
X002688Y018015D01*
X002688Y017856D02*
X003373Y017856D01*
X003390Y017698D02*
X002688Y017698D01*
X002688Y017539D02*
X003435Y017539D01*
X003373Y017381D02*
X002688Y017381D01*
X002688Y017222D02*
X003383Y017222D01*
X003452Y017064D02*
X002688Y017064D01*
X002688Y016905D02*
X003374Y016905D01*
X003376Y016747D02*
X002688Y016747D01*
X002688Y016588D02*
X003457Y016588D01*
X003381Y016430D02*
X002688Y016430D01*
X002688Y016271D02*
X003373Y016271D01*
X003441Y016113D02*
X002688Y016113D01*
X002688Y015954D02*
X003388Y015954D01*
X003376Y015796D02*
X002688Y015796D01*
X002688Y015637D02*
X003435Y015637D01*
X003651Y015479D02*
X002688Y015479D01*
X002688Y015320D02*
X008330Y015320D01*
X008330Y015162D02*
X002688Y015162D01*
X002688Y015003D02*
X009385Y015003D01*
X009227Y014845D02*
X002688Y014845D01*
X002688Y014686D02*
X009178Y014686D01*
X009178Y014528D02*
X004203Y014528D01*
X004076Y014562D02*
X004358Y014486D01*
X004611Y014340D01*
X004818Y014133D01*
X004964Y013880D01*
X005039Y013598D01*
X005039Y013306D01*
X004964Y013023D01*
X004818Y012770D01*
X004611Y012563D01*
X004358Y012417D01*
X004076Y012342D01*
X003783Y012342D01*
X003501Y012417D01*
X003248Y012563D01*
X003041Y012770D01*
X002895Y013023D01*
X002820Y013306D01*
X002820Y013598D01*
X002895Y013880D01*
X003041Y014133D01*
X003248Y014340D01*
X003501Y014486D01*
X003783Y014562D01*
X004076Y014562D01*
X003656Y014528D02*
X002688Y014528D01*
X002688Y014369D02*
X003299Y014369D01*
X003119Y014211D02*
X002688Y014211D01*
X002688Y014052D02*
X002995Y014052D01*
X002903Y013894D02*
X002688Y013894D01*
X002688Y013735D02*
X002856Y013735D01*
X002820Y013577D02*
X002688Y013577D01*
X002688Y013418D02*
X002820Y013418D01*
X002832Y013260D02*
X002688Y013260D01*
X002688Y013101D02*
X002874Y013101D01*
X002942Y012943D02*
X002688Y012943D01*
X002688Y012784D02*
X003033Y012784D01*
X003186Y012626D02*
X002688Y012626D01*
X002688Y012467D02*
X003415Y012467D01*
X002688Y012309D02*
X008128Y012309D01*
X007991Y012467D02*
X004444Y012467D01*
X004673Y012626D02*
X007983Y012626D01*
X007983Y012784D02*
X004826Y012784D01*
X004917Y012943D02*
X007983Y012943D01*
X007983Y013101D02*
X004985Y013101D01*
X005027Y013260D02*
X007987Y013260D01*
X007983Y013418D02*
X005039Y013418D01*
X005039Y013577D02*
X008410Y013577D01*
X008506Y013577D02*
X009178Y013577D01*
X009178Y013735D02*
X008933Y013735D01*
X008913Y013894D02*
X009178Y013894D01*
X009178Y014052D02*
X004865Y014052D01*
X004956Y013894D02*
X008003Y013894D01*
X007983Y013735D02*
X005003Y013735D01*
X004740Y014211D02*
X009178Y014211D01*
X009178Y014369D02*
X004560Y014369D01*
X004249Y015479D02*
X008330Y015479D01*
X008330Y015637D02*
X004465Y015637D01*
X004525Y015796D02*
X008423Y015796D01*
X008478Y015954D02*
X004513Y015954D01*
X004460Y016113D02*
X008478Y016113D01*
X008478Y016271D02*
X004527Y016271D01*
X004520Y016430D02*
X008478Y016430D01*
X008478Y016588D02*
X004443Y016588D01*
X004524Y016747D02*
X008478Y016747D01*
X008478Y016905D02*
X004527Y016905D01*
X004449Y017064D02*
X008478Y017064D01*
X008478Y017222D02*
X005200Y017222D01*
X006790Y017381D02*
X008376Y017381D01*
X008357Y017539D02*
X006809Y017539D01*
X006809Y017698D02*
X008359Y017698D01*
X008357Y017856D02*
X006809Y017856D01*
X006809Y018015D02*
X008357Y018015D01*
X008357Y018173D02*
X006809Y018173D01*
X006809Y018332D02*
X008357Y018332D01*
X008357Y018490D02*
X006809Y018490D01*
X006809Y018649D02*
X008359Y018649D01*
X008357Y018807D02*
X006809Y018807D01*
X006809Y018966D02*
X008357Y018966D01*
X008357Y019124D02*
X006809Y019124D01*
X006809Y019283D02*
X008357Y019283D01*
X008357Y019441D02*
X006809Y019441D01*
X006486Y019600D02*
X009802Y019600D01*
X009644Y019441D02*
X009107Y019441D01*
X009238Y020078D02*
X009428Y020078D01*
X009603Y020151D01*
X009737Y020285D01*
X009810Y020460D01*
X009810Y020650D01*
X009737Y020825D01*
X009603Y020959D01*
X009428Y021032D01*
X009238Y021032D01*
X009063Y020959D01*
X008929Y020825D01*
X008856Y020650D01*
X008856Y020460D01*
X008929Y020285D01*
X009063Y020151D01*
X009238Y020078D01*
X008980Y020234D02*
X008686Y020234D01*
X008737Y020285D02*
X008810Y020460D01*
X008810Y020650D01*
X008737Y020825D01*
X008603Y020959D01*
X008428Y021032D01*
X008238Y021032D01*
X008063Y020959D01*
X007929Y020825D01*
X007856Y020650D01*
X007856Y020460D01*
X007929Y020285D01*
X008063Y020151D01*
X008238Y020078D01*
X008428Y020078D01*
X008603Y020151D01*
X008737Y020285D01*
X008782Y020392D02*
X008884Y020392D01*
X008856Y020551D02*
X008810Y020551D01*
X008785Y020709D02*
X008881Y020709D01*
X008971Y020868D02*
X008695Y020868D01*
X008603Y021151D02*
X008428Y021078D01*
X008238Y021078D01*
X008063Y021151D01*
X007929Y021285D01*
X007856Y021460D01*
X007856Y021650D01*
X007929Y021825D01*
X008063Y021959D01*
X008238Y022032D01*
X008428Y022032D01*
X008603Y021959D01*
X008737Y021825D01*
X008810Y021650D01*
X008810Y021460D01*
X008737Y021285D01*
X008603Y021151D01*
X008637Y021185D02*
X009029Y021185D01*
X009063Y021151D02*
X009238Y021078D01*
X009428Y021078D01*
X009603Y021151D01*
X009737Y021285D01*
X009810Y021460D01*
X009810Y021650D01*
X009737Y021825D01*
X009603Y021959D01*
X009428Y022032D01*
X009238Y022032D01*
X009063Y021959D01*
X008929Y021825D01*
X008856Y021650D01*
X008856Y021460D01*
X008929Y021285D01*
X009063Y021151D01*
X009224Y021026D02*
X008442Y021026D01*
X008224Y021026D02*
X007442Y021026D01*
X007428Y021032D02*
X007238Y021032D01*
X007063Y020959D01*
X006929Y020825D01*
X006856Y020650D01*
X006856Y020460D01*
X006929Y020285D01*
X007063Y020151D01*
X007238Y020078D01*
X007428Y020078D01*
X007603Y020151D01*
X007737Y020285D01*
X007810Y020460D01*
X007810Y020650D01*
X007737Y020825D01*
X007603Y020959D01*
X007428Y021032D01*
X007428Y021078D02*
X007603Y021151D01*
X007737Y021285D01*
X007810Y021460D01*
X007810Y021650D01*
X007737Y021825D01*
X007603Y021959D01*
X007428Y022032D01*
X007238Y022032D01*
X007063Y021959D01*
X006929Y021825D01*
X006856Y021650D01*
X006856Y021460D01*
X006929Y021285D01*
X007063Y021151D01*
X007238Y021078D01*
X007428Y021078D01*
X007224Y021026D02*
X006407Y021026D01*
X006371Y021032D02*
X006351Y021032D01*
X006351Y020573D01*
X006352Y020573D02*
X006810Y020573D01*
X006810Y020593D01*
X006798Y020667D01*
X006775Y020738D01*
X006741Y020805D01*
X006697Y020866D01*
X006644Y020919D01*
X006583Y020963D01*
X006516Y020997D01*
X006445Y021020D01*
X006371Y021032D01*
X006351Y021026D02*
X006315Y021026D01*
X006315Y021032D02*
X006296Y021032D01*
X006221Y021020D01*
X006150Y020997D01*
X006083Y020963D01*
X006022Y020919D01*
X005969Y020866D01*
X005925Y020805D01*
X005891Y020738D01*
X005868Y020667D01*
X005856Y020593D01*
X005856Y020573D01*
X006315Y020573D01*
X006315Y020537D01*
X006351Y020537D01*
X006351Y020078D01*
X006371Y020078D01*
X006445Y020090D01*
X006516Y020113D01*
X006583Y020147D01*
X006644Y020191D01*
X006697Y020244D01*
X006741Y020305D01*
X006775Y020372D01*
X006798Y020443D01*
X006810Y020517D01*
X006810Y020537D01*
X006352Y020537D01*
X006352Y020573D01*
X006351Y020573D02*
X006315Y020573D01*
X006315Y021032D01*
X006259Y021026D02*
X004423Y021026D01*
X005218Y020868D02*
X005971Y020868D01*
X005882Y020709D02*
X005376Y020709D01*
X005535Y020551D02*
X006315Y020551D01*
X006315Y020537D02*
X005856Y020537D01*
X005856Y020517D01*
X005868Y020443D01*
X005891Y020372D01*
X005925Y020305D01*
X005969Y020244D01*
X006022Y020191D01*
X006083Y020147D01*
X006150Y020113D01*
X006221Y020090D01*
X006296Y020078D01*
X006315Y020078D01*
X006315Y020537D01*
X006352Y020551D02*
X006856Y020551D01*
X006881Y020709D02*
X006784Y020709D01*
X006695Y020868D02*
X006971Y020868D01*
X007029Y021185D02*
X006634Y021185D01*
X006760Y021343D02*
X006905Y021343D01*
X006856Y021502D02*
X006807Y021502D01*
X006799Y021660D02*
X006860Y021660D01*
X006926Y021819D02*
X006731Y021819D01*
X006555Y021977D02*
X007106Y021977D01*
X007560Y021977D02*
X008106Y021977D01*
X007926Y021819D02*
X007740Y021819D01*
X007806Y021660D02*
X007860Y021660D01*
X007856Y021502D02*
X007810Y021502D01*
X007761Y021343D02*
X007905Y021343D01*
X008029Y021185D02*
X007637Y021185D01*
X007695Y020868D02*
X007971Y020868D01*
X007881Y020709D02*
X007785Y020709D01*
X007810Y020551D02*
X007856Y020551D01*
X007884Y020392D02*
X007782Y020392D01*
X007686Y020234D02*
X007980Y020234D01*
X006980Y020234D02*
X006686Y020234D01*
X006782Y020392D02*
X006884Y020392D01*
X006351Y020392D02*
X006315Y020392D01*
X006315Y020234D02*
X006351Y020234D01*
X006169Y019917D02*
X015709Y019917D01*
X015666Y020075D02*
X006010Y020075D01*
X005980Y020234D02*
X005852Y020234D01*
X005885Y020392D02*
X005693Y020392D01*
X006315Y020709D02*
X006351Y020709D01*
X006351Y020868D02*
X006315Y020868D01*
X006315Y021185D02*
X006351Y021185D01*
X006351Y021343D02*
X006315Y021343D01*
X006315Y021502D02*
X006351Y021502D01*
X006351Y021660D02*
X006315Y021660D01*
X006315Y021819D02*
X006351Y021819D01*
X006351Y021977D02*
X006315Y021977D01*
X008560Y021977D02*
X009106Y021977D01*
X008926Y021819D02*
X008740Y021819D01*
X008806Y021660D02*
X008860Y021660D01*
X008856Y021502D02*
X008810Y021502D01*
X008761Y021343D02*
X008905Y021343D01*
X009442Y021026D02*
X010224Y021026D01*
X010238Y021032D02*
X010063Y020959D01*
X009929Y020825D01*
X009856Y020650D01*
X009856Y020460D01*
X009929Y020285D01*
X010063Y020151D01*
X010238Y020078D01*
X010428Y020078D01*
X010603Y020151D01*
X010737Y020285D01*
X010810Y020460D01*
X010810Y020650D01*
X010737Y020825D01*
X010603Y020959D01*
X010428Y021032D01*
X010238Y021032D01*
X010238Y021078D02*
X010428Y021078D01*
X010603Y021151D01*
X010737Y021285D01*
X010810Y021460D01*
X010810Y021650D01*
X010737Y021825D01*
X010603Y021959D01*
X010428Y022032D01*
X010238Y022032D01*
X010063Y021959D01*
X009929Y021825D01*
X009856Y021650D01*
X009856Y021460D01*
X009929Y021285D01*
X010063Y021151D01*
X010238Y021078D01*
X010442Y021026D02*
X011224Y021026D01*
X011238Y021032D02*
X011063Y020959D01*
X010929Y020825D01*
X010856Y020650D01*
X010856Y020460D01*
X010929Y020285D01*
X011063Y020151D01*
X011238Y020078D01*
X011428Y020078D01*
X011603Y020151D01*
X011737Y020285D01*
X011810Y020460D01*
X011810Y020650D01*
X011737Y020825D01*
X011603Y020959D01*
X011428Y021032D01*
X011238Y021032D01*
X011238Y021078D02*
X011428Y021078D01*
X011603Y021151D01*
X011737Y021285D01*
X011810Y021460D01*
X011810Y021650D01*
X011737Y021825D01*
X011603Y021959D01*
X011428Y022032D01*
X011238Y022032D01*
X011063Y021959D01*
X010929Y021825D01*
X010856Y021650D01*
X010856Y021460D01*
X010929Y021285D01*
X011063Y021151D01*
X011238Y021078D01*
X011442Y021026D02*
X012224Y021026D01*
X012238Y021032D02*
X012063Y020959D01*
X011929Y020825D01*
X011856Y020650D01*
X011856Y020460D01*
X011929Y020285D01*
X012063Y020151D01*
X012238Y020078D01*
X012428Y020078D01*
X012603Y020151D01*
X012737Y020285D01*
X012810Y020460D01*
X012810Y020650D01*
X012737Y020825D01*
X012603Y020959D01*
X012428Y021032D01*
X012238Y021032D01*
X012238Y021078D02*
X012428Y021078D01*
X012603Y021151D01*
X012737Y021285D01*
X012810Y021460D01*
X012810Y021650D01*
X012737Y021825D01*
X012603Y021959D01*
X012428Y022032D01*
X012238Y022032D01*
X012063Y021959D01*
X011929Y021825D01*
X011856Y021650D01*
X011856Y021460D01*
X011929Y021285D01*
X012063Y021151D01*
X012238Y021078D01*
X012442Y021026D02*
X013224Y021026D01*
X013238Y021032D02*
X013063Y020959D01*
X012929Y020825D01*
X012856Y020650D01*
X012856Y020460D01*
X012929Y020285D01*
X013063Y020151D01*
X013238Y020078D01*
X013428Y020078D01*
X013603Y020151D01*
X013737Y020285D01*
X013810Y020460D01*
X013810Y020650D01*
X013737Y020825D01*
X013603Y020959D01*
X013428Y021032D01*
X013238Y021032D01*
X013238Y021078D02*
X013428Y021078D01*
X013603Y021151D01*
X013737Y021285D01*
X013810Y021460D01*
X013810Y021650D01*
X013737Y021825D01*
X013603Y021959D01*
X013428Y022032D01*
X013238Y022032D01*
X013063Y021959D01*
X012929Y021825D01*
X012856Y021650D01*
X012856Y021460D01*
X012929Y021285D01*
X013063Y021151D01*
X013238Y021078D01*
X013442Y021026D02*
X014224Y021026D01*
X014238Y021032D02*
X014063Y020959D01*
X013929Y020825D01*
X013856Y020650D01*
X013856Y020460D01*
X013929Y020285D01*
X014063Y020151D01*
X014238Y020078D01*
X014428Y020078D01*
X014603Y020151D01*
X014737Y020285D01*
X014810Y020460D01*
X014810Y020650D01*
X014737Y020825D01*
X014603Y020959D01*
X014428Y021032D01*
X014238Y021032D01*
X014442Y021026D02*
X015224Y021026D01*
X015442Y021026D02*
X015537Y021026D01*
X015029Y021185D02*
X014637Y021185D01*
X014761Y021343D02*
X014905Y021343D01*
X014856Y021502D02*
X014810Y021502D01*
X014806Y021660D02*
X014860Y021660D01*
X014922Y021819D02*
X014926Y021819D01*
X014106Y021977D02*
X013560Y021977D01*
X013740Y021819D02*
X013926Y021819D01*
X013860Y021660D02*
X013806Y021660D01*
X013810Y021502D02*
X013856Y021502D01*
X013905Y021343D02*
X013761Y021343D01*
X013637Y021185D02*
X014029Y021185D01*
X013971Y020868D02*
X013695Y020868D01*
X013785Y020709D02*
X013881Y020709D01*
X013856Y020551D02*
X013810Y020551D01*
X013782Y020392D02*
X013884Y020392D01*
X013980Y020234D02*
X013686Y020234D01*
X012980Y020234D02*
X012686Y020234D01*
X012782Y020392D02*
X012884Y020392D01*
X012856Y020551D02*
X012810Y020551D01*
X012785Y020709D02*
X012881Y020709D01*
X012971Y020868D02*
X012695Y020868D01*
X012637Y021185D02*
X013029Y021185D01*
X012905Y021343D02*
X012761Y021343D01*
X012810Y021502D02*
X012856Y021502D01*
X012860Y021660D02*
X012806Y021660D01*
X012740Y021819D02*
X012926Y021819D01*
X013106Y021977D02*
X012560Y021977D01*
X012106Y021977D02*
X011560Y021977D01*
X011740Y021819D02*
X011926Y021819D01*
X011860Y021660D02*
X011806Y021660D01*
X011810Y021502D02*
X011856Y021502D01*
X011905Y021343D02*
X011761Y021343D01*
X011637Y021185D02*
X012029Y021185D01*
X011971Y020868D02*
X011695Y020868D01*
X011785Y020709D02*
X011881Y020709D01*
X011856Y020551D02*
X011810Y020551D01*
X011782Y020392D02*
X011884Y020392D01*
X011980Y020234D02*
X011686Y020234D01*
X010980Y020234D02*
X010686Y020234D01*
X010782Y020392D02*
X010884Y020392D01*
X010856Y020551D02*
X010810Y020551D01*
X010785Y020709D02*
X010881Y020709D01*
X010971Y020868D02*
X010695Y020868D01*
X010637Y021185D02*
X011029Y021185D01*
X010905Y021343D02*
X010761Y021343D01*
X010810Y021502D02*
X010856Y021502D01*
X010860Y021660D02*
X010806Y021660D01*
X010740Y021819D02*
X010926Y021819D01*
X011106Y021977D02*
X010560Y021977D01*
X010106Y021977D02*
X009560Y021977D01*
X009740Y021819D02*
X009926Y021819D01*
X009860Y021660D02*
X009806Y021660D01*
X009810Y021502D02*
X009856Y021502D01*
X009905Y021343D02*
X009761Y021343D01*
X009637Y021185D02*
X010029Y021185D01*
X009971Y020868D02*
X009695Y020868D01*
X009785Y020709D02*
X009881Y020709D01*
X009856Y020551D02*
X009810Y020551D01*
X009782Y020392D02*
X009884Y020392D01*
X009980Y020234D02*
X009686Y020234D01*
X010410Y018807D02*
X010695Y018807D01*
X010627Y018649D02*
X010252Y018649D01*
X011453Y018825D02*
X013863Y018825D01*
X014353Y018335D01*
X014353Y017308D01*
X013810Y017308D01*
X013705Y017203D01*
X013705Y016657D01*
X013810Y016552D01*
X014353Y016552D01*
X014353Y014204D01*
X014249Y014308D01*
X013704Y014308D01*
X013599Y014203D01*
X013599Y013657D01*
X013704Y013552D01*
X014030Y013552D01*
X014127Y013454D01*
X014127Y013033D01*
X014230Y012930D01*
X014127Y012827D01*
X014127Y012766D01*
X013711Y012766D01*
X013711Y013203D01*
X013606Y013308D01*
X013060Y013308D01*
X012955Y013203D01*
X012955Y013160D01*
X012697Y013160D01*
X012664Y013193D01*
X012664Y013615D01*
X012558Y013720D01*
X011858Y013720D01*
X011752Y013615D01*
X011752Y013566D01*
X011539Y013566D01*
X011539Y013577D01*
X011433Y013683D01*
X011404Y013683D01*
X011428Y013689D01*
X011469Y013713D01*
X011503Y013747D01*
X011526Y013788D01*
X011539Y013833D01*
X011539Y014045D01*
X011111Y014045D01*
X011111Y014102D01*
X011055Y014102D01*
X011055Y014470D01*
X010784Y014470D01*
X010738Y014458D01*
X010697Y014434D01*
X010663Y014401D01*
X010640Y014360D01*
X010627Y014314D01*
X010627Y014102D01*
X011055Y014102D01*
X011055Y014045D01*
X010627Y014045D01*
X010627Y013836D01*
X010211Y014252D01*
X010211Y014578D01*
X010106Y014683D01*
X009857Y014683D01*
X012070Y016896D01*
X012113Y016999D01*
X012113Y017983D01*
X012273Y017983D01*
X012273Y017873D01*
X012379Y017767D01*
X013040Y017767D01*
X013083Y017811D01*
X013091Y017803D01*
X013132Y017779D01*
X013177Y017767D01*
X013409Y017767D01*
X013409Y018195D01*
X013505Y018195D01*
X013505Y018290D01*
X013893Y018290D01*
X013893Y018561D01*
X013881Y018607D01*
X013857Y018648D01*
X013824Y018682D01*
X013782Y018706D01*
X013737Y018718D01*
X013505Y018718D01*
X013505Y018290D01*
X013409Y018290D01*
X013409Y018718D01*
X013177Y018718D01*
X013132Y018706D01*
X013091Y018682D01*
X013083Y018674D01*
X013040Y018718D01*
X012379Y018718D01*
X012273Y018612D01*
X012273Y018502D01*
X011782Y018502D01*
X011598Y018686D01*
X011539Y018711D01*
X011539Y018740D01*
X011453Y018825D01*
X011471Y018807D02*
X013881Y018807D01*
X013857Y018649D02*
X014039Y018649D01*
X013893Y018490D02*
X014198Y018490D01*
X014353Y018332D02*
X013893Y018332D01*
X013893Y018195D02*
X013505Y018195D01*
X013505Y017767D01*
X013737Y017767D01*
X013782Y017779D01*
X013824Y017803D01*
X013857Y017837D01*
X013881Y017878D01*
X013893Y017924D01*
X013893Y018195D01*
X013893Y018173D02*
X014353Y018173D01*
X014353Y018015D02*
X013893Y018015D01*
X013868Y017856D02*
X014353Y017856D01*
X014353Y017698D02*
X012113Y017698D01*
X012113Y017856D02*
X012290Y017856D01*
X012113Y017539D02*
X014353Y017539D01*
X014353Y017381D02*
X012113Y017381D01*
X012113Y017222D02*
X013724Y017222D01*
X013705Y017064D02*
X012113Y017064D01*
X012074Y016905D02*
X013705Y016905D01*
X013705Y016747D02*
X011921Y016747D01*
X011762Y016588D02*
X013774Y016588D01*
X014353Y016430D02*
X011604Y016430D01*
X011445Y016271D02*
X014353Y016271D01*
X014353Y016113D02*
X011287Y016113D01*
X011128Y015954D02*
X014353Y015954D01*
X014353Y015796D02*
X010970Y015796D01*
X010811Y015637D02*
X014353Y015637D01*
X014353Y015479D02*
X010653Y015479D01*
X010494Y015320D02*
X014353Y015320D01*
X014353Y015162D02*
X010336Y015162D01*
X010177Y015003D02*
X014353Y015003D01*
X014353Y014845D02*
X010019Y014845D01*
X009860Y014686D02*
X014353Y014686D01*
X014353Y014528D02*
X010211Y014528D01*
X010211Y014369D02*
X010645Y014369D01*
X010627Y014211D02*
X010253Y014211D01*
X010411Y014052D02*
X011055Y014052D01*
X011111Y014052D02*
X013599Y014052D01*
X013599Y013894D02*
X011539Y013894D01*
X011491Y013735D02*
X013599Y013735D01*
X013679Y013577D02*
X012664Y013577D01*
X012664Y013418D02*
X014127Y013418D01*
X014127Y013260D02*
X013654Y013260D01*
X013711Y013101D02*
X014127Y013101D01*
X014218Y012943D02*
X013711Y012943D01*
X013711Y012784D02*
X014127Y012784D01*
X014223Y012150D02*
X012568Y012150D01*
X011848Y012150D02*
X009738Y012150D01*
X009738Y012309D02*
X011752Y012309D01*
X011752Y012467D02*
X009738Y012467D01*
X009738Y012626D02*
X011752Y012626D01*
X011752Y012784D02*
X009738Y012784D01*
X009738Y012943D02*
X010680Y012943D01*
X010627Y013101D02*
X009738Y013101D01*
X009738Y013260D02*
X010553Y013260D01*
X010395Y013418D02*
X009738Y013418D01*
X009738Y013577D02*
X010236Y013577D01*
X010078Y013735D02*
X009738Y013735D01*
X009738Y013894D02*
X009919Y013894D01*
X010570Y013894D02*
X010627Y013894D01*
X011111Y014102D02*
X011111Y014470D01*
X011382Y014470D01*
X011428Y014458D01*
X011469Y014434D01*
X011503Y014401D01*
X011526Y014360D01*
X011539Y014314D01*
X011539Y014102D01*
X011111Y014102D01*
X011111Y014211D02*
X011055Y014211D01*
X011055Y014369D02*
X011111Y014369D01*
X011521Y014369D02*
X014353Y014369D01*
X014347Y014211D02*
X014353Y014211D01*
X013607Y014211D02*
X011539Y014211D01*
X011539Y013577D02*
X011752Y013577D01*
X012664Y013260D02*
X013012Y013260D01*
X011843Y012943D02*
X011486Y012943D01*
X009178Y012943D02*
X008933Y012943D01*
X008933Y013101D02*
X009178Y013101D01*
X009178Y013260D02*
X008929Y013260D01*
X008933Y013418D02*
X009178Y013418D01*
X009178Y012784D02*
X008933Y012784D01*
X008933Y012626D02*
X009178Y012626D01*
X009178Y012467D02*
X008925Y012467D01*
X008788Y012309D02*
X009178Y012309D01*
X009178Y012150D02*
X008788Y012150D01*
X007155Y012150D02*
X006168Y012150D01*
X006164Y012163D02*
X006140Y012204D01*
X006107Y012237D01*
X006066Y012261D01*
X006020Y012273D01*
X005641Y012273D01*
X005641Y011738D01*
X005525Y011738D01*
X005525Y011622D01*
X004990Y011622D01*
X004990Y011243D01*
X005002Y011197D01*
X005026Y011156D01*
X005059Y011123D01*
X005100Y011099D01*
X005146Y011087D01*
X005525Y011087D01*
X005525Y011622D01*
X005641Y011622D01*
X005641Y011087D01*
X006020Y011087D01*
X006066Y011099D01*
X006107Y011123D01*
X006140Y011156D01*
X006164Y011197D01*
X006176Y011243D01*
X006176Y011622D01*
X005641Y011622D01*
X005641Y011738D01*
X006176Y011738D01*
X006176Y012117D01*
X006164Y012163D01*
X006176Y011992D02*
X007155Y011992D01*
X007155Y011833D02*
X006176Y011833D01*
X006176Y011516D02*
X007155Y011516D01*
X007155Y011358D02*
X006176Y011358D01*
X006165Y011199D02*
X007155Y011199D01*
X007155Y011675D02*
X005641Y011675D01*
X005525Y011675D02*
X002688Y011675D01*
X002688Y011833D02*
X004990Y011833D01*
X004990Y011738D02*
X005525Y011738D01*
X005525Y012273D01*
X005146Y012273D01*
X005100Y012261D01*
X005059Y012237D01*
X005026Y012204D01*
X005002Y012163D01*
X004990Y012117D01*
X004990Y011738D01*
X004990Y011516D02*
X002688Y011516D01*
X002688Y011358D02*
X004990Y011358D01*
X005001Y011199D02*
X002688Y011199D01*
X002688Y011041D02*
X008128Y011041D01*
X008128Y010882D02*
X004463Y010882D01*
X004358Y010943D02*
X004076Y011018D01*
X003783Y011018D01*
X003501Y010943D01*
X003248Y010797D01*
X003041Y010590D01*
X002895Y010337D01*
X002820Y010054D01*
X002820Y009762D01*
X002895Y009480D01*
X003041Y009227D01*
X003248Y009020D01*
X003501Y008874D01*
X003783Y008798D01*
X004076Y008798D01*
X004358Y008874D01*
X004611Y009020D01*
X004818Y009227D01*
X004964Y009480D01*
X005039Y009762D01*
X005039Y010054D01*
X004964Y010337D01*
X004818Y010590D01*
X004611Y010797D01*
X004358Y010943D01*
X004684Y010724D02*
X008045Y010724D01*
X008045Y010565D02*
X004832Y010565D01*
X004924Y010407D02*
X008045Y010407D01*
X008045Y010248D02*
X004988Y010248D01*
X005030Y010090D02*
X008054Y010090D01*
X008045Y009931D02*
X005039Y009931D01*
X005039Y009773D02*
X008045Y009773D01*
X008045Y009614D02*
X005000Y009614D01*
X004950Y009456D02*
X008045Y009456D01*
X008099Y009297D02*
X004858Y009297D01*
X004729Y009139D02*
X008978Y009139D01*
X008978Y009297D02*
X008942Y009297D01*
X008978Y008980D02*
X004541Y008980D01*
X004162Y008822D02*
X008978Y008822D01*
X008978Y008663D02*
X002688Y008663D01*
X002688Y008505D02*
X008978Y008505D01*
X008978Y008346D02*
X002688Y008346D01*
X002688Y008188D02*
X008978Y008188D01*
X008978Y008029D02*
X002688Y008029D01*
X002688Y007871D02*
X008978Y007871D01*
X008978Y007712D02*
X004487Y007712D01*
X004488Y007711D02*
X004349Y007769D01*
X003801Y007769D01*
X003662Y007711D01*
X003556Y007605D01*
X003498Y007466D01*
X003498Y007315D01*
X003556Y007176D01*
X003588Y007145D01*
X003556Y007113D01*
X003498Y006974D01*
X003498Y006823D01*
X003556Y006684D01*
X003588Y006652D01*
X003556Y006621D01*
X003498Y006482D01*
X003498Y006331D01*
X003556Y006192D01*
X003588Y006160D01*
X003556Y006129D01*
X003498Y005990D01*
X003498Y005839D01*
X003556Y005700D01*
X003588Y005668D01*
X003556Y005636D01*
X003498Y005497D01*
X003498Y005347D01*
X003556Y005208D01*
X003588Y005176D01*
X003556Y005144D01*
X003498Y005005D01*
X003498Y004855D01*
X003556Y004716D01*
X003588Y004684D01*
X003556Y004652D01*
X003498Y004513D01*
X003498Y004363D01*
X003556Y004224D01*
X003588Y004192D01*
X003556Y004160D01*
X003498Y004021D01*
X003498Y003870D01*
X003556Y003731D01*
X003588Y003700D01*
X003556Y003668D01*
X003498Y003529D01*
X003498Y003378D01*
X003556Y003239D01*
X003588Y003208D01*
X003556Y003176D01*
X003498Y003037D01*
X003498Y002886D01*
X003556Y002747D01*
X003588Y002715D01*
X003583Y002711D01*
X003541Y002649D01*
X003513Y002580D01*
X003498Y002507D01*
X003498Y002469D01*
X003498Y002432D01*
X003513Y002359D01*
X003541Y002290D01*
X003583Y002228D01*
X003636Y002175D01*
X003698Y002134D01*
X003766Y002105D01*
X003839Y002091D01*
X004075Y002091D01*
X004075Y002469D01*
X004075Y002469D01*
X003498Y002469D01*
X004075Y002469D01*
X004075Y002469D01*
X004075Y002091D01*
X004311Y002091D01*
X004384Y002105D01*
X004453Y002134D01*
X004515Y002175D01*
X004568Y002228D01*
X004609Y002290D01*
X004638Y002359D01*
X004652Y002432D01*
X004652Y002469D01*
X004075Y002469D01*
X004075Y002469D01*
X004652Y002469D01*
X004652Y002507D01*
X004638Y002580D01*
X004609Y002649D01*
X004568Y002711D01*
X004563Y002715D01*
X004594Y002747D01*
X004652Y002886D01*
X004652Y003037D01*
X004594Y003176D01*
X004563Y003208D01*
X004594Y003239D01*
X004652Y003378D01*
X004652Y003529D01*
X004594Y003668D01*
X004563Y003700D01*
X004803Y003700D01*
X004938Y003835D01*
X006523Y005419D01*
X006704Y005419D01*
X006809Y005525D01*
X006809Y007585D01*
X006704Y007691D01*
X006165Y007691D01*
X006155Y007681D01*
X004519Y007681D01*
X004488Y007711D01*
X003664Y007712D02*
X002688Y007712D01*
X002688Y007554D02*
X003535Y007554D01*
X003498Y007395D02*
X002688Y007395D01*
X002688Y007237D02*
X003531Y007237D01*
X003542Y007078D02*
X002688Y007078D01*
X002688Y006920D02*
X003498Y006920D01*
X003524Y006761D02*
X002688Y006761D01*
X002688Y006603D02*
X003548Y006603D01*
X003498Y006444D02*
X002688Y006444D01*
X002688Y006286D02*
X003517Y006286D01*
X003555Y006127D02*
X002688Y006127D01*
X002688Y005969D02*
X003498Y005969D01*
X003510Y005810D02*
X002688Y005810D01*
X002688Y005652D02*
X003571Y005652D01*
X003498Y005493D02*
X002688Y005493D01*
X002688Y005335D02*
X003503Y005335D01*
X003588Y005176D02*
X002688Y005176D01*
X002688Y005018D02*
X003503Y005018D01*
X003498Y004859D02*
X002688Y004859D01*
X002688Y004701D02*
X003571Y004701D01*
X003510Y004542D02*
X002688Y004542D01*
X002688Y004384D02*
X003498Y004384D01*
X003555Y004225D02*
X002688Y004225D01*
X002688Y004067D02*
X003517Y004067D01*
X003498Y003908D02*
X002688Y003908D01*
X002688Y003750D02*
X003548Y003750D01*
X003524Y003591D02*
X002688Y003591D01*
X002688Y003433D02*
X003498Y003433D01*
X003542Y003274D02*
X002688Y003274D01*
X002688Y003116D02*
X003531Y003116D01*
X003498Y002957D02*
X002688Y002957D01*
X002688Y002799D02*
X003535Y002799D01*
X003538Y002640D02*
X002688Y002640D01*
X002688Y002482D02*
X003498Y002482D01*
X003528Y002323D02*
X002688Y002323D01*
X002688Y002165D02*
X003652Y002165D01*
X004075Y002165D02*
X004075Y002165D01*
X004075Y002323D02*
X004075Y002323D01*
X004499Y002165D02*
X006059Y002165D01*
X006083Y002147D02*
X006150Y002113D01*
X006221Y002090D01*
X006296Y002078D01*
X006315Y002078D01*
X006315Y002537D01*
X006351Y002537D01*
X006351Y002078D01*
X006371Y002078D01*
X006445Y002090D01*
X006516Y002113D01*
X006583Y002147D01*
X006644Y002191D01*
X006697Y002244D01*
X006741Y002305D01*
X006775Y002372D01*
X006798Y002443D01*
X006810Y002517D01*
X006810Y002537D01*
X006352Y002537D01*
X006352Y002573D01*
X006810Y002573D01*
X006810Y002593D01*
X006798Y002667D01*
X006775Y002738D01*
X006741Y002805D01*
X006697Y002866D01*
X006644Y002919D01*
X006583Y002963D01*
X006516Y002997D01*
X006445Y003020D01*
X006371Y003032D01*
X006351Y003032D01*
X006351Y002573D01*
X006315Y002573D01*
X006315Y002537D01*
X005856Y002537D01*
X005856Y002517D01*
X005868Y002443D01*
X005891Y002372D01*
X005925Y002305D01*
X005969Y002244D01*
X006022Y002191D01*
X006083Y002147D01*
X006150Y001997D02*
X006083Y001963D01*
X006022Y001919D01*
X005969Y001866D01*
X005925Y001805D01*
X005891Y001738D01*
X005868Y001667D01*
X005856Y001593D01*
X005856Y001573D01*
X006315Y001573D01*
X006315Y001537D01*
X006351Y001537D01*
X006351Y001078D01*
X006371Y001078D01*
X006445Y001090D01*
X006516Y001113D01*
X006583Y001147D01*
X006644Y001191D01*
X006697Y001244D01*
X006741Y001305D01*
X006775Y001372D01*
X006893Y001372D01*
X006929Y001285D02*
X007063Y001151D01*
X007238Y001078D01*
X007428Y001078D01*
X007603Y001151D01*
X007737Y001285D01*
X007810Y001460D01*
X007810Y001650D01*
X007737Y001825D01*
X007603Y001959D01*
X007428Y002032D01*
X007238Y002032D01*
X007063Y001959D01*
X006929Y001825D01*
X006856Y001650D01*
X006856Y001460D01*
X006929Y001285D01*
X007000Y001214D02*
X006666Y001214D01*
X006775Y001372D02*
X006798Y001443D01*
X006810Y001517D01*
X006810Y001537D01*
X006352Y001537D01*
X006352Y001573D01*
X006810Y001573D01*
X006810Y001593D01*
X006798Y001667D01*
X006775Y001738D01*
X006741Y001805D01*
X006697Y001866D01*
X006644Y001919D01*
X006583Y001963D01*
X006516Y001997D01*
X006445Y002020D01*
X006371Y002032D01*
X006351Y002032D01*
X006351Y001573D01*
X006315Y001573D01*
X006315Y002032D01*
X006296Y002032D01*
X006221Y002020D01*
X006150Y001997D01*
X006178Y002006D02*
X002688Y002006D01*
X002688Y001848D02*
X005956Y001848D01*
X005875Y001689D02*
X002688Y001689D01*
X002688Y001531D02*
X005856Y001531D01*
X005856Y001537D02*
X005856Y001517D01*
X005868Y001443D01*
X005891Y001372D01*
X002688Y001372D01*
X002688Y001214D02*
X006000Y001214D01*
X006022Y001191D02*
X006083Y001147D01*
X006150Y001113D01*
X006221Y001090D01*
X006296Y001078D01*
X006315Y001078D01*
X006315Y001537D01*
X005856Y001537D01*
X005891Y001372D02*
X005925Y001305D01*
X005969Y001244D01*
X006022Y001191D01*
X006315Y001214D02*
X006351Y001214D01*
X006351Y001372D02*
X006315Y001372D01*
X006315Y001531D02*
X006351Y001531D01*
X006351Y001689D02*
X006315Y001689D01*
X006315Y001848D02*
X006351Y001848D01*
X006351Y002006D02*
X006315Y002006D01*
X006315Y002165D02*
X006351Y002165D01*
X006351Y002323D02*
X006315Y002323D01*
X006315Y002482D02*
X006351Y002482D01*
X006315Y002573D02*
X005856Y002573D01*
X005856Y002593D01*
X005868Y002667D01*
X005891Y002738D01*
X005925Y002805D01*
X005969Y002866D01*
X006022Y002919D01*
X006083Y002963D01*
X006150Y002997D01*
X006221Y003020D01*
X006296Y003032D01*
X006315Y003032D01*
X006315Y002573D01*
X006315Y002640D02*
X006351Y002640D01*
X006351Y002799D02*
X006315Y002799D01*
X006315Y002957D02*
X006351Y002957D01*
X006591Y002957D02*
X007061Y002957D01*
X007063Y002959D02*
X006929Y002825D01*
X006856Y002650D01*
X006856Y002460D01*
X006929Y002285D01*
X007063Y002151D01*
X007238Y002078D01*
X007428Y002078D01*
X007603Y002151D01*
X007737Y002285D01*
X007810Y002460D01*
X007810Y002650D01*
X007737Y002825D01*
X007603Y002959D01*
X007428Y003032D01*
X007238Y003032D01*
X007063Y002959D01*
X006918Y002799D02*
X006744Y002799D01*
X006802Y002640D02*
X006856Y002640D01*
X006856Y002482D02*
X006804Y002482D01*
X006750Y002323D02*
X006913Y002323D01*
X007049Y002165D02*
X006607Y002165D01*
X006488Y002006D02*
X007176Y002006D01*
X006951Y001848D02*
X006710Y001848D01*
X006791Y001689D02*
X006872Y001689D01*
X006856Y001531D02*
X006810Y001531D01*
X007490Y002006D02*
X008176Y002006D01*
X008238Y002032D02*
X008063Y001959D01*
X007929Y001825D01*
X007856Y001650D01*
X007856Y001460D01*
X007929Y001285D01*
X008063Y001151D01*
X008238Y001078D01*
X008428Y001078D01*
X008603Y001151D01*
X008737Y001285D01*
X008810Y001460D01*
X008810Y001650D01*
X008737Y001825D01*
X008603Y001959D01*
X008428Y002032D01*
X008238Y002032D01*
X008238Y002078D02*
X008428Y002078D01*
X008603Y002151D01*
X008737Y002285D01*
X008810Y002460D01*
X008810Y002650D01*
X008737Y002825D01*
X008603Y002959D01*
X008428Y003032D01*
X008238Y003032D01*
X008063Y002959D01*
X007929Y002825D01*
X007856Y002650D01*
X007856Y002460D01*
X007929Y002285D01*
X008063Y002151D01*
X008238Y002078D01*
X008049Y002165D02*
X007617Y002165D01*
X007753Y002323D02*
X007913Y002323D01*
X007856Y002482D02*
X007810Y002482D01*
X007810Y002640D02*
X007856Y002640D01*
X007918Y002799D02*
X007748Y002799D01*
X007605Y002957D02*
X008061Y002957D01*
X008605Y002957D02*
X009061Y002957D01*
X009063Y002959D02*
X008929Y002825D01*
X008856Y002650D01*
X008856Y002460D01*
X008929Y002285D01*
X009063Y002151D01*
X009238Y002078D01*
X009428Y002078D01*
X009603Y002151D01*
X009737Y002285D01*
X009810Y002460D01*
X009810Y002650D01*
X009737Y002825D01*
X009603Y002959D01*
X009428Y003032D01*
X009238Y003032D01*
X009063Y002959D01*
X008918Y002799D02*
X008748Y002799D01*
X008810Y002640D02*
X008856Y002640D01*
X008856Y002482D02*
X008810Y002482D01*
X008753Y002323D02*
X008913Y002323D01*
X009049Y002165D02*
X008617Y002165D01*
X008490Y002006D02*
X009176Y002006D01*
X009238Y002032D02*
X009063Y001959D01*
X008929Y001825D01*
X008856Y001650D01*
X008856Y001460D01*
X008929Y001285D01*
X009063Y001151D01*
X009238Y001078D01*
X009428Y001078D01*
X009603Y001151D01*
X009737Y001285D01*
X009810Y001460D01*
X009810Y001650D01*
X009737Y001825D01*
X009603Y001959D01*
X009428Y002032D01*
X009238Y002032D01*
X009490Y002006D02*
X010176Y002006D01*
X010238Y002032D02*
X010063Y001959D01*
X009929Y001825D01*
X009856Y001650D01*
X009856Y001460D01*
X009929Y001285D01*
X010063Y001151D01*
X010238Y001078D01*
X010428Y001078D01*
X010603Y001151D01*
X010737Y001285D01*
X010810Y001460D01*
X010810Y001650D01*
X010737Y001825D01*
X010603Y001959D01*
X010428Y002032D01*
X010238Y002032D01*
X010238Y002078D02*
X010428Y002078D01*
X010603Y002151D01*
X010737Y002285D01*
X010810Y002460D01*
X010810Y002650D01*
X010737Y002825D01*
X010603Y002959D01*
X010428Y003032D01*
X010238Y003032D01*
X010063Y002959D01*
X009929Y002825D01*
X009856Y002650D01*
X009856Y002460D01*
X009929Y002285D01*
X010063Y002151D01*
X010238Y002078D01*
X010049Y002165D02*
X009617Y002165D01*
X009753Y002323D02*
X009913Y002323D01*
X009856Y002482D02*
X009810Y002482D01*
X009810Y002640D02*
X009856Y002640D01*
X009918Y002799D02*
X009748Y002799D01*
X009605Y002957D02*
X010061Y002957D01*
X010605Y002957D02*
X011061Y002957D01*
X011063Y002959D02*
X010929Y002825D01*
X010856Y002650D01*
X010856Y002460D01*
X010929Y002285D01*
X011063Y002151D01*
X011238Y002078D01*
X011428Y002078D01*
X011603Y002151D01*
X011737Y002285D01*
X011810Y002460D01*
X011810Y002650D01*
X011737Y002825D01*
X011603Y002959D01*
X011428Y003032D01*
X011238Y003032D01*
X011063Y002959D01*
X010918Y002799D02*
X010748Y002799D01*
X010810Y002640D02*
X010856Y002640D01*
X010856Y002482D02*
X010810Y002482D01*
X010753Y002323D02*
X010913Y002323D01*
X011049Y002165D02*
X010617Y002165D01*
X010490Y002006D02*
X011176Y002006D01*
X011238Y002032D02*
X011063Y001959D01*
X010929Y001825D01*
X010856Y001650D01*
X010856Y001460D01*
X010929Y001285D01*
X011063Y001151D01*
X011238Y001078D01*
X011428Y001078D01*
X011603Y001151D01*
X011737Y001285D01*
X011810Y001460D01*
X011810Y001650D01*
X011737Y001825D01*
X011603Y001959D01*
X011428Y002032D01*
X011238Y002032D01*
X011490Y002006D02*
X012176Y002006D01*
X012238Y002032D02*
X012063Y001959D01*
X011929Y001825D01*
X011856Y001650D01*
X011856Y001460D01*
X011929Y001285D01*
X012063Y001151D01*
X012238Y001078D01*
X012428Y001078D01*
X012603Y001151D01*
X012737Y001285D01*
X012810Y001460D01*
X012810Y001650D01*
X012737Y001825D01*
X012603Y001959D01*
X012428Y002032D01*
X012238Y002032D01*
X012238Y002078D02*
X012428Y002078D01*
X012603Y002151D01*
X012737Y002285D01*
X012810Y002460D01*
X012810Y002650D01*
X012737Y002825D01*
X012603Y002959D01*
X012428Y003032D01*
X012238Y003032D01*
X012063Y002959D01*
X011929Y002825D01*
X011856Y002650D01*
X011856Y002460D01*
X011929Y002285D01*
X012063Y002151D01*
X012238Y002078D01*
X012049Y002165D02*
X011617Y002165D01*
X011753Y002323D02*
X011913Y002323D01*
X011856Y002482D02*
X011810Y002482D01*
X011810Y002640D02*
X011856Y002640D01*
X011918Y002799D02*
X011748Y002799D01*
X011605Y002957D02*
X012061Y002957D01*
X012605Y002957D02*
X013061Y002957D01*
X013063Y002959D02*
X012929Y002825D01*
X012856Y002650D01*
X012856Y002460D01*
X012929Y002285D01*
X013063Y002151D01*
X013238Y002078D01*
X013428Y002078D01*
X013603Y002151D01*
X013737Y002285D01*
X013810Y002460D01*
X013810Y002650D01*
X013737Y002825D01*
X013603Y002959D01*
X013428Y003032D01*
X013238Y003032D01*
X013063Y002959D01*
X012918Y002799D02*
X012748Y002799D01*
X012810Y002640D02*
X012856Y002640D01*
X012856Y002482D02*
X012810Y002482D01*
X012753Y002323D02*
X012913Y002323D01*
X013049Y002165D02*
X012617Y002165D01*
X012490Y002006D02*
X013176Y002006D01*
X013238Y002032D02*
X013063Y001959D01*
X012929Y001825D01*
X012856Y001650D01*
X012856Y001460D01*
X012929Y001285D01*
X013063Y001151D01*
X013238Y001078D01*
X013428Y001078D01*
X013603Y001151D01*
X013737Y001285D01*
X013810Y001460D01*
X013810Y001650D01*
X013737Y001825D01*
X013603Y001959D01*
X013428Y002032D01*
X013238Y002032D01*
X013490Y002006D02*
X014176Y002006D01*
X014238Y002032D02*
X014063Y001959D01*
X013929Y001825D01*
X013856Y001650D01*
X013856Y001460D01*
X013929Y001285D01*
X014063Y001151D01*
X014238Y001078D01*
X014428Y001078D01*
X014603Y001151D01*
X014737Y001285D01*
X014810Y001460D01*
X014810Y001650D01*
X014737Y001825D01*
X014603Y001959D01*
X014428Y002032D01*
X014238Y002032D01*
X014238Y002078D02*
X014428Y002078D01*
X014603Y002151D01*
X014737Y002285D01*
X014810Y002460D01*
X014810Y002650D01*
X014737Y002825D01*
X014603Y002959D01*
X014428Y003032D01*
X014238Y003032D01*
X014063Y002959D01*
X013929Y002825D01*
X013856Y002650D01*
X013856Y002460D01*
X013929Y002285D01*
X014063Y002151D01*
X014238Y002078D01*
X014049Y002165D02*
X013617Y002165D01*
X013753Y002323D02*
X013913Y002323D01*
X013856Y002482D02*
X013810Y002482D01*
X013810Y002640D02*
X013856Y002640D01*
X013918Y002799D02*
X013748Y002799D01*
X013605Y002957D02*
X014061Y002957D01*
X014605Y002957D02*
X015061Y002957D01*
X015063Y002959D02*
X014929Y002825D01*
X014856Y002650D01*
X014856Y002460D01*
X014929Y002285D01*
X015063Y002151D01*
X015238Y002078D01*
X015428Y002078D01*
X015603Y002151D01*
X015737Y002285D01*
X015810Y002460D01*
X015810Y002650D01*
X015737Y002825D01*
X015603Y002959D01*
X015428Y003032D01*
X015238Y003032D01*
X015063Y002959D01*
X014918Y002799D02*
X014748Y002799D01*
X014810Y002640D02*
X014856Y002640D01*
X014856Y002482D02*
X014810Y002482D01*
X014753Y002323D02*
X014913Y002323D01*
X015049Y002165D02*
X014617Y002165D01*
X014490Y002006D02*
X015176Y002006D01*
X015238Y002032D02*
X015063Y001959D01*
X014929Y001825D01*
X014856Y001650D01*
X014856Y001460D01*
X014929Y001285D01*
X015063Y001151D01*
X015238Y001078D01*
X015428Y001078D01*
X015603Y001151D01*
X015737Y001285D01*
X015810Y001460D01*
X015810Y001650D01*
X015737Y001825D01*
X015603Y001959D01*
X015428Y002032D01*
X015238Y002032D01*
X015490Y002006D02*
X016176Y002006D01*
X016238Y002032D02*
X016063Y001959D01*
X015929Y001825D01*
X015856Y001650D01*
X015856Y001460D01*
X015929Y001285D01*
X016063Y001151D01*
X016238Y001078D01*
X016428Y001078D01*
X016603Y001151D01*
X016737Y001285D01*
X016810Y001460D01*
X016810Y001650D01*
X016737Y001825D01*
X016603Y001959D01*
X016428Y002032D01*
X016238Y002032D01*
X016238Y002078D02*
X016428Y002078D01*
X016603Y002151D01*
X016737Y002285D01*
X016810Y002460D01*
X016810Y002650D01*
X016737Y002825D01*
X016603Y002959D01*
X016428Y003032D01*
X016238Y003032D01*
X016063Y002959D01*
X015929Y002825D01*
X015856Y002650D01*
X015856Y002460D01*
X015929Y002285D01*
X016063Y002151D01*
X016238Y002078D01*
X016049Y002165D02*
X015617Y002165D01*
X015753Y002323D02*
X015913Y002323D01*
X015856Y002482D02*
X015810Y002482D01*
X015810Y002640D02*
X015856Y002640D01*
X015918Y002799D02*
X015748Y002799D01*
X015605Y002957D02*
X016061Y002957D01*
X016605Y002957D02*
X017061Y002957D01*
X017063Y002959D02*
X016929Y002825D01*
X016856Y002650D01*
X016856Y002460D01*
X016929Y002285D01*
X017063Y002151D01*
X017238Y002078D01*
X017428Y002078D01*
X017603Y002151D01*
X017737Y002285D01*
X017810Y002460D01*
X017810Y002650D01*
X017737Y002825D01*
X017603Y002959D01*
X017428Y003032D01*
X017238Y003032D01*
X017063Y002959D01*
X016918Y002799D02*
X016748Y002799D01*
X016810Y002640D02*
X016856Y002640D01*
X016856Y002482D02*
X016810Y002482D01*
X016753Y002323D02*
X016913Y002323D01*
X017049Y002165D02*
X016617Y002165D01*
X016490Y002006D02*
X017176Y002006D01*
X017238Y002032D02*
X017063Y001959D01*
X016929Y001825D01*
X016856Y001650D01*
X016856Y001460D01*
X016929Y001285D01*
X017063Y001151D01*
X017238Y001078D01*
X017428Y001078D01*
X017603Y001151D01*
X017737Y001285D01*
X017810Y001460D01*
X017810Y001650D01*
X017737Y001825D01*
X017603Y001959D01*
X017428Y002032D01*
X017238Y002032D01*
X017490Y002006D02*
X018176Y002006D01*
X018238Y002032D02*
X018063Y001959D01*
X017929Y001825D01*
X017856Y001650D01*
X017856Y001460D01*
X017929Y001285D01*
X018063Y001151D01*
X018238Y001078D01*
X018428Y001078D01*
X018603Y001151D01*
X018737Y001285D01*
X018810Y001460D01*
X018810Y001650D01*
X018737Y001825D01*
X018603Y001959D01*
X018428Y002032D01*
X018238Y002032D01*
X018238Y002078D02*
X018428Y002078D01*
X018603Y002151D01*
X018737Y002285D01*
X018810Y002460D01*
X018810Y002650D01*
X018737Y002825D01*
X018603Y002959D01*
X018428Y003032D01*
X018238Y003032D01*
X018063Y002959D01*
X017929Y002825D01*
X017856Y002650D01*
X017856Y002460D01*
X017929Y002285D01*
X018063Y002151D01*
X018238Y002078D01*
X018049Y002165D02*
X017617Y002165D01*
X017753Y002323D02*
X017913Y002323D01*
X017856Y002482D02*
X017810Y002482D01*
X017810Y002640D02*
X017856Y002640D01*
X017918Y002799D02*
X017748Y002799D01*
X017605Y002957D02*
X018061Y002957D01*
X018605Y002957D02*
X019061Y002957D01*
X019063Y002959D02*
X018929Y002825D01*
X018856Y002650D01*
X018856Y002460D01*
X018929Y002285D01*
X019063Y002151D01*
X019238Y002078D01*
X019428Y002078D01*
X019603Y002151D01*
X019737Y002285D01*
X019810Y002460D01*
X019810Y002650D01*
X019737Y002825D01*
X019603Y002959D01*
X019428Y003032D01*
X019238Y003032D01*
X019063Y002959D01*
X018918Y002799D02*
X018748Y002799D01*
X018810Y002640D02*
X018856Y002640D01*
X018856Y002482D02*
X018810Y002482D01*
X018753Y002323D02*
X018913Y002323D01*
X019049Y002165D02*
X018617Y002165D01*
X018490Y002006D02*
X019176Y002006D01*
X019238Y002032D02*
X019063Y001959D01*
X018929Y001825D01*
X018856Y001650D01*
X018856Y001460D01*
X018929Y001285D01*
X019063Y001151D01*
X019238Y001078D01*
X019428Y001078D01*
X019603Y001151D01*
X019737Y001285D01*
X019810Y001460D01*
X019810Y001650D01*
X019737Y001825D01*
X019603Y001959D01*
X019428Y002032D01*
X019238Y002032D01*
X019490Y002006D02*
X020176Y002006D01*
X020238Y002032D02*
X020063Y001959D01*
X019929Y001825D01*
X019856Y001650D01*
X019856Y001460D01*
X019929Y001285D01*
X020063Y001151D01*
X020238Y001078D01*
X020428Y001078D01*
X020603Y001151D01*
X020737Y001285D01*
X020810Y001460D01*
X020810Y001650D01*
X020737Y001825D01*
X020603Y001959D01*
X020428Y002032D01*
X020238Y002032D01*
X020238Y002078D02*
X020428Y002078D01*
X020603Y002151D01*
X020737Y002285D01*
X020810Y002460D01*
X020810Y002650D01*
X020737Y002825D01*
X020603Y002959D01*
X020428Y003032D01*
X020238Y003032D01*
X020063Y002959D01*
X019929Y002825D01*
X019856Y002650D01*
X019856Y002460D01*
X019929Y002285D01*
X020063Y002151D01*
X020238Y002078D01*
X020049Y002165D02*
X019617Y002165D01*
X019753Y002323D02*
X019913Y002323D01*
X019856Y002482D02*
X019810Y002482D01*
X019810Y002640D02*
X019856Y002640D01*
X019918Y002799D02*
X019748Y002799D01*
X019605Y002957D02*
X020061Y002957D01*
X020605Y002957D02*
X021061Y002957D01*
X021063Y002959D02*
X020929Y002825D01*
X020856Y002650D01*
X020856Y002460D01*
X020929Y002285D01*
X021063Y002151D01*
X021238Y002078D01*
X021428Y002078D01*
X021603Y002151D01*
X021737Y002285D01*
X021810Y002460D01*
X021810Y002650D01*
X021737Y002825D01*
X021603Y002959D01*
X021428Y003032D01*
X021238Y003032D01*
X021063Y002959D01*
X020918Y002799D02*
X020748Y002799D01*
X020810Y002640D02*
X020856Y002640D01*
X020856Y002482D02*
X020810Y002482D01*
X020753Y002323D02*
X020913Y002323D01*
X021049Y002165D02*
X020617Y002165D01*
X020490Y002006D02*
X021176Y002006D01*
X021238Y002032D02*
X021063Y001959D01*
X020929Y001825D01*
X020856Y001650D01*
X020856Y001460D01*
X020929Y001285D01*
X021063Y001151D01*
X021238Y001078D01*
X021428Y001078D01*
X021603Y001151D01*
X021737Y001285D01*
X021810Y001460D01*
X021810Y001650D01*
X021737Y001825D01*
X021603Y001959D01*
X021428Y002032D01*
X021238Y002032D01*
X021490Y002006D02*
X022176Y002006D01*
X022238Y002032D02*
X022063Y001959D01*
X021929Y001825D01*
X021856Y001650D01*
X021856Y001460D01*
X021929Y001285D01*
X022063Y001151D01*
X022238Y001078D01*
X022428Y001078D01*
X022603Y001151D01*
X022737Y001285D01*
X022810Y001460D01*
X022810Y001650D01*
X022737Y001825D01*
X022603Y001959D01*
X022428Y002032D01*
X022238Y002032D01*
X022238Y002078D02*
X022428Y002078D01*
X022603Y002151D01*
X022737Y002285D01*
X022810Y002460D01*
X022810Y002650D01*
X022737Y002825D01*
X022603Y002959D01*
X022428Y003032D01*
X022238Y003032D01*
X022063Y002959D01*
X021929Y002825D01*
X021856Y002650D01*
X021856Y002460D01*
X021929Y002285D01*
X022063Y002151D01*
X022238Y002078D01*
X022049Y002165D02*
X021617Y002165D01*
X021753Y002323D02*
X021913Y002323D01*
X021856Y002482D02*
X021810Y002482D01*
X021810Y002640D02*
X021856Y002640D01*
X021918Y002799D02*
X021748Y002799D01*
X021605Y002957D02*
X022061Y002957D01*
X022605Y002957D02*
X023061Y002957D01*
X023063Y002959D02*
X022929Y002825D01*
X022856Y002650D01*
X022856Y002460D01*
X022929Y002285D01*
X023063Y002151D01*
X023238Y002078D01*
X023428Y002078D01*
X023603Y002151D01*
X023737Y002285D01*
X023810Y002460D01*
X023810Y002650D01*
X023737Y002825D01*
X023603Y002959D01*
X023428Y003032D01*
X023238Y003032D01*
X023063Y002959D01*
X022918Y002799D02*
X022748Y002799D01*
X022810Y002640D02*
X022856Y002640D01*
X022856Y002482D02*
X022810Y002482D01*
X022753Y002323D02*
X022913Y002323D01*
X023049Y002165D02*
X022617Y002165D01*
X022490Y002006D02*
X023176Y002006D01*
X023238Y002032D02*
X023063Y001959D01*
X022929Y001825D01*
X022856Y001650D01*
X022856Y001460D01*
X022929Y001285D01*
X023063Y001151D01*
X023238Y001078D01*
X023428Y001078D01*
X023603Y001151D01*
X023737Y001285D01*
X023810Y001460D01*
X023810Y001650D01*
X023737Y001825D01*
X023603Y001959D01*
X023428Y002032D01*
X023238Y002032D01*
X023490Y002006D02*
X024176Y002006D01*
X024238Y002032D02*
X024063Y001959D01*
X023929Y001825D01*
X023856Y001650D01*
X023856Y001460D01*
X023929Y001285D01*
X024063Y001151D01*
X024238Y001078D01*
X024428Y001078D01*
X024603Y001151D01*
X024737Y001285D01*
X024810Y001460D01*
X024810Y001650D01*
X024737Y001825D01*
X024603Y001959D01*
X024428Y002032D01*
X024238Y002032D01*
X024238Y002078D02*
X024428Y002078D01*
X024603Y002151D01*
X024737Y002285D01*
X024810Y002460D01*
X024810Y002650D01*
X024737Y002825D01*
X024603Y002959D01*
X024428Y003032D01*
X024238Y003032D01*
X024063Y002959D01*
X023929Y002825D01*
X023856Y002650D01*
X023856Y002460D01*
X023929Y002285D01*
X024063Y002151D01*
X024238Y002078D01*
X024049Y002165D02*
X023617Y002165D01*
X023753Y002323D02*
X023913Y002323D01*
X023856Y002482D02*
X023810Y002482D01*
X023810Y002640D02*
X023856Y002640D01*
X023918Y002799D02*
X023748Y002799D01*
X023605Y002957D02*
X024061Y002957D01*
X024605Y002957D02*
X025061Y002957D01*
X025063Y002959D02*
X024929Y002825D01*
X024856Y002650D01*
X024856Y002460D01*
X024929Y002285D01*
X025063Y002151D01*
X025238Y002078D01*
X025428Y002078D01*
X025603Y002151D01*
X025737Y002285D01*
X025810Y002460D01*
X025810Y002650D01*
X025737Y002825D01*
X025603Y002959D01*
X025428Y003032D01*
X025238Y003032D01*
X025063Y002959D01*
X024918Y002799D02*
X024748Y002799D01*
X024810Y002640D02*
X024856Y002640D01*
X024856Y002482D02*
X024810Y002482D01*
X024753Y002323D02*
X024913Y002323D01*
X025049Y002165D02*
X024617Y002165D01*
X024490Y002006D02*
X025176Y002006D01*
X025238Y002032D02*
X025063Y001959D01*
X024929Y001825D01*
X024856Y001650D01*
X024856Y001460D01*
X024929Y001285D01*
X025063Y001151D01*
X025238Y001078D01*
X025428Y001078D01*
X025603Y001151D01*
X025737Y001285D01*
X025810Y001460D01*
X025810Y001650D01*
X025737Y001825D01*
X025603Y001959D01*
X025428Y002032D01*
X025238Y002032D01*
X025490Y002006D02*
X026176Y002006D01*
X026238Y002032D02*
X026063Y001959D01*
X025929Y001825D01*
X025856Y001650D01*
X025856Y001460D01*
X025929Y001285D01*
X026063Y001151D01*
X026238Y001078D01*
X026428Y001078D01*
X026603Y001151D01*
X026737Y001285D01*
X026810Y001460D01*
X026810Y001650D01*
X026737Y001825D01*
X026603Y001959D01*
X026428Y002032D01*
X026238Y002032D01*
X026238Y002078D02*
X026428Y002078D01*
X026603Y002151D01*
X026737Y002285D01*
X026810Y002460D01*
X026810Y002650D01*
X026737Y002825D01*
X026603Y002959D01*
X026428Y003032D01*
X026238Y003032D01*
X026063Y002959D01*
X025929Y002825D01*
X025856Y002650D01*
X025856Y002460D01*
X025929Y002285D01*
X026063Y002151D01*
X026238Y002078D01*
X026049Y002165D02*
X025617Y002165D01*
X025753Y002323D02*
X025913Y002323D01*
X025856Y002482D02*
X025810Y002482D01*
X025810Y002640D02*
X025856Y002640D01*
X025918Y002799D02*
X025748Y002799D01*
X025605Y002957D02*
X026061Y002957D01*
X026605Y002957D02*
X027061Y002957D01*
X027063Y002959D02*
X026929Y002825D01*
X026856Y002650D01*
X026856Y002460D01*
X026929Y002285D01*
X027063Y002151D01*
X027238Y002078D01*
X027428Y002078D01*
X027603Y002151D01*
X027737Y002285D01*
X027810Y002460D01*
X027810Y002650D01*
X027737Y002825D01*
X027603Y002959D01*
X027428Y003032D01*
X027238Y003032D01*
X027063Y002959D01*
X026918Y002799D02*
X026748Y002799D01*
X026810Y002640D02*
X026856Y002640D01*
X026856Y002482D02*
X026810Y002482D01*
X026753Y002323D02*
X026913Y002323D01*
X027049Y002165D02*
X026617Y002165D01*
X026490Y002006D02*
X027176Y002006D01*
X027238Y002032D02*
X027063Y001959D01*
X026929Y001825D01*
X026856Y001650D01*
X026856Y001460D01*
X026929Y001285D01*
X027063Y001151D01*
X027238Y001078D01*
X027428Y001078D01*
X027603Y001151D01*
X027737Y001285D01*
X027810Y001460D01*
X027810Y001650D01*
X027737Y001825D01*
X027603Y001959D01*
X027428Y002032D01*
X027238Y002032D01*
X027490Y002006D02*
X028176Y002006D01*
X028238Y002032D02*
X028063Y001959D01*
X027929Y001825D01*
X027856Y001650D01*
X027856Y001460D01*
X027929Y001285D01*
X028063Y001151D01*
X028238Y001078D01*
X028428Y001078D01*
X028603Y001151D01*
X028737Y001285D01*
X028810Y001460D01*
X028810Y001650D01*
X028737Y001825D01*
X028603Y001959D01*
X028428Y002032D01*
X028238Y002032D01*
X028490Y002006D02*
X037682Y002006D01*
X037728Y001960D02*
X037863Y001825D01*
X038377Y001825D01*
X038428Y001774D01*
X038567Y001716D01*
X039115Y001716D01*
X039254Y001774D01*
X039360Y001880D01*
X039418Y002019D01*
X039418Y002170D01*
X039360Y002309D01*
X039328Y002340D01*
X039360Y002372D01*
X039418Y002511D01*
X039418Y002662D01*
X039360Y002801D01*
X039328Y002833D01*
X039360Y002864D01*
X039418Y003003D01*
X039418Y003154D01*
X039360Y003293D01*
X039328Y003325D01*
X039360Y003356D01*
X039418Y003495D01*
X039418Y003646D01*
X039360Y003785D01*
X039328Y003817D01*
X039360Y003849D01*
X039418Y003988D01*
X039418Y004138D01*
X039360Y004277D01*
X039328Y004309D01*
X039360Y004341D01*
X039418Y004480D01*
X039418Y004630D01*
X039360Y004769D01*
X039328Y004801D01*
X039360Y004833D01*
X039418Y004972D01*
X039418Y005122D01*
X039360Y005261D01*
X039328Y005293D01*
X039360Y005325D01*
X039418Y005464D01*
X039418Y005615D01*
X039360Y005754D01*
X039328Y005785D01*
X039360Y005817D01*
X039418Y005956D01*
X039418Y006107D01*
X039360Y006246D01*
X039328Y006277D01*
X039360Y006309D01*
X039418Y006448D01*
X039418Y006599D01*
X039360Y006738D01*
X039328Y006770D01*
X039333Y006774D01*
X039375Y006836D01*
X039403Y006905D01*
X039418Y006978D01*
X039418Y007016D01*
X039418Y007053D01*
X039403Y007126D01*
X039375Y007195D01*
X039333Y007257D01*
X039281Y007310D01*
X039219Y007351D01*
X039150Y007380D01*
X039077Y007394D01*
X038841Y007394D01*
X038841Y007016D01*
X038841Y007016D01*
X038841Y007394D01*
X038605Y007394D01*
X038532Y007380D01*
X038463Y007351D01*
X038401Y007310D01*
X038349Y007257D01*
X038307Y007195D01*
X038279Y007126D01*
X038264Y007053D01*
X038264Y007016D01*
X038841Y007016D01*
X039418Y007016D01*
X038841Y007016D01*
X038841Y007016D01*
X038841Y007016D01*
X038264Y007016D01*
X038264Y006978D01*
X038279Y006905D01*
X038307Y006836D01*
X038349Y006774D01*
X038353Y006770D01*
X038322Y006738D01*
X038264Y006599D01*
X038264Y006448D01*
X038322Y006309D01*
X038353Y006277D01*
X038322Y006246D01*
X038264Y006107D01*
X038264Y006074D01*
X037783Y006556D01*
X036886Y006556D01*
X036876Y006566D01*
X036337Y006566D01*
X036232Y006460D01*
X036232Y004400D01*
X036337Y004294D01*
X036377Y004294D01*
X036377Y003311D01*
X037728Y001960D01*
X037840Y001848D02*
X028715Y001848D01*
X028794Y001689D02*
X040098Y001689D01*
X040098Y001531D02*
X028810Y001531D01*
X028773Y001372D02*
X040098Y001372D01*
X040098Y001214D02*
X028666Y001214D01*
X028000Y001214D02*
X027666Y001214D01*
X027773Y001372D02*
X027893Y001372D01*
X027856Y001531D02*
X027810Y001531D01*
X027794Y001689D02*
X027872Y001689D01*
X027951Y001848D02*
X027715Y001848D01*
X027962Y002078D02*
X028704Y002078D01*
X028810Y002184D01*
X028810Y002926D01*
X028704Y003032D01*
X027962Y003032D01*
X027856Y002926D01*
X027856Y002184D01*
X027962Y002078D01*
X027875Y002165D02*
X027617Y002165D01*
X027753Y002323D02*
X027856Y002323D01*
X027856Y002482D02*
X027810Y002482D01*
X027810Y002640D02*
X027856Y002640D01*
X027856Y002799D02*
X027748Y002799D01*
X027887Y002957D02*
X027605Y002957D01*
X028779Y002957D02*
X029744Y002957D01*
X029744Y002799D02*
X028810Y002799D01*
X028810Y002640D02*
X029748Y002640D01*
X029829Y002482D02*
X028810Y002482D01*
X028810Y002323D02*
X037365Y002323D01*
X037523Y002165D02*
X028791Y002165D01*
X029744Y003116D02*
X004619Y003116D01*
X004609Y003274D02*
X029776Y003274D01*
X029853Y003433D02*
X004652Y003433D01*
X004626Y003591D02*
X029853Y003591D01*
X029853Y003750D02*
X004853Y003750D01*
X005011Y003908D02*
X029853Y003908D01*
X029853Y004067D02*
X005170Y004067D01*
X005328Y004225D02*
X029853Y004225D01*
X029853Y004384D02*
X005487Y004384D01*
X005645Y004542D02*
X029853Y004542D01*
X029903Y004701D02*
X005804Y004701D01*
X005962Y004859D02*
X029957Y004859D01*
X029947Y005018D02*
X006121Y005018D01*
X006279Y005176D02*
X029947Y005176D01*
X029947Y005335D02*
X006438Y005335D01*
X006778Y005493D02*
X008320Y005493D01*
X008161Y005652D02*
X006809Y005652D01*
X006809Y005810D02*
X008003Y005810D01*
X007978Y005969D02*
X006809Y005969D01*
X006809Y006127D02*
X007978Y006127D01*
X007978Y006286D02*
X006809Y006286D01*
X006809Y006444D02*
X008022Y006444D01*
X008180Y006603D02*
X006809Y006603D01*
X006809Y006761D02*
X008357Y006761D01*
X008357Y006920D02*
X006809Y006920D01*
X006809Y007078D02*
X008357Y007078D01*
X008357Y007237D02*
X006809Y007237D01*
X006809Y007395D02*
X008357Y007395D01*
X008357Y007554D02*
X006809Y007554D01*
X009101Y005810D02*
X009688Y005810D01*
X009107Y005652D02*
X031786Y005652D01*
X031628Y005810D02*
X024485Y005810D01*
X024522Y005969D02*
X031469Y005969D01*
X031311Y006127D02*
X024522Y006127D01*
X024522Y006286D02*
X031152Y006286D01*
X030994Y006444D02*
X029748Y006444D01*
X029168Y006444D02*
X024522Y006444D01*
X024522Y006603D02*
X029080Y006603D01*
X029080Y006761D02*
X024522Y006761D01*
X023724Y007237D02*
X029947Y007237D01*
X029947Y007395D02*
X023566Y007395D01*
X023407Y007554D02*
X029947Y007554D01*
X029947Y007712D02*
X023249Y007712D01*
X023090Y007871D02*
X030080Y007871D01*
X030080Y008029D02*
X028703Y008029D01*
X028862Y008188D02*
X030080Y008188D01*
X030098Y008346D02*
X029020Y008346D01*
X029179Y008505D02*
X030915Y008505D01*
X030981Y008346D02*
X030818Y008346D01*
X030836Y008188D02*
X030981Y008188D01*
X030981Y008029D02*
X030836Y008029D01*
X030929Y007871D02*
X030981Y007871D01*
X030955Y007712D02*
X030955Y007712D01*
X030955Y007554D02*
X030955Y007554D01*
X031697Y007829D02*
X031697Y008599D01*
X031768Y008599D01*
X031873Y008705D01*
X031873Y009275D01*
X032127Y009275D01*
X032127Y009120D01*
X032233Y009015D01*
X032303Y009015D01*
X032303Y005785D01*
X031388Y006700D01*
X031553Y006700D01*
X031688Y006835D01*
X031932Y007079D01*
X031979Y007079D01*
X032062Y007079D01*
X032108Y007091D01*
X032149Y007115D01*
X032183Y007148D01*
X032206Y007189D01*
X032219Y007235D01*
X032219Y007454D01*
X032219Y007672D01*
X032206Y007718D01*
X032183Y007759D01*
X032149Y007793D01*
X032108Y007816D01*
X032062Y007829D01*
X031979Y007829D01*
X031979Y007454D01*
X031979Y007454D01*
X032219Y007454D01*
X031979Y007454D01*
X031979Y007454D01*
X031979Y007829D01*
X031895Y007829D01*
X031865Y007821D01*
X031857Y007829D01*
X031697Y007829D01*
X031697Y007871D02*
X032303Y007871D01*
X032303Y008029D02*
X031697Y008029D01*
X031697Y008188D02*
X032303Y008188D01*
X032303Y008346D02*
X031697Y008346D01*
X031697Y008505D02*
X032303Y008505D01*
X032303Y008663D02*
X031831Y008663D01*
X031873Y008822D02*
X032303Y008822D01*
X032303Y008980D02*
X031873Y008980D01*
X031873Y009139D02*
X032127Y009139D01*
X032863Y009015D02*
X032863Y008577D01*
X032941Y008655D01*
X033602Y008655D01*
X033646Y008612D01*
X033653Y008619D01*
X033694Y008643D01*
X033740Y008655D01*
X033972Y008655D01*
X033972Y008228D01*
X034068Y008228D01*
X034455Y008228D01*
X034455Y008499D01*
X034443Y008545D01*
X034420Y008586D01*
X034386Y008619D01*
X034345Y008643D01*
X034299Y008655D01*
X034068Y008655D01*
X034068Y008228D01*
X034068Y008132D01*
X034455Y008132D01*
X034455Y007861D01*
X034443Y007815D01*
X034420Y007774D01*
X034386Y007741D01*
X034345Y007717D01*
X034299Y007705D01*
X034068Y007705D01*
X034068Y008132D01*
X033972Y008132D01*
X033972Y007705D01*
X033740Y007705D01*
X033694Y007717D01*
X033653Y007741D01*
X033646Y007748D01*
X033602Y007705D01*
X032941Y007705D01*
X032863Y007783D01*
X032863Y006720D01*
X033433Y006720D01*
X033539Y006615D01*
X033539Y006193D01*
X033688Y006044D01*
X033934Y006044D01*
X033934Y006070D01*
X034309Y006070D01*
X034309Y006326D01*
X034309Y006326D01*
X033934Y006326D01*
X033934Y006409D01*
X033947Y006455D01*
X033970Y006496D01*
X034004Y006530D01*
X034045Y006553D01*
X034091Y006566D01*
X034309Y006566D01*
X034309Y006326D01*
X034309Y006326D01*
X034309Y006566D01*
X034528Y006566D01*
X034574Y006553D01*
X034615Y006530D01*
X034648Y006496D01*
X034672Y006455D01*
X034684Y006409D01*
X034684Y006326D01*
X034309Y006326D01*
X033934Y006326D01*
X033934Y006242D01*
X033946Y006198D01*
X033934Y006153D01*
X033934Y006070D01*
X034309Y006070D01*
X034309Y006070D01*
X034309Y006070D01*
X034309Y006086D01*
X034309Y006326D01*
X034309Y006326D01*
X034309Y006326D01*
X034684Y006326D01*
X034684Y006242D01*
X034672Y006198D01*
X034684Y006153D01*
X034684Y006070D01*
X034309Y006070D01*
X034309Y006070D01*
X034684Y006070D01*
X034684Y005986D01*
X034676Y005956D01*
X034684Y005948D01*
X034684Y005423D01*
X034676Y005415D01*
X034684Y005386D01*
X034684Y005302D01*
X034309Y005302D01*
X033934Y005302D01*
X033934Y005276D01*
X033539Y005276D01*
X033539Y005328D01*
X033934Y005328D01*
X033934Y005302D01*
X034309Y005302D01*
X034309Y005302D01*
X034309Y005302D01*
X034684Y005302D01*
X034684Y005218D01*
X034676Y005189D01*
X034684Y005181D01*
X034684Y005035D01*
X034728Y005035D01*
X034728Y006552D01*
X034685Y006552D01*
X034580Y006657D01*
X034580Y007203D01*
X034685Y007308D01*
X034728Y007308D01*
X034728Y008935D01*
X034684Y008935D01*
X034684Y008775D01*
X034579Y008669D01*
X034040Y008669D01*
X033934Y008775D01*
X033934Y008880D01*
X033856Y008802D01*
X033310Y008802D01*
X033205Y008907D01*
X033205Y009453D01*
X033310Y009558D01*
X033636Y009558D01*
X033729Y009651D01*
X033934Y009651D01*
X033934Y009677D01*
X034309Y009677D01*
X034309Y009677D01*
X033934Y009677D01*
X033934Y009703D01*
X033200Y009703D01*
X033039Y009542D01*
X033039Y009120D01*
X032933Y009015D01*
X032863Y009015D01*
X032863Y008980D02*
X033205Y008980D01*
X033205Y009139D02*
X033039Y009139D01*
X033039Y009297D02*
X033205Y009297D01*
X033208Y009456D02*
X033039Y009456D01*
X033111Y009614D02*
X033692Y009614D01*
X034309Y009677D02*
X034309Y009677D01*
X034684Y009677D01*
X034684Y009593D01*
X034676Y009564D01*
X034684Y009556D01*
X034684Y009395D01*
X034728Y009395D01*
X034728Y009703D01*
X034684Y009703D01*
X034684Y009677D01*
X034309Y009677D01*
X034684Y009614D02*
X034728Y009614D01*
X034728Y009456D02*
X034684Y009456D01*
X035188Y009456D02*
X036232Y009456D01*
X036232Y009614D02*
X035188Y009614D01*
X035188Y009773D02*
X036232Y009773D01*
X036232Y009931D02*
X035188Y009931D01*
X035188Y010090D02*
X036232Y010090D01*
X036232Y010248D02*
X035188Y010248D01*
X035188Y010407D02*
X036232Y010407D01*
X036232Y010565D02*
X035188Y010565D01*
X035188Y010724D02*
X036232Y010724D01*
X036232Y010835D02*
X036232Y008775D01*
X036337Y008669D01*
X036876Y008669D01*
X036886Y008679D01*
X038397Y008679D01*
X038428Y008649D01*
X038567Y008591D01*
X039115Y008591D01*
X039254Y008649D01*
X039360Y008755D01*
X039418Y008894D01*
X039418Y009045D01*
X039360Y009184D01*
X039328Y009215D01*
X039360Y009247D01*
X039418Y009386D01*
X039418Y009537D01*
X039360Y009676D01*
X039328Y009708D01*
X039360Y009739D01*
X039418Y009878D01*
X039418Y010029D01*
X039360Y010168D01*
X039328Y010200D01*
X039360Y010231D01*
X039418Y010370D01*
X039418Y010521D01*
X039360Y010660D01*
X039328Y010692D01*
X039360Y010724D01*
X040098Y010724D01*
X040098Y010882D02*
X039418Y010882D01*
X039418Y010863D02*
X039418Y011013D01*
X039360Y011152D01*
X039328Y011184D01*
X039360Y011216D01*
X039418Y011355D01*
X039418Y011505D01*
X039360Y011644D01*
X039328Y011676D01*
X039360Y011708D01*
X039418Y011847D01*
X039418Y011997D01*
X039360Y012136D01*
X039328Y012168D01*
X039360Y012200D01*
X039418Y012339D01*
X039418Y012490D01*
X039360Y012629D01*
X039328Y012660D01*
X039360Y012692D01*
X039418Y012831D01*
X039418Y012982D01*
X039360Y013121D01*
X039328Y013152D01*
X039360Y013184D01*
X039418Y013323D01*
X039418Y013474D01*
X039360Y013613D01*
X039328Y013645D01*
X039333Y013649D01*
X039375Y013711D01*
X039403Y013780D01*
X039418Y013853D01*
X039418Y013891D01*
X039418Y013928D01*
X039403Y014001D01*
X039375Y014070D01*
X039333Y014132D01*
X039281Y014185D01*
X039219Y014226D01*
X039150Y014255D01*
X039077Y014269D01*
X038841Y014269D01*
X038841Y013891D01*
X038841Y013891D01*
X038841Y014269D01*
X038605Y014269D01*
X038532Y014255D01*
X038463Y014226D01*
X038401Y014185D01*
X038349Y014132D01*
X038307Y014070D01*
X038279Y014001D01*
X038264Y013928D01*
X038264Y013891D01*
X038841Y013891D01*
X039418Y013891D01*
X038841Y013891D01*
X038841Y013891D01*
X038841Y013891D01*
X038264Y013891D01*
X038264Y013853D01*
X038279Y013780D01*
X038307Y013711D01*
X038349Y013649D01*
X038353Y013645D01*
X038322Y013613D01*
X038264Y013474D01*
X038264Y013323D01*
X038322Y013184D01*
X038353Y013152D01*
X038322Y013121D01*
X038264Y012982D01*
X038264Y012831D01*
X038322Y012692D01*
X038353Y012660D01*
X038113Y012660D01*
X037978Y012525D01*
X036393Y010941D01*
X036337Y010941D01*
X036232Y010835D01*
X036279Y010882D02*
X035188Y010882D01*
X035188Y011041D02*
X036493Y011041D01*
X036652Y011199D02*
X035188Y011199D01*
X035188Y011358D02*
X036810Y011358D01*
X036969Y011516D02*
X035188Y011516D01*
X035188Y011675D02*
X037127Y011675D01*
X037286Y011833D02*
X035188Y011833D01*
X035188Y011992D02*
X037444Y011992D01*
X037603Y012150D02*
X035188Y012150D01*
X035188Y012309D02*
X037761Y012309D01*
X037920Y012467D02*
X035188Y012467D01*
X035188Y012626D02*
X038078Y012626D01*
X038284Y012784D02*
X035188Y012784D01*
X035188Y012943D02*
X038264Y012943D01*
X038314Y013101D02*
X035188Y013101D01*
X035188Y013260D02*
X038290Y013260D01*
X038264Y013418D02*
X035188Y013418D01*
X035188Y013577D02*
X038307Y013577D01*
X038297Y013735D02*
X035188Y013735D01*
X035188Y013894D02*
X038264Y013894D01*
X038300Y014052D02*
X035188Y014052D01*
X035188Y014211D02*
X038440Y014211D01*
X038841Y014211D02*
X038841Y014211D01*
X038841Y014052D02*
X038841Y014052D01*
X038841Y013894D02*
X038841Y013894D01*
X039242Y014211D02*
X040098Y014211D01*
X040098Y014369D02*
X035923Y014369D01*
X035961Y014528D02*
X040098Y014528D01*
X040098Y014686D02*
X035961Y014686D01*
X035961Y014845D02*
X040098Y014845D01*
X040098Y015003D02*
X035911Y015003D01*
X035813Y015162D02*
X040098Y015162D01*
X040098Y015320D02*
X035813Y015320D01*
X035813Y015479D02*
X037084Y015479D01*
X037113Y015450D02*
X038252Y015450D01*
X038303Y015399D01*
X038442Y015341D01*
X038990Y015341D01*
X039129Y015399D01*
X039235Y015505D01*
X039293Y015644D01*
X039293Y015795D01*
X039235Y015934D01*
X039203Y015965D01*
X039235Y015997D01*
X039293Y016136D01*
X039293Y016287D01*
X039235Y016426D01*
X039203Y016458D01*
X039235Y016489D01*
X039293Y016628D01*
X039293Y016779D01*
X039235Y016918D01*
X039203Y016950D01*
X039235Y016981D01*
X039293Y017120D01*
X039293Y017271D01*
X039235Y017410D01*
X039203Y017442D01*
X039235Y017474D01*
X039293Y017613D01*
X039293Y017763D01*
X039235Y017902D01*
X039203Y017934D01*
X039235Y017966D01*
X039293Y018105D01*
X039293Y018255D01*
X039235Y018394D01*
X039203Y018426D01*
X039235Y018458D01*
X039293Y018597D01*
X039293Y018747D01*
X039235Y018886D01*
X039203Y018918D01*
X039235Y018950D01*
X039293Y019089D01*
X039293Y019240D01*
X039235Y019379D01*
X039203Y019410D01*
X039235Y019442D01*
X039293Y019581D01*
X039293Y019732D01*
X039235Y019871D01*
X039203Y019902D01*
X039235Y019934D01*
X039293Y020073D01*
X039293Y020224D01*
X039235Y020363D01*
X039203Y020395D01*
X039208Y020399D01*
X039250Y020461D01*
X039278Y020530D01*
X039293Y020603D01*
X039293Y020641D01*
X039293Y020678D01*
X039278Y020751D01*
X039250Y020820D01*
X039208Y020882D01*
X039156Y020935D01*
X039094Y020976D01*
X039025Y021005D01*
X038952Y021019D01*
X038716Y021019D01*
X038716Y020641D01*
X038716Y020641D01*
X038716Y021019D01*
X038480Y021019D01*
X038407Y021005D01*
X038338Y020976D01*
X038276Y020935D01*
X038224Y020882D01*
X038182Y020820D01*
X038154Y020751D01*
X038139Y020678D01*
X038139Y020641D01*
X038716Y020641D01*
X039293Y020641D01*
X038716Y020641D01*
X038716Y020641D01*
X038716Y020641D01*
X038139Y020641D01*
X038139Y020603D01*
X038154Y020530D01*
X038182Y020461D01*
X038224Y020399D01*
X038228Y020395D01*
X038197Y020363D01*
X038139Y020224D01*
X038139Y020073D01*
X038197Y019934D01*
X038228Y019902D01*
X038197Y019871D01*
X038139Y019732D01*
X038139Y019581D01*
X038197Y019442D01*
X038228Y019410D01*
X037988Y019410D01*
X037853Y019275D01*
X036768Y018191D01*
X036337Y018191D01*
X036232Y018085D01*
X036232Y016025D01*
X036337Y015919D01*
X036643Y015919D01*
X036978Y015585D01*
X037113Y015450D01*
X036926Y015637D02*
X035813Y015637D01*
X035813Y015796D02*
X036767Y015796D01*
X036303Y015954D02*
X035813Y015954D01*
X035813Y016113D02*
X036232Y016113D01*
X036232Y016271D02*
X035692Y016271D01*
X035534Y016430D02*
X036232Y016430D01*
X036232Y016588D02*
X035375Y016588D01*
X035217Y016747D02*
X036232Y016747D01*
X036232Y016905D02*
X035058Y016905D01*
X034684Y017064D02*
X036232Y017064D01*
X036232Y017222D02*
X034684Y017222D01*
X034684Y017381D02*
X036232Y017381D01*
X036232Y017539D02*
X035142Y017539D01*
X035301Y017698D02*
X036232Y017698D01*
X036232Y017856D02*
X035459Y017856D01*
X035618Y018015D02*
X036232Y018015D01*
X036320Y018173D02*
X035688Y018173D01*
X035836Y018332D02*
X036909Y018332D01*
X037068Y018490D02*
X035836Y018490D01*
X035836Y018649D02*
X037226Y018649D01*
X037385Y018807D02*
X035836Y018807D01*
X035080Y018807D02*
X034410Y018807D01*
X034252Y018649D02*
X035080Y018649D01*
X035080Y018490D02*
X034093Y018490D01*
X033935Y018332D02*
X035080Y018332D01*
X035126Y018173D02*
X034583Y018173D01*
X034684Y018015D02*
X034967Y018015D01*
X034309Y018015D02*
X034309Y018015D01*
X034309Y018173D02*
X034309Y018173D01*
X034036Y018173D02*
X033776Y018173D01*
X033712Y018108D02*
X035178Y019575D01*
X035313Y019710D01*
X035313Y020099D01*
X035365Y020150D01*
X035422Y020289D01*
X035422Y020837D01*
X035365Y020976D01*
X035258Y021082D01*
X035119Y021140D01*
X034968Y021140D01*
X034829Y021082D01*
X034798Y021050D01*
X034766Y021082D01*
X034627Y021140D01*
X034476Y021140D01*
X034337Y021082D01*
X034306Y021050D01*
X034274Y021082D01*
X034135Y021140D01*
X033984Y021140D01*
X033845Y021082D01*
X033813Y021050D01*
X033782Y021082D01*
X033643Y021140D01*
X033492Y021140D01*
X033353Y021082D01*
X033321Y021050D01*
X033290Y021082D01*
X033150Y021140D01*
X033000Y021140D01*
X032861Y021082D01*
X032829Y021050D01*
X032797Y021082D01*
X032658Y021140D01*
X032508Y021140D01*
X032369Y021082D01*
X032337Y021050D01*
X032305Y021082D01*
X032166Y021140D01*
X032016Y021140D01*
X031877Y021082D01*
X031845Y021050D01*
X031813Y021082D01*
X031674Y021140D01*
X031524Y021140D01*
X031384Y021082D01*
X031353Y021050D01*
X031321Y021082D01*
X031182Y021140D01*
X031031Y021140D01*
X030892Y021082D01*
X030861Y021050D01*
X030829Y021082D01*
X030690Y021140D01*
X030539Y021140D01*
X030400Y021082D01*
X030369Y021050D01*
X030364Y021055D01*
X030302Y021097D01*
X030233Y021125D01*
X030160Y021140D01*
X030122Y021140D01*
X030085Y021140D01*
X030012Y021125D01*
X029943Y021097D01*
X029881Y021055D01*
X029828Y021003D01*
X029787Y020941D01*
X029759Y020872D01*
X029744Y020799D01*
X029744Y020563D01*
X030122Y020563D01*
X030122Y020563D01*
X029744Y020563D01*
X029744Y020327D01*
X029759Y020254D01*
X029787Y020185D01*
X029828Y020123D01*
X029881Y020071D01*
X029943Y020029D01*
X030012Y020001D01*
X030085Y019986D01*
X030122Y019986D01*
X030122Y020563D01*
X030122Y021140D01*
X030122Y020563D01*
X030122Y020563D01*
X030122Y020563D01*
X030122Y019986D01*
X030160Y019986D01*
X030233Y020001D01*
X030302Y020029D01*
X030364Y020071D01*
X030369Y020075D01*
X030368Y020075D01*
X030369Y020075D02*
X030400Y020044D01*
X030539Y019986D01*
X030690Y019986D01*
X030829Y020044D01*
X030861Y020075D01*
X030860Y020075D01*
X030861Y020075D02*
X030892Y020044D01*
X031031Y019986D01*
X031182Y019986D01*
X031194Y019991D01*
X030457Y019255D01*
X030457Y018483D01*
X030447Y018473D01*
X030447Y017934D01*
X030553Y017829D01*
X032613Y017829D01*
X032719Y017934D01*
X032719Y017974D01*
X033577Y017974D01*
X033712Y018108D01*
X033618Y018015D02*
X033934Y018015D01*
X033937Y017856D02*
X033433Y017856D01*
X033461Y017698D02*
X033934Y017698D01*
X033492Y017539D02*
X033461Y017539D01*
X032733Y017856D02*
X032641Y017856D01*
X032705Y017698D02*
X025272Y017698D01*
X025272Y017856D02*
X030526Y017856D01*
X030447Y018015D02*
X025271Y018015D01*
X025272Y017539D02*
X032705Y017539D01*
X032583Y017381D02*
X025272Y017381D01*
X025272Y017222D02*
X032425Y017222D01*
X032266Y017064D02*
X025239Y017064D01*
X024506Y016905D02*
X029580Y016905D01*
X029580Y016747D02*
X024347Y016747D01*
X024189Y016588D02*
X029580Y016588D01*
X029580Y016430D02*
X024030Y016430D01*
X023872Y016271D02*
X029898Y016271D01*
X029830Y016113D02*
X023713Y016113D01*
X023555Y015954D02*
X029830Y015954D01*
X029830Y015796D02*
X023396Y015796D01*
X023134Y015150D02*
X027967Y015150D01*
X028353Y014764D01*
X028327Y014769D01*
X028091Y014769D01*
X028091Y014391D01*
X028091Y014391D01*
X028091Y014769D01*
X027855Y014769D01*
X027782Y014755D01*
X027713Y014726D01*
X027651Y014685D01*
X027599Y014632D01*
X027557Y014570D01*
X027529Y014501D01*
X027514Y014428D01*
X027514Y014391D01*
X028091Y014391D01*
X028668Y014391D01*
X028668Y014428D01*
X028662Y014455D01*
X030049Y013068D01*
X030152Y013025D01*
X031448Y013025D01*
X031448Y012628D01*
X031461Y012598D01*
X031461Y012310D01*
X031566Y012205D01*
X032227Y012205D01*
X032271Y012248D01*
X032278Y012241D01*
X032319Y012217D01*
X032365Y012205D01*
X032597Y012205D01*
X032597Y012632D01*
X032693Y012632D01*
X032693Y012728D01*
X033080Y012728D01*
X033080Y012999D01*
X033068Y013045D01*
X033045Y013086D01*
X033011Y013119D01*
X032970Y013143D01*
X032924Y013155D01*
X032693Y013155D01*
X032693Y012728D01*
X032597Y012728D01*
X032597Y013155D01*
X032365Y013155D01*
X032319Y013143D01*
X032278Y013119D01*
X032271Y013112D01*
X032227Y013155D01*
X031968Y013155D01*
X031968Y013169D01*
X032449Y013650D01*
X034014Y013650D01*
X034117Y013693D01*
X034260Y013836D01*
X034339Y013915D01*
X034382Y014018D01*
X034382Y014099D01*
X034393Y014099D01*
X034498Y014205D01*
X034498Y014905D01*
X034393Y015011D01*
X034332Y015011D01*
X034332Y015132D01*
X034286Y015177D01*
X034606Y015177D01*
X034711Y015282D01*
X034711Y015325D01*
X034728Y015325D01*
X034728Y010675D01*
X034684Y010675D01*
X034684Y010835D01*
X034579Y010941D01*
X034040Y010941D01*
X033934Y010835D01*
X033934Y010419D01*
X033039Y010419D01*
X033039Y010490D01*
X032933Y010595D01*
X032233Y010595D01*
X032127Y010490D01*
X032127Y009908D01*
X032200Y009835D01*
X031031Y009835D01*
X031031Y010455D01*
X031102Y010455D01*
X031146Y010498D01*
X031153Y010491D01*
X031194Y010467D01*
X031240Y010455D01*
X031472Y010455D01*
X031472Y010882D01*
X031568Y010882D01*
X031568Y010978D01*
X031955Y010978D01*
X031955Y011249D01*
X031943Y011295D01*
X031920Y011336D01*
X031886Y011369D01*
X031845Y011393D01*
X031799Y011405D01*
X031568Y011405D01*
X031568Y010978D01*
X031472Y010978D01*
X031472Y011405D01*
X031240Y011405D01*
X031194Y011393D01*
X031153Y011369D01*
X031146Y011362D01*
X031102Y011405D01*
X030441Y011405D01*
X030336Y011300D01*
X030336Y010560D01*
X030441Y010455D01*
X030511Y010455D01*
X030511Y009753D01*
X030471Y009714D01*
X030452Y009695D01*
X030409Y009592D01*
X030409Y009511D01*
X030398Y009511D01*
X030293Y009405D01*
X030293Y009335D01*
X029277Y009335D01*
X029174Y009292D01*
X028342Y008460D01*
X022501Y008460D01*
X020690Y010271D01*
X020789Y010370D01*
X020789Y010431D01*
X021535Y010431D01*
X021678Y010575D01*
X022184Y010575D01*
X022184Y010552D01*
X022184Y010526D01*
X022104Y010526D01*
X021886Y010308D01*
X021560Y010308D01*
X021455Y010203D01*
X021455Y009657D01*
X021560Y009552D01*
X022106Y009552D01*
X022194Y009640D01*
X022290Y009544D01*
X022829Y009544D01*
X022934Y009650D01*
X022934Y009753D01*
X023228Y009460D01*
X023228Y009433D01*
X022935Y009433D01*
X022830Y009328D01*
X022830Y008782D01*
X022935Y008677D01*
X023481Y008677D01*
X023586Y008782D01*
X023586Y009108D01*
X023688Y009210D01*
X023688Y009650D01*
X023553Y009785D01*
X023068Y010270D01*
X022934Y010270D01*
X022934Y010431D01*
X022926Y010439D01*
X022934Y010468D01*
X022934Y010552D01*
X022559Y010552D01*
X022184Y010552D01*
X022559Y010552D01*
X022559Y010552D01*
X022559Y010552D01*
X022934Y010552D01*
X022934Y010636D01*
X022926Y010665D01*
X022934Y010673D01*
X022934Y011710D01*
X022829Y011816D01*
X022290Y011816D01*
X022281Y011807D01*
X021211Y012877D01*
X021211Y013203D01*
X021106Y013308D01*
X020909Y013308D01*
X022546Y014946D01*
X023722Y013770D01*
X023800Y013692D01*
X023903Y013649D01*
X024453Y013649D01*
X024550Y013552D01*
X024580Y013552D01*
X024555Y013546D01*
X024514Y013522D01*
X024480Y013488D01*
X024457Y013447D01*
X024444Y013402D01*
X024444Y013199D01*
X024882Y013199D01*
X024882Y013163D01*
X024918Y013163D01*
X024918Y012804D01*
X025199Y012804D01*
X025218Y012809D01*
X025206Y012782D01*
X025189Y012752D01*
X025185Y012731D01*
X025180Y012718D01*
X025064Y012718D01*
X025021Y012674D01*
X025013Y012682D01*
X024972Y012706D01*
X024926Y012718D01*
X024695Y012718D01*
X024695Y012290D01*
X024599Y012290D01*
X024599Y012195D01*
X024211Y012195D01*
X024211Y011924D01*
X024223Y011878D01*
X024247Y011837D01*
X024280Y011803D01*
X024321Y011779D01*
X024367Y011767D01*
X024539Y011767D01*
X024482Y011710D01*
X024482Y009650D01*
X024587Y009544D01*
X025126Y009544D01*
X025136Y009554D01*
X026758Y009554D01*
X026978Y009335D01*
X027113Y009200D01*
X027627Y009200D01*
X027678Y009149D01*
X027817Y009091D01*
X028365Y009091D01*
X028504Y009149D01*
X028610Y009255D01*
X028668Y009394D01*
X028668Y009545D01*
X028610Y009684D01*
X028578Y009715D01*
X028610Y009747D01*
X028668Y009886D01*
X028668Y010037D01*
X028610Y010176D01*
X028578Y010208D01*
X028610Y010239D01*
X028668Y010378D01*
X028668Y010529D01*
X028610Y010668D01*
X028578Y010700D01*
X028610Y010731D01*
X028668Y010870D01*
X028668Y011021D01*
X028610Y011160D01*
X028578Y011192D01*
X028610Y011224D01*
X028668Y011363D01*
X028668Y011513D01*
X028610Y011652D01*
X028578Y011684D01*
X028610Y011716D01*
X028668Y011855D01*
X028668Y012005D01*
X028610Y012144D01*
X028578Y012176D01*
X028610Y012208D01*
X028668Y012347D01*
X028668Y012497D01*
X028610Y012636D01*
X028578Y012668D01*
X028610Y012700D01*
X028668Y012839D01*
X028668Y012990D01*
X028610Y013129D01*
X028578Y013160D01*
X028610Y013192D01*
X028668Y013331D01*
X028668Y013482D01*
X028610Y013621D01*
X028578Y013652D01*
X028610Y013684D01*
X028668Y013823D01*
X028668Y013974D01*
X028610Y014113D01*
X028578Y014145D01*
X028583Y014149D01*
X028625Y014211D01*
X028653Y014280D01*
X028668Y014353D01*
X028668Y014391D01*
X028091Y014391D01*
X028091Y014391D01*
X028091Y014391D01*
X027514Y014391D01*
X027514Y014353D01*
X027529Y014280D01*
X027557Y014211D01*
X027599Y014149D01*
X027603Y014145D01*
X027572Y014113D01*
X027514Y013974D01*
X027514Y013823D01*
X027571Y013686D01*
X026222Y013686D01*
X026222Y013826D01*
X026116Y013932D01*
X025416Y013932D01*
X025356Y013871D01*
X025356Y014200D01*
X025250Y014306D01*
X024550Y014306D01*
X024453Y014209D01*
X024075Y014209D01*
X023134Y015150D01*
X023281Y015003D02*
X028114Y015003D01*
X028273Y014845D02*
X023440Y014845D01*
X023598Y014686D02*
X027653Y014686D01*
X027540Y014528D02*
X023757Y014528D01*
X023915Y014369D02*
X027514Y014369D01*
X027558Y014211D02*
X025345Y014211D01*
X025356Y014052D02*
X027547Y014052D01*
X027514Y013894D02*
X026155Y013894D01*
X026222Y013735D02*
X027551Y013735D01*
X028091Y014528D02*
X028091Y014528D01*
X028091Y014686D02*
X028091Y014686D01*
X028668Y014369D02*
X028748Y014369D01*
X028624Y014211D02*
X028907Y014211D01*
X029065Y014052D02*
X028635Y014052D01*
X028668Y013894D02*
X029224Y013894D01*
X029382Y013735D02*
X028631Y013735D01*
X028628Y013577D02*
X029541Y013577D01*
X029699Y013418D02*
X028668Y013418D01*
X028638Y013260D02*
X029858Y013260D01*
X030016Y013101D02*
X028622Y013101D01*
X028668Y012943D02*
X031448Y012943D01*
X031448Y012784D02*
X028645Y012784D01*
X028615Y012626D02*
X031449Y012626D01*
X031461Y012467D02*
X028668Y012467D01*
X028652Y012309D02*
X031462Y012309D01*
X031708Y012680D02*
X031708Y013305D01*
X032059Y013260D02*
X034728Y013260D01*
X034728Y013418D02*
X032217Y013418D01*
X032376Y013577D02*
X034728Y013577D01*
X034728Y013735D02*
X034159Y013735D01*
X034318Y013894D02*
X034728Y013894D01*
X034728Y014052D02*
X034382Y014052D01*
X034498Y014211D02*
X034728Y014211D01*
X034728Y014369D02*
X034498Y014369D01*
X034498Y014528D02*
X034728Y014528D01*
X034728Y014686D02*
X034498Y014686D01*
X034498Y014845D02*
X034728Y014845D01*
X034728Y015003D02*
X034400Y015003D01*
X034302Y015162D02*
X034728Y015162D01*
X034711Y015320D02*
X034728Y015320D01*
X035188Y015320D02*
X035353Y015320D01*
X035353Y015162D02*
X035188Y015162D01*
X035188Y015003D02*
X035255Y015003D01*
X035205Y014845D02*
X035188Y014845D01*
X035188Y014686D02*
X035205Y014686D01*
X035188Y014528D02*
X035205Y014528D01*
X035188Y014369D02*
X035243Y014369D01*
X035188Y015479D02*
X035353Y015479D01*
X035353Y015637D02*
X035188Y015637D01*
X035188Y015796D02*
X035353Y015796D01*
X035353Y015954D02*
X035188Y015954D01*
X035188Y016113D02*
X035200Y016113D01*
X032108Y016905D02*
X030808Y016905D01*
X030967Y016747D02*
X031993Y016747D01*
X031993Y016588D02*
X031125Y016588D01*
X031188Y016430D02*
X031993Y016430D01*
X031711Y016271D02*
X031711Y016271D01*
X031711Y016113D02*
X031711Y016113D01*
X031711Y015954D02*
X031711Y015954D01*
X030978Y015479D02*
X028431Y015479D01*
X028272Y015637D02*
X029850Y015637D01*
X030978Y015320D02*
X028589Y015320D01*
X028748Y015162D02*
X030978Y015162D01*
X030978Y015003D02*
X028906Y015003D01*
X029065Y014845D02*
X030978Y014845D01*
X030978Y014686D02*
X029223Y014686D01*
X029382Y014528D02*
X030978Y014528D01*
X030918Y014369D02*
X029540Y014369D01*
X029699Y014211D02*
X030918Y014211D01*
X030918Y014052D02*
X029857Y014052D01*
X030016Y013894D02*
X030918Y013894D01*
X030918Y013735D02*
X030174Y013735D01*
X031708Y012680D02*
X031897Y012680D01*
X032597Y012626D02*
X032693Y012626D01*
X032693Y012632D02*
X032693Y012205D01*
X032924Y012205D01*
X032970Y012217D01*
X033011Y012241D01*
X033045Y012274D01*
X033068Y012315D01*
X033080Y012361D01*
X033080Y012632D01*
X032693Y012632D01*
X032693Y012784D02*
X032597Y012784D01*
X032597Y012943D02*
X032693Y012943D01*
X032693Y013101D02*
X032597Y013101D01*
X033029Y013101D02*
X034728Y013101D01*
X034728Y012943D02*
X033080Y012943D01*
X033080Y012784D02*
X034728Y012784D01*
X034728Y012626D02*
X033080Y012626D01*
X033080Y012467D02*
X034728Y012467D01*
X034728Y012309D02*
X033064Y012309D01*
X032693Y012309D02*
X032597Y012309D01*
X032597Y012467D02*
X032693Y012467D01*
X031898Y011358D02*
X034728Y011358D01*
X034728Y011516D02*
X028667Y011516D01*
X028666Y011358D02*
X030393Y011358D01*
X030336Y011199D02*
X028586Y011199D01*
X028660Y011041D02*
X030336Y011041D01*
X030336Y010882D02*
X028668Y010882D01*
X028602Y010724D02*
X030336Y010724D01*
X030336Y010565D02*
X028653Y010565D01*
X028668Y010407D02*
X030511Y010407D01*
X030511Y010248D02*
X028614Y010248D01*
X028646Y010090D02*
X030511Y010090D01*
X030511Y009931D02*
X028668Y009931D01*
X028621Y009773D02*
X030511Y009773D01*
X030418Y009614D02*
X028639Y009614D01*
X028668Y009456D02*
X030343Y009456D01*
X030771Y009555D02*
X030771Y010930D01*
X030772Y010930D01*
X031472Y010882D02*
X031568Y010882D01*
X031955Y010882D01*
X033981Y010882D01*
X033934Y010724D02*
X031955Y010724D01*
X031955Y010611D02*
X031955Y010882D01*
X031955Y011041D02*
X034728Y011041D01*
X034728Y011199D02*
X031955Y011199D01*
X031568Y011199D02*
X031472Y011199D01*
X031472Y011041D02*
X031568Y011041D01*
X031568Y010882D02*
X031568Y010455D01*
X031799Y010455D01*
X031845Y010467D01*
X031886Y010491D01*
X031920Y010524D01*
X031943Y010565D01*
X032203Y010565D01*
X032127Y010407D02*
X031031Y010407D01*
X031031Y010248D02*
X032127Y010248D01*
X032127Y010090D02*
X031031Y010090D01*
X031031Y009931D02*
X032127Y009931D01*
X031943Y010565D02*
X031955Y010611D01*
X031568Y010565D02*
X031472Y010565D01*
X031472Y010724D02*
X031568Y010724D01*
X031568Y011358D02*
X031472Y011358D01*
X032963Y010565D02*
X033934Y010565D01*
X034684Y010724D02*
X034728Y010724D01*
X034728Y010882D02*
X034638Y010882D01*
X034728Y011675D02*
X028588Y011675D01*
X028659Y011833D02*
X034728Y011833D01*
X034728Y011992D02*
X028668Y011992D01*
X028605Y012150D02*
X034728Y012150D01*
X038353Y012660D02*
X038353Y012660D01*
X039361Y012626D02*
X040098Y012626D01*
X040098Y012784D02*
X039398Y012784D01*
X039418Y012943D02*
X040098Y012943D01*
X040098Y013101D02*
X039368Y013101D01*
X039391Y013260D02*
X040098Y013260D01*
X040098Y013418D02*
X039418Y013418D01*
X039375Y013577D02*
X040098Y013577D01*
X040098Y013735D02*
X039385Y013735D01*
X039418Y013894D02*
X040098Y013894D01*
X040098Y014052D02*
X039382Y014052D01*
X039209Y015479D02*
X040098Y015479D01*
X040098Y015637D02*
X039290Y015637D01*
X039292Y015796D02*
X040098Y015796D01*
X040098Y015954D02*
X039215Y015954D01*
X039283Y016113D02*
X040098Y016113D01*
X040098Y016271D02*
X039293Y016271D01*
X039232Y016430D02*
X040098Y016430D01*
X040098Y016588D02*
X039276Y016588D01*
X039293Y016747D02*
X040098Y016747D01*
X040098Y016905D02*
X039241Y016905D01*
X039269Y017064D02*
X040098Y017064D01*
X040098Y017222D02*
X039293Y017222D01*
X039247Y017381D02*
X040098Y017381D01*
X040098Y017539D02*
X039262Y017539D01*
X039293Y017698D02*
X040098Y017698D01*
X040098Y017856D02*
X039254Y017856D01*
X039255Y018015D02*
X040098Y018015D01*
X040098Y018173D02*
X039293Y018173D01*
X039261Y018332D02*
X040098Y018332D01*
X040098Y018490D02*
X039249Y018490D01*
X039293Y018649D02*
X040098Y018649D01*
X040098Y018807D02*
X039268Y018807D01*
X039242Y018966D02*
X040098Y018966D01*
X040098Y019124D02*
X039293Y019124D01*
X039275Y019283D02*
X040098Y019283D01*
X040098Y019441D02*
X039234Y019441D01*
X039293Y019600D02*
X040098Y019600D01*
X040098Y019758D02*
X039282Y019758D01*
X039218Y019917D02*
X040098Y019917D01*
X040098Y020075D02*
X039293Y020075D01*
X039289Y020234D02*
X040098Y020234D01*
X040098Y020392D02*
X039206Y020392D01*
X039282Y020551D02*
X040098Y020551D01*
X040098Y020709D02*
X039287Y020709D01*
X039218Y020868D02*
X040098Y020868D01*
X040098Y021026D02*
X035314Y021026D01*
X035409Y020868D02*
X038214Y020868D01*
X038145Y020709D02*
X035422Y020709D01*
X035422Y020551D02*
X038150Y020551D01*
X038226Y020392D02*
X035422Y020392D01*
X035399Y020234D02*
X038143Y020234D01*
X038139Y020075D02*
X035313Y020075D01*
X035313Y019917D02*
X038214Y019917D01*
X038150Y019758D02*
X035313Y019758D01*
X035203Y019600D02*
X038139Y019600D01*
X038198Y019441D02*
X035044Y019441D01*
X034886Y019283D02*
X037860Y019283D01*
X037702Y019124D02*
X034727Y019124D01*
X034569Y018966D02*
X037543Y018966D01*
X038228Y019410D02*
X038228Y019410D01*
X038716Y020709D02*
X038716Y020709D01*
X038716Y020868D02*
X038716Y020868D01*
X040098Y021185D02*
X028795Y021185D01*
X028798Y021189D02*
X028810Y021234D01*
X028810Y021537D01*
X028352Y021537D01*
X028352Y021573D01*
X028810Y021573D01*
X028810Y021876D01*
X028798Y021921D01*
X028774Y021962D01*
X028740Y021996D01*
X028699Y022020D01*
X028654Y022032D01*
X028351Y022032D01*
X028351Y021573D01*
X028315Y021573D01*
X028315Y021537D01*
X027856Y021537D01*
X027856Y021234D01*
X027868Y021189D01*
X027892Y021148D01*
X027926Y021114D01*
X027967Y021090D01*
X028013Y021078D01*
X028315Y021078D01*
X028315Y021537D01*
X028351Y021537D01*
X028351Y021078D01*
X028654Y021078D01*
X028699Y021090D01*
X028740Y021114D01*
X028774Y021148D01*
X028798Y021189D01*
X028810Y021343D02*
X040098Y021343D01*
X040098Y021502D02*
X028810Y021502D01*
X028810Y021660D02*
X040098Y021660D01*
X040098Y021819D02*
X028810Y021819D01*
X028759Y021977D02*
X040098Y021977D01*
X031119Y019917D02*
X017376Y019917D01*
X017376Y020075D02*
X029877Y020075D01*
X029767Y020234D02*
X028686Y020234D01*
X028697Y020244D02*
X028741Y020305D01*
X028775Y020372D01*
X028798Y020443D01*
X028810Y020517D01*
X028810Y020537D01*
X028352Y020537D01*
X028352Y020573D01*
X028810Y020573D01*
X028810Y020593D01*
X028798Y020667D01*
X028775Y020738D01*
X028741Y020805D01*
X028697Y020866D01*
X028644Y020919D01*
X028583Y020963D01*
X028516Y020997D01*
X028445Y021020D01*
X028371Y021032D01*
X028351Y021032D01*
X028351Y020573D01*
X028315Y020573D01*
X028315Y020537D01*
X028351Y020537D01*
X028351Y020078D01*
X028371Y020078D01*
X028445Y020090D01*
X028516Y020113D01*
X028583Y020147D01*
X028644Y020191D01*
X028697Y020244D01*
X028782Y020392D02*
X029744Y020392D01*
X029744Y020551D02*
X028352Y020551D01*
X028315Y020551D02*
X027352Y020551D01*
X027352Y020537D02*
X027352Y020573D01*
X027810Y020573D01*
X027810Y020593D01*
X027798Y020667D01*
X027775Y020738D01*
X027741Y020805D01*
X027697Y020866D01*
X027644Y020919D01*
X027583Y020963D01*
X027516Y020997D01*
X027445Y021020D01*
X027371Y021032D01*
X027351Y021032D01*
X027351Y020573D01*
X027315Y020573D01*
X027315Y020537D01*
X027351Y020537D01*
X027351Y020078D01*
X027371Y020078D01*
X027445Y020090D01*
X027516Y020113D01*
X027583Y020147D01*
X027644Y020191D01*
X027697Y020244D01*
X027741Y020305D01*
X027775Y020372D01*
X027798Y020443D01*
X027810Y020517D01*
X027810Y020537D01*
X027352Y020537D01*
X027315Y020537D02*
X027315Y020078D01*
X027296Y020078D01*
X027221Y020090D01*
X027150Y020113D01*
X027083Y020147D01*
X027022Y020191D01*
X026969Y020244D01*
X026925Y020305D01*
X026891Y020372D01*
X026868Y020443D01*
X026856Y020517D01*
X026856Y020537D01*
X027315Y020537D01*
X027315Y020551D02*
X026810Y020551D01*
X026856Y020573D02*
X027315Y020573D01*
X027315Y021032D01*
X027296Y021032D01*
X027221Y021020D01*
X027150Y020997D01*
X027083Y020963D01*
X027022Y020919D01*
X026969Y020866D01*
X026925Y020805D01*
X026891Y020738D01*
X026868Y020667D01*
X026856Y020593D01*
X026856Y020573D01*
X026810Y020650D02*
X026737Y020825D01*
X026603Y020959D01*
X026428Y021032D01*
X026238Y021032D01*
X026063Y020959D01*
X025929Y020825D01*
X025856Y020650D01*
X025856Y020460D01*
X025929Y020285D01*
X026063Y020151D01*
X026238Y020078D01*
X026428Y020078D01*
X026603Y020151D01*
X026737Y020285D01*
X026810Y020460D01*
X026810Y020650D01*
X026785Y020709D02*
X026882Y020709D01*
X026971Y020868D02*
X026695Y020868D01*
X026603Y021151D02*
X026428Y021078D01*
X026238Y021078D01*
X026063Y021151D01*
X025929Y021285D01*
X025856Y021460D01*
X025856Y021650D01*
X025929Y021825D01*
X026063Y021959D01*
X026238Y022032D01*
X026428Y022032D01*
X026603Y021959D01*
X026737Y021825D01*
X026810Y021650D01*
X026810Y021460D01*
X026737Y021285D01*
X026603Y021151D01*
X026637Y021185D02*
X027032Y021185D01*
X027022Y021191D02*
X027083Y021147D01*
X027150Y021113D01*
X027221Y021090D01*
X027296Y021078D01*
X027315Y021078D01*
X027315Y021537D01*
X027351Y021537D01*
X027351Y021078D01*
X027371Y021078D01*
X027445Y021090D01*
X027516Y021113D01*
X027583Y021147D01*
X027644Y021191D01*
X027697Y021244D01*
X027741Y021305D01*
X027775Y021372D01*
X027798Y021443D01*
X027810Y021517D01*
X027810Y021537D01*
X027352Y021537D01*
X027352Y021573D01*
X027810Y021573D01*
X027810Y021593D01*
X027798Y021667D01*
X027775Y021738D01*
X027741Y021805D01*
X027697Y021866D01*
X027644Y021919D01*
X027583Y021963D01*
X027516Y021997D01*
X027445Y022020D01*
X027371Y022032D01*
X027351Y022032D01*
X027351Y021573D01*
X027315Y021573D01*
X027315Y021537D01*
X026856Y021537D01*
X026856Y021517D01*
X026868Y021443D01*
X026891Y021372D01*
X026925Y021305D01*
X026969Y021244D01*
X027022Y021191D01*
X026906Y021343D02*
X026761Y021343D01*
X026810Y021502D02*
X026859Y021502D01*
X026856Y021573D02*
X027315Y021573D01*
X027315Y022032D01*
X027296Y022032D01*
X027221Y022020D01*
X027150Y021997D01*
X027083Y021963D01*
X027022Y021919D01*
X026969Y021866D01*
X026925Y021805D01*
X026891Y021738D01*
X026868Y021667D01*
X026856Y021593D01*
X026856Y021573D01*
X026867Y021660D02*
X026806Y021660D01*
X026740Y021819D02*
X026935Y021819D01*
X027111Y021977D02*
X026560Y021977D01*
X026106Y021977D02*
X025560Y021977D01*
X025603Y021959D02*
X025428Y022032D01*
X025238Y022032D01*
X025063Y021959D01*
X024929Y021825D01*
X024856Y021650D01*
X024856Y021460D01*
X024929Y021285D01*
X025063Y021151D01*
X025238Y021078D01*
X025428Y021078D01*
X025603Y021151D01*
X025737Y021285D01*
X025810Y021460D01*
X025810Y021650D01*
X025737Y021825D01*
X025603Y021959D01*
X025740Y021819D02*
X025926Y021819D01*
X025860Y021660D02*
X025806Y021660D01*
X025810Y021502D02*
X025856Y021502D01*
X025905Y021343D02*
X025761Y021343D01*
X025637Y021185D02*
X026029Y021185D01*
X026224Y021026D02*
X025442Y021026D01*
X025428Y021032D02*
X025238Y021032D01*
X025063Y020959D01*
X024929Y020825D01*
X024856Y020650D01*
X024856Y020460D01*
X024929Y020285D01*
X025063Y020151D01*
X025238Y020078D01*
X025428Y020078D01*
X025603Y020151D01*
X025737Y020285D01*
X025810Y020460D01*
X025810Y020650D01*
X025737Y020825D01*
X025603Y020959D01*
X025428Y021032D01*
X025224Y021026D02*
X024442Y021026D01*
X024428Y021032D02*
X024238Y021032D01*
X024063Y020959D01*
X023929Y020825D01*
X023856Y020650D01*
X023856Y020460D01*
X023929Y020285D01*
X024063Y020151D01*
X024238Y020078D01*
X024428Y020078D01*
X024603Y020151D01*
X024737Y020285D01*
X024810Y020460D01*
X024810Y020650D01*
X024737Y020825D01*
X024603Y020959D01*
X024428Y021032D01*
X024428Y021078D02*
X024603Y021151D01*
X024737Y021285D01*
X024810Y021460D01*
X024810Y021650D01*
X024737Y021825D01*
X024603Y021959D01*
X024428Y022032D01*
X024238Y022032D01*
X024063Y021959D01*
X023929Y021825D01*
X023856Y021650D01*
X023856Y021460D01*
X023929Y021285D01*
X024063Y021151D01*
X024238Y021078D01*
X024428Y021078D01*
X024224Y021026D02*
X023442Y021026D01*
X023428Y021032D02*
X023238Y021032D01*
X023063Y020959D01*
X022929Y020825D01*
X022856Y020650D01*
X022856Y020460D01*
X022929Y020285D01*
X023063Y020151D01*
X023238Y020078D01*
X023428Y020078D01*
X023603Y020151D01*
X023737Y020285D01*
X023810Y020460D01*
X023810Y020650D01*
X023737Y020825D01*
X023603Y020959D01*
X023428Y021032D01*
X023428Y021078D02*
X023603Y021151D01*
X023737Y021285D01*
X023810Y021460D01*
X023810Y021650D01*
X023737Y021825D01*
X023603Y021959D01*
X023428Y022032D01*
X023238Y022032D01*
X023063Y021959D01*
X022929Y021825D01*
X022856Y021650D01*
X022856Y021460D01*
X022929Y021285D01*
X023063Y021151D01*
X023238Y021078D01*
X023428Y021078D01*
X023224Y021026D02*
X022442Y021026D01*
X022428Y021032D02*
X022238Y021032D01*
X022063Y020959D01*
X021929Y020825D01*
X021856Y020650D01*
X021856Y020460D01*
X021929Y020285D01*
X022063Y020151D01*
X022238Y020078D01*
X022428Y020078D01*
X022603Y020151D01*
X022737Y020285D01*
X022810Y020460D01*
X022810Y020650D01*
X022737Y020825D01*
X022603Y020959D01*
X022428Y021032D01*
X022428Y021078D02*
X022603Y021151D01*
X022737Y021285D01*
X022810Y021460D01*
X022810Y021650D01*
X022737Y021825D01*
X022603Y021959D01*
X022428Y022032D01*
X022238Y022032D01*
X022063Y021959D01*
X021929Y021825D01*
X021856Y021650D01*
X021856Y021460D01*
X021929Y021285D01*
X022063Y021151D01*
X022238Y021078D01*
X022428Y021078D01*
X022224Y021026D02*
X021442Y021026D01*
X021428Y021032D02*
X021238Y021032D01*
X021063Y020959D01*
X020929Y020825D01*
X020856Y020650D01*
X020856Y020460D01*
X020929Y020285D01*
X021063Y020151D01*
X021238Y020078D01*
X021428Y020078D01*
X021603Y020151D01*
X021737Y020285D01*
X021810Y020460D01*
X021810Y020650D01*
X021737Y020825D01*
X021603Y020959D01*
X021428Y021032D01*
X021428Y021078D02*
X021603Y021151D01*
X021737Y021285D01*
X021810Y021460D01*
X021810Y021650D01*
X021737Y021825D01*
X021603Y021959D01*
X021428Y022032D01*
X021238Y022032D01*
X021063Y021959D01*
X020929Y021825D01*
X020856Y021650D01*
X020856Y021460D01*
X020929Y021285D01*
X021063Y021151D01*
X021238Y021078D01*
X021428Y021078D01*
X021224Y021026D02*
X020442Y021026D01*
X020428Y021032D02*
X020238Y021032D01*
X020063Y020959D01*
X019929Y020825D01*
X019856Y020650D01*
X019856Y020460D01*
X019929Y020285D01*
X020063Y020151D01*
X020238Y020078D01*
X020428Y020078D01*
X020603Y020151D01*
X020737Y020285D01*
X020810Y020460D01*
X020810Y020650D01*
X020737Y020825D01*
X020603Y020959D01*
X020428Y021032D01*
X020428Y021078D02*
X020603Y021151D01*
X020737Y021285D01*
X020810Y021460D01*
X020810Y021650D01*
X020737Y021825D01*
X020603Y021959D01*
X020428Y022032D01*
X020238Y022032D01*
X020063Y021959D01*
X019929Y021825D01*
X019856Y021650D01*
X019856Y021460D01*
X019929Y021285D01*
X020063Y021151D01*
X020238Y021078D01*
X020428Y021078D01*
X020224Y021026D02*
X019442Y021026D01*
X019428Y021032D02*
X019238Y021032D01*
X019063Y020959D01*
X018929Y020825D01*
X018856Y020650D01*
X018856Y020460D01*
X018929Y020285D01*
X019063Y020151D01*
X019238Y020078D01*
X019428Y020078D01*
X019603Y020151D01*
X019737Y020285D01*
X019810Y020460D01*
X019810Y020650D01*
X019737Y020825D01*
X019603Y020959D01*
X019428Y021032D01*
X019428Y021078D02*
X019603Y021151D01*
X019737Y021285D01*
X019810Y021460D01*
X019810Y021650D01*
X019737Y021825D01*
X019603Y021959D01*
X019428Y022032D01*
X019238Y022032D01*
X019063Y021959D01*
X018929Y021825D01*
X018856Y021650D01*
X018856Y021460D01*
X018929Y021285D01*
X019063Y021151D01*
X019238Y021078D01*
X019428Y021078D01*
X019224Y021026D02*
X018442Y021026D01*
X018428Y021032D02*
X018238Y021032D01*
X018063Y020959D01*
X017929Y020825D01*
X017856Y020650D01*
X017856Y020460D01*
X017929Y020285D01*
X018063Y020151D01*
X018238Y020078D01*
X018428Y020078D01*
X018603Y020151D01*
X018737Y020285D01*
X018810Y020460D01*
X018810Y020650D01*
X018737Y020825D01*
X018603Y020959D01*
X018428Y021032D01*
X018428Y021078D02*
X018603Y021151D01*
X018737Y021285D01*
X018810Y021460D01*
X018810Y021650D01*
X018737Y021825D01*
X018603Y021959D01*
X018428Y022032D01*
X018238Y022032D01*
X018063Y021959D01*
X017929Y021825D01*
X017856Y021650D01*
X017856Y021460D01*
X017929Y021285D01*
X018063Y021151D01*
X018238Y021078D01*
X018428Y021078D01*
X018224Y021026D02*
X017442Y021026D01*
X017224Y021026D02*
X017063Y021026D01*
X017637Y021185D02*
X018029Y021185D01*
X017905Y021343D02*
X017761Y021343D01*
X017810Y021502D02*
X017856Y021502D01*
X017860Y021660D02*
X017806Y021660D01*
X017740Y021819D02*
X017926Y021819D01*
X018106Y021977D02*
X017560Y021977D01*
X017106Y021977D02*
X017049Y021977D01*
X018560Y021977D02*
X019106Y021977D01*
X018926Y021819D02*
X018740Y021819D01*
X018806Y021660D02*
X018860Y021660D01*
X018856Y021502D02*
X018810Y021502D01*
X018761Y021343D02*
X018905Y021343D01*
X019029Y021185D02*
X018637Y021185D01*
X018695Y020868D02*
X018971Y020868D01*
X018881Y020709D02*
X018785Y020709D01*
X018810Y020551D02*
X018856Y020551D01*
X018884Y020392D02*
X018782Y020392D01*
X018686Y020234D02*
X018980Y020234D01*
X019686Y020234D02*
X019980Y020234D01*
X019884Y020392D02*
X019782Y020392D01*
X019810Y020551D02*
X019856Y020551D01*
X019881Y020709D02*
X019785Y020709D01*
X019695Y020868D02*
X019971Y020868D01*
X020029Y021185D02*
X019637Y021185D01*
X019761Y021343D02*
X019905Y021343D01*
X019856Y021502D02*
X019810Y021502D01*
X019806Y021660D02*
X019860Y021660D01*
X019926Y021819D02*
X019740Y021819D01*
X019560Y021977D02*
X020106Y021977D01*
X020560Y021977D02*
X021106Y021977D01*
X020926Y021819D02*
X020740Y021819D01*
X020806Y021660D02*
X020860Y021660D01*
X020856Y021502D02*
X020810Y021502D01*
X020761Y021343D02*
X020905Y021343D01*
X021029Y021185D02*
X020637Y021185D01*
X020695Y020868D02*
X020971Y020868D01*
X020881Y020709D02*
X020785Y020709D01*
X020810Y020551D02*
X020856Y020551D01*
X020884Y020392D02*
X020782Y020392D01*
X020686Y020234D02*
X020980Y020234D01*
X021686Y020234D02*
X021980Y020234D01*
X021884Y020392D02*
X021782Y020392D01*
X021810Y020551D02*
X021856Y020551D01*
X021881Y020709D02*
X021785Y020709D01*
X021695Y020868D02*
X021971Y020868D01*
X022029Y021185D02*
X021637Y021185D01*
X021761Y021343D02*
X021905Y021343D01*
X021856Y021502D02*
X021810Y021502D01*
X021806Y021660D02*
X021860Y021660D01*
X021926Y021819D02*
X021740Y021819D01*
X021560Y021977D02*
X022106Y021977D01*
X022560Y021977D02*
X023106Y021977D01*
X022926Y021819D02*
X022740Y021819D01*
X022806Y021660D02*
X022860Y021660D01*
X022856Y021502D02*
X022810Y021502D01*
X022761Y021343D02*
X022905Y021343D01*
X023029Y021185D02*
X022637Y021185D01*
X022695Y020868D02*
X022971Y020868D01*
X022881Y020709D02*
X022785Y020709D01*
X022810Y020551D02*
X022856Y020551D01*
X022884Y020392D02*
X022782Y020392D01*
X022686Y020234D02*
X022980Y020234D01*
X023686Y020234D02*
X023980Y020234D01*
X023884Y020392D02*
X023782Y020392D01*
X023810Y020551D02*
X023856Y020551D01*
X023881Y020709D02*
X023785Y020709D01*
X023695Y020868D02*
X023971Y020868D01*
X024029Y021185D02*
X023637Y021185D01*
X023761Y021343D02*
X023905Y021343D01*
X023856Y021502D02*
X023810Y021502D01*
X023806Y021660D02*
X023860Y021660D01*
X023926Y021819D02*
X023740Y021819D01*
X023560Y021977D02*
X024106Y021977D01*
X024560Y021977D02*
X025106Y021977D01*
X024926Y021819D02*
X024740Y021819D01*
X024806Y021660D02*
X024860Y021660D01*
X024856Y021502D02*
X024810Y021502D01*
X024761Y021343D02*
X024905Y021343D01*
X025029Y021185D02*
X024637Y021185D01*
X024695Y020868D02*
X024971Y020868D01*
X024881Y020709D02*
X024785Y020709D01*
X024810Y020551D02*
X024856Y020551D01*
X024884Y020392D02*
X024782Y020392D01*
X024686Y020234D02*
X024980Y020234D01*
X025686Y020234D02*
X025980Y020234D01*
X025884Y020392D02*
X025782Y020392D01*
X025810Y020551D02*
X025856Y020551D01*
X025881Y020709D02*
X025785Y020709D01*
X025695Y020868D02*
X025971Y020868D01*
X026442Y021026D02*
X027259Y021026D01*
X027315Y021026D02*
X027351Y021026D01*
X027407Y021026D02*
X028259Y021026D01*
X028296Y021032D02*
X028221Y021020D01*
X028150Y020997D01*
X028083Y020963D01*
X028022Y020919D01*
X027969Y020866D01*
X027925Y020805D01*
X027891Y020738D01*
X027868Y020667D01*
X027856Y020593D01*
X027856Y020573D01*
X028315Y020573D01*
X028315Y021032D01*
X028296Y021032D01*
X028315Y021026D02*
X028351Y021026D01*
X028407Y021026D02*
X029852Y021026D01*
X029758Y020868D02*
X028695Y020868D01*
X028784Y020709D02*
X029744Y020709D01*
X030122Y020709D02*
X030122Y020709D01*
X030122Y020551D02*
X030122Y020551D01*
X030122Y020392D02*
X030122Y020392D01*
X030122Y020234D02*
X030122Y020234D01*
X030122Y020075D02*
X030122Y020075D01*
X030802Y019600D02*
X017376Y019600D01*
X017376Y019758D02*
X030961Y019758D01*
X030644Y019441D02*
X017376Y019441D01*
X017376Y019283D02*
X030485Y019283D01*
X030457Y019124D02*
X017376Y019124D01*
X017376Y018966D02*
X030457Y018966D01*
X030457Y018807D02*
X017376Y018807D01*
X017376Y018649D02*
X030457Y018649D01*
X030457Y018490D02*
X017376Y018490D01*
X017376Y018332D02*
X030447Y018332D01*
X030447Y018173D02*
X017376Y018173D01*
X017376Y018015D02*
X024145Y018015D01*
X024144Y017856D02*
X017272Y017856D01*
X017113Y017698D02*
X024144Y017698D01*
X023994Y017539D02*
X017058Y017539D01*
X016963Y017381D02*
X023836Y017381D01*
X023677Y017222D02*
X016063Y017222D01*
X016063Y017064D02*
X023519Y017064D01*
X023360Y016905D02*
X016063Y016905D01*
X016063Y016747D02*
X023202Y016747D01*
X023043Y016588D02*
X016063Y016588D01*
X016063Y016430D02*
X022885Y016430D01*
X022726Y016271D02*
X016063Y016271D01*
X016063Y016113D02*
X022568Y016113D01*
X022409Y015954D02*
X016063Y015954D01*
X016063Y015796D02*
X022251Y015796D01*
X022092Y015637D02*
X016063Y015637D01*
X016063Y015479D02*
X021934Y015479D01*
X021775Y015320D02*
X016063Y015320D01*
X016063Y015162D02*
X021617Y015162D01*
X021458Y015003D02*
X016063Y015003D01*
X016063Y014845D02*
X021300Y014845D01*
X021141Y014686D02*
X016063Y014686D01*
X016063Y014528D02*
X020983Y014528D01*
X020824Y014369D02*
X016063Y014369D01*
X016063Y014211D02*
X020666Y014211D01*
X020507Y014052D02*
X016063Y014052D01*
X016063Y013894D02*
X016833Y013894D01*
X016767Y013735D02*
X016063Y013735D01*
X016289Y013577D02*
X016767Y013577D01*
X016683Y013418D02*
X016289Y013418D01*
X016289Y013260D02*
X016525Y013260D01*
X016366Y013101D02*
X016289Y013101D01*
X016208Y012943D02*
X016199Y012943D01*
X016541Y012626D02*
X019081Y012626D01*
X019239Y012784D02*
X016700Y012784D01*
X016858Y012943D02*
X019398Y012943D01*
X019556Y013101D02*
X017017Y013101D01*
X017501Y013260D02*
X019715Y013260D01*
X019873Y013418D02*
X017524Y013418D01*
X017524Y013577D02*
X020032Y013577D01*
X020190Y013735D02*
X017524Y013735D01*
X017458Y013894D02*
X020349Y013894D01*
X021019Y013418D02*
X024449Y013418D01*
X024444Y013260D02*
X021154Y013260D01*
X021211Y013101D02*
X024444Y013101D01*
X024444Y013163D02*
X024444Y012960D01*
X024457Y012915D01*
X024480Y012874D01*
X024514Y012840D01*
X024555Y012816D01*
X024601Y012804D01*
X024882Y012804D01*
X024882Y013163D01*
X024444Y013163D01*
X024449Y012943D02*
X021211Y012943D01*
X021304Y012784D02*
X025207Y012784D01*
X025352Y012946D02*
X025584Y013178D01*
X025416Y013178D01*
X025356Y013239D01*
X025356Y013199D01*
X024918Y013199D01*
X024918Y013163D01*
X025356Y013163D01*
X025356Y012960D01*
X025352Y012946D01*
X025356Y013101D02*
X025507Y013101D01*
X024918Y013101D02*
X024882Y013101D01*
X024882Y012943D02*
X024918Y012943D01*
X024695Y012626D02*
X024599Y012626D01*
X024599Y012718D02*
X024367Y012718D01*
X024321Y012706D01*
X024280Y012682D01*
X024247Y012648D01*
X024223Y012607D01*
X024211Y012561D01*
X024211Y012290D01*
X024599Y012290D01*
X024599Y012718D01*
X024599Y012467D02*
X024695Y012467D01*
X024695Y012309D02*
X024599Y012309D01*
X024211Y012309D02*
X021780Y012309D01*
X021621Y012467D02*
X024211Y012467D01*
X024233Y012626D02*
X021463Y012626D01*
X021938Y012150D02*
X024211Y012150D01*
X024211Y011992D02*
X022097Y011992D01*
X022255Y011833D02*
X024250Y011833D01*
X024482Y011675D02*
X022934Y011675D01*
X022934Y011516D02*
X024482Y011516D01*
X024482Y011358D02*
X022934Y011358D01*
X022934Y011199D02*
X024482Y011199D01*
X024482Y011041D02*
X022934Y011041D01*
X022934Y010882D02*
X024482Y010882D01*
X024482Y010724D02*
X022934Y010724D01*
X022934Y010565D02*
X024482Y010565D01*
X024482Y010407D02*
X022934Y010407D01*
X023090Y010248D02*
X024482Y010248D01*
X024482Y010090D02*
X023249Y010090D01*
X023407Y009931D02*
X024482Y009931D01*
X024482Y009773D02*
X023566Y009773D01*
X023688Y009614D02*
X024518Y009614D01*
X023688Y009456D02*
X026857Y009456D01*
X027016Y009297D02*
X023688Y009297D01*
X023617Y009139D02*
X027702Y009139D01*
X028479Y009139D02*
X029021Y009139D01*
X028862Y008980D02*
X023586Y008980D01*
X023586Y008822D02*
X028704Y008822D01*
X028545Y008663D02*
X022298Y008663D01*
X022456Y008505D02*
X028387Y008505D01*
X029337Y008663D02*
X030335Y008663D01*
X029186Y009297D02*
X028628Y009297D01*
X031979Y007712D02*
X031979Y007712D01*
X031979Y007554D02*
X031979Y007554D01*
X031979Y007454D02*
X031979Y007079D01*
X031979Y007454D01*
X031979Y007454D01*
X031979Y007395D02*
X031979Y007395D01*
X031979Y007237D02*
X031979Y007237D01*
X031931Y007078D02*
X032303Y007078D01*
X032303Y006920D02*
X031773Y006920D01*
X031614Y006761D02*
X032303Y006761D01*
X032303Y006603D02*
X031486Y006603D01*
X031644Y006444D02*
X032303Y006444D01*
X032303Y006286D02*
X031803Y006286D01*
X031961Y006127D02*
X032303Y006127D01*
X032303Y005969D02*
X032120Y005969D01*
X032278Y005810D02*
X032303Y005810D01*
X033539Y006286D02*
X033934Y006286D01*
X033944Y006444D02*
X033539Y006444D01*
X033539Y006603D02*
X034635Y006603D01*
X034675Y006444D02*
X034728Y006444D01*
X034728Y006286D02*
X034684Y006286D01*
X034684Y006127D02*
X034728Y006127D01*
X034728Y005969D02*
X034680Y005969D01*
X034684Y005810D02*
X034728Y005810D01*
X034728Y005652D02*
X034684Y005652D01*
X034684Y005493D02*
X034728Y005493D01*
X034728Y005335D02*
X034684Y005335D01*
X034684Y005176D02*
X034728Y005176D01*
X035188Y005176D02*
X036232Y005176D01*
X036232Y005018D02*
X035188Y005018D01*
X035188Y004859D02*
X036232Y004859D01*
X036232Y004701D02*
X035054Y004701D01*
X034684Y004542D02*
X036232Y004542D01*
X036248Y004384D02*
X034668Y004384D01*
X033951Y004384D02*
X033205Y004384D01*
X033046Y004542D02*
X033934Y004542D01*
X033934Y004701D02*
X033554Y004701D01*
X033363Y004225D02*
X036377Y004225D01*
X036377Y004067D02*
X033522Y004067D01*
X033680Y003908D02*
X036377Y003908D01*
X036377Y003750D02*
X033813Y003750D01*
X033813Y003591D02*
X036377Y003591D01*
X036377Y003433D02*
X035258Y003433D01*
X035390Y003274D02*
X036414Y003274D01*
X036572Y003116D02*
X035422Y003116D01*
X035422Y002957D02*
X036731Y002957D01*
X036889Y002799D02*
X035422Y002799D01*
X035413Y002640D02*
X037048Y002640D01*
X037206Y002482D02*
X035337Y002482D01*
X035044Y002482D02*
X035044Y002482D01*
X035044Y002640D02*
X035044Y002640D01*
X035044Y002799D02*
X035044Y002799D01*
X035044Y002957D02*
X035044Y002957D01*
X035044Y003116D02*
X035044Y003116D01*
X035044Y003274D02*
X035044Y003274D01*
X035044Y003433D02*
X035044Y003433D01*
X034829Y003433D02*
X034775Y003433D01*
X034328Y003433D02*
X034283Y003433D01*
X033836Y003433D02*
X033813Y003433D01*
X035188Y005335D02*
X036232Y005335D01*
X036232Y005493D02*
X035188Y005493D01*
X035188Y005652D02*
X036232Y005652D01*
X036232Y005810D02*
X035188Y005810D01*
X035188Y005969D02*
X036232Y005969D01*
X036232Y006127D02*
X035188Y006127D01*
X035188Y006286D02*
X036232Y006286D01*
X036232Y006444D02*
X035188Y006444D01*
X035281Y006603D02*
X038266Y006603D01*
X038266Y006444D02*
X037894Y006444D01*
X038053Y006286D02*
X038345Y006286D01*
X038273Y006127D02*
X038211Y006127D01*
X038345Y006761D02*
X035336Y006761D01*
X035336Y006920D02*
X038276Y006920D01*
X038269Y007078D02*
X035336Y007078D01*
X035302Y007237D02*
X038335Y007237D01*
X038841Y007237D02*
X038841Y007237D01*
X038841Y007078D02*
X038841Y007078D01*
X039347Y007237D02*
X040098Y007237D01*
X040098Y007395D02*
X035188Y007395D01*
X035188Y007554D02*
X040098Y007554D01*
X040098Y007712D02*
X035188Y007712D01*
X035188Y007871D02*
X040098Y007871D01*
X040098Y008029D02*
X035188Y008029D01*
X035188Y008188D02*
X040098Y008188D01*
X040098Y008346D02*
X035188Y008346D01*
X035188Y008505D02*
X040098Y008505D01*
X040098Y008663D02*
X039268Y008663D01*
X039388Y008822D02*
X040098Y008822D01*
X040098Y008980D02*
X039418Y008980D01*
X039379Y009139D02*
X040098Y009139D01*
X040098Y009297D02*
X039381Y009297D01*
X039418Y009456D02*
X040098Y009456D01*
X040098Y009614D02*
X039386Y009614D01*
X039374Y009773D02*
X040098Y009773D01*
X040098Y009931D02*
X039418Y009931D01*
X039393Y010090D02*
X040098Y010090D01*
X040098Y010248D02*
X039367Y010248D01*
X039418Y010407D02*
X040098Y010407D01*
X040098Y010565D02*
X039400Y010565D01*
X039360Y010724D02*
X039418Y010863D01*
X039406Y011041D02*
X040098Y011041D01*
X040098Y011199D02*
X039344Y011199D01*
X039418Y011358D02*
X040098Y011358D01*
X040098Y011516D02*
X039413Y011516D01*
X039330Y011675D02*
X040098Y011675D01*
X040098Y011833D02*
X039412Y011833D01*
X039418Y011992D02*
X040098Y011992D01*
X040098Y012150D02*
X039347Y012150D01*
X039405Y012309D02*
X040098Y012309D01*
X040098Y012467D02*
X039418Y012467D01*
X036232Y009297D02*
X035188Y009297D01*
X035188Y009139D02*
X036232Y009139D01*
X036232Y008980D02*
X035188Y008980D01*
X035188Y008822D02*
X036232Y008822D01*
X035188Y008663D02*
X038414Y008663D01*
X039413Y007078D02*
X040098Y007078D01*
X040098Y006920D02*
X039406Y006920D01*
X039337Y006761D02*
X040098Y006761D01*
X040098Y006603D02*
X039416Y006603D01*
X039416Y006444D02*
X040098Y006444D01*
X040098Y006286D02*
X039337Y006286D01*
X039409Y006127D02*
X040098Y006127D01*
X040098Y005969D02*
X039418Y005969D01*
X039353Y005810D02*
X040098Y005810D01*
X040098Y005652D02*
X039402Y005652D01*
X039418Y005493D02*
X040098Y005493D01*
X040098Y005335D02*
X039364Y005335D01*
X039396Y005176D02*
X040098Y005176D01*
X040098Y005018D02*
X039418Y005018D01*
X039371Y004859D02*
X040098Y004859D01*
X040098Y004701D02*
X039389Y004701D01*
X039418Y004542D02*
X040098Y004542D01*
X040098Y004384D02*
X039378Y004384D01*
X039382Y004225D02*
X040098Y004225D01*
X040098Y004067D02*
X039418Y004067D01*
X039385Y003908D02*
X040098Y003908D01*
X040098Y003750D02*
X039375Y003750D01*
X039418Y003591D02*
X040098Y003591D01*
X040098Y003433D02*
X039392Y003433D01*
X039368Y003274D02*
X040098Y003274D01*
X040098Y003116D02*
X039418Y003116D01*
X039399Y002957D02*
X040098Y002957D01*
X040098Y002799D02*
X039361Y002799D01*
X039418Y002640D02*
X040098Y002640D01*
X040098Y002482D02*
X039405Y002482D01*
X039346Y002323D02*
X040098Y002323D01*
X040098Y002165D02*
X039418Y002165D01*
X039412Y002006D02*
X040098Y002006D01*
X040098Y001848D02*
X039328Y001848D01*
X040098Y001055D02*
X002688Y001055D01*
X004623Y002323D02*
X005916Y002323D01*
X005862Y002482D02*
X004652Y002482D01*
X004613Y002640D02*
X005864Y002640D01*
X005922Y002799D02*
X004616Y002799D01*
X004652Y002957D02*
X006075Y002957D01*
X004563Y003700D02*
X004563Y003700D01*
X007715Y001848D02*
X007951Y001848D01*
X007872Y001689D02*
X007794Y001689D01*
X007810Y001531D02*
X007856Y001531D01*
X007893Y001372D02*
X007773Y001372D01*
X007666Y001214D02*
X008000Y001214D01*
X008666Y001214D02*
X009000Y001214D01*
X008893Y001372D02*
X008773Y001372D01*
X008810Y001531D02*
X008856Y001531D01*
X008872Y001689D02*
X008794Y001689D01*
X008715Y001848D02*
X008951Y001848D01*
X009715Y001848D02*
X009951Y001848D01*
X009872Y001689D02*
X009794Y001689D01*
X009810Y001531D02*
X009856Y001531D01*
X009893Y001372D02*
X009773Y001372D01*
X009666Y001214D02*
X010000Y001214D01*
X010666Y001214D02*
X011000Y001214D01*
X010893Y001372D02*
X010773Y001372D01*
X010810Y001531D02*
X010856Y001531D01*
X010872Y001689D02*
X010794Y001689D01*
X010715Y001848D02*
X010951Y001848D01*
X011715Y001848D02*
X011951Y001848D01*
X011872Y001689D02*
X011794Y001689D01*
X011810Y001531D02*
X011856Y001531D01*
X011893Y001372D02*
X011773Y001372D01*
X011666Y001214D02*
X012000Y001214D01*
X012666Y001214D02*
X013000Y001214D01*
X012893Y001372D02*
X012773Y001372D01*
X012810Y001531D02*
X012856Y001531D01*
X012872Y001689D02*
X012794Y001689D01*
X012715Y001848D02*
X012951Y001848D01*
X013715Y001848D02*
X013951Y001848D01*
X013872Y001689D02*
X013794Y001689D01*
X013810Y001531D02*
X013856Y001531D01*
X013893Y001372D02*
X013773Y001372D01*
X013666Y001214D02*
X014000Y001214D01*
X014666Y001214D02*
X015000Y001214D01*
X014893Y001372D02*
X014773Y001372D01*
X014810Y001531D02*
X014856Y001531D01*
X014872Y001689D02*
X014794Y001689D01*
X014715Y001848D02*
X014951Y001848D01*
X015715Y001848D02*
X015951Y001848D01*
X015872Y001689D02*
X015794Y001689D01*
X015810Y001531D02*
X015856Y001531D01*
X015893Y001372D02*
X015773Y001372D01*
X015666Y001214D02*
X016000Y001214D01*
X016666Y001214D02*
X017000Y001214D01*
X016893Y001372D02*
X016773Y001372D01*
X016810Y001531D02*
X016856Y001531D01*
X016872Y001689D02*
X016794Y001689D01*
X016715Y001848D02*
X016951Y001848D01*
X017715Y001848D02*
X017951Y001848D01*
X017872Y001689D02*
X017794Y001689D01*
X017810Y001531D02*
X017856Y001531D01*
X017893Y001372D02*
X017773Y001372D01*
X017666Y001214D02*
X018000Y001214D01*
X018666Y001214D02*
X019000Y001214D01*
X018893Y001372D02*
X018773Y001372D01*
X018810Y001531D02*
X018856Y001531D01*
X018872Y001689D02*
X018794Y001689D01*
X018715Y001848D02*
X018951Y001848D01*
X019715Y001848D02*
X019951Y001848D01*
X019872Y001689D02*
X019794Y001689D01*
X019810Y001531D02*
X019856Y001531D01*
X019893Y001372D02*
X019773Y001372D01*
X019666Y001214D02*
X020000Y001214D01*
X020666Y001214D02*
X021000Y001214D01*
X020893Y001372D02*
X020773Y001372D01*
X020810Y001531D02*
X020856Y001531D01*
X020872Y001689D02*
X020794Y001689D01*
X020715Y001848D02*
X020951Y001848D01*
X021715Y001848D02*
X021951Y001848D01*
X021872Y001689D02*
X021794Y001689D01*
X021810Y001531D02*
X021856Y001531D01*
X021893Y001372D02*
X021773Y001372D01*
X021666Y001214D02*
X022000Y001214D01*
X022666Y001214D02*
X023000Y001214D01*
X022893Y001372D02*
X022773Y001372D01*
X022810Y001531D02*
X022856Y001531D01*
X022872Y001689D02*
X022794Y001689D01*
X022715Y001848D02*
X022951Y001848D01*
X023715Y001848D02*
X023951Y001848D01*
X023872Y001689D02*
X023794Y001689D01*
X023810Y001531D02*
X023856Y001531D01*
X023893Y001372D02*
X023773Y001372D01*
X023666Y001214D02*
X024000Y001214D01*
X024666Y001214D02*
X025000Y001214D01*
X024893Y001372D02*
X024773Y001372D01*
X024810Y001531D02*
X024856Y001531D01*
X024872Y001689D02*
X024794Y001689D01*
X024715Y001848D02*
X024951Y001848D01*
X025715Y001848D02*
X025951Y001848D01*
X025872Y001689D02*
X025794Y001689D01*
X025810Y001531D02*
X025856Y001531D01*
X025893Y001372D02*
X025773Y001372D01*
X025666Y001214D02*
X026000Y001214D01*
X026666Y001214D02*
X027000Y001214D01*
X026893Y001372D02*
X026773Y001372D01*
X026810Y001531D02*
X026856Y001531D01*
X026872Y001689D02*
X026794Y001689D01*
X026715Y001848D02*
X026951Y001848D01*
X030015Y005493D02*
X009075Y005493D01*
X010478Y005810D02*
X011380Y005810D01*
X011233Y005969D02*
X010539Y005969D01*
X010539Y006127D02*
X011233Y006127D01*
X011660Y006127D02*
X011756Y006127D01*
X011756Y005969D02*
X011660Y005969D01*
X011660Y005810D02*
X011756Y005810D01*
X012036Y005810D02*
X023431Y005810D01*
X023394Y005969D02*
X012183Y005969D01*
X012183Y006127D02*
X023394Y006127D01*
X023394Y006286D02*
X011756Y006286D01*
X011660Y006286D02*
X010539Y006286D01*
X010539Y006444D02*
X011233Y006444D01*
X011264Y006603D02*
X010484Y006603D01*
X010083Y006949D02*
X010083Y006992D01*
X011708Y006992D01*
X012183Y006920D02*
X022896Y006920D01*
X022737Y007078D02*
X012183Y007078D01*
X012183Y007237D02*
X022579Y007237D01*
X022420Y007395D02*
X012110Y007395D01*
X011306Y007395D02*
X010363Y007395D01*
X010363Y007554D02*
X022262Y007554D01*
X022103Y007712D02*
X010363Y007712D01*
X010363Y007871D02*
X021945Y007871D01*
X021786Y008029D02*
X010363Y008029D01*
X010363Y008188D02*
X021628Y008188D01*
X021469Y008346D02*
X010363Y008346D01*
X010363Y008505D02*
X021311Y008505D01*
X021152Y008663D02*
X010363Y008663D01*
X010363Y008822D02*
X020994Y008822D01*
X020835Y008980D02*
X010363Y008980D01*
X010363Y009139D02*
X020677Y009139D01*
X020518Y009297D02*
X010363Y009297D01*
X010363Y009456D02*
X020360Y009456D01*
X020201Y009614D02*
X010363Y009614D01*
X010363Y009773D02*
X020043Y009773D01*
X019884Y009931D02*
X010363Y009931D01*
X010363Y010090D02*
X019726Y010090D01*
X019567Y010248D02*
X018643Y010248D01*
X018705Y010407D02*
X019409Y010407D01*
X019250Y010565D02*
X018705Y010565D01*
X018705Y010724D02*
X019092Y010724D01*
X018933Y010882D02*
X018705Y010882D01*
X018705Y011041D02*
X018775Y011041D01*
X018396Y010680D02*
X018396Y011680D01*
X018605Y012150D02*
X016193Y012150D01*
X016289Y012309D02*
X018764Y012309D01*
X018922Y012467D02*
X016383Y012467D01*
X015473Y012150D02*
X014943Y012150D01*
X017097Y011041D02*
X010363Y011041D01*
X010363Y011199D02*
X018136Y011199D01*
X018270Y010680D02*
X018396Y010680D01*
X017570Y010565D02*
X017474Y010565D01*
X017474Y010407D02*
X017570Y010407D01*
X017570Y010248D02*
X017474Y010248D01*
X017148Y010248D02*
X010363Y010248D01*
X010363Y010407D02*
X017086Y010407D01*
X017086Y010565D02*
X010363Y010565D01*
X010363Y010724D02*
X017474Y010724D01*
X017474Y010882D02*
X017570Y010882D01*
X017570Y011041D02*
X017474Y011041D01*
X017086Y010882D02*
X010363Y010882D01*
X008569Y009614D02*
X008473Y009614D01*
X008473Y009456D02*
X008569Y009456D01*
X008569Y009297D02*
X008473Y009297D01*
X005641Y011199D02*
X005525Y011199D01*
X005525Y011358D02*
X005641Y011358D01*
X005641Y011516D02*
X005525Y011516D01*
X005525Y011833D02*
X005641Y011833D01*
X005641Y011992D02*
X005525Y011992D01*
X005525Y012150D02*
X005641Y012150D01*
X004999Y012150D02*
X002688Y012150D01*
X002688Y011992D02*
X004990Y011992D01*
X003396Y010882D02*
X002688Y010882D01*
X002688Y010724D02*
X003175Y010724D01*
X003027Y010565D02*
X002688Y010565D01*
X002688Y010407D02*
X002936Y010407D01*
X002871Y010248D02*
X002688Y010248D01*
X002688Y010090D02*
X002829Y010090D01*
X002820Y009931D02*
X002688Y009931D01*
X002688Y009773D02*
X002820Y009773D01*
X002859Y009614D02*
X002688Y009614D01*
X002688Y009456D02*
X002909Y009456D01*
X003001Y009297D02*
X002688Y009297D01*
X002688Y009139D02*
X003130Y009139D01*
X003318Y008980D02*
X002688Y008980D01*
X002688Y008822D02*
X003697Y008822D01*
X012183Y006761D02*
X023054Y006761D01*
X023213Y006603D02*
X012152Y006603D01*
X012183Y006444D02*
X023371Y006444D01*
X022830Y008822D02*
X022139Y008822D01*
X021981Y008980D02*
X022830Y008980D01*
X022830Y009139D02*
X021822Y009139D01*
X021664Y009297D02*
X022830Y009297D01*
X022899Y009614D02*
X023074Y009614D01*
X023228Y009456D02*
X021505Y009456D01*
X021498Y009614D02*
X021347Y009614D01*
X021455Y009773D02*
X021188Y009773D01*
X021030Y009931D02*
X021455Y009931D01*
X021455Y010090D02*
X020871Y010090D01*
X020713Y010248D02*
X021500Y010248D01*
X021668Y010565D02*
X022184Y010565D01*
X021984Y010407D02*
X020789Y010407D01*
X022168Y009614D02*
X022220Y009614D01*
X021177Y013577D02*
X024525Y013577D01*
X023757Y013735D02*
X021336Y013735D01*
X021494Y013894D02*
X023599Y013894D01*
X023440Y014052D02*
X021653Y014052D01*
X021811Y014211D02*
X023282Y014211D01*
X023123Y014369D02*
X021970Y014369D01*
X022128Y014528D02*
X022965Y014528D01*
X022806Y014686D02*
X022287Y014686D01*
X022445Y014845D02*
X022648Y014845D01*
X024074Y014211D02*
X024455Y014211D01*
X025356Y013894D02*
X025378Y013894D01*
X032863Y008822D02*
X033291Y008822D01*
X032863Y008663D02*
X034728Y008663D01*
X034728Y008505D02*
X034454Y008505D01*
X034455Y008346D02*
X034728Y008346D01*
X034728Y008188D02*
X034068Y008188D01*
X034068Y008346D02*
X033972Y008346D01*
X033972Y008505D02*
X034068Y008505D01*
X033934Y008822D02*
X033875Y008822D01*
X034684Y008822D02*
X034728Y008822D01*
X034728Y008029D02*
X034455Y008029D01*
X034455Y007871D02*
X034728Y007871D01*
X034728Y007712D02*
X034326Y007712D01*
X034068Y007712D02*
X033972Y007712D01*
X033972Y007871D02*
X034068Y007871D01*
X034068Y008029D02*
X033972Y008029D01*
X033713Y007712D02*
X033609Y007712D01*
X033272Y008180D02*
X032583Y008180D01*
X032303Y007712D02*
X032208Y007712D01*
X032219Y007554D02*
X032303Y007554D01*
X032303Y007395D02*
X032219Y007395D01*
X032219Y007237D02*
X032303Y007237D01*
X032863Y007237D02*
X034614Y007237D01*
X034580Y007078D02*
X032863Y007078D01*
X032863Y006920D02*
X034580Y006920D01*
X034580Y006761D02*
X032863Y006761D01*
X032863Y007395D02*
X034728Y007395D01*
X034728Y007554D02*
X032863Y007554D01*
X032863Y007712D02*
X032934Y007712D01*
X034309Y006444D02*
X034309Y006444D01*
X034309Y006286D02*
X034309Y006286D01*
X034309Y006127D02*
X034309Y006127D01*
X033934Y006127D02*
X033605Y006127D01*
X030835Y006603D02*
X030456Y006603D01*
X030614Y006761D02*
X030677Y006761D01*
X016203Y017381D02*
X016063Y017381D01*
X016063Y017539D02*
X016108Y017539D01*
X016108Y017698D02*
X016063Y017698D01*
X016063Y017856D02*
X016108Y017856D01*
X016108Y018015D02*
X016063Y018015D01*
X016063Y018173D02*
X016144Y018173D01*
X016108Y018807D02*
X015906Y018807D01*
X015748Y018966D02*
X016116Y018966D01*
X016108Y019124D02*
X015589Y019124D01*
X015431Y019283D02*
X016108Y019283D01*
X016108Y019441D02*
X015272Y019441D01*
X015114Y019600D02*
X016026Y019600D01*
X015867Y019758D02*
X006327Y019758D01*
X009104Y017698D02*
X009615Y017698D01*
X009774Y017539D02*
X009107Y017539D01*
X009088Y017381D02*
X010627Y017381D01*
X011287Y016905D02*
X008938Y016905D01*
X008938Y016747D02*
X011129Y016747D01*
X010970Y016588D02*
X008938Y016588D01*
X008938Y016430D02*
X010812Y016430D01*
X010653Y016271D02*
X008938Y016271D01*
X008938Y016113D02*
X010495Y016113D01*
X010336Y015954D02*
X008938Y015954D01*
X008993Y015796D02*
X010178Y015796D01*
X010019Y015637D02*
X009086Y015637D01*
X009086Y015479D02*
X009861Y015479D01*
X009702Y015320D02*
X009086Y015320D01*
X009086Y015162D02*
X009544Y015162D01*
X008506Y013894D02*
X008410Y013894D01*
X008410Y013735D02*
X008506Y013735D01*
X003950Y015479D02*
X003950Y015479D01*
X003950Y015637D02*
X003950Y015637D01*
X003950Y015796D02*
X003950Y015796D01*
X003950Y015844D02*
X003950Y015844D01*
X008938Y017064D02*
X011446Y017064D01*
X011553Y017222D02*
X008938Y017222D01*
X011539Y017381D02*
X011553Y017381D01*
X011539Y017539D02*
X011553Y017539D01*
X011539Y017698D02*
X011553Y017698D01*
X011539Y017856D02*
X011553Y017856D01*
X011478Y018015D02*
X011477Y018015D01*
X011677Y018211D02*
X011677Y018243D01*
X012709Y018243D01*
X012309Y018649D02*
X011636Y018649D01*
X013409Y018649D02*
X013505Y018649D01*
X013505Y018490D02*
X013409Y018490D01*
X013409Y018332D02*
X013505Y018332D01*
X013505Y018173D02*
X013409Y018173D01*
X013409Y018015D02*
X013505Y018015D01*
X013505Y017856D02*
X013409Y017856D01*
X014686Y020234D02*
X014980Y020234D01*
X014884Y020392D02*
X014782Y020392D01*
X014810Y020551D02*
X014856Y020551D01*
X014881Y020709D02*
X014785Y020709D01*
X014695Y020868D02*
X014971Y020868D01*
X017695Y020868D02*
X017971Y020868D01*
X017881Y020709D02*
X017785Y020709D01*
X017810Y020551D02*
X017856Y020551D01*
X017884Y020392D02*
X017782Y020392D01*
X017686Y020234D02*
X017980Y020234D01*
X026686Y020234D02*
X026980Y020234D01*
X026885Y020392D02*
X026782Y020392D01*
X027315Y020392D02*
X027351Y020392D01*
X027351Y020234D02*
X027315Y020234D01*
X027686Y020234D02*
X027980Y020234D01*
X027969Y020244D02*
X028022Y020191D01*
X028083Y020147D01*
X028150Y020113D01*
X028221Y020090D01*
X028296Y020078D01*
X028315Y020078D01*
X028315Y020537D01*
X027856Y020537D01*
X027856Y020517D01*
X027868Y020443D01*
X027891Y020372D01*
X027925Y020305D01*
X027969Y020244D01*
X027885Y020392D02*
X027782Y020392D01*
X027784Y020709D02*
X027882Y020709D01*
X027971Y020868D02*
X027695Y020868D01*
X027634Y021185D02*
X027871Y021185D01*
X027856Y021343D02*
X027760Y021343D01*
X027807Y021502D02*
X027856Y021502D01*
X027856Y021573D02*
X028315Y021573D01*
X028315Y022032D01*
X028013Y022032D01*
X027967Y022020D01*
X027926Y021996D01*
X027892Y021962D01*
X027868Y021921D01*
X027856Y021876D01*
X027856Y021573D01*
X027856Y021660D02*
X027799Y021660D01*
X027856Y021819D02*
X027731Y021819D01*
X027555Y021977D02*
X027907Y021977D01*
X028315Y021977D02*
X028351Y021977D01*
X028351Y021819D02*
X028315Y021819D01*
X028315Y021660D02*
X028351Y021660D01*
X028351Y021502D02*
X028315Y021502D01*
X028315Y021343D02*
X028351Y021343D01*
X028351Y021185D02*
X028315Y021185D01*
X028315Y020868D02*
X028351Y020868D01*
X028351Y020709D02*
X028315Y020709D01*
X028315Y020392D02*
X028351Y020392D01*
X028351Y020234D02*
X028315Y020234D01*
X027351Y020709D02*
X027315Y020709D01*
X027315Y020868D02*
X027351Y020868D01*
X027351Y021185D02*
X027315Y021185D01*
X027315Y021343D02*
X027351Y021343D01*
X027351Y021502D02*
X027315Y021502D01*
X027315Y021660D02*
X027351Y021660D01*
X027351Y021819D02*
X027315Y021819D01*
X027315Y021977D02*
X027351Y021977D01*
X030122Y021026D02*
X030122Y021026D01*
X030122Y020868D02*
X030122Y020868D01*
D22*
X024708Y017555D03*
X018646Y016368D03*
X026146Y008993D03*
X023958Y006305D03*
X017583Y006243D03*
X036833Y001805D03*
X037333Y021493D03*
D23*
X035458Y018555D03*
X033083Y017555D03*
X029958Y016680D03*
X030208Y015930D03*
X031833Y015305D03*
X032583Y015055D03*
X034333Y015555D03*
X035583Y014680D03*
X033583Y009180D03*
X032083Y008180D03*
X030458Y008055D03*
X029458Y006805D03*
X034521Y007555D03*
X034958Y006930D03*
X023208Y009055D03*
X021833Y009930D03*
X020833Y012930D03*
X017146Y013555D03*
X015208Y014055D03*
X013977Y013930D03*
X013333Y012930D03*
X009833Y014305D03*
X008708Y015430D03*
X012458Y015805D03*
X014083Y016930D03*
X009583Y011180D03*
X009208Y010680D03*
D24*
X009208Y007430D01*
X008958Y007180D01*
X008747Y007180D01*
X008732Y007195D01*
X008732Y006939D02*
X008741Y006930D01*
X009208Y006930D01*
X009583Y007305D01*
X009583Y011180D01*
X012208Y012536D02*
X016127Y012536D01*
X017146Y013555D01*
X015833Y013430D02*
X015208Y014055D01*
X015833Y013430D02*
X015833Y013324D01*
X015833Y018555D01*
X016583Y018555D01*
X016583Y018556D01*
X016583Y018554D01*
X015833Y018555D02*
X014958Y019430D01*
X009958Y019430D01*
X009583Y019055D01*
X009568Y019070D01*
X008732Y019070D01*
X008732Y018814D02*
X010092Y018814D01*
X010333Y019055D01*
X013958Y019055D01*
X014583Y018430D01*
X014583Y016930D01*
X014083Y016930D01*
X014583Y016930D02*
X014583Y013324D01*
X013977Y013930D01*
X013333Y012930D02*
X012602Y012930D01*
X012208Y013324D01*
X011083Y013286D02*
X010852Y013286D01*
X009833Y014305D01*
X008708Y015430D02*
X008708Y017511D01*
X008732Y017534D01*
X008732Y018046D02*
X009592Y018046D01*
X009958Y017680D01*
X011064Y017680D01*
X011083Y017661D01*
X010936Y018302D02*
X008732Y018302D01*
X010936Y018302D02*
X011083Y018449D01*
X015896Y020055D02*
X015896Y020993D01*
X015333Y021555D01*
X014833Y022055D02*
X014333Y021555D01*
X014833Y022055D02*
X016646Y022055D01*
X016833Y021868D01*
X016833Y020430D01*
X017146Y020118D01*
X017146Y018055D01*
X016897Y017806D01*
X016583Y017806D01*
X016583Y019304D02*
X016583Y019368D01*
X015896Y020055D01*
X006434Y019326D02*
X004994Y020766D01*
X003950Y020766D01*
X003982Y020305D02*
X003950Y020274D01*
X003982Y020305D02*
X004833Y020305D01*
X006068Y019070D01*
X006434Y019070D01*
X006434Y018814D02*
X005699Y018814D01*
X004708Y019805D01*
X003974Y019805D01*
X003950Y019781D01*
X003966Y019305D02*
X003950Y019289D01*
X003966Y019305D02*
X004708Y019305D01*
X005455Y018558D01*
X006434Y018558D01*
X006434Y018302D02*
X005211Y018302D01*
X004708Y018805D01*
X003958Y018805D01*
X003950Y018797D01*
X003950Y018305D02*
X004458Y018305D01*
X004717Y018046D01*
X006434Y018046D01*
X006434Y017790D02*
X003973Y017790D01*
X003950Y017813D01*
X003950Y017321D02*
X003966Y017305D01*
X004958Y017305D01*
X005187Y017534D01*
X006434Y017534D01*
X012208Y012536D02*
X014583Y012536D01*
X015833Y012536D01*
X020333Y011449D02*
X020718Y011064D01*
X022559Y011064D01*
X022559Y011320D02*
X022559Y011576D01*
X022187Y011576D01*
X020833Y012930D01*
X021583Y010805D02*
X022556Y010805D01*
X022559Y010808D01*
X022559Y010296D02*
X022199Y010296D01*
X021833Y009930D01*
X022559Y010040D02*
X022973Y010040D01*
X023458Y009555D01*
X023458Y009305D01*
X023208Y009055D01*
X024857Y009784D02*
X026854Y009784D01*
X027208Y009430D01*
X028052Y009430D01*
X028091Y009469D01*
X028091Y009961D02*
X028012Y010040D01*
X024857Y010040D01*
X024857Y010296D02*
X027074Y010296D01*
X027208Y010430D01*
X028067Y010430D01*
X028091Y010454D01*
X028075Y010930D02*
X027208Y010930D01*
X026830Y010552D01*
X024857Y010552D01*
X024857Y010808D02*
X026586Y010808D01*
X027208Y011430D01*
X028083Y011430D01*
X028091Y011438D01*
X028091Y011930D02*
X027208Y011930D01*
X026342Y011064D01*
X024857Y011064D01*
X024857Y011320D02*
X026098Y011320D01*
X027208Y012430D01*
X028083Y012430D01*
X028091Y012422D01*
X028091Y012914D02*
X028075Y012930D01*
X027208Y012930D01*
X025854Y011576D01*
X024857Y011576D01*
X028075Y010930D02*
X028091Y010946D01*
X030689Y009055D02*
X031211Y008533D01*
X031211Y007454D01*
X031211Y007177D01*
X031458Y006930D01*
X031723Y007195D01*
X031723Y007454D01*
X031467Y007454D02*
X031467Y009045D01*
X031477Y009055D01*
X032583Y009411D02*
X033105Y009933D01*
X034309Y009933D01*
X034711Y009933D01*
X034833Y010055D01*
X034833Y010305D01*
X034693Y010445D01*
X034309Y010445D01*
X034309Y010701D01*
X034309Y010189D02*
X032593Y010189D01*
X032583Y010199D01*
X033583Y009180D02*
X033824Y009421D01*
X034309Y009421D01*
X034309Y009165D02*
X034848Y009165D01*
X034958Y009055D01*
X034958Y015555D01*
X034333Y015555D01*
X034102Y015036D02*
X033708Y015430D01*
X033708Y016930D01*
X033958Y017180D01*
X034306Y017180D01*
X034309Y017183D01*
X034300Y017430D02*
X033708Y017430D01*
X033314Y017036D01*
X033314Y014555D01*
X034102Y014555D02*
X034102Y015036D01*
X034958Y015555D02*
X034958Y016180D01*
X034708Y016430D01*
X034324Y016430D01*
X034309Y016415D01*
X034309Y016671D02*
X034318Y016680D01*
X034958Y016680D01*
X035583Y016055D01*
X035583Y014680D01*
X036729Y016159D02*
X037208Y015680D01*
X038677Y015680D01*
X038716Y015719D01*
X038684Y016180D02*
X037833Y016180D01*
X037598Y016415D01*
X036607Y016415D01*
X036607Y016159D02*
X036729Y016159D01*
X036607Y016671D02*
X038683Y016671D01*
X038716Y016704D01*
X038700Y017180D02*
X037958Y017180D01*
X037705Y016927D01*
X036607Y016927D01*
X036607Y017183D02*
X037586Y017183D01*
X038083Y017680D01*
X038708Y017680D01*
X038716Y017688D01*
X038716Y017196D02*
X038700Y017180D01*
X038083Y018180D02*
X037342Y017439D01*
X036607Y017439D01*
X036607Y017695D02*
X037098Y017695D01*
X038083Y018680D01*
X038708Y018680D01*
X038716Y018672D01*
X038716Y018180D02*
X038083Y018180D01*
X038083Y019180D02*
X036854Y017951D01*
X036607Y017951D01*
X035458Y018180D02*
X035458Y018555D01*
X035458Y018180D02*
X034958Y017680D01*
X034295Y017680D01*
X034309Y017695D01*
X034309Y017439D02*
X034300Y017430D01*
X033083Y017555D02*
X032223Y016695D01*
X032223Y015906D01*
X031967Y015906D02*
X031958Y015897D01*
X031958Y015680D01*
X032583Y015055D01*
X032102Y015036D02*
X032102Y014055D01*
X031455Y014702D01*
X031455Y015906D01*
X031208Y015897D02*
X031208Y014430D01*
X031314Y014324D01*
X031314Y014055D01*
X032102Y015036D02*
X031833Y015305D01*
X031208Y015897D02*
X031199Y015906D01*
X030958Y015921D02*
X030958Y016430D01*
X030708Y016680D01*
X029958Y016680D01*
X030208Y016680D01*
X030208Y015930D02*
X030664Y015930D01*
X030687Y015906D01*
X030943Y015906D02*
X030958Y015921D01*
X030943Y018204D02*
X030943Y019040D01*
X032083Y020180D01*
X032083Y020555D01*
X032091Y020563D01*
X032583Y020563D02*
X032583Y019805D01*
X032458Y019680D01*
X031958Y019680D01*
X031199Y018921D01*
X031199Y018204D01*
X031455Y018204D02*
X031455Y018802D01*
X032083Y019430D01*
X032708Y019430D01*
X033083Y019805D01*
X033083Y020555D01*
X033075Y020563D01*
X033567Y020563D02*
X033583Y020547D01*
X033583Y019805D01*
X032958Y019180D01*
X032208Y019180D01*
X031711Y018683D01*
X031711Y018204D01*
X031967Y018204D02*
X031967Y018564D01*
X032333Y018930D01*
X033208Y018930D01*
X034083Y019805D01*
X034083Y020539D01*
X034059Y020563D01*
X034552Y020563D02*
X034583Y020531D01*
X034583Y019805D01*
X033458Y018680D01*
X032458Y018680D01*
X032223Y018445D01*
X032223Y018204D01*
X032479Y018204D02*
X033482Y018204D01*
X035083Y019805D01*
X035083Y020524D01*
X035044Y020563D01*
X038083Y019180D02*
X038700Y019180D01*
X038716Y019164D01*
X038716Y016211D02*
X038684Y016180D01*
X038825Y012430D02*
X038208Y012430D01*
X036607Y010829D01*
X036607Y010701D01*
X036607Y010445D02*
X036848Y010445D01*
X038333Y011930D01*
X038833Y011930D01*
X038841Y011922D01*
X038841Y011430D02*
X038208Y011430D01*
X036967Y010189D01*
X036607Y010189D01*
X036607Y009933D02*
X037211Y009933D01*
X038208Y010930D01*
X038833Y010930D01*
X038841Y010938D01*
X038841Y010446D02*
X038825Y010430D01*
X038208Y010430D01*
X037455Y009677D01*
X036607Y009677D01*
X036607Y009421D02*
X037824Y009421D01*
X038333Y009930D01*
X038817Y009930D01*
X038841Y009954D01*
X038841Y009461D02*
X038809Y009430D01*
X038333Y009430D01*
X038068Y009165D01*
X036607Y009165D01*
X036607Y008909D02*
X038781Y008909D01*
X038841Y008969D01*
X034958Y009055D02*
X034958Y006930D01*
X034958Y004930D01*
X034833Y004805D01*
X034324Y004805D01*
X034309Y004790D01*
X034309Y005046D02*
X033574Y005046D01*
X033333Y004805D01*
X032958Y004805D01*
X030699Y007064D01*
X030699Y007454D01*
X030699Y007814D01*
X030458Y008055D01*
X030443Y007454D02*
X030443Y006915D01*
X030208Y006680D01*
X029583Y006680D01*
X029458Y006805D01*
X030187Y005156D02*
X030187Y004659D01*
X030083Y004555D01*
X030083Y002961D01*
X030122Y002922D01*
X030583Y002954D02*
X030615Y002922D01*
X030583Y002954D02*
X030583Y004055D01*
X030443Y004195D01*
X030443Y005156D01*
X030699Y005156D02*
X030699Y004314D01*
X031083Y003930D01*
X031083Y002946D01*
X031107Y002922D01*
X031583Y002938D02*
X031599Y002922D01*
X031583Y002938D02*
X031583Y003930D01*
X030955Y004558D01*
X030955Y005156D01*
X031211Y005156D02*
X031211Y004677D01*
X032083Y003805D01*
X032083Y002930D01*
X032091Y002922D01*
X032458Y003047D02*
X032583Y002922D01*
X032458Y003047D02*
X032458Y003805D01*
X031467Y004796D01*
X031467Y005156D01*
X031723Y005156D02*
X031723Y004915D01*
X033083Y003555D01*
X033083Y002930D01*
X033075Y002922D01*
X033567Y002922D02*
X033583Y002938D01*
X033583Y003680D01*
X032107Y005156D01*
X031979Y005156D01*
X033083Y005536D02*
X033105Y005558D01*
X034309Y005558D01*
X034309Y005814D02*
X033593Y005814D01*
X033083Y006324D01*
X036607Y006326D02*
X037687Y006326D01*
X038458Y005555D01*
X038825Y005555D01*
X038841Y005539D01*
X038833Y005055D02*
X038841Y005047D01*
X038833Y005055D02*
X038458Y005055D01*
X037443Y006070D01*
X036607Y006070D01*
X036607Y005814D02*
X037324Y005814D01*
X038333Y004805D01*
X038333Y004680D01*
X038458Y004555D01*
X038841Y004555D01*
X038083Y004680D02*
X038083Y004180D01*
X038208Y004055D01*
X038833Y004055D01*
X038841Y004063D01*
X038841Y003571D02*
X038825Y003555D01*
X037958Y003555D01*
X037833Y003680D01*
X037833Y004555D01*
X037086Y005302D01*
X036607Y005302D01*
X036607Y005046D02*
X036967Y005046D01*
X037583Y004430D01*
X037583Y003430D01*
X037958Y003055D01*
X038817Y003055D01*
X038841Y003079D01*
X038841Y002586D02*
X038809Y002555D01*
X037958Y002555D01*
X037208Y003305D01*
X037208Y004430D01*
X036848Y004790D01*
X036607Y004790D01*
X036607Y004534D02*
X036607Y003406D01*
X037958Y002055D01*
X038802Y002055D01*
X038841Y002094D01*
X038083Y004680D02*
X037205Y005558D01*
X036607Y005558D01*
X038841Y012414D02*
X038825Y012430D01*
X030687Y018204D02*
X030687Y019159D01*
X031583Y020055D01*
X031583Y020547D01*
X031599Y020563D01*
X021583Y010805D02*
X021439Y010661D01*
X020333Y010661D01*
X010083Y006949D02*
X009727Y006949D01*
X009208Y006430D01*
X008735Y006430D01*
X008732Y006427D01*
X008330Y006427D01*
X008208Y006305D01*
X008208Y005930D01*
X008479Y005659D01*
X008732Y005659D01*
X008742Y006161D02*
X008732Y006171D01*
X008742Y006161D02*
X010083Y006161D01*
X006434Y006171D02*
X006074Y006171D01*
X004833Y004930D01*
X004075Y004930D01*
X004075Y004438D02*
X004083Y004430D01*
X004708Y004430D01*
X006193Y005915D01*
X006434Y005915D01*
X006434Y005659D02*
X006434Y005656D01*
X004708Y003930D01*
X004091Y003930D01*
X004075Y003946D01*
X004075Y005422D02*
X004083Y005430D01*
X004708Y005430D01*
X005705Y006427D01*
X006434Y006427D01*
X006434Y006683D02*
X005461Y006683D01*
X004708Y005930D01*
X004091Y005930D01*
X004075Y005914D01*
X004075Y006406D02*
X004099Y006430D01*
X004833Y006430D01*
X005342Y006939D01*
X006434Y006939D01*
X006434Y007195D02*
X005098Y007195D01*
X004833Y006930D01*
X004107Y006930D01*
X004075Y006899D01*
X004075Y007391D02*
X004075Y007451D01*
X006434Y007451D01*
D25*
X007748Y011680D02*
X008458Y011680D01*
X009333Y011680D01*
X010083Y011680D01*
X018396Y011680D01*
X018708Y011680D01*
X022458Y015430D01*
X024583Y017555D01*
X024708Y017555D01*
X018708Y011680D02*
X019833Y010555D01*
X022208Y008180D01*
X023958Y006430D01*
D26*
X023958Y006305D01*
X022208Y008180D02*
X028458Y008180D01*
X029333Y009055D01*
X030689Y009055D01*
X030689Y009536D01*
X030708Y009555D01*
X030771Y009555D01*
X032439Y009555D01*
X032583Y009411D01*
X032583Y008180D01*
X032583Y005680D01*
X032727Y005536D01*
X033083Y005536D01*
X025395Y012243D02*
X025457Y012655D01*
X026208Y013406D01*
X028091Y013406D01*
X028091Y013899D01*
X026208Y013406D02*
X025915Y013406D01*
X025766Y013555D01*
X024900Y013929D02*
X023959Y013929D01*
X022458Y015430D01*
X028083Y015430D01*
X030208Y013305D01*
X031708Y013305D01*
X032227Y013824D01*
X032227Y013930D01*
X033958Y013930D01*
X034102Y014074D01*
X034102Y014555D01*
X032227Y013930D02*
X032102Y014055D01*
X020333Y010661D02*
X020227Y010555D01*
X019833Y010555D01*
X012208Y013324D02*
X012171Y013286D01*
X011083Y013286D01*
X009458Y014680D02*
X009458Y011805D01*
X009333Y011680D01*
X010083Y011680D02*
X010083Y006949D01*
X009458Y014680D02*
X011833Y017055D01*
X011833Y018055D01*
X011677Y018211D01*
X011439Y018449D01*
X011083Y018449D01*
D27*
X008458Y012806D02*
X008458Y011680D01*
X008458Y010429D01*
X008521Y010429D01*
M02*
