G75*
%MOIN*%
%OFA0B0*%
%FSLAX24Y24*%
%IPPOS*%
%LPD*%
%AMOC8*
5,1,8,0,0,1.08239X$1,22.5*
%
%ADD10R,0.0907X0.0907*%
%ADD11C,0.1340*%
%ADD12R,0.0631X0.0513*%
%ADD13R,0.0513X0.0631*%
%ADD14R,0.0200X0.0470*%
%ADD15R,0.0470X0.0200*%
%ADD16C,0.0477*%
%ADD17R,0.0674X0.0674*%
%ADD18C,0.0674*%
%ADD19R,0.0631X0.0474*%
%ADD20R,0.0671X0.0592*%
%ADD21R,0.0592X0.0671*%
%ADD22R,0.0848X0.0848*%
%ADD23R,0.0476X0.0476*%
D10*
X005583Y011680D03*
X007748Y011680D03*
D11*
X003930Y009908D03*
X003930Y013452D03*
D12*
X011083Y013286D03*
X012208Y013324D03*
X012208Y012536D03*
X011083Y014074D03*
X014583Y013324D03*
X014583Y012536D03*
X015833Y012536D03*
X015833Y013324D03*
X020333Y011449D03*
X020333Y010661D03*
X010083Y006949D03*
X010083Y006161D03*
X011083Y017661D03*
X011083Y018449D03*
X032583Y010199D03*
X032583Y009411D03*
X033083Y006324D03*
X033083Y005536D03*
D13*
X031477Y009055D03*
X030689Y009055D03*
X031314Y014055D03*
X032102Y014055D03*
X033314Y014555D03*
X034102Y014555D03*
D14*
X032479Y015906D03*
X032223Y015906D03*
X031967Y015906D03*
X031711Y015906D03*
X031455Y015906D03*
X031199Y015906D03*
X030943Y015906D03*
X030687Y015906D03*
X030687Y018204D03*
X030943Y018204D03*
X031199Y018204D03*
X031455Y018204D03*
X031711Y018204D03*
X031967Y018204D03*
X032223Y018204D03*
X032479Y018204D03*
X031979Y007454D03*
X031723Y007454D03*
X031467Y007454D03*
X031211Y007454D03*
X030955Y007454D03*
X030699Y007454D03*
X030443Y007454D03*
X030187Y007454D03*
X030187Y005156D03*
X030443Y005156D03*
X030699Y005156D03*
X030955Y005156D03*
X031211Y005156D03*
X031467Y005156D03*
X031723Y005156D03*
X031979Y005156D03*
D15*
X034309Y005046D03*
X034309Y004790D03*
X034309Y004534D03*
X034309Y005302D03*
X034309Y005558D03*
X034309Y005814D03*
X034309Y006070D03*
X034309Y006326D03*
X036607Y006326D03*
X036607Y006070D03*
X036607Y005814D03*
X036607Y005558D03*
X036607Y005302D03*
X036607Y005046D03*
X036607Y004790D03*
X036607Y004534D03*
X036607Y008909D03*
X036607Y009165D03*
X036607Y009421D03*
X036607Y009677D03*
X036607Y009933D03*
X036607Y010189D03*
X036607Y010445D03*
X036607Y010701D03*
X034309Y010701D03*
X034309Y010445D03*
X034309Y010189D03*
X034309Y009933D03*
X034309Y009677D03*
X034309Y009421D03*
X034309Y009165D03*
X034309Y008909D03*
X024857Y009784D03*
X024857Y010040D03*
X024857Y010296D03*
X024857Y010552D03*
X024857Y010808D03*
X024857Y011064D03*
X024857Y011320D03*
X024857Y011576D03*
X022559Y011576D03*
X022559Y011320D03*
X022559Y011064D03*
X022559Y010808D03*
X022559Y010552D03*
X022559Y010296D03*
X022559Y010040D03*
X022559Y009784D03*
X034309Y016159D03*
X034309Y016415D03*
X034309Y016671D03*
X034309Y016927D03*
X034309Y017183D03*
X034309Y017439D03*
X034309Y017695D03*
X034309Y017951D03*
X036607Y017951D03*
X036607Y017695D03*
X036607Y017439D03*
X036607Y017183D03*
X036607Y016927D03*
X036607Y016671D03*
X036607Y016415D03*
X036607Y016159D03*
X008732Y017534D03*
X008732Y017790D03*
X008732Y018046D03*
X008732Y018302D03*
X008732Y018558D03*
X008732Y018814D03*
X008732Y019070D03*
X008732Y019326D03*
X006434Y019326D03*
X006434Y019070D03*
X006434Y018814D03*
X006434Y018558D03*
X006434Y018302D03*
X006434Y018046D03*
X006434Y017790D03*
X006434Y017534D03*
X006434Y007451D03*
X006434Y007195D03*
X006434Y006939D03*
X006434Y006683D03*
X006434Y006427D03*
X006434Y006171D03*
X006434Y005915D03*
X006434Y005659D03*
X008732Y005659D03*
X008732Y005915D03*
X008732Y006171D03*
X008732Y006427D03*
X008732Y006683D03*
X008732Y006939D03*
X008732Y007195D03*
X008732Y007451D03*
D16*
X004274Y002469D02*
X003877Y002469D01*
X003877Y002961D02*
X004274Y002961D01*
X004274Y003454D02*
X003877Y003454D01*
X003877Y003946D02*
X004274Y003946D01*
X004274Y004438D02*
X003877Y004438D01*
X003877Y004930D02*
X004274Y004930D01*
X004274Y005422D02*
X003877Y005422D01*
X003877Y005914D02*
X004274Y005914D01*
X004274Y006406D02*
X003877Y006406D01*
X003877Y006899D02*
X004274Y006899D01*
X004274Y007391D02*
X003877Y007391D01*
X003752Y015844D02*
X004149Y015844D01*
X004149Y016336D02*
X003752Y016336D01*
X003752Y016829D02*
X004149Y016829D01*
X004149Y017321D02*
X003752Y017321D01*
X003752Y017813D02*
X004149Y017813D01*
X004149Y018305D02*
X003752Y018305D01*
X003752Y018797D02*
X004149Y018797D01*
X004149Y019289D02*
X003752Y019289D01*
X003752Y019781D02*
X004149Y019781D01*
X004149Y020274D02*
X003752Y020274D01*
X003752Y020766D02*
X004149Y020766D01*
X027893Y014391D02*
X028289Y014391D01*
X028289Y013899D02*
X027893Y013899D01*
X027893Y013406D02*
X028289Y013406D01*
X028289Y012914D02*
X027893Y012914D01*
X027893Y012422D02*
X028289Y012422D01*
X028289Y011930D02*
X027893Y011930D01*
X027893Y011438D02*
X028289Y011438D01*
X028289Y010946D02*
X027893Y010946D01*
X027893Y010454D02*
X028289Y010454D01*
X028289Y009961D02*
X027893Y009961D01*
X027893Y009469D02*
X028289Y009469D01*
X038643Y009461D02*
X039039Y009461D01*
X039039Y009954D02*
X038643Y009954D01*
X038643Y010446D02*
X039039Y010446D01*
X039039Y010938D02*
X038643Y010938D01*
X038643Y011430D02*
X039039Y011430D01*
X039039Y011922D02*
X038643Y011922D01*
X038643Y012414D02*
X039039Y012414D01*
X039039Y012906D02*
X038643Y012906D01*
X038643Y013399D02*
X039039Y013399D01*
X039039Y013891D02*
X038643Y013891D01*
X038518Y015719D02*
X038914Y015719D01*
X038914Y016211D02*
X038518Y016211D01*
X038518Y016704D02*
X038914Y016704D01*
X038914Y017196D02*
X038518Y017196D01*
X038518Y017688D02*
X038914Y017688D01*
X038914Y018180D02*
X038518Y018180D01*
X038518Y018672D02*
X038914Y018672D01*
X038914Y019164D02*
X038518Y019164D01*
X038518Y019656D02*
X038914Y019656D01*
X038914Y020149D02*
X038518Y020149D01*
X038518Y020641D02*
X038914Y020641D01*
X035044Y020761D02*
X035044Y020364D01*
X034552Y020364D02*
X034552Y020761D01*
X034059Y020761D02*
X034059Y020364D01*
X033567Y020364D02*
X033567Y020761D01*
X033075Y020761D02*
X033075Y020364D01*
X032583Y020364D02*
X032583Y020761D01*
X032091Y020761D02*
X032091Y020364D01*
X031599Y020364D02*
X031599Y020761D01*
X031107Y020761D02*
X031107Y020364D01*
X030615Y020364D02*
X030615Y020761D01*
X030122Y020761D02*
X030122Y020364D01*
X038643Y008969D02*
X039039Y008969D01*
X039039Y007016D02*
X038643Y007016D01*
X038643Y006524D02*
X039039Y006524D01*
X039039Y006031D02*
X038643Y006031D01*
X038643Y005539D02*
X039039Y005539D01*
X039039Y005047D02*
X038643Y005047D01*
X038643Y004555D02*
X039039Y004555D01*
X039039Y004063D02*
X038643Y004063D01*
X038643Y003571D02*
X039039Y003571D01*
X039039Y003079D02*
X038643Y003079D01*
X038643Y002586D02*
X039039Y002586D01*
X039039Y002094D02*
X038643Y002094D01*
X035044Y002724D02*
X035044Y003121D01*
X034552Y003121D02*
X034552Y002724D01*
X034059Y002724D02*
X034059Y003121D01*
X033567Y003121D02*
X033567Y002724D01*
X033075Y002724D02*
X033075Y003121D01*
X032583Y003121D02*
X032583Y002724D01*
X032091Y002724D02*
X032091Y003121D01*
X031599Y003121D02*
X031599Y002724D01*
X031107Y002724D02*
X031107Y003121D01*
X030615Y003121D02*
X030615Y002724D01*
X030122Y002724D02*
X030122Y003121D01*
D17*
X028333Y002555D03*
X028333Y021555D03*
D18*
X027333Y021555D03*
X026333Y021555D03*
X025333Y021555D03*
X024333Y021555D03*
X023333Y021555D03*
X022333Y021555D03*
X021333Y021555D03*
X020333Y021555D03*
X019333Y021555D03*
X018333Y021555D03*
X017333Y021555D03*
X016333Y021555D03*
X015333Y021555D03*
X014333Y021555D03*
X013333Y021555D03*
X012333Y021555D03*
X011333Y021555D03*
X010333Y021555D03*
X009333Y021555D03*
X008333Y021555D03*
X007333Y021555D03*
X006333Y021555D03*
X006333Y020555D03*
X007333Y020555D03*
X008333Y020555D03*
X009333Y020555D03*
X010333Y020555D03*
X011333Y020555D03*
X012333Y020555D03*
X013333Y020555D03*
X014333Y020555D03*
X015333Y020555D03*
X016333Y020555D03*
X017333Y020555D03*
X018333Y020555D03*
X019333Y020555D03*
X020333Y020555D03*
X021333Y020555D03*
X022333Y020555D03*
X023333Y020555D03*
X024333Y020555D03*
X025333Y020555D03*
X026333Y020555D03*
X027333Y020555D03*
X028333Y020555D03*
X027333Y002555D03*
X026333Y002555D03*
X025333Y002555D03*
X024333Y002555D03*
X023333Y002555D03*
X022333Y002555D03*
X021333Y002555D03*
X020333Y002555D03*
X019333Y002555D03*
X018333Y002555D03*
X017333Y002555D03*
X016333Y002555D03*
X015333Y002555D03*
X014333Y002555D03*
X013333Y002555D03*
X012333Y002555D03*
X011333Y002555D03*
X010333Y002555D03*
X009333Y002555D03*
X008333Y002555D03*
X007333Y002555D03*
X006333Y002555D03*
X006333Y001555D03*
X007333Y001555D03*
X008333Y001555D03*
X009333Y001555D03*
X010333Y001555D03*
X011333Y001555D03*
X012333Y001555D03*
X013333Y001555D03*
X014333Y001555D03*
X015333Y001555D03*
X016333Y001555D03*
X017333Y001555D03*
X018333Y001555D03*
X019333Y001555D03*
X020333Y001555D03*
X021333Y001555D03*
X022333Y001555D03*
X023333Y001555D03*
X024333Y001555D03*
X025333Y001555D03*
X026333Y001555D03*
X027333Y001555D03*
X028333Y001555D03*
D19*
X024900Y013181D03*
X024900Y013929D03*
X025766Y013555D03*
D20*
X016583Y017806D03*
X016583Y018554D03*
X016583Y018556D03*
X016583Y019304D03*
X008458Y013554D03*
X008458Y012806D03*
X008521Y010429D03*
X008521Y009681D03*
X011708Y006992D03*
X011708Y006243D03*
D21*
X017522Y010680D03*
X018270Y010680D03*
X024647Y012243D03*
X025395Y012243D03*
X030772Y010930D03*
X031520Y010930D03*
X031897Y012680D03*
X032645Y012680D03*
X033272Y008180D03*
X034020Y008180D03*
X013457Y018243D03*
X012709Y018243D03*
D22*
X018646Y016368D03*
X024708Y017555D03*
X037333Y021493D03*
X026146Y008993D03*
X023958Y006305D03*
X017583Y006243D03*
X036833Y001805D03*
D23*
X029458Y006805D03*
X030458Y008055D03*
X032083Y008180D03*
X033583Y009180D03*
X034521Y007555D03*
X034958Y006930D03*
X023208Y009055D03*
X021833Y009930D03*
X020833Y012930D03*
X017146Y013555D03*
X015208Y014055D03*
X013977Y013930D03*
X013333Y012930D03*
X009833Y014305D03*
X008708Y015430D03*
X012458Y015805D03*
X014083Y016930D03*
X009583Y011180D03*
X009208Y010680D03*
X029958Y016680D03*
X030208Y015930D03*
X031833Y015305D03*
X032583Y015055D03*
X034333Y015555D03*
X035583Y014680D03*
X033083Y017555D03*
X035458Y018555D03*
M02*
