%
M48
M72
T01C0.0236
T02C0.0276
T03C0.0320
T04C0.0400
T05C0.0551
T06C0.1181
T07C0.1260
%
T01
X12208Y9708
X12458Y13271
X11771Y13271
X17208Y10458
X16083Y18896
X8708Y20271
T02
X5083Y18083
X5083Y17083
X5083Y16083
T03
X6958Y16458
X8958Y15458
X8958Y17458
X4646Y21583
X3646Y21583
X3583Y24833
X4583Y24833
X4583Y6583
X3583Y6583
T04
X8021Y21583
X9021Y21583
X10021Y21583
X29646Y13583
X29646Y11583
T05
X29083Y7748
X29083Y5583
X36083Y5583
X36083Y7748
X37083Y10756
X34918Y10756
X34918Y12410
X37083Y12410
X37083Y19756
X37083Y21410
X34918Y21410
X34918Y19756
X36083Y23918
X36083Y26083
X29083Y26083
X29083Y23918
X22083Y23918
X22083Y26083
X15083Y26083
X15083Y23918
X8083Y23918
X8083Y26083
X7748Y11583
X5583Y11583
X8083Y7748
X8083Y5583
X15083Y5583
X15083Y7748
X22083Y7748
X22083Y5583
T06
X4021Y4146
X3958Y27333
X38146Y25458
X38333Y6333
T07
X37855Y3930
X34311Y3930
X30855Y3930
X27311Y3930
X23855Y3930
X20311Y3930
X16855Y3930
X13311Y3930
X9855Y3930
X6311Y3930
X3930Y9811
X3930Y13355
X6311Y27737
X9855Y27737
X13311Y27737
X16855Y27737
X20311Y27737
X23855Y27737
X27311Y27737
X30855Y27737
X34311Y27737
X37855Y27737
X38737Y23181
X38737Y17985
X38737Y14181
X38737Y8985
M30
