G75*
%MOIN*%
%OFA0B0*%
%FSLAX24Y24*%
%IPPOS*%
%LPD*%
%AMOC8*
5,1,8,0,0,1.08239X$1,22.5*
%
%ADD10C,0.0000*%
%ADD11C,0.1000*%
%ADD12OC8,0.1000*%
%ADD13OC8,0.0660*%
%ADD14R,0.0827X0.0827*%
%ADD15C,0.0900*%
%ADD16C,0.0476*%
%ADD17C,0.0160*%
%ADD18C,0.0100*%
%ADD19R,0.0396X0.0396*%
%ADD20C,0.2000*%
%ADD21C,0.0396*%
%ADD22C,0.1000*%
D10*
X002583Y002708D02*
X002583Y027454D01*
X040453Y027454D01*
X040453Y002583D01*
X002583Y002708D01*
X005181Y003930D02*
X005183Y003980D01*
X005189Y004030D01*
X005199Y004079D01*
X005213Y004127D01*
X005230Y004174D01*
X005251Y004219D01*
X005276Y004263D01*
X005304Y004304D01*
X005336Y004343D01*
X005370Y004380D01*
X005407Y004414D01*
X005447Y004444D01*
X005489Y004471D01*
X005533Y004495D01*
X005579Y004516D01*
X005626Y004532D01*
X005674Y004545D01*
X005724Y004554D01*
X005773Y004559D01*
X005824Y004560D01*
X005874Y004557D01*
X005923Y004550D01*
X005972Y004539D01*
X006020Y004524D01*
X006066Y004506D01*
X006111Y004484D01*
X006154Y004458D01*
X006195Y004429D01*
X006234Y004397D01*
X006270Y004362D01*
X006302Y004324D01*
X006332Y004284D01*
X006359Y004241D01*
X006382Y004197D01*
X006401Y004151D01*
X006417Y004103D01*
X006429Y004054D01*
X006437Y004005D01*
X006441Y003955D01*
X006441Y003905D01*
X006437Y003855D01*
X006429Y003806D01*
X006417Y003757D01*
X006401Y003709D01*
X006382Y003663D01*
X006359Y003619D01*
X006332Y003576D01*
X006302Y003536D01*
X006270Y003498D01*
X006234Y003463D01*
X006195Y003431D01*
X006154Y003402D01*
X006111Y003376D01*
X006066Y003354D01*
X006020Y003336D01*
X005972Y003321D01*
X005923Y003310D01*
X005874Y003303D01*
X005824Y003300D01*
X005773Y003301D01*
X005724Y003306D01*
X005674Y003315D01*
X005626Y003328D01*
X005579Y003344D01*
X005533Y003365D01*
X005489Y003389D01*
X005447Y003416D01*
X005407Y003446D01*
X005370Y003480D01*
X005336Y003517D01*
X005304Y003556D01*
X005276Y003597D01*
X005251Y003641D01*
X005230Y003686D01*
X005213Y003733D01*
X005199Y003781D01*
X005189Y003830D01*
X005183Y003880D01*
X005181Y003930D01*
X008725Y003930D02*
X008727Y003980D01*
X008733Y004030D01*
X008743Y004079D01*
X008757Y004127D01*
X008774Y004174D01*
X008795Y004219D01*
X008820Y004263D01*
X008848Y004304D01*
X008880Y004343D01*
X008914Y004380D01*
X008951Y004414D01*
X008991Y004444D01*
X009033Y004471D01*
X009077Y004495D01*
X009123Y004516D01*
X009170Y004532D01*
X009218Y004545D01*
X009268Y004554D01*
X009317Y004559D01*
X009368Y004560D01*
X009418Y004557D01*
X009467Y004550D01*
X009516Y004539D01*
X009564Y004524D01*
X009610Y004506D01*
X009655Y004484D01*
X009698Y004458D01*
X009739Y004429D01*
X009778Y004397D01*
X009814Y004362D01*
X009846Y004324D01*
X009876Y004284D01*
X009903Y004241D01*
X009926Y004197D01*
X009945Y004151D01*
X009961Y004103D01*
X009973Y004054D01*
X009981Y004005D01*
X009985Y003955D01*
X009985Y003905D01*
X009981Y003855D01*
X009973Y003806D01*
X009961Y003757D01*
X009945Y003709D01*
X009926Y003663D01*
X009903Y003619D01*
X009876Y003576D01*
X009846Y003536D01*
X009814Y003498D01*
X009778Y003463D01*
X009739Y003431D01*
X009698Y003402D01*
X009655Y003376D01*
X009610Y003354D01*
X009564Y003336D01*
X009516Y003321D01*
X009467Y003310D01*
X009418Y003303D01*
X009368Y003300D01*
X009317Y003301D01*
X009268Y003306D01*
X009218Y003315D01*
X009170Y003328D01*
X009123Y003344D01*
X009077Y003365D01*
X009033Y003389D01*
X008991Y003416D01*
X008951Y003446D01*
X008914Y003480D01*
X008880Y003517D01*
X008848Y003556D01*
X008820Y003597D01*
X008795Y003641D01*
X008774Y003686D01*
X008757Y003733D01*
X008743Y003781D01*
X008733Y003830D01*
X008727Y003880D01*
X008725Y003930D01*
X012181Y003930D02*
X012183Y003980D01*
X012189Y004030D01*
X012199Y004079D01*
X012213Y004127D01*
X012230Y004174D01*
X012251Y004219D01*
X012276Y004263D01*
X012304Y004304D01*
X012336Y004343D01*
X012370Y004380D01*
X012407Y004414D01*
X012447Y004444D01*
X012489Y004471D01*
X012533Y004495D01*
X012579Y004516D01*
X012626Y004532D01*
X012674Y004545D01*
X012724Y004554D01*
X012773Y004559D01*
X012824Y004560D01*
X012874Y004557D01*
X012923Y004550D01*
X012972Y004539D01*
X013020Y004524D01*
X013066Y004506D01*
X013111Y004484D01*
X013154Y004458D01*
X013195Y004429D01*
X013234Y004397D01*
X013270Y004362D01*
X013302Y004324D01*
X013332Y004284D01*
X013359Y004241D01*
X013382Y004197D01*
X013401Y004151D01*
X013417Y004103D01*
X013429Y004054D01*
X013437Y004005D01*
X013441Y003955D01*
X013441Y003905D01*
X013437Y003855D01*
X013429Y003806D01*
X013417Y003757D01*
X013401Y003709D01*
X013382Y003663D01*
X013359Y003619D01*
X013332Y003576D01*
X013302Y003536D01*
X013270Y003498D01*
X013234Y003463D01*
X013195Y003431D01*
X013154Y003402D01*
X013111Y003376D01*
X013066Y003354D01*
X013020Y003336D01*
X012972Y003321D01*
X012923Y003310D01*
X012874Y003303D01*
X012824Y003300D01*
X012773Y003301D01*
X012724Y003306D01*
X012674Y003315D01*
X012626Y003328D01*
X012579Y003344D01*
X012533Y003365D01*
X012489Y003389D01*
X012447Y003416D01*
X012407Y003446D01*
X012370Y003480D01*
X012336Y003517D01*
X012304Y003556D01*
X012276Y003597D01*
X012251Y003641D01*
X012230Y003686D01*
X012213Y003733D01*
X012199Y003781D01*
X012189Y003830D01*
X012183Y003880D01*
X012181Y003930D01*
X015725Y003930D02*
X015727Y003980D01*
X015733Y004030D01*
X015743Y004079D01*
X015757Y004127D01*
X015774Y004174D01*
X015795Y004219D01*
X015820Y004263D01*
X015848Y004304D01*
X015880Y004343D01*
X015914Y004380D01*
X015951Y004414D01*
X015991Y004444D01*
X016033Y004471D01*
X016077Y004495D01*
X016123Y004516D01*
X016170Y004532D01*
X016218Y004545D01*
X016268Y004554D01*
X016317Y004559D01*
X016368Y004560D01*
X016418Y004557D01*
X016467Y004550D01*
X016516Y004539D01*
X016564Y004524D01*
X016610Y004506D01*
X016655Y004484D01*
X016698Y004458D01*
X016739Y004429D01*
X016778Y004397D01*
X016814Y004362D01*
X016846Y004324D01*
X016876Y004284D01*
X016903Y004241D01*
X016926Y004197D01*
X016945Y004151D01*
X016961Y004103D01*
X016973Y004054D01*
X016981Y004005D01*
X016985Y003955D01*
X016985Y003905D01*
X016981Y003855D01*
X016973Y003806D01*
X016961Y003757D01*
X016945Y003709D01*
X016926Y003663D01*
X016903Y003619D01*
X016876Y003576D01*
X016846Y003536D01*
X016814Y003498D01*
X016778Y003463D01*
X016739Y003431D01*
X016698Y003402D01*
X016655Y003376D01*
X016610Y003354D01*
X016564Y003336D01*
X016516Y003321D01*
X016467Y003310D01*
X016418Y003303D01*
X016368Y003300D01*
X016317Y003301D01*
X016268Y003306D01*
X016218Y003315D01*
X016170Y003328D01*
X016123Y003344D01*
X016077Y003365D01*
X016033Y003389D01*
X015991Y003416D01*
X015951Y003446D01*
X015914Y003480D01*
X015880Y003517D01*
X015848Y003556D01*
X015820Y003597D01*
X015795Y003641D01*
X015774Y003686D01*
X015757Y003733D01*
X015743Y003781D01*
X015733Y003830D01*
X015727Y003880D01*
X015725Y003930D01*
X019181Y003930D02*
X019183Y003980D01*
X019189Y004030D01*
X019199Y004079D01*
X019213Y004127D01*
X019230Y004174D01*
X019251Y004219D01*
X019276Y004263D01*
X019304Y004304D01*
X019336Y004343D01*
X019370Y004380D01*
X019407Y004414D01*
X019447Y004444D01*
X019489Y004471D01*
X019533Y004495D01*
X019579Y004516D01*
X019626Y004532D01*
X019674Y004545D01*
X019724Y004554D01*
X019773Y004559D01*
X019824Y004560D01*
X019874Y004557D01*
X019923Y004550D01*
X019972Y004539D01*
X020020Y004524D01*
X020066Y004506D01*
X020111Y004484D01*
X020154Y004458D01*
X020195Y004429D01*
X020234Y004397D01*
X020270Y004362D01*
X020302Y004324D01*
X020332Y004284D01*
X020359Y004241D01*
X020382Y004197D01*
X020401Y004151D01*
X020417Y004103D01*
X020429Y004054D01*
X020437Y004005D01*
X020441Y003955D01*
X020441Y003905D01*
X020437Y003855D01*
X020429Y003806D01*
X020417Y003757D01*
X020401Y003709D01*
X020382Y003663D01*
X020359Y003619D01*
X020332Y003576D01*
X020302Y003536D01*
X020270Y003498D01*
X020234Y003463D01*
X020195Y003431D01*
X020154Y003402D01*
X020111Y003376D01*
X020066Y003354D01*
X020020Y003336D01*
X019972Y003321D01*
X019923Y003310D01*
X019874Y003303D01*
X019824Y003300D01*
X019773Y003301D01*
X019724Y003306D01*
X019674Y003315D01*
X019626Y003328D01*
X019579Y003344D01*
X019533Y003365D01*
X019489Y003389D01*
X019447Y003416D01*
X019407Y003446D01*
X019370Y003480D01*
X019336Y003517D01*
X019304Y003556D01*
X019276Y003597D01*
X019251Y003641D01*
X019230Y003686D01*
X019213Y003733D01*
X019199Y003781D01*
X019189Y003830D01*
X019183Y003880D01*
X019181Y003930D01*
X022725Y003930D02*
X022727Y003980D01*
X022733Y004030D01*
X022743Y004079D01*
X022757Y004127D01*
X022774Y004174D01*
X022795Y004219D01*
X022820Y004263D01*
X022848Y004304D01*
X022880Y004343D01*
X022914Y004380D01*
X022951Y004414D01*
X022991Y004444D01*
X023033Y004471D01*
X023077Y004495D01*
X023123Y004516D01*
X023170Y004532D01*
X023218Y004545D01*
X023268Y004554D01*
X023317Y004559D01*
X023368Y004560D01*
X023418Y004557D01*
X023467Y004550D01*
X023516Y004539D01*
X023564Y004524D01*
X023610Y004506D01*
X023655Y004484D01*
X023698Y004458D01*
X023739Y004429D01*
X023778Y004397D01*
X023814Y004362D01*
X023846Y004324D01*
X023876Y004284D01*
X023903Y004241D01*
X023926Y004197D01*
X023945Y004151D01*
X023961Y004103D01*
X023973Y004054D01*
X023981Y004005D01*
X023985Y003955D01*
X023985Y003905D01*
X023981Y003855D01*
X023973Y003806D01*
X023961Y003757D01*
X023945Y003709D01*
X023926Y003663D01*
X023903Y003619D01*
X023876Y003576D01*
X023846Y003536D01*
X023814Y003498D01*
X023778Y003463D01*
X023739Y003431D01*
X023698Y003402D01*
X023655Y003376D01*
X023610Y003354D01*
X023564Y003336D01*
X023516Y003321D01*
X023467Y003310D01*
X023418Y003303D01*
X023368Y003300D01*
X023317Y003301D01*
X023268Y003306D01*
X023218Y003315D01*
X023170Y003328D01*
X023123Y003344D01*
X023077Y003365D01*
X023033Y003389D01*
X022991Y003416D01*
X022951Y003446D01*
X022914Y003480D01*
X022880Y003517D01*
X022848Y003556D01*
X022820Y003597D01*
X022795Y003641D01*
X022774Y003686D01*
X022757Y003733D01*
X022743Y003781D01*
X022733Y003830D01*
X022727Y003880D01*
X022725Y003930D01*
X026181Y003930D02*
X026183Y003980D01*
X026189Y004030D01*
X026199Y004079D01*
X026213Y004127D01*
X026230Y004174D01*
X026251Y004219D01*
X026276Y004263D01*
X026304Y004304D01*
X026336Y004343D01*
X026370Y004380D01*
X026407Y004414D01*
X026447Y004444D01*
X026489Y004471D01*
X026533Y004495D01*
X026579Y004516D01*
X026626Y004532D01*
X026674Y004545D01*
X026724Y004554D01*
X026773Y004559D01*
X026824Y004560D01*
X026874Y004557D01*
X026923Y004550D01*
X026972Y004539D01*
X027020Y004524D01*
X027066Y004506D01*
X027111Y004484D01*
X027154Y004458D01*
X027195Y004429D01*
X027234Y004397D01*
X027270Y004362D01*
X027302Y004324D01*
X027332Y004284D01*
X027359Y004241D01*
X027382Y004197D01*
X027401Y004151D01*
X027417Y004103D01*
X027429Y004054D01*
X027437Y004005D01*
X027441Y003955D01*
X027441Y003905D01*
X027437Y003855D01*
X027429Y003806D01*
X027417Y003757D01*
X027401Y003709D01*
X027382Y003663D01*
X027359Y003619D01*
X027332Y003576D01*
X027302Y003536D01*
X027270Y003498D01*
X027234Y003463D01*
X027195Y003431D01*
X027154Y003402D01*
X027111Y003376D01*
X027066Y003354D01*
X027020Y003336D01*
X026972Y003321D01*
X026923Y003310D01*
X026874Y003303D01*
X026824Y003300D01*
X026773Y003301D01*
X026724Y003306D01*
X026674Y003315D01*
X026626Y003328D01*
X026579Y003344D01*
X026533Y003365D01*
X026489Y003389D01*
X026447Y003416D01*
X026407Y003446D01*
X026370Y003480D01*
X026336Y003517D01*
X026304Y003556D01*
X026276Y003597D01*
X026251Y003641D01*
X026230Y003686D01*
X026213Y003733D01*
X026199Y003781D01*
X026189Y003830D01*
X026183Y003880D01*
X026181Y003930D01*
X029725Y003930D02*
X029727Y003980D01*
X029733Y004030D01*
X029743Y004079D01*
X029757Y004127D01*
X029774Y004174D01*
X029795Y004219D01*
X029820Y004263D01*
X029848Y004304D01*
X029880Y004343D01*
X029914Y004380D01*
X029951Y004414D01*
X029991Y004444D01*
X030033Y004471D01*
X030077Y004495D01*
X030123Y004516D01*
X030170Y004532D01*
X030218Y004545D01*
X030268Y004554D01*
X030317Y004559D01*
X030368Y004560D01*
X030418Y004557D01*
X030467Y004550D01*
X030516Y004539D01*
X030564Y004524D01*
X030610Y004506D01*
X030655Y004484D01*
X030698Y004458D01*
X030739Y004429D01*
X030778Y004397D01*
X030814Y004362D01*
X030846Y004324D01*
X030876Y004284D01*
X030903Y004241D01*
X030926Y004197D01*
X030945Y004151D01*
X030961Y004103D01*
X030973Y004054D01*
X030981Y004005D01*
X030985Y003955D01*
X030985Y003905D01*
X030981Y003855D01*
X030973Y003806D01*
X030961Y003757D01*
X030945Y003709D01*
X030926Y003663D01*
X030903Y003619D01*
X030876Y003576D01*
X030846Y003536D01*
X030814Y003498D01*
X030778Y003463D01*
X030739Y003431D01*
X030698Y003402D01*
X030655Y003376D01*
X030610Y003354D01*
X030564Y003336D01*
X030516Y003321D01*
X030467Y003310D01*
X030418Y003303D01*
X030368Y003300D01*
X030317Y003301D01*
X030268Y003306D01*
X030218Y003315D01*
X030170Y003328D01*
X030123Y003344D01*
X030077Y003365D01*
X030033Y003389D01*
X029991Y003416D01*
X029951Y003446D01*
X029914Y003480D01*
X029880Y003517D01*
X029848Y003556D01*
X029820Y003597D01*
X029795Y003641D01*
X029774Y003686D01*
X029757Y003733D01*
X029743Y003781D01*
X029733Y003830D01*
X029727Y003880D01*
X029725Y003930D01*
X033181Y003930D02*
X033183Y003980D01*
X033189Y004030D01*
X033199Y004079D01*
X033213Y004127D01*
X033230Y004174D01*
X033251Y004219D01*
X033276Y004263D01*
X033304Y004304D01*
X033336Y004343D01*
X033370Y004380D01*
X033407Y004414D01*
X033447Y004444D01*
X033489Y004471D01*
X033533Y004495D01*
X033579Y004516D01*
X033626Y004532D01*
X033674Y004545D01*
X033724Y004554D01*
X033773Y004559D01*
X033824Y004560D01*
X033874Y004557D01*
X033923Y004550D01*
X033972Y004539D01*
X034020Y004524D01*
X034066Y004506D01*
X034111Y004484D01*
X034154Y004458D01*
X034195Y004429D01*
X034234Y004397D01*
X034270Y004362D01*
X034302Y004324D01*
X034332Y004284D01*
X034359Y004241D01*
X034382Y004197D01*
X034401Y004151D01*
X034417Y004103D01*
X034429Y004054D01*
X034437Y004005D01*
X034441Y003955D01*
X034441Y003905D01*
X034437Y003855D01*
X034429Y003806D01*
X034417Y003757D01*
X034401Y003709D01*
X034382Y003663D01*
X034359Y003619D01*
X034332Y003576D01*
X034302Y003536D01*
X034270Y003498D01*
X034234Y003463D01*
X034195Y003431D01*
X034154Y003402D01*
X034111Y003376D01*
X034066Y003354D01*
X034020Y003336D01*
X033972Y003321D01*
X033923Y003310D01*
X033874Y003303D01*
X033824Y003300D01*
X033773Y003301D01*
X033724Y003306D01*
X033674Y003315D01*
X033626Y003328D01*
X033579Y003344D01*
X033533Y003365D01*
X033489Y003389D01*
X033447Y003416D01*
X033407Y003446D01*
X033370Y003480D01*
X033336Y003517D01*
X033304Y003556D01*
X033276Y003597D01*
X033251Y003641D01*
X033230Y003686D01*
X033213Y003733D01*
X033199Y003781D01*
X033189Y003830D01*
X033183Y003880D01*
X033181Y003930D01*
X036725Y003930D02*
X036727Y003980D01*
X036733Y004030D01*
X036743Y004079D01*
X036757Y004127D01*
X036774Y004174D01*
X036795Y004219D01*
X036820Y004263D01*
X036848Y004304D01*
X036880Y004343D01*
X036914Y004380D01*
X036951Y004414D01*
X036991Y004444D01*
X037033Y004471D01*
X037077Y004495D01*
X037123Y004516D01*
X037170Y004532D01*
X037218Y004545D01*
X037268Y004554D01*
X037317Y004559D01*
X037368Y004560D01*
X037418Y004557D01*
X037467Y004550D01*
X037516Y004539D01*
X037564Y004524D01*
X037610Y004506D01*
X037655Y004484D01*
X037698Y004458D01*
X037739Y004429D01*
X037778Y004397D01*
X037814Y004362D01*
X037846Y004324D01*
X037876Y004284D01*
X037903Y004241D01*
X037926Y004197D01*
X037945Y004151D01*
X037961Y004103D01*
X037973Y004054D01*
X037981Y004005D01*
X037985Y003955D01*
X037985Y003905D01*
X037981Y003855D01*
X037973Y003806D01*
X037961Y003757D01*
X037945Y003709D01*
X037926Y003663D01*
X037903Y003619D01*
X037876Y003576D01*
X037846Y003536D01*
X037814Y003498D01*
X037778Y003463D01*
X037739Y003431D01*
X037698Y003402D01*
X037655Y003376D01*
X037610Y003354D01*
X037564Y003336D01*
X037516Y003321D01*
X037467Y003310D01*
X037418Y003303D01*
X037368Y003300D01*
X037317Y003301D01*
X037268Y003306D01*
X037218Y003315D01*
X037170Y003328D01*
X037123Y003344D01*
X037077Y003365D01*
X037033Y003389D01*
X036991Y003416D01*
X036951Y003446D01*
X036914Y003480D01*
X036880Y003517D01*
X036848Y003556D01*
X036820Y003597D01*
X036795Y003641D01*
X036774Y003686D01*
X036757Y003733D01*
X036743Y003781D01*
X036733Y003830D01*
X036727Y003880D01*
X036725Y003930D01*
X038607Y012485D02*
X038609Y012535D01*
X038615Y012585D01*
X038625Y012634D01*
X038639Y012682D01*
X038656Y012729D01*
X038677Y012774D01*
X038702Y012818D01*
X038730Y012859D01*
X038762Y012898D01*
X038796Y012935D01*
X038833Y012969D01*
X038873Y012999D01*
X038915Y013026D01*
X038959Y013050D01*
X039005Y013071D01*
X039052Y013087D01*
X039100Y013100D01*
X039150Y013109D01*
X039199Y013114D01*
X039250Y013115D01*
X039300Y013112D01*
X039349Y013105D01*
X039398Y013094D01*
X039446Y013079D01*
X039492Y013061D01*
X039537Y013039D01*
X039580Y013013D01*
X039621Y012984D01*
X039660Y012952D01*
X039696Y012917D01*
X039728Y012879D01*
X039758Y012839D01*
X039785Y012796D01*
X039808Y012752D01*
X039827Y012706D01*
X039843Y012658D01*
X039855Y012609D01*
X039863Y012560D01*
X039867Y012510D01*
X039867Y012460D01*
X039863Y012410D01*
X039855Y012361D01*
X039843Y012312D01*
X039827Y012264D01*
X039808Y012218D01*
X039785Y012174D01*
X039758Y012131D01*
X039728Y012091D01*
X039696Y012053D01*
X039660Y012018D01*
X039621Y011986D01*
X039580Y011957D01*
X039537Y011931D01*
X039492Y011909D01*
X039446Y011891D01*
X039398Y011876D01*
X039349Y011865D01*
X039300Y011858D01*
X039250Y011855D01*
X039199Y011856D01*
X039150Y011861D01*
X039100Y011870D01*
X039052Y011883D01*
X039005Y011899D01*
X038959Y011920D01*
X038915Y011944D01*
X038873Y011971D01*
X038833Y012001D01*
X038796Y012035D01*
X038762Y012072D01*
X038730Y012111D01*
X038702Y012152D01*
X038677Y012196D01*
X038656Y012241D01*
X038639Y012288D01*
X038625Y012336D01*
X038615Y012385D01*
X038609Y012435D01*
X038607Y012485D01*
X038607Y017681D02*
X038609Y017731D01*
X038615Y017781D01*
X038625Y017830D01*
X038639Y017878D01*
X038656Y017925D01*
X038677Y017970D01*
X038702Y018014D01*
X038730Y018055D01*
X038762Y018094D01*
X038796Y018131D01*
X038833Y018165D01*
X038873Y018195D01*
X038915Y018222D01*
X038959Y018246D01*
X039005Y018267D01*
X039052Y018283D01*
X039100Y018296D01*
X039150Y018305D01*
X039199Y018310D01*
X039250Y018311D01*
X039300Y018308D01*
X039349Y018301D01*
X039398Y018290D01*
X039446Y018275D01*
X039492Y018257D01*
X039537Y018235D01*
X039580Y018209D01*
X039621Y018180D01*
X039660Y018148D01*
X039696Y018113D01*
X039728Y018075D01*
X039758Y018035D01*
X039785Y017992D01*
X039808Y017948D01*
X039827Y017902D01*
X039843Y017854D01*
X039855Y017805D01*
X039863Y017756D01*
X039867Y017706D01*
X039867Y017656D01*
X039863Y017606D01*
X039855Y017557D01*
X039843Y017508D01*
X039827Y017460D01*
X039808Y017414D01*
X039785Y017370D01*
X039758Y017327D01*
X039728Y017287D01*
X039696Y017249D01*
X039660Y017214D01*
X039621Y017182D01*
X039580Y017153D01*
X039537Y017127D01*
X039492Y017105D01*
X039446Y017087D01*
X039398Y017072D01*
X039349Y017061D01*
X039300Y017054D01*
X039250Y017051D01*
X039199Y017052D01*
X039150Y017057D01*
X039100Y017066D01*
X039052Y017079D01*
X039005Y017095D01*
X038959Y017116D01*
X038915Y017140D01*
X038873Y017167D01*
X038833Y017197D01*
X038796Y017231D01*
X038762Y017268D01*
X038730Y017307D01*
X038702Y017348D01*
X038677Y017392D01*
X038656Y017437D01*
X038639Y017484D01*
X038625Y017532D01*
X038615Y017581D01*
X038609Y017631D01*
X038607Y017681D01*
X036725Y026237D02*
X036727Y026287D01*
X036733Y026337D01*
X036743Y026386D01*
X036757Y026434D01*
X036774Y026481D01*
X036795Y026526D01*
X036820Y026570D01*
X036848Y026611D01*
X036880Y026650D01*
X036914Y026687D01*
X036951Y026721D01*
X036991Y026751D01*
X037033Y026778D01*
X037077Y026802D01*
X037123Y026823D01*
X037170Y026839D01*
X037218Y026852D01*
X037268Y026861D01*
X037317Y026866D01*
X037368Y026867D01*
X037418Y026864D01*
X037467Y026857D01*
X037516Y026846D01*
X037564Y026831D01*
X037610Y026813D01*
X037655Y026791D01*
X037698Y026765D01*
X037739Y026736D01*
X037778Y026704D01*
X037814Y026669D01*
X037846Y026631D01*
X037876Y026591D01*
X037903Y026548D01*
X037926Y026504D01*
X037945Y026458D01*
X037961Y026410D01*
X037973Y026361D01*
X037981Y026312D01*
X037985Y026262D01*
X037985Y026212D01*
X037981Y026162D01*
X037973Y026113D01*
X037961Y026064D01*
X037945Y026016D01*
X037926Y025970D01*
X037903Y025926D01*
X037876Y025883D01*
X037846Y025843D01*
X037814Y025805D01*
X037778Y025770D01*
X037739Y025738D01*
X037698Y025709D01*
X037655Y025683D01*
X037610Y025661D01*
X037564Y025643D01*
X037516Y025628D01*
X037467Y025617D01*
X037418Y025610D01*
X037368Y025607D01*
X037317Y025608D01*
X037268Y025613D01*
X037218Y025622D01*
X037170Y025635D01*
X037123Y025651D01*
X037077Y025672D01*
X037033Y025696D01*
X036991Y025723D01*
X036951Y025753D01*
X036914Y025787D01*
X036880Y025824D01*
X036848Y025863D01*
X036820Y025904D01*
X036795Y025948D01*
X036774Y025993D01*
X036757Y026040D01*
X036743Y026088D01*
X036733Y026137D01*
X036727Y026187D01*
X036725Y026237D01*
X033181Y026237D02*
X033183Y026287D01*
X033189Y026337D01*
X033199Y026386D01*
X033213Y026434D01*
X033230Y026481D01*
X033251Y026526D01*
X033276Y026570D01*
X033304Y026611D01*
X033336Y026650D01*
X033370Y026687D01*
X033407Y026721D01*
X033447Y026751D01*
X033489Y026778D01*
X033533Y026802D01*
X033579Y026823D01*
X033626Y026839D01*
X033674Y026852D01*
X033724Y026861D01*
X033773Y026866D01*
X033824Y026867D01*
X033874Y026864D01*
X033923Y026857D01*
X033972Y026846D01*
X034020Y026831D01*
X034066Y026813D01*
X034111Y026791D01*
X034154Y026765D01*
X034195Y026736D01*
X034234Y026704D01*
X034270Y026669D01*
X034302Y026631D01*
X034332Y026591D01*
X034359Y026548D01*
X034382Y026504D01*
X034401Y026458D01*
X034417Y026410D01*
X034429Y026361D01*
X034437Y026312D01*
X034441Y026262D01*
X034441Y026212D01*
X034437Y026162D01*
X034429Y026113D01*
X034417Y026064D01*
X034401Y026016D01*
X034382Y025970D01*
X034359Y025926D01*
X034332Y025883D01*
X034302Y025843D01*
X034270Y025805D01*
X034234Y025770D01*
X034195Y025738D01*
X034154Y025709D01*
X034111Y025683D01*
X034066Y025661D01*
X034020Y025643D01*
X033972Y025628D01*
X033923Y025617D01*
X033874Y025610D01*
X033824Y025607D01*
X033773Y025608D01*
X033724Y025613D01*
X033674Y025622D01*
X033626Y025635D01*
X033579Y025651D01*
X033533Y025672D01*
X033489Y025696D01*
X033447Y025723D01*
X033407Y025753D01*
X033370Y025787D01*
X033336Y025824D01*
X033304Y025863D01*
X033276Y025904D01*
X033251Y025948D01*
X033230Y025993D01*
X033213Y026040D01*
X033199Y026088D01*
X033189Y026137D01*
X033183Y026187D01*
X033181Y026237D01*
X029725Y026237D02*
X029727Y026287D01*
X029733Y026337D01*
X029743Y026386D01*
X029757Y026434D01*
X029774Y026481D01*
X029795Y026526D01*
X029820Y026570D01*
X029848Y026611D01*
X029880Y026650D01*
X029914Y026687D01*
X029951Y026721D01*
X029991Y026751D01*
X030033Y026778D01*
X030077Y026802D01*
X030123Y026823D01*
X030170Y026839D01*
X030218Y026852D01*
X030268Y026861D01*
X030317Y026866D01*
X030368Y026867D01*
X030418Y026864D01*
X030467Y026857D01*
X030516Y026846D01*
X030564Y026831D01*
X030610Y026813D01*
X030655Y026791D01*
X030698Y026765D01*
X030739Y026736D01*
X030778Y026704D01*
X030814Y026669D01*
X030846Y026631D01*
X030876Y026591D01*
X030903Y026548D01*
X030926Y026504D01*
X030945Y026458D01*
X030961Y026410D01*
X030973Y026361D01*
X030981Y026312D01*
X030985Y026262D01*
X030985Y026212D01*
X030981Y026162D01*
X030973Y026113D01*
X030961Y026064D01*
X030945Y026016D01*
X030926Y025970D01*
X030903Y025926D01*
X030876Y025883D01*
X030846Y025843D01*
X030814Y025805D01*
X030778Y025770D01*
X030739Y025738D01*
X030698Y025709D01*
X030655Y025683D01*
X030610Y025661D01*
X030564Y025643D01*
X030516Y025628D01*
X030467Y025617D01*
X030418Y025610D01*
X030368Y025607D01*
X030317Y025608D01*
X030268Y025613D01*
X030218Y025622D01*
X030170Y025635D01*
X030123Y025651D01*
X030077Y025672D01*
X030033Y025696D01*
X029991Y025723D01*
X029951Y025753D01*
X029914Y025787D01*
X029880Y025824D01*
X029848Y025863D01*
X029820Y025904D01*
X029795Y025948D01*
X029774Y025993D01*
X029757Y026040D01*
X029743Y026088D01*
X029733Y026137D01*
X029727Y026187D01*
X029725Y026237D01*
X026181Y026237D02*
X026183Y026287D01*
X026189Y026337D01*
X026199Y026386D01*
X026213Y026434D01*
X026230Y026481D01*
X026251Y026526D01*
X026276Y026570D01*
X026304Y026611D01*
X026336Y026650D01*
X026370Y026687D01*
X026407Y026721D01*
X026447Y026751D01*
X026489Y026778D01*
X026533Y026802D01*
X026579Y026823D01*
X026626Y026839D01*
X026674Y026852D01*
X026724Y026861D01*
X026773Y026866D01*
X026824Y026867D01*
X026874Y026864D01*
X026923Y026857D01*
X026972Y026846D01*
X027020Y026831D01*
X027066Y026813D01*
X027111Y026791D01*
X027154Y026765D01*
X027195Y026736D01*
X027234Y026704D01*
X027270Y026669D01*
X027302Y026631D01*
X027332Y026591D01*
X027359Y026548D01*
X027382Y026504D01*
X027401Y026458D01*
X027417Y026410D01*
X027429Y026361D01*
X027437Y026312D01*
X027441Y026262D01*
X027441Y026212D01*
X027437Y026162D01*
X027429Y026113D01*
X027417Y026064D01*
X027401Y026016D01*
X027382Y025970D01*
X027359Y025926D01*
X027332Y025883D01*
X027302Y025843D01*
X027270Y025805D01*
X027234Y025770D01*
X027195Y025738D01*
X027154Y025709D01*
X027111Y025683D01*
X027066Y025661D01*
X027020Y025643D01*
X026972Y025628D01*
X026923Y025617D01*
X026874Y025610D01*
X026824Y025607D01*
X026773Y025608D01*
X026724Y025613D01*
X026674Y025622D01*
X026626Y025635D01*
X026579Y025651D01*
X026533Y025672D01*
X026489Y025696D01*
X026447Y025723D01*
X026407Y025753D01*
X026370Y025787D01*
X026336Y025824D01*
X026304Y025863D01*
X026276Y025904D01*
X026251Y025948D01*
X026230Y025993D01*
X026213Y026040D01*
X026199Y026088D01*
X026189Y026137D01*
X026183Y026187D01*
X026181Y026237D01*
X022725Y026237D02*
X022727Y026287D01*
X022733Y026337D01*
X022743Y026386D01*
X022757Y026434D01*
X022774Y026481D01*
X022795Y026526D01*
X022820Y026570D01*
X022848Y026611D01*
X022880Y026650D01*
X022914Y026687D01*
X022951Y026721D01*
X022991Y026751D01*
X023033Y026778D01*
X023077Y026802D01*
X023123Y026823D01*
X023170Y026839D01*
X023218Y026852D01*
X023268Y026861D01*
X023317Y026866D01*
X023368Y026867D01*
X023418Y026864D01*
X023467Y026857D01*
X023516Y026846D01*
X023564Y026831D01*
X023610Y026813D01*
X023655Y026791D01*
X023698Y026765D01*
X023739Y026736D01*
X023778Y026704D01*
X023814Y026669D01*
X023846Y026631D01*
X023876Y026591D01*
X023903Y026548D01*
X023926Y026504D01*
X023945Y026458D01*
X023961Y026410D01*
X023973Y026361D01*
X023981Y026312D01*
X023985Y026262D01*
X023985Y026212D01*
X023981Y026162D01*
X023973Y026113D01*
X023961Y026064D01*
X023945Y026016D01*
X023926Y025970D01*
X023903Y025926D01*
X023876Y025883D01*
X023846Y025843D01*
X023814Y025805D01*
X023778Y025770D01*
X023739Y025738D01*
X023698Y025709D01*
X023655Y025683D01*
X023610Y025661D01*
X023564Y025643D01*
X023516Y025628D01*
X023467Y025617D01*
X023418Y025610D01*
X023368Y025607D01*
X023317Y025608D01*
X023268Y025613D01*
X023218Y025622D01*
X023170Y025635D01*
X023123Y025651D01*
X023077Y025672D01*
X023033Y025696D01*
X022991Y025723D01*
X022951Y025753D01*
X022914Y025787D01*
X022880Y025824D01*
X022848Y025863D01*
X022820Y025904D01*
X022795Y025948D01*
X022774Y025993D01*
X022757Y026040D01*
X022743Y026088D01*
X022733Y026137D01*
X022727Y026187D01*
X022725Y026237D01*
X019181Y026237D02*
X019183Y026287D01*
X019189Y026337D01*
X019199Y026386D01*
X019213Y026434D01*
X019230Y026481D01*
X019251Y026526D01*
X019276Y026570D01*
X019304Y026611D01*
X019336Y026650D01*
X019370Y026687D01*
X019407Y026721D01*
X019447Y026751D01*
X019489Y026778D01*
X019533Y026802D01*
X019579Y026823D01*
X019626Y026839D01*
X019674Y026852D01*
X019724Y026861D01*
X019773Y026866D01*
X019824Y026867D01*
X019874Y026864D01*
X019923Y026857D01*
X019972Y026846D01*
X020020Y026831D01*
X020066Y026813D01*
X020111Y026791D01*
X020154Y026765D01*
X020195Y026736D01*
X020234Y026704D01*
X020270Y026669D01*
X020302Y026631D01*
X020332Y026591D01*
X020359Y026548D01*
X020382Y026504D01*
X020401Y026458D01*
X020417Y026410D01*
X020429Y026361D01*
X020437Y026312D01*
X020441Y026262D01*
X020441Y026212D01*
X020437Y026162D01*
X020429Y026113D01*
X020417Y026064D01*
X020401Y026016D01*
X020382Y025970D01*
X020359Y025926D01*
X020332Y025883D01*
X020302Y025843D01*
X020270Y025805D01*
X020234Y025770D01*
X020195Y025738D01*
X020154Y025709D01*
X020111Y025683D01*
X020066Y025661D01*
X020020Y025643D01*
X019972Y025628D01*
X019923Y025617D01*
X019874Y025610D01*
X019824Y025607D01*
X019773Y025608D01*
X019724Y025613D01*
X019674Y025622D01*
X019626Y025635D01*
X019579Y025651D01*
X019533Y025672D01*
X019489Y025696D01*
X019447Y025723D01*
X019407Y025753D01*
X019370Y025787D01*
X019336Y025824D01*
X019304Y025863D01*
X019276Y025904D01*
X019251Y025948D01*
X019230Y025993D01*
X019213Y026040D01*
X019199Y026088D01*
X019189Y026137D01*
X019183Y026187D01*
X019181Y026237D01*
X015725Y026237D02*
X015727Y026287D01*
X015733Y026337D01*
X015743Y026386D01*
X015757Y026434D01*
X015774Y026481D01*
X015795Y026526D01*
X015820Y026570D01*
X015848Y026611D01*
X015880Y026650D01*
X015914Y026687D01*
X015951Y026721D01*
X015991Y026751D01*
X016033Y026778D01*
X016077Y026802D01*
X016123Y026823D01*
X016170Y026839D01*
X016218Y026852D01*
X016268Y026861D01*
X016317Y026866D01*
X016368Y026867D01*
X016418Y026864D01*
X016467Y026857D01*
X016516Y026846D01*
X016564Y026831D01*
X016610Y026813D01*
X016655Y026791D01*
X016698Y026765D01*
X016739Y026736D01*
X016778Y026704D01*
X016814Y026669D01*
X016846Y026631D01*
X016876Y026591D01*
X016903Y026548D01*
X016926Y026504D01*
X016945Y026458D01*
X016961Y026410D01*
X016973Y026361D01*
X016981Y026312D01*
X016985Y026262D01*
X016985Y026212D01*
X016981Y026162D01*
X016973Y026113D01*
X016961Y026064D01*
X016945Y026016D01*
X016926Y025970D01*
X016903Y025926D01*
X016876Y025883D01*
X016846Y025843D01*
X016814Y025805D01*
X016778Y025770D01*
X016739Y025738D01*
X016698Y025709D01*
X016655Y025683D01*
X016610Y025661D01*
X016564Y025643D01*
X016516Y025628D01*
X016467Y025617D01*
X016418Y025610D01*
X016368Y025607D01*
X016317Y025608D01*
X016268Y025613D01*
X016218Y025622D01*
X016170Y025635D01*
X016123Y025651D01*
X016077Y025672D01*
X016033Y025696D01*
X015991Y025723D01*
X015951Y025753D01*
X015914Y025787D01*
X015880Y025824D01*
X015848Y025863D01*
X015820Y025904D01*
X015795Y025948D01*
X015774Y025993D01*
X015757Y026040D01*
X015743Y026088D01*
X015733Y026137D01*
X015727Y026187D01*
X015725Y026237D01*
X012181Y026237D02*
X012183Y026287D01*
X012189Y026337D01*
X012199Y026386D01*
X012213Y026434D01*
X012230Y026481D01*
X012251Y026526D01*
X012276Y026570D01*
X012304Y026611D01*
X012336Y026650D01*
X012370Y026687D01*
X012407Y026721D01*
X012447Y026751D01*
X012489Y026778D01*
X012533Y026802D01*
X012579Y026823D01*
X012626Y026839D01*
X012674Y026852D01*
X012724Y026861D01*
X012773Y026866D01*
X012824Y026867D01*
X012874Y026864D01*
X012923Y026857D01*
X012972Y026846D01*
X013020Y026831D01*
X013066Y026813D01*
X013111Y026791D01*
X013154Y026765D01*
X013195Y026736D01*
X013234Y026704D01*
X013270Y026669D01*
X013302Y026631D01*
X013332Y026591D01*
X013359Y026548D01*
X013382Y026504D01*
X013401Y026458D01*
X013417Y026410D01*
X013429Y026361D01*
X013437Y026312D01*
X013441Y026262D01*
X013441Y026212D01*
X013437Y026162D01*
X013429Y026113D01*
X013417Y026064D01*
X013401Y026016D01*
X013382Y025970D01*
X013359Y025926D01*
X013332Y025883D01*
X013302Y025843D01*
X013270Y025805D01*
X013234Y025770D01*
X013195Y025738D01*
X013154Y025709D01*
X013111Y025683D01*
X013066Y025661D01*
X013020Y025643D01*
X012972Y025628D01*
X012923Y025617D01*
X012874Y025610D01*
X012824Y025607D01*
X012773Y025608D01*
X012724Y025613D01*
X012674Y025622D01*
X012626Y025635D01*
X012579Y025651D01*
X012533Y025672D01*
X012489Y025696D01*
X012447Y025723D01*
X012407Y025753D01*
X012370Y025787D01*
X012336Y025824D01*
X012304Y025863D01*
X012276Y025904D01*
X012251Y025948D01*
X012230Y025993D01*
X012213Y026040D01*
X012199Y026088D01*
X012189Y026137D01*
X012183Y026187D01*
X012181Y026237D01*
X008725Y026237D02*
X008727Y026287D01*
X008733Y026337D01*
X008743Y026386D01*
X008757Y026434D01*
X008774Y026481D01*
X008795Y026526D01*
X008820Y026570D01*
X008848Y026611D01*
X008880Y026650D01*
X008914Y026687D01*
X008951Y026721D01*
X008991Y026751D01*
X009033Y026778D01*
X009077Y026802D01*
X009123Y026823D01*
X009170Y026839D01*
X009218Y026852D01*
X009268Y026861D01*
X009317Y026866D01*
X009368Y026867D01*
X009418Y026864D01*
X009467Y026857D01*
X009516Y026846D01*
X009564Y026831D01*
X009610Y026813D01*
X009655Y026791D01*
X009698Y026765D01*
X009739Y026736D01*
X009778Y026704D01*
X009814Y026669D01*
X009846Y026631D01*
X009876Y026591D01*
X009903Y026548D01*
X009926Y026504D01*
X009945Y026458D01*
X009961Y026410D01*
X009973Y026361D01*
X009981Y026312D01*
X009985Y026262D01*
X009985Y026212D01*
X009981Y026162D01*
X009973Y026113D01*
X009961Y026064D01*
X009945Y026016D01*
X009926Y025970D01*
X009903Y025926D01*
X009876Y025883D01*
X009846Y025843D01*
X009814Y025805D01*
X009778Y025770D01*
X009739Y025738D01*
X009698Y025709D01*
X009655Y025683D01*
X009610Y025661D01*
X009564Y025643D01*
X009516Y025628D01*
X009467Y025617D01*
X009418Y025610D01*
X009368Y025607D01*
X009317Y025608D01*
X009268Y025613D01*
X009218Y025622D01*
X009170Y025635D01*
X009123Y025651D01*
X009077Y025672D01*
X009033Y025696D01*
X008991Y025723D01*
X008951Y025753D01*
X008914Y025787D01*
X008880Y025824D01*
X008848Y025863D01*
X008820Y025904D01*
X008795Y025948D01*
X008774Y025993D01*
X008757Y026040D01*
X008743Y026088D01*
X008733Y026137D01*
X008727Y026187D01*
X008725Y026237D01*
X005181Y026237D02*
X005183Y026287D01*
X005189Y026337D01*
X005199Y026386D01*
X005213Y026434D01*
X005230Y026481D01*
X005251Y026526D01*
X005276Y026570D01*
X005304Y026611D01*
X005336Y026650D01*
X005370Y026687D01*
X005407Y026721D01*
X005447Y026751D01*
X005489Y026778D01*
X005533Y026802D01*
X005579Y026823D01*
X005626Y026839D01*
X005674Y026852D01*
X005724Y026861D01*
X005773Y026866D01*
X005824Y026867D01*
X005874Y026864D01*
X005923Y026857D01*
X005972Y026846D01*
X006020Y026831D01*
X006066Y026813D01*
X006111Y026791D01*
X006154Y026765D01*
X006195Y026736D01*
X006234Y026704D01*
X006270Y026669D01*
X006302Y026631D01*
X006332Y026591D01*
X006359Y026548D01*
X006382Y026504D01*
X006401Y026458D01*
X006417Y026410D01*
X006429Y026361D01*
X006437Y026312D01*
X006441Y026262D01*
X006441Y026212D01*
X006437Y026162D01*
X006429Y026113D01*
X006417Y026064D01*
X006401Y026016D01*
X006382Y025970D01*
X006359Y025926D01*
X006332Y025883D01*
X006302Y025843D01*
X006270Y025805D01*
X006234Y025770D01*
X006195Y025738D01*
X006154Y025709D01*
X006111Y025683D01*
X006066Y025661D01*
X006020Y025643D01*
X005972Y025628D01*
X005923Y025617D01*
X005874Y025610D01*
X005824Y025607D01*
X005773Y025608D01*
X005724Y025613D01*
X005674Y025622D01*
X005626Y025635D01*
X005579Y025651D01*
X005533Y025672D01*
X005489Y025696D01*
X005447Y025723D01*
X005407Y025753D01*
X005370Y025787D01*
X005336Y025824D01*
X005304Y025863D01*
X005276Y025904D01*
X005251Y025948D01*
X005230Y025993D01*
X005213Y026040D01*
X005199Y026088D01*
X005189Y026137D01*
X005183Y026187D01*
X005181Y026237D01*
X003300Y016855D02*
X003302Y016905D01*
X003308Y016955D01*
X003318Y017004D01*
X003332Y017052D01*
X003349Y017099D01*
X003370Y017144D01*
X003395Y017188D01*
X003423Y017229D01*
X003455Y017268D01*
X003489Y017305D01*
X003526Y017339D01*
X003566Y017369D01*
X003608Y017396D01*
X003652Y017420D01*
X003698Y017441D01*
X003745Y017457D01*
X003793Y017470D01*
X003843Y017479D01*
X003892Y017484D01*
X003943Y017485D01*
X003993Y017482D01*
X004042Y017475D01*
X004091Y017464D01*
X004139Y017449D01*
X004185Y017431D01*
X004230Y017409D01*
X004273Y017383D01*
X004314Y017354D01*
X004353Y017322D01*
X004389Y017287D01*
X004421Y017249D01*
X004451Y017209D01*
X004478Y017166D01*
X004501Y017122D01*
X004520Y017076D01*
X004536Y017028D01*
X004548Y016979D01*
X004556Y016930D01*
X004560Y016880D01*
X004560Y016830D01*
X004556Y016780D01*
X004548Y016731D01*
X004536Y016682D01*
X004520Y016634D01*
X004501Y016588D01*
X004478Y016544D01*
X004451Y016501D01*
X004421Y016461D01*
X004389Y016423D01*
X004353Y016388D01*
X004314Y016356D01*
X004273Y016327D01*
X004230Y016301D01*
X004185Y016279D01*
X004139Y016261D01*
X004091Y016246D01*
X004042Y016235D01*
X003993Y016228D01*
X003943Y016225D01*
X003892Y016226D01*
X003843Y016231D01*
X003793Y016240D01*
X003745Y016253D01*
X003698Y016269D01*
X003652Y016290D01*
X003608Y016314D01*
X003566Y016341D01*
X003526Y016371D01*
X003489Y016405D01*
X003455Y016442D01*
X003423Y016481D01*
X003395Y016522D01*
X003370Y016566D01*
X003349Y016611D01*
X003332Y016658D01*
X003318Y016706D01*
X003308Y016755D01*
X003302Y016805D01*
X003300Y016855D01*
X003300Y013311D02*
X003302Y013361D01*
X003308Y013411D01*
X003318Y013460D01*
X003332Y013508D01*
X003349Y013555D01*
X003370Y013600D01*
X003395Y013644D01*
X003423Y013685D01*
X003455Y013724D01*
X003489Y013761D01*
X003526Y013795D01*
X003566Y013825D01*
X003608Y013852D01*
X003652Y013876D01*
X003698Y013897D01*
X003745Y013913D01*
X003793Y013926D01*
X003843Y013935D01*
X003892Y013940D01*
X003943Y013941D01*
X003993Y013938D01*
X004042Y013931D01*
X004091Y013920D01*
X004139Y013905D01*
X004185Y013887D01*
X004230Y013865D01*
X004273Y013839D01*
X004314Y013810D01*
X004353Y013778D01*
X004389Y013743D01*
X004421Y013705D01*
X004451Y013665D01*
X004478Y013622D01*
X004501Y013578D01*
X004520Y013532D01*
X004536Y013484D01*
X004548Y013435D01*
X004556Y013386D01*
X004560Y013336D01*
X004560Y013286D01*
X004556Y013236D01*
X004548Y013187D01*
X004536Y013138D01*
X004520Y013090D01*
X004501Y013044D01*
X004478Y013000D01*
X004451Y012957D01*
X004421Y012917D01*
X004389Y012879D01*
X004353Y012844D01*
X004314Y012812D01*
X004273Y012783D01*
X004230Y012757D01*
X004185Y012735D01*
X004139Y012717D01*
X004091Y012702D01*
X004042Y012691D01*
X003993Y012684D01*
X003943Y012681D01*
X003892Y012682D01*
X003843Y012687D01*
X003793Y012696D01*
X003745Y012709D01*
X003698Y012725D01*
X003652Y012746D01*
X003608Y012770D01*
X003566Y012797D01*
X003526Y012827D01*
X003489Y012861D01*
X003455Y012898D01*
X003423Y012937D01*
X003395Y012978D01*
X003370Y013022D01*
X003349Y013067D01*
X003332Y013114D01*
X003318Y013162D01*
X003308Y013211D01*
X003302Y013261D01*
X003300Y013311D01*
D11*
X030583Y014083D03*
D12*
X030583Y016083D03*
D13*
X007833Y017708D03*
X007833Y018708D03*
D14*
X007748Y015083D03*
X005583Y015083D03*
X007583Y007748D03*
X007583Y005583D03*
X014583Y005583D03*
X014583Y007748D03*
X021583Y007748D03*
X021583Y005583D03*
X028583Y005583D03*
X028583Y007748D03*
X035583Y007748D03*
X035583Y005583D03*
X035418Y014256D03*
X035418Y015910D03*
X037583Y015910D03*
X037583Y014256D03*
X035583Y022418D03*
X035583Y024583D03*
X028583Y024583D03*
X028583Y022418D03*
X021583Y022418D03*
X021583Y024583D03*
X014583Y024583D03*
X014583Y022418D03*
X007583Y022418D03*
X007583Y024583D03*
D15*
X012208Y018833D03*
X012208Y011333D03*
X017208Y011333D03*
X018458Y011333D03*
X019708Y011333D03*
X025958Y011333D03*
X025958Y018833D03*
D16*
X005083Y010583D03*
X005083Y009583D03*
X005083Y008583D03*
D17*
X004665Y008583D01*
X004665Y008550D01*
X004676Y008485D01*
X004696Y008423D01*
X004726Y008364D01*
X004764Y008311D01*
X004811Y008264D01*
X004864Y008226D01*
X004923Y008196D01*
X004985Y008176D01*
X005050Y008165D01*
X005083Y008165D01*
X005083Y008583D01*
X005083Y008583D01*
X005083Y008583D01*
X004665Y008583D01*
X004665Y008616D01*
X004676Y008681D01*
X004696Y008743D01*
X004726Y008802D01*
X004764Y008855D01*
X004811Y008902D01*
X004864Y008940D01*
X004923Y008970D01*
X004985Y008991D01*
X005050Y009001D01*
X005083Y009001D01*
X005083Y008583D01*
X005083Y008165D01*
X005116Y008165D01*
X005181Y008176D01*
X005243Y008196D01*
X005302Y008226D01*
X005355Y008264D01*
X005402Y008311D01*
X005440Y008364D01*
X005470Y008423D01*
X005491Y008485D01*
X005501Y008550D01*
X005501Y008583D01*
X005083Y008583D01*
X005083Y008583D01*
X005083Y008583D01*
X005083Y009001D01*
X005116Y009001D01*
X005181Y008991D01*
X005243Y008970D01*
X005302Y008940D01*
X005355Y008902D01*
X005402Y008855D01*
X005440Y008802D01*
X005470Y008743D01*
X005491Y008681D01*
X005501Y008616D01*
X005501Y008583D01*
X005083Y008583D01*
X005083Y008606D02*
X005083Y008606D01*
X005083Y008448D02*
X005083Y008448D01*
X005083Y008289D02*
X005083Y008289D01*
X004786Y008289D02*
X002823Y008289D01*
X002823Y008131D02*
X006402Y008131D01*
X006428Y008227D02*
X006343Y007912D01*
X006343Y007585D01*
X006428Y007270D01*
X006591Y006987D01*
X006822Y006756D01*
X007104Y006593D01*
X007420Y006508D01*
X035746Y006508D01*
X036062Y006593D01*
X036344Y006756D01*
X036575Y006987D01*
X036739Y007270D01*
X036823Y007585D01*
X036823Y007912D01*
X036739Y008227D01*
X036658Y008367D01*
X036658Y013464D01*
X036739Y013604D01*
X036823Y013920D01*
X036823Y014246D01*
X036821Y014252D01*
X036823Y014258D01*
X036823Y014585D01*
X036739Y014900D01*
X036658Y015040D01*
X036658Y015214D01*
X036739Y015354D01*
X036823Y015670D01*
X036823Y022581D01*
X036739Y022896D01*
X036575Y023179D01*
X036344Y023410D01*
X036062Y023573D01*
X035746Y023658D01*
X014420Y023658D01*
X007420Y023658D01*
X007104Y023573D01*
X006822Y023410D01*
X006591Y023179D01*
X006428Y022896D01*
X006343Y022581D01*
X006343Y022254D01*
X006428Y021939D01*
X006591Y021656D01*
X006822Y021425D01*
X007104Y021262D01*
X007420Y021178D01*
X034343Y021178D01*
X034343Y016529D01*
X034262Y016388D01*
X034178Y016073D01*
X034178Y015323D01*
X030420Y015323D01*
X030104Y015239D01*
X029822Y015075D01*
X029591Y014844D01*
X027319Y012573D01*
X025795Y012573D01*
X025479Y012489D01*
X025197Y012325D01*
X024966Y012094D01*
X024953Y012073D01*
X020028Y012073D01*
X020028Y012551D01*
X020042Y012556D01*
X020110Y012624D01*
X020146Y012712D01*
X020146Y013204D01*
X020110Y013292D01*
X020042Y013360D01*
X019954Y013396D01*
X019462Y013396D01*
X019374Y013360D01*
X019306Y013292D01*
X019270Y013204D01*
X019270Y012712D01*
X019306Y012624D01*
X019374Y012556D01*
X019388Y012551D01*
X019388Y012001D01*
X019289Y011960D01*
X019081Y011752D01*
X019056Y011693D01*
X019043Y011724D01*
X018849Y011918D01*
X018595Y012023D01*
X018321Y012023D01*
X018067Y011918D01*
X017873Y011724D01*
X017833Y011627D01*
X017793Y011724D01*
X017599Y011918D01*
X017498Y011960D01*
X017498Y017016D01*
X017454Y017122D01*
X016771Y017805D01*
X016771Y018079D01*
X016735Y018167D01*
X016667Y018235D01*
X016579Y018271D01*
X016087Y018271D01*
X015999Y018235D01*
X015931Y018167D01*
X015895Y018079D01*
X015895Y017587D01*
X015931Y017499D01*
X015999Y017431D01*
X016087Y017395D01*
X016361Y017395D01*
X016918Y016838D01*
X016918Y011960D01*
X016817Y011918D01*
X016623Y011724D01*
X016518Y011470D01*
X016518Y011196D01*
X016623Y010942D01*
X016817Y010748D01*
X017071Y010643D01*
X017345Y010643D01*
X017367Y010652D01*
X016588Y009873D01*
X005469Y009873D01*
X005354Y009988D01*
X005178Y010061D01*
X004988Y010061D01*
X004812Y009988D01*
X004678Y009854D01*
X004605Y009678D01*
X004605Y009488D01*
X004678Y009312D01*
X004812Y009178D01*
X004988Y009105D01*
X005178Y009105D01*
X005354Y009178D01*
X005469Y009293D01*
X016766Y009293D01*
X016872Y009337D01*
X016954Y009419D01*
X018220Y010685D01*
X018321Y010643D01*
X018595Y010643D01*
X018849Y010748D01*
X019043Y010942D01*
X019056Y010974D01*
X019081Y010914D01*
X019289Y010706D01*
X019561Y010593D01*
X024953Y010593D01*
X024966Y010572D01*
X025197Y010341D01*
X025479Y010178D01*
X025795Y010093D01*
X027996Y010093D01*
X028312Y010178D01*
X028594Y010341D01*
X031097Y012843D01*
X034178Y012843D01*
X034178Y008988D01*
X007420Y008988D01*
X007104Y008904D01*
X006822Y008741D01*
X006591Y008510D01*
X006428Y008227D01*
X006463Y008289D02*
X005380Y008289D01*
X005478Y008448D02*
X006555Y008448D01*
X006687Y008606D02*
X005501Y008606D01*
X005459Y008765D02*
X006863Y008765D01*
X007176Y008923D02*
X005326Y008923D01*
X005083Y008923D02*
X005083Y008923D01*
X005083Y008765D02*
X005083Y008765D01*
X004840Y008923D02*
X002823Y008923D01*
X002823Y008765D02*
X004707Y008765D01*
X004665Y008606D02*
X002823Y008606D01*
X002823Y008448D02*
X004688Y008448D01*
X004750Y009240D02*
X002823Y009240D01*
X002823Y009082D02*
X034178Y009082D01*
X034178Y009240D02*
X005416Y009240D01*
X005468Y009874D02*
X016589Y009874D01*
X016747Y010033D02*
X005246Y010033D01*
X005178Y010105D02*
X005354Y010178D01*
X005488Y010312D01*
X005561Y010488D01*
X005561Y010678D01*
X005488Y010854D01*
X005354Y010988D01*
X005178Y011061D01*
X004988Y011061D01*
X004812Y010988D01*
X004678Y010854D01*
X004605Y010678D01*
X004605Y010488D01*
X004678Y010312D01*
X004812Y010178D01*
X004988Y010105D01*
X005178Y010105D01*
X005367Y010191D02*
X011706Y010191D01*
X011729Y010178D02*
X012045Y010093D01*
X012371Y010093D01*
X012687Y010178D01*
X012969Y010341D01*
X013200Y010572D01*
X013364Y010854D01*
X013406Y011013D01*
X014158Y011013D01*
X014210Y010962D01*
X014371Y010895D01*
X014545Y010895D01*
X014706Y010962D01*
X014829Y011085D01*
X014896Y011246D01*
X014896Y011420D01*
X014829Y011581D01*
X014706Y011704D01*
X014545Y011771D01*
X014371Y011771D01*
X014210Y011704D01*
X014158Y011653D01*
X013406Y011653D01*
X013364Y011812D01*
X013200Y012094D01*
X009219Y016075D01*
X008937Y016239D01*
X008621Y016323D01*
X008295Y016323D01*
X007585Y016323D01*
X007270Y016239D01*
X006987Y016075D01*
X006756Y015844D01*
X006593Y015562D01*
X006508Y015246D01*
X006508Y014920D01*
X006593Y014604D01*
X006756Y014322D01*
X006987Y014091D01*
X007270Y013928D01*
X007585Y013843D01*
X007944Y013843D01*
X011447Y010341D01*
X011729Y010178D01*
X011438Y010350D02*
X005504Y010350D01*
X005561Y010508D02*
X011279Y010508D01*
X011121Y010667D02*
X005561Y010667D01*
X005500Y010825D02*
X010962Y010825D01*
X010804Y010984D02*
X005358Y010984D01*
X004808Y010984D02*
X002823Y010984D01*
X002823Y011142D02*
X010645Y011142D01*
X010487Y011301D02*
X002823Y011301D01*
X002823Y011459D02*
X010328Y011459D01*
X010170Y011618D02*
X002823Y011618D01*
X002823Y011776D02*
X010011Y011776D01*
X009853Y011935D02*
X002823Y011935D01*
X002823Y012093D02*
X009694Y012093D01*
X009536Y012252D02*
X002823Y012252D01*
X002823Y012410D02*
X009377Y012410D01*
X009219Y012569D02*
X004409Y012569D01*
X004422Y012574D02*
X004667Y012819D01*
X004799Y013138D01*
X004799Y013484D01*
X004667Y013804D01*
X004422Y014049D01*
X004103Y014181D01*
X003756Y014181D01*
X003437Y014049D01*
X003192Y013804D01*
X003060Y013484D01*
X003060Y013138D01*
X003192Y012819D01*
X003437Y012574D01*
X003756Y012441D01*
X004103Y012441D01*
X004422Y012574D01*
X004575Y012727D02*
X009060Y012727D01*
X008902Y012886D02*
X004695Y012886D01*
X004760Y013044D02*
X008743Y013044D01*
X008585Y013203D02*
X004799Y013203D01*
X004799Y013361D02*
X008426Y013361D01*
X008268Y013520D02*
X004785Y013520D01*
X004719Y013678D02*
X008109Y013678D01*
X007951Y013837D02*
X004635Y013837D01*
X004476Y013995D02*
X007153Y013995D01*
X006924Y014154D02*
X004170Y014154D01*
X003689Y014154D02*
X002823Y014154D01*
X002823Y014312D02*
X006766Y014312D01*
X006670Y014471D02*
X002823Y014471D01*
X002823Y014629D02*
X004994Y014629D01*
X004990Y014646D02*
X005002Y014600D01*
X005026Y014559D01*
X005059Y014526D01*
X005100Y014502D01*
X005146Y014490D01*
X005525Y014490D01*
X005525Y015025D01*
X005641Y015025D01*
X005641Y014490D01*
X006020Y014490D01*
X006066Y014502D01*
X006107Y014526D01*
X006140Y014559D01*
X006164Y014600D01*
X006176Y014646D01*
X006176Y015025D01*
X005641Y015025D01*
X005641Y015141D01*
X005525Y015141D01*
X005525Y015025D01*
X004990Y015025D01*
X004990Y014646D01*
X004990Y014788D02*
X002823Y014788D01*
X002823Y014946D02*
X004990Y014946D01*
X004990Y015141D02*
X005525Y015141D01*
X005525Y015676D01*
X005146Y015676D01*
X005100Y015664D01*
X005059Y015640D01*
X005026Y015607D01*
X005002Y015566D01*
X004990Y015520D01*
X004990Y015141D01*
X004990Y015263D02*
X002823Y015263D01*
X002823Y015105D02*
X005525Y015105D01*
X005641Y015105D02*
X006508Y015105D01*
X006513Y015263D02*
X006176Y015263D01*
X006176Y015141D02*
X006176Y015520D01*
X006164Y015566D01*
X006140Y015607D01*
X006107Y015640D01*
X006066Y015664D01*
X006020Y015676D01*
X005641Y015676D01*
X005641Y015141D01*
X006176Y015141D01*
X006176Y014946D02*
X006508Y014946D01*
X006544Y014788D02*
X006176Y014788D01*
X006172Y014629D02*
X006586Y014629D01*
X005641Y014629D02*
X005525Y014629D01*
X005525Y014788D02*
X005641Y014788D01*
X005641Y014946D02*
X005525Y014946D01*
X005525Y015263D02*
X005641Y015263D01*
X005641Y015422D02*
X005525Y015422D01*
X005525Y015580D02*
X005641Y015580D01*
X006156Y015580D02*
X006604Y015580D01*
X006555Y015422D02*
X006176Y015422D01*
X006695Y015739D02*
X002823Y015739D01*
X002823Y015897D02*
X006809Y015897D01*
X006967Y016056D02*
X004273Y016056D01*
X004422Y016117D02*
X004103Y015985D01*
X003756Y015985D01*
X003437Y016117D01*
X003192Y016362D01*
X003060Y016682D01*
X003060Y017028D01*
X003192Y017347D01*
X003437Y017592D01*
X003756Y017725D01*
X004103Y017725D01*
X004422Y017592D01*
X004667Y017347D01*
X004799Y017028D01*
X004799Y016682D01*
X004667Y016362D01*
X004422Y016117D01*
X004519Y016214D02*
X007227Y016214D01*
X007597Y017138D02*
X008069Y017138D01*
X008403Y017472D01*
X008403Y017944D01*
X008139Y018208D01*
X008403Y018472D01*
X008403Y018944D01*
X008069Y019278D01*
X007597Y019278D01*
X007263Y018944D01*
X007263Y018472D01*
X007527Y018208D01*
X007263Y017944D01*
X007263Y017472D01*
X007597Y017138D01*
X007570Y017165D02*
X004743Y017165D01*
X004799Y017007D02*
X016749Y017007D01*
X016591Y017165D02*
X008096Y017165D01*
X008255Y017324D02*
X016432Y017324D01*
X016936Y017641D02*
X034343Y017641D01*
X034343Y017799D02*
X016777Y017799D01*
X016771Y017958D02*
X034343Y017958D01*
X034343Y018116D02*
X016756Y018116D01*
X015910Y018116D02*
X008231Y018116D01*
X008206Y018275D02*
X011916Y018275D01*
X011878Y018294D02*
X011966Y018249D01*
X012061Y018219D01*
X012128Y018208D01*
X012128Y018753D01*
X012288Y018753D01*
X012288Y018208D01*
X012356Y018219D01*
X012450Y018249D01*
X012538Y018294D01*
X012618Y018353D01*
X012689Y018423D01*
X012747Y018503D01*
X012792Y018591D01*
X012823Y018686D01*
X012833Y018753D01*
X012288Y018753D01*
X012288Y018913D01*
X012833Y018913D01*
X012823Y018981D01*
X012792Y019075D01*
X012747Y019163D01*
X012689Y019243D01*
X012618Y019314D01*
X012538Y019372D01*
X012450Y019417D01*
X012356Y019448D01*
X012288Y019458D01*
X012288Y018913D01*
X012128Y018913D01*
X012128Y018753D01*
X011583Y018753D01*
X011594Y018686D01*
X011624Y018591D01*
X011669Y018503D01*
X011728Y018423D01*
X011798Y018353D01*
X011878Y018294D01*
X011720Y018433D02*
X008364Y018433D01*
X008403Y018592D02*
X011624Y018592D01*
X011583Y018750D02*
X008403Y018750D01*
X008403Y018909D02*
X012128Y018909D01*
X012128Y018913D02*
X011583Y018913D01*
X011594Y018981D01*
X011624Y019075D01*
X011669Y019163D01*
X011728Y019243D01*
X011798Y019314D01*
X011878Y019372D01*
X011966Y019417D01*
X012061Y019448D01*
X012128Y019458D01*
X012128Y018913D01*
X012128Y019067D02*
X012288Y019067D01*
X012288Y018909D02*
X025878Y018909D01*
X025878Y018913D02*
X025878Y018753D01*
X026038Y018753D01*
X026038Y018208D01*
X026106Y018219D01*
X026200Y018249D01*
X026288Y018294D01*
X026368Y018353D01*
X026439Y018423D01*
X026497Y018503D01*
X026542Y018591D01*
X026573Y018686D01*
X026583Y018753D01*
X026038Y018753D01*
X026038Y018913D01*
X026583Y018913D01*
X026573Y018981D01*
X026542Y019075D01*
X026497Y019163D01*
X026439Y019243D01*
X026368Y019314D01*
X026288Y019372D01*
X026200Y019417D01*
X026106Y019448D01*
X026038Y019458D01*
X026038Y018913D01*
X025878Y018913D01*
X025333Y018913D01*
X025344Y018981D01*
X025374Y019075D01*
X025419Y019163D01*
X025478Y019243D01*
X025548Y019314D01*
X025628Y019372D01*
X025716Y019417D01*
X025811Y019448D01*
X025878Y019458D01*
X025878Y018913D01*
X025878Y019067D02*
X026038Y019067D01*
X026038Y018909D02*
X034343Y018909D01*
X034343Y019067D02*
X026544Y019067D01*
X026452Y019226D02*
X034343Y019226D01*
X034343Y019384D02*
X026264Y019384D01*
X026038Y019384D02*
X025878Y019384D01*
X025878Y019226D02*
X026038Y019226D01*
X025652Y019384D02*
X012514Y019384D01*
X012288Y019384D02*
X012128Y019384D01*
X012128Y019226D02*
X012288Y019226D01*
X012702Y019226D02*
X025465Y019226D01*
X025372Y019067D02*
X012794Y019067D01*
X012833Y018750D02*
X025333Y018750D01*
X025333Y018753D02*
X025344Y018686D01*
X025374Y018591D01*
X025419Y018503D01*
X025478Y018423D01*
X025548Y018353D01*
X025628Y018294D01*
X025716Y018249D01*
X025811Y018219D01*
X025878Y018208D01*
X025878Y018753D01*
X025333Y018753D01*
X025374Y018592D02*
X012792Y018592D01*
X012696Y018433D02*
X025470Y018433D01*
X025666Y018275D02*
X012500Y018275D01*
X012288Y018275D02*
X012128Y018275D01*
X012128Y018433D02*
X012288Y018433D01*
X012288Y018592D02*
X012128Y018592D01*
X012128Y018750D02*
X012288Y018750D01*
X011715Y019226D02*
X008122Y019226D01*
X008280Y019067D02*
X011622Y019067D01*
X011902Y019384D02*
X002823Y019384D01*
X002823Y019226D02*
X007544Y019226D01*
X007386Y019067D02*
X002823Y019067D01*
X002823Y018909D02*
X007263Y018909D01*
X007263Y018750D02*
X002823Y018750D01*
X002823Y018592D02*
X007263Y018592D01*
X007302Y018433D02*
X002823Y018433D01*
X002823Y018275D02*
X007460Y018275D01*
X007435Y018116D02*
X002823Y018116D01*
X002823Y017958D02*
X007276Y017958D01*
X007263Y017799D02*
X002823Y017799D01*
X002823Y017641D02*
X003554Y017641D01*
X003327Y017482D02*
X002823Y017482D01*
X002823Y017324D02*
X003182Y017324D01*
X003116Y017165D02*
X002823Y017165D01*
X002823Y017007D02*
X003060Y017007D01*
X003060Y016848D02*
X002823Y016848D01*
X002823Y016690D02*
X003060Y016690D01*
X003122Y016531D02*
X002823Y016531D01*
X002823Y016373D02*
X003188Y016373D01*
X003340Y016214D02*
X002823Y016214D01*
X002823Y016056D02*
X003586Y016056D01*
X002823Y015580D02*
X005010Y015580D01*
X004990Y015422D02*
X002823Y015422D01*
X004671Y016373D02*
X016918Y016373D01*
X016918Y016531D02*
X004737Y016531D01*
X004799Y016690D02*
X016918Y016690D01*
X016908Y016848D02*
X004799Y016848D01*
X004677Y017324D02*
X007411Y017324D01*
X007263Y017482D02*
X004532Y017482D01*
X004305Y017641D02*
X007263Y017641D01*
X008403Y017641D02*
X015895Y017641D01*
X015895Y017799D02*
X008403Y017799D01*
X008390Y017958D02*
X015895Y017958D01*
X015948Y017482D02*
X008403Y017482D01*
X008979Y016214D02*
X016918Y016214D01*
X016918Y016056D02*
X009239Y016056D01*
X009398Y015897D02*
X016918Y015897D01*
X016918Y015739D02*
X009556Y015739D01*
X009715Y015580D02*
X016918Y015580D01*
X016918Y015422D02*
X009873Y015422D01*
X010032Y015263D02*
X016918Y015263D01*
X016918Y015105D02*
X010190Y015105D01*
X010349Y014946D02*
X016918Y014946D01*
X016918Y014788D02*
X010507Y014788D01*
X010666Y014629D02*
X016918Y014629D01*
X016918Y014471D02*
X010824Y014471D01*
X010983Y014312D02*
X016918Y014312D01*
X016918Y014154D02*
X011141Y014154D01*
X011300Y013995D02*
X016918Y013995D01*
X016918Y013837D02*
X011458Y013837D01*
X011617Y013678D02*
X016918Y013678D01*
X016918Y013520D02*
X011775Y013520D01*
X011934Y013361D02*
X016918Y013361D01*
X016918Y013203D02*
X012092Y013203D01*
X012251Y013044D02*
X016918Y013044D01*
X016918Y012886D02*
X012409Y012886D01*
X012568Y012727D02*
X016918Y012727D01*
X016918Y012569D02*
X012726Y012569D01*
X012885Y012410D02*
X016918Y012410D01*
X016918Y012252D02*
X013043Y012252D01*
X013201Y012093D02*
X016918Y012093D01*
X016857Y011935D02*
X013293Y011935D01*
X013373Y011776D02*
X016675Y011776D01*
X016579Y011618D02*
X014793Y011618D01*
X014880Y011459D02*
X016518Y011459D01*
X016518Y011301D02*
X014896Y011301D01*
X014853Y011142D02*
X016540Y011142D01*
X016606Y010984D02*
X014728Y010984D01*
X014458Y011333D02*
X012208Y011333D01*
X013255Y010667D02*
X017014Y010667D01*
X017223Y010508D02*
X013137Y010508D01*
X012978Y010350D02*
X017064Y010350D01*
X016906Y010191D02*
X012710Y010191D01*
X013347Y010825D02*
X016740Y010825D01*
X017568Y010033D02*
X034178Y010033D01*
X034178Y010191D02*
X028335Y010191D01*
X028603Y010350D02*
X034178Y010350D01*
X034178Y010508D02*
X028762Y010508D01*
X028920Y010667D02*
X034178Y010667D01*
X034178Y010825D02*
X029079Y010825D01*
X029237Y010984D02*
X034178Y010984D01*
X034178Y011142D02*
X029396Y011142D01*
X029554Y011301D02*
X034178Y011301D01*
X034178Y011459D02*
X029713Y011459D01*
X029871Y011618D02*
X034178Y011618D01*
X034178Y011776D02*
X030030Y011776D01*
X030188Y011935D02*
X034178Y011935D01*
X034178Y012093D02*
X030347Y012093D01*
X030505Y012252D02*
X034178Y012252D01*
X034178Y012410D02*
X030664Y012410D01*
X030822Y012569D02*
X034178Y012569D01*
X034178Y012727D02*
X030981Y012727D01*
X029217Y014471D02*
X017498Y014471D01*
X017498Y014629D02*
X029375Y014629D01*
X029534Y014788D02*
X017498Y014788D01*
X017498Y014946D02*
X029692Y014946D01*
X029591Y014844D02*
X029591Y014844D01*
X029872Y015105D02*
X017498Y015105D01*
X017498Y015263D02*
X030196Y015263D01*
X030301Y015403D02*
X029903Y015801D01*
X029903Y016063D01*
X030563Y016063D01*
X030563Y016103D01*
X029903Y016103D01*
X029903Y016365D01*
X030301Y016763D01*
X030563Y016763D01*
X030563Y016103D01*
X030603Y016103D01*
X030603Y016763D01*
X030865Y016763D01*
X031263Y016365D01*
X031263Y016103D01*
X030603Y016103D01*
X030603Y016063D01*
X030603Y015403D01*
X030865Y015403D01*
X031263Y015801D01*
X031263Y016063D01*
X030603Y016063D01*
X030563Y016063D01*
X030563Y015403D01*
X030301Y015403D01*
X030283Y015422D02*
X017498Y015422D01*
X017498Y015580D02*
X030124Y015580D01*
X029966Y015739D02*
X017498Y015739D01*
X017498Y015897D02*
X029903Y015897D01*
X029903Y016056D02*
X017498Y016056D01*
X017498Y016214D02*
X029903Y016214D01*
X029911Y016373D02*
X017498Y016373D01*
X017498Y016531D02*
X030069Y016531D01*
X030228Y016690D02*
X017498Y016690D01*
X017498Y016848D02*
X034343Y016848D01*
X034343Y016690D02*
X030938Y016690D01*
X031097Y016531D02*
X034343Y016531D01*
X034258Y016373D02*
X031255Y016373D01*
X031263Y016214D02*
X034215Y016214D01*
X034178Y016056D02*
X031263Y016056D01*
X031263Y015897D02*
X034178Y015897D01*
X034178Y015739D02*
X031200Y015739D01*
X031042Y015580D02*
X034178Y015580D01*
X034178Y015422D02*
X030883Y015422D01*
X030603Y015422D02*
X030563Y015422D01*
X030563Y015580D02*
X030603Y015580D01*
X030603Y015739D02*
X030563Y015739D01*
X030563Y015897D02*
X030603Y015897D01*
X030603Y016056D02*
X030563Y016056D01*
X030563Y016214D02*
X030603Y016214D01*
X030603Y016373D02*
X030563Y016373D01*
X030563Y016531D02*
X030603Y016531D01*
X030603Y016690D02*
X030563Y016690D01*
X029058Y014312D02*
X017498Y014312D01*
X017498Y014154D02*
X028900Y014154D01*
X028741Y013995D02*
X017498Y013995D01*
X017498Y013837D02*
X028583Y013837D01*
X028424Y013678D02*
X017498Y013678D01*
X017498Y013520D02*
X028266Y013520D01*
X028107Y013361D02*
X020039Y013361D01*
X020146Y013203D02*
X027949Y013203D01*
X027790Y013044D02*
X020146Y013044D01*
X020146Y012886D02*
X027632Y012886D01*
X027473Y012727D02*
X020146Y012727D01*
X020054Y012569D02*
X025778Y012569D01*
X025344Y012410D02*
X020028Y012410D01*
X020028Y012252D02*
X025123Y012252D01*
X024965Y012093D02*
X020028Y012093D01*
X019388Y012093D02*
X017498Y012093D01*
X017498Y012252D02*
X019388Y012252D01*
X019388Y012410D02*
X017498Y012410D01*
X017498Y012569D02*
X019362Y012569D01*
X019270Y012727D02*
X017498Y012727D01*
X017498Y012886D02*
X019270Y012886D01*
X019270Y013044D02*
X017498Y013044D01*
X017498Y013203D02*
X019270Y013203D01*
X019378Y013361D02*
X017498Y013361D01*
X017559Y011935D02*
X018107Y011935D01*
X017925Y011776D02*
X017741Y011776D01*
X018809Y011935D02*
X019263Y011935D01*
X019105Y011776D02*
X018991Y011776D01*
X019708Y011333D02*
X019708Y012958D01*
X019170Y010825D02*
X018926Y010825D01*
X018652Y010667D02*
X019383Y010667D01*
X018264Y010667D02*
X018202Y010667D01*
X018043Y010508D02*
X025029Y010508D01*
X025188Y010350D02*
X017885Y010350D01*
X017726Y010191D02*
X025456Y010191D01*
X028059Y006140D02*
X028026Y006107D01*
X028002Y006066D01*
X027990Y006020D01*
X027990Y005641D01*
X028525Y005641D01*
X028525Y005525D01*
X028641Y005525D01*
X028641Y004990D01*
X029020Y004990D01*
X029066Y005002D01*
X029107Y005026D01*
X029140Y005059D01*
X029164Y005100D01*
X029176Y005146D01*
X029176Y005525D01*
X028641Y005525D01*
X028641Y005641D01*
X029176Y005641D01*
X029176Y006020D01*
X029164Y006066D01*
X029140Y006107D01*
X029107Y006140D01*
X029066Y006164D01*
X029020Y006176D01*
X028641Y006176D01*
X028641Y005641D01*
X028525Y005641D01*
X028525Y006176D01*
X028146Y006176D01*
X028100Y006164D01*
X028059Y006140D01*
X028004Y006070D02*
X022162Y006070D01*
X022164Y006066D02*
X022140Y006107D01*
X022107Y006140D01*
X022066Y006164D01*
X022020Y006176D01*
X021641Y006176D01*
X021641Y005641D01*
X022176Y005641D01*
X022176Y006020D01*
X022164Y006066D01*
X022176Y005912D02*
X027990Y005912D01*
X027990Y005753D02*
X022176Y005753D01*
X022176Y005525D02*
X021641Y005525D01*
X021641Y004990D01*
X022020Y004990D01*
X022066Y005002D01*
X022107Y005026D01*
X022140Y005059D01*
X022164Y005100D01*
X022176Y005146D01*
X022176Y005525D01*
X022176Y005436D02*
X027990Y005436D01*
X027990Y005525D02*
X027990Y005146D01*
X028002Y005100D01*
X028026Y005059D01*
X028059Y005026D01*
X028100Y005002D01*
X028146Y004990D01*
X028525Y004990D01*
X028525Y005525D01*
X027990Y005525D01*
X027990Y005278D02*
X022176Y005278D01*
X022169Y005119D02*
X027997Y005119D01*
X027328Y004644D02*
X029839Y004644D01*
X029862Y004667D02*
X029617Y004422D01*
X029485Y004103D01*
X029485Y003756D01*
X029617Y003437D01*
X029862Y003192D01*
X030182Y003060D01*
X030528Y003060D01*
X030847Y003192D01*
X031092Y003437D01*
X031225Y003756D01*
X031225Y004103D01*
X031092Y004422D01*
X030847Y004667D01*
X030528Y004799D01*
X030182Y004799D01*
X029862Y004667D01*
X029680Y004485D02*
X027486Y004485D01*
X027549Y004422D02*
X027304Y004667D01*
X026984Y004799D01*
X026638Y004799D01*
X026319Y004667D01*
X026074Y004422D01*
X025941Y004103D01*
X025941Y003756D01*
X026074Y003437D01*
X026319Y003192D01*
X026638Y003060D01*
X026984Y003060D01*
X027304Y003192D01*
X027549Y003437D01*
X027681Y003756D01*
X027681Y004103D01*
X027549Y004422D01*
X027589Y004327D02*
X029578Y004327D01*
X029512Y004168D02*
X027654Y004168D01*
X027681Y004010D02*
X029485Y004010D01*
X029485Y003851D02*
X027681Y003851D01*
X027655Y003693D02*
X029511Y003693D01*
X029577Y003534D02*
X027589Y003534D01*
X027488Y003376D02*
X029678Y003376D01*
X029837Y003217D02*
X027329Y003217D01*
X026294Y003217D02*
X023873Y003217D01*
X023847Y003192D02*
X024092Y003437D01*
X024225Y003756D01*
X024225Y004103D01*
X024092Y004422D01*
X023847Y004667D01*
X023528Y004799D01*
X023182Y004799D01*
X022862Y004667D01*
X022617Y004422D01*
X022485Y004103D01*
X022485Y003756D01*
X022617Y003437D01*
X022862Y003192D01*
X023182Y003060D01*
X023528Y003060D01*
X023847Y003192D01*
X024031Y003376D02*
X026135Y003376D01*
X026034Y003534D02*
X024133Y003534D01*
X024198Y003693D02*
X025968Y003693D01*
X025941Y003851D02*
X024225Y003851D01*
X024225Y004010D02*
X025941Y004010D01*
X025969Y004168D02*
X024198Y004168D01*
X024132Y004327D02*
X026034Y004327D01*
X026137Y004485D02*
X024029Y004485D01*
X023871Y004644D02*
X026295Y004644D01*
X028525Y005119D02*
X028641Y005119D01*
X028641Y005278D02*
X028525Y005278D01*
X028525Y005436D02*
X028641Y005436D01*
X028641Y005595D02*
X035525Y005595D01*
X035525Y005641D02*
X035525Y005525D01*
X035641Y005525D01*
X035641Y004990D01*
X036020Y004990D01*
X036066Y005002D01*
X036107Y005026D01*
X036140Y005059D01*
X036164Y005100D01*
X036176Y005146D01*
X036176Y005525D01*
X035641Y005525D01*
X035641Y005641D01*
X036176Y005641D01*
X036176Y006020D01*
X036164Y006066D01*
X036140Y006107D01*
X036107Y006140D01*
X036066Y006164D01*
X036020Y006176D01*
X035641Y006176D01*
X035641Y005641D01*
X035525Y005641D01*
X034990Y005641D01*
X034990Y006020D01*
X035002Y006066D01*
X035026Y006107D01*
X035059Y006140D01*
X035100Y006164D01*
X035146Y006176D01*
X035525Y006176D01*
X035525Y005641D01*
X035525Y005753D02*
X035641Y005753D01*
X035641Y005595D02*
X040213Y005595D01*
X040213Y005753D02*
X036176Y005753D01*
X036176Y005912D02*
X040213Y005912D01*
X040213Y006070D02*
X036162Y006070D01*
X035641Y006070D02*
X035525Y006070D01*
X035525Y005912D02*
X035641Y005912D01*
X035525Y005525D02*
X034990Y005525D01*
X034990Y005146D01*
X035002Y005100D01*
X035026Y005059D01*
X035059Y005026D01*
X035100Y005002D01*
X035146Y004990D01*
X035525Y004990D01*
X035525Y005525D01*
X035525Y005436D02*
X035641Y005436D01*
X035641Y005278D02*
X035525Y005278D01*
X035525Y005119D02*
X035641Y005119D01*
X036169Y005119D02*
X040213Y005119D01*
X040213Y004961D02*
X002823Y004961D01*
X002823Y005119D02*
X006997Y005119D01*
X007002Y005100D02*
X007026Y005059D01*
X007059Y005026D01*
X007100Y005002D01*
X007146Y004990D01*
X007525Y004990D01*
X007525Y005525D01*
X007641Y005525D01*
X007641Y004990D01*
X008020Y004990D01*
X008066Y005002D01*
X008107Y005026D01*
X008140Y005059D01*
X008164Y005100D01*
X008176Y005146D01*
X008176Y005525D01*
X007641Y005525D01*
X007641Y005641D01*
X008176Y005641D01*
X008176Y006020D01*
X008164Y006066D01*
X008140Y006107D01*
X008107Y006140D01*
X008066Y006164D01*
X008020Y006176D01*
X007641Y006176D01*
X007641Y005641D01*
X007525Y005641D01*
X007525Y005525D01*
X006990Y005525D01*
X006990Y005146D01*
X007002Y005100D01*
X006990Y005278D02*
X002823Y005278D01*
X002823Y005436D02*
X006990Y005436D01*
X006990Y005641D02*
X007525Y005641D01*
X007525Y006176D01*
X007146Y006176D01*
X007100Y006164D01*
X007059Y006140D01*
X007026Y006107D01*
X007002Y006066D01*
X006990Y006020D01*
X006990Y005641D01*
X006990Y005753D02*
X002823Y005753D01*
X002823Y005595D02*
X007525Y005595D01*
X007641Y005595D02*
X014525Y005595D01*
X014525Y005641D02*
X014525Y005525D01*
X014641Y005525D01*
X014641Y004990D01*
X015020Y004990D01*
X015066Y005002D01*
X015107Y005026D01*
X015140Y005059D01*
X015164Y005100D01*
X015176Y005146D01*
X015176Y005525D01*
X014641Y005525D01*
X014641Y005641D01*
X015176Y005641D01*
X015176Y006020D01*
X015164Y006066D01*
X015140Y006107D01*
X015107Y006140D01*
X015066Y006164D01*
X015020Y006176D01*
X014641Y006176D01*
X014641Y005641D01*
X014525Y005641D01*
X013990Y005641D01*
X013990Y006020D01*
X014002Y006066D01*
X014026Y006107D01*
X014059Y006140D01*
X014100Y006164D01*
X014146Y006176D01*
X014525Y006176D01*
X014525Y005641D01*
X014525Y005753D02*
X014641Y005753D01*
X014641Y005595D02*
X021525Y005595D01*
X021525Y005641D02*
X021525Y005525D01*
X021641Y005525D01*
X021641Y005641D01*
X021525Y005641D01*
X020990Y005641D01*
X020990Y006020D01*
X021002Y006066D01*
X021026Y006107D01*
X021059Y006140D01*
X021100Y006164D01*
X021146Y006176D01*
X021525Y006176D01*
X021525Y005641D01*
X021525Y005753D02*
X021641Y005753D01*
X021641Y005595D02*
X028525Y005595D01*
X028525Y005753D02*
X028641Y005753D01*
X028641Y005912D02*
X028525Y005912D01*
X028525Y006070D02*
X028641Y006070D01*
X029162Y006070D02*
X035004Y006070D01*
X034990Y005912D02*
X029176Y005912D01*
X029176Y005753D02*
X034990Y005753D01*
X034990Y005436D02*
X029176Y005436D01*
X029176Y005278D02*
X034990Y005278D01*
X034997Y005119D02*
X029169Y005119D01*
X030871Y004644D02*
X033295Y004644D01*
X033319Y004667D02*
X033074Y004422D01*
X032941Y004103D01*
X032941Y003756D01*
X033074Y003437D01*
X033319Y003192D01*
X033638Y003060D01*
X033984Y003060D01*
X034304Y003192D01*
X034549Y003437D01*
X034681Y003756D01*
X034681Y004103D01*
X034549Y004422D01*
X034304Y004667D01*
X033984Y004799D01*
X033638Y004799D01*
X033319Y004667D01*
X033137Y004485D02*
X031029Y004485D01*
X031132Y004327D02*
X033034Y004327D01*
X032969Y004168D02*
X031198Y004168D01*
X031225Y004010D02*
X032941Y004010D01*
X032941Y003851D02*
X031225Y003851D01*
X031198Y003693D02*
X032968Y003693D01*
X033034Y003534D02*
X031133Y003534D01*
X031031Y003376D02*
X033135Y003376D01*
X033294Y003217D02*
X030873Y003217D01*
X034329Y003217D02*
X036837Y003217D01*
X036862Y003192D02*
X037182Y003060D01*
X037528Y003060D01*
X037847Y003192D01*
X038092Y003437D01*
X038225Y003756D01*
X038225Y004103D01*
X038092Y004422D01*
X037847Y004667D01*
X037528Y004799D01*
X037182Y004799D01*
X036862Y004667D01*
X036617Y004422D01*
X036485Y004103D01*
X036485Y003756D01*
X036617Y003437D01*
X036862Y003192D01*
X036678Y003376D02*
X034488Y003376D01*
X034589Y003534D02*
X036577Y003534D01*
X036511Y003693D02*
X034655Y003693D01*
X034681Y003851D02*
X036485Y003851D01*
X036485Y004010D02*
X034681Y004010D01*
X034654Y004168D02*
X036512Y004168D01*
X036578Y004327D02*
X034589Y004327D01*
X034486Y004485D02*
X036680Y004485D01*
X036839Y004644D02*
X034328Y004644D01*
X036176Y005278D02*
X040213Y005278D01*
X040213Y005436D02*
X036176Y005436D01*
X035885Y006546D02*
X040213Y006546D01*
X040213Y006704D02*
X036254Y006704D01*
X036451Y006863D02*
X040213Y006863D01*
X040213Y007021D02*
X036595Y007021D01*
X036686Y007180D02*
X040213Y007180D01*
X040213Y007338D02*
X036757Y007338D01*
X036799Y007497D02*
X040213Y007497D01*
X040213Y007655D02*
X036823Y007655D01*
X036823Y007814D02*
X040213Y007814D01*
X040213Y007972D02*
X036807Y007972D01*
X036764Y008131D02*
X040213Y008131D01*
X040213Y008289D02*
X036703Y008289D01*
X036658Y008448D02*
X040213Y008448D01*
X040213Y008606D02*
X036658Y008606D01*
X036658Y008765D02*
X040213Y008765D01*
X040213Y008923D02*
X036658Y008923D01*
X036658Y009082D02*
X040213Y009082D01*
X040213Y009240D02*
X036658Y009240D01*
X036658Y009399D02*
X040213Y009399D01*
X040213Y009557D02*
X036658Y009557D01*
X036658Y009716D02*
X040213Y009716D01*
X040213Y009874D02*
X036658Y009874D01*
X036658Y010033D02*
X040213Y010033D01*
X040213Y010191D02*
X036658Y010191D01*
X036658Y010350D02*
X040213Y010350D01*
X040213Y010508D02*
X036658Y010508D01*
X036658Y010667D02*
X040213Y010667D01*
X040213Y010825D02*
X036658Y010825D01*
X036658Y010984D02*
X040213Y010984D01*
X040213Y011142D02*
X036658Y011142D01*
X036658Y011301D02*
X040213Y011301D01*
X040213Y011459D02*
X036658Y011459D01*
X036658Y011618D02*
X039057Y011618D01*
X039064Y011615D02*
X039410Y011615D01*
X039729Y011747D01*
X039974Y011992D01*
X040107Y012312D01*
X040107Y012658D01*
X039974Y012977D01*
X039729Y013222D01*
X039410Y013355D01*
X039064Y013355D01*
X038744Y013222D01*
X038499Y012977D01*
X038367Y012658D01*
X038367Y012312D01*
X038499Y011992D01*
X038744Y011747D01*
X039064Y011615D01*
X039417Y011618D02*
X040213Y011618D01*
X040213Y011776D02*
X039758Y011776D01*
X039917Y011935D02*
X040213Y011935D01*
X040213Y012093D02*
X040016Y012093D01*
X040082Y012252D02*
X040213Y012252D01*
X040213Y012410D02*
X040107Y012410D01*
X040107Y012569D02*
X040213Y012569D01*
X040213Y012727D02*
X040078Y012727D01*
X040012Y012886D02*
X040213Y012886D01*
X040213Y013044D02*
X039907Y013044D01*
X039749Y013203D02*
X040213Y013203D01*
X040213Y013361D02*
X036658Y013361D01*
X036658Y013203D02*
X038724Y013203D01*
X038566Y013044D02*
X036658Y013044D01*
X036658Y012886D02*
X038461Y012886D01*
X038395Y012727D02*
X036658Y012727D01*
X036658Y012569D02*
X038367Y012569D01*
X038367Y012410D02*
X036658Y012410D01*
X036658Y012252D02*
X038392Y012252D01*
X038457Y012093D02*
X036658Y012093D01*
X036658Y011935D02*
X038556Y011935D01*
X038715Y011776D02*
X036658Y011776D01*
X036690Y013520D02*
X040213Y013520D01*
X040213Y013678D02*
X038071Y013678D01*
X038066Y013675D02*
X038107Y013699D01*
X038140Y013732D01*
X038164Y013773D01*
X038176Y013819D01*
X038176Y014199D01*
X037641Y014199D01*
X037641Y014314D01*
X038176Y014314D01*
X038176Y014693D01*
X038164Y014739D01*
X038140Y014780D01*
X038107Y014814D01*
X038066Y014837D01*
X038020Y014850D01*
X037641Y014850D01*
X037641Y014314D01*
X037525Y014314D01*
X037525Y014199D01*
X036990Y014199D01*
X036990Y013819D01*
X037002Y013773D01*
X037026Y013732D01*
X037059Y013699D01*
X037100Y013675D01*
X037146Y013663D01*
X037525Y013663D01*
X037525Y014198D01*
X037641Y014198D01*
X037641Y013663D01*
X038020Y013663D01*
X038066Y013675D01*
X038176Y013837D02*
X040213Y013837D01*
X040213Y013995D02*
X038176Y013995D01*
X038176Y014154D02*
X040213Y014154D01*
X040213Y014312D02*
X037641Y014312D01*
X037525Y014312D02*
X036823Y014312D01*
X036823Y014154D02*
X036990Y014154D01*
X036990Y013995D02*
X036823Y013995D01*
X036801Y013837D02*
X036990Y013837D01*
X037095Y013678D02*
X036758Y013678D01*
X037525Y013678D02*
X037641Y013678D01*
X037641Y013837D02*
X037525Y013837D01*
X037525Y013995D02*
X037641Y013995D01*
X037641Y014154D02*
X037525Y014154D01*
X037525Y014314D02*
X036990Y014314D01*
X036990Y014693D01*
X037002Y014739D01*
X037026Y014780D01*
X037059Y014814D01*
X037100Y014837D01*
X037146Y014850D01*
X037525Y014850D01*
X037525Y014314D01*
X037525Y014471D02*
X037641Y014471D01*
X037641Y014629D02*
X037525Y014629D01*
X037525Y014788D02*
X037641Y014788D01*
X038133Y014788D02*
X040213Y014788D01*
X040213Y014946D02*
X036712Y014946D01*
X036658Y015105D02*
X040213Y015105D01*
X040213Y015263D02*
X036686Y015263D01*
X036757Y015422D02*
X037005Y015422D01*
X037002Y015427D02*
X037026Y015386D01*
X037059Y015352D01*
X037100Y015329D01*
X037146Y015316D01*
X037525Y015316D01*
X037525Y015852D01*
X036990Y015852D01*
X036990Y015473D01*
X037002Y015427D01*
X036990Y015580D02*
X036799Y015580D01*
X036823Y015739D02*
X036990Y015739D01*
X036990Y015968D02*
X036990Y016347D01*
X037002Y016393D01*
X037026Y016434D01*
X037059Y016467D01*
X037100Y016491D01*
X037146Y016503D01*
X037525Y016503D01*
X037525Y015968D01*
X037641Y015968D01*
X037641Y016503D01*
X038020Y016503D01*
X038066Y016491D01*
X038107Y016467D01*
X038140Y016434D01*
X038164Y016393D01*
X038176Y016347D01*
X038176Y015968D01*
X037641Y015968D01*
X037641Y015852D01*
X038176Y015852D01*
X038176Y015473D01*
X038164Y015427D01*
X038140Y015386D01*
X038107Y015352D01*
X038066Y015329D01*
X038020Y015316D01*
X037641Y015316D01*
X037641Y015852D01*
X037525Y015852D01*
X037525Y015968D01*
X036990Y015968D01*
X036990Y016056D02*
X036823Y016056D01*
X036823Y016214D02*
X036990Y016214D01*
X036997Y016373D02*
X036823Y016373D01*
X036823Y016531D02*
X040213Y016531D01*
X040213Y016373D02*
X038170Y016373D01*
X038176Y016214D02*
X040213Y016214D01*
X040213Y016056D02*
X038176Y016056D01*
X038176Y015739D02*
X040213Y015739D01*
X040213Y015897D02*
X037641Y015897D01*
X037525Y015897D02*
X036823Y015897D01*
X037525Y015739D02*
X037641Y015739D01*
X037641Y015580D02*
X037525Y015580D01*
X037525Y015422D02*
X037641Y015422D01*
X038161Y015422D02*
X040213Y015422D01*
X040213Y015580D02*
X038176Y015580D01*
X037641Y016056D02*
X037525Y016056D01*
X037525Y016214D02*
X037641Y016214D01*
X037641Y016373D02*
X037525Y016373D01*
X036823Y016690D02*
X040213Y016690D01*
X040213Y016848D02*
X039498Y016848D01*
X039410Y016812D02*
X039729Y016944D01*
X039974Y017189D01*
X040107Y017508D01*
X040107Y017855D01*
X039974Y018174D01*
X039729Y018419D01*
X039410Y018551D01*
X039064Y018551D01*
X038744Y018419D01*
X038499Y018174D01*
X038367Y017855D01*
X038367Y017508D01*
X038499Y017189D01*
X038744Y016944D01*
X039064Y016812D01*
X039410Y016812D01*
X039792Y017007D02*
X040213Y017007D01*
X040213Y017165D02*
X039950Y017165D01*
X040030Y017324D02*
X040213Y017324D01*
X040213Y017482D02*
X040096Y017482D01*
X040107Y017641D02*
X040213Y017641D01*
X040213Y017799D02*
X040107Y017799D01*
X040064Y017958D02*
X040213Y017958D01*
X040213Y018116D02*
X039998Y018116D01*
X039874Y018275D02*
X040213Y018275D01*
X040213Y018433D02*
X039695Y018433D01*
X040213Y018592D02*
X036823Y018592D01*
X036823Y018750D02*
X040213Y018750D01*
X040213Y018909D02*
X036823Y018909D01*
X036823Y019067D02*
X040213Y019067D01*
X040213Y019226D02*
X036823Y019226D01*
X036823Y019384D02*
X040213Y019384D01*
X040213Y019543D02*
X036823Y019543D01*
X036823Y019701D02*
X040213Y019701D01*
X040213Y019860D02*
X036823Y019860D01*
X036823Y020018D02*
X040213Y020018D01*
X040213Y020177D02*
X036823Y020177D01*
X036823Y020335D02*
X040213Y020335D01*
X040213Y020494D02*
X036823Y020494D01*
X036823Y020652D02*
X040213Y020652D01*
X040213Y020811D02*
X036823Y020811D01*
X036823Y020969D02*
X040213Y020969D01*
X040213Y021128D02*
X036823Y021128D01*
X036823Y021286D02*
X040213Y021286D01*
X040213Y021445D02*
X036823Y021445D01*
X036823Y021603D02*
X040213Y021603D01*
X040213Y021762D02*
X036823Y021762D01*
X036823Y021920D02*
X040213Y021920D01*
X040213Y022079D02*
X036823Y022079D01*
X036823Y022237D02*
X040213Y022237D01*
X040213Y022396D02*
X036823Y022396D01*
X036823Y022554D02*
X040213Y022554D01*
X040213Y022713D02*
X036788Y022713D01*
X036745Y022871D02*
X040213Y022871D01*
X040213Y023030D02*
X036662Y023030D01*
X036566Y023188D02*
X040213Y023188D01*
X040213Y023347D02*
X036408Y023347D01*
X036180Y023505D02*
X040213Y023505D01*
X040213Y023664D02*
X002823Y023664D01*
X002823Y023822D02*
X040213Y023822D01*
X040213Y023981D02*
X002823Y023981D01*
X002823Y024139D02*
X006992Y024139D01*
X006990Y024146D02*
X007002Y024100D01*
X007026Y024059D01*
X007059Y024026D01*
X007100Y024002D01*
X007146Y023990D01*
X007525Y023990D01*
X007525Y024525D01*
X006990Y024525D01*
X006990Y024146D01*
X006990Y024298D02*
X002823Y024298D01*
X002823Y024456D02*
X006990Y024456D01*
X006990Y024641D02*
X007525Y024641D01*
X007525Y024525D01*
X007641Y024525D01*
X007641Y023990D01*
X008020Y023990D01*
X008066Y024002D01*
X008107Y024026D01*
X008140Y024059D01*
X008164Y024100D01*
X008176Y024146D01*
X008176Y024525D01*
X007641Y024525D01*
X007641Y024641D01*
X007525Y024641D01*
X007525Y025176D01*
X007146Y025176D01*
X007100Y025164D01*
X007059Y025140D01*
X007026Y025107D01*
X007002Y025066D01*
X006990Y025020D01*
X006990Y024641D01*
X006990Y024773D02*
X002823Y024773D01*
X002823Y024615D02*
X007525Y024615D01*
X007641Y024615D02*
X014525Y024615D01*
X014525Y024641D02*
X014525Y024525D01*
X013990Y024525D01*
X013990Y024146D01*
X014002Y024100D01*
X014026Y024059D01*
X014059Y024026D01*
X014100Y024002D01*
X014146Y023990D01*
X014525Y023990D01*
X014525Y024525D01*
X014641Y024525D01*
X014641Y023990D01*
X015020Y023990D01*
X015066Y024002D01*
X015107Y024026D01*
X015140Y024059D01*
X015164Y024100D01*
X015176Y024146D01*
X015176Y024525D01*
X014641Y024525D01*
X014641Y024641D01*
X014525Y024641D01*
X013990Y024641D01*
X013990Y025020D01*
X014002Y025066D01*
X014026Y025107D01*
X014059Y025140D01*
X014100Y025164D01*
X014146Y025176D01*
X014525Y025176D01*
X014525Y024641D01*
X014641Y024641D02*
X014641Y025176D01*
X015020Y025176D01*
X015066Y025164D01*
X015107Y025140D01*
X015140Y025107D01*
X015164Y025066D01*
X015176Y025020D01*
X015176Y024641D01*
X014641Y024641D01*
X014641Y024615D02*
X021525Y024615D01*
X021525Y024641D02*
X021525Y024525D01*
X020990Y024525D01*
X020990Y024146D01*
X021002Y024100D01*
X021026Y024059D01*
X021059Y024026D01*
X021100Y024002D01*
X021146Y023990D01*
X021525Y023990D01*
X021525Y024525D01*
X021641Y024525D01*
X021641Y023990D01*
X022020Y023990D01*
X022066Y024002D01*
X022107Y024026D01*
X022140Y024059D01*
X022164Y024100D01*
X022176Y024146D01*
X022176Y024525D01*
X021641Y024525D01*
X021641Y024641D01*
X021525Y024641D01*
X020990Y024641D01*
X020990Y025020D01*
X021002Y025066D01*
X021026Y025107D01*
X021059Y025140D01*
X021100Y025164D01*
X021146Y025176D01*
X021525Y025176D01*
X021525Y024641D01*
X021641Y024641D02*
X021641Y025176D01*
X022020Y025176D01*
X022066Y025164D01*
X022107Y025140D01*
X022140Y025107D01*
X022164Y025066D01*
X022176Y025020D01*
X022176Y024641D01*
X021641Y024641D01*
X021641Y024615D02*
X028525Y024615D01*
X028525Y024641D02*
X028525Y024525D01*
X027990Y024525D01*
X027990Y024146D01*
X028002Y024100D01*
X028026Y024059D01*
X028059Y024026D01*
X028100Y024002D01*
X028146Y023990D01*
X028525Y023990D01*
X028525Y024525D01*
X028641Y024525D01*
X028641Y023990D01*
X029020Y023990D01*
X029066Y024002D01*
X029107Y024026D01*
X029140Y024059D01*
X029164Y024100D01*
X029176Y024146D01*
X029176Y024525D01*
X028641Y024525D01*
X028641Y024641D01*
X028525Y024641D01*
X027990Y024641D01*
X027990Y025020D01*
X028002Y025066D01*
X028026Y025107D01*
X028059Y025140D01*
X028100Y025164D01*
X028146Y025176D01*
X028525Y025176D01*
X028525Y024641D01*
X028641Y024641D02*
X028641Y025176D01*
X029020Y025176D01*
X029066Y025164D01*
X029107Y025140D01*
X029140Y025107D01*
X029164Y025066D01*
X029176Y025020D01*
X029176Y024641D01*
X028641Y024641D01*
X028641Y024615D02*
X035525Y024615D01*
X035525Y024641D02*
X035525Y024525D01*
X034990Y024525D01*
X034990Y024146D01*
X035002Y024100D01*
X035026Y024059D01*
X035059Y024026D01*
X035100Y024002D01*
X035146Y023990D01*
X035525Y023990D01*
X035525Y024525D01*
X035641Y024525D01*
X035641Y023990D01*
X036020Y023990D01*
X036066Y024002D01*
X036107Y024026D01*
X036140Y024059D01*
X036164Y024100D01*
X036176Y024146D01*
X036176Y024525D01*
X035641Y024525D01*
X035641Y024641D01*
X035525Y024641D01*
X034990Y024641D01*
X034990Y025020D01*
X035002Y025066D01*
X035026Y025107D01*
X035059Y025140D01*
X035100Y025164D01*
X035146Y025176D01*
X035525Y025176D01*
X035525Y024641D01*
X035641Y024641D02*
X035641Y025176D01*
X036020Y025176D01*
X036066Y025164D01*
X036107Y025140D01*
X036140Y025107D01*
X036164Y025066D01*
X036176Y025020D01*
X036176Y024641D01*
X035641Y024641D01*
X035641Y024615D02*
X040213Y024615D01*
X040213Y024773D02*
X036176Y024773D01*
X036176Y024932D02*
X040213Y024932D01*
X040213Y025090D02*
X036150Y025090D01*
X035641Y025090D02*
X035525Y025090D01*
X035525Y024932D02*
X035641Y024932D01*
X035641Y024773D02*
X035525Y024773D01*
X035525Y024456D02*
X035641Y024456D01*
X035641Y024298D02*
X035525Y024298D01*
X035525Y024139D02*
X035641Y024139D01*
X036175Y024139D02*
X040213Y024139D01*
X040213Y024298D02*
X036176Y024298D01*
X036176Y024456D02*
X040213Y024456D01*
X040213Y025249D02*
X002823Y025249D01*
X002823Y025407D02*
X005541Y025407D01*
X005638Y025367D02*
X005319Y025499D01*
X005074Y025744D01*
X004941Y026064D01*
X004941Y026410D01*
X005074Y026729D01*
X005319Y026974D01*
X005638Y027107D01*
X005984Y027107D01*
X006304Y026974D01*
X006549Y026729D01*
X006681Y026410D01*
X006681Y026064D01*
X006549Y025744D01*
X006304Y025499D01*
X005984Y025367D01*
X005638Y025367D01*
X005252Y025566D02*
X002823Y025566D01*
X002823Y025724D02*
X005094Y025724D01*
X005016Y025883D02*
X002823Y025883D01*
X002823Y026041D02*
X004951Y026041D01*
X004941Y026200D02*
X002823Y026200D01*
X002823Y026358D02*
X004941Y026358D01*
X004986Y026517D02*
X002823Y026517D01*
X002823Y026675D02*
X005051Y026675D01*
X005178Y026834D02*
X002823Y026834D01*
X002823Y026992D02*
X005362Y026992D01*
X006261Y026992D02*
X008905Y026992D01*
X008862Y026974D02*
X008617Y026729D01*
X008485Y026410D01*
X008485Y026064D01*
X008617Y025744D01*
X008862Y025499D01*
X009182Y025367D01*
X009528Y025367D01*
X009847Y025499D01*
X010092Y025744D01*
X010225Y026064D01*
X010225Y026410D01*
X010092Y026729D01*
X009847Y026974D01*
X009528Y027107D01*
X009182Y027107D01*
X008862Y026974D01*
X008721Y026834D02*
X006445Y026834D01*
X006571Y026675D02*
X008595Y026675D01*
X008529Y026517D02*
X006637Y026517D01*
X006681Y026358D02*
X008485Y026358D01*
X008485Y026200D02*
X006681Y026200D01*
X006672Y026041D02*
X008494Y026041D01*
X008560Y025883D02*
X006606Y025883D01*
X006529Y025724D02*
X008637Y025724D01*
X008795Y025566D02*
X006371Y025566D01*
X006082Y025407D02*
X009084Y025407D01*
X009625Y025407D02*
X012541Y025407D01*
X012638Y025367D02*
X012984Y025367D01*
X013304Y025499D01*
X013549Y025744D01*
X013681Y026064D01*
X013681Y026410D01*
X013549Y026729D01*
X013304Y026974D01*
X012984Y027107D01*
X012638Y027107D01*
X012319Y026974D01*
X012074Y026729D01*
X011941Y026410D01*
X011941Y026064D01*
X012074Y025744D01*
X012319Y025499D01*
X012638Y025367D01*
X012252Y025566D02*
X009914Y025566D01*
X010072Y025724D02*
X012094Y025724D01*
X012016Y025883D02*
X010150Y025883D01*
X010215Y026041D02*
X011951Y026041D01*
X011941Y026200D02*
X010225Y026200D01*
X010225Y026358D02*
X011941Y026358D01*
X011986Y026517D02*
X010180Y026517D01*
X010115Y026675D02*
X012051Y026675D01*
X012178Y026834D02*
X009988Y026834D01*
X009804Y026992D02*
X012362Y026992D01*
X013261Y026992D02*
X015905Y026992D01*
X015862Y026974D02*
X015617Y026729D01*
X015485Y026410D01*
X015485Y026064D01*
X015617Y025744D01*
X015862Y025499D01*
X016182Y025367D01*
X016528Y025367D01*
X016847Y025499D01*
X017092Y025744D01*
X017225Y026064D01*
X017225Y026410D01*
X017092Y026729D01*
X016847Y026974D01*
X016528Y027107D01*
X016182Y027107D01*
X015862Y026974D01*
X015721Y026834D02*
X013445Y026834D01*
X013571Y026675D02*
X015595Y026675D01*
X015529Y026517D02*
X013637Y026517D01*
X013681Y026358D02*
X015485Y026358D01*
X015485Y026200D02*
X013681Y026200D01*
X013672Y026041D02*
X015494Y026041D01*
X015560Y025883D02*
X013606Y025883D01*
X013529Y025724D02*
X015637Y025724D01*
X015795Y025566D02*
X013371Y025566D01*
X013082Y025407D02*
X016084Y025407D01*
X016625Y025407D02*
X019541Y025407D01*
X019638Y025367D02*
X019984Y025367D01*
X020304Y025499D01*
X020549Y025744D01*
X020681Y026064D01*
X020681Y026410D01*
X020549Y026729D01*
X020304Y026974D01*
X019984Y027107D01*
X019638Y027107D01*
X019319Y026974D01*
X019074Y026729D01*
X018941Y026410D01*
X018941Y026064D01*
X019074Y025744D01*
X019319Y025499D01*
X019638Y025367D01*
X019252Y025566D02*
X016914Y025566D01*
X017072Y025724D02*
X019094Y025724D01*
X019016Y025883D02*
X017150Y025883D01*
X017215Y026041D02*
X018951Y026041D01*
X018941Y026200D02*
X017225Y026200D01*
X017225Y026358D02*
X018941Y026358D01*
X018986Y026517D02*
X017180Y026517D01*
X017115Y026675D02*
X019051Y026675D01*
X019178Y026834D02*
X016988Y026834D01*
X016804Y026992D02*
X019362Y026992D01*
X020261Y026992D02*
X022905Y026992D01*
X022862Y026974D02*
X023182Y027107D01*
X023528Y027107D01*
X023847Y026974D01*
X024092Y026729D01*
X024225Y026410D01*
X024225Y026064D01*
X024092Y025744D01*
X023847Y025499D01*
X023528Y025367D01*
X023182Y025367D01*
X022862Y025499D01*
X022617Y025744D01*
X022485Y026064D01*
X022485Y026410D01*
X022617Y026729D01*
X022862Y026974D01*
X022721Y026834D02*
X020445Y026834D01*
X020571Y026675D02*
X022595Y026675D01*
X022529Y026517D02*
X020637Y026517D01*
X020681Y026358D02*
X022485Y026358D01*
X022485Y026200D02*
X020681Y026200D01*
X020672Y026041D02*
X022494Y026041D01*
X022560Y025883D02*
X020606Y025883D01*
X020529Y025724D02*
X022637Y025724D01*
X022795Y025566D02*
X020371Y025566D01*
X020082Y025407D02*
X023084Y025407D01*
X023625Y025407D02*
X026541Y025407D01*
X026638Y025367D02*
X026984Y025367D01*
X027304Y025499D01*
X027549Y025744D01*
X027681Y026064D01*
X027681Y026410D01*
X027549Y026729D01*
X027304Y026974D01*
X026984Y027107D01*
X026638Y027107D01*
X026319Y026974D01*
X026074Y026729D01*
X025941Y026410D01*
X025941Y026064D01*
X026074Y025744D01*
X026319Y025499D01*
X026638Y025367D01*
X026252Y025566D02*
X023914Y025566D01*
X024072Y025724D02*
X026094Y025724D01*
X026016Y025883D02*
X024150Y025883D01*
X024215Y026041D02*
X025951Y026041D01*
X025941Y026200D02*
X024225Y026200D01*
X024225Y026358D02*
X025941Y026358D01*
X025986Y026517D02*
X024180Y026517D01*
X024115Y026675D02*
X026051Y026675D01*
X026178Y026834D02*
X023988Y026834D01*
X023804Y026992D02*
X026362Y026992D01*
X027261Y026992D02*
X029905Y026992D01*
X029862Y026974D02*
X029617Y026729D01*
X029485Y026410D01*
X029485Y026064D01*
X029617Y025744D01*
X029862Y025499D01*
X030182Y025367D01*
X030528Y025367D01*
X030847Y025499D01*
X031092Y025744D01*
X031225Y026064D01*
X031225Y026410D01*
X031092Y026729D01*
X030847Y026974D01*
X030528Y027107D01*
X030182Y027107D01*
X029862Y026974D01*
X029721Y026834D02*
X027445Y026834D01*
X027571Y026675D02*
X029595Y026675D01*
X029529Y026517D02*
X027637Y026517D01*
X027681Y026358D02*
X029485Y026358D01*
X029485Y026200D02*
X027681Y026200D01*
X027672Y026041D02*
X029494Y026041D01*
X029560Y025883D02*
X027606Y025883D01*
X027529Y025724D02*
X029637Y025724D01*
X029795Y025566D02*
X027371Y025566D01*
X027082Y025407D02*
X030084Y025407D01*
X030625Y025407D02*
X033541Y025407D01*
X033638Y025367D02*
X033984Y025367D01*
X034304Y025499D01*
X034549Y025744D01*
X034681Y026064D01*
X034681Y026410D01*
X034549Y026729D01*
X034304Y026974D01*
X033984Y027107D01*
X033638Y027107D01*
X033319Y026974D01*
X033074Y026729D01*
X032941Y026410D01*
X032941Y026064D01*
X033074Y025744D01*
X033319Y025499D01*
X033638Y025367D01*
X033252Y025566D02*
X030914Y025566D01*
X031072Y025724D02*
X033094Y025724D01*
X033016Y025883D02*
X031150Y025883D01*
X031215Y026041D02*
X032951Y026041D01*
X032941Y026200D02*
X031225Y026200D01*
X031225Y026358D02*
X032941Y026358D01*
X032986Y026517D02*
X031180Y026517D01*
X031115Y026675D02*
X033051Y026675D01*
X033178Y026834D02*
X030988Y026834D01*
X030804Y026992D02*
X033362Y026992D01*
X034261Y026992D02*
X036905Y026992D01*
X036862Y026974D02*
X036617Y026729D01*
X036485Y026410D01*
X036485Y026064D01*
X036617Y025744D01*
X036862Y025499D01*
X037182Y025367D01*
X037528Y025367D01*
X037847Y025499D01*
X038092Y025744D01*
X038225Y026064D01*
X038225Y026410D01*
X038092Y026729D01*
X037847Y026974D01*
X037528Y027107D01*
X037182Y027107D01*
X036862Y026974D01*
X036721Y026834D02*
X034445Y026834D01*
X034571Y026675D02*
X036595Y026675D01*
X036529Y026517D02*
X034637Y026517D01*
X034681Y026358D02*
X036485Y026358D01*
X036485Y026200D02*
X034681Y026200D01*
X034672Y026041D02*
X036494Y026041D01*
X036560Y025883D02*
X034606Y025883D01*
X034529Y025724D02*
X036637Y025724D01*
X036795Y025566D02*
X034371Y025566D01*
X034082Y025407D02*
X037084Y025407D01*
X037625Y025407D02*
X040213Y025407D01*
X040213Y025566D02*
X037914Y025566D01*
X038072Y025724D02*
X040213Y025724D01*
X040213Y025883D02*
X038150Y025883D01*
X038215Y026041D02*
X040213Y026041D01*
X040213Y026200D02*
X038225Y026200D01*
X038225Y026358D02*
X040213Y026358D01*
X040213Y026517D02*
X038180Y026517D01*
X038115Y026675D02*
X040213Y026675D01*
X040213Y026834D02*
X037988Y026834D01*
X037804Y026992D02*
X040213Y026992D01*
X040213Y027151D02*
X002823Y027151D01*
X002823Y027214D02*
X040213Y027214D01*
X040213Y002824D01*
X002823Y002947D01*
X002823Y027214D01*
X002823Y025090D02*
X007016Y025090D01*
X006990Y024932D02*
X002823Y024932D01*
X002823Y023505D02*
X006986Y023505D01*
X006758Y023347D02*
X002823Y023347D01*
X002823Y023188D02*
X006600Y023188D01*
X006505Y023030D02*
X002823Y023030D01*
X002823Y022871D02*
X006421Y022871D01*
X006378Y022713D02*
X002823Y022713D01*
X002823Y022554D02*
X006343Y022554D01*
X006343Y022396D02*
X002823Y022396D01*
X002823Y022237D02*
X006348Y022237D01*
X006390Y022079D02*
X002823Y022079D01*
X002823Y021920D02*
X006439Y021920D01*
X006530Y021762D02*
X002823Y021762D01*
X002823Y021603D02*
X006644Y021603D01*
X006803Y021445D02*
X002823Y021445D01*
X002823Y021286D02*
X007063Y021286D01*
X007525Y024139D02*
X007641Y024139D01*
X007641Y024298D02*
X007525Y024298D01*
X007525Y024456D02*
X007641Y024456D01*
X007641Y024641D02*
X008176Y024641D01*
X008176Y025020D01*
X008164Y025066D01*
X008140Y025107D01*
X008107Y025140D01*
X008066Y025164D01*
X008020Y025176D01*
X007641Y025176D01*
X007641Y024641D01*
X007641Y024773D02*
X007525Y024773D01*
X007525Y024932D02*
X007641Y024932D01*
X007641Y025090D02*
X007525Y025090D01*
X008150Y025090D02*
X014016Y025090D01*
X013990Y024932D02*
X008176Y024932D01*
X008176Y024773D02*
X013990Y024773D01*
X013990Y024456D02*
X008176Y024456D01*
X008176Y024298D02*
X013990Y024298D01*
X013992Y024139D02*
X008175Y024139D01*
X002823Y021128D02*
X034343Y021128D01*
X034343Y020969D02*
X002823Y020969D01*
X002823Y020811D02*
X034343Y020811D01*
X034343Y020652D02*
X002823Y020652D01*
X002823Y020494D02*
X034343Y020494D01*
X034343Y020335D02*
X002823Y020335D01*
X002823Y020177D02*
X034343Y020177D01*
X034343Y020018D02*
X002823Y020018D01*
X002823Y019860D02*
X034343Y019860D01*
X034343Y019701D02*
X002823Y019701D01*
X002823Y019543D02*
X034343Y019543D01*
X034343Y018750D02*
X026583Y018750D01*
X026542Y018592D02*
X034343Y018592D01*
X034343Y018433D02*
X026446Y018433D01*
X026250Y018275D02*
X034343Y018275D01*
X034343Y017482D02*
X017094Y017482D01*
X017253Y017324D02*
X034343Y017324D01*
X034343Y017165D02*
X017411Y017165D01*
X017498Y017007D02*
X034343Y017007D01*
X036823Y017007D02*
X038681Y017007D01*
X038523Y017165D02*
X036823Y017165D01*
X036823Y017324D02*
X038443Y017324D01*
X038378Y017482D02*
X036823Y017482D01*
X036823Y017641D02*
X038367Y017641D01*
X038367Y017799D02*
X036823Y017799D01*
X036823Y017958D02*
X038409Y017958D01*
X038475Y018116D02*
X036823Y018116D01*
X036823Y018275D02*
X038599Y018275D01*
X038778Y018433D02*
X036823Y018433D01*
X036823Y016848D02*
X038975Y016848D01*
X037033Y014788D02*
X036769Y014788D01*
X036811Y014629D02*
X036990Y014629D01*
X036990Y014471D02*
X036823Y014471D01*
X038176Y014471D02*
X040213Y014471D01*
X040213Y014629D02*
X038176Y014629D01*
X034178Y009874D02*
X017409Y009874D01*
X017251Y009716D02*
X034178Y009716D01*
X034178Y009557D02*
X017092Y009557D01*
X016934Y009399D02*
X034178Y009399D01*
X040213Y006387D02*
X002823Y006387D01*
X002823Y006229D02*
X040213Y006229D01*
X040213Y004802D02*
X002823Y004802D01*
X002823Y004644D02*
X005295Y004644D01*
X005319Y004667D02*
X005074Y004422D01*
X004941Y004103D01*
X004941Y003756D01*
X005074Y003437D01*
X005319Y003192D01*
X005638Y003060D01*
X005984Y003060D01*
X006304Y003192D01*
X006549Y003437D01*
X006681Y003756D01*
X006681Y004103D01*
X006549Y004422D01*
X006304Y004667D01*
X005984Y004799D01*
X005638Y004799D01*
X005319Y004667D01*
X005137Y004485D02*
X002823Y004485D01*
X002823Y004327D02*
X005034Y004327D01*
X004969Y004168D02*
X002823Y004168D01*
X002823Y004010D02*
X004941Y004010D01*
X004941Y003851D02*
X002823Y003851D01*
X002823Y003693D02*
X004968Y003693D01*
X005034Y003534D02*
X002823Y003534D01*
X002823Y003376D02*
X005135Y003376D01*
X005294Y003217D02*
X002823Y003217D01*
X002823Y003059D02*
X040213Y003059D01*
X040213Y003217D02*
X037873Y003217D01*
X038031Y003376D02*
X040213Y003376D01*
X040213Y003534D02*
X038133Y003534D01*
X038198Y003693D02*
X040213Y003693D01*
X040213Y003851D02*
X038225Y003851D01*
X038225Y004010D02*
X040213Y004010D01*
X040213Y004168D02*
X038198Y004168D01*
X038132Y004327D02*
X040213Y004327D01*
X040213Y004485D02*
X038029Y004485D01*
X037871Y004644D02*
X040213Y004644D01*
X040213Y002900D02*
X017125Y002900D01*
X016847Y003192D02*
X016528Y003060D01*
X016182Y003060D01*
X015862Y003192D01*
X015617Y003437D01*
X015485Y003756D01*
X015485Y004103D01*
X015617Y004422D01*
X015862Y004667D01*
X016182Y004799D01*
X016528Y004799D01*
X016847Y004667D01*
X017092Y004422D01*
X017225Y004103D01*
X017225Y003756D01*
X017092Y003437D01*
X016847Y003192D01*
X016873Y003217D02*
X019294Y003217D01*
X019319Y003192D02*
X019638Y003060D01*
X019984Y003060D01*
X020304Y003192D01*
X020549Y003437D01*
X020681Y003756D01*
X020681Y004103D01*
X020549Y004422D01*
X020304Y004667D01*
X019984Y004799D01*
X019638Y004799D01*
X019319Y004667D01*
X019074Y004422D01*
X018941Y004103D01*
X018941Y003756D01*
X019074Y003437D01*
X019319Y003192D01*
X019135Y003376D02*
X017031Y003376D01*
X017133Y003534D02*
X019034Y003534D01*
X018968Y003693D02*
X017198Y003693D01*
X017225Y003851D02*
X018941Y003851D01*
X018941Y004010D02*
X017225Y004010D01*
X017198Y004168D02*
X018969Y004168D01*
X019034Y004327D02*
X017132Y004327D01*
X017029Y004485D02*
X019137Y004485D01*
X019295Y004644D02*
X016871Y004644D01*
X015839Y004644D02*
X013328Y004644D01*
X013304Y004667D02*
X012984Y004799D01*
X012638Y004799D01*
X012319Y004667D01*
X012074Y004422D01*
X011941Y004103D01*
X011941Y003756D01*
X012074Y003437D01*
X012319Y003192D01*
X012638Y003060D01*
X012984Y003060D01*
X013304Y003192D01*
X013549Y003437D01*
X013681Y003756D01*
X013681Y004103D01*
X013549Y004422D01*
X013304Y004667D01*
X013486Y004485D02*
X015680Y004485D01*
X015578Y004327D02*
X013589Y004327D01*
X013654Y004168D02*
X015512Y004168D01*
X015485Y004010D02*
X013681Y004010D01*
X013681Y003851D02*
X015485Y003851D01*
X015511Y003693D02*
X013655Y003693D01*
X013589Y003534D02*
X015577Y003534D01*
X015678Y003376D02*
X013488Y003376D01*
X013329Y003217D02*
X015837Y003217D01*
X015169Y005119D02*
X020997Y005119D01*
X021002Y005100D02*
X021026Y005059D01*
X021059Y005026D01*
X021100Y005002D01*
X021146Y004990D01*
X021525Y004990D01*
X021525Y005525D01*
X020990Y005525D01*
X020990Y005146D01*
X021002Y005100D01*
X020990Y005278D02*
X015176Y005278D01*
X015176Y005436D02*
X020990Y005436D01*
X020990Y005753D02*
X015176Y005753D01*
X015176Y005912D02*
X020990Y005912D01*
X021004Y006070D02*
X015162Y006070D01*
X014641Y006070D02*
X014525Y006070D01*
X014525Y005912D02*
X014641Y005912D01*
X014525Y005525D02*
X013990Y005525D01*
X013990Y005146D01*
X014002Y005100D01*
X014026Y005059D01*
X014059Y005026D01*
X014100Y005002D01*
X014146Y004990D01*
X014525Y004990D01*
X014525Y005525D01*
X014525Y005436D02*
X014641Y005436D01*
X014641Y005278D02*
X014525Y005278D01*
X014525Y005119D02*
X014641Y005119D01*
X013997Y005119D02*
X008169Y005119D01*
X008176Y005278D02*
X013990Y005278D01*
X013990Y005436D02*
X008176Y005436D01*
X008176Y005753D02*
X013990Y005753D01*
X013990Y005912D02*
X008176Y005912D01*
X008162Y006070D02*
X014004Y006070D01*
X012295Y004644D02*
X009871Y004644D01*
X009847Y004667D02*
X009528Y004799D01*
X009182Y004799D01*
X008862Y004667D01*
X008617Y004422D01*
X008485Y004103D01*
X008485Y003756D01*
X008617Y003437D01*
X008862Y003192D01*
X009182Y003060D01*
X009528Y003060D01*
X009847Y003192D01*
X010092Y003437D01*
X010225Y003756D01*
X010225Y004103D01*
X010092Y004422D01*
X009847Y004667D01*
X010029Y004485D02*
X012137Y004485D01*
X012034Y004327D02*
X010132Y004327D01*
X010198Y004168D02*
X011969Y004168D01*
X011941Y004010D02*
X010225Y004010D01*
X010225Y003851D02*
X011941Y003851D01*
X011968Y003693D02*
X010198Y003693D01*
X010133Y003534D02*
X012034Y003534D01*
X012135Y003376D02*
X010031Y003376D01*
X009873Y003217D02*
X012294Y003217D01*
X008837Y003217D02*
X006329Y003217D01*
X006488Y003376D02*
X008678Y003376D01*
X008577Y003534D02*
X006589Y003534D01*
X006655Y003693D02*
X008511Y003693D01*
X008485Y003851D02*
X006681Y003851D01*
X006681Y004010D02*
X008485Y004010D01*
X008512Y004168D02*
X006654Y004168D01*
X006589Y004327D02*
X008578Y004327D01*
X008680Y004485D02*
X006486Y004485D01*
X006328Y004644D02*
X008839Y004644D01*
X007641Y005119D02*
X007525Y005119D01*
X007525Y005278D02*
X007641Y005278D01*
X007641Y005436D02*
X007525Y005436D01*
X007525Y005753D02*
X007641Y005753D01*
X007641Y005912D02*
X007525Y005912D01*
X007525Y006070D02*
X007641Y006070D01*
X007281Y006546D02*
X002823Y006546D01*
X002823Y006704D02*
X006912Y006704D01*
X006715Y006863D02*
X002823Y006863D01*
X002823Y007021D02*
X006571Y007021D01*
X006480Y007180D02*
X002823Y007180D01*
X002823Y007338D02*
X006409Y007338D01*
X006367Y007497D02*
X002823Y007497D01*
X002823Y007655D02*
X006343Y007655D01*
X006343Y007814D02*
X002823Y007814D01*
X002823Y007972D02*
X006359Y007972D01*
X004642Y009399D02*
X002823Y009399D01*
X002823Y009557D02*
X004605Y009557D01*
X004621Y009716D02*
X002823Y009716D01*
X002823Y009874D02*
X004698Y009874D01*
X004920Y010033D02*
X002823Y010033D01*
X002823Y010191D02*
X004799Y010191D01*
X004663Y010350D02*
X002823Y010350D01*
X002823Y010508D02*
X004605Y010508D01*
X004605Y010667D02*
X002823Y010667D01*
X002823Y010825D02*
X004666Y010825D01*
X003450Y012569D02*
X002823Y012569D01*
X002823Y012727D02*
X003284Y012727D01*
X003164Y012886D02*
X002823Y012886D01*
X002823Y013044D02*
X003099Y013044D01*
X003060Y013203D02*
X002823Y013203D01*
X002823Y013361D02*
X003060Y013361D01*
X003074Y013520D02*
X002823Y013520D01*
X002823Y013678D02*
X003140Y013678D01*
X003224Y013837D02*
X002823Y013837D01*
X002823Y013995D02*
X003383Y013995D01*
X013398Y010984D02*
X014188Y010984D01*
X007004Y006070D02*
X002823Y006070D01*
X002823Y005912D02*
X006990Y005912D01*
X020328Y004644D02*
X022839Y004644D01*
X022680Y004485D02*
X020486Y004485D01*
X020589Y004327D02*
X022578Y004327D01*
X022512Y004168D02*
X020654Y004168D01*
X020681Y004010D02*
X022485Y004010D01*
X022485Y003851D02*
X020681Y003851D01*
X020655Y003693D02*
X022511Y003693D01*
X022577Y003534D02*
X020589Y003534D01*
X020488Y003376D02*
X022678Y003376D01*
X022837Y003217D02*
X020329Y003217D01*
X021525Y005119D02*
X021641Y005119D01*
X021641Y005278D02*
X021525Y005278D01*
X021525Y005436D02*
X021641Y005436D01*
X021641Y005912D02*
X021525Y005912D01*
X021525Y006070D02*
X021641Y006070D01*
X025878Y018275D02*
X026038Y018275D01*
X026038Y018433D02*
X025878Y018433D01*
X025878Y018592D02*
X026038Y018592D01*
X026038Y018750D02*
X025878Y018750D01*
X027992Y024139D02*
X022175Y024139D01*
X022176Y024298D02*
X027990Y024298D01*
X027990Y024456D02*
X022176Y024456D01*
X022176Y024773D02*
X027990Y024773D01*
X027990Y024932D02*
X022176Y024932D01*
X022150Y025090D02*
X028016Y025090D01*
X028525Y025090D02*
X028641Y025090D01*
X028641Y024932D02*
X028525Y024932D01*
X028525Y024773D02*
X028641Y024773D01*
X028641Y024456D02*
X028525Y024456D01*
X028525Y024298D02*
X028641Y024298D01*
X028641Y024139D02*
X028525Y024139D01*
X029175Y024139D02*
X034992Y024139D01*
X034990Y024298D02*
X029176Y024298D01*
X029176Y024456D02*
X034990Y024456D01*
X034990Y024773D02*
X029176Y024773D01*
X029176Y024932D02*
X034990Y024932D01*
X035016Y025090D02*
X029150Y025090D01*
X021641Y025090D02*
X021525Y025090D01*
X021525Y024932D02*
X021641Y024932D01*
X021641Y024773D02*
X021525Y024773D01*
X021525Y024456D02*
X021641Y024456D01*
X021641Y024298D02*
X021525Y024298D01*
X021525Y024139D02*
X021641Y024139D01*
X020992Y024139D02*
X015175Y024139D01*
X015176Y024298D02*
X020990Y024298D01*
X020990Y024456D02*
X015176Y024456D01*
X015176Y024773D02*
X020990Y024773D01*
X020990Y024932D02*
X015176Y024932D01*
X015150Y025090D02*
X021016Y025090D01*
X014641Y025090D02*
X014525Y025090D01*
X014525Y024932D02*
X014641Y024932D01*
X014641Y024773D02*
X014525Y024773D01*
X014525Y024456D02*
X014641Y024456D01*
X014641Y024298D02*
X014525Y024298D01*
X014525Y024139D02*
X014641Y024139D01*
D18*
X016333Y017833D02*
X017208Y016958D01*
X017208Y011333D01*
X018458Y011333D02*
X016708Y009583D01*
X005083Y009583D01*
D19*
X016333Y017833D03*
X019708Y012958D03*
D20*
X025958Y011333D02*
X027833Y011333D01*
X030583Y014083D01*
X035418Y014083D01*
X035418Y013958D01*
X035418Y007914D01*
X035583Y007748D01*
X028583Y007748D01*
X021583Y007748D01*
X014583Y007748D01*
X007583Y007748D01*
X012208Y011333D02*
X008458Y015083D01*
X007748Y015083D01*
X007583Y022418D02*
X014583Y022418D01*
X021583Y022418D01*
X028583Y022418D01*
X035583Y022418D01*
X035583Y015910D01*
X035583Y015833D01*
X035583Y015910D02*
X035418Y015910D01*
X035418Y014256D01*
X035418Y014083D01*
X035583Y014083D01*
X035418Y014256D02*
X035244Y014083D01*
X035418Y014256D02*
X035583Y014422D01*
D21*
X014458Y011333D03*
D22*
X019708Y011333D02*
X025958Y011333D01*
M02*
