G75*
%MOIN*%
%OFA0B0*%
%FSLAX24Y24*%
%IPPOS*%
%LPD*%
%AMOC8*
5,1,8,0,0,1.08239X$1,22.5*
%
%ADD10R,0.0551X0.0256*%
%ADD11R,0.0256X0.0551*%
%ADD12C,0.0060*%
%ADD13C,0.0020*%
%ADD14C,0.0050*%
%ADD15C,0.0040*%
D10*
X015457Y009300D03*
X015457Y009880D03*
X029082Y009880D03*
X029082Y009300D03*
X021646Y021233D03*
X021646Y021813D03*
X014645Y022050D03*
X014645Y022630D03*
X029457Y022630D03*
X029457Y022050D03*
D11*
X015375Y019713D03*
X014795Y019713D03*
X014854Y018399D03*
X015434Y018399D03*
D12*
X012482Y021285D02*
X010684Y021285D01*
X010684Y023265D01*
X012482Y023265D01*
X012482Y021285D01*
X011883Y022915D02*
X011885Y022941D01*
X011891Y022967D01*
X011900Y022991D01*
X011913Y023014D01*
X011929Y023035D01*
X011948Y023053D01*
X011969Y023069D01*
X011993Y023081D01*
X012017Y023089D01*
X012043Y023094D01*
X012070Y023095D01*
X012096Y023092D01*
X012121Y023085D01*
X012145Y023075D01*
X012168Y023061D01*
X012188Y023045D01*
X012205Y023025D01*
X012220Y023003D01*
X012231Y022979D01*
X012239Y022954D01*
X012243Y022928D01*
X012243Y022902D01*
X012239Y022876D01*
X012231Y022851D01*
X012220Y022827D01*
X012205Y022805D01*
X012188Y022785D01*
X012168Y022769D01*
X012145Y022755D01*
X012121Y022745D01*
X012096Y022738D01*
X012070Y022735D01*
X012043Y022736D01*
X012017Y022741D01*
X011993Y022749D01*
X011969Y022761D01*
X011948Y022777D01*
X011929Y022795D01*
X011913Y022816D01*
X011900Y022839D01*
X011891Y022863D01*
X011885Y022889D01*
X011883Y022915D01*
X012482Y010515D02*
X010684Y010515D01*
X010684Y008535D01*
X012482Y008535D01*
X012482Y010515D01*
X011883Y010165D02*
X011885Y010191D01*
X011891Y010217D01*
X011900Y010241D01*
X011913Y010264D01*
X011929Y010285D01*
X011948Y010303D01*
X011969Y010319D01*
X011993Y010331D01*
X012017Y010339D01*
X012043Y010344D01*
X012070Y010345D01*
X012096Y010342D01*
X012121Y010335D01*
X012145Y010325D01*
X012168Y010311D01*
X012188Y010295D01*
X012205Y010275D01*
X012220Y010253D01*
X012231Y010229D01*
X012239Y010204D01*
X012243Y010178D01*
X012243Y010152D01*
X012239Y010126D01*
X012231Y010101D01*
X012220Y010077D01*
X012205Y010055D01*
X012188Y010035D01*
X012168Y010019D01*
X012145Y010005D01*
X012121Y009995D01*
X012096Y009988D01*
X012070Y009985D01*
X012043Y009986D01*
X012017Y009991D01*
X011993Y009999D01*
X011969Y010011D01*
X011948Y010027D01*
X011929Y010045D01*
X011913Y010066D01*
X011900Y010089D01*
X011891Y010113D01*
X011885Y010139D01*
X011883Y010165D01*
X031684Y010515D02*
X031684Y008535D01*
X033482Y008535D01*
X033482Y010515D01*
X031684Y010515D01*
X031923Y008885D02*
X031925Y008911D01*
X031931Y008937D01*
X031940Y008961D01*
X031953Y008984D01*
X031969Y009005D01*
X031988Y009023D01*
X032009Y009039D01*
X032033Y009051D01*
X032057Y009059D01*
X032083Y009064D01*
X032110Y009065D01*
X032136Y009062D01*
X032161Y009055D01*
X032185Y009045D01*
X032208Y009031D01*
X032228Y009015D01*
X032245Y008995D01*
X032260Y008973D01*
X032271Y008949D01*
X032279Y008924D01*
X032283Y008898D01*
X032283Y008872D01*
X032279Y008846D01*
X032271Y008821D01*
X032260Y008797D01*
X032245Y008775D01*
X032228Y008755D01*
X032208Y008739D01*
X032185Y008725D01*
X032161Y008715D01*
X032136Y008708D01*
X032110Y008705D01*
X032083Y008706D01*
X032057Y008711D01*
X032033Y008719D01*
X032009Y008731D01*
X031988Y008747D01*
X031969Y008765D01*
X031953Y008786D01*
X031940Y008809D01*
X031931Y008833D01*
X031925Y008859D01*
X031923Y008885D01*
X031747Y021223D02*
X033544Y021223D01*
X033544Y023203D01*
X031747Y023203D01*
X031747Y021223D01*
X031986Y021573D02*
X031988Y021599D01*
X031994Y021625D01*
X032003Y021649D01*
X032016Y021672D01*
X032032Y021693D01*
X032051Y021711D01*
X032072Y021727D01*
X032096Y021739D01*
X032120Y021747D01*
X032146Y021752D01*
X032173Y021753D01*
X032199Y021750D01*
X032224Y021743D01*
X032248Y021733D01*
X032271Y021719D01*
X032291Y021703D01*
X032308Y021683D01*
X032323Y021661D01*
X032334Y021637D01*
X032342Y021612D01*
X032346Y021586D01*
X032346Y021560D01*
X032342Y021534D01*
X032334Y021509D01*
X032323Y021485D01*
X032308Y021463D01*
X032291Y021443D01*
X032271Y021427D01*
X032248Y021413D01*
X032224Y021403D01*
X032199Y021396D01*
X032173Y021393D01*
X032146Y021394D01*
X032120Y021399D01*
X032096Y021407D01*
X032072Y021419D01*
X032051Y021435D01*
X032032Y021453D01*
X032016Y021474D01*
X032003Y021497D01*
X031994Y021521D01*
X031988Y021547D01*
X031986Y021573D01*
D13*
X031837Y021313D02*
X033454Y021313D01*
X033454Y023113D01*
X031837Y023113D01*
X031837Y021313D01*
X031774Y010425D02*
X033392Y010425D01*
X033392Y008625D01*
X031774Y008625D01*
X031774Y010425D01*
X012392Y010425D02*
X012392Y008625D01*
X010774Y008625D01*
X010774Y010425D01*
X012392Y010425D01*
X012392Y021375D02*
X010774Y021375D01*
X010774Y023175D01*
X012392Y023175D01*
X012392Y021375D01*
D14*
X003811Y003597D02*
X003811Y002318D01*
X007355Y002318D01*
X007355Y003597D01*
X007355Y011078D02*
X007355Y012259D01*
X003811Y012259D01*
X003811Y011078D01*
X003811Y019380D02*
X003811Y020660D01*
X003811Y019380D02*
X007355Y019380D01*
X007355Y020660D01*
X007355Y028140D02*
X007355Y029321D01*
X003811Y029321D01*
X003811Y028140D01*
X036811Y028203D02*
X036811Y029482D01*
X040355Y029482D01*
X040355Y028203D01*
X040355Y020722D02*
X040355Y019541D01*
X036811Y019541D01*
X036811Y020722D01*
X036811Y012357D02*
X040355Y012357D01*
X040355Y011078D01*
X036811Y011078D02*
X036811Y012357D01*
X036811Y003597D02*
X036811Y002416D01*
X040355Y002416D01*
X040355Y003597D01*
D15*
X040603Y003377D02*
X040680Y003454D01*
X040603Y003377D02*
X040603Y003224D01*
X040680Y003147D01*
X040987Y003147D01*
X041063Y003224D01*
X041063Y003377D01*
X040987Y003454D01*
X040987Y002994D02*
X041063Y002917D01*
X041063Y002763D01*
X040987Y002687D01*
X040680Y002687D01*
X040603Y002763D01*
X040603Y002917D01*
X040680Y002994D01*
X040757Y002533D02*
X041063Y002533D01*
X040757Y002533D02*
X040603Y002380D01*
X040757Y002226D01*
X041063Y002226D01*
X036563Y002761D02*
X036103Y002761D01*
X036103Y002608D02*
X036103Y002914D01*
X036180Y003068D02*
X036103Y003145D01*
X036103Y003298D01*
X036180Y003375D01*
X036257Y003375D01*
X036333Y003298D01*
X036333Y003068D01*
X036180Y003068D01*
X036333Y003068D02*
X036487Y003221D01*
X036563Y003375D01*
X036563Y002761D02*
X036410Y002608D01*
X040757Y019351D02*
X040603Y019505D01*
X040757Y019658D01*
X041063Y019658D01*
X040987Y019812D02*
X040680Y019812D01*
X040603Y019888D01*
X040603Y020042D01*
X040680Y020119D01*
X040680Y020272D02*
X040603Y020349D01*
X040603Y020502D01*
X040680Y020579D01*
X040987Y020579D02*
X041063Y020502D01*
X041063Y020349D01*
X040987Y020272D01*
X040680Y020272D01*
X040987Y020119D02*
X041063Y020042D01*
X041063Y019888D01*
X040987Y019812D01*
X041063Y019351D02*
X040757Y019351D01*
X036563Y019886D02*
X036103Y019886D01*
X036103Y019733D02*
X036103Y020039D01*
X036180Y020193D02*
X036103Y020270D01*
X036103Y020423D01*
X036180Y020500D01*
X036257Y020500D01*
X036333Y020423D01*
X036333Y020193D01*
X036180Y020193D01*
X036333Y020193D02*
X036487Y020346D01*
X036563Y020500D01*
X036563Y019886D02*
X036410Y019733D01*
X008063Y011954D02*
X007987Y011801D01*
X007833Y011647D01*
X007833Y011877D01*
X007757Y011954D01*
X007680Y011954D01*
X007603Y011877D01*
X007603Y011724D01*
X007680Y011647D01*
X007833Y011647D01*
X007603Y011494D02*
X007603Y011187D01*
X007603Y011340D02*
X008063Y011340D01*
X007910Y011187D01*
X003563Y011108D02*
X003257Y011108D01*
X003103Y011261D01*
X003257Y011414D01*
X003563Y011414D01*
X003487Y011568D02*
X003180Y011568D01*
X003103Y011645D01*
X003103Y011798D01*
X003180Y011875D01*
X003180Y012028D02*
X003103Y012105D01*
X003103Y012258D01*
X003180Y012335D01*
X003180Y012028D02*
X003487Y012028D01*
X003563Y012105D01*
X003563Y012258D01*
X003487Y012335D01*
X003487Y011875D02*
X003563Y011798D01*
X003563Y011645D01*
X003487Y011568D01*
X003563Y028170D02*
X003257Y028170D01*
X003103Y028323D01*
X003257Y028477D01*
X003563Y028477D01*
X003487Y028630D02*
X003180Y028630D01*
X003103Y028707D01*
X003103Y028861D01*
X003180Y028937D01*
X003180Y029091D02*
X003103Y029168D01*
X003103Y029321D01*
X003180Y029398D01*
X003487Y029398D02*
X003563Y029321D01*
X003563Y029168D01*
X003487Y029091D01*
X003180Y029091D01*
X003487Y028937D02*
X003563Y028861D01*
X003563Y028707D01*
X003487Y028630D01*
X007603Y028556D02*
X007603Y028249D01*
X007603Y028403D02*
X008063Y028403D01*
X007910Y028249D01*
X007833Y028710D02*
X007833Y028940D01*
X007757Y029017D01*
X007680Y029017D01*
X007603Y028940D01*
X007603Y028786D01*
X007680Y028710D01*
X007833Y028710D01*
X007987Y028863D01*
X008063Y029017D01*
M02*
