G75*
%MOIN*%
%OFA0B0*%
%FSLAX24Y24*%
%IPPOS*%
%LPD*%
%AMOC8*
5,1,8,0,0,1.08239X$1,22.5*
%
%ADD10R,0.0512X0.0591*%
%ADD11R,0.0551X0.0394*%
%ADD12R,0.0551X0.0433*%
%ADD13R,0.0433X0.0551*%
%ADD14R,0.0390X0.0120*%
%ADD15R,0.1890X0.0350*%
D10*
X010897Y002400D03*
X011645Y002400D03*
X009145Y017400D03*
X008397Y017400D03*
X018897Y022775D03*
X019645Y022775D03*
X020522Y022775D03*
X021270Y022775D03*
X032334Y029400D03*
X033082Y029400D03*
X033084Y012775D03*
X033832Y012775D03*
D11*
X032963Y014151D03*
X032963Y014899D03*
X033829Y014525D03*
X032275Y027463D03*
X032275Y028212D03*
X033141Y027838D03*
X009204Y018962D03*
X009204Y018213D03*
X008338Y018588D03*
X011766Y004149D03*
X010900Y003775D03*
X011766Y003401D03*
D12*
X015458Y009194D03*
X015458Y009981D03*
X029083Y009981D03*
X029083Y009194D03*
X029458Y021944D03*
X029458Y022731D03*
X014646Y022731D03*
X014646Y021944D03*
D13*
X019189Y021088D03*
X019977Y021088D03*
D14*
X012732Y021504D03*
X012732Y021760D03*
X012732Y022016D03*
X012732Y022272D03*
X012732Y022528D03*
X012732Y022784D03*
X012732Y023040D03*
X012732Y023296D03*
X010434Y023296D03*
X010434Y023040D03*
X010434Y022784D03*
X010434Y022528D03*
X010434Y022272D03*
X010434Y022016D03*
X010434Y021760D03*
X010434Y021504D03*
X010434Y010296D03*
X010434Y010040D03*
X010434Y009784D03*
X010434Y009528D03*
X010434Y009272D03*
X010434Y009016D03*
X010434Y008760D03*
X010434Y008504D03*
X012732Y008504D03*
X012732Y008760D03*
X012732Y009016D03*
X012732Y009272D03*
X012732Y009528D03*
X012732Y009784D03*
X012732Y010040D03*
X012732Y010296D03*
X031434Y010296D03*
X031434Y010040D03*
X031434Y009784D03*
X031434Y009528D03*
X031434Y009272D03*
X031434Y009016D03*
X031434Y008760D03*
X031434Y008504D03*
X033732Y008504D03*
X033732Y008760D03*
X033732Y009016D03*
X033732Y009272D03*
X033732Y009528D03*
X033732Y009784D03*
X033732Y010040D03*
X033732Y010296D03*
X033794Y021442D03*
X033794Y021698D03*
X033794Y021954D03*
X033794Y022210D03*
X033794Y022465D03*
X033794Y022721D03*
X033794Y022977D03*
X033794Y023233D03*
X031497Y023233D03*
X031497Y022977D03*
X031497Y022721D03*
X031497Y022465D03*
X031497Y022210D03*
X031497Y021954D03*
X031497Y021698D03*
X031497Y021442D03*
D15*
X004274Y003400D03*
X004274Y004400D03*
X004274Y005400D03*
X004274Y006400D03*
X004274Y007400D03*
X004274Y008400D03*
X004274Y009400D03*
X004274Y010400D03*
X006833Y010400D03*
X006833Y009400D03*
X006833Y008400D03*
X006833Y007400D03*
X006833Y006400D03*
X006833Y005400D03*
X006833Y004400D03*
X006833Y003400D03*
X006833Y021400D03*
X006833Y022400D03*
X006833Y023400D03*
X006833Y024400D03*
X006833Y025400D03*
X006833Y026400D03*
X006833Y027400D03*
X006833Y028400D03*
X004274Y028400D03*
X004274Y027400D03*
X004274Y026400D03*
X004274Y025400D03*
X004274Y024400D03*
X004274Y023400D03*
X004274Y022400D03*
X004274Y021400D03*
X037333Y021400D03*
X037333Y022400D03*
X037333Y023400D03*
X037333Y024400D03*
X037333Y025400D03*
X037333Y026400D03*
X037333Y027400D03*
X037333Y028400D03*
X039892Y028400D03*
X039892Y027400D03*
X039892Y026400D03*
X039892Y025400D03*
X039892Y024400D03*
X039892Y023400D03*
X039892Y022400D03*
X039892Y021400D03*
X039892Y010400D03*
X039892Y009400D03*
X039892Y008400D03*
X039892Y007400D03*
X039892Y006400D03*
X039892Y005400D03*
X039892Y004400D03*
X039892Y003400D03*
X037333Y003400D03*
X037333Y004400D03*
X037333Y005400D03*
X037333Y006400D03*
X037333Y007400D03*
X037333Y008400D03*
X037333Y009400D03*
X037333Y010400D03*
M02*
