G75*
%MOIN*%
%OFA0B0*%
%FSLAX24Y24*%
%IPPOS*%
%LPD*%
%AMOC8*
5,1,8,0,0,1.08239X$1,22.5*
%
%ADD10C,0.0500*%
%ADD11C,0.0100*%
%ADD12R,0.0551X0.0256*%
%ADD13R,0.0256X0.0551*%
%ADD14C,0.0060*%
%ADD15C,0.0020*%
%ADD16C,0.0050*%
%ADD17C,0.0040*%
D10*
X005937Y015900D02*
X007394Y015900D01*
D11*
X005229Y012869D02*
X005229Y018931D01*
X002748Y018931D01*
X002748Y016963D01*
X000150Y016963D01*
X000150Y014837D01*
X002748Y014837D01*
X002748Y012869D01*
X005229Y012869D01*
D12*
X015459Y009880D03*
X015459Y009300D03*
X029084Y009300D03*
X029084Y009880D03*
X029459Y022050D03*
X029459Y022630D03*
X014646Y022630D03*
X014646Y022050D03*
D13*
X019291Y021088D03*
X019871Y021088D03*
D14*
X019958Y024525D02*
X019708Y024775D01*
X019708Y026275D01*
X019958Y026525D01*
X020458Y026525D01*
X020708Y026275D01*
X020708Y024775D01*
X020458Y024525D01*
X019958Y024525D01*
X019708Y024775D02*
X019458Y024525D01*
X018958Y024525D01*
X018708Y024775D01*
X018708Y026275D01*
X018958Y026525D01*
X019458Y026525D01*
X019708Y026275D01*
X020708Y026275D02*
X020958Y026525D01*
X021458Y026525D01*
X021708Y026275D01*
X021708Y024775D01*
X021458Y024525D01*
X020958Y024525D01*
X020708Y024775D01*
X021708Y024775D02*
X021958Y024525D01*
X022458Y024525D01*
X022708Y024775D01*
X022708Y026275D01*
X022958Y026525D01*
X023458Y026525D01*
X023708Y026275D01*
X023708Y024775D01*
X023458Y024525D01*
X022958Y024525D01*
X022708Y024775D01*
X023708Y024775D02*
X023958Y024525D01*
X024458Y024525D01*
X024708Y024775D01*
X024708Y026275D01*
X024958Y026525D01*
X025458Y026525D01*
X025708Y026275D01*
X025708Y024775D01*
X025458Y024525D01*
X024958Y024525D01*
X024708Y024775D01*
X025708Y024775D02*
X025958Y024525D01*
X026458Y024525D01*
X026708Y024775D01*
X026708Y026275D01*
X026958Y026525D01*
X027458Y026525D01*
X027708Y026275D01*
X027708Y024775D01*
X027458Y024525D01*
X026958Y024525D01*
X026708Y024775D01*
X027708Y024775D02*
X027958Y024525D01*
X028458Y024525D01*
X028708Y024775D01*
X028708Y026275D01*
X028458Y026525D01*
X027958Y026525D01*
X027708Y026275D01*
X026708Y026275D02*
X026458Y026525D01*
X025958Y026525D01*
X025708Y026275D01*
X024708Y026275D02*
X024458Y026525D01*
X023958Y026525D01*
X023708Y026275D01*
X022708Y026275D02*
X022458Y026525D01*
X021958Y026525D01*
X021708Y026275D01*
X018708Y026275D02*
X018458Y026525D01*
X017958Y026525D01*
X017708Y026275D01*
X017458Y026525D01*
X016958Y026525D01*
X016708Y026275D01*
X016458Y026525D01*
X015958Y026525D01*
X015708Y026275D01*
X015458Y026525D01*
X014958Y026525D01*
X014708Y026275D01*
X014458Y026525D01*
X013958Y026525D01*
X013708Y026275D01*
X013458Y026525D01*
X012958Y026525D01*
X012708Y026275D01*
X012458Y026525D01*
X011958Y026525D01*
X011708Y026275D01*
X011458Y026525D01*
X010958Y026525D01*
X010708Y026275D01*
X010708Y024775D01*
X010958Y024525D01*
X011458Y024525D01*
X011708Y024775D01*
X011708Y026275D01*
X012708Y026275D02*
X012708Y024775D01*
X012458Y024525D01*
X011958Y024525D01*
X011708Y024775D01*
X012708Y024775D02*
X012958Y024525D01*
X013458Y024525D01*
X013708Y024775D01*
X013708Y026275D01*
X014708Y026275D02*
X014708Y024775D01*
X014458Y024525D01*
X013958Y024525D01*
X013708Y024775D01*
X014708Y024775D02*
X014958Y024525D01*
X015458Y024525D01*
X015708Y024775D01*
X015708Y026275D01*
X016708Y026275D02*
X016708Y024775D01*
X016458Y024525D01*
X015958Y024525D01*
X015708Y024775D01*
X016708Y024775D02*
X016958Y024525D01*
X017458Y024525D01*
X017708Y024775D01*
X017708Y026275D01*
X017708Y024775D02*
X017958Y024525D01*
X018458Y024525D01*
X018708Y024775D01*
X012482Y023390D02*
X012482Y021410D01*
X010684Y021410D01*
X010684Y023390D01*
X012482Y023390D01*
X011883Y021760D02*
X011885Y021786D01*
X011891Y021812D01*
X011900Y021836D01*
X011913Y021859D01*
X011929Y021880D01*
X011948Y021898D01*
X011969Y021914D01*
X011993Y021926D01*
X012017Y021934D01*
X012043Y021939D01*
X012070Y021940D01*
X012096Y021937D01*
X012121Y021930D01*
X012145Y021920D01*
X012168Y021906D01*
X012188Y021890D01*
X012205Y021870D01*
X012220Y021848D01*
X012231Y021824D01*
X012239Y021799D01*
X012243Y021773D01*
X012243Y021747D01*
X012239Y021721D01*
X012231Y021696D01*
X012220Y021672D01*
X012205Y021650D01*
X012188Y021630D01*
X012168Y021614D01*
X012145Y021600D01*
X012121Y021590D01*
X012096Y021583D01*
X012070Y021580D01*
X012043Y021581D01*
X012017Y021586D01*
X011993Y021594D01*
X011969Y021606D01*
X011948Y021622D01*
X011929Y021640D01*
X011913Y021661D01*
X011900Y021684D01*
X011891Y021708D01*
X011885Y021734D01*
X011883Y021760D01*
X012482Y010390D02*
X010684Y010390D01*
X010684Y008410D01*
X012482Y008410D01*
X012482Y010390D01*
X011883Y008760D02*
X011885Y008786D01*
X011891Y008812D01*
X011900Y008836D01*
X011913Y008859D01*
X011929Y008880D01*
X011948Y008898D01*
X011969Y008914D01*
X011993Y008926D01*
X012017Y008934D01*
X012043Y008939D01*
X012070Y008940D01*
X012096Y008937D01*
X012121Y008930D01*
X012145Y008920D01*
X012168Y008906D01*
X012188Y008890D01*
X012205Y008870D01*
X012220Y008848D01*
X012231Y008824D01*
X012239Y008799D01*
X012243Y008773D01*
X012243Y008747D01*
X012239Y008721D01*
X012231Y008696D01*
X012220Y008672D01*
X012205Y008650D01*
X012188Y008630D01*
X012168Y008614D01*
X012145Y008600D01*
X012121Y008590D01*
X012096Y008583D01*
X012070Y008580D01*
X012043Y008581D01*
X012017Y008586D01*
X011993Y008594D01*
X011969Y008606D01*
X011948Y008622D01*
X011929Y008640D01*
X011913Y008661D01*
X011900Y008684D01*
X011891Y008708D01*
X011885Y008734D01*
X011883Y008760D01*
X011958Y007525D02*
X012458Y007525D01*
X012708Y007275D01*
X012708Y005775D01*
X012458Y005525D01*
X011958Y005525D01*
X011708Y005775D01*
X011458Y005525D01*
X010958Y005525D01*
X010708Y005775D01*
X010708Y007275D01*
X010958Y007525D01*
X011458Y007525D01*
X011708Y007275D01*
X011708Y005775D01*
X012708Y005775D02*
X012958Y005525D01*
X013458Y005525D01*
X013708Y005775D01*
X013708Y007275D01*
X013458Y007525D01*
X012958Y007525D01*
X012708Y007275D01*
X011958Y007525D02*
X011708Y007275D01*
X013708Y007275D02*
X013958Y007525D01*
X014458Y007525D01*
X014708Y007275D01*
X014708Y005775D01*
X014458Y005525D01*
X013958Y005525D01*
X013708Y005775D01*
X014708Y005775D02*
X014958Y005525D01*
X015458Y005525D01*
X015708Y005775D01*
X015708Y007275D01*
X015458Y007525D01*
X014958Y007525D01*
X014708Y007275D01*
X015708Y007275D02*
X015958Y007525D01*
X016458Y007525D01*
X016708Y007275D01*
X016708Y005775D01*
X016458Y005525D01*
X015958Y005525D01*
X015708Y005775D01*
X016708Y005775D02*
X016958Y005525D01*
X017458Y005525D01*
X017708Y005775D01*
X017708Y007275D01*
X017458Y007525D01*
X016958Y007525D01*
X016708Y007275D01*
X017708Y007275D02*
X017958Y007525D01*
X018458Y007525D01*
X018708Y007275D01*
X018708Y005775D01*
X018458Y005525D01*
X017958Y005525D01*
X017708Y005775D01*
X018708Y005775D02*
X018958Y005525D01*
X019458Y005525D01*
X019708Y005775D01*
X019708Y007275D01*
X019958Y007525D01*
X020458Y007525D01*
X020708Y007275D01*
X020708Y005775D01*
X020458Y005525D01*
X019958Y005525D01*
X019708Y005775D01*
X020708Y005775D02*
X020958Y005525D01*
X021458Y005525D01*
X021708Y005775D01*
X021708Y007275D01*
X021958Y007525D01*
X022458Y007525D01*
X022708Y007275D01*
X022708Y005775D01*
X022458Y005525D01*
X021958Y005525D01*
X021708Y005775D01*
X022708Y005775D02*
X022958Y005525D01*
X023458Y005525D01*
X023708Y005775D01*
X023708Y007275D01*
X023958Y007525D01*
X024458Y007525D01*
X024708Y007275D01*
X024708Y005775D01*
X024458Y005525D01*
X023958Y005525D01*
X023708Y005775D01*
X024708Y005775D02*
X024958Y005525D01*
X025458Y005525D01*
X025708Y005775D01*
X025708Y007275D01*
X025958Y007525D01*
X026458Y007525D01*
X026708Y007275D01*
X026708Y005775D01*
X026458Y005525D01*
X025958Y005525D01*
X025708Y005775D01*
X026708Y005775D02*
X026958Y005525D01*
X027458Y005525D01*
X027708Y005775D01*
X027708Y007275D01*
X027458Y007525D01*
X026958Y007525D01*
X026708Y007275D01*
X025708Y007275D02*
X025458Y007525D01*
X024958Y007525D01*
X024708Y007275D01*
X023708Y007275D02*
X023458Y007525D01*
X022958Y007525D01*
X022708Y007275D01*
X021708Y007275D02*
X021458Y007525D01*
X020958Y007525D01*
X020708Y007275D01*
X019708Y007275D02*
X019458Y007525D01*
X018958Y007525D01*
X018708Y007275D01*
X027708Y007275D02*
X027958Y007525D01*
X028458Y007525D01*
X028708Y007275D01*
X028708Y005775D01*
X028458Y005525D01*
X027958Y005525D01*
X027708Y005775D01*
X028708Y005775D02*
X028958Y005525D01*
X029458Y005525D01*
X029708Y005775D01*
X029708Y007275D01*
X029458Y007525D01*
X028958Y007525D01*
X028708Y007275D01*
X029708Y007275D02*
X029958Y007525D01*
X030458Y007525D01*
X030708Y007275D01*
X030708Y005775D01*
X030458Y005525D01*
X029958Y005525D01*
X029708Y005775D01*
X030708Y005775D02*
X030958Y005525D01*
X031458Y005525D01*
X031708Y005775D01*
X031708Y007275D01*
X031458Y007525D01*
X030958Y007525D01*
X030708Y007275D01*
X031708Y007275D02*
X031958Y007525D01*
X032458Y007525D01*
X032708Y007275D01*
X032708Y005775D01*
X032458Y005525D01*
X031958Y005525D01*
X031708Y005775D01*
X032708Y005775D02*
X032958Y005525D01*
X033458Y005525D01*
X033708Y005775D01*
X033708Y007275D01*
X033458Y007525D01*
X032958Y007525D01*
X032708Y007275D01*
X033482Y008410D02*
X031684Y008410D01*
X031684Y010390D01*
X033482Y010390D01*
X033482Y008410D01*
X031923Y010040D02*
X031925Y010066D01*
X031931Y010092D01*
X031940Y010116D01*
X031953Y010139D01*
X031969Y010160D01*
X031988Y010178D01*
X032009Y010194D01*
X032033Y010206D01*
X032057Y010214D01*
X032083Y010219D01*
X032110Y010220D01*
X032136Y010217D01*
X032161Y010210D01*
X032185Y010200D01*
X032208Y010186D01*
X032228Y010170D01*
X032245Y010150D01*
X032260Y010128D01*
X032271Y010104D01*
X032279Y010079D01*
X032283Y010053D01*
X032283Y010027D01*
X032279Y010001D01*
X032271Y009976D01*
X032260Y009952D01*
X032245Y009930D01*
X032228Y009910D01*
X032208Y009894D01*
X032185Y009880D01*
X032161Y009870D01*
X032136Y009863D01*
X032110Y009860D01*
X032083Y009861D01*
X032057Y009866D01*
X032033Y009874D01*
X032009Y009886D01*
X031988Y009902D01*
X031969Y009920D01*
X031953Y009941D01*
X031940Y009964D01*
X031931Y009988D01*
X031925Y010014D01*
X031923Y010040D01*
X031747Y021348D02*
X033544Y021348D01*
X033544Y023328D01*
X031747Y023328D01*
X031747Y021348D01*
X031986Y022978D02*
X031988Y023004D01*
X031994Y023030D01*
X032003Y023054D01*
X032016Y023077D01*
X032032Y023098D01*
X032051Y023116D01*
X032072Y023132D01*
X032096Y023144D01*
X032120Y023152D01*
X032146Y023157D01*
X032173Y023158D01*
X032199Y023155D01*
X032224Y023148D01*
X032248Y023138D01*
X032271Y023124D01*
X032291Y023108D01*
X032308Y023088D01*
X032323Y023066D01*
X032334Y023042D01*
X032342Y023017D01*
X032346Y022991D01*
X032346Y022965D01*
X032342Y022939D01*
X032334Y022914D01*
X032323Y022890D01*
X032308Y022868D01*
X032291Y022848D01*
X032271Y022832D01*
X032248Y022818D01*
X032224Y022808D01*
X032199Y022801D01*
X032173Y022798D01*
X032146Y022799D01*
X032120Y022804D01*
X032096Y022812D01*
X032072Y022824D01*
X032051Y022840D01*
X032032Y022858D01*
X032016Y022879D01*
X032003Y022902D01*
X031994Y022926D01*
X031988Y022952D01*
X031986Y022978D01*
X031958Y024525D02*
X031708Y024775D01*
X031708Y026275D01*
X031458Y026525D01*
X030958Y026525D01*
X030708Y026275D01*
X030708Y024775D01*
X030458Y024525D01*
X029958Y024525D01*
X029708Y024775D01*
X029708Y026275D01*
X029458Y026525D01*
X028958Y026525D01*
X028708Y026275D01*
X029708Y026275D02*
X029958Y026525D01*
X030458Y026525D01*
X030708Y026275D01*
X031708Y026275D02*
X031958Y026525D01*
X032458Y026525D01*
X032708Y026275D01*
X032708Y024775D01*
X032458Y024525D01*
X031958Y024525D01*
X031708Y024775D02*
X031458Y024525D01*
X030958Y024525D01*
X030708Y024775D01*
X029708Y024775D02*
X029458Y024525D01*
X028958Y024525D01*
X028708Y024775D01*
X032708Y024775D02*
X032958Y024525D01*
X033458Y024525D01*
X033708Y024775D01*
X033708Y026275D01*
X033458Y026525D01*
X032958Y026525D01*
X032708Y026275D01*
D15*
X033454Y023238D02*
X031837Y023238D01*
X031837Y021438D01*
X033454Y021438D01*
X033454Y023238D01*
X033392Y010300D02*
X031774Y010300D01*
X031774Y008500D01*
X033392Y008500D01*
X033392Y010300D01*
X012392Y010300D02*
X012392Y008500D01*
X010774Y008500D01*
X010774Y010300D01*
X012392Y010300D01*
X012392Y021500D02*
X010774Y021500D01*
X010774Y023300D01*
X012392Y023300D01*
X012392Y021500D01*
D16*
X007355Y021160D02*
X007355Y019979D01*
X003811Y019979D01*
X003811Y021160D01*
X003811Y028640D02*
X003811Y029920D01*
X007355Y029920D01*
X007355Y028640D01*
X007355Y011920D02*
X003811Y011920D01*
X003811Y010640D01*
X007355Y010640D02*
X007355Y011920D01*
X007355Y003160D02*
X007355Y001979D01*
X003811Y001979D01*
X003811Y003160D01*
X036811Y003160D02*
X036811Y001880D01*
X040355Y001880D01*
X040355Y003160D01*
X040355Y010640D02*
X040355Y011821D01*
X036811Y011821D01*
X036811Y010640D01*
X036811Y019880D02*
X040355Y019880D01*
X040355Y021160D01*
X036811Y021160D02*
X036811Y019880D01*
X036811Y028640D02*
X036811Y029821D01*
X040355Y029821D01*
X040355Y028640D01*
D17*
X003410Y001789D02*
X003103Y001789D01*
X003410Y001789D02*
X003563Y001942D01*
X003410Y002096D01*
X003103Y002096D01*
X003179Y002249D02*
X003486Y002249D01*
X003563Y002326D01*
X003563Y002479D01*
X003486Y002556D01*
X003486Y002710D02*
X003563Y002786D01*
X003563Y002940D01*
X003486Y003017D01*
X003179Y003017D02*
X003103Y002940D01*
X003103Y002786D01*
X003179Y002710D01*
X003486Y002710D01*
X003179Y002556D02*
X003103Y002479D01*
X003103Y002326D01*
X003179Y002249D01*
X007603Y002323D02*
X007756Y002170D01*
X007603Y002323D02*
X008063Y002323D01*
X008063Y002170D02*
X008063Y002477D01*
X007986Y002630D02*
X007833Y002630D01*
X007833Y002861D01*
X007910Y002937D01*
X007986Y002937D01*
X008063Y002861D01*
X008063Y002707D01*
X007986Y002630D01*
X007833Y002630D02*
X007679Y002784D01*
X007603Y002937D01*
X003410Y019789D02*
X003563Y019942D01*
X003410Y020096D01*
X003103Y020096D01*
X003179Y020249D02*
X003486Y020249D01*
X003563Y020326D01*
X003563Y020479D01*
X003486Y020556D01*
X003486Y020710D02*
X003179Y020710D01*
X003103Y020786D01*
X003103Y020940D01*
X003179Y021017D01*
X003486Y021017D02*
X003563Y020940D01*
X003563Y020786D01*
X003486Y020710D01*
X003179Y020556D02*
X003103Y020479D01*
X003103Y020326D01*
X003179Y020249D01*
X003103Y019789D02*
X003410Y019789D01*
X007603Y020323D02*
X007756Y020170D01*
X007603Y020323D02*
X008063Y020323D01*
X008063Y020170D02*
X008063Y020477D01*
X007986Y020630D02*
X007833Y020630D01*
X007833Y020861D01*
X007910Y020937D01*
X007986Y020937D01*
X008063Y020861D01*
X008063Y020707D01*
X007986Y020630D01*
X007833Y020630D02*
X007679Y020784D01*
X007603Y020937D01*
X036103Y028903D02*
X036563Y028903D01*
X036563Y029056D02*
X036563Y028749D01*
X036256Y028749D02*
X036103Y028903D01*
X036333Y029210D02*
X036333Y029440D01*
X036410Y029517D01*
X036486Y029517D01*
X036563Y029440D01*
X036563Y029286D01*
X036486Y029210D01*
X036333Y029210D01*
X036179Y029363D01*
X036103Y029517D01*
X040603Y029668D02*
X040679Y029591D01*
X040986Y029591D01*
X041063Y029668D01*
X041063Y029821D01*
X040986Y029898D01*
X040679Y029898D02*
X040603Y029821D01*
X040603Y029668D01*
X040679Y029437D02*
X040603Y029361D01*
X040603Y029207D01*
X040679Y029130D01*
X040986Y029130D01*
X041063Y029207D01*
X041063Y029361D01*
X040986Y029437D01*
X040910Y028977D02*
X040603Y028977D01*
X040910Y028977D02*
X041063Y028823D01*
X040910Y028670D01*
X040603Y028670D01*
X040679Y011898D02*
X040603Y011821D01*
X040603Y011668D01*
X040679Y011591D01*
X040986Y011591D01*
X041063Y011668D01*
X041063Y011821D01*
X040986Y011898D01*
X040986Y011437D02*
X041063Y011361D01*
X041063Y011207D01*
X040986Y011130D01*
X040679Y011130D01*
X040603Y011207D01*
X040603Y011361D01*
X040679Y011437D01*
X040603Y010977D02*
X040910Y010977D01*
X041063Y010823D01*
X040910Y010670D01*
X040603Y010670D01*
X036563Y010749D02*
X036563Y011056D01*
X036563Y010903D02*
X036103Y010903D01*
X036256Y010749D01*
X036333Y011210D02*
X036333Y011440D01*
X036410Y011517D01*
X036486Y011517D01*
X036563Y011440D01*
X036563Y011286D01*
X036486Y011210D01*
X036333Y011210D01*
X036179Y011363D01*
X036103Y011517D01*
M02*
