G75*
%MOIN*%
%OFA0B0*%
%FSLAX24Y24*%
%IPPOS*%
%LPD*%
%AMOC8*
5,1,8,0,0,1.08239X$1,22.5*
%
%ADD10R,0.0592X0.0671*%
%ADD11R,0.0907X0.0907*%
%ADD12C,0.1340*%
%ADD13R,0.0631X0.0474*%
%ADD14R,0.0631X0.0513*%
%ADD15R,0.0513X0.0631*%
%ADD16R,0.0674X0.0674*%
%ADD17C,0.0674*%
%ADD18R,0.0470X0.0200*%
%ADD19R,0.1970X0.0430*%
%ADD20C,0.0789*%
%ADD21C,0.0476*%
%ADD22C,0.0611*%
%ADD23C,0.0437*%
D10*
X010897Y002400D03*
X011645Y002400D03*
X009145Y017400D03*
X008397Y017400D03*
X018897Y022775D03*
X019645Y022775D03*
X020522Y022775D03*
X021270Y022775D03*
X032334Y029400D03*
X033082Y029400D03*
X033084Y012775D03*
X033832Y012775D03*
D11*
X007748Y015900D03*
X005583Y015900D03*
D12*
X003930Y017672D03*
X003930Y014128D03*
D13*
X009204Y018213D03*
X009204Y018962D03*
X008338Y018588D03*
X011766Y004149D03*
X010900Y003775D03*
X011766Y003401D03*
X032963Y014151D03*
X032963Y014899D03*
X033829Y014525D03*
X032275Y027463D03*
X032275Y028212D03*
X033141Y027838D03*
D14*
X029458Y022731D03*
X029458Y021944D03*
X014646Y021944D03*
X014646Y022731D03*
X015458Y009981D03*
X015458Y009194D03*
X029083Y009194D03*
X029083Y009981D03*
D15*
X019977Y021088D03*
X019189Y021088D03*
D16*
X033208Y026025D03*
X033208Y007025D03*
D17*
X032208Y007025D03*
X031208Y007025D03*
X030208Y007025D03*
X029208Y007025D03*
X028208Y007025D03*
X027208Y007025D03*
X026208Y007025D03*
X025208Y007025D03*
X024208Y007025D03*
X023208Y007025D03*
X022208Y007025D03*
X021208Y007025D03*
X020208Y007025D03*
X019208Y007025D03*
X018208Y007025D03*
X017208Y007025D03*
X016208Y007025D03*
X015208Y007025D03*
X014208Y007025D03*
X013208Y007025D03*
X012208Y007025D03*
X011208Y007025D03*
X011208Y006025D03*
X012208Y006025D03*
X013208Y006025D03*
X014208Y006025D03*
X015208Y006025D03*
X016208Y006025D03*
X017208Y006025D03*
X018208Y006025D03*
X019208Y006025D03*
X020208Y006025D03*
X021208Y006025D03*
X022208Y006025D03*
X023208Y006025D03*
X024208Y006025D03*
X025208Y006025D03*
X026208Y006025D03*
X027208Y006025D03*
X028208Y006025D03*
X029208Y006025D03*
X030208Y006025D03*
X031208Y006025D03*
X032208Y006025D03*
X033208Y006025D03*
X033208Y025025D03*
X032208Y025025D03*
X031208Y025025D03*
X030208Y025025D03*
X029208Y025025D03*
X028208Y025025D03*
X027208Y025025D03*
X026208Y025025D03*
X025208Y025025D03*
X024208Y025025D03*
X023208Y025025D03*
X022208Y025025D03*
X021208Y025025D03*
X020208Y025025D03*
X019208Y025025D03*
X018208Y025025D03*
X017208Y025025D03*
X016208Y025025D03*
X015208Y025025D03*
X014208Y025025D03*
X013208Y025025D03*
X012208Y025025D03*
X011208Y025025D03*
X011208Y026025D03*
X012208Y026025D03*
X013208Y026025D03*
X014208Y026025D03*
X015208Y026025D03*
X016208Y026025D03*
X017208Y026025D03*
X018208Y026025D03*
X019208Y026025D03*
X020208Y026025D03*
X021208Y026025D03*
X022208Y026025D03*
X023208Y026025D03*
X024208Y026025D03*
X025208Y026025D03*
X026208Y026025D03*
X027208Y026025D03*
X028208Y026025D03*
X029208Y026025D03*
X030208Y026025D03*
X031208Y026025D03*
X032208Y026025D03*
D18*
X031497Y023233D03*
X031497Y022977D03*
X031497Y022721D03*
X031497Y022465D03*
X031497Y022210D03*
X031497Y021954D03*
X031497Y021698D03*
X031497Y021442D03*
X033794Y021442D03*
X033794Y021698D03*
X033794Y021954D03*
X033794Y022210D03*
X033794Y022465D03*
X033794Y022721D03*
X033794Y022977D03*
X033794Y023233D03*
X033732Y010296D03*
X033732Y010040D03*
X033732Y009784D03*
X033732Y009528D03*
X033732Y009272D03*
X033732Y009016D03*
X033732Y008760D03*
X033732Y008504D03*
X031434Y008504D03*
X031434Y008760D03*
X031434Y009016D03*
X031434Y009272D03*
X031434Y009528D03*
X031434Y009784D03*
X031434Y010040D03*
X031434Y010296D03*
X012732Y010296D03*
X012732Y010040D03*
X012732Y009784D03*
X012732Y009528D03*
X012732Y009272D03*
X012732Y009016D03*
X012732Y008760D03*
X012732Y008504D03*
X010434Y008504D03*
X010434Y008760D03*
X010434Y009016D03*
X010434Y009272D03*
X010434Y009528D03*
X010434Y009784D03*
X010434Y010040D03*
X010434Y010296D03*
X010434Y021504D03*
X010434Y021760D03*
X010434Y022016D03*
X010434Y022272D03*
X010434Y022528D03*
X010434Y022784D03*
X010434Y023040D03*
X010434Y023296D03*
X012732Y023296D03*
X012732Y023040D03*
X012732Y022784D03*
X012732Y022528D03*
X012732Y022272D03*
X012732Y022016D03*
X012732Y021760D03*
X012732Y021504D03*
D19*
X004274Y003400D03*
X004274Y004400D03*
X004274Y005400D03*
X004274Y006400D03*
X004274Y007400D03*
X004274Y008400D03*
X004274Y009400D03*
X004274Y010400D03*
X006833Y010400D03*
X006833Y009400D03*
X006833Y008400D03*
X006833Y007400D03*
X006833Y006400D03*
X006833Y005400D03*
X006833Y004400D03*
X006833Y003400D03*
X006833Y021400D03*
X006833Y022400D03*
X006833Y023400D03*
X006833Y024400D03*
X006833Y025400D03*
X006833Y026400D03*
X006833Y027400D03*
X006833Y028400D03*
X004274Y028400D03*
X004274Y027400D03*
X004274Y026400D03*
X004274Y025400D03*
X004274Y024400D03*
X004274Y023400D03*
X004274Y022400D03*
X004274Y021400D03*
X037333Y021400D03*
X037333Y022400D03*
X037333Y023400D03*
X037333Y024400D03*
X037333Y025400D03*
X037333Y026400D03*
X037333Y027400D03*
X037333Y028400D03*
X039892Y028400D03*
X039892Y027400D03*
X039892Y026400D03*
X039892Y025400D03*
X039892Y024400D03*
X039892Y023400D03*
X039892Y022400D03*
X039892Y021400D03*
X039892Y010400D03*
X039892Y009400D03*
X039892Y008400D03*
X039892Y007400D03*
X039892Y006400D03*
X039892Y005400D03*
X039892Y004400D03*
X039892Y003400D03*
X037333Y003400D03*
X037333Y004400D03*
X037333Y005400D03*
X037333Y006400D03*
X037333Y007400D03*
X037333Y008400D03*
X037333Y009400D03*
X037333Y010400D03*
D20*
X033833Y011213D03*
X037021Y016025D03*
X033333Y020025D03*
X021771Y013150D03*
X021333Y017775D03*
X013396Y018025D03*
X006458Y017463D03*
X006458Y013900D03*
X013396Y012650D03*
X022208Y003088D03*
X021208Y028775D03*
D21*
X030771Y027463D03*
X010583Y017588D03*
X011583Y004713D03*
D22*
X031208Y014150D03*
X018333Y021088D03*
D23*
X018083Y020463D03*
X016708Y020463D03*
X014021Y022838D03*
X013458Y023525D03*
X011771Y022338D03*
X011271Y022713D03*
X012146Y020650D03*
X014771Y016588D03*
X014771Y015025D03*
X011708Y013088D03*
X014646Y010400D03*
X016021Y010588D03*
X015771Y008463D03*
X011896Y009275D03*
X011396Y009713D03*
X029083Y010900D03*
X030521Y009588D03*
X032021Y010775D03*
X032708Y009838D03*
X032271Y009338D03*
X032146Y022088D03*
X032771Y022650D03*
X030583Y022275D03*
X028583Y023213D03*
X018021Y023525D03*
M02*
