G75*
%MOIN*%
%OFA0B0*%
%FSLAX24Y24*%
%IPPOS*%
%LPD*%
%AMOC8*
5,1,8,0,0,1.08239X$1,22.5*
%
%ADD10C,0.1080*%
%ADD11OC8,0.1080*%
%ADD12R,0.0907X0.0907*%
%ADD13C,0.1340*%
%ADD14R,0.0710X0.0592*%
%ADD15C,0.0600*%
%ADD16C,0.0980*%
%ADD17C,0.0556*%
%ADD18OC8,0.0740*%
%ADD19C,0.0680*%
%ADD20R,0.0671X0.0592*%
%ADD21C,0.2380*%
%ADD22R,0.0476X0.0476*%
D10*
X029771Y011708D03*
D11*
X029771Y009708D03*
D12*
X029083Y007748D03*
X029083Y005583D03*
X036083Y005583D03*
X036083Y007748D03*
X037083Y010756D03*
X034918Y010756D03*
X034918Y012410D03*
X037083Y012410D03*
X037083Y019756D03*
X037083Y021410D03*
X034918Y021410D03*
X034918Y019756D03*
X036083Y023918D03*
X036083Y026083D03*
X029083Y026083D03*
X029083Y023918D03*
X022083Y023918D03*
X022083Y026083D03*
X015083Y026083D03*
X015083Y023918D03*
X008083Y023918D03*
X008083Y026083D03*
X007748Y011583D03*
X005583Y011583D03*
X008083Y007748D03*
X008083Y005583D03*
X015083Y005583D03*
X015083Y007748D03*
X022083Y007748D03*
X022083Y005583D03*
D13*
X020311Y003930D03*
X016855Y003930D03*
X013311Y003930D03*
X009855Y003930D03*
X006311Y003930D03*
X003930Y009811D03*
X003930Y013355D03*
X006311Y027737D03*
X009855Y027737D03*
X013311Y027737D03*
X016855Y027737D03*
X020311Y027737D03*
X023855Y027737D03*
X027311Y027737D03*
X030855Y027737D03*
X034311Y027737D03*
X037855Y027737D03*
X038737Y023181D03*
X038737Y017985D03*
X038737Y014181D03*
X038737Y008985D03*
X037855Y003930D03*
X034311Y003930D03*
X030855Y003930D03*
X027311Y003930D03*
X023855Y003930D03*
D14*
X032833Y010147D03*
X032833Y010895D03*
X006333Y023709D03*
X006333Y024457D03*
D15*
X008698Y017458D02*
X009218Y017458D01*
X007218Y016458D02*
X006698Y016458D01*
X008698Y015458D02*
X009218Y015458D01*
D16*
X012208Y019083D03*
X012208Y011583D03*
X017208Y011583D03*
X018458Y011583D03*
X019708Y011583D03*
X025958Y011583D03*
X025958Y019083D03*
D17*
X005083Y018083D03*
X005083Y017083D03*
X005083Y016083D03*
D18*
X003208Y003771D03*
X004208Y003771D03*
X004271Y021521D03*
X003271Y021521D03*
X003208Y027646D03*
X004208Y027646D03*
D19*
X008021Y021583D03*
X009021Y021583D03*
X010021Y021583D03*
D20*
X011458Y022459D03*
X011458Y023207D03*
X018458Y023207D03*
X018458Y022459D03*
X025583Y022459D03*
X025583Y023207D03*
X032208Y023082D03*
X032208Y022334D03*
X032833Y007082D03*
X032833Y006334D03*
X025708Y006209D03*
X025708Y006957D03*
X018708Y006957D03*
X018708Y006209D03*
X011958Y006334D03*
X011958Y007082D03*
X010146Y010061D03*
X010146Y010730D03*
X008771Y010730D03*
X008771Y010061D03*
X008833Y012561D03*
X008833Y013230D03*
X010208Y013230D03*
X010208Y012561D03*
D21*
X004146Y006833D03*
X004146Y024646D03*
X031396Y020083D03*
X031396Y014521D03*
D22*
X019896Y009771D03*
X013021Y013271D03*
X011771Y013271D03*
X012021Y009458D03*
X016083Y018896D03*
M02*
