G75*
%MOIN*%
%OFA0B0*%
%FSLAX24Y24*%
%IPPOS*%
%LPD*%
%AMOC8*
5,1,8,0,0,1.08239X$1,22.5*
%
%ADD10C,0.1000*%
%ADD11OC8,0.1000*%
%ADD12R,0.0512X0.0591*%
%ADD13R,0.0472X0.0236*%
%ADD14R,0.0827X0.0827*%
%ADD15R,0.0630X0.0512*%
%ADD16R,0.0512X0.0630*%
%ADD17C,0.0520*%
%ADD18C,0.0476*%
%ADD19OC8,0.0660*%
%ADD20C,0.0600*%
%ADD21C,0.2300*%
%ADD22R,0.0551X0.0394*%
%ADD23C,0.0160*%
%ADD24C,0.0240*%
%ADD25R,0.0396X0.0396*%
%ADD26C,0.0200*%
D10*
X029771Y011708D03*
D11*
X029771Y009708D03*
D12*
X013668Y015521D03*
X012998Y015521D03*
X012998Y017271D03*
X013668Y017271D03*
D13*
X011097Y010457D03*
X011097Y009709D03*
X010069Y009709D03*
X010069Y010083D03*
X010069Y010457D03*
D14*
X007748Y011583D03*
X005583Y011583D03*
X008083Y007748D03*
X008083Y005583D03*
X015083Y005583D03*
X015083Y007748D03*
X022083Y007748D03*
X022083Y005583D03*
X029083Y005583D03*
X029083Y007748D03*
X034918Y010756D03*
X037083Y010756D03*
X037083Y012410D03*
X034918Y012410D03*
X036083Y007748D03*
X036083Y005583D03*
X037083Y019756D03*
X037083Y021410D03*
X034918Y021410D03*
X034918Y019756D03*
X036083Y023918D03*
X036083Y026083D03*
X029083Y026083D03*
X029083Y023918D03*
X022083Y023918D03*
X022083Y026083D03*
X015083Y026083D03*
X015083Y023918D03*
X008083Y023918D03*
X008083Y026083D03*
D15*
X018833Y009832D03*
X018833Y009084D03*
X006333Y008959D03*
X006333Y009707D03*
D16*
X007709Y009583D03*
X008457Y009583D03*
X010209Y008083D03*
X010957Y008083D03*
X012209Y008583D03*
X012957Y008583D03*
X010895Y012333D03*
X010147Y012333D03*
X010144Y013512D03*
X010892Y013512D03*
X010897Y015521D03*
X011645Y015521D03*
X006645Y020208D03*
X005897Y020208D03*
D17*
X008698Y017458D02*
X009218Y017458D01*
X007218Y016458D02*
X006698Y016458D01*
X008698Y015458D02*
X009218Y015458D01*
D18*
X005083Y016083D03*
X005083Y017083D03*
X005083Y018083D03*
D19*
X004271Y021521D03*
X003271Y021521D03*
X003208Y027646D03*
X004208Y027646D03*
X004208Y003771D03*
X003208Y003771D03*
D20*
X008021Y021583D03*
X009021Y021583D03*
X010021Y021583D03*
D21*
X004146Y024646D03*
X004146Y006833D03*
X031396Y014521D03*
X031396Y020083D03*
D22*
X019641Y011271D03*
X018775Y011645D03*
X018775Y010897D03*
X016516Y010896D03*
X015650Y011270D03*
X015650Y010522D03*
D23*
X002583Y002549D02*
X002583Y029083D01*
X040109Y028960D01*
X040049Y002489D01*
X002583Y002549D01*
X002583Y002583D02*
X040049Y002583D01*
X040049Y002742D02*
X002583Y002742D01*
X002583Y002900D02*
X040050Y002900D01*
X040050Y003059D02*
X038130Y003059D01*
X038036Y003020D02*
X038370Y003158D01*
X038626Y003414D01*
X038765Y003749D01*
X038765Y004111D01*
X038626Y004445D01*
X038370Y004701D01*
X038036Y004839D01*
X037674Y004839D01*
X037339Y004701D01*
X037083Y004445D01*
X036945Y004111D01*
X036945Y003749D01*
X037083Y003414D01*
X037339Y003158D01*
X037674Y003020D01*
X038036Y003020D01*
X038429Y003217D02*
X040050Y003217D01*
X040051Y003376D02*
X038588Y003376D01*
X038676Y003534D02*
X040051Y003534D01*
X040052Y003693D02*
X038741Y003693D01*
X038765Y003851D02*
X040052Y003851D01*
X040052Y004010D02*
X038765Y004010D01*
X038741Y004168D02*
X040053Y004168D01*
X040053Y004327D02*
X038675Y004327D01*
X038586Y004485D02*
X040053Y004485D01*
X040054Y004644D02*
X038427Y004644D01*
X038126Y004802D02*
X040054Y004802D01*
X040054Y004961D02*
X005168Y004961D01*
X005355Y005119D02*
X007497Y005119D01*
X007502Y005100D02*
X007526Y005059D01*
X007559Y005026D01*
X007600Y005002D01*
X007646Y004990D01*
X008025Y004990D01*
X008025Y005525D01*
X008141Y005525D01*
X008141Y004990D01*
X008520Y004990D01*
X008566Y005002D01*
X008607Y005026D01*
X008640Y005059D01*
X008664Y005100D01*
X008676Y005146D01*
X008676Y005525D01*
X008141Y005525D01*
X008141Y005641D01*
X008676Y005641D01*
X008676Y006020D01*
X008664Y006066D01*
X008640Y006107D01*
X008607Y006140D01*
X008566Y006164D01*
X008520Y006176D01*
X008141Y006176D01*
X008141Y005641D01*
X008025Y005641D01*
X008025Y005525D01*
X007490Y005525D01*
X007490Y005146D01*
X007502Y005100D01*
X007490Y005278D02*
X005542Y005278D01*
X005729Y005436D02*
X007490Y005436D01*
X007490Y005641D02*
X008025Y005641D01*
X008025Y006176D01*
X007646Y006176D01*
X007600Y006164D01*
X007559Y006140D01*
X007526Y006107D01*
X007502Y006066D01*
X007490Y006020D01*
X007490Y005641D01*
X007490Y005753D02*
X006103Y005753D01*
X005916Y005595D02*
X008025Y005595D01*
X008141Y005595D02*
X015025Y005595D01*
X015025Y005641D02*
X015025Y005525D01*
X015141Y005525D01*
X015141Y004990D01*
X015520Y004990D01*
X015566Y005002D01*
X015607Y005026D01*
X015640Y005059D01*
X015664Y005100D01*
X015676Y005146D01*
X015676Y005525D01*
X015141Y005525D01*
X015141Y005641D01*
X015676Y005641D01*
X015676Y006020D01*
X015664Y006066D01*
X015640Y006107D01*
X015607Y006140D01*
X015566Y006164D01*
X015520Y006176D01*
X015141Y006176D01*
X015141Y005641D01*
X015025Y005641D01*
X014490Y005641D01*
X014490Y006020D01*
X014502Y006066D01*
X014526Y006107D01*
X014559Y006140D01*
X014600Y006164D01*
X014646Y006176D01*
X015025Y006176D01*
X015025Y005641D01*
X015025Y005753D02*
X015141Y005753D01*
X015141Y005595D02*
X022025Y005595D01*
X022025Y005641D02*
X022025Y005525D01*
X022141Y005525D01*
X022141Y004990D01*
X022520Y004990D01*
X022566Y005002D01*
X022607Y005026D01*
X022640Y005059D01*
X022664Y005100D01*
X022676Y005146D01*
X022676Y005525D01*
X022141Y005525D01*
X022141Y005641D01*
X022676Y005641D01*
X022676Y006020D01*
X022664Y006066D01*
X022640Y006107D01*
X022607Y006140D01*
X022566Y006164D01*
X022520Y006176D01*
X022141Y006176D01*
X022141Y005641D01*
X022025Y005641D01*
X021490Y005641D01*
X021490Y006020D01*
X021502Y006066D01*
X021526Y006107D01*
X021559Y006140D01*
X021600Y006164D01*
X021646Y006176D01*
X022025Y006176D01*
X022025Y005641D01*
X022025Y005753D02*
X022141Y005753D01*
X022141Y005595D02*
X029025Y005595D01*
X029025Y005641D02*
X029025Y005525D01*
X029141Y005525D01*
X029141Y004990D01*
X029520Y004990D01*
X029566Y005002D01*
X029607Y005026D01*
X029640Y005059D01*
X029664Y005100D01*
X029676Y005146D01*
X029676Y005525D01*
X029141Y005525D01*
X029141Y005641D01*
X029676Y005641D01*
X029676Y006020D01*
X029664Y006066D01*
X029640Y006107D01*
X029607Y006140D01*
X029566Y006164D01*
X029520Y006176D01*
X029141Y006176D01*
X029141Y005641D01*
X029025Y005641D01*
X028490Y005641D01*
X028490Y006020D01*
X028502Y006066D01*
X028526Y006107D01*
X028559Y006140D01*
X028600Y006164D01*
X028646Y006176D01*
X029025Y006176D01*
X029025Y005641D01*
X029025Y005753D02*
X029141Y005753D01*
X029141Y005595D02*
X036025Y005595D01*
X036025Y005641D02*
X036025Y005525D01*
X036141Y005525D01*
X036141Y004990D01*
X036520Y004990D01*
X036566Y005002D01*
X036607Y005026D01*
X036640Y005059D01*
X036664Y005100D01*
X036676Y005146D01*
X036676Y005525D01*
X036141Y005525D01*
X036141Y005641D01*
X036676Y005641D01*
X036676Y006020D01*
X036664Y006066D01*
X036640Y006107D01*
X036607Y006140D01*
X036566Y006164D01*
X036520Y006176D01*
X036141Y006176D01*
X036141Y005641D01*
X036025Y005641D01*
X035490Y005641D01*
X035490Y006020D01*
X035502Y006066D01*
X035526Y006107D01*
X035559Y006140D01*
X035600Y006164D01*
X035646Y006176D01*
X036025Y006176D01*
X036025Y005641D01*
X036025Y005753D02*
X036141Y005753D01*
X036141Y005595D02*
X040056Y005595D01*
X040056Y005753D02*
X036676Y005753D01*
X036676Y005912D02*
X040057Y005912D01*
X040057Y006070D02*
X036662Y006070D01*
X036141Y006070D02*
X036025Y006070D01*
X036025Y005912D02*
X036141Y005912D01*
X036025Y005525D02*
X035490Y005525D01*
X035490Y005146D01*
X035502Y005100D01*
X035526Y005059D01*
X035559Y005026D01*
X035600Y005002D01*
X035646Y004990D01*
X036025Y004990D01*
X036025Y005525D01*
X036025Y005436D02*
X036141Y005436D01*
X036141Y005278D02*
X036025Y005278D01*
X036025Y005119D02*
X036141Y005119D01*
X036669Y005119D02*
X040055Y005119D01*
X040055Y005278D02*
X036676Y005278D01*
X036676Y005436D02*
X040056Y005436D01*
X040057Y006229D02*
X006448Y006229D01*
X006441Y006172D02*
X006676Y008168D01*
X006713Y008257D01*
X006713Y008427D01*
X006807Y008466D01*
X006885Y008545D01*
X006900Y008579D01*
X007161Y008579D01*
X007300Y008637D01*
X007651Y008988D01*
X008021Y008988D01*
X008083Y009014D01*
X008145Y008988D01*
X008769Y008988D01*
X008872Y009031D01*
X008950Y009110D01*
X008989Y009203D01*
X009689Y009203D01*
X009689Y008492D01*
X009673Y008454D01*
X009673Y007712D01*
X009716Y007610D01*
X009795Y007531D01*
X009897Y007488D01*
X010521Y007488D01*
X010624Y007531D01*
X010681Y007588D01*
X010909Y007588D01*
X010909Y008035D01*
X011005Y008035D01*
X011005Y007588D01*
X011237Y007588D01*
X011282Y007600D01*
X011324Y007624D01*
X011357Y007658D01*
X011381Y007699D01*
X011393Y007744D01*
X011393Y008035D01*
X011005Y008035D01*
X011005Y008131D01*
X010909Y008131D01*
X010909Y008578D01*
X010681Y008578D01*
X010624Y008635D01*
X010521Y008678D01*
X010449Y008678D01*
X010449Y009347D01*
X010464Y009354D01*
X010542Y009432D01*
X010583Y009530D01*
X010624Y009432D01*
X010702Y009354D01*
X010805Y009311D01*
X010944Y009311D01*
X011673Y008582D01*
X011673Y008212D01*
X011716Y008110D01*
X011795Y008031D01*
X011897Y007988D01*
X012521Y007988D01*
X012583Y008014D01*
X012645Y007988D01*
X013269Y007988D01*
X013372Y008031D01*
X013450Y008110D01*
X013493Y008212D01*
X013493Y008954D01*
X013450Y009057D01*
X013372Y009135D01*
X013337Y009150D01*
X013337Y010077D01*
X013405Y010077D01*
X013522Y010126D01*
X015178Y010126D01*
X015216Y010087D01*
X015319Y010045D01*
X015981Y010045D01*
X016084Y010087D01*
X016163Y010166D01*
X016206Y010269D01*
X016206Y010419D01*
X016847Y010419D01*
X016950Y010461D01*
X017026Y010537D01*
X018267Y010537D01*
X018341Y010462D01*
X018433Y010424D01*
X018433Y010356D01*
X018360Y010325D01*
X018281Y010247D01*
X018238Y010144D01*
X018238Y009520D01*
X018281Y009418D01*
X018338Y009360D01*
X018338Y009132D01*
X018785Y009132D01*
X018785Y009036D01*
X018881Y009036D01*
X018881Y008648D01*
X019172Y008648D01*
X019218Y008660D01*
X019259Y008684D01*
X019292Y008718D01*
X019316Y008759D01*
X019328Y008804D01*
X019328Y009036D01*
X018881Y009036D01*
X018881Y009132D01*
X019328Y009132D01*
X019328Y009360D01*
X019385Y009418D01*
X019422Y009506D01*
X019460Y009414D01*
X019539Y009335D01*
X019642Y009292D01*
X020149Y009292D01*
X020252Y009335D01*
X020331Y009414D01*
X020374Y009517D01*
X020374Y010024D01*
X020331Y010127D01*
X020296Y010163D01*
X020296Y011096D01*
X020235Y011243D01*
X020197Y011281D01*
X020197Y011523D01*
X020154Y011626D01*
X020075Y011705D01*
X019972Y011747D01*
X019310Y011747D01*
X019231Y011715D01*
X019231Y011865D01*
X019218Y011911D01*
X019195Y011952D01*
X019161Y011985D01*
X019120Y012009D01*
X019074Y012021D01*
X018793Y012021D01*
X018793Y011663D01*
X018757Y011663D01*
X018757Y012021D01*
X018476Y012021D01*
X018430Y012009D01*
X018389Y011985D01*
X018355Y011952D01*
X018332Y011911D01*
X018319Y011865D01*
X018319Y011663D01*
X018757Y011663D01*
X018757Y011626D01*
X018319Y011626D01*
X018319Y011424D01*
X018332Y011378D01*
X018355Y011337D01*
X018356Y011337D01*
X018341Y011331D01*
X018267Y011257D01*
X017386Y011257D01*
X017412Y011282D01*
X017513Y011384D01*
X017568Y011516D01*
X017568Y019155D01*
X017513Y019287D01*
X016326Y020474D01*
X016224Y020576D01*
X016092Y020631D01*
X007159Y020631D01*
X007138Y020682D01*
X007059Y020760D01*
X006956Y020803D01*
X006333Y020803D01*
X006297Y020788D01*
X006297Y020912D01*
X006236Y021059D01*
X005610Y021685D01*
X005497Y021797D01*
X005350Y021858D01*
X004796Y021858D01*
X004523Y022131D01*
X004018Y022131D01*
X003700Y021813D01*
X003482Y022031D01*
X003271Y022031D01*
X003271Y021521D01*
X003271Y021521D01*
X003271Y022031D01*
X003059Y022031D01*
X002761Y021732D01*
X002761Y021521D01*
X003271Y021521D01*
X003271Y021011D01*
X003482Y021011D01*
X003700Y021229D01*
X004018Y020911D01*
X004523Y020911D01*
X004671Y021058D01*
X005105Y021058D01*
X005442Y020721D01*
X005403Y020682D01*
X005361Y020579D01*
X005361Y019837D01*
X005403Y019735D01*
X005482Y019656D01*
X005585Y019613D01*
X006208Y019613D01*
X006271Y019639D01*
X006333Y019613D01*
X006956Y019613D01*
X007059Y019656D01*
X007138Y019735D01*
X007180Y019837D01*
X007180Y019911D01*
X015871Y019911D01*
X016848Y018934D01*
X016848Y011737D01*
X016484Y011372D01*
X016206Y011372D01*
X016206Y011522D01*
X016163Y011625D01*
X016084Y011704D01*
X015981Y011746D01*
X015319Y011746D01*
X015216Y011704D01*
X015184Y011672D01*
X013499Y013358D01*
X013499Y013524D01*
X013456Y013627D01*
X013421Y013663D01*
X013421Y014996D01*
X013470Y015045D01*
X013620Y015045D01*
X013620Y015473D01*
X013716Y015473D01*
X013716Y015569D01*
X013620Y015569D01*
X013620Y015996D01*
X013470Y015996D01*
X013413Y016053D01*
X013378Y016068D01*
X013378Y016724D01*
X013413Y016738D01*
X013470Y016795D01*
X013620Y016795D01*
X013620Y017223D01*
X013716Y017223D01*
X013716Y017319D01*
X013620Y017319D01*
X013620Y017746D01*
X013470Y017746D01*
X013413Y017803D01*
X013310Y017846D01*
X012687Y017846D01*
X012584Y017803D01*
X012505Y017724D01*
X012463Y017622D01*
X012463Y016920D01*
X012505Y016817D01*
X012584Y016738D01*
X012618Y016724D01*
X012618Y016068D01*
X012584Y016053D01*
X012505Y015974D01*
X012475Y015901D01*
X012177Y015901D01*
X012138Y015994D01*
X012059Y016073D01*
X011956Y016116D01*
X011333Y016116D01*
X011271Y016090D01*
X011208Y016116D01*
X010585Y016116D01*
X010482Y016073D01*
X010403Y015994D01*
X010363Y015898D01*
X009542Y015898D01*
X009524Y015916D01*
X009325Y015998D01*
X008591Y015998D01*
X008392Y015916D01*
X008240Y015764D01*
X008158Y015565D01*
X008158Y015351D01*
X008240Y015152D01*
X008392Y015000D01*
X008591Y014918D01*
X009325Y014918D01*
X009524Y015000D01*
X009662Y015138D01*
X010366Y015138D01*
X010403Y015047D01*
X010482Y014968D01*
X010512Y014956D01*
X010512Y014083D01*
X010456Y014107D01*
X009832Y014107D01*
X009730Y014064D01*
X009651Y013985D01*
X009608Y013882D01*
X009608Y013141D01*
X009651Y013038D01*
X009730Y012959D01*
X009767Y012944D01*
X009767Y012900D01*
X009732Y012885D01*
X009653Y012807D01*
X009611Y012704D01*
X009611Y011962D01*
X009653Y011860D01*
X009732Y011781D01*
X009747Y011775D01*
X009747Y010843D01*
X009674Y010813D01*
X009595Y010734D01*
X009553Y010631D01*
X009553Y010283D01*
X009595Y010180D01*
X009653Y010123D01*
X009653Y010083D01*
X009653Y010043D01*
X009595Y009986D01*
X009586Y009963D01*
X008989Y009963D01*
X008950Y010057D01*
X008872Y010135D01*
X008769Y010178D01*
X008145Y010178D01*
X008083Y010152D01*
X008021Y010178D01*
X007397Y010178D01*
X007295Y010135D01*
X007216Y010057D01*
X007173Y009954D01*
X007173Y009585D01*
X006928Y009339D01*
X006905Y009339D01*
X006928Y009395D01*
X006928Y010019D01*
X006885Y010122D01*
X006855Y010152D01*
X007592Y010890D01*
X008218Y010890D01*
X008320Y010932D01*
X008399Y011011D01*
X008442Y011114D01*
X008442Y012052D01*
X008399Y012155D01*
X008320Y012234D01*
X008218Y012276D01*
X007279Y012276D01*
X007176Y012234D01*
X007098Y012155D01*
X007055Y012052D01*
X007055Y011427D01*
X006118Y010490D01*
X006011Y010383D01*
X005953Y010243D01*
X005953Y010239D01*
X005860Y010200D01*
X005781Y010122D01*
X005738Y010019D01*
X005738Y009395D01*
X005764Y009333D01*
X005738Y009271D01*
X005738Y008647D01*
X005781Y008545D01*
X005860Y008466D01*
X005953Y008427D01*
X005953Y008257D01*
X005960Y008241D01*
X005742Y006391D01*
X003371Y004381D01*
X002955Y004381D01*
X002598Y004023D01*
X002598Y003518D01*
X002955Y003161D01*
X003461Y003161D01*
X003779Y003479D01*
X003997Y003261D01*
X004208Y003261D01*
X004208Y003771D01*
X004718Y003771D01*
X004718Y003982D01*
X004419Y004281D01*
X004366Y004281D01*
X006311Y005929D01*
X006362Y005970D01*
X006366Y005976D01*
X006370Y005980D01*
X006400Y006038D01*
X006432Y006095D01*
X006433Y006101D01*
X006436Y006107D01*
X006441Y006172D01*
X006418Y006070D02*
X007504Y006070D01*
X007490Y005912D02*
X006290Y005912D01*
X006083Y006208D02*
X003208Y003771D01*
X002740Y003376D02*
X002583Y003376D01*
X002583Y003534D02*
X002598Y003534D01*
X002583Y003693D02*
X002598Y003693D01*
X002583Y003851D02*
X002598Y003851D01*
X002583Y004010D02*
X002598Y004010D01*
X002583Y004168D02*
X002743Y004168D01*
X002901Y004327D02*
X002583Y004327D01*
X002583Y004485D02*
X003494Y004485D01*
X003681Y004644D02*
X002583Y004644D01*
X002583Y004802D02*
X003868Y004802D01*
X004055Y004961D02*
X002583Y004961D01*
X002583Y005119D02*
X004242Y005119D01*
X004429Y005278D02*
X002583Y005278D01*
X002583Y005436D02*
X004616Y005436D01*
X004594Y005579D02*
X004715Y005629D01*
X004830Y005691D01*
X004939Y005764D01*
X005040Y005846D01*
X005132Y005939D01*
X005215Y006040D01*
X005288Y006148D01*
X005349Y006264D01*
X005399Y006384D01*
X005437Y006510D01*
X005463Y006638D01*
X005474Y006753D01*
X004226Y006753D01*
X004226Y006913D01*
X005474Y006913D01*
X005463Y007028D01*
X005437Y007157D01*
X005399Y007282D01*
X005349Y007402D01*
X005288Y007518D01*
X005215Y007626D01*
X005132Y007727D01*
X005040Y007820D01*
X004939Y007903D01*
X004830Y007975D01*
X004715Y008037D01*
X004594Y008087D01*
X004469Y008125D01*
X004341Y008150D01*
X004226Y008162D01*
X004226Y006913D01*
X004066Y006913D01*
X004066Y008162D01*
X003950Y008150D01*
X003822Y008125D01*
X003697Y008087D01*
X003576Y008037D01*
X003461Y007975D01*
X003352Y007903D01*
X003251Y007820D01*
X003159Y007727D01*
X003076Y007626D01*
X003003Y007518D01*
X002942Y007402D01*
X002892Y007282D01*
X002854Y007157D01*
X002828Y007028D01*
X002817Y006913D01*
X004066Y006913D01*
X004066Y006753D01*
X004226Y006753D01*
X004226Y005505D01*
X004341Y005516D01*
X004469Y005541D01*
X004594Y005579D01*
X004631Y005595D02*
X004803Y005595D01*
X004923Y005753D02*
X004990Y005753D01*
X005105Y005912D02*
X005177Y005912D01*
X005235Y006070D02*
X005364Y006070D01*
X005331Y006229D02*
X005551Y006229D01*
X005400Y006387D02*
X005738Y006387D01*
X005760Y006546D02*
X005444Y006546D01*
X005469Y006704D02*
X005779Y006704D01*
X005798Y006863D02*
X004226Y006863D01*
X004226Y007021D02*
X004066Y007021D01*
X004066Y006863D02*
X002583Y006863D01*
X002583Y007021D02*
X002828Y007021D01*
X002861Y007180D02*
X002583Y007180D01*
X002583Y007338D02*
X002915Y007338D01*
X002992Y007497D02*
X002583Y007497D01*
X002583Y007655D02*
X003100Y007655D01*
X003245Y007814D02*
X002583Y007814D01*
X002583Y007972D02*
X003456Y007972D01*
X003851Y008131D02*
X002583Y008131D01*
X002583Y008289D02*
X005953Y008289D01*
X005947Y008131D02*
X004440Y008131D01*
X004226Y008131D02*
X004066Y008131D01*
X004066Y007972D02*
X004226Y007972D01*
X004226Y007814D02*
X004066Y007814D01*
X004066Y007655D02*
X004226Y007655D01*
X004226Y007497D02*
X004066Y007497D01*
X004066Y007338D02*
X004226Y007338D01*
X004226Y007180D02*
X004066Y007180D01*
X004066Y006753D02*
X002817Y006753D01*
X002828Y006638D01*
X002854Y006510D01*
X002892Y006384D01*
X002942Y006264D01*
X003003Y006148D01*
X003076Y006040D01*
X003159Y005939D01*
X003251Y005846D01*
X003352Y005764D01*
X003461Y005691D01*
X003576Y005629D01*
X003697Y005579D01*
X003822Y005541D01*
X003950Y005516D01*
X004066Y005505D01*
X004066Y006753D01*
X004066Y006704D02*
X004226Y006704D01*
X004226Y006546D02*
X004066Y006546D01*
X004066Y006387D02*
X004226Y006387D01*
X004226Y006229D02*
X004066Y006229D01*
X004066Y006070D02*
X004226Y006070D01*
X004226Y005912D02*
X004066Y005912D01*
X004066Y005753D02*
X004226Y005753D01*
X004226Y005595D02*
X004066Y005595D01*
X003660Y005595D02*
X002583Y005595D01*
X002583Y005753D02*
X003368Y005753D01*
X003186Y005912D02*
X002583Y005912D01*
X002583Y006070D02*
X003056Y006070D01*
X002961Y006229D02*
X002583Y006229D01*
X002583Y006387D02*
X002891Y006387D01*
X002847Y006546D02*
X002583Y006546D01*
X002583Y006704D02*
X002822Y006704D01*
X002583Y008448D02*
X005903Y008448D01*
X005755Y008606D02*
X002583Y008606D01*
X002583Y008765D02*
X005738Y008765D01*
X005738Y008923D02*
X004163Y008923D01*
X004111Y008901D02*
X004445Y009040D01*
X004701Y009296D01*
X004839Y009630D01*
X004839Y009992D01*
X004701Y010327D01*
X004445Y010583D01*
X004111Y010721D01*
X003749Y010721D01*
X003414Y010583D01*
X003158Y010327D01*
X003020Y009992D01*
X003020Y009630D01*
X003158Y009296D01*
X003414Y009040D01*
X003749Y008901D01*
X004111Y008901D01*
X003696Y008923D02*
X002583Y008923D01*
X002583Y009082D02*
X003373Y009082D01*
X003214Y009240D02*
X002583Y009240D01*
X002583Y009399D02*
X003116Y009399D01*
X003050Y009557D02*
X002583Y009557D01*
X002583Y009716D02*
X003020Y009716D01*
X003020Y009874D02*
X002583Y009874D01*
X002583Y010033D02*
X003036Y010033D01*
X003102Y010191D02*
X002583Y010191D01*
X002583Y010350D02*
X003181Y010350D01*
X003339Y010508D02*
X002583Y010508D01*
X002583Y010667D02*
X003616Y010667D01*
X004243Y010667D02*
X006295Y010667D01*
X006453Y010825D02*
X002583Y010825D01*
X002583Y010984D02*
X006612Y010984D01*
X006770Y011142D02*
X006175Y011142D01*
X006176Y011146D02*
X006176Y011525D01*
X005641Y011525D01*
X005641Y010990D01*
X006020Y010990D01*
X006066Y011002D01*
X006107Y011026D01*
X006140Y011059D01*
X006164Y011100D01*
X006176Y011146D01*
X006176Y011301D02*
X006929Y011301D01*
X007055Y011459D02*
X006176Y011459D01*
X006176Y011641D02*
X006176Y012020D01*
X006164Y012066D01*
X006140Y012107D01*
X006107Y012140D01*
X006066Y012164D01*
X006020Y012176D01*
X005641Y012176D01*
X005641Y011641D01*
X005525Y011641D01*
X005525Y011525D01*
X005641Y011525D01*
X005641Y011641D01*
X006176Y011641D01*
X006176Y011776D02*
X007055Y011776D01*
X007055Y011618D02*
X005641Y011618D01*
X005525Y011618D02*
X002583Y011618D01*
X002583Y011776D02*
X004990Y011776D01*
X004990Y011641D02*
X004990Y012020D01*
X005002Y012066D01*
X005026Y012107D01*
X005059Y012140D01*
X005100Y012164D01*
X005146Y012176D01*
X005525Y012176D01*
X005525Y011641D01*
X004990Y011641D01*
X004990Y011525D02*
X004990Y011146D01*
X005002Y011100D01*
X005026Y011059D01*
X005059Y011026D01*
X005100Y011002D01*
X005146Y010990D01*
X005525Y010990D01*
X005525Y011525D01*
X004990Y011525D01*
X004990Y011459D02*
X002583Y011459D01*
X002583Y011301D02*
X004990Y011301D01*
X004991Y011142D02*
X002583Y011142D01*
X002583Y011935D02*
X004990Y011935D01*
X005018Y012093D02*
X002583Y012093D01*
X002583Y012252D02*
X007219Y012252D01*
X007072Y012093D02*
X006149Y012093D01*
X006176Y011935D02*
X007055Y011935D01*
X007528Y010825D02*
X009704Y010825D01*
X009747Y010984D02*
X008372Y010984D01*
X008442Y011142D02*
X009747Y011142D01*
X009747Y011301D02*
X008442Y011301D01*
X008442Y011459D02*
X009747Y011459D01*
X009747Y011618D02*
X008442Y011618D01*
X008442Y011776D02*
X009743Y011776D01*
X009622Y011935D02*
X008442Y011935D01*
X008425Y012093D02*
X009611Y012093D01*
X009611Y012252D02*
X008278Y012252D01*
X009611Y012410D02*
X002583Y012410D01*
X002583Y012569D02*
X003450Y012569D01*
X003414Y012583D02*
X003749Y012445D01*
X004111Y012445D01*
X004445Y012583D01*
X004701Y012839D01*
X004839Y013174D01*
X004839Y013536D01*
X004701Y013870D01*
X004445Y014126D01*
X004111Y014265D01*
X003749Y014265D01*
X003414Y014126D01*
X003158Y013870D01*
X003020Y013536D01*
X003020Y013174D01*
X003158Y012839D01*
X003414Y012583D01*
X003270Y012727D02*
X002583Y012727D01*
X002583Y012886D02*
X003139Y012886D01*
X003073Y013044D02*
X002583Y013044D01*
X002583Y013203D02*
X003020Y013203D01*
X003020Y013361D02*
X002583Y013361D01*
X002583Y013520D02*
X003020Y013520D01*
X003079Y013678D02*
X002583Y013678D01*
X002583Y013837D02*
X003144Y013837D01*
X003283Y013995D02*
X002583Y013995D01*
X002583Y014154D02*
X003480Y014154D01*
X004379Y014154D02*
X010512Y014154D01*
X010512Y014312D02*
X002583Y014312D01*
X002583Y014471D02*
X010512Y014471D01*
X010512Y014629D02*
X002583Y014629D01*
X002583Y014788D02*
X010512Y014788D01*
X010512Y014946D02*
X009393Y014946D01*
X009628Y015105D02*
X010379Y015105D01*
X010465Y016056D02*
X007397Y016056D01*
X007387Y016050D02*
X007449Y016082D01*
X007505Y016122D01*
X007554Y016171D01*
X007594Y016227D01*
X007626Y016289D01*
X007647Y016355D01*
X007658Y016423D01*
X007658Y016458D01*
X006958Y016458D01*
X006958Y016458D01*
X006958Y016018D01*
X006663Y016018D01*
X006595Y016029D01*
X006529Y016050D01*
X006467Y016082D01*
X006411Y016122D01*
X006362Y016171D01*
X006322Y016227D01*
X006290Y016289D01*
X006269Y016355D01*
X006258Y016423D01*
X006258Y016458D01*
X006958Y016458D01*
X006958Y016458D01*
X006958Y016018D01*
X007253Y016018D01*
X007321Y016029D01*
X007387Y016050D01*
X007585Y016214D02*
X012618Y016214D01*
X012618Y016373D02*
X007650Y016373D01*
X007658Y016458D02*
X007658Y016493D01*
X007647Y016561D01*
X007626Y016627D01*
X007594Y016689D01*
X007554Y016745D01*
X007505Y016794D01*
X007449Y016834D01*
X007387Y016866D01*
X007321Y016887D01*
X007253Y016898D01*
X006958Y016898D01*
X006663Y016898D01*
X006595Y016887D01*
X006529Y016866D01*
X006467Y016834D01*
X006411Y016794D01*
X006362Y016745D01*
X006322Y016689D01*
X006290Y016627D01*
X006269Y016561D01*
X006258Y016493D01*
X006258Y016458D01*
X006958Y016458D01*
X006958Y016898D01*
X006958Y016458D01*
X006958Y016458D01*
X006958Y016458D01*
X007658Y016458D01*
X007652Y016531D02*
X012618Y016531D01*
X012618Y016690D02*
X007594Y016690D01*
X007422Y016848D02*
X012492Y016848D01*
X012463Y017007D02*
X009530Y017007D01*
X009524Y017000D02*
X009676Y017152D01*
X009758Y017351D01*
X009758Y017565D01*
X009676Y017764D01*
X009524Y017916D01*
X009325Y017998D01*
X008591Y017998D01*
X008392Y017916D01*
X008240Y017764D01*
X008158Y017565D01*
X008158Y017351D01*
X008240Y017152D01*
X008392Y017000D01*
X008591Y016918D01*
X009325Y016918D01*
X009524Y017000D01*
X009681Y017165D02*
X012463Y017165D01*
X012463Y017324D02*
X009747Y017324D01*
X009758Y017482D02*
X012463Y017482D01*
X012470Y017641D02*
X009727Y017641D01*
X009641Y017799D02*
X012580Y017799D01*
X013417Y017799D02*
X016848Y017799D01*
X016848Y017641D02*
X014088Y017641D01*
X014091Y017635D02*
X014068Y017676D01*
X014034Y017710D01*
X013993Y017734D01*
X013947Y017746D01*
X013716Y017746D01*
X013716Y017319D01*
X014104Y017319D01*
X014104Y017590D01*
X014091Y017635D01*
X014104Y017482D02*
X016848Y017482D01*
X016848Y017324D02*
X014104Y017324D01*
X014104Y017223D02*
X013716Y017223D01*
X013716Y016795D01*
X013947Y016795D01*
X013993Y016808D01*
X014034Y016831D01*
X014068Y016865D01*
X014091Y016906D01*
X014104Y016952D01*
X014104Y017223D01*
X014104Y017165D02*
X016848Y017165D01*
X016848Y017007D02*
X014104Y017007D01*
X014051Y016848D02*
X016848Y016848D01*
X016848Y016690D02*
X013378Y016690D01*
X013378Y016531D02*
X016848Y016531D01*
X016848Y016373D02*
X013378Y016373D01*
X013378Y016214D02*
X016848Y016214D01*
X016848Y016056D02*
X013407Y016056D01*
X013620Y015897D02*
X013716Y015897D01*
X013716Y015996D02*
X013716Y015569D01*
X014104Y015569D01*
X014104Y015840D01*
X014091Y015885D01*
X014068Y015926D01*
X014034Y015960D01*
X013993Y015984D01*
X013947Y015996D01*
X013716Y015996D01*
X013716Y015739D02*
X013620Y015739D01*
X013620Y015580D02*
X013716Y015580D01*
X013716Y015473D02*
X014104Y015473D01*
X014104Y015202D01*
X014091Y015156D01*
X014068Y015115D01*
X014034Y015081D01*
X013993Y015058D01*
X013947Y015045D01*
X013716Y015045D01*
X013716Y015473D01*
X013716Y015422D02*
X013620Y015422D01*
X013620Y015263D02*
X013716Y015263D01*
X013716Y015105D02*
X013620Y015105D01*
X013421Y014946D02*
X016848Y014946D01*
X016848Y014788D02*
X013421Y014788D01*
X013421Y014629D02*
X016848Y014629D01*
X016848Y014471D02*
X013421Y014471D01*
X013421Y014312D02*
X016848Y014312D01*
X016848Y014154D02*
X013421Y014154D01*
X013421Y013995D02*
X016848Y013995D01*
X016848Y013837D02*
X013421Y013837D01*
X013421Y013678D02*
X016848Y013678D01*
X016848Y013520D02*
X013499Y013520D01*
X013499Y013361D02*
X016848Y013361D01*
X016848Y013203D02*
X013654Y013203D01*
X013813Y013044D02*
X016848Y013044D01*
X016848Y012886D02*
X013971Y012886D01*
X014130Y012727D02*
X016848Y012727D01*
X016848Y012569D02*
X014288Y012569D01*
X014447Y012410D02*
X016848Y012410D01*
X016848Y012252D02*
X014605Y012252D01*
X014764Y012093D02*
X016848Y012093D01*
X016848Y011935D02*
X014922Y011935D01*
X015081Y011776D02*
X016848Y011776D01*
X016729Y011618D02*
X016166Y011618D01*
X016206Y011459D02*
X016571Y011459D01*
X016517Y010897D02*
X018775Y010897D01*
X018833Y010838D01*
X018295Y010508D02*
X016997Y010508D01*
X016516Y010896D02*
X016517Y010897D01*
X016516Y010896D02*
X017208Y011588D01*
X017208Y019083D01*
X016021Y020271D01*
X006707Y020271D01*
X006645Y020208D01*
X007180Y019860D02*
X015922Y019860D01*
X016081Y019701D02*
X007104Y019701D01*
X006820Y019276D02*
X006680Y019218D01*
X005601Y018138D01*
X005601Y018186D01*
X005522Y018376D01*
X005376Y018522D01*
X005186Y018601D01*
X004980Y018601D01*
X004790Y018522D01*
X004644Y018376D01*
X004565Y018186D01*
X004565Y017980D01*
X004644Y017790D01*
X004790Y017644D01*
X004937Y017583D01*
X004790Y017522D01*
X004644Y017376D01*
X004565Y017186D01*
X004565Y016980D01*
X004644Y016790D01*
X004790Y016644D01*
X004980Y016565D01*
X005186Y016565D01*
X005376Y016644D01*
X005522Y016790D01*
X005601Y016980D01*
X005601Y017063D01*
X007053Y018516D01*
X015671Y018516D01*
X015726Y018460D01*
X015829Y018417D01*
X016337Y018417D01*
X016440Y018460D01*
X016519Y018539D01*
X016561Y018642D01*
X016561Y019149D01*
X016519Y019252D01*
X016440Y019331D01*
X016337Y019374D01*
X015829Y019374D01*
X015726Y019331D01*
X015671Y019276D01*
X006820Y019276D01*
X006699Y019226D02*
X002583Y019226D01*
X002583Y019384D02*
X016398Y019384D01*
X016530Y019226D02*
X016556Y019226D01*
X016561Y019067D02*
X016715Y019067D01*
X016848Y018909D02*
X016561Y018909D01*
X016561Y018750D02*
X016848Y018750D01*
X016848Y018592D02*
X016540Y018592D01*
X016375Y018433D02*
X016848Y018433D01*
X016848Y018275D02*
X006812Y018275D01*
X006970Y018433D02*
X015792Y018433D01*
X016848Y018116D02*
X006653Y018116D01*
X006495Y017958D02*
X008493Y017958D01*
X008275Y017799D02*
X006336Y017799D01*
X006178Y017641D02*
X008189Y017641D01*
X008158Y017482D02*
X006019Y017482D01*
X005861Y017324D02*
X008169Y017324D01*
X008235Y017165D02*
X005702Y017165D01*
X005601Y017007D02*
X008386Y017007D01*
X008373Y015897D02*
X005457Y015897D01*
X005470Y015923D02*
X005491Y015985D01*
X005501Y016050D01*
X005501Y016083D01*
X005083Y016083D01*
X004665Y016083D01*
X004665Y016050D01*
X004676Y015985D01*
X004696Y015923D01*
X004726Y015864D01*
X004764Y015811D01*
X004811Y015764D01*
X004864Y015726D01*
X004923Y015696D01*
X004985Y015676D01*
X005050Y015665D01*
X005083Y015665D01*
X005083Y016083D01*
X005083Y016083D01*
X005083Y016083D01*
X004665Y016083D01*
X004665Y016116D01*
X004676Y016181D01*
X004696Y016243D01*
X004726Y016302D01*
X004764Y016355D01*
X004811Y016402D01*
X004864Y016440D01*
X004923Y016470D01*
X004985Y016491D01*
X005050Y016501D01*
X005083Y016501D01*
X005083Y016083D01*
X005083Y015665D01*
X005116Y015665D01*
X005181Y015676D01*
X005243Y015696D01*
X005302Y015726D01*
X005355Y015764D01*
X005402Y015811D01*
X005440Y015864D01*
X005470Y015923D01*
X005501Y016056D02*
X006519Y016056D01*
X006331Y016214D02*
X005480Y016214D01*
X005470Y016243D02*
X005440Y016302D01*
X005402Y016355D01*
X005355Y016402D01*
X005302Y016440D01*
X005243Y016470D01*
X005181Y016491D01*
X005116Y016501D01*
X005083Y016501D01*
X005083Y016083D01*
X005083Y016083D01*
X005083Y016083D01*
X005501Y016083D01*
X005501Y016116D01*
X005491Y016181D01*
X005470Y016243D01*
X005384Y016373D02*
X006266Y016373D01*
X006264Y016531D02*
X002583Y016531D01*
X002583Y016373D02*
X004782Y016373D01*
X004686Y016214D02*
X002583Y016214D01*
X002583Y016056D02*
X004665Y016056D01*
X004709Y015897D02*
X002583Y015897D01*
X002583Y015739D02*
X004846Y015739D01*
X005083Y015739D02*
X005083Y015739D01*
X005083Y015897D02*
X005083Y015897D01*
X005083Y016056D02*
X005083Y016056D01*
X005083Y016214D02*
X005083Y016214D01*
X005083Y016373D02*
X005083Y016373D01*
X004744Y016690D02*
X002583Y016690D01*
X002583Y016848D02*
X004620Y016848D01*
X004565Y017007D02*
X002583Y017007D01*
X002583Y017165D02*
X004565Y017165D01*
X004622Y017324D02*
X002583Y017324D01*
X002583Y017482D02*
X004750Y017482D01*
X004798Y017641D02*
X002583Y017641D01*
X002583Y017799D02*
X004640Y017799D01*
X004575Y017958D02*
X002583Y017958D01*
X002583Y018116D02*
X004565Y018116D01*
X004602Y018275D02*
X002583Y018275D01*
X002583Y018433D02*
X004701Y018433D01*
X004958Y018592D02*
X002583Y018592D01*
X002583Y018750D02*
X006213Y018750D01*
X006371Y018909D02*
X002583Y018909D01*
X002583Y019067D02*
X006530Y019067D01*
X006054Y018592D02*
X005208Y018592D01*
X005465Y018433D02*
X005896Y018433D01*
X005737Y018275D02*
X005564Y018275D01*
X005546Y016848D02*
X006494Y016848D01*
X006322Y016690D02*
X005422Y016690D01*
X005320Y015739D02*
X008230Y015739D01*
X008164Y015580D02*
X002583Y015580D01*
X002583Y015422D02*
X008158Y015422D01*
X008194Y015263D02*
X002583Y015263D01*
X002583Y015105D02*
X008288Y015105D01*
X008523Y014946D02*
X002583Y014946D01*
X004576Y013995D02*
X009660Y013995D01*
X009608Y013837D02*
X004715Y013837D01*
X004780Y013678D02*
X009608Y013678D01*
X009608Y013520D02*
X004839Y013520D01*
X004839Y013361D02*
X009608Y013361D01*
X009608Y013203D02*
X004839Y013203D01*
X004786Y013044D02*
X009648Y013044D01*
X009732Y012886D02*
X004720Y012886D01*
X004589Y012727D02*
X009620Y012727D01*
X009611Y012569D02*
X004409Y012569D01*
X005525Y012093D02*
X005641Y012093D01*
X005641Y011935D02*
X005525Y011935D01*
X005525Y011776D02*
X005641Y011776D01*
X005641Y011459D02*
X005525Y011459D01*
X005525Y011301D02*
X005641Y011301D01*
X005641Y011142D02*
X005525Y011142D01*
X006136Y010508D02*
X004520Y010508D01*
X004678Y010350D02*
X005997Y010350D01*
X005850Y010191D02*
X004757Y010191D01*
X004823Y010033D02*
X005744Y010033D01*
X005738Y009874D02*
X004839Y009874D01*
X004839Y009716D02*
X005738Y009716D01*
X005738Y009557D02*
X004809Y009557D01*
X004743Y009399D02*
X005738Y009399D01*
X005738Y009240D02*
X004645Y009240D01*
X004487Y009082D02*
X005738Y009082D01*
X006333Y008333D02*
X006083Y006208D01*
X006467Y006387D02*
X040058Y006387D01*
X040058Y006546D02*
X006485Y006546D01*
X006504Y006704D02*
X040058Y006704D01*
X040059Y006863D02*
X006523Y006863D01*
X006541Y007021D02*
X040059Y007021D01*
X040060Y007180D02*
X036735Y007180D01*
X036734Y007176D02*
X036776Y007279D01*
X036776Y008218D01*
X036734Y008320D01*
X036655Y008399D01*
X036552Y008442D01*
X035614Y008442D01*
X035511Y008399D01*
X035432Y008320D01*
X035390Y008218D01*
X035390Y007279D01*
X035432Y007176D01*
X035511Y007098D01*
X035614Y007055D01*
X036552Y007055D01*
X036655Y007098D01*
X036734Y007176D01*
X036776Y007338D02*
X040060Y007338D01*
X040060Y007497D02*
X036776Y007497D01*
X036776Y007655D02*
X040061Y007655D01*
X040061Y007814D02*
X036776Y007814D01*
X036776Y007972D02*
X040061Y007972D01*
X040062Y008131D02*
X039052Y008131D01*
X038918Y008075D02*
X039252Y008213D01*
X039508Y008469D01*
X039647Y008804D01*
X039647Y009166D01*
X039508Y009500D01*
X039252Y009756D01*
X038918Y009895D01*
X038556Y009895D01*
X038221Y009756D01*
X037965Y009500D01*
X037827Y009166D01*
X037827Y008804D01*
X037965Y008469D01*
X038221Y008213D01*
X038556Y008075D01*
X038918Y008075D01*
X039328Y008289D02*
X040062Y008289D01*
X040062Y008448D02*
X039486Y008448D01*
X039565Y008606D02*
X040063Y008606D01*
X040063Y008765D02*
X039630Y008765D01*
X039647Y008923D02*
X040064Y008923D01*
X040064Y009082D02*
X039647Y009082D01*
X039616Y009240D02*
X040064Y009240D01*
X040065Y009399D02*
X039550Y009399D01*
X039451Y009557D02*
X040065Y009557D01*
X040065Y009716D02*
X039292Y009716D01*
X038967Y009874D02*
X040066Y009874D01*
X040066Y010033D02*
X030408Y010033D01*
X030451Y009990D02*
X030052Y010388D01*
X029791Y010388D01*
X029791Y009728D01*
X030451Y009728D01*
X030451Y009990D01*
X030451Y009874D02*
X038506Y009874D01*
X038181Y009716D02*
X029791Y009716D01*
X029791Y009728D02*
X029791Y009688D01*
X030451Y009688D01*
X030451Y009426D01*
X030052Y009028D01*
X029791Y009028D01*
X029791Y009688D01*
X029751Y009688D01*
X029751Y009028D01*
X029489Y009028D01*
X029091Y009426D01*
X029091Y009688D01*
X029751Y009688D01*
X029751Y009728D01*
X029751Y010388D01*
X029489Y010388D01*
X029091Y009990D01*
X029091Y009728D01*
X029751Y009728D01*
X029791Y009728D01*
X029751Y009716D02*
X020374Y009716D01*
X020374Y009874D02*
X029091Y009874D01*
X029133Y010033D02*
X020370Y010033D01*
X020296Y010191D02*
X029292Y010191D01*
X029450Y010350D02*
X020296Y010350D01*
X020296Y010508D02*
X034224Y010508D01*
X034224Y010350D02*
X030091Y010350D01*
X030249Y010191D02*
X034264Y010191D01*
X034267Y010184D02*
X034346Y010106D01*
X034449Y010063D01*
X035387Y010063D01*
X035490Y010106D01*
X035568Y010184D01*
X035611Y010287D01*
X035611Y011225D01*
X035568Y011328D01*
X035490Y011407D01*
X035387Y011450D01*
X034449Y011450D01*
X034346Y011407D01*
X034267Y011328D01*
X034224Y011225D01*
X034224Y010287D01*
X034267Y010184D01*
X034224Y010667D02*
X020296Y010667D01*
X020296Y010825D02*
X034224Y010825D01*
X034224Y010984D02*
X030060Y010984D01*
X029926Y010928D02*
X030212Y011047D01*
X030432Y011266D01*
X030551Y011553D01*
X030551Y011863D01*
X030432Y012150D01*
X030212Y012369D01*
X029926Y012488D01*
X029615Y012488D01*
X029329Y012369D01*
X029109Y012150D01*
X028991Y011863D01*
X028991Y011553D01*
X029109Y011266D01*
X029329Y011047D01*
X029615Y010928D01*
X029926Y010928D01*
X030308Y011142D02*
X034224Y011142D01*
X034255Y011301D02*
X030446Y011301D01*
X030512Y011459D02*
X040069Y011459D01*
X040069Y011301D02*
X037620Y011301D01*
X037607Y011314D02*
X037566Y011337D01*
X037520Y011350D01*
X037141Y011350D01*
X037141Y010814D01*
X037676Y010814D01*
X037676Y011193D01*
X037664Y011239D01*
X037640Y011280D01*
X037607Y011314D01*
X037676Y011142D02*
X040069Y011142D01*
X040068Y010984D02*
X037676Y010984D01*
X037676Y010825D02*
X040068Y010825D01*
X040068Y010667D02*
X037676Y010667D01*
X037676Y010699D02*
X037141Y010699D01*
X037141Y010814D01*
X037025Y010814D01*
X037025Y010699D01*
X036490Y010699D01*
X036490Y010319D01*
X036502Y010273D01*
X036526Y010232D01*
X036559Y010199D01*
X036600Y010175D01*
X036646Y010163D01*
X037025Y010163D01*
X037025Y010698D01*
X037141Y010698D01*
X037141Y010163D01*
X037520Y010163D01*
X037566Y010175D01*
X037607Y010199D01*
X037640Y010232D01*
X037664Y010273D01*
X037676Y010319D01*
X037676Y010699D01*
X037676Y010508D02*
X040067Y010508D01*
X040067Y010350D02*
X037676Y010350D01*
X037593Y010191D02*
X040066Y010191D01*
X040070Y011618D02*
X030551Y011618D01*
X030551Y011776D02*
X034329Y011776D01*
X034346Y011759D02*
X034449Y011716D01*
X035387Y011716D01*
X035490Y011759D01*
X035568Y011838D01*
X035611Y011941D01*
X035611Y012879D01*
X035568Y012982D01*
X035490Y013061D01*
X035387Y013103D01*
X034449Y013103D01*
X034346Y013061D01*
X034267Y012982D01*
X034224Y012879D01*
X034224Y011941D01*
X034267Y011838D01*
X034346Y011759D01*
X034227Y011935D02*
X030521Y011935D01*
X030455Y012093D02*
X034224Y012093D01*
X034224Y012252D02*
X030330Y012252D01*
X030114Y012410D02*
X034224Y012410D01*
X034224Y012569D02*
X017568Y012569D01*
X017568Y012727D02*
X034224Y012727D01*
X034227Y012886D02*
X017568Y012886D01*
X017568Y013044D02*
X034329Y013044D01*
X035506Y013044D02*
X040073Y013044D01*
X040073Y012886D02*
X037666Y012886D01*
X037664Y012893D02*
X037640Y012934D01*
X037607Y012967D01*
X037566Y012991D01*
X037520Y013003D01*
X037141Y013003D01*
X037141Y012468D01*
X037025Y012468D01*
X037025Y013003D01*
X036646Y013003D01*
X036600Y012991D01*
X036559Y012967D01*
X036526Y012934D01*
X036502Y012893D01*
X036490Y012847D01*
X036490Y012468D01*
X037025Y012468D01*
X037025Y012352D01*
X036490Y012352D01*
X036490Y011973D01*
X036502Y011927D01*
X036526Y011886D01*
X036559Y011852D01*
X036600Y011829D01*
X036646Y011816D01*
X037025Y011816D01*
X037025Y012352D01*
X037141Y012352D01*
X037141Y012468D01*
X037676Y012468D01*
X037676Y012847D01*
X037664Y012893D01*
X037676Y012727D02*
X040072Y012727D01*
X040072Y012569D02*
X037676Y012569D01*
X037676Y012352D02*
X037141Y012352D01*
X037141Y011816D01*
X037520Y011816D01*
X037566Y011829D01*
X037607Y011852D01*
X037640Y011886D01*
X037664Y011927D01*
X037676Y011973D01*
X037676Y012352D01*
X037676Y012252D02*
X040071Y012252D01*
X040071Y012410D02*
X037141Y012410D01*
X037025Y012410D02*
X035611Y012410D01*
X035611Y012252D02*
X036490Y012252D01*
X036490Y012093D02*
X035611Y012093D01*
X035609Y011935D02*
X036500Y011935D01*
X037025Y011935D02*
X037141Y011935D01*
X037141Y012093D02*
X037025Y012093D01*
X037025Y012252D02*
X037141Y012252D01*
X037141Y012569D02*
X037025Y012569D01*
X037025Y012727D02*
X037141Y012727D01*
X037141Y012886D02*
X037025Y012886D01*
X036500Y012886D02*
X035608Y012886D01*
X035611Y012727D02*
X036490Y012727D01*
X036490Y012569D02*
X035611Y012569D01*
X035507Y011776D02*
X040070Y011776D01*
X040070Y011935D02*
X037666Y011935D01*
X037676Y012093D02*
X040071Y012093D01*
X040073Y013203D02*
X031583Y013203D01*
X031591Y013203D02*
X031719Y013229D01*
X031844Y013267D01*
X031965Y013317D01*
X032080Y013378D01*
X032189Y013451D01*
X032290Y013534D01*
X032382Y013626D01*
X032465Y013727D01*
X032538Y013836D01*
X032599Y013951D01*
X032649Y014072D01*
X032687Y014197D01*
X032713Y014325D01*
X032724Y014441D01*
X031476Y014441D01*
X031476Y014601D01*
X032724Y014601D01*
X032713Y014716D01*
X032687Y014844D01*
X032649Y014969D01*
X032599Y015090D01*
X032538Y015205D01*
X032465Y015314D01*
X032382Y015415D01*
X032290Y015507D01*
X032189Y015590D01*
X032080Y015663D01*
X031965Y015724D01*
X031844Y015774D01*
X031719Y015812D01*
X031591Y015838D01*
X031476Y015849D01*
X031476Y014601D01*
X031316Y014601D01*
X031316Y015849D01*
X031200Y015838D01*
X031072Y015812D01*
X030947Y015774D01*
X030826Y015724D01*
X030711Y015663D01*
X030602Y015590D01*
X030501Y015507D01*
X030409Y015415D01*
X030326Y015314D01*
X030253Y015205D01*
X030192Y015090D01*
X030142Y014969D01*
X030104Y014844D01*
X030078Y014716D01*
X030067Y014601D01*
X031316Y014601D01*
X031316Y014441D01*
X031476Y014441D01*
X031476Y013192D01*
X031591Y013203D01*
X031476Y013203D02*
X031316Y013203D01*
X031316Y013192D02*
X031316Y014441D01*
X030067Y014441D01*
X030078Y014325D01*
X030104Y014197D01*
X030142Y014072D01*
X030192Y013951D01*
X030253Y013836D01*
X030326Y013727D01*
X030409Y013626D01*
X030501Y013534D01*
X030602Y013451D01*
X030711Y013378D01*
X030826Y013317D01*
X030947Y013267D01*
X031072Y013229D01*
X031200Y013203D01*
X031316Y013192D01*
X031208Y013203D02*
X017568Y013203D01*
X017568Y013361D02*
X030743Y013361D01*
X030519Y013520D02*
X017568Y013520D01*
X017568Y013678D02*
X030366Y013678D01*
X030253Y013837D02*
X017568Y013837D01*
X017568Y013995D02*
X030174Y013995D01*
X030117Y014154D02*
X017568Y014154D01*
X017568Y014312D02*
X030081Y014312D01*
X030070Y014629D02*
X017568Y014629D01*
X017568Y014471D02*
X031316Y014471D01*
X031316Y014629D02*
X031476Y014629D01*
X031476Y014471D02*
X037871Y014471D01*
X037827Y014362D02*
X037827Y014001D01*
X037965Y013666D01*
X038221Y013410D01*
X038556Y013272D01*
X038918Y013272D01*
X039252Y013410D01*
X039508Y013666D01*
X039647Y014001D01*
X039647Y014362D01*
X039508Y014697D01*
X039252Y014953D01*
X038918Y015091D01*
X038556Y015091D01*
X038221Y014953D01*
X037965Y014697D01*
X037827Y014362D01*
X037827Y014312D02*
X032710Y014312D01*
X032674Y014154D02*
X037827Y014154D01*
X037829Y013995D02*
X032617Y013995D01*
X032538Y013837D02*
X037895Y013837D01*
X037960Y013678D02*
X032425Y013678D01*
X032272Y013520D02*
X038112Y013520D01*
X038340Y013361D02*
X032048Y013361D01*
X031476Y013361D02*
X031316Y013361D01*
X031316Y013520D02*
X031476Y013520D01*
X031476Y013678D02*
X031316Y013678D01*
X031316Y013837D02*
X031476Y013837D01*
X031476Y013995D02*
X031316Y013995D01*
X031316Y014154D02*
X031476Y014154D01*
X031476Y014312D02*
X031316Y014312D01*
X031316Y014788D02*
X031476Y014788D01*
X031476Y014946D02*
X031316Y014946D01*
X031316Y015105D02*
X031476Y015105D01*
X031476Y015263D02*
X031316Y015263D01*
X031316Y015422D02*
X031476Y015422D01*
X031476Y015580D02*
X031316Y015580D01*
X031316Y015739D02*
X031476Y015739D01*
X031930Y015739D02*
X040079Y015739D01*
X040079Y015897D02*
X017568Y015897D01*
X017568Y015739D02*
X030861Y015739D01*
X030590Y015580D02*
X017568Y015580D01*
X017568Y015422D02*
X030416Y015422D01*
X030292Y015263D02*
X017568Y015263D01*
X017568Y015105D02*
X030200Y015105D01*
X030135Y014946D02*
X017568Y014946D01*
X017568Y014788D02*
X030093Y014788D01*
X032201Y015580D02*
X040079Y015580D01*
X040078Y015422D02*
X032375Y015422D01*
X032499Y015263D02*
X040078Y015263D01*
X040078Y015105D02*
X032591Y015105D01*
X032656Y014946D02*
X038214Y014946D01*
X038056Y014788D02*
X032699Y014788D01*
X032721Y014629D02*
X037937Y014629D01*
X039259Y014946D02*
X040077Y014946D01*
X040077Y014788D02*
X039417Y014788D01*
X039536Y014629D02*
X040077Y014629D01*
X040076Y014471D02*
X039602Y014471D01*
X039647Y014312D02*
X040076Y014312D01*
X040075Y014154D02*
X039647Y014154D01*
X039644Y013995D02*
X040075Y013995D01*
X040075Y013837D02*
X039579Y013837D01*
X039513Y013678D02*
X040074Y013678D01*
X040074Y013520D02*
X039362Y013520D01*
X039134Y013361D02*
X040074Y013361D01*
X037141Y011301D02*
X037025Y011301D01*
X037025Y011350D02*
X036646Y011350D01*
X036600Y011337D01*
X036559Y011314D01*
X036526Y011280D01*
X036502Y011239D01*
X036490Y011193D01*
X036490Y010814D01*
X037025Y010814D01*
X037025Y011350D01*
X037025Y011142D02*
X037141Y011142D01*
X037141Y010984D02*
X037025Y010984D01*
X037025Y010825D02*
X037141Y010825D01*
X037141Y010667D02*
X037025Y010667D01*
X037025Y010508D02*
X037141Y010508D01*
X037141Y010350D02*
X037025Y010350D01*
X037025Y010191D02*
X037141Y010191D01*
X036573Y010191D02*
X035571Y010191D01*
X035611Y010350D02*
X036490Y010350D01*
X036490Y010508D02*
X035611Y010508D01*
X035611Y010667D02*
X036490Y010667D01*
X036490Y010825D02*
X035611Y010825D01*
X035611Y010984D02*
X036490Y010984D01*
X036490Y011142D02*
X035611Y011142D01*
X035580Y011301D02*
X036546Y011301D01*
X038022Y009557D02*
X030451Y009557D01*
X030423Y009399D02*
X037923Y009399D01*
X037858Y009240D02*
X030264Y009240D01*
X030106Y009082D02*
X037827Y009082D01*
X037827Y008923D02*
X019328Y008923D01*
X019317Y008765D02*
X037843Y008765D01*
X037909Y008606D02*
X013493Y008606D01*
X013493Y008448D02*
X037987Y008448D01*
X038145Y008289D02*
X036747Y008289D01*
X036776Y008131D02*
X038421Y008131D01*
X035419Y008289D02*
X029747Y008289D01*
X029734Y008320D02*
X029655Y008399D01*
X029552Y008442D01*
X028614Y008442D01*
X028511Y008399D01*
X028432Y008320D01*
X028390Y008218D01*
X028390Y007279D01*
X028432Y007176D01*
X028511Y007098D01*
X028614Y007055D01*
X029552Y007055D01*
X029655Y007098D01*
X029734Y007176D01*
X029776Y007279D01*
X029776Y008218D01*
X029734Y008320D01*
X029776Y008131D02*
X035390Y008131D01*
X035390Y007972D02*
X029776Y007972D01*
X029776Y007814D02*
X035390Y007814D01*
X035390Y007655D02*
X029776Y007655D01*
X029776Y007497D02*
X035390Y007497D01*
X035390Y007338D02*
X029776Y007338D01*
X029735Y007180D02*
X035431Y007180D01*
X035504Y006070D02*
X029662Y006070D01*
X029676Y005912D02*
X035490Y005912D01*
X035490Y005753D02*
X029676Y005753D01*
X029676Y005436D02*
X035490Y005436D01*
X035490Y005278D02*
X029676Y005278D01*
X029669Y005119D02*
X035497Y005119D01*
X034884Y004644D02*
X037282Y004644D01*
X037123Y004485D02*
X035043Y004485D01*
X035083Y004445D02*
X034827Y004701D01*
X034492Y004839D01*
X034130Y004839D01*
X033796Y004701D01*
X033540Y004445D01*
X033401Y004111D01*
X033401Y003749D01*
X033540Y003414D01*
X033796Y003158D01*
X034130Y003020D01*
X034492Y003020D01*
X034827Y003158D01*
X035083Y003414D01*
X035221Y003749D01*
X035221Y004111D01*
X035083Y004445D01*
X035132Y004327D02*
X037034Y004327D01*
X036969Y004168D02*
X035197Y004168D01*
X035221Y004010D02*
X036945Y004010D01*
X036945Y003851D02*
X035221Y003851D01*
X035198Y003693D02*
X036968Y003693D01*
X037034Y003534D02*
X035133Y003534D01*
X035044Y003376D02*
X037122Y003376D01*
X037280Y003217D02*
X034886Y003217D01*
X034586Y003059D02*
X037580Y003059D01*
X037584Y004802D02*
X034583Y004802D01*
X034040Y004802D02*
X031126Y004802D01*
X031036Y004839D02*
X030674Y004839D01*
X030339Y004701D01*
X030083Y004445D01*
X029945Y004111D01*
X029945Y003749D01*
X030083Y003414D01*
X030339Y003158D01*
X030674Y003020D01*
X031036Y003020D01*
X031370Y003158D01*
X031626Y003414D01*
X031765Y003749D01*
X031765Y004111D01*
X031626Y004445D01*
X031370Y004701D01*
X031036Y004839D01*
X031427Y004644D02*
X033739Y004644D01*
X033580Y004485D02*
X031586Y004485D01*
X031675Y004327D02*
X033491Y004327D01*
X033425Y004168D02*
X031741Y004168D01*
X031765Y004010D02*
X033401Y004010D01*
X033401Y003851D02*
X031765Y003851D01*
X031741Y003693D02*
X033425Y003693D01*
X033490Y003534D02*
X031676Y003534D01*
X031588Y003376D02*
X033579Y003376D01*
X033737Y003217D02*
X031429Y003217D01*
X031130Y003059D02*
X034036Y003059D01*
X030580Y003059D02*
X027586Y003059D01*
X027492Y003020D02*
X027827Y003158D01*
X028083Y003414D01*
X028221Y003749D01*
X028221Y004111D01*
X028083Y004445D01*
X027827Y004701D01*
X027492Y004839D01*
X027130Y004839D01*
X026796Y004701D01*
X026540Y004445D01*
X026401Y004111D01*
X026401Y003749D01*
X026540Y003414D01*
X026796Y003158D01*
X027130Y003020D01*
X027492Y003020D01*
X027886Y003217D02*
X030280Y003217D01*
X030122Y003376D02*
X028044Y003376D01*
X028133Y003534D02*
X030034Y003534D01*
X029968Y003693D02*
X028198Y003693D01*
X028221Y003851D02*
X029945Y003851D01*
X029945Y004010D02*
X028221Y004010D01*
X028197Y004168D02*
X029969Y004168D01*
X030034Y004327D02*
X028132Y004327D01*
X028043Y004485D02*
X030123Y004485D01*
X030282Y004644D02*
X027884Y004644D01*
X027583Y004802D02*
X030584Y004802D01*
X029141Y005119D02*
X029025Y005119D01*
X029025Y004990D02*
X028646Y004990D01*
X028600Y005002D01*
X028559Y005026D01*
X028526Y005059D01*
X028502Y005100D01*
X028490Y005146D01*
X028490Y005525D01*
X029025Y005525D01*
X029025Y004990D01*
X029025Y005278D02*
X029141Y005278D01*
X029141Y005436D02*
X029025Y005436D01*
X029025Y005912D02*
X029141Y005912D01*
X029141Y006070D02*
X029025Y006070D01*
X028504Y006070D02*
X022662Y006070D01*
X022676Y005912D02*
X028490Y005912D01*
X028490Y005753D02*
X022676Y005753D01*
X022676Y005436D02*
X028490Y005436D01*
X028490Y005278D02*
X022676Y005278D01*
X022669Y005119D02*
X028497Y005119D01*
X027040Y004802D02*
X024126Y004802D01*
X024036Y004839D02*
X023674Y004839D01*
X023339Y004701D01*
X023083Y004445D01*
X022945Y004111D01*
X022945Y003749D01*
X023083Y003414D01*
X023339Y003158D01*
X023674Y003020D01*
X024036Y003020D01*
X024370Y003158D01*
X024626Y003414D01*
X024765Y003749D01*
X024765Y004111D01*
X024626Y004445D01*
X024370Y004701D01*
X024036Y004839D01*
X024427Y004644D02*
X026739Y004644D01*
X026580Y004485D02*
X024586Y004485D01*
X024675Y004327D02*
X026491Y004327D01*
X026425Y004168D02*
X024741Y004168D01*
X024765Y004010D02*
X026401Y004010D01*
X026401Y003851D02*
X024765Y003851D01*
X024741Y003693D02*
X026425Y003693D01*
X026490Y003534D02*
X024676Y003534D01*
X024588Y003376D02*
X026579Y003376D01*
X026737Y003217D02*
X024429Y003217D01*
X024130Y003059D02*
X027036Y003059D01*
X023580Y003059D02*
X020586Y003059D01*
X020492Y003020D02*
X020827Y003158D01*
X021083Y003414D01*
X021221Y003749D01*
X021221Y004111D01*
X021083Y004445D01*
X020827Y004701D01*
X020492Y004839D01*
X020130Y004839D01*
X019796Y004701D01*
X019540Y004445D01*
X019401Y004111D01*
X019401Y003749D01*
X019540Y003414D01*
X019796Y003158D01*
X020130Y003020D01*
X020492Y003020D01*
X020886Y003217D02*
X023280Y003217D01*
X023122Y003376D02*
X021044Y003376D01*
X021133Y003534D02*
X023034Y003534D01*
X022968Y003693D02*
X021198Y003693D01*
X021221Y003851D02*
X022945Y003851D01*
X022945Y004010D02*
X021221Y004010D01*
X021197Y004168D02*
X022969Y004168D01*
X023034Y004327D02*
X021132Y004327D01*
X021043Y004485D02*
X023123Y004485D01*
X023282Y004644D02*
X020884Y004644D01*
X020583Y004802D02*
X023584Y004802D01*
X022141Y005119D02*
X022025Y005119D01*
X022025Y004990D02*
X021646Y004990D01*
X021600Y005002D01*
X021559Y005026D01*
X021526Y005059D01*
X021502Y005100D01*
X021490Y005146D01*
X021490Y005525D01*
X022025Y005525D01*
X022025Y004990D01*
X022025Y005278D02*
X022141Y005278D01*
X022141Y005436D02*
X022025Y005436D01*
X022025Y005912D02*
X022141Y005912D01*
X022141Y006070D02*
X022025Y006070D01*
X021504Y006070D02*
X015662Y006070D01*
X015676Y005912D02*
X021490Y005912D01*
X021490Y005753D02*
X015676Y005753D01*
X015676Y005436D02*
X021490Y005436D01*
X021490Y005278D02*
X015676Y005278D01*
X015669Y005119D02*
X021497Y005119D01*
X020040Y004802D02*
X017126Y004802D01*
X017036Y004839D02*
X017370Y004701D01*
X017626Y004445D01*
X017765Y004111D01*
X017765Y003749D01*
X017626Y003414D01*
X017370Y003158D01*
X017036Y003020D01*
X016674Y003020D01*
X016339Y003158D01*
X016083Y003414D01*
X015945Y003749D01*
X015945Y004111D01*
X016083Y004445D01*
X016339Y004701D01*
X016674Y004839D01*
X017036Y004839D01*
X017427Y004644D02*
X019739Y004644D01*
X019580Y004485D02*
X017586Y004485D01*
X017675Y004327D02*
X019491Y004327D01*
X019425Y004168D02*
X017741Y004168D01*
X017765Y004010D02*
X019401Y004010D01*
X019401Y003851D02*
X017765Y003851D01*
X017741Y003693D02*
X019425Y003693D01*
X019490Y003534D02*
X017676Y003534D01*
X017588Y003376D02*
X019579Y003376D01*
X019737Y003217D02*
X017429Y003217D01*
X017130Y003059D02*
X020036Y003059D01*
X016580Y003059D02*
X013586Y003059D01*
X013492Y003020D02*
X013827Y003158D01*
X014083Y003414D01*
X014221Y003749D01*
X014221Y004111D01*
X014083Y004445D01*
X013827Y004701D01*
X013492Y004839D01*
X013130Y004839D01*
X012796Y004701D01*
X012540Y004445D01*
X012401Y004111D01*
X012401Y003749D01*
X012540Y003414D01*
X012796Y003158D01*
X013130Y003020D01*
X013492Y003020D01*
X013886Y003217D02*
X016280Y003217D01*
X016122Y003376D02*
X014044Y003376D01*
X014133Y003534D02*
X016034Y003534D01*
X015968Y003693D02*
X014198Y003693D01*
X014221Y003851D02*
X015945Y003851D01*
X015945Y004010D02*
X014221Y004010D01*
X014197Y004168D02*
X015969Y004168D01*
X016034Y004327D02*
X014132Y004327D01*
X014043Y004485D02*
X016123Y004485D01*
X016282Y004644D02*
X013884Y004644D01*
X013583Y004802D02*
X016584Y004802D01*
X015141Y005119D02*
X015025Y005119D01*
X015025Y004990D02*
X014646Y004990D01*
X014600Y005002D01*
X014559Y005026D01*
X014526Y005059D01*
X014502Y005100D01*
X014490Y005146D01*
X014490Y005525D01*
X015025Y005525D01*
X015025Y004990D01*
X015025Y005278D02*
X015141Y005278D01*
X015141Y005436D02*
X015025Y005436D01*
X015025Y005912D02*
X015141Y005912D01*
X015141Y006070D02*
X015025Y006070D01*
X014504Y006070D02*
X008662Y006070D01*
X008676Y005912D02*
X014490Y005912D01*
X014490Y005753D02*
X008676Y005753D01*
X008676Y005436D02*
X014490Y005436D01*
X014490Y005278D02*
X008676Y005278D01*
X008669Y005119D02*
X014497Y005119D01*
X013040Y004802D02*
X010126Y004802D01*
X010036Y004839D02*
X009674Y004839D01*
X009339Y004701D01*
X009083Y004445D01*
X008945Y004111D01*
X008945Y003749D01*
X009083Y003414D01*
X009339Y003158D01*
X009674Y003020D01*
X010036Y003020D01*
X010370Y003158D01*
X010626Y003414D01*
X010765Y003749D01*
X010765Y004111D01*
X010626Y004445D01*
X010370Y004701D01*
X010036Y004839D01*
X010427Y004644D02*
X012739Y004644D01*
X012580Y004485D02*
X010586Y004485D01*
X010675Y004327D02*
X012491Y004327D01*
X012425Y004168D02*
X010741Y004168D01*
X010765Y004010D02*
X012401Y004010D01*
X012401Y003851D02*
X010765Y003851D01*
X010741Y003693D02*
X012425Y003693D01*
X012490Y003534D02*
X010676Y003534D01*
X010588Y003376D02*
X012579Y003376D01*
X012737Y003217D02*
X010429Y003217D01*
X010130Y003059D02*
X013036Y003059D01*
X009580Y003059D02*
X006586Y003059D01*
X006492Y003020D02*
X006827Y003158D01*
X007083Y003414D01*
X007221Y003749D01*
X007221Y004111D01*
X007083Y004445D01*
X006827Y004701D01*
X006492Y004839D01*
X006130Y004839D01*
X005796Y004701D01*
X005540Y004445D01*
X005401Y004111D01*
X005401Y003749D01*
X005540Y003414D01*
X005796Y003158D01*
X006130Y003020D01*
X006492Y003020D01*
X006886Y003217D02*
X009280Y003217D01*
X009122Y003376D02*
X007044Y003376D01*
X007133Y003534D02*
X009034Y003534D01*
X008968Y003693D02*
X007198Y003693D01*
X007221Y003851D02*
X008945Y003851D01*
X008945Y004010D02*
X007221Y004010D01*
X007197Y004168D02*
X008969Y004168D01*
X009034Y004327D02*
X007132Y004327D01*
X007043Y004485D02*
X009123Y004485D01*
X009282Y004644D02*
X006884Y004644D01*
X006583Y004802D02*
X009584Y004802D01*
X008141Y005119D02*
X008025Y005119D01*
X008025Y005278D02*
X008141Y005278D01*
X008141Y005436D02*
X008025Y005436D01*
X008025Y005753D02*
X008141Y005753D01*
X008141Y005912D02*
X008025Y005912D01*
X008025Y006070D02*
X008141Y006070D01*
X008552Y007055D02*
X007614Y007055D01*
X007511Y007098D01*
X007432Y007176D01*
X007390Y007279D01*
X007390Y008218D01*
X007432Y008320D01*
X007511Y008399D01*
X007614Y008442D01*
X008552Y008442D01*
X008655Y008399D01*
X008734Y008320D01*
X008776Y008218D01*
X008776Y007279D01*
X008734Y007176D01*
X008655Y007098D01*
X008552Y007055D01*
X008735Y007180D02*
X014431Y007180D01*
X014432Y007176D02*
X014511Y007098D01*
X014614Y007055D01*
X015552Y007055D01*
X015655Y007098D01*
X015734Y007176D01*
X015776Y007279D01*
X015776Y008218D01*
X015734Y008320D01*
X015655Y008399D01*
X015552Y008442D01*
X014614Y008442D01*
X014511Y008399D01*
X014432Y008320D01*
X014390Y008218D01*
X014390Y007279D01*
X014432Y007176D01*
X014390Y007338D02*
X008776Y007338D01*
X008776Y007497D02*
X009877Y007497D01*
X009697Y007655D02*
X008776Y007655D01*
X008776Y007814D02*
X009673Y007814D01*
X009673Y007972D02*
X008776Y007972D01*
X008776Y008131D02*
X009673Y008131D01*
X009673Y008289D02*
X008747Y008289D01*
X008922Y009082D02*
X009689Y009082D01*
X009689Y008923D02*
X007586Y008923D01*
X007428Y008765D02*
X009689Y008765D01*
X009689Y008606D02*
X007226Y008606D01*
X007419Y008289D02*
X006713Y008289D01*
X006672Y008131D02*
X007390Y008131D01*
X007390Y007972D02*
X006653Y007972D01*
X006634Y007814D02*
X007390Y007814D01*
X007390Y007655D02*
X006616Y007655D01*
X006597Y007497D02*
X007390Y007497D01*
X007390Y007338D02*
X006578Y007338D01*
X006560Y007180D02*
X007431Y007180D01*
X006763Y008448D02*
X009673Y008448D01*
X010449Y008765D02*
X011490Y008765D01*
X011332Y008923D02*
X010449Y008923D01*
X010449Y009082D02*
X011173Y009082D01*
X011015Y009240D02*
X010449Y009240D01*
X010509Y009399D02*
X010657Y009399D01*
X010653Y008606D02*
X011649Y008606D01*
X011673Y008448D02*
X011386Y008448D01*
X011381Y008468D02*
X011357Y008509D01*
X011324Y008542D01*
X011282Y008566D01*
X011237Y008578D01*
X011005Y008578D01*
X011005Y008131D01*
X011393Y008131D01*
X011393Y008422D01*
X011381Y008468D01*
X011393Y008289D02*
X011673Y008289D01*
X011707Y008131D02*
X011005Y008131D01*
X011005Y008289D02*
X010909Y008289D01*
X010909Y008448D02*
X011005Y008448D01*
X011005Y007972D02*
X010909Y007972D01*
X010909Y007814D02*
X011005Y007814D01*
X011005Y007655D02*
X010909Y007655D01*
X010541Y007497D02*
X014390Y007497D01*
X014390Y007655D02*
X011355Y007655D01*
X011393Y007814D02*
X014390Y007814D01*
X014390Y007972D02*
X011393Y007972D01*
X013459Y008131D02*
X014390Y008131D01*
X014419Y008289D02*
X013493Y008289D01*
X013493Y008765D02*
X018349Y008765D01*
X018350Y008759D02*
X018374Y008718D01*
X018408Y008684D01*
X018449Y008660D01*
X018494Y008648D01*
X018785Y008648D01*
X018785Y009036D01*
X018338Y009036D01*
X018338Y008804D01*
X018350Y008759D01*
X018338Y008923D02*
X013493Y008923D01*
X013425Y009082D02*
X018785Y009082D01*
X018881Y009082D02*
X029435Y009082D01*
X029277Y009240D02*
X019328Y009240D01*
X019366Y009399D02*
X019475Y009399D01*
X018881Y008923D02*
X018785Y008923D01*
X018785Y008765D02*
X018881Y008765D01*
X018338Y009240D02*
X013337Y009240D01*
X013337Y009399D02*
X018300Y009399D01*
X018238Y009557D02*
X013337Y009557D01*
X013337Y009716D02*
X018238Y009716D01*
X018238Y009874D02*
X013337Y009874D01*
X013337Y010033D02*
X018238Y010033D01*
X018258Y010191D02*
X016173Y010191D01*
X016206Y010350D02*
X018418Y010350D01*
X018311Y011301D02*
X017430Y011301D01*
X017545Y011459D02*
X018319Y011459D01*
X018319Y011618D02*
X017568Y011618D01*
X017568Y011776D02*
X018319Y011776D01*
X018345Y011935D02*
X017568Y011935D01*
X017568Y012093D02*
X029086Y012093D01*
X029020Y011935D02*
X019205Y011935D01*
X019231Y011776D02*
X028991Y011776D01*
X028991Y011618D02*
X020158Y011618D01*
X020197Y011459D02*
X029029Y011459D01*
X029095Y011301D02*
X020197Y011301D01*
X020276Y011142D02*
X029233Y011142D01*
X029481Y010984D02*
X020296Y010984D01*
X018793Y011776D02*
X018757Y011776D01*
X018757Y011935D02*
X018793Y011935D01*
X017568Y012252D02*
X029211Y012252D01*
X029427Y012410D02*
X017568Y012410D01*
X015650Y010522D02*
X015650Y010486D01*
X013329Y010486D01*
X013329Y010457D01*
X015747Y008289D02*
X021419Y008289D01*
X021432Y008320D02*
X021390Y008218D01*
X021390Y007279D01*
X021432Y007176D01*
X021511Y007098D01*
X021614Y007055D01*
X022552Y007055D01*
X022655Y007098D01*
X022734Y007176D01*
X022776Y007279D01*
X022776Y008218D01*
X022734Y008320D01*
X022655Y008399D01*
X022552Y008442D01*
X021614Y008442D01*
X021511Y008399D01*
X021432Y008320D01*
X021390Y008131D02*
X015776Y008131D01*
X015776Y007972D02*
X021390Y007972D01*
X021390Y007814D02*
X015776Y007814D01*
X015776Y007655D02*
X021390Y007655D01*
X021390Y007497D02*
X015776Y007497D01*
X015776Y007338D02*
X021390Y007338D01*
X021431Y007180D02*
X015735Y007180D01*
X020316Y009399D02*
X029118Y009399D01*
X029091Y009557D02*
X020374Y009557D01*
X022747Y008289D02*
X028419Y008289D01*
X028390Y008131D02*
X022776Y008131D01*
X022776Y007972D02*
X028390Y007972D01*
X028390Y007814D02*
X022776Y007814D01*
X022776Y007655D02*
X028390Y007655D01*
X028390Y007497D02*
X022776Y007497D01*
X022776Y007338D02*
X028390Y007338D01*
X028431Y007180D02*
X022735Y007180D01*
X029751Y009082D02*
X029791Y009082D01*
X029791Y009240D02*
X029751Y009240D01*
X029751Y009399D02*
X029791Y009399D01*
X029791Y009557D02*
X029751Y009557D01*
X029751Y009874D02*
X029791Y009874D01*
X029791Y010033D02*
X029751Y010033D01*
X029751Y010191D02*
X029791Y010191D01*
X029791Y010350D02*
X029751Y010350D01*
X038221Y017213D02*
X038556Y017075D01*
X038918Y017075D01*
X039252Y017213D01*
X039508Y017469D01*
X039647Y017804D01*
X039647Y018166D01*
X039508Y018500D01*
X039252Y018756D01*
X038918Y018895D01*
X038556Y018895D01*
X038221Y018756D01*
X037965Y018500D01*
X037827Y018166D01*
X037827Y017804D01*
X037965Y017469D01*
X038221Y017213D01*
X038337Y017165D02*
X017568Y017165D01*
X017568Y017007D02*
X040082Y017007D01*
X040082Y017165D02*
X039136Y017165D01*
X039362Y017324D02*
X040083Y017324D01*
X040083Y017482D02*
X039513Y017482D01*
X039579Y017641D02*
X040083Y017641D01*
X040084Y017799D02*
X039645Y017799D01*
X039647Y017958D02*
X040084Y017958D01*
X040085Y018116D02*
X039647Y018116D01*
X039601Y018275D02*
X040085Y018275D01*
X040085Y018433D02*
X039536Y018433D01*
X039416Y018592D02*
X040086Y018592D01*
X040086Y018750D02*
X039258Y018750D01*
X040086Y018909D02*
X032020Y018909D01*
X031965Y018879D02*
X032080Y018941D01*
X032189Y019014D01*
X032290Y019096D01*
X032382Y019189D01*
X032465Y019290D01*
X032538Y019398D01*
X032599Y019514D01*
X032649Y019634D01*
X032687Y019760D01*
X032713Y019888D01*
X032724Y020003D01*
X031476Y020003D01*
X031476Y020163D01*
X032724Y020163D01*
X032713Y020278D01*
X032687Y020407D01*
X032649Y020532D01*
X032599Y020652D01*
X040090Y020652D01*
X040090Y020494D02*
X032661Y020494D01*
X032701Y020335D02*
X034274Y020335D01*
X034267Y020328D02*
X034224Y020225D01*
X034224Y019287D01*
X034267Y019184D01*
X034346Y019106D01*
X034449Y019063D01*
X035387Y019063D01*
X035490Y019106D01*
X035568Y019184D01*
X035611Y019287D01*
X035611Y020225D01*
X035568Y020328D01*
X035490Y020407D01*
X035387Y020450D01*
X034449Y020450D01*
X034346Y020407D01*
X034267Y020328D01*
X034224Y020177D02*
X032723Y020177D01*
X032707Y019860D02*
X034224Y019860D01*
X034224Y020018D02*
X031476Y020018D01*
X031476Y020003D02*
X031476Y018755D01*
X031591Y018766D01*
X031719Y018791D01*
X031844Y018829D01*
X031965Y018879D01*
X032254Y019067D02*
X034439Y019067D01*
X034250Y019226D02*
X032412Y019226D01*
X032528Y019384D02*
X034224Y019384D01*
X034224Y019543D02*
X032611Y019543D01*
X032670Y019701D02*
X034224Y019701D01*
X035397Y019067D02*
X040087Y019067D01*
X040087Y019226D02*
X037634Y019226D01*
X037640Y019232D02*
X037664Y019273D01*
X037676Y019319D01*
X037676Y019699D01*
X037141Y019699D01*
X037141Y019814D01*
X037676Y019814D01*
X037676Y020193D01*
X037664Y020239D01*
X037640Y020280D01*
X037607Y020314D01*
X037566Y020337D01*
X037520Y020350D01*
X037141Y020350D01*
X037141Y019814D01*
X037025Y019814D01*
X037025Y019699D01*
X036490Y019699D01*
X036490Y019319D01*
X036502Y019273D01*
X036526Y019232D01*
X036559Y019199D01*
X036600Y019175D01*
X036646Y019163D01*
X037025Y019163D01*
X037025Y019698D01*
X037141Y019698D01*
X037141Y019163D01*
X037520Y019163D01*
X037566Y019175D01*
X037607Y019199D01*
X037640Y019232D01*
X037676Y019384D02*
X040087Y019384D01*
X040088Y019543D02*
X037676Y019543D01*
X037676Y019860D02*
X040089Y019860D01*
X040089Y020018D02*
X037676Y020018D01*
X037676Y020177D02*
X040089Y020177D01*
X040090Y020335D02*
X037570Y020335D01*
X037141Y020335D02*
X037025Y020335D01*
X037025Y020350D02*
X036646Y020350D01*
X036600Y020337D01*
X036559Y020314D01*
X036526Y020280D01*
X036502Y020239D01*
X036490Y020193D01*
X036490Y019814D01*
X037025Y019814D01*
X037025Y020350D01*
X037025Y020177D02*
X037141Y020177D01*
X037141Y020018D02*
X037025Y020018D01*
X037025Y019860D02*
X037141Y019860D01*
X037141Y019701D02*
X040088Y019701D01*
X040091Y020811D02*
X035541Y020811D01*
X035568Y020838D02*
X035611Y020941D01*
X035611Y021879D01*
X035568Y021982D01*
X035490Y022061D01*
X035387Y022103D01*
X034449Y022103D01*
X034346Y022061D01*
X034267Y021982D01*
X034224Y021879D01*
X034224Y020941D01*
X034267Y020838D01*
X034346Y020759D01*
X034449Y020716D01*
X035387Y020716D01*
X035490Y020759D01*
X035568Y020838D01*
X035611Y020969D02*
X036491Y020969D01*
X036490Y020973D02*
X036502Y020927D01*
X036526Y020886D01*
X036559Y020852D01*
X036600Y020829D01*
X036646Y020816D01*
X037025Y020816D01*
X037025Y021352D01*
X036490Y021352D01*
X036490Y020973D01*
X036490Y021128D02*
X035611Y021128D01*
X035611Y021286D02*
X036490Y021286D01*
X036490Y021468D02*
X036490Y021847D01*
X036502Y021893D01*
X036526Y021934D01*
X036559Y021967D01*
X036600Y021991D01*
X036646Y022003D01*
X037025Y022003D01*
X037025Y021468D01*
X037141Y021468D01*
X037141Y022003D01*
X037520Y022003D01*
X037566Y021991D01*
X037607Y021967D01*
X037640Y021934D01*
X037664Y021893D01*
X037676Y021847D01*
X037676Y021468D01*
X037141Y021468D01*
X037141Y021352D01*
X037676Y021352D01*
X037676Y020973D01*
X037664Y020927D01*
X037640Y020886D01*
X037607Y020852D01*
X037566Y020829D01*
X037520Y020816D01*
X037141Y020816D01*
X037141Y021352D01*
X037025Y021352D01*
X037025Y021468D01*
X036490Y021468D01*
X036490Y021603D02*
X035611Y021603D01*
X035611Y021445D02*
X037025Y021445D01*
X037141Y021445D02*
X040092Y021445D01*
X040093Y021603D02*
X037676Y021603D01*
X037676Y021762D02*
X040093Y021762D01*
X040093Y021920D02*
X037648Y021920D01*
X037141Y021920D02*
X037025Y021920D01*
X037025Y021762D02*
X037141Y021762D01*
X037141Y021603D02*
X037025Y021603D01*
X037025Y021286D02*
X037141Y021286D01*
X037141Y021128D02*
X037025Y021128D01*
X037025Y020969D02*
X037141Y020969D01*
X037675Y020969D02*
X040091Y020969D01*
X040091Y021128D02*
X037676Y021128D01*
X037676Y021286D02*
X040092Y021286D01*
X040094Y022079D02*
X035446Y022079D01*
X035594Y021920D02*
X036518Y021920D01*
X036490Y021762D02*
X035611Y021762D01*
X034389Y022079D02*
X010340Y022079D01*
X010349Y022075D02*
X010136Y022163D01*
X009905Y022163D01*
X009692Y022075D01*
X009529Y021912D01*
X009521Y021892D01*
X009512Y021912D01*
X009349Y022075D01*
X009136Y022163D01*
X008905Y022163D01*
X008692Y022075D01*
X008529Y021912D01*
X008521Y021892D01*
X008512Y021912D01*
X008349Y022075D01*
X008136Y022163D01*
X007905Y022163D01*
X007692Y022075D01*
X007529Y021912D01*
X007441Y021698D01*
X007441Y021468D01*
X007529Y021255D01*
X007692Y021091D01*
X007905Y021003D01*
X008136Y021003D01*
X008349Y021091D01*
X008512Y021255D01*
X008521Y021275D01*
X008529Y021255D01*
X008692Y021091D01*
X008905Y021003D01*
X009136Y021003D01*
X009349Y021091D01*
X009512Y021255D01*
X009521Y021275D01*
X009529Y021255D01*
X009692Y021091D01*
X009905Y021003D01*
X010136Y021003D01*
X010349Y021091D01*
X010512Y021255D01*
X010601Y021468D01*
X010601Y021698D01*
X010512Y021912D01*
X010349Y022075D01*
X010504Y021920D02*
X034241Y021920D01*
X034224Y021762D02*
X010574Y021762D01*
X010601Y021603D02*
X034224Y021603D01*
X034224Y021445D02*
X010591Y021445D01*
X010525Y021286D02*
X030825Y021286D01*
X030826Y021287D02*
X030711Y021225D01*
X030602Y021153D01*
X030501Y021070D01*
X030409Y020977D01*
X030326Y020876D01*
X030253Y020768D01*
X030192Y020652D01*
X007150Y020652D01*
X007656Y021128D02*
X006167Y021128D01*
X006273Y020969D02*
X030402Y020969D01*
X030282Y020811D02*
X006297Y020811D01*
X006008Y021286D02*
X007516Y021286D01*
X007450Y021445D02*
X005850Y021445D01*
X005691Y021603D02*
X007441Y021603D01*
X007467Y021762D02*
X005533Y021762D01*
X004734Y021920D02*
X007537Y021920D01*
X007701Y022079D02*
X004575Y022079D01*
X003966Y022079D02*
X002583Y022079D01*
X002583Y022237D02*
X040094Y022237D01*
X040094Y022396D02*
X039217Y022396D01*
X039252Y022410D02*
X039508Y022666D01*
X039647Y023001D01*
X039647Y023362D01*
X039508Y023697D01*
X039252Y023953D01*
X038918Y024091D01*
X038556Y024091D01*
X038221Y023953D01*
X037965Y023697D01*
X037827Y023362D01*
X037827Y023001D01*
X037965Y022666D01*
X038221Y022410D01*
X038556Y022272D01*
X038918Y022272D01*
X039252Y022410D01*
X039396Y022554D02*
X040095Y022554D01*
X040095Y022713D02*
X039527Y022713D01*
X039593Y022871D02*
X040095Y022871D01*
X040096Y023030D02*
X039647Y023030D01*
X039647Y023188D02*
X040096Y023188D01*
X040097Y023347D02*
X039647Y023347D01*
X039587Y023505D02*
X040097Y023505D01*
X040097Y023664D02*
X039522Y023664D01*
X039383Y023822D02*
X040098Y023822D01*
X040098Y023981D02*
X039185Y023981D01*
X038288Y023981D02*
X036776Y023981D01*
X036776Y024139D02*
X040098Y024139D01*
X040099Y024298D02*
X036776Y024298D01*
X036776Y024387D02*
X036734Y024490D01*
X036655Y024568D01*
X036552Y024611D01*
X035614Y024611D01*
X035511Y024568D01*
X035432Y024490D01*
X035390Y024387D01*
X035390Y023449D01*
X035432Y023346D01*
X035511Y023267D01*
X035614Y023224D01*
X036552Y023224D01*
X036655Y023267D01*
X036734Y023346D01*
X036776Y023449D01*
X036776Y024387D01*
X036748Y024456D02*
X040099Y024456D01*
X040099Y024615D02*
X004226Y024615D01*
X004226Y024566D02*
X004226Y024726D01*
X005474Y024726D01*
X005463Y024841D01*
X005437Y024969D01*
X005399Y025094D01*
X005349Y025215D01*
X005288Y025330D01*
X005215Y025439D01*
X005132Y025540D01*
X005040Y025632D01*
X004939Y025715D01*
X004830Y025788D01*
X004715Y025849D01*
X004594Y025899D01*
X004469Y025937D01*
X004341Y025963D01*
X004226Y025974D01*
X004226Y024726D01*
X004066Y024726D01*
X004066Y025974D01*
X003950Y025963D01*
X003822Y025937D01*
X003697Y025899D01*
X003576Y025849D01*
X003461Y025788D01*
X003352Y025715D01*
X003251Y025632D01*
X003159Y025540D01*
X003076Y025439D01*
X003003Y025330D01*
X002942Y025215D01*
X002892Y025094D01*
X002854Y024969D01*
X002828Y024841D01*
X002817Y024726D01*
X004066Y024726D01*
X004066Y024566D01*
X004226Y024566D01*
X005474Y024566D01*
X005463Y024450D01*
X005437Y024322D01*
X005399Y024197D01*
X005349Y024076D01*
X005288Y023961D01*
X005215Y023852D01*
X005132Y023751D01*
X005040Y023659D01*
X004939Y023576D01*
X004830Y023503D01*
X004715Y023442D01*
X004594Y023392D01*
X004469Y023354D01*
X004341Y023328D01*
X004226Y023317D01*
X004226Y024566D01*
X004226Y024456D02*
X004066Y024456D01*
X004066Y024566D02*
X004066Y023317D01*
X003950Y023328D01*
X003822Y023354D01*
X003697Y023392D01*
X003576Y023442D01*
X003461Y023503D01*
X003352Y023576D01*
X003251Y023659D01*
X003159Y023751D01*
X003076Y023852D01*
X003003Y023961D01*
X002942Y024076D01*
X002892Y024197D01*
X002854Y024322D01*
X002828Y024450D01*
X002817Y024566D01*
X004066Y024566D01*
X004066Y024615D02*
X002583Y024615D01*
X002583Y024773D02*
X002822Y024773D01*
X002846Y024932D02*
X002583Y024932D01*
X002583Y025090D02*
X002891Y025090D01*
X002960Y025249D02*
X002583Y025249D01*
X002583Y025407D02*
X003055Y025407D01*
X003185Y025566D02*
X002583Y025566D01*
X002583Y025724D02*
X003366Y025724D01*
X003657Y025883D02*
X002583Y025883D01*
X002583Y026041D02*
X008025Y026041D01*
X008025Y026025D02*
X007490Y026025D01*
X007490Y025646D01*
X007502Y025600D01*
X007526Y025559D01*
X007559Y025526D01*
X007600Y025502D01*
X007646Y025490D01*
X008025Y025490D01*
X008025Y026025D01*
X008025Y026141D01*
X007490Y026141D01*
X007490Y026520D01*
X007502Y026566D01*
X007526Y026607D01*
X007559Y026640D01*
X007600Y026664D01*
X007646Y026676D01*
X008025Y026676D01*
X008025Y026141D01*
X008141Y026141D01*
X008141Y026676D01*
X008520Y026676D01*
X008566Y026664D01*
X008607Y026640D01*
X008640Y026607D01*
X008664Y026566D01*
X008676Y026520D01*
X008676Y026141D01*
X008141Y026141D01*
X008141Y026025D01*
X008141Y025490D01*
X008520Y025490D01*
X008566Y025502D01*
X008607Y025526D01*
X008640Y025559D01*
X008664Y025600D01*
X008676Y025646D01*
X008676Y026025D01*
X008141Y026025D01*
X008025Y026025D01*
X008141Y026041D02*
X015025Y026041D01*
X015025Y026025D02*
X014490Y026025D01*
X014490Y025646D01*
X014502Y025600D01*
X014526Y025559D01*
X014559Y025526D01*
X014600Y025502D01*
X014646Y025490D01*
X015025Y025490D01*
X015025Y026025D01*
X015025Y026141D01*
X014490Y026141D01*
X014490Y026520D01*
X014502Y026566D01*
X014526Y026607D01*
X014559Y026640D01*
X014600Y026664D01*
X014646Y026676D01*
X015025Y026676D01*
X015025Y026141D01*
X015141Y026141D01*
X015141Y026676D01*
X015520Y026676D01*
X015566Y026664D01*
X015607Y026640D01*
X015640Y026607D01*
X015664Y026566D01*
X015676Y026520D01*
X015676Y026141D01*
X015141Y026141D01*
X015141Y026025D01*
X015141Y025490D01*
X015520Y025490D01*
X015566Y025502D01*
X015607Y025526D01*
X015640Y025559D01*
X015664Y025600D01*
X015676Y025646D01*
X015676Y026025D01*
X015141Y026025D01*
X015025Y026025D01*
X015141Y026041D02*
X022025Y026041D01*
X022025Y026025D02*
X021490Y026025D01*
X021490Y025646D01*
X021502Y025600D01*
X021526Y025559D01*
X021559Y025526D01*
X021600Y025502D01*
X021646Y025490D01*
X022025Y025490D01*
X022025Y026025D01*
X022025Y026141D01*
X021490Y026141D01*
X021490Y026520D01*
X021502Y026566D01*
X021526Y026607D01*
X021559Y026640D01*
X021600Y026664D01*
X021646Y026676D01*
X022025Y026676D01*
X022025Y026141D01*
X022141Y026141D01*
X022141Y026676D01*
X022520Y026676D01*
X022566Y026664D01*
X022607Y026640D01*
X022640Y026607D01*
X022664Y026566D01*
X022676Y026520D01*
X022676Y026141D01*
X022141Y026141D01*
X022141Y026025D01*
X022141Y025490D01*
X022520Y025490D01*
X022566Y025502D01*
X022607Y025526D01*
X022640Y025559D01*
X022664Y025600D01*
X022676Y025646D01*
X022676Y026025D01*
X022141Y026025D01*
X022025Y026025D01*
X022141Y026041D02*
X029025Y026041D01*
X029025Y026025D02*
X028490Y026025D01*
X028490Y025646D01*
X028502Y025600D01*
X028526Y025559D01*
X028559Y025526D01*
X028600Y025502D01*
X028646Y025490D01*
X029025Y025490D01*
X029025Y026025D01*
X029025Y026141D01*
X028490Y026141D01*
X028490Y026520D01*
X028502Y026566D01*
X028526Y026607D01*
X028559Y026640D01*
X028600Y026664D01*
X028646Y026676D01*
X029025Y026676D01*
X029025Y026141D01*
X029141Y026141D01*
X029141Y026676D01*
X029520Y026676D01*
X029566Y026664D01*
X029607Y026640D01*
X029640Y026607D01*
X029664Y026566D01*
X029676Y026520D01*
X029676Y026141D01*
X029141Y026141D01*
X029141Y026025D01*
X029141Y025490D01*
X029520Y025490D01*
X029566Y025502D01*
X029607Y025526D01*
X029640Y025559D01*
X029664Y025600D01*
X029676Y025646D01*
X029676Y026025D01*
X029141Y026025D01*
X029025Y026025D01*
X029141Y026041D02*
X036025Y026041D01*
X036025Y026025D02*
X035490Y026025D01*
X035490Y025646D01*
X035502Y025600D01*
X035526Y025559D01*
X035559Y025526D01*
X035600Y025502D01*
X035646Y025490D01*
X036025Y025490D01*
X036025Y026025D01*
X036025Y026141D01*
X035490Y026141D01*
X035490Y026520D01*
X035502Y026566D01*
X035526Y026607D01*
X035559Y026640D01*
X035600Y026664D01*
X035646Y026676D01*
X036025Y026676D01*
X036025Y026141D01*
X036141Y026141D01*
X036141Y026676D01*
X036520Y026676D01*
X036566Y026664D01*
X036607Y026640D01*
X036640Y026607D01*
X036664Y026566D01*
X036676Y026520D01*
X036676Y026141D01*
X036141Y026141D01*
X036141Y026025D01*
X036141Y025490D01*
X036520Y025490D01*
X036566Y025502D01*
X036607Y025526D01*
X036640Y025559D01*
X036664Y025600D01*
X036676Y025646D01*
X036676Y026025D01*
X036141Y026025D01*
X036025Y026025D01*
X036141Y026041D02*
X040103Y026041D01*
X040102Y025883D02*
X036676Y025883D01*
X036676Y025724D02*
X040102Y025724D01*
X040102Y025566D02*
X036644Y025566D01*
X036141Y025566D02*
X036025Y025566D01*
X036025Y025724D02*
X036141Y025724D01*
X036141Y025883D02*
X036025Y025883D01*
X036025Y026200D02*
X036141Y026200D01*
X036141Y026358D02*
X036025Y026358D01*
X036025Y026517D02*
X036141Y026517D01*
X036141Y026675D02*
X036025Y026675D01*
X035641Y026675D02*
X029525Y026675D01*
X029676Y026517D02*
X035490Y026517D01*
X035490Y026358D02*
X029676Y026358D01*
X029676Y026200D02*
X035490Y026200D01*
X035490Y025883D02*
X029676Y025883D01*
X029676Y025724D02*
X035490Y025724D01*
X035522Y025566D02*
X029644Y025566D01*
X029141Y025566D02*
X029025Y025566D01*
X029025Y025724D02*
X029141Y025724D01*
X029141Y025883D02*
X029025Y025883D01*
X029025Y026200D02*
X029141Y026200D01*
X029141Y026358D02*
X029025Y026358D01*
X029025Y026517D02*
X029141Y026517D01*
X029141Y026675D02*
X029025Y026675D01*
X028641Y026675D02*
X022525Y026675D01*
X022676Y026517D02*
X028490Y026517D01*
X028490Y026358D02*
X022676Y026358D01*
X022676Y026200D02*
X028490Y026200D01*
X028490Y025883D02*
X022676Y025883D01*
X022676Y025724D02*
X028490Y025724D01*
X028522Y025566D02*
X022644Y025566D01*
X022141Y025566D02*
X022025Y025566D01*
X022025Y025724D02*
X022141Y025724D01*
X022141Y025883D02*
X022025Y025883D01*
X022025Y026200D02*
X022141Y026200D01*
X022141Y026358D02*
X022025Y026358D01*
X022025Y026517D02*
X022141Y026517D01*
X022141Y026675D02*
X022025Y026675D01*
X021641Y026675D02*
X015525Y026675D01*
X015676Y026517D02*
X021490Y026517D01*
X021490Y026358D02*
X015676Y026358D01*
X015676Y026200D02*
X021490Y026200D01*
X021490Y025883D02*
X015676Y025883D01*
X015676Y025724D02*
X021490Y025724D01*
X021522Y025566D02*
X015644Y025566D01*
X015141Y025566D02*
X015025Y025566D01*
X015025Y025724D02*
X015141Y025724D01*
X015141Y025883D02*
X015025Y025883D01*
X015025Y026200D02*
X015141Y026200D01*
X015141Y026358D02*
X015025Y026358D01*
X015025Y026517D02*
X015141Y026517D01*
X015141Y026675D02*
X015025Y026675D01*
X014641Y026675D02*
X008525Y026675D01*
X008676Y026517D02*
X014490Y026517D01*
X014490Y026358D02*
X008676Y026358D01*
X008676Y026200D02*
X014490Y026200D01*
X014490Y025883D02*
X008676Y025883D01*
X008676Y025724D02*
X014490Y025724D01*
X014522Y025566D02*
X008644Y025566D01*
X008141Y025566D02*
X008025Y025566D01*
X008025Y025724D02*
X008141Y025724D01*
X008141Y025883D02*
X008025Y025883D01*
X008025Y026200D02*
X008141Y026200D01*
X008141Y026358D02*
X008025Y026358D01*
X008025Y026517D02*
X008141Y026517D01*
X008141Y026675D02*
X008025Y026675D01*
X007641Y026675D02*
X002583Y026675D01*
X002583Y026517D02*
X007490Y026517D01*
X007490Y026358D02*
X002583Y026358D01*
X002583Y026200D02*
X007490Y026200D01*
X007490Y025883D02*
X004635Y025883D01*
X004925Y025724D02*
X007490Y025724D01*
X007522Y025566D02*
X005106Y025566D01*
X005236Y025407D02*
X040101Y025407D01*
X040101Y025249D02*
X005331Y025249D01*
X005401Y025090D02*
X040101Y025090D01*
X040100Y024932D02*
X005445Y024932D01*
X005469Y024773D02*
X040100Y024773D01*
X040103Y026200D02*
X036676Y026200D01*
X036676Y026358D02*
X040103Y026358D01*
X040104Y026517D02*
X036676Y026517D01*
X036525Y026675D02*
X040104Y026675D01*
X040105Y026834D02*
X038052Y026834D01*
X038036Y026827D02*
X038370Y026965D01*
X038626Y027221D01*
X038765Y027556D01*
X038765Y027918D01*
X038626Y028252D01*
X038370Y028508D01*
X038036Y028647D01*
X037674Y028647D01*
X037339Y028508D01*
X037083Y028252D01*
X036945Y027918D01*
X036945Y027556D01*
X037083Y027221D01*
X037339Y026965D01*
X037674Y026827D01*
X038036Y026827D01*
X037657Y026834D02*
X034509Y026834D01*
X034492Y026827D02*
X034827Y026965D01*
X035083Y027221D01*
X035221Y027556D01*
X035221Y027918D01*
X035083Y028252D01*
X034827Y028508D01*
X034492Y028647D01*
X034130Y028647D01*
X033796Y028508D01*
X033540Y028252D01*
X033401Y027918D01*
X033401Y027556D01*
X033540Y027221D01*
X033796Y026965D01*
X034130Y026827D01*
X034492Y026827D01*
X034114Y026834D02*
X031052Y026834D01*
X031036Y026827D02*
X031370Y026965D01*
X031626Y027221D01*
X031765Y027556D01*
X031765Y027918D01*
X031626Y028252D01*
X031370Y028508D01*
X031036Y028647D01*
X030674Y028647D01*
X030339Y028508D01*
X030083Y028252D01*
X029945Y027918D01*
X029945Y027556D01*
X030083Y027221D01*
X030339Y026965D01*
X030674Y026827D01*
X031036Y026827D01*
X030657Y026834D02*
X027509Y026834D01*
X027492Y026827D02*
X027827Y026965D01*
X028083Y027221D01*
X028221Y027556D01*
X028221Y027918D01*
X028083Y028252D01*
X027827Y028508D01*
X027492Y028647D01*
X027130Y028647D01*
X026796Y028508D01*
X026540Y028252D01*
X026401Y027918D01*
X026401Y027556D01*
X026540Y027221D01*
X026796Y026965D01*
X027130Y026827D01*
X027492Y026827D01*
X027114Y026834D02*
X024052Y026834D01*
X024036Y026827D02*
X024370Y026965D01*
X024626Y027221D01*
X024765Y027556D01*
X024765Y027918D01*
X024626Y028252D01*
X024370Y028508D01*
X024036Y028647D01*
X023674Y028647D01*
X023339Y028508D01*
X023083Y028252D01*
X022945Y027918D01*
X022945Y027556D01*
X023083Y027221D01*
X023339Y026965D01*
X023674Y026827D01*
X024036Y026827D01*
X023657Y026834D02*
X020509Y026834D01*
X020492Y026827D02*
X020827Y026965D01*
X021083Y027221D01*
X021221Y027556D01*
X021221Y027918D01*
X021083Y028252D01*
X020827Y028508D01*
X020492Y028647D01*
X020130Y028647D01*
X019796Y028508D01*
X019540Y028252D01*
X019401Y027918D01*
X019401Y027556D01*
X019540Y027221D01*
X019796Y026965D01*
X020130Y026827D01*
X020492Y026827D01*
X020114Y026834D02*
X017052Y026834D01*
X017036Y026827D02*
X017370Y026965D01*
X017626Y027221D01*
X017765Y027556D01*
X017765Y027918D01*
X017626Y028252D01*
X017370Y028508D01*
X017036Y028647D01*
X016674Y028647D01*
X016339Y028508D01*
X016083Y028252D01*
X015945Y027918D01*
X015945Y027556D01*
X016083Y027221D01*
X016339Y026965D01*
X016674Y026827D01*
X017036Y026827D01*
X016657Y026834D02*
X013509Y026834D01*
X013492Y026827D02*
X013827Y026965D01*
X014083Y027221D01*
X014221Y027556D01*
X014221Y027918D01*
X014083Y028252D01*
X013827Y028508D01*
X013492Y028647D01*
X013130Y028647D01*
X012796Y028508D01*
X012540Y028252D01*
X012401Y027918D01*
X012401Y027556D01*
X012540Y027221D01*
X012796Y026965D01*
X013130Y026827D01*
X013492Y026827D01*
X013114Y026834D02*
X010052Y026834D01*
X010036Y026827D02*
X010370Y026965D01*
X010626Y027221D01*
X010765Y027556D01*
X010765Y027918D01*
X010626Y028252D01*
X010370Y028508D01*
X010036Y028647D01*
X009674Y028647D01*
X009339Y028508D01*
X009083Y028252D01*
X008945Y027918D01*
X008945Y027556D01*
X009083Y027221D01*
X009339Y026965D01*
X009674Y026827D01*
X010036Y026827D01*
X009657Y026834D02*
X006509Y026834D01*
X006492Y026827D02*
X006827Y026965D01*
X007083Y027221D01*
X007221Y027556D01*
X007221Y027918D01*
X007083Y028252D01*
X006827Y028508D01*
X006492Y028647D01*
X006130Y028647D01*
X005796Y028508D01*
X005540Y028252D01*
X005401Y027918D01*
X005401Y027556D01*
X005540Y027221D01*
X005796Y026965D01*
X006130Y026827D01*
X006492Y026827D01*
X006114Y026834D02*
X002583Y026834D01*
X002583Y026992D02*
X005769Y026992D01*
X005611Y027151D02*
X004576Y027151D01*
X004461Y027036D02*
X004818Y027393D01*
X004818Y027898D01*
X004461Y028256D01*
X003955Y028256D01*
X003637Y027938D01*
X003419Y028156D01*
X003208Y028156D01*
X002997Y028156D01*
X002698Y027857D01*
X002698Y027646D01*
X003208Y027646D01*
X003208Y028156D01*
X003208Y027646D01*
X003208Y027646D01*
X003208Y027646D01*
X002698Y027646D01*
X002698Y027434D01*
X002997Y027136D01*
X003208Y027136D01*
X003208Y027646D01*
X003208Y027646D01*
X003208Y027136D01*
X003419Y027136D01*
X003637Y027354D01*
X003955Y027036D01*
X004461Y027036D01*
X004734Y027309D02*
X005504Y027309D01*
X005438Y027468D02*
X004818Y027468D01*
X004818Y027626D02*
X005401Y027626D01*
X005401Y027785D02*
X004818Y027785D01*
X004773Y027943D02*
X005412Y027943D01*
X005478Y028102D02*
X004615Y028102D01*
X003801Y028102D02*
X003473Y028102D01*
X003632Y027943D02*
X003643Y027943D01*
X003208Y027943D02*
X003208Y027943D01*
X003208Y027785D02*
X003208Y027785D01*
X003208Y027626D02*
X003208Y027626D01*
X003208Y027468D02*
X003208Y027468D01*
X003208Y027309D02*
X003208Y027309D01*
X003208Y027151D02*
X003208Y027151D01*
X002982Y027151D02*
X002583Y027151D01*
X002583Y027309D02*
X002823Y027309D01*
X002698Y027468D02*
X002583Y027468D01*
X002583Y027626D02*
X002698Y027626D01*
X002698Y027785D02*
X002583Y027785D01*
X002583Y027943D02*
X002784Y027943D01*
X002943Y028102D02*
X002583Y028102D01*
X002583Y028260D02*
X005548Y028260D01*
X005707Y028419D02*
X002583Y028419D01*
X002583Y028577D02*
X005963Y028577D01*
X006660Y028577D02*
X009506Y028577D01*
X009250Y028419D02*
X006916Y028419D01*
X007075Y028260D02*
X009091Y028260D01*
X009021Y028102D02*
X007145Y028102D01*
X007211Y027943D02*
X008955Y027943D01*
X008945Y027785D02*
X007221Y027785D01*
X007221Y027626D02*
X008945Y027626D01*
X008981Y027468D02*
X007185Y027468D01*
X007119Y027309D02*
X009047Y027309D01*
X009154Y027151D02*
X007012Y027151D01*
X006854Y026992D02*
X009312Y026992D01*
X010397Y026992D02*
X012769Y026992D01*
X012611Y027151D02*
X010556Y027151D01*
X010663Y027309D02*
X012504Y027309D01*
X012438Y027468D02*
X010728Y027468D01*
X010765Y027626D02*
X012401Y027626D01*
X012401Y027785D02*
X010765Y027785D01*
X010754Y027943D02*
X012412Y027943D01*
X012478Y028102D02*
X010688Y028102D01*
X010618Y028260D02*
X012548Y028260D01*
X012707Y028419D02*
X010460Y028419D01*
X010203Y028577D02*
X012963Y028577D01*
X013660Y028577D02*
X016506Y028577D01*
X016250Y028419D02*
X013916Y028419D01*
X014075Y028260D02*
X016091Y028260D01*
X016021Y028102D02*
X014145Y028102D01*
X014211Y027943D02*
X015955Y027943D01*
X015945Y027785D02*
X014221Y027785D01*
X014221Y027626D02*
X015945Y027626D01*
X015981Y027468D02*
X014185Y027468D01*
X014119Y027309D02*
X016047Y027309D01*
X016154Y027151D02*
X014012Y027151D01*
X013854Y026992D02*
X016312Y026992D01*
X017397Y026992D02*
X019769Y026992D01*
X019611Y027151D02*
X017556Y027151D01*
X017663Y027309D02*
X019504Y027309D01*
X019438Y027468D02*
X017728Y027468D01*
X017765Y027626D02*
X019401Y027626D01*
X019401Y027785D02*
X017765Y027785D01*
X017754Y027943D02*
X019412Y027943D01*
X019478Y028102D02*
X017688Y028102D01*
X017618Y028260D02*
X019548Y028260D01*
X019707Y028419D02*
X017460Y028419D01*
X017203Y028577D02*
X019963Y028577D01*
X020660Y028577D02*
X023506Y028577D01*
X023250Y028419D02*
X020916Y028419D01*
X021075Y028260D02*
X023091Y028260D01*
X023021Y028102D02*
X021145Y028102D01*
X021211Y027943D02*
X022955Y027943D01*
X022945Y027785D02*
X021221Y027785D01*
X021221Y027626D02*
X022945Y027626D01*
X022981Y027468D02*
X021185Y027468D01*
X021119Y027309D02*
X023047Y027309D01*
X023154Y027151D02*
X021012Y027151D01*
X020854Y026992D02*
X023312Y026992D01*
X024397Y026992D02*
X026769Y026992D01*
X026611Y027151D02*
X024556Y027151D01*
X024663Y027309D02*
X026504Y027309D01*
X026438Y027468D02*
X024728Y027468D01*
X024765Y027626D02*
X026401Y027626D01*
X026401Y027785D02*
X024765Y027785D01*
X024754Y027943D02*
X026412Y027943D01*
X026478Y028102D02*
X024688Y028102D01*
X024618Y028260D02*
X026548Y028260D01*
X026707Y028419D02*
X024460Y028419D01*
X024203Y028577D02*
X026963Y028577D01*
X027660Y028577D02*
X030506Y028577D01*
X030250Y028419D02*
X027916Y028419D01*
X028075Y028260D02*
X030091Y028260D01*
X030021Y028102D02*
X028145Y028102D01*
X028211Y027943D02*
X029955Y027943D01*
X029945Y027785D02*
X028221Y027785D01*
X028221Y027626D02*
X029945Y027626D01*
X029981Y027468D02*
X028185Y027468D01*
X028119Y027309D02*
X030047Y027309D01*
X030154Y027151D02*
X028012Y027151D01*
X027854Y026992D02*
X030312Y026992D01*
X031397Y026992D02*
X033769Y026992D01*
X033611Y027151D02*
X031556Y027151D01*
X031663Y027309D02*
X033504Y027309D01*
X033438Y027468D02*
X031728Y027468D01*
X031765Y027626D02*
X033401Y027626D01*
X033401Y027785D02*
X031765Y027785D01*
X031754Y027943D02*
X033412Y027943D01*
X033478Y028102D02*
X031688Y028102D01*
X031618Y028260D02*
X033548Y028260D01*
X033707Y028419D02*
X031460Y028419D01*
X031203Y028577D02*
X033963Y028577D01*
X034660Y028577D02*
X037506Y028577D01*
X037250Y028419D02*
X034916Y028419D01*
X035075Y028260D02*
X037091Y028260D01*
X037021Y028102D02*
X035145Y028102D01*
X035211Y027943D02*
X036955Y027943D01*
X036945Y027785D02*
X035221Y027785D01*
X035221Y027626D02*
X036945Y027626D01*
X036981Y027468D02*
X035185Y027468D01*
X035119Y027309D02*
X037047Y027309D01*
X037154Y027151D02*
X035012Y027151D01*
X034854Y026992D02*
X037312Y026992D01*
X038397Y026992D02*
X040105Y026992D01*
X040105Y027151D02*
X038556Y027151D01*
X038663Y027309D02*
X040106Y027309D01*
X040106Y027468D02*
X038728Y027468D01*
X038765Y027626D02*
X040106Y027626D01*
X040107Y027785D02*
X038765Y027785D01*
X038754Y027943D02*
X040107Y027943D01*
X040107Y028102D02*
X038688Y028102D01*
X038618Y028260D02*
X040108Y028260D01*
X040108Y028419D02*
X038460Y028419D01*
X038203Y028577D02*
X040109Y028577D01*
X040109Y028736D02*
X002583Y028736D01*
X002583Y028894D02*
X040109Y028894D01*
X035418Y024456D02*
X029748Y024456D01*
X029734Y024490D02*
X029655Y024568D01*
X029552Y024611D01*
X028614Y024611D01*
X028511Y024568D01*
X028432Y024490D01*
X028390Y024387D01*
X028390Y023449D01*
X028432Y023346D01*
X028511Y023267D01*
X028614Y023224D01*
X029552Y023224D01*
X029655Y023267D01*
X029734Y023346D01*
X029776Y023449D01*
X029776Y024387D01*
X029734Y024490D01*
X029776Y024298D02*
X035390Y024298D01*
X035390Y024139D02*
X029776Y024139D01*
X029776Y023981D02*
X035390Y023981D01*
X035390Y023822D02*
X029776Y023822D01*
X029776Y023664D02*
X035390Y023664D01*
X035390Y023505D02*
X029776Y023505D01*
X029734Y023347D02*
X035432Y023347D01*
X036734Y023347D02*
X037827Y023347D01*
X037827Y023188D02*
X002583Y023188D01*
X002583Y023030D02*
X037827Y023030D01*
X037880Y022871D02*
X002583Y022871D01*
X002583Y022713D02*
X037946Y022713D01*
X038077Y022554D02*
X002583Y022554D01*
X002583Y022396D02*
X038256Y022396D01*
X037886Y023505D02*
X036776Y023505D01*
X036776Y023664D02*
X037951Y023664D01*
X038090Y023822D02*
X036776Y023822D01*
X034224Y021286D02*
X031966Y021286D01*
X031965Y021287D02*
X031844Y021337D01*
X031719Y021375D01*
X031591Y021400D01*
X031476Y021412D01*
X031476Y020163D01*
X031316Y020163D01*
X031316Y021412D01*
X031200Y021400D01*
X031072Y021375D01*
X030947Y021337D01*
X030826Y021287D01*
X030572Y021128D02*
X010385Y021128D01*
X009656Y021128D02*
X009385Y021128D01*
X008656Y021128D02*
X008385Y021128D01*
X008504Y021920D02*
X008537Y021920D01*
X008701Y022079D02*
X008340Y022079D01*
X009340Y022079D02*
X009701Y022079D01*
X009537Y021920D02*
X009504Y021920D01*
X008655Y023267D02*
X008734Y023346D01*
X008776Y023449D01*
X008776Y024387D01*
X008734Y024490D01*
X008655Y024568D01*
X008552Y024611D01*
X007614Y024611D01*
X007511Y024568D01*
X007432Y024490D01*
X007390Y024387D01*
X007390Y023449D01*
X007432Y023346D01*
X007511Y023267D01*
X007614Y023224D01*
X008552Y023224D01*
X008655Y023267D01*
X008734Y023347D02*
X014432Y023347D01*
X014432Y023346D02*
X014511Y023267D01*
X014614Y023224D01*
X015552Y023224D01*
X015655Y023267D01*
X015734Y023346D01*
X015776Y023449D01*
X015776Y024387D01*
X015734Y024490D01*
X015655Y024568D01*
X015552Y024611D01*
X014614Y024611D01*
X014511Y024568D01*
X014432Y024490D01*
X014390Y024387D01*
X014390Y023449D01*
X014432Y023346D01*
X014390Y023505D02*
X008776Y023505D01*
X008776Y023664D02*
X014390Y023664D01*
X014390Y023822D02*
X008776Y023822D01*
X008776Y023981D02*
X014390Y023981D01*
X014390Y024139D02*
X008776Y024139D01*
X008776Y024298D02*
X014390Y024298D01*
X014418Y024456D02*
X008748Y024456D01*
X007418Y024456D02*
X005463Y024456D01*
X005430Y024298D02*
X007390Y024298D01*
X007390Y024139D02*
X005375Y024139D01*
X005298Y023981D02*
X007390Y023981D01*
X007390Y023822D02*
X005190Y023822D01*
X005045Y023664D02*
X007390Y023664D01*
X007390Y023505D02*
X004833Y023505D01*
X004433Y023347D02*
X007432Y023347D01*
X005194Y020969D02*
X004582Y020969D01*
X003959Y020969D02*
X002583Y020969D01*
X002583Y020811D02*
X005352Y020811D01*
X005391Y020652D02*
X002583Y020652D01*
X002583Y020494D02*
X005361Y020494D01*
X005361Y020335D02*
X002583Y020335D01*
X002583Y020177D02*
X005361Y020177D01*
X005361Y020018D02*
X002583Y020018D01*
X002583Y019860D02*
X005361Y019860D01*
X005437Y019701D02*
X002583Y019701D01*
X002583Y019543D02*
X016239Y019543D01*
X016941Y019860D02*
X030084Y019860D01*
X030078Y019888D02*
X030104Y019760D01*
X030142Y019634D01*
X030192Y019514D01*
X030253Y019398D01*
X030326Y019290D01*
X030409Y019189D01*
X030501Y019096D01*
X030602Y019014D01*
X030711Y018941D01*
X030826Y018879D01*
X030947Y018829D01*
X031072Y018791D01*
X031200Y018766D01*
X031316Y018755D01*
X031316Y020003D01*
X031476Y020003D01*
X031476Y019860D02*
X031316Y019860D01*
X031316Y020003D02*
X030067Y020003D01*
X030078Y019888D01*
X030122Y019701D02*
X017099Y019701D01*
X017258Y019543D02*
X030180Y019543D01*
X030263Y019384D02*
X017416Y019384D01*
X017539Y019226D02*
X030379Y019226D01*
X030537Y019067D02*
X017568Y019067D01*
X017568Y018909D02*
X030771Y018909D01*
X031316Y018909D02*
X031476Y018909D01*
X031476Y019067D02*
X031316Y019067D01*
X031316Y019226D02*
X031476Y019226D01*
X031476Y019384D02*
X031316Y019384D01*
X031316Y019543D02*
X031476Y019543D01*
X031476Y019701D02*
X031316Y019701D01*
X031316Y020003D02*
X031316Y020163D01*
X030067Y020163D01*
X030078Y020278D01*
X030104Y020407D01*
X030142Y020532D01*
X030192Y020652D01*
X030130Y020494D02*
X016307Y020494D01*
X016465Y020335D02*
X030090Y020335D01*
X030068Y020177D02*
X016624Y020177D01*
X016782Y020018D02*
X031316Y020018D01*
X031316Y020177D02*
X031476Y020177D01*
X031476Y020335D02*
X031316Y020335D01*
X031316Y020494D02*
X031476Y020494D01*
X031476Y020652D02*
X031316Y020652D01*
X031316Y020811D02*
X031476Y020811D01*
X031476Y020969D02*
X031316Y020969D01*
X031316Y021128D02*
X031476Y021128D01*
X031476Y021286D02*
X031316Y021286D01*
X031965Y021287D02*
X032080Y021225D01*
X032189Y021153D01*
X032290Y021070D01*
X032382Y020977D01*
X032465Y020876D01*
X032538Y020768D01*
X032599Y020652D01*
X032509Y020811D02*
X034294Y020811D01*
X034224Y020969D02*
X032389Y020969D01*
X032219Y021128D02*
X034224Y021128D01*
X035562Y020335D02*
X036596Y020335D01*
X036490Y020177D02*
X035611Y020177D01*
X035611Y020018D02*
X036490Y020018D01*
X036490Y019860D02*
X035611Y019860D01*
X035611Y019701D02*
X037025Y019701D01*
X037025Y019543D02*
X037141Y019543D01*
X037141Y019384D02*
X037025Y019384D01*
X037025Y019226D02*
X037141Y019226D01*
X036532Y019226D02*
X035586Y019226D01*
X035611Y019384D02*
X036490Y019384D01*
X036490Y019543D02*
X035611Y019543D01*
X037937Y018433D02*
X017568Y018433D01*
X017568Y018275D02*
X037872Y018275D01*
X037827Y018116D02*
X017568Y018116D01*
X017568Y017958D02*
X037827Y017958D01*
X037829Y017799D02*
X017568Y017799D01*
X017568Y017641D02*
X037894Y017641D01*
X037960Y017482D02*
X017568Y017482D01*
X017568Y017324D02*
X038111Y017324D01*
X038057Y018592D02*
X017568Y018592D01*
X017568Y018750D02*
X038215Y018750D01*
X040082Y016848D02*
X017568Y016848D01*
X017568Y016690D02*
X040081Y016690D01*
X040081Y016531D02*
X017568Y016531D01*
X017568Y016373D02*
X040081Y016373D01*
X040080Y016214D02*
X017568Y016214D01*
X017568Y016056D02*
X040080Y016056D01*
X028432Y023347D02*
X022734Y023347D01*
X022734Y023346D02*
X022776Y023449D01*
X022776Y024387D01*
X022734Y024490D01*
X022655Y024568D01*
X022552Y024611D01*
X021614Y024611D01*
X021511Y024568D01*
X021432Y024490D01*
X021390Y024387D01*
X021390Y023449D01*
X021432Y023346D01*
X021511Y023267D01*
X021614Y023224D01*
X022552Y023224D01*
X022655Y023267D01*
X022734Y023346D01*
X022776Y023505D02*
X028390Y023505D01*
X028390Y023664D02*
X022776Y023664D01*
X022776Y023822D02*
X028390Y023822D01*
X028390Y023981D02*
X022776Y023981D01*
X022776Y024139D02*
X028390Y024139D01*
X028390Y024298D02*
X022776Y024298D01*
X022748Y024456D02*
X028418Y024456D01*
X021418Y024456D02*
X015748Y024456D01*
X015776Y024298D02*
X021390Y024298D01*
X021390Y024139D02*
X015776Y024139D01*
X015776Y023981D02*
X021390Y023981D01*
X021390Y023822D02*
X015776Y023822D01*
X015776Y023664D02*
X021390Y023664D01*
X021390Y023505D02*
X015776Y023505D01*
X015734Y023347D02*
X021432Y023347D01*
X016848Y017958D02*
X009423Y017958D01*
X006958Y016848D02*
X006958Y016848D01*
X006958Y016690D02*
X006958Y016690D01*
X006958Y016531D02*
X006958Y016531D01*
X006958Y016373D02*
X006958Y016373D01*
X006958Y016214D02*
X006958Y016214D01*
X006958Y016056D02*
X006958Y016056D01*
X012076Y016056D02*
X012590Y016056D01*
X013620Y016848D02*
X013716Y016848D01*
X013716Y017007D02*
X013620Y017007D01*
X013620Y017165D02*
X013716Y017165D01*
X013716Y017324D02*
X013620Y017324D01*
X013620Y017482D02*
X013716Y017482D01*
X013716Y017641D02*
X013620Y017641D01*
X014085Y015897D02*
X016848Y015897D01*
X016848Y015739D02*
X014104Y015739D01*
X014104Y015580D02*
X016848Y015580D01*
X016848Y015422D02*
X014104Y015422D01*
X014104Y015263D02*
X016848Y015263D01*
X016848Y015105D02*
X014057Y015105D01*
X009567Y010667D02*
X007369Y010667D01*
X007211Y010508D02*
X009553Y010508D01*
X009553Y010350D02*
X007052Y010350D01*
X006894Y010191D02*
X009591Y010191D01*
X009653Y010083D02*
X009719Y010083D01*
X009719Y010083D01*
X009719Y010083D01*
X009653Y010083D01*
X009642Y010033D02*
X008960Y010033D01*
X007206Y010033D02*
X006922Y010033D01*
X006928Y009874D02*
X007173Y009874D01*
X007173Y009716D02*
X006928Y009716D01*
X006928Y009557D02*
X007146Y009557D01*
X006987Y009399D02*
X006928Y009399D01*
X005928Y007972D02*
X004835Y007972D01*
X005046Y007814D02*
X005909Y007814D01*
X005891Y007655D02*
X005192Y007655D01*
X005299Y007497D02*
X005872Y007497D01*
X005854Y007338D02*
X005376Y007338D01*
X005430Y007180D02*
X005835Y007180D01*
X005816Y007021D02*
X005463Y007021D01*
X004981Y004802D02*
X006040Y004802D01*
X005739Y004644D02*
X004794Y004644D01*
X004608Y004485D02*
X005580Y004485D01*
X005491Y004327D02*
X004421Y004327D01*
X004532Y004168D02*
X005425Y004168D01*
X005401Y004010D02*
X004690Y004010D01*
X004718Y003851D02*
X005401Y003851D01*
X005425Y003693D02*
X004718Y003693D01*
X004718Y003771D02*
X004208Y003771D01*
X004208Y003771D01*
X004208Y003771D01*
X004208Y003261D01*
X004419Y003261D01*
X004718Y003559D01*
X004718Y003771D01*
X004693Y003534D02*
X005490Y003534D01*
X005579Y003376D02*
X004534Y003376D01*
X004208Y003376D02*
X004208Y003376D01*
X004208Y003534D02*
X004208Y003534D01*
X004208Y003693D02*
X004208Y003693D01*
X003882Y003376D02*
X003676Y003376D01*
X003517Y003217D02*
X005737Y003217D01*
X006036Y003059D02*
X002583Y003059D01*
X002583Y003217D02*
X002899Y003217D01*
X003059Y021011D02*
X003271Y021011D01*
X003271Y021521D01*
X003271Y021521D01*
X003271Y021521D01*
X002761Y021521D01*
X002761Y021309D01*
X003059Y021011D01*
X002942Y021128D02*
X002583Y021128D01*
X002583Y021286D02*
X002784Y021286D01*
X002761Y021445D02*
X002583Y021445D01*
X002583Y021603D02*
X002761Y021603D01*
X002790Y021762D02*
X002583Y021762D01*
X002583Y021920D02*
X002949Y021920D01*
X003271Y021920D02*
X003271Y021920D01*
X003271Y021762D02*
X003271Y021762D01*
X003271Y021603D02*
X003271Y021603D01*
X003271Y021445D02*
X003271Y021445D01*
X003271Y021286D02*
X003271Y021286D01*
X003271Y021128D02*
X003271Y021128D01*
X003599Y021128D02*
X003801Y021128D01*
X003807Y021920D02*
X003592Y021920D01*
X003859Y023347D02*
X002583Y023347D01*
X002583Y023505D02*
X003458Y023505D01*
X003247Y023664D02*
X002583Y023664D01*
X002583Y023822D02*
X003101Y023822D01*
X002993Y023981D02*
X002583Y023981D01*
X002583Y024139D02*
X002916Y024139D01*
X002861Y024298D02*
X002583Y024298D01*
X002583Y024456D02*
X002828Y024456D01*
X004066Y024298D02*
X004226Y024298D01*
X004226Y024139D02*
X004066Y024139D01*
X004066Y023981D02*
X004226Y023981D01*
X004226Y023822D02*
X004066Y023822D01*
X004066Y023664D02*
X004226Y023664D01*
X004226Y023505D02*
X004066Y023505D01*
X004066Y023347D02*
X004226Y023347D01*
X004226Y024773D02*
X004066Y024773D01*
X004066Y024932D02*
X004226Y024932D01*
X004226Y025090D02*
X004066Y025090D01*
X004066Y025249D02*
X004226Y025249D01*
X004226Y025407D02*
X004066Y025407D01*
X004066Y025566D02*
X004226Y025566D01*
X004226Y025724D02*
X004066Y025724D01*
X004066Y025883D02*
X004226Y025883D01*
X003840Y027151D02*
X003434Y027151D01*
X003593Y027309D02*
X003682Y027309D01*
X003208Y028102D02*
X003208Y028102D01*
X002583Y029053D02*
X011858Y029053D01*
D24*
X005271Y021458D02*
X004333Y021458D01*
X004271Y021521D01*
X005271Y021458D02*
X005897Y020832D01*
X005897Y020208D01*
X013021Y015498D02*
X013021Y013271D01*
X015022Y011270D01*
X015650Y011270D01*
X018833Y010838D02*
X018833Y009832D01*
X019896Y009771D02*
X019896Y011016D01*
X019641Y011271D01*
X010147Y010535D02*
X010147Y012333D01*
X010147Y010535D02*
X010069Y010457D01*
X010069Y010083D02*
X009521Y010083D01*
D25*
X012021Y009458D03*
X011771Y013271D03*
X013021Y013271D03*
X019896Y009771D03*
X016083Y018896D03*
D26*
X006896Y018896D01*
X005083Y017083D01*
X008958Y015458D02*
X009018Y015518D01*
X010892Y015518D01*
X010897Y015521D01*
X010892Y015518D02*
X010892Y013512D01*
X010147Y013509D02*
X010144Y013512D01*
X010147Y013509D02*
X010147Y012333D01*
X010895Y012333D02*
X011771Y013209D01*
X011771Y013271D01*
X010895Y012457D02*
X010895Y012333D01*
X011097Y012130D01*
X011097Y010457D01*
X012958Y010457D01*
X012957Y010456D01*
X012957Y008583D01*
X012209Y008583D02*
X011097Y009695D01*
X011097Y009709D01*
X011770Y009709D01*
X012021Y009458D01*
X012958Y010457D02*
X013329Y010457D01*
X010069Y009709D02*
X010069Y008223D01*
X010209Y008083D01*
X009943Y009583D02*
X008457Y009583D01*
X007709Y009583D02*
X007085Y008959D01*
X006333Y008959D01*
X006333Y008333D01*
X006333Y009707D02*
X006333Y010168D01*
X007748Y011583D01*
X009943Y009583D02*
X010069Y009709D01*
X013021Y015498D02*
X012998Y015521D01*
X011645Y015521D01*
X012998Y015521D02*
X012998Y017271D01*
M02*
