G75*
%MOIN*%
%OFA0B0*%
%FSLAX24Y24*%
%IPPOS*%
%LPD*%
%AMOC8*
5,1,8,0,0,1.08239X$1,22.5*
%
%ADD10C,0.0000*%
%ADD11C,0.0060*%
%ADD12R,0.0250X0.0900*%
%ADD13C,0.0050*%
%ADD14C,0.0040*%
%ADD15C,0.0080*%
%ADD16C,0.0500*%
%ADD17C,0.0100*%
%ADD18C,0.0240*%
%ADD19C,0.0010*%
D10*
X000180Y002333D02*
X000180Y031704D01*
X029550Y031704D01*
X029550Y002333D01*
X000180Y002333D01*
X004778Y003930D02*
X004780Y003980D01*
X004786Y004030D01*
X004796Y004079D01*
X004810Y004127D01*
X004827Y004174D01*
X004848Y004219D01*
X004873Y004263D01*
X004901Y004304D01*
X004933Y004343D01*
X004967Y004380D01*
X005004Y004414D01*
X005044Y004444D01*
X005086Y004471D01*
X005130Y004495D01*
X005176Y004516D01*
X005223Y004532D01*
X005271Y004545D01*
X005321Y004554D01*
X005370Y004559D01*
X005421Y004560D01*
X005471Y004557D01*
X005520Y004550D01*
X005569Y004539D01*
X005617Y004524D01*
X005663Y004506D01*
X005708Y004484D01*
X005751Y004458D01*
X005792Y004429D01*
X005831Y004397D01*
X005867Y004362D01*
X005899Y004324D01*
X005929Y004284D01*
X005956Y004241D01*
X005979Y004197D01*
X005998Y004151D01*
X006014Y004103D01*
X006026Y004054D01*
X006034Y004005D01*
X006038Y003955D01*
X006038Y003905D01*
X006034Y003855D01*
X006026Y003806D01*
X006014Y003757D01*
X005998Y003709D01*
X005979Y003663D01*
X005956Y003619D01*
X005929Y003576D01*
X005899Y003536D01*
X005867Y003498D01*
X005831Y003463D01*
X005792Y003431D01*
X005751Y003402D01*
X005708Y003376D01*
X005663Y003354D01*
X005617Y003336D01*
X005569Y003321D01*
X005520Y003310D01*
X005471Y003303D01*
X005421Y003300D01*
X005370Y003301D01*
X005321Y003306D01*
X005271Y003315D01*
X005223Y003328D01*
X005176Y003344D01*
X005130Y003365D01*
X005086Y003389D01*
X005044Y003416D01*
X005004Y003446D01*
X004967Y003480D01*
X004933Y003517D01*
X004901Y003556D01*
X004873Y003597D01*
X004848Y003641D01*
X004827Y003686D01*
X004810Y003733D01*
X004796Y003781D01*
X004786Y003830D01*
X004780Y003880D01*
X004778Y003930D01*
X008322Y003930D02*
X008324Y003980D01*
X008330Y004030D01*
X008340Y004079D01*
X008354Y004127D01*
X008371Y004174D01*
X008392Y004219D01*
X008417Y004263D01*
X008445Y004304D01*
X008477Y004343D01*
X008511Y004380D01*
X008548Y004414D01*
X008588Y004444D01*
X008630Y004471D01*
X008674Y004495D01*
X008720Y004516D01*
X008767Y004532D01*
X008815Y004545D01*
X008865Y004554D01*
X008914Y004559D01*
X008965Y004560D01*
X009015Y004557D01*
X009064Y004550D01*
X009113Y004539D01*
X009161Y004524D01*
X009207Y004506D01*
X009252Y004484D01*
X009295Y004458D01*
X009336Y004429D01*
X009375Y004397D01*
X009411Y004362D01*
X009443Y004324D01*
X009473Y004284D01*
X009500Y004241D01*
X009523Y004197D01*
X009542Y004151D01*
X009558Y004103D01*
X009570Y004054D01*
X009578Y004005D01*
X009582Y003955D01*
X009582Y003905D01*
X009578Y003855D01*
X009570Y003806D01*
X009558Y003757D01*
X009542Y003709D01*
X009523Y003663D01*
X009500Y003619D01*
X009473Y003576D01*
X009443Y003536D01*
X009411Y003498D01*
X009375Y003463D01*
X009336Y003431D01*
X009295Y003402D01*
X009252Y003376D01*
X009207Y003354D01*
X009161Y003336D01*
X009113Y003321D01*
X009064Y003310D01*
X009015Y003303D01*
X008965Y003300D01*
X008914Y003301D01*
X008865Y003306D01*
X008815Y003315D01*
X008767Y003328D01*
X008720Y003344D01*
X008674Y003365D01*
X008630Y003389D01*
X008588Y003416D01*
X008548Y003446D01*
X008511Y003480D01*
X008477Y003517D01*
X008445Y003556D01*
X008417Y003597D01*
X008392Y003641D01*
X008371Y003686D01*
X008354Y003733D01*
X008340Y003781D01*
X008330Y003830D01*
X008324Y003880D01*
X008322Y003930D01*
X008322Y030112D02*
X008324Y030162D01*
X008330Y030212D01*
X008340Y030261D01*
X008354Y030309D01*
X008371Y030356D01*
X008392Y030401D01*
X008417Y030445D01*
X008445Y030486D01*
X008477Y030525D01*
X008511Y030562D01*
X008548Y030596D01*
X008588Y030626D01*
X008630Y030653D01*
X008674Y030677D01*
X008720Y030698D01*
X008767Y030714D01*
X008815Y030727D01*
X008865Y030736D01*
X008914Y030741D01*
X008965Y030742D01*
X009015Y030739D01*
X009064Y030732D01*
X009113Y030721D01*
X009161Y030706D01*
X009207Y030688D01*
X009252Y030666D01*
X009295Y030640D01*
X009336Y030611D01*
X009375Y030579D01*
X009411Y030544D01*
X009443Y030506D01*
X009473Y030466D01*
X009500Y030423D01*
X009523Y030379D01*
X009542Y030333D01*
X009558Y030285D01*
X009570Y030236D01*
X009578Y030187D01*
X009582Y030137D01*
X009582Y030087D01*
X009578Y030037D01*
X009570Y029988D01*
X009558Y029939D01*
X009542Y029891D01*
X009523Y029845D01*
X009500Y029801D01*
X009473Y029758D01*
X009443Y029718D01*
X009411Y029680D01*
X009375Y029645D01*
X009336Y029613D01*
X009295Y029584D01*
X009252Y029558D01*
X009207Y029536D01*
X009161Y029518D01*
X009113Y029503D01*
X009064Y029492D01*
X009015Y029485D01*
X008965Y029482D01*
X008914Y029483D01*
X008865Y029488D01*
X008815Y029497D01*
X008767Y029510D01*
X008720Y029526D01*
X008674Y029547D01*
X008630Y029571D01*
X008588Y029598D01*
X008548Y029628D01*
X008511Y029662D01*
X008477Y029699D01*
X008445Y029738D01*
X008417Y029779D01*
X008392Y029823D01*
X008371Y029868D01*
X008354Y029915D01*
X008340Y029963D01*
X008330Y030012D01*
X008324Y030062D01*
X008322Y030112D01*
X004778Y030112D02*
X004780Y030162D01*
X004786Y030212D01*
X004796Y030261D01*
X004810Y030309D01*
X004827Y030356D01*
X004848Y030401D01*
X004873Y030445D01*
X004901Y030486D01*
X004933Y030525D01*
X004967Y030562D01*
X005004Y030596D01*
X005044Y030626D01*
X005086Y030653D01*
X005130Y030677D01*
X005176Y030698D01*
X005223Y030714D01*
X005271Y030727D01*
X005321Y030736D01*
X005370Y030741D01*
X005421Y030742D01*
X005471Y030739D01*
X005520Y030732D01*
X005569Y030721D01*
X005617Y030706D01*
X005663Y030688D01*
X005708Y030666D01*
X005751Y030640D01*
X005792Y030611D01*
X005831Y030579D01*
X005867Y030544D01*
X005899Y030506D01*
X005929Y030466D01*
X005956Y030423D01*
X005979Y030379D01*
X005998Y030333D01*
X006014Y030285D01*
X006026Y030236D01*
X006034Y030187D01*
X006038Y030137D01*
X006038Y030087D01*
X006034Y030037D01*
X006026Y029988D01*
X006014Y029939D01*
X005998Y029891D01*
X005979Y029845D01*
X005956Y029801D01*
X005929Y029758D01*
X005899Y029718D01*
X005867Y029680D01*
X005831Y029645D01*
X005792Y029613D01*
X005751Y029584D01*
X005708Y029558D01*
X005663Y029536D01*
X005617Y029518D01*
X005569Y029503D01*
X005520Y029492D01*
X005471Y029485D01*
X005421Y029482D01*
X005370Y029483D01*
X005321Y029488D01*
X005271Y029497D01*
X005223Y029510D01*
X005176Y029526D01*
X005130Y029547D01*
X005086Y029571D01*
X005044Y029598D01*
X005004Y029628D01*
X004967Y029662D01*
X004933Y029699D01*
X004901Y029738D01*
X004873Y029779D01*
X004848Y029823D01*
X004827Y029868D01*
X004810Y029915D01*
X004796Y029963D01*
X004786Y030012D01*
X004780Y030062D01*
X004778Y030112D01*
X012278Y030112D02*
X012280Y030162D01*
X012286Y030212D01*
X012296Y030261D01*
X012310Y030309D01*
X012327Y030356D01*
X012348Y030401D01*
X012373Y030445D01*
X012401Y030486D01*
X012433Y030525D01*
X012467Y030562D01*
X012504Y030596D01*
X012544Y030626D01*
X012586Y030653D01*
X012630Y030677D01*
X012676Y030698D01*
X012723Y030714D01*
X012771Y030727D01*
X012821Y030736D01*
X012870Y030741D01*
X012921Y030742D01*
X012971Y030739D01*
X013020Y030732D01*
X013069Y030721D01*
X013117Y030706D01*
X013163Y030688D01*
X013208Y030666D01*
X013251Y030640D01*
X013292Y030611D01*
X013331Y030579D01*
X013367Y030544D01*
X013399Y030506D01*
X013429Y030466D01*
X013456Y030423D01*
X013479Y030379D01*
X013498Y030333D01*
X013514Y030285D01*
X013526Y030236D01*
X013534Y030187D01*
X013538Y030137D01*
X013538Y030087D01*
X013534Y030037D01*
X013526Y029988D01*
X013514Y029939D01*
X013498Y029891D01*
X013479Y029845D01*
X013456Y029801D01*
X013429Y029758D01*
X013399Y029718D01*
X013367Y029680D01*
X013331Y029645D01*
X013292Y029613D01*
X013251Y029584D01*
X013208Y029558D01*
X013163Y029536D01*
X013117Y029518D01*
X013069Y029503D01*
X013020Y029492D01*
X012971Y029485D01*
X012921Y029482D01*
X012870Y029483D01*
X012821Y029488D01*
X012771Y029497D01*
X012723Y029510D01*
X012676Y029526D01*
X012630Y029547D01*
X012586Y029571D01*
X012544Y029598D01*
X012504Y029628D01*
X012467Y029662D01*
X012433Y029699D01*
X012401Y029738D01*
X012373Y029779D01*
X012348Y029823D01*
X012327Y029868D01*
X012310Y029915D01*
X012296Y029963D01*
X012286Y030012D01*
X012280Y030062D01*
X012278Y030112D01*
X015822Y030112D02*
X015824Y030162D01*
X015830Y030212D01*
X015840Y030261D01*
X015854Y030309D01*
X015871Y030356D01*
X015892Y030401D01*
X015917Y030445D01*
X015945Y030486D01*
X015977Y030525D01*
X016011Y030562D01*
X016048Y030596D01*
X016088Y030626D01*
X016130Y030653D01*
X016174Y030677D01*
X016220Y030698D01*
X016267Y030714D01*
X016315Y030727D01*
X016365Y030736D01*
X016414Y030741D01*
X016465Y030742D01*
X016515Y030739D01*
X016564Y030732D01*
X016613Y030721D01*
X016661Y030706D01*
X016707Y030688D01*
X016752Y030666D01*
X016795Y030640D01*
X016836Y030611D01*
X016875Y030579D01*
X016911Y030544D01*
X016943Y030506D01*
X016973Y030466D01*
X017000Y030423D01*
X017023Y030379D01*
X017042Y030333D01*
X017058Y030285D01*
X017070Y030236D01*
X017078Y030187D01*
X017082Y030137D01*
X017082Y030087D01*
X017078Y030037D01*
X017070Y029988D01*
X017058Y029939D01*
X017042Y029891D01*
X017023Y029845D01*
X017000Y029801D01*
X016973Y029758D01*
X016943Y029718D01*
X016911Y029680D01*
X016875Y029645D01*
X016836Y029613D01*
X016795Y029584D01*
X016752Y029558D01*
X016707Y029536D01*
X016661Y029518D01*
X016613Y029503D01*
X016564Y029492D01*
X016515Y029485D01*
X016465Y029482D01*
X016414Y029483D01*
X016365Y029488D01*
X016315Y029497D01*
X016267Y029510D01*
X016220Y029526D01*
X016174Y029547D01*
X016130Y029571D01*
X016088Y029598D01*
X016048Y029628D01*
X016011Y029662D01*
X015977Y029699D01*
X015945Y029738D01*
X015917Y029779D01*
X015892Y029823D01*
X015871Y029868D01*
X015854Y029915D01*
X015840Y029963D01*
X015830Y030012D01*
X015824Y030062D01*
X015822Y030112D01*
X019653Y030112D02*
X019655Y030162D01*
X019661Y030212D01*
X019671Y030261D01*
X019685Y030309D01*
X019702Y030356D01*
X019723Y030401D01*
X019748Y030445D01*
X019776Y030486D01*
X019808Y030525D01*
X019842Y030562D01*
X019879Y030596D01*
X019919Y030626D01*
X019961Y030653D01*
X020005Y030677D01*
X020051Y030698D01*
X020098Y030714D01*
X020146Y030727D01*
X020196Y030736D01*
X020245Y030741D01*
X020296Y030742D01*
X020346Y030739D01*
X020395Y030732D01*
X020444Y030721D01*
X020492Y030706D01*
X020538Y030688D01*
X020583Y030666D01*
X020626Y030640D01*
X020667Y030611D01*
X020706Y030579D01*
X020742Y030544D01*
X020774Y030506D01*
X020804Y030466D01*
X020831Y030423D01*
X020854Y030379D01*
X020873Y030333D01*
X020889Y030285D01*
X020901Y030236D01*
X020909Y030187D01*
X020913Y030137D01*
X020913Y030087D01*
X020909Y030037D01*
X020901Y029988D01*
X020889Y029939D01*
X020873Y029891D01*
X020854Y029845D01*
X020831Y029801D01*
X020804Y029758D01*
X020774Y029718D01*
X020742Y029680D01*
X020706Y029645D01*
X020667Y029613D01*
X020626Y029584D01*
X020583Y029558D01*
X020538Y029536D01*
X020492Y029518D01*
X020444Y029503D01*
X020395Y029492D01*
X020346Y029485D01*
X020296Y029482D01*
X020245Y029483D01*
X020196Y029488D01*
X020146Y029497D01*
X020098Y029510D01*
X020051Y029526D01*
X020005Y029547D01*
X019961Y029571D01*
X019919Y029598D01*
X019879Y029628D01*
X019842Y029662D01*
X019808Y029699D01*
X019776Y029738D01*
X019748Y029779D01*
X019723Y029823D01*
X019702Y029868D01*
X019685Y029915D01*
X019671Y029963D01*
X019661Y030012D01*
X019655Y030062D01*
X019653Y030112D01*
X023197Y030112D02*
X023199Y030162D01*
X023205Y030212D01*
X023215Y030261D01*
X023229Y030309D01*
X023246Y030356D01*
X023267Y030401D01*
X023292Y030445D01*
X023320Y030486D01*
X023352Y030525D01*
X023386Y030562D01*
X023423Y030596D01*
X023463Y030626D01*
X023505Y030653D01*
X023549Y030677D01*
X023595Y030698D01*
X023642Y030714D01*
X023690Y030727D01*
X023740Y030736D01*
X023789Y030741D01*
X023840Y030742D01*
X023890Y030739D01*
X023939Y030732D01*
X023988Y030721D01*
X024036Y030706D01*
X024082Y030688D01*
X024127Y030666D01*
X024170Y030640D01*
X024211Y030611D01*
X024250Y030579D01*
X024286Y030544D01*
X024318Y030506D01*
X024348Y030466D01*
X024375Y030423D01*
X024398Y030379D01*
X024417Y030333D01*
X024433Y030285D01*
X024445Y030236D01*
X024453Y030187D01*
X024457Y030137D01*
X024457Y030087D01*
X024453Y030037D01*
X024445Y029988D01*
X024433Y029939D01*
X024417Y029891D01*
X024398Y029845D01*
X024375Y029801D01*
X024348Y029758D01*
X024318Y029718D01*
X024286Y029680D01*
X024250Y029645D01*
X024211Y029613D01*
X024170Y029584D01*
X024127Y029558D01*
X024082Y029536D01*
X024036Y029518D01*
X023988Y029503D01*
X023939Y029492D01*
X023890Y029485D01*
X023840Y029482D01*
X023789Y029483D01*
X023740Y029488D01*
X023690Y029497D01*
X023642Y029510D01*
X023595Y029526D01*
X023549Y029547D01*
X023505Y029571D01*
X023463Y029598D01*
X023423Y029628D01*
X023386Y029662D01*
X023352Y029699D01*
X023320Y029738D01*
X023292Y029779D01*
X023267Y029823D01*
X023246Y029868D01*
X023229Y029915D01*
X023215Y029963D01*
X023205Y030012D01*
X023199Y030062D01*
X023197Y030112D01*
D11*
X018305Y026958D02*
X018307Y027021D01*
X018313Y027083D01*
X018323Y027145D01*
X018336Y027207D01*
X018354Y027267D01*
X018375Y027326D01*
X018400Y027384D01*
X018429Y027440D01*
X018461Y027494D01*
X018496Y027546D01*
X018534Y027595D01*
X018576Y027643D01*
X018620Y027687D01*
X018668Y027729D01*
X018717Y027767D01*
X018769Y027802D01*
X018823Y027834D01*
X018879Y027863D01*
X018937Y027888D01*
X018996Y027909D01*
X019056Y027927D01*
X019118Y027940D01*
X019180Y027950D01*
X019242Y027956D01*
X019305Y027958D01*
X019368Y027956D01*
X019430Y027950D01*
X019492Y027940D01*
X019554Y027927D01*
X019614Y027909D01*
X019673Y027888D01*
X019731Y027863D01*
X019787Y027834D01*
X019841Y027802D01*
X019893Y027767D01*
X019942Y027729D01*
X019990Y027687D01*
X020034Y027643D01*
X020076Y027595D01*
X020114Y027546D01*
X020149Y027494D01*
X020181Y027440D01*
X020210Y027384D01*
X020235Y027326D01*
X020256Y027267D01*
X020274Y027207D01*
X020287Y027145D01*
X020297Y027083D01*
X020303Y027021D01*
X020305Y026958D01*
X020303Y026895D01*
X020297Y026833D01*
X020287Y026771D01*
X020274Y026709D01*
X020256Y026649D01*
X020235Y026590D01*
X020210Y026532D01*
X020181Y026476D01*
X020149Y026422D01*
X020114Y026370D01*
X020076Y026321D01*
X020034Y026273D01*
X019990Y026229D01*
X019942Y026187D01*
X019893Y026149D01*
X019841Y026114D01*
X019787Y026082D01*
X019731Y026053D01*
X019673Y026028D01*
X019614Y026007D01*
X019554Y025989D01*
X019492Y025976D01*
X019430Y025966D01*
X019368Y025960D01*
X019305Y025958D01*
X019242Y025960D01*
X019180Y025966D01*
X019118Y025976D01*
X019056Y025989D01*
X018996Y026007D01*
X018937Y026028D01*
X018879Y026053D01*
X018823Y026082D01*
X018769Y026114D01*
X018717Y026149D01*
X018668Y026187D01*
X018620Y026229D01*
X018576Y026273D01*
X018534Y026321D01*
X018496Y026370D01*
X018461Y026422D01*
X018429Y026476D01*
X018400Y026532D01*
X018375Y026590D01*
X018354Y026649D01*
X018336Y026709D01*
X018323Y026771D01*
X018313Y026833D01*
X018307Y026895D01*
X018305Y026958D01*
X014505Y024083D02*
X014305Y024083D01*
X012055Y024083D02*
X012057Y024172D01*
X012063Y024261D01*
X012073Y024350D01*
X012087Y024438D01*
X012104Y024525D01*
X012126Y024611D01*
X012152Y024697D01*
X012181Y024781D01*
X012214Y024864D01*
X012250Y024945D01*
X012291Y025025D01*
X012334Y025102D01*
X012381Y025178D01*
X012432Y025251D01*
X012485Y025322D01*
X012542Y025391D01*
X012602Y025457D01*
X012665Y025521D01*
X012730Y025581D01*
X012798Y025639D01*
X012869Y025693D01*
X012942Y025744D01*
X013017Y025792D01*
X013094Y025837D01*
X013173Y025878D01*
X013254Y025915D01*
X013336Y025949D01*
X013420Y025980D01*
X013505Y026006D01*
X013591Y026029D01*
X013678Y026047D01*
X013766Y026062D01*
X013855Y026073D01*
X013944Y026080D01*
X014033Y026083D01*
X014122Y026082D01*
X014211Y026077D01*
X014299Y026068D01*
X014388Y026055D01*
X014475Y026038D01*
X014562Y026018D01*
X014648Y025993D01*
X014732Y025965D01*
X014815Y025933D01*
X014897Y025897D01*
X014977Y025858D01*
X015055Y025815D01*
X015131Y025769D01*
X015205Y025719D01*
X015277Y025666D01*
X015346Y025610D01*
X015413Y025551D01*
X015477Y025489D01*
X015538Y025425D01*
X015597Y025357D01*
X015652Y025287D01*
X015704Y025215D01*
X015753Y025140D01*
X015798Y025064D01*
X015840Y024985D01*
X015878Y024905D01*
X015913Y024823D01*
X015944Y024739D01*
X015972Y024654D01*
X015995Y024568D01*
X016015Y024481D01*
X016031Y024394D01*
X016043Y024305D01*
X016051Y024217D01*
X016055Y024128D01*
X016055Y024038D01*
X016051Y023949D01*
X016043Y023861D01*
X016031Y023772D01*
X016015Y023685D01*
X015995Y023598D01*
X015972Y023512D01*
X015944Y023427D01*
X015913Y023343D01*
X015878Y023261D01*
X015840Y023181D01*
X015798Y023102D01*
X015753Y023026D01*
X015704Y022951D01*
X015652Y022879D01*
X015597Y022809D01*
X015538Y022741D01*
X015477Y022677D01*
X015413Y022615D01*
X015346Y022556D01*
X015277Y022500D01*
X015205Y022447D01*
X015131Y022397D01*
X015055Y022351D01*
X014977Y022308D01*
X014897Y022269D01*
X014815Y022233D01*
X014732Y022201D01*
X014648Y022173D01*
X014562Y022148D01*
X014475Y022128D01*
X014388Y022111D01*
X014299Y022098D01*
X014211Y022089D01*
X014122Y022084D01*
X014033Y022083D01*
X013944Y022086D01*
X013855Y022093D01*
X013766Y022104D01*
X013678Y022119D01*
X013591Y022137D01*
X013505Y022160D01*
X013420Y022186D01*
X013336Y022217D01*
X013254Y022251D01*
X013173Y022288D01*
X013094Y022329D01*
X013017Y022374D01*
X012942Y022422D01*
X012869Y022473D01*
X012798Y022527D01*
X012730Y022585D01*
X012665Y022645D01*
X012602Y022709D01*
X012542Y022775D01*
X012485Y022844D01*
X012432Y022915D01*
X012381Y022988D01*
X012334Y023064D01*
X012291Y023141D01*
X012250Y023221D01*
X012214Y023302D01*
X012181Y023385D01*
X012152Y023469D01*
X012126Y023555D01*
X012104Y023641D01*
X012087Y023728D01*
X012073Y023816D01*
X012063Y023905D01*
X012057Y023994D01*
X012055Y024083D01*
X012405Y024583D02*
X012705Y024583D01*
X012555Y024733D02*
X012555Y024433D01*
X013605Y024083D02*
X013705Y024083D01*
X013705Y024533D01*
X013955Y024533D01*
X013955Y023633D01*
X013705Y023633D01*
X013705Y024083D01*
X007830Y023333D02*
X007530Y023333D01*
X007680Y023183D02*
X007680Y023483D01*
X006630Y023833D02*
X006530Y023833D01*
X006530Y023383D01*
X006280Y023383D01*
X006280Y024283D01*
X006530Y024283D01*
X006530Y023833D01*
X004180Y023833D02*
X004182Y023922D01*
X004188Y024011D01*
X004198Y024100D01*
X004212Y024188D01*
X004229Y024275D01*
X004251Y024361D01*
X004277Y024447D01*
X004306Y024531D01*
X004339Y024614D01*
X004375Y024695D01*
X004416Y024775D01*
X004459Y024852D01*
X004506Y024928D01*
X004557Y025001D01*
X004610Y025072D01*
X004667Y025141D01*
X004727Y025207D01*
X004790Y025271D01*
X004855Y025331D01*
X004923Y025389D01*
X004994Y025443D01*
X005067Y025494D01*
X005142Y025542D01*
X005219Y025587D01*
X005298Y025628D01*
X005379Y025665D01*
X005461Y025699D01*
X005545Y025730D01*
X005630Y025756D01*
X005716Y025779D01*
X005803Y025797D01*
X005891Y025812D01*
X005980Y025823D01*
X006069Y025830D01*
X006158Y025833D01*
X006247Y025832D01*
X006336Y025827D01*
X006424Y025818D01*
X006513Y025805D01*
X006600Y025788D01*
X006687Y025768D01*
X006773Y025743D01*
X006857Y025715D01*
X006940Y025683D01*
X007022Y025647D01*
X007102Y025608D01*
X007180Y025565D01*
X007256Y025519D01*
X007330Y025469D01*
X007402Y025416D01*
X007471Y025360D01*
X007538Y025301D01*
X007602Y025239D01*
X007663Y025175D01*
X007722Y025107D01*
X007777Y025037D01*
X007829Y024965D01*
X007878Y024890D01*
X007923Y024814D01*
X007965Y024735D01*
X008003Y024655D01*
X008038Y024573D01*
X008069Y024489D01*
X008097Y024404D01*
X008120Y024318D01*
X008140Y024231D01*
X008156Y024144D01*
X008168Y024055D01*
X008176Y023967D01*
X008180Y023878D01*
X008180Y023788D01*
X008176Y023699D01*
X008168Y023611D01*
X008156Y023522D01*
X008140Y023435D01*
X008120Y023348D01*
X008097Y023262D01*
X008069Y023177D01*
X008038Y023093D01*
X008003Y023011D01*
X007965Y022931D01*
X007923Y022852D01*
X007878Y022776D01*
X007829Y022701D01*
X007777Y022629D01*
X007722Y022559D01*
X007663Y022491D01*
X007602Y022427D01*
X007538Y022365D01*
X007471Y022306D01*
X007402Y022250D01*
X007330Y022197D01*
X007256Y022147D01*
X007180Y022101D01*
X007102Y022058D01*
X007022Y022019D01*
X006940Y021983D01*
X006857Y021951D01*
X006773Y021923D01*
X006687Y021898D01*
X006600Y021878D01*
X006513Y021861D01*
X006424Y021848D01*
X006336Y021839D01*
X006247Y021834D01*
X006158Y021833D01*
X006069Y021836D01*
X005980Y021843D01*
X005891Y021854D01*
X005803Y021869D01*
X005716Y021887D01*
X005630Y021910D01*
X005545Y021936D01*
X005461Y021967D01*
X005379Y022001D01*
X005298Y022038D01*
X005219Y022079D01*
X005142Y022124D01*
X005067Y022172D01*
X004994Y022223D01*
X004923Y022277D01*
X004855Y022335D01*
X004790Y022395D01*
X004727Y022459D01*
X004667Y022525D01*
X004610Y022594D01*
X004557Y022665D01*
X004506Y022738D01*
X004459Y022814D01*
X004416Y022891D01*
X004375Y022971D01*
X004339Y023052D01*
X004306Y023135D01*
X004277Y023219D01*
X004251Y023305D01*
X004229Y023391D01*
X004212Y023478D01*
X004198Y023566D01*
X004188Y023655D01*
X004182Y023744D01*
X004180Y023833D01*
X005730Y023833D02*
X005930Y023833D01*
X001180Y026708D02*
X001182Y026771D01*
X001188Y026833D01*
X001198Y026895D01*
X001211Y026957D01*
X001229Y027017D01*
X001250Y027076D01*
X001275Y027134D01*
X001304Y027190D01*
X001336Y027244D01*
X001371Y027296D01*
X001409Y027345D01*
X001451Y027393D01*
X001495Y027437D01*
X001543Y027479D01*
X001592Y027517D01*
X001644Y027552D01*
X001698Y027584D01*
X001754Y027613D01*
X001812Y027638D01*
X001871Y027659D01*
X001931Y027677D01*
X001993Y027690D01*
X002055Y027700D01*
X002117Y027706D01*
X002180Y027708D01*
X002243Y027706D01*
X002305Y027700D01*
X002367Y027690D01*
X002429Y027677D01*
X002489Y027659D01*
X002548Y027638D01*
X002606Y027613D01*
X002662Y027584D01*
X002716Y027552D01*
X002768Y027517D01*
X002817Y027479D01*
X002865Y027437D01*
X002909Y027393D01*
X002951Y027345D01*
X002989Y027296D01*
X003024Y027244D01*
X003056Y027190D01*
X003085Y027134D01*
X003110Y027076D01*
X003131Y027017D01*
X003149Y026957D01*
X003162Y026895D01*
X003172Y026833D01*
X003178Y026771D01*
X003180Y026708D01*
X003178Y026645D01*
X003172Y026583D01*
X003162Y026521D01*
X003149Y026459D01*
X003131Y026399D01*
X003110Y026340D01*
X003085Y026282D01*
X003056Y026226D01*
X003024Y026172D01*
X002989Y026120D01*
X002951Y026071D01*
X002909Y026023D01*
X002865Y025979D01*
X002817Y025937D01*
X002768Y025899D01*
X002716Y025864D01*
X002662Y025832D01*
X002606Y025803D01*
X002548Y025778D01*
X002489Y025757D01*
X002429Y025739D01*
X002367Y025726D01*
X002305Y025716D01*
X002243Y025710D01*
X002180Y025708D01*
X002117Y025710D01*
X002055Y025716D01*
X001993Y025726D01*
X001931Y025739D01*
X001871Y025757D01*
X001812Y025778D01*
X001754Y025803D01*
X001698Y025832D01*
X001644Y025864D01*
X001592Y025899D01*
X001543Y025937D01*
X001495Y025979D01*
X001451Y026023D01*
X001409Y026071D01*
X001371Y026120D01*
X001336Y026172D01*
X001304Y026226D01*
X001275Y026282D01*
X001250Y026340D01*
X001229Y026399D01*
X001211Y026459D01*
X001198Y026521D01*
X001188Y026583D01*
X001182Y026645D01*
X001180Y026708D01*
X000830Y029583D02*
X000832Y029656D01*
X000838Y029729D01*
X000848Y029801D01*
X000862Y029873D01*
X000879Y029944D01*
X000901Y030014D01*
X000926Y030083D01*
X000955Y030150D01*
X000987Y030215D01*
X001023Y030279D01*
X001063Y030341D01*
X001105Y030400D01*
X001151Y030457D01*
X001200Y030511D01*
X001252Y030563D01*
X001306Y030612D01*
X001363Y030658D01*
X001422Y030700D01*
X001484Y030740D01*
X001548Y030776D01*
X001613Y030808D01*
X001680Y030837D01*
X001749Y030862D01*
X001819Y030884D01*
X001890Y030901D01*
X001962Y030915D01*
X002034Y030925D01*
X002107Y030931D01*
X002180Y030933D01*
X002253Y030931D01*
X002326Y030925D01*
X002398Y030915D01*
X002470Y030901D01*
X002541Y030884D01*
X002611Y030862D01*
X002680Y030837D01*
X002747Y030808D01*
X002812Y030776D01*
X002876Y030740D01*
X002938Y030700D01*
X002997Y030658D01*
X003054Y030612D01*
X003108Y030563D01*
X003160Y030511D01*
X003209Y030457D01*
X003255Y030400D01*
X003297Y030341D01*
X003337Y030279D01*
X003373Y030215D01*
X003405Y030150D01*
X003434Y030083D01*
X003459Y030014D01*
X003481Y029944D01*
X003498Y029873D01*
X003512Y029801D01*
X003522Y029729D01*
X003528Y029656D01*
X003530Y029583D01*
X003528Y029510D01*
X003522Y029437D01*
X003512Y029365D01*
X003498Y029293D01*
X003481Y029222D01*
X003459Y029152D01*
X003434Y029083D01*
X003405Y029016D01*
X003373Y028951D01*
X003337Y028887D01*
X003297Y028825D01*
X003255Y028766D01*
X003209Y028709D01*
X003160Y028655D01*
X003108Y028603D01*
X003054Y028554D01*
X002997Y028508D01*
X002938Y028466D01*
X002876Y028426D01*
X002812Y028390D01*
X002747Y028358D01*
X002680Y028329D01*
X002611Y028304D01*
X002541Y028282D01*
X002470Y028265D01*
X002398Y028251D01*
X002326Y028241D01*
X002253Y028235D01*
X002180Y028233D01*
X002107Y028235D01*
X002034Y028241D01*
X001962Y028251D01*
X001890Y028265D01*
X001819Y028282D01*
X001749Y028304D01*
X001680Y028329D01*
X001613Y028358D01*
X001548Y028390D01*
X001484Y028426D01*
X001422Y028466D01*
X001363Y028508D01*
X001306Y028554D01*
X001252Y028603D01*
X001200Y028655D01*
X001151Y028709D01*
X001105Y028766D01*
X001063Y028825D01*
X001023Y028887D01*
X000987Y028951D01*
X000955Y029016D01*
X000926Y029083D01*
X000901Y029152D01*
X000879Y029222D01*
X000862Y029293D01*
X000848Y029365D01*
X000838Y029437D01*
X000832Y029510D01*
X000830Y029583D01*
X004630Y016833D02*
X005280Y016833D01*
X004630Y016833D02*
X004607Y016831D01*
X004584Y016826D01*
X004562Y016817D01*
X004542Y016804D01*
X004524Y016789D01*
X004509Y016771D01*
X004496Y016751D01*
X004487Y016729D01*
X004482Y016706D01*
X004480Y016683D01*
X004480Y016333D01*
X004580Y016233D01*
X004580Y010933D01*
X004480Y010833D01*
X004480Y010483D01*
X004482Y010460D01*
X004487Y010437D01*
X004496Y010415D01*
X004509Y010395D01*
X004524Y010377D01*
X004542Y010362D01*
X004562Y010349D01*
X004584Y010340D01*
X004607Y010335D01*
X004630Y010333D01*
X005280Y010333D01*
X006080Y010333D02*
X006730Y010333D01*
X006753Y010335D01*
X006776Y010340D01*
X006798Y010349D01*
X006818Y010362D01*
X006836Y010377D01*
X006851Y010395D01*
X006864Y010415D01*
X006873Y010437D01*
X006878Y010460D01*
X006880Y010483D01*
X006880Y010833D01*
X006780Y010933D01*
X006780Y016233D01*
X006880Y016333D01*
X006880Y016683D01*
X006878Y016706D01*
X006873Y016729D01*
X006864Y016751D01*
X006851Y016771D01*
X006836Y016789D01*
X006818Y016804D01*
X006798Y016817D01*
X006776Y016826D01*
X006753Y016831D01*
X006730Y016833D01*
X006080Y016833D01*
X013480Y016683D02*
X013480Y016333D01*
X013580Y016233D01*
X013580Y010933D01*
X013480Y010833D01*
X013480Y010483D01*
X013482Y010460D01*
X013487Y010437D01*
X013496Y010415D01*
X013509Y010395D01*
X013524Y010377D01*
X013542Y010362D01*
X013562Y010349D01*
X013584Y010340D01*
X013607Y010335D01*
X013630Y010333D01*
X014280Y010333D01*
X015080Y010333D02*
X015730Y010333D01*
X015753Y010335D01*
X015776Y010340D01*
X015798Y010349D01*
X015818Y010362D01*
X015836Y010377D01*
X015851Y010395D01*
X015864Y010415D01*
X015873Y010437D01*
X015878Y010460D01*
X015880Y010483D01*
X015880Y010833D01*
X015780Y010933D01*
X015780Y016233D01*
X015880Y016333D01*
X015880Y016683D01*
X015878Y016706D01*
X015873Y016729D01*
X015864Y016751D01*
X015851Y016771D01*
X015836Y016789D01*
X015818Y016804D01*
X015798Y016817D01*
X015776Y016826D01*
X015753Y016831D01*
X015730Y016833D01*
X015080Y016833D01*
X014280Y016833D02*
X013630Y016833D01*
X013607Y016831D01*
X013584Y016826D01*
X013562Y016817D01*
X013542Y016804D01*
X013524Y016789D01*
X013509Y016771D01*
X013496Y016751D01*
X013487Y016729D01*
X013482Y016706D01*
X013480Y016683D01*
X021980Y016683D02*
X021980Y016333D01*
X022080Y016233D01*
X022080Y010933D01*
X021980Y010833D01*
X021980Y010483D01*
X021982Y010460D01*
X021987Y010437D01*
X021996Y010415D01*
X022009Y010395D01*
X022024Y010377D01*
X022042Y010362D01*
X022062Y010349D01*
X022084Y010340D01*
X022107Y010335D01*
X022130Y010333D01*
X022780Y010333D01*
X023580Y010333D02*
X024230Y010333D01*
X024253Y010335D01*
X024276Y010340D01*
X024298Y010349D01*
X024318Y010362D01*
X024336Y010377D01*
X024351Y010395D01*
X024364Y010415D01*
X024373Y010437D01*
X024378Y010460D01*
X024380Y010483D01*
X024380Y010833D01*
X024280Y010933D01*
X024280Y016233D01*
X024380Y016333D01*
X024380Y016683D01*
X024378Y016706D01*
X024373Y016729D01*
X024364Y016751D01*
X024351Y016771D01*
X024336Y016789D01*
X024318Y016804D01*
X024298Y016817D01*
X024276Y016826D01*
X024253Y016831D01*
X024230Y016833D01*
X023580Y016833D01*
X022780Y016833D02*
X022130Y016833D01*
X022107Y016831D01*
X022084Y016826D01*
X022062Y016817D01*
X022042Y016804D01*
X022024Y016789D01*
X022009Y016771D01*
X021996Y016751D01*
X021987Y016729D01*
X021982Y016706D01*
X021980Y016683D01*
X026305Y026708D02*
X026307Y026771D01*
X026313Y026833D01*
X026323Y026895D01*
X026336Y026957D01*
X026354Y027017D01*
X026375Y027076D01*
X026400Y027134D01*
X026429Y027190D01*
X026461Y027244D01*
X026496Y027296D01*
X026534Y027345D01*
X026576Y027393D01*
X026620Y027437D01*
X026668Y027479D01*
X026717Y027517D01*
X026769Y027552D01*
X026823Y027584D01*
X026879Y027613D01*
X026937Y027638D01*
X026996Y027659D01*
X027056Y027677D01*
X027118Y027690D01*
X027180Y027700D01*
X027242Y027706D01*
X027305Y027708D01*
X027368Y027706D01*
X027430Y027700D01*
X027492Y027690D01*
X027554Y027677D01*
X027614Y027659D01*
X027673Y027638D01*
X027731Y027613D01*
X027787Y027584D01*
X027841Y027552D01*
X027893Y027517D01*
X027942Y027479D01*
X027990Y027437D01*
X028034Y027393D01*
X028076Y027345D01*
X028114Y027296D01*
X028149Y027244D01*
X028181Y027190D01*
X028210Y027134D01*
X028235Y027076D01*
X028256Y027017D01*
X028274Y026957D01*
X028287Y026895D01*
X028297Y026833D01*
X028303Y026771D01*
X028305Y026708D01*
X028303Y026645D01*
X028297Y026583D01*
X028287Y026521D01*
X028274Y026459D01*
X028256Y026399D01*
X028235Y026340D01*
X028210Y026282D01*
X028181Y026226D01*
X028149Y026172D01*
X028114Y026120D01*
X028076Y026071D01*
X028034Y026023D01*
X027990Y025979D01*
X027942Y025937D01*
X027893Y025899D01*
X027841Y025864D01*
X027787Y025832D01*
X027731Y025803D01*
X027673Y025778D01*
X027614Y025757D01*
X027554Y025739D01*
X027492Y025726D01*
X027430Y025716D01*
X027368Y025710D01*
X027305Y025708D01*
X027242Y025710D01*
X027180Y025716D01*
X027118Y025726D01*
X027056Y025739D01*
X026996Y025757D01*
X026937Y025778D01*
X026879Y025803D01*
X026823Y025832D01*
X026769Y025864D01*
X026717Y025899D01*
X026668Y025937D01*
X026620Y025979D01*
X026576Y026023D01*
X026534Y026071D01*
X026496Y026120D01*
X026461Y026172D01*
X026429Y026226D01*
X026400Y026282D01*
X026375Y026340D01*
X026354Y026399D01*
X026336Y026459D01*
X026323Y026521D01*
X026313Y026583D01*
X026307Y026645D01*
X026305Y026708D01*
X026080Y029708D02*
X026082Y029781D01*
X026088Y029854D01*
X026098Y029926D01*
X026112Y029998D01*
X026129Y030069D01*
X026151Y030139D01*
X026176Y030208D01*
X026205Y030275D01*
X026237Y030340D01*
X026273Y030404D01*
X026313Y030466D01*
X026355Y030525D01*
X026401Y030582D01*
X026450Y030636D01*
X026502Y030688D01*
X026556Y030737D01*
X026613Y030783D01*
X026672Y030825D01*
X026734Y030865D01*
X026798Y030901D01*
X026863Y030933D01*
X026930Y030962D01*
X026999Y030987D01*
X027069Y031009D01*
X027140Y031026D01*
X027212Y031040D01*
X027284Y031050D01*
X027357Y031056D01*
X027430Y031058D01*
X027503Y031056D01*
X027576Y031050D01*
X027648Y031040D01*
X027720Y031026D01*
X027791Y031009D01*
X027861Y030987D01*
X027930Y030962D01*
X027997Y030933D01*
X028062Y030901D01*
X028126Y030865D01*
X028188Y030825D01*
X028247Y030783D01*
X028304Y030737D01*
X028358Y030688D01*
X028410Y030636D01*
X028459Y030582D01*
X028505Y030525D01*
X028547Y030466D01*
X028587Y030404D01*
X028623Y030340D01*
X028655Y030275D01*
X028684Y030208D01*
X028709Y030139D01*
X028731Y030069D01*
X028748Y029998D01*
X028762Y029926D01*
X028772Y029854D01*
X028778Y029781D01*
X028780Y029708D01*
X028778Y029635D01*
X028772Y029562D01*
X028762Y029490D01*
X028748Y029418D01*
X028731Y029347D01*
X028709Y029277D01*
X028684Y029208D01*
X028655Y029141D01*
X028623Y029076D01*
X028587Y029012D01*
X028547Y028950D01*
X028505Y028891D01*
X028459Y028834D01*
X028410Y028780D01*
X028358Y028728D01*
X028304Y028679D01*
X028247Y028633D01*
X028188Y028591D01*
X028126Y028551D01*
X028062Y028515D01*
X027997Y028483D01*
X027930Y028454D01*
X027861Y028429D01*
X027791Y028407D01*
X027720Y028390D01*
X027648Y028376D01*
X027576Y028366D01*
X027503Y028360D01*
X027430Y028358D01*
X027357Y028360D01*
X027284Y028366D01*
X027212Y028376D01*
X027140Y028390D01*
X027069Y028407D01*
X026999Y028429D01*
X026930Y028454D01*
X026863Y028483D01*
X026798Y028515D01*
X026734Y028551D01*
X026672Y028591D01*
X026613Y028633D01*
X026556Y028679D01*
X026502Y028728D01*
X026450Y028780D01*
X026401Y028834D01*
X026355Y028891D01*
X026313Y028950D01*
X026273Y029012D01*
X026237Y029076D01*
X026205Y029141D01*
X026176Y029208D01*
X026151Y029277D01*
X026129Y029347D01*
X026112Y029418D01*
X026098Y029490D01*
X026088Y029562D01*
X026082Y029635D01*
X026080Y029708D01*
X014655Y006663D02*
X014355Y006663D01*
X014355Y006433D01*
X011255Y006433D01*
X011255Y006663D01*
X010955Y006663D01*
X010955Y002963D01*
X014655Y002963D01*
X014655Y006663D01*
X012305Y004833D02*
X012307Y004877D01*
X012313Y004921D01*
X012323Y004964D01*
X012336Y005006D01*
X012353Y005047D01*
X012374Y005086D01*
X012398Y005123D01*
X012425Y005158D01*
X012455Y005190D01*
X012488Y005220D01*
X012524Y005246D01*
X012561Y005270D01*
X012601Y005289D01*
X012642Y005306D01*
X012685Y005318D01*
X012728Y005327D01*
X012772Y005332D01*
X012816Y005333D01*
X012860Y005330D01*
X012904Y005323D01*
X012947Y005312D01*
X012989Y005298D01*
X013029Y005280D01*
X013068Y005258D01*
X013104Y005234D01*
X013138Y005206D01*
X013170Y005175D01*
X013199Y005141D01*
X013225Y005105D01*
X013247Y005067D01*
X013266Y005027D01*
X013281Y004985D01*
X013293Y004943D01*
X013301Y004899D01*
X013305Y004855D01*
X013305Y004811D01*
X013301Y004767D01*
X013293Y004723D01*
X013281Y004681D01*
X013266Y004639D01*
X013247Y004599D01*
X013225Y004561D01*
X013199Y004525D01*
X013170Y004491D01*
X013138Y004460D01*
X013104Y004432D01*
X013068Y004408D01*
X013029Y004386D01*
X012989Y004368D01*
X012947Y004354D01*
X012904Y004343D01*
X012860Y004336D01*
X012816Y004333D01*
X012772Y004334D01*
X012728Y004339D01*
X012685Y004348D01*
X012642Y004360D01*
X012601Y004377D01*
X012561Y004396D01*
X012524Y004420D01*
X012488Y004446D01*
X012455Y004476D01*
X012425Y004508D01*
X012398Y004543D01*
X012374Y004580D01*
X012353Y004619D01*
X012336Y004660D01*
X012323Y004702D01*
X012313Y004745D01*
X012307Y004789D01*
X012305Y004833D01*
X012005Y003533D02*
X012005Y003133D01*
X011955Y003183D01*
X011955Y003333D01*
X011955Y003483D01*
X012005Y003533D01*
X011955Y003483D02*
X011905Y003433D01*
X011855Y003383D01*
X011855Y003283D01*
X011905Y003233D01*
X011955Y003183D01*
X011905Y003233D02*
X011905Y003433D01*
X011855Y003383D02*
X011805Y003333D01*
X011955Y003333D01*
X013805Y003333D01*
X011855Y003283D02*
X011805Y003333D01*
X018430Y004333D02*
X018432Y004396D01*
X018438Y004458D01*
X018448Y004520D01*
X018461Y004582D01*
X018479Y004642D01*
X018500Y004701D01*
X018525Y004759D01*
X018554Y004815D01*
X018586Y004869D01*
X018621Y004921D01*
X018659Y004970D01*
X018701Y005018D01*
X018745Y005062D01*
X018793Y005104D01*
X018842Y005142D01*
X018894Y005177D01*
X018948Y005209D01*
X019004Y005238D01*
X019062Y005263D01*
X019121Y005284D01*
X019181Y005302D01*
X019243Y005315D01*
X019305Y005325D01*
X019367Y005331D01*
X019430Y005333D01*
X019493Y005331D01*
X019555Y005325D01*
X019617Y005315D01*
X019679Y005302D01*
X019739Y005284D01*
X019798Y005263D01*
X019856Y005238D01*
X019912Y005209D01*
X019966Y005177D01*
X020018Y005142D01*
X020067Y005104D01*
X020115Y005062D01*
X020159Y005018D01*
X020201Y004970D01*
X020239Y004921D01*
X020274Y004869D01*
X020306Y004815D01*
X020335Y004759D01*
X020360Y004701D01*
X020381Y004642D01*
X020399Y004582D01*
X020412Y004520D01*
X020422Y004458D01*
X020428Y004396D01*
X020430Y004333D01*
X020428Y004270D01*
X020422Y004208D01*
X020412Y004146D01*
X020399Y004084D01*
X020381Y004024D01*
X020360Y003965D01*
X020335Y003907D01*
X020306Y003851D01*
X020274Y003797D01*
X020239Y003745D01*
X020201Y003696D01*
X020159Y003648D01*
X020115Y003604D01*
X020067Y003562D01*
X020018Y003524D01*
X019966Y003489D01*
X019912Y003457D01*
X019856Y003428D01*
X019798Y003403D01*
X019739Y003382D01*
X019679Y003364D01*
X019617Y003351D01*
X019555Y003341D01*
X019493Y003335D01*
X019430Y003333D01*
X019367Y003335D01*
X019305Y003341D01*
X019243Y003351D01*
X019181Y003364D01*
X019121Y003382D01*
X019062Y003403D01*
X019004Y003428D01*
X018948Y003457D01*
X018894Y003489D01*
X018842Y003524D01*
X018793Y003562D01*
X018745Y003604D01*
X018701Y003648D01*
X018659Y003696D01*
X018621Y003745D01*
X018586Y003797D01*
X018554Y003851D01*
X018525Y003907D01*
X018500Y003965D01*
X018479Y004024D01*
X018461Y004084D01*
X018448Y004146D01*
X018438Y004208D01*
X018432Y004270D01*
X018430Y004333D01*
X022680Y004083D02*
X022682Y004146D01*
X022688Y004208D01*
X022698Y004270D01*
X022711Y004332D01*
X022729Y004392D01*
X022750Y004451D01*
X022775Y004509D01*
X022804Y004565D01*
X022836Y004619D01*
X022871Y004671D01*
X022909Y004720D01*
X022951Y004768D01*
X022995Y004812D01*
X023043Y004854D01*
X023092Y004892D01*
X023144Y004927D01*
X023198Y004959D01*
X023254Y004988D01*
X023312Y005013D01*
X023371Y005034D01*
X023431Y005052D01*
X023493Y005065D01*
X023555Y005075D01*
X023617Y005081D01*
X023680Y005083D01*
X023743Y005081D01*
X023805Y005075D01*
X023867Y005065D01*
X023929Y005052D01*
X023989Y005034D01*
X024048Y005013D01*
X024106Y004988D01*
X024162Y004959D01*
X024216Y004927D01*
X024268Y004892D01*
X024317Y004854D01*
X024365Y004812D01*
X024409Y004768D01*
X024451Y004720D01*
X024489Y004671D01*
X024524Y004619D01*
X024556Y004565D01*
X024585Y004509D01*
X024610Y004451D01*
X024631Y004392D01*
X024649Y004332D01*
X024662Y004270D01*
X024672Y004208D01*
X024678Y004146D01*
X024680Y004083D01*
X024678Y004020D01*
X024672Y003958D01*
X024662Y003896D01*
X024649Y003834D01*
X024631Y003774D01*
X024610Y003715D01*
X024585Y003657D01*
X024556Y003601D01*
X024524Y003547D01*
X024489Y003495D01*
X024451Y003446D01*
X024409Y003398D01*
X024365Y003354D01*
X024317Y003312D01*
X024268Y003274D01*
X024216Y003239D01*
X024162Y003207D01*
X024106Y003178D01*
X024048Y003153D01*
X023989Y003132D01*
X023929Y003114D01*
X023867Y003101D01*
X023805Y003091D01*
X023743Y003085D01*
X023680Y003083D01*
X023617Y003085D01*
X023555Y003091D01*
X023493Y003101D01*
X023431Y003114D01*
X023371Y003132D01*
X023312Y003153D01*
X023254Y003178D01*
X023198Y003207D01*
X023144Y003239D01*
X023092Y003274D01*
X023043Y003312D01*
X022995Y003354D01*
X022951Y003398D01*
X022909Y003446D01*
X022871Y003495D01*
X022836Y003547D01*
X022804Y003601D01*
X022775Y003657D01*
X022750Y003715D01*
X022729Y003774D01*
X022711Y003834D01*
X022698Y003896D01*
X022688Y003958D01*
X022682Y004020D01*
X022680Y004083D01*
X026080Y004458D02*
X026082Y004531D01*
X026088Y004604D01*
X026098Y004676D01*
X026112Y004748D01*
X026129Y004819D01*
X026151Y004889D01*
X026176Y004958D01*
X026205Y005025D01*
X026237Y005090D01*
X026273Y005154D01*
X026313Y005216D01*
X026355Y005275D01*
X026401Y005332D01*
X026450Y005386D01*
X026502Y005438D01*
X026556Y005487D01*
X026613Y005533D01*
X026672Y005575D01*
X026734Y005615D01*
X026798Y005651D01*
X026863Y005683D01*
X026930Y005712D01*
X026999Y005737D01*
X027069Y005759D01*
X027140Y005776D01*
X027212Y005790D01*
X027284Y005800D01*
X027357Y005806D01*
X027430Y005808D01*
X027503Y005806D01*
X027576Y005800D01*
X027648Y005790D01*
X027720Y005776D01*
X027791Y005759D01*
X027861Y005737D01*
X027930Y005712D01*
X027997Y005683D01*
X028062Y005651D01*
X028126Y005615D01*
X028188Y005575D01*
X028247Y005533D01*
X028304Y005487D01*
X028358Y005438D01*
X028410Y005386D01*
X028459Y005332D01*
X028505Y005275D01*
X028547Y005216D01*
X028587Y005154D01*
X028623Y005090D01*
X028655Y005025D01*
X028684Y004958D01*
X028709Y004889D01*
X028731Y004819D01*
X028748Y004748D01*
X028762Y004676D01*
X028772Y004604D01*
X028778Y004531D01*
X028780Y004458D01*
X028778Y004385D01*
X028772Y004312D01*
X028762Y004240D01*
X028748Y004168D01*
X028731Y004097D01*
X028709Y004027D01*
X028684Y003958D01*
X028655Y003891D01*
X028623Y003826D01*
X028587Y003762D01*
X028547Y003700D01*
X028505Y003641D01*
X028459Y003584D01*
X028410Y003530D01*
X028358Y003478D01*
X028304Y003429D01*
X028247Y003383D01*
X028188Y003341D01*
X028126Y003301D01*
X028062Y003265D01*
X027997Y003233D01*
X027930Y003204D01*
X027861Y003179D01*
X027791Y003157D01*
X027720Y003140D01*
X027648Y003126D01*
X027576Y003116D01*
X027503Y003110D01*
X027430Y003108D01*
X027357Y003110D01*
X027284Y003116D01*
X027212Y003126D01*
X027140Y003140D01*
X027069Y003157D01*
X026999Y003179D01*
X026930Y003204D01*
X026863Y003233D01*
X026798Y003265D01*
X026734Y003301D01*
X026672Y003341D01*
X026613Y003383D01*
X026556Y003429D01*
X026502Y003478D01*
X026450Y003530D01*
X026401Y003584D01*
X026355Y003641D01*
X026313Y003700D01*
X026273Y003762D01*
X026237Y003826D01*
X026205Y003891D01*
X026176Y003958D01*
X026151Y004027D01*
X026129Y004097D01*
X026112Y004168D01*
X026098Y004240D01*
X026088Y004312D01*
X026082Y004385D01*
X026080Y004458D01*
X000955Y004333D02*
X000957Y004406D01*
X000963Y004479D01*
X000973Y004551D01*
X000987Y004623D01*
X001004Y004694D01*
X001026Y004764D01*
X001051Y004833D01*
X001080Y004900D01*
X001112Y004965D01*
X001148Y005029D01*
X001188Y005091D01*
X001230Y005150D01*
X001276Y005207D01*
X001325Y005261D01*
X001377Y005313D01*
X001431Y005362D01*
X001488Y005408D01*
X001547Y005450D01*
X001609Y005490D01*
X001673Y005526D01*
X001738Y005558D01*
X001805Y005587D01*
X001874Y005612D01*
X001944Y005634D01*
X002015Y005651D01*
X002087Y005665D01*
X002159Y005675D01*
X002232Y005681D01*
X002305Y005683D01*
X002378Y005681D01*
X002451Y005675D01*
X002523Y005665D01*
X002595Y005651D01*
X002666Y005634D01*
X002736Y005612D01*
X002805Y005587D01*
X002872Y005558D01*
X002937Y005526D01*
X003001Y005490D01*
X003063Y005450D01*
X003122Y005408D01*
X003179Y005362D01*
X003233Y005313D01*
X003285Y005261D01*
X003334Y005207D01*
X003380Y005150D01*
X003422Y005091D01*
X003462Y005029D01*
X003498Y004965D01*
X003530Y004900D01*
X003559Y004833D01*
X003584Y004764D01*
X003606Y004694D01*
X003623Y004623D01*
X003637Y004551D01*
X003647Y004479D01*
X003653Y004406D01*
X003655Y004333D01*
X003653Y004260D01*
X003647Y004187D01*
X003637Y004115D01*
X003623Y004043D01*
X003606Y003972D01*
X003584Y003902D01*
X003559Y003833D01*
X003530Y003766D01*
X003498Y003701D01*
X003462Y003637D01*
X003422Y003575D01*
X003380Y003516D01*
X003334Y003459D01*
X003285Y003405D01*
X003233Y003353D01*
X003179Y003304D01*
X003122Y003258D01*
X003063Y003216D01*
X003001Y003176D01*
X002937Y003140D01*
X002872Y003108D01*
X002805Y003079D01*
X002736Y003054D01*
X002666Y003032D01*
X002595Y003015D01*
X002523Y003001D01*
X002451Y002991D01*
X002378Y002985D01*
X002305Y002983D01*
X002232Y002985D01*
X002159Y002991D01*
X002087Y003001D01*
X002015Y003015D01*
X001944Y003032D01*
X001874Y003054D01*
X001805Y003079D01*
X001738Y003108D01*
X001673Y003140D01*
X001609Y003176D01*
X001547Y003216D01*
X001488Y003258D01*
X001431Y003304D01*
X001377Y003353D01*
X001325Y003405D01*
X001276Y003459D01*
X001230Y003516D01*
X001188Y003575D01*
X001148Y003637D01*
X001112Y003701D01*
X001080Y003766D01*
X001051Y003833D01*
X001026Y003902D01*
X001004Y003972D01*
X000987Y004043D01*
X000973Y004115D01*
X000963Y004187D01*
X000957Y004260D01*
X000955Y004333D01*
D12*
X005955Y023833D03*
X014280Y024083D03*
D13*
X015380Y022513D02*
X015305Y022438D01*
X015305Y022138D01*
X015380Y022063D01*
X015530Y022063D01*
X015605Y022138D01*
X015765Y022063D02*
X016066Y022063D01*
X015916Y022063D02*
X015916Y022513D01*
X015765Y022363D01*
X015605Y022438D02*
X015530Y022513D01*
X015380Y022513D01*
X018180Y025208D02*
X018180Y008958D01*
X028180Y008958D01*
X028180Y025208D01*
X018180Y025208D01*
X010680Y025208D02*
X000680Y025208D01*
X000680Y008958D01*
X010680Y008958D01*
X010680Y025208D01*
X004195Y022778D02*
X004195Y022703D01*
X004120Y022628D01*
X004195Y022553D01*
X004195Y022478D01*
X004120Y022403D01*
X003970Y022403D01*
X003895Y022478D01*
X003734Y022478D02*
X003659Y022403D01*
X003509Y022403D01*
X003434Y022478D01*
X003434Y022778D01*
X003509Y022853D01*
X003659Y022853D01*
X003734Y022778D01*
X003895Y022778D02*
X003970Y022853D01*
X004120Y022853D01*
X004195Y022778D01*
X004120Y022628D02*
X004045Y022628D01*
X004070Y011629D02*
X004070Y011329D01*
X003845Y011554D01*
X004295Y011554D01*
X004295Y011169D02*
X004295Y010868D01*
X004295Y011019D02*
X003845Y011019D01*
X003995Y010868D01*
X004070Y010708D02*
X004145Y010633D01*
X004145Y010408D01*
X004295Y010408D02*
X003845Y010408D01*
X003845Y010633D01*
X003920Y010708D01*
X004070Y010708D01*
X004145Y010558D02*
X004295Y010708D01*
X011120Y005658D02*
X011270Y005808D01*
X011270Y005358D01*
X011120Y005358D02*
X011420Y005358D01*
X012199Y005933D02*
X012274Y005858D01*
X012424Y005858D01*
X012499Y005933D01*
X012499Y006008D01*
X012424Y006083D01*
X012199Y006083D01*
X012199Y005933D01*
X012199Y006083D02*
X012349Y006233D01*
X012499Y006308D01*
X012659Y006233D02*
X012734Y006308D01*
X012884Y006308D01*
X012959Y006233D01*
X012959Y006158D01*
X012884Y006083D01*
X012959Y006008D01*
X012959Y005933D01*
X012884Y005858D01*
X012734Y005858D01*
X012659Y005933D01*
X012809Y006083D02*
X012884Y006083D01*
X013120Y006008D02*
X013345Y006008D01*
X013420Y006083D01*
X013420Y006233D01*
X013345Y006308D01*
X013120Y006308D01*
X013120Y005858D01*
X013870Y005733D02*
X013945Y005808D01*
X014095Y005808D01*
X014170Y005733D01*
X014170Y005658D01*
X014095Y005583D01*
X014170Y005508D01*
X014170Y005433D01*
X014095Y005358D01*
X013945Y005358D01*
X013870Y005433D01*
X014020Y005583D02*
X014095Y005583D01*
X015005Y003998D02*
X015005Y003698D01*
X015230Y003698D01*
X015155Y003848D01*
X015155Y003923D01*
X015230Y003998D01*
X015380Y003998D01*
X015455Y003923D01*
X015455Y003773D01*
X015380Y003698D01*
X015455Y003538D02*
X015455Y003237D01*
X015455Y003387D02*
X015005Y003387D01*
X015155Y003237D01*
X015080Y003077D02*
X015230Y003077D01*
X015305Y003002D01*
X015305Y002777D01*
X015455Y002777D02*
X015005Y002777D01*
X015005Y003002D01*
X015080Y003077D01*
X015305Y002927D02*
X015455Y003077D01*
X011559Y003183D02*
X011484Y003108D01*
X011334Y003108D01*
X011259Y003183D01*
X011409Y003333D02*
X011484Y003333D01*
X011559Y003258D01*
X011559Y003183D01*
X011484Y003333D02*
X011559Y003408D01*
X011559Y003483D01*
X011484Y003558D01*
X011334Y003558D01*
X011259Y003483D01*
X012845Y010408D02*
X012845Y010633D01*
X012920Y010708D01*
X013070Y010708D01*
X013145Y010633D01*
X013145Y010408D01*
X013295Y010408D02*
X012845Y010408D01*
X013145Y010558D02*
X013295Y010708D01*
X013295Y010868D02*
X013295Y011169D01*
X013295Y011019D02*
X012845Y011019D01*
X012995Y010868D01*
X013070Y011329D02*
X013070Y011554D01*
X013145Y011629D01*
X013220Y011629D01*
X013295Y011554D01*
X013295Y011404D01*
X013220Y011329D01*
X013070Y011329D01*
X012920Y011479D01*
X012845Y011629D01*
X021345Y011554D02*
X021345Y011404D01*
X021420Y011329D01*
X021495Y011329D01*
X021570Y011404D01*
X021570Y011629D01*
X021720Y011629D02*
X021420Y011629D01*
X021345Y011554D01*
X021720Y011629D02*
X021795Y011554D01*
X021795Y011404D01*
X021720Y011329D01*
X021795Y011169D02*
X021795Y010868D01*
X021795Y011019D02*
X021345Y011019D01*
X021495Y010868D01*
X021420Y010708D02*
X021570Y010708D01*
X021645Y010633D01*
X021645Y010408D01*
X021795Y010408D02*
X021345Y010408D01*
X021345Y010633D01*
X021420Y010708D01*
X021645Y010558D02*
X021795Y010708D01*
D14*
X022185Y005850D02*
X022185Y005543D01*
X022185Y005696D02*
X021725Y005696D01*
X021878Y005543D01*
X021801Y005389D02*
X021725Y005312D01*
X021725Y005082D01*
X022185Y005082D01*
X022032Y005082D02*
X022032Y005312D01*
X021955Y005389D01*
X021801Y005389D01*
X022032Y005236D02*
X022185Y005389D01*
X028325Y008978D02*
X028708Y008978D01*
X028785Y009055D01*
X028785Y009208D01*
X028708Y009285D01*
X028325Y009285D01*
X028401Y009438D02*
X028325Y009515D01*
X028325Y009669D01*
X028401Y009745D01*
X028555Y009669D02*
X028555Y009515D01*
X028478Y009438D01*
X028401Y009438D01*
X028248Y009592D02*
X028862Y009592D01*
X028785Y009515D02*
X028785Y009669D01*
X028708Y009745D01*
X028632Y009745D01*
X028555Y009669D01*
X028555Y009899D02*
X028478Y010052D01*
X028478Y010129D01*
X028555Y010206D01*
X028708Y010206D01*
X028785Y010129D01*
X028785Y009976D01*
X028708Y009899D01*
X028555Y009899D02*
X028325Y009899D01*
X028325Y010206D01*
X028785Y009515D02*
X028708Y009438D01*
X024971Y027003D02*
X024971Y027080D01*
X025278Y027387D01*
X025278Y027463D01*
X024971Y027463D01*
X024664Y027463D02*
X024510Y027310D01*
X024357Y027387D02*
X024280Y027463D01*
X024050Y027463D01*
X024050Y027003D01*
X024050Y027157D02*
X024280Y027157D01*
X024357Y027233D01*
X024357Y027387D01*
X024203Y027157D02*
X024357Y027003D01*
X024510Y027003D02*
X024817Y027003D01*
X024664Y027003D02*
X024664Y027463D01*
X017192Y027213D02*
X017039Y027137D01*
X016885Y026983D01*
X017116Y026983D01*
X017192Y026907D01*
X017192Y026830D01*
X017116Y026753D01*
X016962Y026753D01*
X016885Y026830D01*
X016885Y026983D01*
X016732Y026983D02*
X016655Y026907D01*
X016425Y026907D01*
X016578Y026907D02*
X016732Y026753D01*
X016732Y026983D02*
X016732Y027137D01*
X016655Y027213D01*
X016425Y027213D01*
X016425Y026753D01*
X013308Y017431D02*
X013385Y017354D01*
X013385Y017201D01*
X013308Y017124D01*
X013385Y016970D02*
X013385Y016663D01*
X013385Y016510D02*
X013232Y016357D01*
X013232Y016433D02*
X013232Y016203D01*
X013385Y016203D02*
X012925Y016203D01*
X012925Y016433D01*
X013001Y016510D01*
X013155Y016510D01*
X013232Y016433D01*
X013078Y016663D02*
X012925Y016817D01*
X013385Y016817D01*
X013001Y017124D02*
X012925Y017201D01*
X012925Y017354D01*
X013001Y017431D01*
X013078Y017431D01*
X013155Y017354D01*
X013232Y017431D01*
X013308Y017431D01*
X013155Y017354D02*
X013155Y017277D01*
X013285Y015745D02*
X013285Y015438D01*
X012978Y015745D01*
X012901Y015745D01*
X012825Y015669D01*
X012825Y015515D01*
X012901Y015438D01*
X012901Y015285D02*
X012825Y015208D01*
X012825Y015055D01*
X012901Y014978D01*
X013208Y014978D01*
X013285Y015055D01*
X013285Y015208D01*
X013208Y015285D01*
X012901Y015285D01*
X013132Y015132D02*
X013285Y015285D01*
X011208Y010206D02*
X011285Y010129D01*
X011285Y009976D01*
X011208Y009899D01*
X011208Y009745D02*
X011132Y009745D01*
X011055Y009669D01*
X011055Y009515D01*
X010978Y009438D01*
X010901Y009438D01*
X010825Y009515D01*
X010825Y009669D01*
X010901Y009745D01*
X010901Y009899D02*
X010825Y009976D01*
X010825Y010129D01*
X010901Y010206D01*
X010978Y010206D01*
X011055Y010129D01*
X011132Y010206D01*
X011208Y010206D01*
X011055Y010129D02*
X011055Y010052D01*
X011208Y009745D02*
X011285Y009669D01*
X011285Y009515D01*
X011208Y009438D01*
X011208Y009285D02*
X010825Y009285D01*
X010825Y008978D02*
X011208Y008978D01*
X011285Y009055D01*
X011285Y009208D01*
X011208Y009285D01*
X011362Y009592D02*
X010748Y009592D01*
X005416Y006463D02*
X005416Y006003D01*
X005492Y006233D02*
X005185Y006233D01*
X005416Y006463D01*
X005032Y006387D02*
X004955Y006463D01*
X004802Y006463D01*
X004725Y006387D01*
X004725Y006080D01*
X004802Y006003D01*
X004955Y006003D01*
X005032Y006080D01*
X004117Y006387D02*
X003810Y006080D01*
X003810Y006003D01*
X003657Y006080D02*
X003580Y006003D01*
X003427Y006003D01*
X003350Y006080D01*
X003350Y006387D01*
X003427Y006463D01*
X003580Y006463D01*
X003657Y006387D01*
X003810Y006463D02*
X004117Y006463D01*
X004117Y006387D01*
X002492Y006435D02*
X002492Y006512D01*
X002416Y006588D01*
X002262Y006588D01*
X002185Y006512D01*
X002032Y006512D02*
X001955Y006588D01*
X001802Y006588D01*
X001725Y006512D01*
X001725Y006205D01*
X001802Y006128D01*
X001955Y006128D01*
X002032Y006205D01*
X002185Y006128D02*
X002492Y006435D01*
X002492Y006128D02*
X002185Y006128D01*
X004304Y025828D02*
X004304Y026288D01*
X004534Y026288D01*
X004611Y026212D01*
X004611Y026058D01*
X004534Y025982D01*
X004304Y025982D01*
X004458Y025982D02*
X004611Y025828D01*
X004765Y026058D02*
X005072Y026058D01*
X004995Y025828D02*
X004995Y026288D01*
X004765Y026058D01*
D15*
X001550Y029583D02*
X001552Y029633D01*
X001558Y029683D01*
X001568Y029732D01*
X001582Y029780D01*
X001599Y029827D01*
X001620Y029872D01*
X001645Y029916D01*
X001673Y029957D01*
X001705Y029996D01*
X001739Y030033D01*
X001776Y030067D01*
X001816Y030097D01*
X001858Y030124D01*
X001902Y030148D01*
X001948Y030169D01*
X001995Y030185D01*
X002043Y030198D01*
X002093Y030207D01*
X002142Y030212D01*
X002193Y030213D01*
X002243Y030210D01*
X002292Y030203D01*
X002341Y030192D01*
X002389Y030177D01*
X002435Y030159D01*
X002480Y030137D01*
X002523Y030111D01*
X002564Y030082D01*
X002603Y030050D01*
X002639Y030015D01*
X002671Y029977D01*
X002701Y029937D01*
X002728Y029894D01*
X002751Y029850D01*
X002770Y029804D01*
X002786Y029756D01*
X002798Y029707D01*
X002806Y029658D01*
X002810Y029608D01*
X002810Y029558D01*
X002806Y029508D01*
X002798Y029459D01*
X002786Y029410D01*
X002770Y029362D01*
X002751Y029316D01*
X002728Y029272D01*
X002701Y029229D01*
X002671Y029189D01*
X002639Y029151D01*
X002603Y029116D01*
X002564Y029084D01*
X002523Y029055D01*
X002480Y029029D01*
X002435Y029007D01*
X002389Y028989D01*
X002341Y028974D01*
X002292Y028963D01*
X002243Y028956D01*
X002193Y028953D01*
X002142Y028954D01*
X002093Y028959D01*
X002043Y028968D01*
X001995Y028981D01*
X001948Y028997D01*
X001902Y029018D01*
X001858Y029042D01*
X001816Y029069D01*
X001776Y029099D01*
X001739Y029133D01*
X001705Y029170D01*
X001673Y029209D01*
X001645Y029250D01*
X001620Y029294D01*
X001599Y029339D01*
X001582Y029386D01*
X001568Y029434D01*
X001558Y029483D01*
X001552Y029533D01*
X001550Y029583D01*
X001180Y027458D02*
X001180Y025958D01*
X018555Y027958D02*
X020055Y027958D01*
X026800Y029708D02*
X026802Y029758D01*
X026808Y029808D01*
X026818Y029857D01*
X026832Y029905D01*
X026849Y029952D01*
X026870Y029997D01*
X026895Y030041D01*
X026923Y030082D01*
X026955Y030121D01*
X026989Y030158D01*
X027026Y030192D01*
X027066Y030222D01*
X027108Y030249D01*
X027152Y030273D01*
X027198Y030294D01*
X027245Y030310D01*
X027293Y030323D01*
X027343Y030332D01*
X027392Y030337D01*
X027443Y030338D01*
X027493Y030335D01*
X027542Y030328D01*
X027591Y030317D01*
X027639Y030302D01*
X027685Y030284D01*
X027730Y030262D01*
X027773Y030236D01*
X027814Y030207D01*
X027853Y030175D01*
X027889Y030140D01*
X027921Y030102D01*
X027951Y030062D01*
X027978Y030019D01*
X028001Y029975D01*
X028020Y029929D01*
X028036Y029881D01*
X028048Y029832D01*
X028056Y029783D01*
X028060Y029733D01*
X028060Y029683D01*
X028056Y029633D01*
X028048Y029584D01*
X028036Y029535D01*
X028020Y029487D01*
X028001Y029441D01*
X027978Y029397D01*
X027951Y029354D01*
X027921Y029314D01*
X027889Y029276D01*
X027853Y029241D01*
X027814Y029209D01*
X027773Y029180D01*
X027730Y029154D01*
X027685Y029132D01*
X027639Y029114D01*
X027591Y029099D01*
X027542Y029088D01*
X027493Y029081D01*
X027443Y029078D01*
X027392Y029079D01*
X027343Y029084D01*
X027293Y029093D01*
X027245Y029106D01*
X027198Y029122D01*
X027152Y029143D01*
X027108Y029167D01*
X027066Y029194D01*
X027026Y029224D01*
X026989Y029258D01*
X026955Y029295D01*
X026923Y029334D01*
X026895Y029375D01*
X026870Y029419D01*
X026849Y029464D01*
X026832Y029511D01*
X026818Y029559D01*
X026808Y029608D01*
X026802Y029658D01*
X026800Y029708D01*
X028305Y027458D02*
X028305Y025958D01*
X026800Y004458D02*
X026802Y004508D01*
X026808Y004558D01*
X026818Y004607D01*
X026832Y004655D01*
X026849Y004702D01*
X026870Y004747D01*
X026895Y004791D01*
X026923Y004832D01*
X026955Y004871D01*
X026989Y004908D01*
X027026Y004942D01*
X027066Y004972D01*
X027108Y004999D01*
X027152Y005023D01*
X027198Y005044D01*
X027245Y005060D01*
X027293Y005073D01*
X027343Y005082D01*
X027392Y005087D01*
X027443Y005088D01*
X027493Y005085D01*
X027542Y005078D01*
X027591Y005067D01*
X027639Y005052D01*
X027685Y005034D01*
X027730Y005012D01*
X027773Y004986D01*
X027814Y004957D01*
X027853Y004925D01*
X027889Y004890D01*
X027921Y004852D01*
X027951Y004812D01*
X027978Y004769D01*
X028001Y004725D01*
X028020Y004679D01*
X028036Y004631D01*
X028048Y004582D01*
X028056Y004533D01*
X028060Y004483D01*
X028060Y004433D01*
X028056Y004383D01*
X028048Y004334D01*
X028036Y004285D01*
X028020Y004237D01*
X028001Y004191D01*
X027978Y004147D01*
X027951Y004104D01*
X027921Y004064D01*
X027889Y004026D01*
X027853Y003991D01*
X027814Y003959D01*
X027773Y003930D01*
X027730Y003904D01*
X027685Y003882D01*
X027639Y003864D01*
X027591Y003849D01*
X027542Y003838D01*
X027493Y003831D01*
X027443Y003828D01*
X027392Y003829D01*
X027343Y003834D01*
X027293Y003843D01*
X027245Y003856D01*
X027198Y003872D01*
X027152Y003893D01*
X027108Y003917D01*
X027066Y003944D01*
X027026Y003974D01*
X026989Y004008D01*
X026955Y004045D01*
X026923Y004084D01*
X026895Y004125D01*
X026870Y004169D01*
X026849Y004214D01*
X026832Y004261D01*
X026818Y004309D01*
X026808Y004358D01*
X026802Y004408D01*
X026800Y004458D01*
X024430Y003083D02*
X022930Y003083D01*
X020180Y003333D02*
X018680Y003333D01*
X001675Y004333D02*
X001677Y004383D01*
X001683Y004433D01*
X001693Y004482D01*
X001707Y004530D01*
X001724Y004577D01*
X001745Y004622D01*
X001770Y004666D01*
X001798Y004707D01*
X001830Y004746D01*
X001864Y004783D01*
X001901Y004817D01*
X001941Y004847D01*
X001983Y004874D01*
X002027Y004898D01*
X002073Y004919D01*
X002120Y004935D01*
X002168Y004948D01*
X002218Y004957D01*
X002267Y004962D01*
X002318Y004963D01*
X002368Y004960D01*
X002417Y004953D01*
X002466Y004942D01*
X002514Y004927D01*
X002560Y004909D01*
X002605Y004887D01*
X002648Y004861D01*
X002689Y004832D01*
X002728Y004800D01*
X002764Y004765D01*
X002796Y004727D01*
X002826Y004687D01*
X002853Y004644D01*
X002876Y004600D01*
X002895Y004554D01*
X002911Y004506D01*
X002923Y004457D01*
X002931Y004408D01*
X002935Y004358D01*
X002935Y004308D01*
X002931Y004258D01*
X002923Y004209D01*
X002911Y004160D01*
X002895Y004112D01*
X002876Y004066D01*
X002853Y004022D01*
X002826Y003979D01*
X002796Y003939D01*
X002764Y003901D01*
X002728Y003866D01*
X002689Y003834D01*
X002648Y003805D01*
X002605Y003779D01*
X002560Y003757D01*
X002514Y003739D01*
X002466Y003724D01*
X002417Y003713D01*
X002368Y003706D01*
X002318Y003703D01*
X002267Y003704D01*
X002218Y003709D01*
X002168Y003718D01*
X002120Y003731D01*
X002073Y003747D01*
X002027Y003768D01*
X001983Y003792D01*
X001941Y003819D01*
X001901Y003849D01*
X001864Y003883D01*
X001830Y003920D01*
X001798Y003959D01*
X001770Y004000D01*
X001745Y004044D01*
X001724Y004089D01*
X001707Y004136D01*
X001693Y004184D01*
X001683Y004233D01*
X001677Y004283D01*
X001675Y004333D01*
D16*
X007180Y005937D02*
X007180Y007394D01*
X007180Y026647D02*
X007180Y028104D01*
X014680Y028104D02*
X014680Y026647D01*
X022055Y026647D02*
X022055Y028104D01*
D17*
X020992Y028025D02*
X020992Y028891D01*
X019024Y028812D02*
X019024Y031293D01*
X020992Y031293D01*
X020992Y033891D01*
X023118Y033891D01*
X023118Y031293D01*
X025086Y031293D01*
X025086Y028812D01*
X019024Y028812D01*
X017711Y028812D02*
X011649Y028812D01*
X011649Y031293D01*
X013617Y031293D01*
X013617Y033891D01*
X015743Y033891D01*
X015743Y031293D01*
X017711Y031293D01*
X017711Y028812D01*
X013617Y028891D02*
X013617Y028025D01*
X010211Y028812D02*
X004149Y028812D01*
X004149Y031293D01*
X006117Y031293D01*
X006117Y033891D01*
X008243Y033891D01*
X008243Y031293D01*
X010211Y031293D01*
X010211Y028812D01*
X006117Y028891D02*
X006117Y028025D01*
X008243Y006016D02*
X008243Y005150D01*
X010211Y005229D02*
X010211Y002748D01*
X008243Y002748D01*
X008243Y000150D01*
X006117Y000150D01*
X006117Y002748D01*
X004149Y002748D01*
X004149Y005229D01*
X010211Y005229D01*
D18*
X012555Y005083D02*
X013055Y004583D01*
D19*
X020210Y003301D02*
X020156Y003373D01*
X020157Y003372D02*
X020210Y003415D01*
X020261Y003460D01*
X020309Y003509D01*
X020354Y003560D01*
X020397Y003614D01*
X020436Y003670D01*
X020472Y003728D01*
X020505Y003788D01*
X020534Y003849D01*
X020559Y003913D01*
X020581Y003977D01*
X020600Y004043D01*
X020614Y004110D01*
X020625Y004177D01*
X020632Y004245D01*
X020635Y004313D01*
X020634Y004382D01*
X020629Y004450D01*
X020621Y004518D01*
X020608Y004585D01*
X020592Y004651D01*
X020572Y004716D01*
X020549Y004781D01*
X020522Y004843D01*
X020491Y004904D01*
X020457Y004963D01*
X020420Y005021D01*
X020379Y005076D01*
X020335Y005128D01*
X020289Y005178D01*
X020240Y005225D01*
X020188Y005270D01*
X020134Y005311D01*
X020077Y005350D01*
X020018Y005385D01*
X019958Y005416D01*
X019896Y005444D01*
X019832Y005469D01*
X019767Y005490D01*
X019701Y005507D01*
X019634Y005521D01*
X019566Y005530D01*
X019498Y005536D01*
X019430Y005538D01*
X019362Y005536D01*
X019294Y005530D01*
X019226Y005521D01*
X019159Y005507D01*
X019093Y005490D01*
X019028Y005469D01*
X018964Y005444D01*
X018902Y005416D01*
X018842Y005385D01*
X018783Y005350D01*
X018726Y005311D01*
X018672Y005270D01*
X018620Y005225D01*
X018571Y005178D01*
X018525Y005128D01*
X018481Y005076D01*
X018440Y005021D01*
X018403Y004963D01*
X018369Y004904D01*
X018338Y004843D01*
X018311Y004781D01*
X018288Y004716D01*
X018268Y004651D01*
X018252Y004585D01*
X018239Y004518D01*
X018231Y004450D01*
X018226Y004382D01*
X018225Y004313D01*
X018228Y004245D01*
X018235Y004177D01*
X018246Y004110D01*
X018260Y004043D01*
X018279Y003977D01*
X018301Y003913D01*
X018326Y003849D01*
X018355Y003788D01*
X018388Y003728D01*
X018424Y003670D01*
X018463Y003614D01*
X018506Y003560D01*
X018551Y003509D01*
X018599Y003460D01*
X018650Y003415D01*
X018703Y003372D01*
X018650Y003301D01*
X018649Y003300D01*
X018594Y003344D01*
X018541Y003392D01*
X018490Y003442D01*
X018443Y003495D01*
X018399Y003550D01*
X018357Y003608D01*
X018319Y003668D01*
X018284Y003729D01*
X018253Y003793D01*
X018225Y003858D01*
X018201Y003925D01*
X018180Y003993D01*
X018164Y004062D01*
X018151Y004132D01*
X018142Y004202D01*
X018136Y004273D01*
X018135Y004344D01*
X018138Y004415D01*
X018144Y004486D01*
X018154Y004556D01*
X018168Y004625D01*
X018186Y004694D01*
X018208Y004762D01*
X018233Y004828D01*
X018262Y004893D01*
X018295Y004956D01*
X018331Y005017D01*
X018370Y005076D01*
X018412Y005133D01*
X018457Y005188D01*
X018506Y005240D01*
X018557Y005289D01*
X018610Y005336D01*
X018667Y005379D01*
X018725Y005419D01*
X018786Y005456D01*
X018848Y005490D01*
X018912Y005520D01*
X018978Y005547D01*
X019045Y005570D01*
X019114Y005589D01*
X019183Y005604D01*
X019253Y005616D01*
X019324Y005624D01*
X019395Y005628D01*
X019465Y005628D01*
X019536Y005624D01*
X019607Y005616D01*
X019677Y005604D01*
X019746Y005589D01*
X019815Y005570D01*
X019882Y005547D01*
X019948Y005520D01*
X020012Y005490D01*
X020074Y005456D01*
X020135Y005419D01*
X020193Y005379D01*
X020250Y005336D01*
X020303Y005289D01*
X020354Y005240D01*
X020403Y005188D01*
X020448Y005133D01*
X020490Y005076D01*
X020529Y005017D01*
X020565Y004956D01*
X020598Y004893D01*
X020627Y004828D01*
X020652Y004762D01*
X020674Y004694D01*
X020692Y004625D01*
X020706Y004556D01*
X020716Y004486D01*
X020722Y004415D01*
X020725Y004344D01*
X020724Y004273D01*
X020718Y004202D01*
X020709Y004132D01*
X020696Y004062D01*
X020680Y003993D01*
X020659Y003925D01*
X020635Y003858D01*
X020607Y003793D01*
X020576Y003729D01*
X020541Y003668D01*
X020503Y003608D01*
X020461Y003550D01*
X020417Y003495D01*
X020370Y003442D01*
X020319Y003392D01*
X020266Y003344D01*
X020211Y003300D01*
X020206Y003307D01*
X020261Y003352D01*
X020314Y003399D01*
X020365Y003450D01*
X020412Y003503D01*
X020457Y003559D01*
X020498Y003617D01*
X020536Y003677D01*
X020571Y003739D01*
X020602Y003803D01*
X020629Y003869D01*
X020653Y003936D01*
X020673Y004005D01*
X020690Y004074D01*
X020702Y004144D01*
X020711Y004215D01*
X020715Y004286D01*
X020716Y004357D01*
X020712Y004428D01*
X020705Y004499D01*
X020694Y004570D01*
X020679Y004639D01*
X020660Y004708D01*
X020637Y004776D01*
X020611Y004842D01*
X020581Y004907D01*
X020547Y004969D01*
X020511Y005030D01*
X020470Y005089D01*
X020427Y005146D01*
X020380Y005200D01*
X020331Y005251D01*
X020278Y005299D01*
X020224Y005345D01*
X020166Y005387D01*
X020107Y005426D01*
X020045Y005462D01*
X019982Y005495D01*
X019917Y005523D01*
X019850Y005549D01*
X019782Y005570D01*
X019713Y005588D01*
X019643Y005601D01*
X019572Y005611D01*
X019501Y005617D01*
X019430Y005619D01*
X019359Y005617D01*
X019288Y005611D01*
X019217Y005601D01*
X019147Y005588D01*
X019078Y005570D01*
X019010Y005549D01*
X018943Y005523D01*
X018878Y005495D01*
X018815Y005462D01*
X018753Y005426D01*
X018694Y005387D01*
X018636Y005345D01*
X018582Y005299D01*
X018529Y005251D01*
X018480Y005200D01*
X018433Y005146D01*
X018390Y005089D01*
X018349Y005030D01*
X018313Y004969D01*
X018279Y004907D01*
X018249Y004842D01*
X018223Y004776D01*
X018200Y004708D01*
X018181Y004639D01*
X018166Y004570D01*
X018155Y004499D01*
X018148Y004428D01*
X018144Y004357D01*
X018145Y004286D01*
X018149Y004215D01*
X018158Y004144D01*
X018170Y004074D01*
X018187Y004005D01*
X018207Y003936D01*
X018231Y003869D01*
X018258Y003803D01*
X018289Y003739D01*
X018324Y003677D01*
X018362Y003617D01*
X018403Y003559D01*
X018448Y003503D01*
X018495Y003450D01*
X018546Y003399D01*
X018599Y003352D01*
X018654Y003307D01*
X018660Y003314D01*
X018605Y003359D01*
X018552Y003406D01*
X018502Y003456D01*
X018455Y003509D01*
X018411Y003564D01*
X018369Y003622D01*
X018332Y003681D01*
X018297Y003743D01*
X018266Y003807D01*
X018239Y003872D01*
X018215Y003939D01*
X018195Y004007D01*
X018179Y004076D01*
X018167Y004145D01*
X018158Y004216D01*
X018154Y004286D01*
X018153Y004357D01*
X018157Y004428D01*
X018164Y004498D01*
X018175Y004568D01*
X018190Y004637D01*
X018209Y004705D01*
X018231Y004773D01*
X018257Y004838D01*
X018287Y004903D01*
X018320Y004965D01*
X018357Y005025D01*
X018397Y005084D01*
X018440Y005140D01*
X018486Y005194D01*
X018536Y005244D01*
X018587Y005293D01*
X018642Y005338D01*
X018699Y005380D01*
X018758Y005419D01*
X018819Y005454D01*
X018882Y005487D01*
X018947Y005515D01*
X019013Y005540D01*
X019081Y005561D01*
X019149Y005579D01*
X019219Y005592D01*
X019289Y005602D01*
X019359Y005608D01*
X019430Y005610D01*
X019501Y005608D01*
X019571Y005602D01*
X019641Y005592D01*
X019711Y005579D01*
X019779Y005561D01*
X019847Y005540D01*
X019913Y005515D01*
X019978Y005487D01*
X020041Y005454D01*
X020102Y005419D01*
X020161Y005380D01*
X020218Y005338D01*
X020273Y005293D01*
X020324Y005244D01*
X020374Y005194D01*
X020420Y005140D01*
X020463Y005084D01*
X020503Y005025D01*
X020540Y004965D01*
X020573Y004903D01*
X020603Y004838D01*
X020629Y004773D01*
X020651Y004705D01*
X020670Y004637D01*
X020685Y004568D01*
X020696Y004498D01*
X020703Y004428D01*
X020707Y004357D01*
X020706Y004286D01*
X020702Y004216D01*
X020693Y004145D01*
X020681Y004076D01*
X020665Y004007D01*
X020645Y003939D01*
X020621Y003872D01*
X020594Y003807D01*
X020563Y003743D01*
X020528Y003681D01*
X020491Y003622D01*
X020449Y003564D01*
X020405Y003509D01*
X020358Y003456D01*
X020308Y003406D01*
X020255Y003359D01*
X020200Y003314D01*
X020195Y003322D01*
X020250Y003366D01*
X020303Y003414D01*
X020353Y003464D01*
X020401Y003517D01*
X020445Y003573D01*
X020486Y003631D01*
X020523Y003691D01*
X020558Y003753D01*
X020588Y003817D01*
X020615Y003883D01*
X020639Y003950D01*
X020658Y004018D01*
X020674Y004088D01*
X020686Y004158D01*
X020694Y004228D01*
X020698Y004299D01*
X020697Y004370D01*
X020693Y004441D01*
X020685Y004512D01*
X020673Y004582D01*
X020657Y004651D01*
X020638Y004719D01*
X020614Y004787D01*
X020587Y004852D01*
X020556Y004916D01*
X020522Y004978D01*
X020484Y005038D01*
X020442Y005096D01*
X020398Y005152D01*
X020351Y005205D01*
X020300Y005255D01*
X020247Y005302D01*
X020192Y005347D01*
X020134Y005388D01*
X020074Y005425D01*
X020011Y005460D01*
X019947Y005491D01*
X019882Y005518D01*
X019815Y005541D01*
X019746Y005561D01*
X019677Y005577D01*
X019607Y005589D01*
X019536Y005597D01*
X019466Y005601D01*
X019394Y005601D01*
X019324Y005597D01*
X019253Y005589D01*
X019183Y005577D01*
X019114Y005561D01*
X019045Y005541D01*
X018978Y005518D01*
X018913Y005491D01*
X018849Y005460D01*
X018786Y005425D01*
X018726Y005388D01*
X018668Y005347D01*
X018613Y005302D01*
X018560Y005255D01*
X018509Y005205D01*
X018462Y005152D01*
X018418Y005096D01*
X018376Y005038D01*
X018338Y004978D01*
X018304Y004916D01*
X018273Y004852D01*
X018246Y004787D01*
X018222Y004719D01*
X018203Y004651D01*
X018187Y004582D01*
X018175Y004512D01*
X018167Y004441D01*
X018163Y004370D01*
X018162Y004299D01*
X018166Y004228D01*
X018174Y004158D01*
X018186Y004088D01*
X018202Y004018D01*
X018221Y003950D01*
X018245Y003883D01*
X018272Y003817D01*
X018302Y003753D01*
X018337Y003691D01*
X018374Y003631D01*
X018415Y003573D01*
X018459Y003517D01*
X018507Y003464D01*
X018557Y003414D01*
X018610Y003366D01*
X018665Y003322D01*
X018671Y003329D01*
X018616Y003373D01*
X018563Y003420D01*
X018513Y003470D01*
X018466Y003523D01*
X018422Y003578D01*
X018382Y003636D01*
X018344Y003695D01*
X018310Y003757D01*
X018280Y003821D01*
X018253Y003886D01*
X018230Y003953D01*
X018210Y004021D01*
X018195Y004089D01*
X018183Y004159D01*
X018175Y004229D01*
X018171Y004300D01*
X018172Y004370D01*
X018176Y004441D01*
X018184Y004511D01*
X018196Y004580D01*
X018211Y004649D01*
X018231Y004717D01*
X018254Y004783D01*
X018281Y004848D01*
X018312Y004912D01*
X018346Y004974D01*
X018384Y005033D01*
X018425Y005091D01*
X018469Y005146D01*
X018516Y005199D01*
X018566Y005248D01*
X018618Y005295D01*
X018674Y005339D01*
X018731Y005380D01*
X018791Y005418D01*
X018853Y005452D01*
X018916Y005482D01*
X018981Y005509D01*
X019048Y005533D01*
X019116Y005552D01*
X019185Y005568D01*
X019254Y005580D01*
X019324Y005588D01*
X019395Y005592D01*
X019465Y005592D01*
X019536Y005588D01*
X019606Y005580D01*
X019675Y005568D01*
X019744Y005552D01*
X019812Y005533D01*
X019879Y005509D01*
X019944Y005482D01*
X020007Y005452D01*
X020069Y005418D01*
X020129Y005380D01*
X020186Y005339D01*
X020242Y005295D01*
X020294Y005248D01*
X020344Y005199D01*
X020391Y005146D01*
X020435Y005091D01*
X020476Y005033D01*
X020514Y004974D01*
X020548Y004912D01*
X020579Y004848D01*
X020606Y004783D01*
X020629Y004717D01*
X020649Y004649D01*
X020664Y004580D01*
X020676Y004511D01*
X020684Y004441D01*
X020688Y004370D01*
X020689Y004300D01*
X020685Y004229D01*
X020677Y004159D01*
X020665Y004089D01*
X020650Y004021D01*
X020630Y003953D01*
X020607Y003886D01*
X020580Y003821D01*
X020550Y003757D01*
X020516Y003695D01*
X020478Y003636D01*
X020438Y003578D01*
X020394Y003523D01*
X020347Y003470D01*
X020297Y003420D01*
X020244Y003373D01*
X020189Y003329D01*
X020184Y003336D01*
X020239Y003380D01*
X020291Y003427D01*
X020340Y003476D01*
X020387Y003529D01*
X020430Y003583D01*
X020471Y003641D01*
X020508Y003700D01*
X020542Y003761D01*
X020572Y003825D01*
X020599Y003889D01*
X020622Y003956D01*
X020641Y004023D01*
X020656Y004091D01*
X020668Y004160D01*
X020676Y004230D01*
X020680Y004300D01*
X020679Y004370D01*
X020675Y004440D01*
X020667Y004509D01*
X020656Y004578D01*
X020640Y004647D01*
X020621Y004714D01*
X020597Y004780D01*
X020570Y004845D01*
X020540Y004908D01*
X020506Y004969D01*
X020469Y005028D01*
X020428Y005086D01*
X020384Y005140D01*
X020338Y005192D01*
X020288Y005242D01*
X020236Y005289D01*
X020181Y005332D01*
X020124Y005373D01*
X020065Y005410D01*
X020003Y005444D01*
X019940Y005474D01*
X019875Y005501D01*
X019809Y005524D01*
X019742Y005543D01*
X019674Y005559D01*
X019605Y005571D01*
X019535Y005579D01*
X019465Y005583D01*
X019395Y005583D01*
X019325Y005579D01*
X019255Y005571D01*
X019186Y005559D01*
X019118Y005543D01*
X019051Y005524D01*
X018985Y005501D01*
X018920Y005474D01*
X018857Y005444D01*
X018795Y005410D01*
X018736Y005373D01*
X018679Y005332D01*
X018624Y005289D01*
X018572Y005242D01*
X018522Y005192D01*
X018476Y005140D01*
X018432Y005086D01*
X018391Y005028D01*
X018354Y004969D01*
X018320Y004908D01*
X018290Y004845D01*
X018263Y004780D01*
X018239Y004714D01*
X018220Y004647D01*
X018204Y004578D01*
X018193Y004509D01*
X018185Y004440D01*
X018181Y004370D01*
X018180Y004300D01*
X018184Y004230D01*
X018192Y004160D01*
X018204Y004091D01*
X018219Y004023D01*
X018238Y003956D01*
X018261Y003889D01*
X018288Y003825D01*
X018318Y003761D01*
X018352Y003700D01*
X018389Y003641D01*
X018430Y003583D01*
X018473Y003529D01*
X018520Y003476D01*
X018569Y003427D01*
X018621Y003380D01*
X018676Y003336D01*
X018681Y003343D01*
X018627Y003387D01*
X018575Y003433D01*
X018526Y003482D01*
X018480Y003534D01*
X018437Y003589D01*
X018397Y003646D01*
X018360Y003705D01*
X018326Y003766D01*
X018296Y003828D01*
X018270Y003893D01*
X018247Y003958D01*
X018228Y004025D01*
X018212Y004093D01*
X018201Y004162D01*
X018193Y004231D01*
X018189Y004300D01*
X018190Y004370D01*
X018194Y004439D01*
X018201Y004508D01*
X018213Y004577D01*
X018229Y004644D01*
X018248Y004711D01*
X018271Y004777D01*
X018298Y004841D01*
X018328Y004904D01*
X018362Y004965D01*
X018399Y005023D01*
X018439Y005080D01*
X018482Y005134D01*
X018529Y005186D01*
X018578Y005235D01*
X018630Y005282D01*
X018684Y005325D01*
X018741Y005365D01*
X018800Y005402D01*
X018861Y005436D01*
X018924Y005466D01*
X018988Y005493D01*
X019053Y005516D01*
X019120Y005535D01*
X019188Y005550D01*
X019257Y005562D01*
X019326Y005570D01*
X019395Y005574D01*
X019465Y005574D01*
X019534Y005570D01*
X019603Y005562D01*
X019672Y005550D01*
X019740Y005535D01*
X019807Y005516D01*
X019872Y005493D01*
X019936Y005466D01*
X019999Y005436D01*
X020060Y005402D01*
X020119Y005365D01*
X020176Y005325D01*
X020230Y005282D01*
X020282Y005235D01*
X020331Y005186D01*
X020378Y005134D01*
X020421Y005080D01*
X020461Y005023D01*
X020498Y004965D01*
X020532Y004904D01*
X020562Y004841D01*
X020589Y004777D01*
X020612Y004711D01*
X020631Y004644D01*
X020647Y004577D01*
X020659Y004508D01*
X020666Y004439D01*
X020670Y004370D01*
X020671Y004300D01*
X020667Y004231D01*
X020659Y004162D01*
X020648Y004093D01*
X020632Y004025D01*
X020613Y003958D01*
X020590Y003893D01*
X020564Y003828D01*
X020534Y003766D01*
X020500Y003705D01*
X020463Y003646D01*
X020423Y003589D01*
X020380Y003534D01*
X020334Y003482D01*
X020285Y003433D01*
X020233Y003387D01*
X020179Y003343D01*
X020173Y003350D01*
X020227Y003394D01*
X020278Y003440D01*
X020327Y003489D01*
X020373Y003540D01*
X020416Y003594D01*
X020456Y003651D01*
X020492Y003709D01*
X020526Y003770D01*
X020556Y003832D01*
X020582Y003896D01*
X020604Y003961D01*
X020623Y004027D01*
X020639Y004095D01*
X020650Y004163D01*
X020658Y004231D01*
X020662Y004300D01*
X020661Y004369D01*
X020657Y004438D01*
X020650Y004507D01*
X020638Y004575D01*
X020623Y004642D01*
X020603Y004709D01*
X020580Y004774D01*
X020554Y004837D01*
X020524Y004900D01*
X020491Y004960D01*
X020454Y005018D01*
X020414Y005075D01*
X020371Y005129D01*
X020325Y005180D01*
X020276Y005229D01*
X020224Y005275D01*
X020170Y005318D01*
X020114Y005358D01*
X020055Y005394D01*
X019995Y005428D01*
X019933Y005458D01*
X019869Y005484D01*
X019804Y005507D01*
X019737Y005526D01*
X019670Y005541D01*
X019602Y005553D01*
X019533Y005561D01*
X019465Y005565D01*
X019395Y005565D01*
X019327Y005561D01*
X019258Y005553D01*
X019190Y005541D01*
X019123Y005526D01*
X019056Y005507D01*
X018991Y005484D01*
X018927Y005458D01*
X018865Y005428D01*
X018805Y005394D01*
X018746Y005358D01*
X018690Y005318D01*
X018636Y005275D01*
X018584Y005229D01*
X018535Y005180D01*
X018489Y005129D01*
X018446Y005075D01*
X018406Y005018D01*
X018369Y004960D01*
X018336Y004900D01*
X018306Y004837D01*
X018280Y004774D01*
X018257Y004709D01*
X018237Y004642D01*
X018222Y004575D01*
X018210Y004507D01*
X018203Y004438D01*
X018199Y004369D01*
X018198Y004300D01*
X018202Y004231D01*
X018210Y004163D01*
X018221Y004095D01*
X018237Y004027D01*
X018256Y003961D01*
X018278Y003896D01*
X018304Y003832D01*
X018334Y003770D01*
X018368Y003709D01*
X018404Y003651D01*
X018444Y003594D01*
X018487Y003540D01*
X018533Y003489D01*
X018582Y003440D01*
X018633Y003394D01*
X018687Y003350D01*
X018692Y003358D01*
X018638Y003401D01*
X018587Y003447D01*
X018538Y003497D01*
X018492Y003548D01*
X018449Y003603D01*
X018409Y003660D01*
X018373Y003718D01*
X018339Y003779D01*
X018310Y003842D01*
X018284Y003906D01*
X018262Y003972D01*
X018243Y004039D01*
X018228Y004106D01*
X018217Y004175D01*
X018210Y004244D01*
X018207Y004313D01*
X018208Y004382D01*
X018213Y004452D01*
X018221Y004520D01*
X018234Y004588D01*
X018250Y004656D01*
X018271Y004722D01*
X018294Y004787D01*
X018322Y004851D01*
X018353Y004913D01*
X018388Y004973D01*
X018426Y005031D01*
X018467Y005087D01*
X018511Y005140D01*
X018558Y005191D01*
X018608Y005239D01*
X018661Y005284D01*
X018716Y005326D01*
X018773Y005365D01*
X018833Y005400D01*
X018894Y005432D01*
X018957Y005461D01*
X019022Y005486D01*
X019088Y005507D01*
X019155Y005525D01*
X019223Y005538D01*
X019292Y005548D01*
X019361Y005554D01*
X019430Y005556D01*
X019499Y005554D01*
X019568Y005548D01*
X019637Y005538D01*
X019705Y005525D01*
X019772Y005507D01*
X019838Y005486D01*
X019903Y005461D01*
X019966Y005432D01*
X020027Y005400D01*
X020087Y005365D01*
X020144Y005326D01*
X020199Y005284D01*
X020252Y005239D01*
X020302Y005191D01*
X020349Y005140D01*
X020393Y005087D01*
X020434Y005031D01*
X020472Y004973D01*
X020507Y004913D01*
X020538Y004851D01*
X020566Y004787D01*
X020589Y004722D01*
X020610Y004656D01*
X020626Y004588D01*
X020639Y004520D01*
X020647Y004452D01*
X020652Y004382D01*
X020653Y004313D01*
X020650Y004244D01*
X020643Y004175D01*
X020632Y004106D01*
X020617Y004039D01*
X020598Y003972D01*
X020576Y003906D01*
X020550Y003842D01*
X020521Y003779D01*
X020487Y003718D01*
X020451Y003660D01*
X020411Y003603D01*
X020368Y003548D01*
X020322Y003497D01*
X020273Y003447D01*
X020222Y003401D01*
X020168Y003358D01*
X020162Y003365D01*
X020216Y003408D01*
X020267Y003454D01*
X020316Y003503D01*
X020361Y003554D01*
X020404Y003608D01*
X020443Y003665D01*
X020480Y003723D01*
X020513Y003783D01*
X020542Y003846D01*
X020568Y003909D01*
X020590Y003975D01*
X020608Y004041D01*
X020623Y004108D01*
X020634Y004176D01*
X020641Y004245D01*
X020644Y004313D01*
X020643Y004382D01*
X020638Y004451D01*
X020630Y004519D01*
X020617Y004587D01*
X020601Y004653D01*
X020581Y004719D01*
X020557Y004784D01*
X020530Y004847D01*
X020499Y004908D01*
X020465Y004968D01*
X020427Y005026D01*
X020386Y005081D01*
X020342Y005134D01*
X020295Y005184D01*
X020246Y005232D01*
X020194Y005277D01*
X020139Y005319D01*
X020082Y005357D01*
X020023Y005392D01*
X019962Y005424D01*
X019899Y005453D01*
X019835Y005477D01*
X019769Y005499D01*
X019703Y005516D01*
X019635Y005529D01*
X019567Y005539D01*
X019499Y005545D01*
X019430Y005547D01*
X019361Y005545D01*
X019293Y005539D01*
X019225Y005529D01*
X019157Y005516D01*
X019091Y005499D01*
X019025Y005477D01*
X018961Y005453D01*
X018898Y005424D01*
X018837Y005392D01*
X018778Y005357D01*
X018721Y005319D01*
X018666Y005277D01*
X018614Y005232D01*
X018565Y005184D01*
X018518Y005134D01*
X018474Y005081D01*
X018433Y005026D01*
X018395Y004968D01*
X018361Y004908D01*
X018330Y004847D01*
X018303Y004784D01*
X018279Y004719D01*
X018259Y004653D01*
X018243Y004587D01*
X018230Y004519D01*
X018222Y004451D01*
X018217Y004382D01*
X018216Y004313D01*
X018219Y004245D01*
X018226Y004176D01*
X018237Y004108D01*
X018252Y004041D01*
X018270Y003975D01*
X018292Y003909D01*
X018318Y003846D01*
X018347Y003783D01*
X018380Y003723D01*
X018417Y003665D01*
X018456Y003608D01*
X018499Y003554D01*
X018544Y003503D01*
X018593Y003454D01*
X018644Y003408D01*
X018698Y003365D01*
X024460Y003051D02*
X024406Y003123D01*
X024407Y003122D02*
X024460Y003165D01*
X024511Y003210D01*
X024559Y003259D01*
X024604Y003310D01*
X024647Y003364D01*
X024686Y003420D01*
X024722Y003478D01*
X024755Y003538D01*
X024784Y003599D01*
X024809Y003663D01*
X024831Y003727D01*
X024850Y003793D01*
X024864Y003860D01*
X024875Y003927D01*
X024882Y003995D01*
X024885Y004063D01*
X024884Y004132D01*
X024879Y004200D01*
X024871Y004268D01*
X024858Y004335D01*
X024842Y004401D01*
X024822Y004466D01*
X024799Y004531D01*
X024772Y004593D01*
X024741Y004654D01*
X024707Y004713D01*
X024670Y004771D01*
X024629Y004826D01*
X024585Y004878D01*
X024539Y004928D01*
X024490Y004975D01*
X024438Y005020D01*
X024384Y005061D01*
X024327Y005100D01*
X024268Y005135D01*
X024208Y005166D01*
X024146Y005194D01*
X024082Y005219D01*
X024017Y005240D01*
X023951Y005257D01*
X023884Y005271D01*
X023816Y005280D01*
X023748Y005286D01*
X023680Y005288D01*
X023612Y005286D01*
X023544Y005280D01*
X023476Y005271D01*
X023409Y005257D01*
X023343Y005240D01*
X023278Y005219D01*
X023214Y005194D01*
X023152Y005166D01*
X023092Y005135D01*
X023033Y005100D01*
X022976Y005061D01*
X022922Y005020D01*
X022870Y004975D01*
X022821Y004928D01*
X022775Y004878D01*
X022731Y004826D01*
X022690Y004771D01*
X022653Y004713D01*
X022619Y004654D01*
X022588Y004593D01*
X022561Y004531D01*
X022538Y004466D01*
X022518Y004401D01*
X022502Y004335D01*
X022489Y004268D01*
X022481Y004200D01*
X022476Y004132D01*
X022475Y004063D01*
X022478Y003995D01*
X022485Y003927D01*
X022496Y003860D01*
X022510Y003793D01*
X022529Y003727D01*
X022551Y003663D01*
X022576Y003599D01*
X022605Y003538D01*
X022638Y003478D01*
X022674Y003420D01*
X022713Y003364D01*
X022756Y003310D01*
X022801Y003259D01*
X022849Y003210D01*
X022900Y003165D01*
X022953Y003122D01*
X022900Y003051D01*
X022899Y003050D01*
X022844Y003094D01*
X022791Y003142D01*
X022740Y003192D01*
X022693Y003245D01*
X022649Y003300D01*
X022607Y003358D01*
X022569Y003418D01*
X022534Y003479D01*
X022503Y003543D01*
X022475Y003608D01*
X022451Y003675D01*
X022430Y003743D01*
X022414Y003812D01*
X022401Y003882D01*
X022392Y003952D01*
X022386Y004023D01*
X022385Y004094D01*
X022388Y004165D01*
X022394Y004236D01*
X022404Y004306D01*
X022418Y004375D01*
X022436Y004444D01*
X022458Y004512D01*
X022483Y004578D01*
X022512Y004643D01*
X022545Y004706D01*
X022581Y004767D01*
X022620Y004826D01*
X022662Y004883D01*
X022707Y004938D01*
X022756Y004990D01*
X022807Y005039D01*
X022860Y005086D01*
X022917Y005129D01*
X022975Y005169D01*
X023036Y005206D01*
X023098Y005240D01*
X023162Y005270D01*
X023228Y005297D01*
X023295Y005320D01*
X023364Y005339D01*
X023433Y005354D01*
X023503Y005366D01*
X023574Y005374D01*
X023645Y005378D01*
X023715Y005378D01*
X023786Y005374D01*
X023857Y005366D01*
X023927Y005354D01*
X023996Y005339D01*
X024065Y005320D01*
X024132Y005297D01*
X024198Y005270D01*
X024262Y005240D01*
X024324Y005206D01*
X024385Y005169D01*
X024443Y005129D01*
X024500Y005086D01*
X024553Y005039D01*
X024604Y004990D01*
X024653Y004938D01*
X024698Y004883D01*
X024740Y004826D01*
X024779Y004767D01*
X024815Y004706D01*
X024848Y004643D01*
X024877Y004578D01*
X024902Y004512D01*
X024924Y004444D01*
X024942Y004375D01*
X024956Y004306D01*
X024966Y004236D01*
X024972Y004165D01*
X024975Y004094D01*
X024974Y004023D01*
X024968Y003952D01*
X024959Y003882D01*
X024946Y003812D01*
X024930Y003743D01*
X024909Y003675D01*
X024885Y003608D01*
X024857Y003543D01*
X024826Y003479D01*
X024791Y003418D01*
X024753Y003358D01*
X024711Y003300D01*
X024667Y003245D01*
X024620Y003192D01*
X024569Y003142D01*
X024516Y003094D01*
X024461Y003050D01*
X024456Y003057D01*
X024511Y003102D01*
X024564Y003149D01*
X024615Y003200D01*
X024662Y003253D01*
X024707Y003309D01*
X024748Y003367D01*
X024786Y003427D01*
X024821Y003489D01*
X024852Y003553D01*
X024879Y003619D01*
X024903Y003686D01*
X024923Y003755D01*
X024940Y003824D01*
X024952Y003894D01*
X024961Y003965D01*
X024965Y004036D01*
X024966Y004107D01*
X024962Y004178D01*
X024955Y004249D01*
X024944Y004320D01*
X024929Y004389D01*
X024910Y004458D01*
X024887Y004526D01*
X024861Y004592D01*
X024831Y004657D01*
X024797Y004719D01*
X024761Y004780D01*
X024720Y004839D01*
X024677Y004896D01*
X024630Y004950D01*
X024581Y005001D01*
X024528Y005049D01*
X024474Y005095D01*
X024416Y005137D01*
X024357Y005176D01*
X024295Y005212D01*
X024232Y005245D01*
X024167Y005273D01*
X024100Y005299D01*
X024032Y005320D01*
X023963Y005338D01*
X023893Y005351D01*
X023822Y005361D01*
X023751Y005367D01*
X023680Y005369D01*
X023609Y005367D01*
X023538Y005361D01*
X023467Y005351D01*
X023397Y005338D01*
X023328Y005320D01*
X023260Y005299D01*
X023193Y005273D01*
X023128Y005245D01*
X023065Y005212D01*
X023003Y005176D01*
X022944Y005137D01*
X022886Y005095D01*
X022832Y005049D01*
X022779Y005001D01*
X022730Y004950D01*
X022683Y004896D01*
X022640Y004839D01*
X022599Y004780D01*
X022563Y004719D01*
X022529Y004657D01*
X022499Y004592D01*
X022473Y004526D01*
X022450Y004458D01*
X022431Y004389D01*
X022416Y004320D01*
X022405Y004249D01*
X022398Y004178D01*
X022394Y004107D01*
X022395Y004036D01*
X022399Y003965D01*
X022408Y003894D01*
X022420Y003824D01*
X022437Y003755D01*
X022457Y003686D01*
X022481Y003619D01*
X022508Y003553D01*
X022539Y003489D01*
X022574Y003427D01*
X022612Y003367D01*
X022653Y003309D01*
X022698Y003253D01*
X022745Y003200D01*
X022796Y003149D01*
X022849Y003102D01*
X022904Y003057D01*
X022910Y003064D01*
X022855Y003109D01*
X022802Y003156D01*
X022752Y003206D01*
X022705Y003259D01*
X022661Y003314D01*
X022619Y003372D01*
X022582Y003431D01*
X022547Y003493D01*
X022516Y003557D01*
X022489Y003622D01*
X022465Y003689D01*
X022445Y003757D01*
X022429Y003826D01*
X022417Y003895D01*
X022408Y003966D01*
X022404Y004036D01*
X022403Y004107D01*
X022407Y004178D01*
X022414Y004248D01*
X022425Y004318D01*
X022440Y004387D01*
X022459Y004455D01*
X022481Y004523D01*
X022507Y004588D01*
X022537Y004653D01*
X022570Y004715D01*
X022607Y004775D01*
X022647Y004834D01*
X022690Y004890D01*
X022736Y004944D01*
X022786Y004994D01*
X022837Y005043D01*
X022892Y005088D01*
X022949Y005130D01*
X023008Y005169D01*
X023069Y005204D01*
X023132Y005237D01*
X023197Y005265D01*
X023263Y005290D01*
X023331Y005311D01*
X023399Y005329D01*
X023469Y005342D01*
X023539Y005352D01*
X023609Y005358D01*
X023680Y005360D01*
X023751Y005358D01*
X023821Y005352D01*
X023891Y005342D01*
X023961Y005329D01*
X024029Y005311D01*
X024097Y005290D01*
X024163Y005265D01*
X024228Y005237D01*
X024291Y005204D01*
X024352Y005169D01*
X024411Y005130D01*
X024468Y005088D01*
X024523Y005043D01*
X024574Y004994D01*
X024624Y004944D01*
X024670Y004890D01*
X024713Y004834D01*
X024753Y004775D01*
X024790Y004715D01*
X024823Y004653D01*
X024853Y004588D01*
X024879Y004523D01*
X024901Y004455D01*
X024920Y004387D01*
X024935Y004318D01*
X024946Y004248D01*
X024953Y004178D01*
X024957Y004107D01*
X024956Y004036D01*
X024952Y003966D01*
X024943Y003895D01*
X024931Y003826D01*
X024915Y003757D01*
X024895Y003689D01*
X024871Y003622D01*
X024844Y003557D01*
X024813Y003493D01*
X024778Y003431D01*
X024741Y003372D01*
X024699Y003314D01*
X024655Y003259D01*
X024608Y003206D01*
X024558Y003156D01*
X024505Y003109D01*
X024450Y003064D01*
X024445Y003072D01*
X024500Y003116D01*
X024553Y003164D01*
X024603Y003214D01*
X024651Y003267D01*
X024695Y003323D01*
X024736Y003381D01*
X024773Y003441D01*
X024808Y003503D01*
X024838Y003567D01*
X024865Y003633D01*
X024889Y003700D01*
X024908Y003768D01*
X024924Y003838D01*
X024936Y003908D01*
X024944Y003978D01*
X024948Y004049D01*
X024947Y004120D01*
X024943Y004191D01*
X024935Y004262D01*
X024923Y004332D01*
X024907Y004401D01*
X024888Y004469D01*
X024864Y004537D01*
X024837Y004602D01*
X024806Y004666D01*
X024772Y004728D01*
X024734Y004788D01*
X024692Y004846D01*
X024648Y004902D01*
X024601Y004955D01*
X024550Y005005D01*
X024497Y005052D01*
X024442Y005097D01*
X024384Y005138D01*
X024324Y005175D01*
X024261Y005210D01*
X024197Y005241D01*
X024132Y005268D01*
X024065Y005291D01*
X023996Y005311D01*
X023927Y005327D01*
X023857Y005339D01*
X023786Y005347D01*
X023716Y005351D01*
X023644Y005351D01*
X023574Y005347D01*
X023503Y005339D01*
X023433Y005327D01*
X023364Y005311D01*
X023295Y005291D01*
X023228Y005268D01*
X023163Y005241D01*
X023099Y005210D01*
X023036Y005175D01*
X022976Y005138D01*
X022918Y005097D01*
X022863Y005052D01*
X022810Y005005D01*
X022759Y004955D01*
X022712Y004902D01*
X022668Y004846D01*
X022626Y004788D01*
X022588Y004728D01*
X022554Y004666D01*
X022523Y004602D01*
X022496Y004537D01*
X022472Y004469D01*
X022453Y004401D01*
X022437Y004332D01*
X022425Y004262D01*
X022417Y004191D01*
X022413Y004120D01*
X022412Y004049D01*
X022416Y003978D01*
X022424Y003908D01*
X022436Y003838D01*
X022452Y003768D01*
X022471Y003700D01*
X022495Y003633D01*
X022522Y003567D01*
X022552Y003503D01*
X022587Y003441D01*
X022624Y003381D01*
X022665Y003323D01*
X022709Y003267D01*
X022757Y003214D01*
X022807Y003164D01*
X022860Y003116D01*
X022915Y003072D01*
X022921Y003079D01*
X022866Y003123D01*
X022813Y003170D01*
X022763Y003220D01*
X022716Y003273D01*
X022672Y003328D01*
X022632Y003386D01*
X022594Y003445D01*
X022560Y003507D01*
X022530Y003571D01*
X022503Y003636D01*
X022480Y003703D01*
X022460Y003771D01*
X022445Y003839D01*
X022433Y003909D01*
X022425Y003979D01*
X022421Y004050D01*
X022422Y004120D01*
X022426Y004191D01*
X022434Y004261D01*
X022446Y004330D01*
X022461Y004399D01*
X022481Y004467D01*
X022504Y004533D01*
X022531Y004598D01*
X022562Y004662D01*
X022596Y004724D01*
X022634Y004783D01*
X022675Y004841D01*
X022719Y004896D01*
X022766Y004949D01*
X022816Y004998D01*
X022868Y005045D01*
X022924Y005089D01*
X022981Y005130D01*
X023041Y005168D01*
X023103Y005202D01*
X023166Y005232D01*
X023231Y005259D01*
X023298Y005283D01*
X023366Y005302D01*
X023435Y005318D01*
X023504Y005330D01*
X023574Y005338D01*
X023645Y005342D01*
X023715Y005342D01*
X023786Y005338D01*
X023856Y005330D01*
X023925Y005318D01*
X023994Y005302D01*
X024062Y005283D01*
X024129Y005259D01*
X024194Y005232D01*
X024257Y005202D01*
X024319Y005168D01*
X024379Y005130D01*
X024436Y005089D01*
X024492Y005045D01*
X024544Y004998D01*
X024594Y004949D01*
X024641Y004896D01*
X024685Y004841D01*
X024726Y004783D01*
X024764Y004724D01*
X024798Y004662D01*
X024829Y004598D01*
X024856Y004533D01*
X024879Y004467D01*
X024899Y004399D01*
X024914Y004330D01*
X024926Y004261D01*
X024934Y004191D01*
X024938Y004120D01*
X024939Y004050D01*
X024935Y003979D01*
X024927Y003909D01*
X024915Y003839D01*
X024900Y003771D01*
X024880Y003703D01*
X024857Y003636D01*
X024830Y003571D01*
X024800Y003507D01*
X024766Y003445D01*
X024728Y003386D01*
X024688Y003328D01*
X024644Y003273D01*
X024597Y003220D01*
X024547Y003170D01*
X024494Y003123D01*
X024439Y003079D01*
X024434Y003086D01*
X024489Y003130D01*
X024541Y003177D01*
X024590Y003226D01*
X024637Y003279D01*
X024680Y003333D01*
X024721Y003391D01*
X024758Y003450D01*
X024792Y003511D01*
X024822Y003575D01*
X024849Y003639D01*
X024872Y003706D01*
X024891Y003773D01*
X024906Y003841D01*
X024918Y003910D01*
X024926Y003980D01*
X024930Y004050D01*
X024929Y004120D01*
X024925Y004190D01*
X024917Y004259D01*
X024906Y004328D01*
X024890Y004397D01*
X024871Y004464D01*
X024847Y004530D01*
X024820Y004595D01*
X024790Y004658D01*
X024756Y004719D01*
X024719Y004778D01*
X024678Y004836D01*
X024634Y004890D01*
X024588Y004942D01*
X024538Y004992D01*
X024486Y005039D01*
X024431Y005082D01*
X024374Y005123D01*
X024315Y005160D01*
X024253Y005194D01*
X024190Y005224D01*
X024125Y005251D01*
X024059Y005274D01*
X023992Y005293D01*
X023924Y005309D01*
X023855Y005321D01*
X023785Y005329D01*
X023715Y005333D01*
X023645Y005333D01*
X023575Y005329D01*
X023505Y005321D01*
X023436Y005309D01*
X023368Y005293D01*
X023301Y005274D01*
X023235Y005251D01*
X023170Y005224D01*
X023107Y005194D01*
X023045Y005160D01*
X022986Y005123D01*
X022929Y005082D01*
X022874Y005039D01*
X022822Y004992D01*
X022772Y004942D01*
X022726Y004890D01*
X022682Y004836D01*
X022641Y004778D01*
X022604Y004719D01*
X022570Y004658D01*
X022540Y004595D01*
X022513Y004530D01*
X022489Y004464D01*
X022470Y004397D01*
X022454Y004328D01*
X022443Y004259D01*
X022435Y004190D01*
X022431Y004120D01*
X022430Y004050D01*
X022434Y003980D01*
X022442Y003910D01*
X022454Y003841D01*
X022469Y003773D01*
X022488Y003706D01*
X022511Y003639D01*
X022538Y003575D01*
X022568Y003511D01*
X022602Y003450D01*
X022639Y003391D01*
X022680Y003333D01*
X022723Y003279D01*
X022770Y003226D01*
X022819Y003177D01*
X022871Y003130D01*
X022926Y003086D01*
X022931Y003093D01*
X022877Y003137D01*
X022825Y003183D01*
X022776Y003232D01*
X022730Y003284D01*
X022687Y003339D01*
X022647Y003396D01*
X022610Y003455D01*
X022576Y003516D01*
X022546Y003578D01*
X022520Y003643D01*
X022497Y003708D01*
X022478Y003775D01*
X022462Y003843D01*
X022451Y003912D01*
X022443Y003981D01*
X022439Y004050D01*
X022440Y004120D01*
X022444Y004189D01*
X022451Y004258D01*
X022463Y004327D01*
X022479Y004394D01*
X022498Y004461D01*
X022521Y004527D01*
X022548Y004591D01*
X022578Y004654D01*
X022612Y004715D01*
X022649Y004773D01*
X022689Y004830D01*
X022732Y004884D01*
X022779Y004936D01*
X022828Y004985D01*
X022880Y005032D01*
X022934Y005075D01*
X022991Y005115D01*
X023050Y005152D01*
X023111Y005186D01*
X023174Y005216D01*
X023238Y005243D01*
X023303Y005266D01*
X023370Y005285D01*
X023438Y005300D01*
X023507Y005312D01*
X023576Y005320D01*
X023645Y005324D01*
X023715Y005324D01*
X023784Y005320D01*
X023853Y005312D01*
X023922Y005300D01*
X023990Y005285D01*
X024057Y005266D01*
X024122Y005243D01*
X024186Y005216D01*
X024249Y005186D01*
X024310Y005152D01*
X024369Y005115D01*
X024426Y005075D01*
X024480Y005032D01*
X024532Y004985D01*
X024581Y004936D01*
X024628Y004884D01*
X024671Y004830D01*
X024711Y004773D01*
X024748Y004715D01*
X024782Y004654D01*
X024812Y004591D01*
X024839Y004527D01*
X024862Y004461D01*
X024881Y004394D01*
X024897Y004327D01*
X024909Y004258D01*
X024916Y004189D01*
X024920Y004120D01*
X024921Y004050D01*
X024917Y003981D01*
X024909Y003912D01*
X024898Y003843D01*
X024882Y003775D01*
X024863Y003708D01*
X024840Y003643D01*
X024814Y003578D01*
X024784Y003516D01*
X024750Y003455D01*
X024713Y003396D01*
X024673Y003339D01*
X024630Y003284D01*
X024584Y003232D01*
X024535Y003183D01*
X024483Y003137D01*
X024429Y003093D01*
X024423Y003100D01*
X024477Y003144D01*
X024528Y003190D01*
X024577Y003239D01*
X024623Y003290D01*
X024666Y003344D01*
X024706Y003401D01*
X024742Y003459D01*
X024776Y003520D01*
X024806Y003582D01*
X024832Y003646D01*
X024854Y003711D01*
X024873Y003777D01*
X024889Y003845D01*
X024900Y003913D01*
X024908Y003981D01*
X024912Y004050D01*
X024911Y004119D01*
X024907Y004188D01*
X024900Y004257D01*
X024888Y004325D01*
X024873Y004392D01*
X024853Y004459D01*
X024830Y004524D01*
X024804Y004587D01*
X024774Y004650D01*
X024741Y004710D01*
X024704Y004768D01*
X024664Y004825D01*
X024621Y004879D01*
X024575Y004930D01*
X024526Y004979D01*
X024474Y005025D01*
X024420Y005068D01*
X024364Y005108D01*
X024305Y005144D01*
X024245Y005178D01*
X024183Y005208D01*
X024119Y005234D01*
X024054Y005257D01*
X023987Y005276D01*
X023920Y005291D01*
X023852Y005303D01*
X023783Y005311D01*
X023715Y005315D01*
X023645Y005315D01*
X023577Y005311D01*
X023508Y005303D01*
X023440Y005291D01*
X023373Y005276D01*
X023306Y005257D01*
X023241Y005234D01*
X023177Y005208D01*
X023115Y005178D01*
X023055Y005144D01*
X022996Y005108D01*
X022940Y005068D01*
X022886Y005025D01*
X022834Y004979D01*
X022785Y004930D01*
X022739Y004879D01*
X022696Y004825D01*
X022656Y004768D01*
X022619Y004710D01*
X022586Y004650D01*
X022556Y004587D01*
X022530Y004524D01*
X022507Y004459D01*
X022487Y004392D01*
X022472Y004325D01*
X022460Y004257D01*
X022453Y004188D01*
X022449Y004119D01*
X022448Y004050D01*
X022452Y003981D01*
X022460Y003913D01*
X022471Y003845D01*
X022487Y003777D01*
X022506Y003711D01*
X022528Y003646D01*
X022554Y003582D01*
X022584Y003520D01*
X022618Y003459D01*
X022654Y003401D01*
X022694Y003344D01*
X022737Y003290D01*
X022783Y003239D01*
X022832Y003190D01*
X022883Y003144D01*
X022937Y003100D01*
X022942Y003108D01*
X022888Y003151D01*
X022837Y003197D01*
X022788Y003247D01*
X022742Y003298D01*
X022699Y003353D01*
X022659Y003410D01*
X022623Y003468D01*
X022589Y003529D01*
X022560Y003592D01*
X022534Y003656D01*
X022512Y003722D01*
X022493Y003789D01*
X022478Y003856D01*
X022467Y003925D01*
X022460Y003994D01*
X022457Y004063D01*
X022458Y004132D01*
X022463Y004202D01*
X022471Y004270D01*
X022484Y004338D01*
X022500Y004406D01*
X022521Y004472D01*
X022544Y004537D01*
X022572Y004601D01*
X022603Y004663D01*
X022638Y004723D01*
X022676Y004781D01*
X022717Y004837D01*
X022761Y004890D01*
X022808Y004941D01*
X022858Y004989D01*
X022911Y005034D01*
X022966Y005076D01*
X023023Y005115D01*
X023083Y005150D01*
X023144Y005182D01*
X023207Y005211D01*
X023272Y005236D01*
X023338Y005257D01*
X023405Y005275D01*
X023473Y005288D01*
X023542Y005298D01*
X023611Y005304D01*
X023680Y005306D01*
X023749Y005304D01*
X023818Y005298D01*
X023887Y005288D01*
X023955Y005275D01*
X024022Y005257D01*
X024088Y005236D01*
X024153Y005211D01*
X024216Y005182D01*
X024277Y005150D01*
X024337Y005115D01*
X024394Y005076D01*
X024449Y005034D01*
X024502Y004989D01*
X024552Y004941D01*
X024599Y004890D01*
X024643Y004837D01*
X024684Y004781D01*
X024722Y004723D01*
X024757Y004663D01*
X024788Y004601D01*
X024816Y004537D01*
X024839Y004472D01*
X024860Y004406D01*
X024876Y004338D01*
X024889Y004270D01*
X024897Y004202D01*
X024902Y004132D01*
X024903Y004063D01*
X024900Y003994D01*
X024893Y003925D01*
X024882Y003856D01*
X024867Y003789D01*
X024848Y003722D01*
X024826Y003656D01*
X024800Y003592D01*
X024771Y003529D01*
X024737Y003468D01*
X024701Y003410D01*
X024661Y003353D01*
X024618Y003298D01*
X024572Y003247D01*
X024523Y003197D01*
X024472Y003151D01*
X024418Y003108D01*
X024412Y003115D01*
X024466Y003158D01*
X024517Y003204D01*
X024566Y003253D01*
X024611Y003304D01*
X024654Y003358D01*
X024693Y003415D01*
X024730Y003473D01*
X024763Y003533D01*
X024792Y003596D01*
X024818Y003659D01*
X024840Y003725D01*
X024858Y003791D01*
X024873Y003858D01*
X024884Y003926D01*
X024891Y003995D01*
X024894Y004063D01*
X024893Y004132D01*
X024888Y004201D01*
X024880Y004269D01*
X024867Y004337D01*
X024851Y004403D01*
X024831Y004469D01*
X024807Y004534D01*
X024780Y004597D01*
X024749Y004658D01*
X024715Y004718D01*
X024677Y004776D01*
X024636Y004831D01*
X024592Y004884D01*
X024545Y004934D01*
X024496Y004982D01*
X024444Y005027D01*
X024389Y005069D01*
X024332Y005107D01*
X024273Y005142D01*
X024212Y005174D01*
X024149Y005203D01*
X024085Y005227D01*
X024019Y005249D01*
X023953Y005266D01*
X023885Y005279D01*
X023817Y005289D01*
X023749Y005295D01*
X023680Y005297D01*
X023611Y005295D01*
X023543Y005289D01*
X023475Y005279D01*
X023407Y005266D01*
X023341Y005249D01*
X023275Y005227D01*
X023211Y005203D01*
X023148Y005174D01*
X023087Y005142D01*
X023028Y005107D01*
X022971Y005069D01*
X022916Y005027D01*
X022864Y004982D01*
X022815Y004934D01*
X022768Y004884D01*
X022724Y004831D01*
X022683Y004776D01*
X022645Y004718D01*
X022611Y004658D01*
X022580Y004597D01*
X022553Y004534D01*
X022529Y004469D01*
X022509Y004403D01*
X022493Y004337D01*
X022480Y004269D01*
X022472Y004201D01*
X022467Y004132D01*
X022466Y004063D01*
X022469Y003995D01*
X022476Y003926D01*
X022487Y003858D01*
X022502Y003791D01*
X022520Y003725D01*
X022542Y003659D01*
X022568Y003596D01*
X022597Y003533D01*
X022630Y003473D01*
X022667Y003415D01*
X022706Y003358D01*
X022749Y003304D01*
X022794Y003253D01*
X022843Y003204D01*
X022894Y003158D01*
X022948Y003115D01*
X028337Y027488D02*
X028265Y027434D01*
X028266Y027435D02*
X028223Y027488D01*
X028178Y027539D01*
X028129Y027587D01*
X028078Y027632D01*
X028024Y027675D01*
X027968Y027714D01*
X027910Y027750D01*
X027850Y027783D01*
X027789Y027812D01*
X027725Y027837D01*
X027661Y027859D01*
X027595Y027878D01*
X027528Y027892D01*
X027461Y027903D01*
X027393Y027910D01*
X027325Y027913D01*
X027256Y027912D01*
X027188Y027907D01*
X027120Y027899D01*
X027053Y027886D01*
X026987Y027870D01*
X026922Y027850D01*
X026857Y027827D01*
X026795Y027800D01*
X026734Y027769D01*
X026675Y027735D01*
X026617Y027698D01*
X026562Y027657D01*
X026510Y027613D01*
X026460Y027567D01*
X026413Y027518D01*
X026368Y027466D01*
X026327Y027412D01*
X026288Y027355D01*
X026253Y027296D01*
X026222Y027236D01*
X026194Y027174D01*
X026169Y027110D01*
X026148Y027045D01*
X026131Y026979D01*
X026117Y026912D01*
X026108Y026844D01*
X026102Y026776D01*
X026100Y026708D01*
X026102Y026640D01*
X026108Y026572D01*
X026117Y026504D01*
X026131Y026437D01*
X026148Y026371D01*
X026169Y026306D01*
X026194Y026242D01*
X026222Y026180D01*
X026253Y026120D01*
X026288Y026061D01*
X026327Y026004D01*
X026368Y025950D01*
X026413Y025898D01*
X026460Y025849D01*
X026510Y025803D01*
X026562Y025759D01*
X026617Y025718D01*
X026675Y025681D01*
X026734Y025647D01*
X026795Y025616D01*
X026857Y025589D01*
X026922Y025566D01*
X026987Y025546D01*
X027053Y025530D01*
X027120Y025517D01*
X027188Y025509D01*
X027256Y025504D01*
X027325Y025503D01*
X027393Y025506D01*
X027461Y025513D01*
X027528Y025524D01*
X027595Y025538D01*
X027661Y025557D01*
X027725Y025579D01*
X027789Y025604D01*
X027850Y025633D01*
X027910Y025666D01*
X027968Y025702D01*
X028024Y025741D01*
X028078Y025784D01*
X028129Y025829D01*
X028178Y025877D01*
X028223Y025928D01*
X028266Y025981D01*
X028337Y025928D01*
X028338Y025927D01*
X028294Y025872D01*
X028246Y025819D01*
X028196Y025768D01*
X028143Y025721D01*
X028088Y025677D01*
X028030Y025635D01*
X027970Y025597D01*
X027909Y025562D01*
X027845Y025531D01*
X027780Y025503D01*
X027713Y025479D01*
X027645Y025458D01*
X027576Y025442D01*
X027506Y025429D01*
X027436Y025420D01*
X027365Y025414D01*
X027294Y025413D01*
X027223Y025416D01*
X027152Y025422D01*
X027082Y025432D01*
X027013Y025446D01*
X026944Y025464D01*
X026876Y025486D01*
X026810Y025511D01*
X026745Y025540D01*
X026682Y025573D01*
X026621Y025609D01*
X026562Y025648D01*
X026505Y025690D01*
X026450Y025735D01*
X026398Y025784D01*
X026349Y025835D01*
X026302Y025888D01*
X026259Y025945D01*
X026219Y026003D01*
X026182Y026064D01*
X026148Y026126D01*
X026118Y026190D01*
X026091Y026256D01*
X026068Y026323D01*
X026049Y026392D01*
X026034Y026461D01*
X026022Y026531D01*
X026014Y026602D01*
X026010Y026673D01*
X026010Y026743D01*
X026014Y026814D01*
X026022Y026885D01*
X026034Y026955D01*
X026049Y027024D01*
X026068Y027093D01*
X026091Y027160D01*
X026118Y027226D01*
X026148Y027290D01*
X026182Y027352D01*
X026219Y027413D01*
X026259Y027471D01*
X026302Y027528D01*
X026349Y027581D01*
X026398Y027632D01*
X026450Y027681D01*
X026505Y027726D01*
X026562Y027768D01*
X026621Y027807D01*
X026682Y027843D01*
X026745Y027876D01*
X026810Y027905D01*
X026876Y027930D01*
X026944Y027952D01*
X027013Y027970D01*
X027082Y027984D01*
X027152Y027994D01*
X027223Y028000D01*
X027294Y028003D01*
X027365Y028002D01*
X027436Y027996D01*
X027506Y027987D01*
X027576Y027974D01*
X027645Y027958D01*
X027713Y027937D01*
X027780Y027913D01*
X027845Y027885D01*
X027909Y027854D01*
X027970Y027819D01*
X028030Y027781D01*
X028088Y027739D01*
X028143Y027695D01*
X028196Y027648D01*
X028246Y027597D01*
X028294Y027544D01*
X028338Y027489D01*
X028331Y027484D01*
X028286Y027539D01*
X028239Y027592D01*
X028188Y027643D01*
X028135Y027690D01*
X028079Y027735D01*
X028021Y027776D01*
X027961Y027814D01*
X027899Y027849D01*
X027835Y027880D01*
X027769Y027907D01*
X027702Y027931D01*
X027633Y027951D01*
X027564Y027968D01*
X027494Y027980D01*
X027423Y027989D01*
X027352Y027993D01*
X027281Y027994D01*
X027210Y027990D01*
X027139Y027983D01*
X027068Y027972D01*
X026999Y027957D01*
X026930Y027938D01*
X026862Y027915D01*
X026796Y027889D01*
X026731Y027859D01*
X026669Y027825D01*
X026608Y027789D01*
X026549Y027748D01*
X026492Y027705D01*
X026438Y027658D01*
X026387Y027609D01*
X026339Y027556D01*
X026293Y027502D01*
X026251Y027444D01*
X026212Y027385D01*
X026176Y027323D01*
X026143Y027260D01*
X026115Y027195D01*
X026089Y027128D01*
X026068Y027060D01*
X026050Y026991D01*
X026037Y026921D01*
X026027Y026850D01*
X026021Y026779D01*
X026019Y026708D01*
X026021Y026637D01*
X026027Y026566D01*
X026037Y026495D01*
X026050Y026425D01*
X026068Y026356D01*
X026089Y026288D01*
X026115Y026221D01*
X026143Y026156D01*
X026176Y026093D01*
X026212Y026031D01*
X026251Y025972D01*
X026293Y025914D01*
X026339Y025860D01*
X026387Y025807D01*
X026438Y025758D01*
X026492Y025711D01*
X026549Y025668D01*
X026608Y025627D01*
X026669Y025591D01*
X026731Y025557D01*
X026796Y025527D01*
X026862Y025501D01*
X026930Y025478D01*
X026999Y025459D01*
X027068Y025444D01*
X027139Y025433D01*
X027210Y025426D01*
X027281Y025422D01*
X027352Y025423D01*
X027423Y025427D01*
X027494Y025436D01*
X027564Y025448D01*
X027633Y025465D01*
X027702Y025485D01*
X027769Y025509D01*
X027835Y025536D01*
X027899Y025567D01*
X027961Y025602D01*
X028021Y025640D01*
X028079Y025681D01*
X028135Y025726D01*
X028188Y025773D01*
X028239Y025824D01*
X028286Y025877D01*
X028331Y025932D01*
X028324Y025938D01*
X028279Y025883D01*
X028232Y025830D01*
X028182Y025780D01*
X028129Y025733D01*
X028074Y025689D01*
X028016Y025647D01*
X027957Y025610D01*
X027895Y025575D01*
X027831Y025544D01*
X027766Y025517D01*
X027699Y025493D01*
X027631Y025473D01*
X027562Y025457D01*
X027493Y025445D01*
X027422Y025436D01*
X027352Y025432D01*
X027281Y025431D01*
X027210Y025435D01*
X027140Y025442D01*
X027070Y025453D01*
X027001Y025468D01*
X026933Y025487D01*
X026865Y025509D01*
X026800Y025535D01*
X026735Y025565D01*
X026673Y025598D01*
X026613Y025635D01*
X026554Y025675D01*
X026498Y025718D01*
X026444Y025764D01*
X026394Y025814D01*
X026345Y025865D01*
X026300Y025920D01*
X026258Y025977D01*
X026219Y026036D01*
X026184Y026097D01*
X026151Y026160D01*
X026123Y026225D01*
X026098Y026291D01*
X026077Y026359D01*
X026059Y026427D01*
X026046Y026497D01*
X026036Y026567D01*
X026030Y026637D01*
X026028Y026708D01*
X026030Y026779D01*
X026036Y026849D01*
X026046Y026919D01*
X026059Y026989D01*
X026077Y027057D01*
X026098Y027125D01*
X026123Y027191D01*
X026151Y027256D01*
X026184Y027319D01*
X026219Y027380D01*
X026258Y027439D01*
X026300Y027496D01*
X026345Y027551D01*
X026394Y027602D01*
X026444Y027652D01*
X026498Y027698D01*
X026554Y027741D01*
X026613Y027781D01*
X026673Y027818D01*
X026735Y027851D01*
X026800Y027881D01*
X026865Y027907D01*
X026933Y027929D01*
X027001Y027948D01*
X027070Y027963D01*
X027140Y027974D01*
X027210Y027981D01*
X027281Y027985D01*
X027352Y027984D01*
X027422Y027980D01*
X027493Y027971D01*
X027562Y027959D01*
X027631Y027943D01*
X027699Y027923D01*
X027766Y027899D01*
X027831Y027872D01*
X027895Y027841D01*
X027957Y027806D01*
X028016Y027769D01*
X028074Y027727D01*
X028129Y027683D01*
X028182Y027636D01*
X028232Y027586D01*
X028279Y027533D01*
X028324Y027478D01*
X028316Y027473D01*
X028272Y027528D01*
X028224Y027581D01*
X028174Y027631D01*
X028121Y027679D01*
X028065Y027723D01*
X028007Y027764D01*
X027947Y027801D01*
X027885Y027836D01*
X027821Y027866D01*
X027755Y027893D01*
X027688Y027917D01*
X027620Y027936D01*
X027550Y027952D01*
X027480Y027964D01*
X027410Y027972D01*
X027339Y027976D01*
X027268Y027975D01*
X027197Y027971D01*
X027126Y027963D01*
X027056Y027951D01*
X026987Y027935D01*
X026919Y027916D01*
X026851Y027892D01*
X026786Y027865D01*
X026722Y027834D01*
X026660Y027800D01*
X026600Y027762D01*
X026542Y027720D01*
X026486Y027676D01*
X026433Y027629D01*
X026383Y027578D01*
X026336Y027525D01*
X026291Y027470D01*
X026250Y027412D01*
X026213Y027352D01*
X026178Y027289D01*
X026147Y027225D01*
X026120Y027160D01*
X026097Y027093D01*
X026077Y027024D01*
X026061Y026955D01*
X026049Y026885D01*
X026041Y026814D01*
X026037Y026744D01*
X026037Y026672D01*
X026041Y026602D01*
X026049Y026531D01*
X026061Y026461D01*
X026077Y026392D01*
X026097Y026323D01*
X026120Y026256D01*
X026147Y026191D01*
X026178Y026127D01*
X026213Y026064D01*
X026250Y026004D01*
X026291Y025946D01*
X026336Y025891D01*
X026383Y025838D01*
X026433Y025787D01*
X026486Y025740D01*
X026542Y025696D01*
X026600Y025654D01*
X026660Y025616D01*
X026722Y025582D01*
X026786Y025551D01*
X026851Y025524D01*
X026919Y025500D01*
X026987Y025481D01*
X027056Y025465D01*
X027126Y025453D01*
X027197Y025445D01*
X027268Y025441D01*
X027339Y025440D01*
X027410Y025444D01*
X027480Y025452D01*
X027550Y025464D01*
X027620Y025480D01*
X027688Y025499D01*
X027755Y025523D01*
X027821Y025550D01*
X027885Y025580D01*
X027947Y025615D01*
X028007Y025652D01*
X028065Y025693D01*
X028121Y025737D01*
X028174Y025785D01*
X028224Y025835D01*
X028272Y025888D01*
X028316Y025943D01*
X028309Y025949D01*
X028265Y025894D01*
X028218Y025841D01*
X028168Y025791D01*
X028115Y025744D01*
X028060Y025700D01*
X028002Y025660D01*
X027943Y025622D01*
X027881Y025588D01*
X027817Y025558D01*
X027752Y025531D01*
X027685Y025508D01*
X027617Y025488D01*
X027549Y025473D01*
X027479Y025461D01*
X027409Y025453D01*
X027338Y025449D01*
X027268Y025450D01*
X027197Y025454D01*
X027127Y025462D01*
X027058Y025474D01*
X026989Y025489D01*
X026921Y025509D01*
X026855Y025532D01*
X026790Y025559D01*
X026726Y025590D01*
X026664Y025624D01*
X026605Y025662D01*
X026547Y025703D01*
X026492Y025747D01*
X026439Y025794D01*
X026390Y025844D01*
X026343Y025896D01*
X026299Y025952D01*
X026258Y026009D01*
X026220Y026069D01*
X026186Y026131D01*
X026156Y026194D01*
X026129Y026259D01*
X026105Y026326D01*
X026086Y026394D01*
X026070Y026463D01*
X026058Y026532D01*
X026050Y026602D01*
X026046Y026673D01*
X026046Y026743D01*
X026050Y026814D01*
X026058Y026884D01*
X026070Y026953D01*
X026086Y027022D01*
X026105Y027090D01*
X026129Y027157D01*
X026156Y027222D01*
X026186Y027285D01*
X026220Y027347D01*
X026258Y027407D01*
X026299Y027464D01*
X026343Y027520D01*
X026390Y027572D01*
X026439Y027622D01*
X026492Y027669D01*
X026547Y027713D01*
X026605Y027754D01*
X026664Y027792D01*
X026726Y027826D01*
X026790Y027857D01*
X026855Y027884D01*
X026921Y027907D01*
X026989Y027927D01*
X027058Y027942D01*
X027127Y027954D01*
X027197Y027962D01*
X027268Y027966D01*
X027338Y027967D01*
X027409Y027963D01*
X027479Y027955D01*
X027549Y027943D01*
X027617Y027928D01*
X027685Y027908D01*
X027752Y027885D01*
X027817Y027858D01*
X027881Y027828D01*
X027943Y027794D01*
X028002Y027756D01*
X028060Y027716D01*
X028115Y027672D01*
X028168Y027625D01*
X028218Y027575D01*
X028265Y027522D01*
X028309Y027467D01*
X028302Y027462D01*
X028258Y027517D01*
X028211Y027569D01*
X028162Y027618D01*
X028109Y027665D01*
X028055Y027708D01*
X027997Y027749D01*
X027938Y027786D01*
X027877Y027820D01*
X027813Y027850D01*
X027749Y027877D01*
X027682Y027900D01*
X027615Y027919D01*
X027547Y027934D01*
X027478Y027946D01*
X027408Y027954D01*
X027338Y027958D01*
X027268Y027957D01*
X027198Y027953D01*
X027129Y027945D01*
X027060Y027934D01*
X026991Y027918D01*
X026924Y027899D01*
X026858Y027875D01*
X026793Y027848D01*
X026730Y027818D01*
X026669Y027784D01*
X026610Y027747D01*
X026552Y027706D01*
X026498Y027662D01*
X026446Y027616D01*
X026396Y027566D01*
X026349Y027514D01*
X026306Y027459D01*
X026265Y027402D01*
X026228Y027343D01*
X026194Y027281D01*
X026164Y027218D01*
X026137Y027153D01*
X026114Y027087D01*
X026095Y027020D01*
X026079Y026952D01*
X026067Y026883D01*
X026059Y026813D01*
X026055Y026743D01*
X026055Y026673D01*
X026059Y026603D01*
X026067Y026533D01*
X026079Y026464D01*
X026095Y026396D01*
X026114Y026329D01*
X026137Y026263D01*
X026164Y026198D01*
X026194Y026135D01*
X026228Y026073D01*
X026265Y026014D01*
X026306Y025957D01*
X026349Y025902D01*
X026396Y025850D01*
X026446Y025800D01*
X026498Y025754D01*
X026552Y025710D01*
X026610Y025669D01*
X026669Y025632D01*
X026730Y025598D01*
X026793Y025568D01*
X026858Y025541D01*
X026924Y025517D01*
X026991Y025498D01*
X027060Y025482D01*
X027129Y025471D01*
X027198Y025463D01*
X027268Y025459D01*
X027338Y025458D01*
X027408Y025462D01*
X027478Y025470D01*
X027547Y025482D01*
X027615Y025497D01*
X027682Y025516D01*
X027749Y025539D01*
X027813Y025566D01*
X027877Y025596D01*
X027938Y025630D01*
X027997Y025667D01*
X028055Y025708D01*
X028109Y025751D01*
X028162Y025798D01*
X028211Y025847D01*
X028258Y025899D01*
X028302Y025954D01*
X028295Y025959D01*
X028251Y025905D01*
X028205Y025853D01*
X028156Y025804D01*
X028104Y025758D01*
X028049Y025715D01*
X027992Y025675D01*
X027933Y025638D01*
X027872Y025604D01*
X027810Y025574D01*
X027745Y025548D01*
X027680Y025525D01*
X027613Y025506D01*
X027545Y025490D01*
X027476Y025479D01*
X027407Y025471D01*
X027338Y025467D01*
X027268Y025468D01*
X027199Y025472D01*
X027130Y025479D01*
X027061Y025491D01*
X026994Y025507D01*
X026927Y025526D01*
X026861Y025549D01*
X026797Y025576D01*
X026734Y025606D01*
X026673Y025640D01*
X026615Y025677D01*
X026558Y025717D01*
X026504Y025760D01*
X026452Y025807D01*
X026403Y025856D01*
X026356Y025908D01*
X026313Y025962D01*
X026273Y026019D01*
X026236Y026078D01*
X026202Y026139D01*
X026172Y026202D01*
X026145Y026266D01*
X026122Y026331D01*
X026103Y026398D01*
X026088Y026466D01*
X026076Y026535D01*
X026068Y026604D01*
X026064Y026673D01*
X026064Y026743D01*
X026068Y026812D01*
X026076Y026881D01*
X026088Y026950D01*
X026103Y027018D01*
X026122Y027085D01*
X026145Y027150D01*
X026172Y027214D01*
X026202Y027277D01*
X026236Y027338D01*
X026273Y027397D01*
X026313Y027454D01*
X026356Y027508D01*
X026403Y027560D01*
X026452Y027609D01*
X026504Y027656D01*
X026558Y027699D01*
X026615Y027739D01*
X026673Y027776D01*
X026734Y027810D01*
X026797Y027840D01*
X026861Y027867D01*
X026927Y027890D01*
X026994Y027909D01*
X027061Y027925D01*
X027130Y027937D01*
X027199Y027944D01*
X027268Y027948D01*
X027338Y027949D01*
X027407Y027945D01*
X027476Y027937D01*
X027545Y027926D01*
X027613Y027910D01*
X027680Y027891D01*
X027745Y027868D01*
X027810Y027842D01*
X027872Y027812D01*
X027933Y027778D01*
X027992Y027741D01*
X028049Y027701D01*
X028104Y027658D01*
X028156Y027612D01*
X028205Y027563D01*
X028251Y027511D01*
X028295Y027457D01*
X028288Y027451D01*
X028244Y027505D01*
X028198Y027556D01*
X028149Y027605D01*
X028098Y027651D01*
X028044Y027694D01*
X027987Y027734D01*
X027929Y027770D01*
X027868Y027804D01*
X027806Y027834D01*
X027742Y027860D01*
X027677Y027882D01*
X027611Y027901D01*
X027543Y027917D01*
X027475Y027928D01*
X027407Y027936D01*
X027338Y027940D01*
X027269Y027939D01*
X027200Y027935D01*
X027131Y027928D01*
X027063Y027916D01*
X026996Y027901D01*
X026929Y027881D01*
X026864Y027858D01*
X026801Y027832D01*
X026738Y027802D01*
X026678Y027769D01*
X026620Y027732D01*
X026563Y027692D01*
X026509Y027649D01*
X026458Y027603D01*
X026409Y027554D01*
X026363Y027502D01*
X026320Y027448D01*
X026280Y027392D01*
X026244Y027333D01*
X026210Y027273D01*
X026180Y027211D01*
X026154Y027147D01*
X026131Y027082D01*
X026112Y027015D01*
X026097Y026948D01*
X026085Y026880D01*
X026077Y026811D01*
X026073Y026743D01*
X026073Y026673D01*
X026077Y026605D01*
X026085Y026536D01*
X026097Y026468D01*
X026112Y026401D01*
X026131Y026334D01*
X026154Y026269D01*
X026180Y026205D01*
X026210Y026143D01*
X026244Y026083D01*
X026280Y026024D01*
X026320Y025968D01*
X026363Y025914D01*
X026409Y025862D01*
X026458Y025813D01*
X026509Y025767D01*
X026563Y025724D01*
X026620Y025684D01*
X026678Y025647D01*
X026738Y025614D01*
X026801Y025584D01*
X026864Y025558D01*
X026929Y025535D01*
X026996Y025515D01*
X027063Y025500D01*
X027131Y025488D01*
X027200Y025481D01*
X027269Y025477D01*
X027338Y025476D01*
X027407Y025480D01*
X027475Y025488D01*
X027543Y025499D01*
X027611Y025515D01*
X027677Y025534D01*
X027742Y025556D01*
X027806Y025582D01*
X027868Y025612D01*
X027929Y025646D01*
X027987Y025682D01*
X028044Y025722D01*
X028098Y025765D01*
X028149Y025811D01*
X028198Y025860D01*
X028244Y025911D01*
X028288Y025965D01*
X028280Y025970D01*
X028237Y025916D01*
X028191Y025865D01*
X028141Y025816D01*
X028090Y025770D01*
X028035Y025727D01*
X027978Y025687D01*
X027920Y025651D01*
X027859Y025617D01*
X027796Y025588D01*
X027732Y025562D01*
X027666Y025540D01*
X027599Y025521D01*
X027532Y025506D01*
X027463Y025495D01*
X027394Y025488D01*
X027325Y025485D01*
X027256Y025486D01*
X027186Y025491D01*
X027118Y025499D01*
X027050Y025512D01*
X026982Y025528D01*
X026916Y025549D01*
X026851Y025572D01*
X026787Y025600D01*
X026725Y025631D01*
X026665Y025666D01*
X026607Y025704D01*
X026551Y025745D01*
X026498Y025789D01*
X026447Y025836D01*
X026399Y025886D01*
X026354Y025939D01*
X026312Y025994D01*
X026273Y026051D01*
X026238Y026111D01*
X026206Y026172D01*
X026177Y026235D01*
X026152Y026300D01*
X026131Y026366D01*
X026113Y026433D01*
X026100Y026501D01*
X026090Y026570D01*
X026084Y026639D01*
X026082Y026708D01*
X026084Y026777D01*
X026090Y026846D01*
X026100Y026915D01*
X026113Y026983D01*
X026131Y027050D01*
X026152Y027116D01*
X026177Y027181D01*
X026206Y027244D01*
X026238Y027305D01*
X026273Y027365D01*
X026312Y027422D01*
X026354Y027477D01*
X026399Y027530D01*
X026447Y027580D01*
X026498Y027627D01*
X026551Y027671D01*
X026607Y027712D01*
X026665Y027750D01*
X026725Y027785D01*
X026787Y027816D01*
X026851Y027844D01*
X026916Y027867D01*
X026982Y027888D01*
X027050Y027904D01*
X027118Y027917D01*
X027186Y027925D01*
X027256Y027930D01*
X027325Y027931D01*
X027394Y027928D01*
X027463Y027921D01*
X027532Y027910D01*
X027599Y027895D01*
X027666Y027876D01*
X027732Y027854D01*
X027796Y027828D01*
X027859Y027799D01*
X027920Y027765D01*
X027978Y027729D01*
X028035Y027689D01*
X028090Y027646D01*
X028141Y027600D01*
X028191Y027551D01*
X028237Y027500D01*
X028280Y027446D01*
X028273Y027440D01*
X028230Y027494D01*
X028184Y027545D01*
X028135Y027594D01*
X028084Y027639D01*
X028030Y027682D01*
X027973Y027721D01*
X027915Y027758D01*
X027855Y027791D01*
X027792Y027820D01*
X027729Y027846D01*
X027663Y027868D01*
X027597Y027886D01*
X027530Y027901D01*
X027462Y027912D01*
X027393Y027919D01*
X027325Y027922D01*
X027256Y027921D01*
X027187Y027916D01*
X027119Y027908D01*
X027051Y027895D01*
X026985Y027879D01*
X026919Y027859D01*
X026854Y027835D01*
X026791Y027808D01*
X026730Y027777D01*
X026670Y027743D01*
X026612Y027705D01*
X026557Y027664D01*
X026504Y027620D01*
X026454Y027573D01*
X026406Y027524D01*
X026361Y027472D01*
X026319Y027417D01*
X026281Y027360D01*
X026246Y027301D01*
X026214Y027240D01*
X026185Y027177D01*
X026161Y027113D01*
X026139Y027047D01*
X026122Y026981D01*
X026109Y026913D01*
X026099Y026845D01*
X026093Y026777D01*
X026091Y026708D01*
X026093Y026639D01*
X026099Y026571D01*
X026109Y026503D01*
X026122Y026435D01*
X026139Y026369D01*
X026161Y026303D01*
X026185Y026239D01*
X026214Y026176D01*
X026246Y026115D01*
X026281Y026056D01*
X026319Y025999D01*
X026361Y025944D01*
X026406Y025892D01*
X026454Y025843D01*
X026504Y025796D01*
X026557Y025752D01*
X026612Y025711D01*
X026670Y025673D01*
X026730Y025639D01*
X026791Y025608D01*
X026854Y025581D01*
X026919Y025557D01*
X026985Y025537D01*
X027051Y025521D01*
X027119Y025508D01*
X027187Y025500D01*
X027256Y025495D01*
X027325Y025494D01*
X027393Y025497D01*
X027462Y025504D01*
X027530Y025515D01*
X027597Y025530D01*
X027663Y025548D01*
X027729Y025570D01*
X027792Y025596D01*
X027855Y025625D01*
X027915Y025658D01*
X027973Y025695D01*
X028030Y025734D01*
X028084Y025777D01*
X028135Y025822D01*
X028184Y025871D01*
X028230Y025922D01*
X028273Y025976D01*
X018525Y027990D02*
X018579Y027918D01*
X018578Y027919D02*
X018525Y027876D01*
X018474Y027831D01*
X018426Y027782D01*
X018381Y027731D01*
X018338Y027677D01*
X018299Y027621D01*
X018263Y027563D01*
X018230Y027503D01*
X018201Y027442D01*
X018176Y027378D01*
X018154Y027314D01*
X018135Y027248D01*
X018121Y027181D01*
X018110Y027114D01*
X018103Y027046D01*
X018100Y026978D01*
X018101Y026909D01*
X018106Y026841D01*
X018114Y026773D01*
X018127Y026706D01*
X018143Y026640D01*
X018163Y026575D01*
X018186Y026510D01*
X018213Y026448D01*
X018244Y026387D01*
X018278Y026328D01*
X018315Y026270D01*
X018356Y026215D01*
X018400Y026163D01*
X018446Y026113D01*
X018495Y026066D01*
X018547Y026021D01*
X018601Y025980D01*
X018658Y025941D01*
X018717Y025906D01*
X018777Y025875D01*
X018839Y025847D01*
X018903Y025822D01*
X018968Y025801D01*
X019034Y025784D01*
X019101Y025770D01*
X019169Y025761D01*
X019237Y025755D01*
X019305Y025753D01*
X019373Y025755D01*
X019441Y025761D01*
X019509Y025770D01*
X019576Y025784D01*
X019642Y025801D01*
X019707Y025822D01*
X019771Y025847D01*
X019833Y025875D01*
X019893Y025906D01*
X019952Y025941D01*
X020009Y025980D01*
X020063Y026021D01*
X020115Y026066D01*
X020164Y026113D01*
X020210Y026163D01*
X020254Y026215D01*
X020295Y026270D01*
X020332Y026328D01*
X020366Y026387D01*
X020397Y026448D01*
X020424Y026510D01*
X020447Y026575D01*
X020467Y026640D01*
X020483Y026706D01*
X020496Y026773D01*
X020504Y026841D01*
X020509Y026909D01*
X020510Y026978D01*
X020507Y027046D01*
X020500Y027114D01*
X020489Y027181D01*
X020475Y027248D01*
X020456Y027314D01*
X020434Y027378D01*
X020409Y027442D01*
X020380Y027503D01*
X020347Y027563D01*
X020311Y027621D01*
X020272Y027677D01*
X020229Y027731D01*
X020184Y027782D01*
X020136Y027831D01*
X020085Y027876D01*
X020032Y027919D01*
X020085Y027990D01*
X020086Y027991D01*
X020141Y027947D01*
X020194Y027899D01*
X020245Y027849D01*
X020292Y027796D01*
X020336Y027741D01*
X020378Y027683D01*
X020416Y027623D01*
X020451Y027562D01*
X020482Y027498D01*
X020510Y027433D01*
X020534Y027366D01*
X020555Y027298D01*
X020571Y027229D01*
X020584Y027159D01*
X020593Y027089D01*
X020599Y027018D01*
X020600Y026947D01*
X020597Y026876D01*
X020591Y026805D01*
X020581Y026735D01*
X020567Y026666D01*
X020549Y026597D01*
X020527Y026529D01*
X020502Y026463D01*
X020473Y026398D01*
X020440Y026335D01*
X020404Y026274D01*
X020365Y026215D01*
X020323Y026158D01*
X020278Y026103D01*
X020229Y026051D01*
X020178Y026002D01*
X020125Y025955D01*
X020068Y025912D01*
X020010Y025872D01*
X019949Y025835D01*
X019887Y025801D01*
X019823Y025771D01*
X019757Y025744D01*
X019690Y025721D01*
X019621Y025702D01*
X019552Y025687D01*
X019482Y025675D01*
X019411Y025667D01*
X019340Y025663D01*
X019270Y025663D01*
X019199Y025667D01*
X019128Y025675D01*
X019058Y025687D01*
X018989Y025702D01*
X018920Y025721D01*
X018853Y025744D01*
X018787Y025771D01*
X018723Y025801D01*
X018661Y025835D01*
X018600Y025872D01*
X018542Y025912D01*
X018485Y025955D01*
X018432Y026002D01*
X018381Y026051D01*
X018332Y026103D01*
X018287Y026158D01*
X018245Y026215D01*
X018206Y026274D01*
X018170Y026335D01*
X018137Y026398D01*
X018108Y026463D01*
X018083Y026529D01*
X018061Y026597D01*
X018043Y026666D01*
X018029Y026735D01*
X018019Y026805D01*
X018013Y026876D01*
X018010Y026947D01*
X018011Y027018D01*
X018017Y027089D01*
X018026Y027159D01*
X018039Y027229D01*
X018055Y027298D01*
X018076Y027366D01*
X018100Y027433D01*
X018128Y027498D01*
X018159Y027562D01*
X018194Y027623D01*
X018232Y027683D01*
X018274Y027741D01*
X018318Y027796D01*
X018365Y027849D01*
X018416Y027899D01*
X018469Y027947D01*
X018524Y027991D01*
X018529Y027984D01*
X018474Y027939D01*
X018421Y027892D01*
X018370Y027841D01*
X018323Y027788D01*
X018278Y027732D01*
X018237Y027674D01*
X018199Y027614D01*
X018164Y027552D01*
X018133Y027488D01*
X018106Y027422D01*
X018082Y027355D01*
X018062Y027286D01*
X018045Y027217D01*
X018033Y027147D01*
X018024Y027076D01*
X018020Y027005D01*
X018019Y026934D01*
X018023Y026863D01*
X018030Y026792D01*
X018041Y026721D01*
X018056Y026652D01*
X018075Y026583D01*
X018098Y026515D01*
X018124Y026449D01*
X018154Y026384D01*
X018188Y026322D01*
X018224Y026261D01*
X018265Y026202D01*
X018308Y026145D01*
X018355Y026091D01*
X018404Y026040D01*
X018457Y025992D01*
X018511Y025946D01*
X018569Y025904D01*
X018628Y025865D01*
X018690Y025829D01*
X018753Y025796D01*
X018818Y025768D01*
X018885Y025742D01*
X018953Y025721D01*
X019022Y025703D01*
X019092Y025690D01*
X019163Y025680D01*
X019234Y025674D01*
X019305Y025672D01*
X019376Y025674D01*
X019447Y025680D01*
X019518Y025690D01*
X019588Y025703D01*
X019657Y025721D01*
X019725Y025742D01*
X019792Y025768D01*
X019857Y025796D01*
X019920Y025829D01*
X019982Y025865D01*
X020041Y025904D01*
X020099Y025946D01*
X020153Y025992D01*
X020206Y026040D01*
X020255Y026091D01*
X020302Y026145D01*
X020345Y026202D01*
X020386Y026261D01*
X020422Y026322D01*
X020456Y026384D01*
X020486Y026449D01*
X020512Y026515D01*
X020535Y026583D01*
X020554Y026652D01*
X020569Y026721D01*
X020580Y026792D01*
X020587Y026863D01*
X020591Y026934D01*
X020590Y027005D01*
X020586Y027076D01*
X020577Y027147D01*
X020565Y027217D01*
X020548Y027286D01*
X020528Y027355D01*
X020504Y027422D01*
X020477Y027488D01*
X020446Y027552D01*
X020411Y027614D01*
X020373Y027674D01*
X020332Y027732D01*
X020287Y027788D01*
X020240Y027841D01*
X020189Y027892D01*
X020136Y027939D01*
X020081Y027984D01*
X020075Y027977D01*
X020130Y027932D01*
X020183Y027885D01*
X020233Y027835D01*
X020280Y027782D01*
X020324Y027727D01*
X020366Y027669D01*
X020403Y027610D01*
X020438Y027548D01*
X020469Y027484D01*
X020496Y027419D01*
X020520Y027352D01*
X020540Y027284D01*
X020556Y027215D01*
X020568Y027146D01*
X020577Y027075D01*
X020581Y027005D01*
X020582Y026934D01*
X020578Y026863D01*
X020571Y026793D01*
X020560Y026723D01*
X020545Y026654D01*
X020526Y026586D01*
X020504Y026518D01*
X020478Y026453D01*
X020448Y026388D01*
X020415Y026326D01*
X020378Y026266D01*
X020338Y026207D01*
X020295Y026151D01*
X020249Y026097D01*
X020199Y026047D01*
X020148Y025998D01*
X020093Y025953D01*
X020036Y025911D01*
X019977Y025872D01*
X019916Y025837D01*
X019853Y025804D01*
X019788Y025776D01*
X019722Y025751D01*
X019654Y025730D01*
X019586Y025712D01*
X019516Y025699D01*
X019446Y025689D01*
X019376Y025683D01*
X019305Y025681D01*
X019234Y025683D01*
X019164Y025689D01*
X019094Y025699D01*
X019024Y025712D01*
X018956Y025730D01*
X018888Y025751D01*
X018822Y025776D01*
X018757Y025804D01*
X018694Y025837D01*
X018633Y025872D01*
X018574Y025911D01*
X018517Y025953D01*
X018462Y025998D01*
X018411Y026047D01*
X018361Y026097D01*
X018315Y026151D01*
X018272Y026207D01*
X018232Y026266D01*
X018195Y026326D01*
X018162Y026388D01*
X018132Y026453D01*
X018106Y026518D01*
X018084Y026586D01*
X018065Y026654D01*
X018050Y026723D01*
X018039Y026793D01*
X018032Y026863D01*
X018028Y026934D01*
X018029Y027005D01*
X018033Y027075D01*
X018042Y027146D01*
X018054Y027215D01*
X018070Y027284D01*
X018090Y027352D01*
X018114Y027419D01*
X018141Y027484D01*
X018172Y027548D01*
X018207Y027610D01*
X018244Y027669D01*
X018286Y027727D01*
X018330Y027782D01*
X018377Y027835D01*
X018427Y027885D01*
X018480Y027932D01*
X018535Y027977D01*
X018540Y027969D01*
X018485Y027925D01*
X018432Y027877D01*
X018382Y027827D01*
X018334Y027774D01*
X018290Y027718D01*
X018249Y027660D01*
X018212Y027600D01*
X018177Y027538D01*
X018147Y027474D01*
X018120Y027408D01*
X018096Y027341D01*
X018077Y027273D01*
X018061Y027203D01*
X018049Y027133D01*
X018041Y027063D01*
X018037Y026992D01*
X018038Y026921D01*
X018042Y026850D01*
X018050Y026779D01*
X018062Y026709D01*
X018078Y026640D01*
X018097Y026572D01*
X018121Y026504D01*
X018148Y026439D01*
X018179Y026375D01*
X018213Y026313D01*
X018251Y026253D01*
X018293Y026195D01*
X018337Y026139D01*
X018384Y026086D01*
X018435Y026036D01*
X018488Y025989D01*
X018543Y025944D01*
X018601Y025903D01*
X018661Y025866D01*
X018724Y025831D01*
X018788Y025800D01*
X018853Y025773D01*
X018920Y025750D01*
X018989Y025730D01*
X019058Y025714D01*
X019128Y025702D01*
X019199Y025694D01*
X019269Y025690D01*
X019341Y025690D01*
X019411Y025694D01*
X019482Y025702D01*
X019552Y025714D01*
X019621Y025730D01*
X019690Y025750D01*
X019757Y025773D01*
X019822Y025800D01*
X019886Y025831D01*
X019949Y025866D01*
X020009Y025903D01*
X020067Y025944D01*
X020122Y025989D01*
X020175Y026036D01*
X020226Y026086D01*
X020273Y026139D01*
X020317Y026195D01*
X020359Y026253D01*
X020397Y026313D01*
X020431Y026375D01*
X020462Y026439D01*
X020489Y026504D01*
X020513Y026572D01*
X020532Y026640D01*
X020548Y026709D01*
X020560Y026779D01*
X020568Y026850D01*
X020572Y026921D01*
X020573Y026992D01*
X020569Y027063D01*
X020561Y027133D01*
X020549Y027203D01*
X020533Y027273D01*
X020514Y027341D01*
X020490Y027408D01*
X020463Y027474D01*
X020433Y027538D01*
X020398Y027600D01*
X020361Y027660D01*
X020320Y027718D01*
X020276Y027774D01*
X020228Y027827D01*
X020178Y027877D01*
X020125Y027925D01*
X020070Y027969D01*
X020064Y027962D01*
X020119Y027918D01*
X020172Y027871D01*
X020222Y027821D01*
X020269Y027768D01*
X020313Y027713D01*
X020353Y027655D01*
X020391Y027596D01*
X020425Y027534D01*
X020455Y027470D01*
X020482Y027405D01*
X020505Y027338D01*
X020525Y027270D01*
X020540Y027202D01*
X020552Y027132D01*
X020560Y027062D01*
X020564Y026991D01*
X020563Y026921D01*
X020559Y026850D01*
X020551Y026780D01*
X020539Y026711D01*
X020524Y026642D01*
X020504Y026574D01*
X020481Y026508D01*
X020454Y026443D01*
X020423Y026379D01*
X020389Y026317D01*
X020351Y026258D01*
X020310Y026200D01*
X020266Y026145D01*
X020219Y026092D01*
X020169Y026043D01*
X020117Y025996D01*
X020061Y025952D01*
X020004Y025911D01*
X019944Y025873D01*
X019882Y025839D01*
X019819Y025809D01*
X019754Y025782D01*
X019687Y025758D01*
X019619Y025739D01*
X019550Y025723D01*
X019481Y025711D01*
X019411Y025703D01*
X019340Y025699D01*
X019270Y025699D01*
X019199Y025703D01*
X019129Y025711D01*
X019060Y025723D01*
X018991Y025739D01*
X018923Y025758D01*
X018856Y025782D01*
X018791Y025809D01*
X018728Y025839D01*
X018666Y025873D01*
X018606Y025911D01*
X018549Y025952D01*
X018493Y025996D01*
X018441Y026043D01*
X018391Y026092D01*
X018344Y026145D01*
X018300Y026200D01*
X018259Y026258D01*
X018221Y026317D01*
X018187Y026379D01*
X018156Y026443D01*
X018129Y026508D01*
X018106Y026574D01*
X018086Y026642D01*
X018071Y026711D01*
X018059Y026780D01*
X018051Y026850D01*
X018047Y026921D01*
X018046Y026991D01*
X018050Y027062D01*
X018058Y027132D01*
X018070Y027202D01*
X018085Y027270D01*
X018105Y027338D01*
X018128Y027405D01*
X018155Y027470D01*
X018185Y027534D01*
X018219Y027596D01*
X018257Y027655D01*
X018297Y027713D01*
X018341Y027768D01*
X018388Y027821D01*
X018438Y027871D01*
X018491Y027918D01*
X018546Y027962D01*
X018551Y027955D01*
X018496Y027911D01*
X018444Y027864D01*
X018395Y027815D01*
X018348Y027762D01*
X018305Y027708D01*
X018264Y027650D01*
X018227Y027591D01*
X018193Y027530D01*
X018163Y027466D01*
X018136Y027402D01*
X018113Y027335D01*
X018094Y027268D01*
X018079Y027200D01*
X018067Y027131D01*
X018059Y027061D01*
X018055Y026991D01*
X018056Y026921D01*
X018060Y026851D01*
X018068Y026782D01*
X018079Y026713D01*
X018095Y026644D01*
X018114Y026577D01*
X018138Y026511D01*
X018165Y026446D01*
X018195Y026383D01*
X018229Y026322D01*
X018266Y026263D01*
X018307Y026205D01*
X018351Y026151D01*
X018397Y026099D01*
X018447Y026049D01*
X018499Y026002D01*
X018554Y025959D01*
X018611Y025918D01*
X018670Y025881D01*
X018732Y025847D01*
X018795Y025817D01*
X018860Y025790D01*
X018926Y025767D01*
X018993Y025748D01*
X019061Y025732D01*
X019130Y025720D01*
X019200Y025712D01*
X019270Y025708D01*
X019340Y025708D01*
X019410Y025712D01*
X019480Y025720D01*
X019549Y025732D01*
X019617Y025748D01*
X019684Y025767D01*
X019750Y025790D01*
X019815Y025817D01*
X019878Y025847D01*
X019940Y025881D01*
X019999Y025918D01*
X020056Y025959D01*
X020111Y026002D01*
X020163Y026049D01*
X020213Y026099D01*
X020259Y026151D01*
X020303Y026205D01*
X020344Y026263D01*
X020381Y026322D01*
X020415Y026383D01*
X020445Y026446D01*
X020472Y026511D01*
X020496Y026577D01*
X020515Y026644D01*
X020531Y026713D01*
X020542Y026782D01*
X020550Y026851D01*
X020554Y026921D01*
X020555Y026991D01*
X020551Y027061D01*
X020543Y027131D01*
X020531Y027200D01*
X020516Y027268D01*
X020497Y027335D01*
X020474Y027402D01*
X020447Y027466D01*
X020417Y027530D01*
X020383Y027591D01*
X020346Y027650D01*
X020305Y027708D01*
X020262Y027762D01*
X020215Y027815D01*
X020166Y027864D01*
X020114Y027911D01*
X020059Y027955D01*
X020054Y027948D01*
X020108Y027904D01*
X020160Y027858D01*
X020209Y027809D01*
X020255Y027757D01*
X020298Y027702D01*
X020338Y027645D01*
X020375Y027586D01*
X020409Y027525D01*
X020439Y027463D01*
X020465Y027398D01*
X020488Y027333D01*
X020507Y027266D01*
X020523Y027198D01*
X020534Y027129D01*
X020542Y027060D01*
X020546Y026991D01*
X020545Y026921D01*
X020541Y026852D01*
X020534Y026783D01*
X020522Y026714D01*
X020506Y026647D01*
X020487Y026580D01*
X020464Y026514D01*
X020437Y026450D01*
X020407Y026387D01*
X020373Y026326D01*
X020336Y026268D01*
X020296Y026211D01*
X020253Y026157D01*
X020206Y026105D01*
X020157Y026056D01*
X020105Y026009D01*
X020051Y025966D01*
X019994Y025926D01*
X019935Y025889D01*
X019874Y025855D01*
X019811Y025825D01*
X019747Y025798D01*
X019682Y025775D01*
X019615Y025756D01*
X019547Y025741D01*
X019478Y025729D01*
X019409Y025721D01*
X019340Y025717D01*
X019270Y025717D01*
X019201Y025721D01*
X019132Y025729D01*
X019063Y025741D01*
X018995Y025756D01*
X018928Y025775D01*
X018863Y025798D01*
X018799Y025825D01*
X018736Y025855D01*
X018675Y025889D01*
X018616Y025926D01*
X018559Y025966D01*
X018505Y026009D01*
X018453Y026056D01*
X018404Y026105D01*
X018357Y026157D01*
X018314Y026211D01*
X018274Y026268D01*
X018237Y026326D01*
X018203Y026387D01*
X018173Y026450D01*
X018146Y026514D01*
X018123Y026580D01*
X018104Y026647D01*
X018088Y026714D01*
X018076Y026783D01*
X018069Y026852D01*
X018065Y026921D01*
X018064Y026991D01*
X018068Y027060D01*
X018076Y027129D01*
X018087Y027198D01*
X018103Y027266D01*
X018122Y027333D01*
X018145Y027398D01*
X018171Y027463D01*
X018201Y027525D01*
X018235Y027586D01*
X018272Y027645D01*
X018312Y027702D01*
X018355Y027757D01*
X018401Y027809D01*
X018450Y027858D01*
X018502Y027904D01*
X018556Y027948D01*
X018562Y027941D01*
X018508Y027897D01*
X018457Y027851D01*
X018408Y027802D01*
X018362Y027751D01*
X018319Y027697D01*
X018279Y027640D01*
X018243Y027582D01*
X018209Y027521D01*
X018179Y027459D01*
X018153Y027395D01*
X018131Y027330D01*
X018112Y027264D01*
X018096Y027196D01*
X018085Y027128D01*
X018077Y027060D01*
X018073Y026991D01*
X018074Y026922D01*
X018078Y026853D01*
X018085Y026784D01*
X018097Y026716D01*
X018112Y026649D01*
X018132Y026582D01*
X018155Y026517D01*
X018181Y026454D01*
X018211Y026391D01*
X018244Y026331D01*
X018281Y026273D01*
X018321Y026216D01*
X018364Y026162D01*
X018410Y026111D01*
X018459Y026062D01*
X018511Y026016D01*
X018565Y025973D01*
X018621Y025933D01*
X018680Y025897D01*
X018740Y025863D01*
X018802Y025833D01*
X018866Y025807D01*
X018931Y025784D01*
X018998Y025765D01*
X019065Y025750D01*
X019133Y025738D01*
X019202Y025730D01*
X019270Y025726D01*
X019340Y025726D01*
X019408Y025730D01*
X019477Y025738D01*
X019545Y025750D01*
X019612Y025765D01*
X019679Y025784D01*
X019744Y025807D01*
X019808Y025833D01*
X019870Y025863D01*
X019930Y025897D01*
X019989Y025933D01*
X020045Y025973D01*
X020099Y026016D01*
X020151Y026062D01*
X020200Y026111D01*
X020246Y026162D01*
X020289Y026216D01*
X020329Y026273D01*
X020366Y026331D01*
X020399Y026391D01*
X020429Y026454D01*
X020455Y026517D01*
X020478Y026582D01*
X020498Y026649D01*
X020513Y026716D01*
X020525Y026784D01*
X020532Y026853D01*
X020536Y026922D01*
X020537Y026991D01*
X020533Y027060D01*
X020525Y027128D01*
X020514Y027196D01*
X020498Y027264D01*
X020479Y027330D01*
X020457Y027395D01*
X020431Y027459D01*
X020401Y027521D01*
X020367Y027582D01*
X020331Y027640D01*
X020291Y027697D01*
X020248Y027751D01*
X020202Y027802D01*
X020153Y027851D01*
X020102Y027897D01*
X020048Y027941D01*
X020043Y027933D01*
X020097Y027890D01*
X020148Y027844D01*
X020197Y027794D01*
X020243Y027743D01*
X020286Y027688D01*
X020326Y027631D01*
X020362Y027573D01*
X020396Y027512D01*
X020425Y027449D01*
X020451Y027385D01*
X020473Y027319D01*
X020492Y027252D01*
X020507Y027185D01*
X020518Y027116D01*
X020525Y027047D01*
X020528Y026978D01*
X020527Y026909D01*
X020522Y026839D01*
X020514Y026771D01*
X020501Y026703D01*
X020485Y026635D01*
X020464Y026569D01*
X020441Y026504D01*
X020413Y026440D01*
X020382Y026378D01*
X020347Y026318D01*
X020309Y026260D01*
X020268Y026204D01*
X020224Y026151D01*
X020177Y026100D01*
X020127Y026052D01*
X020074Y026007D01*
X020019Y025965D01*
X019962Y025926D01*
X019902Y025891D01*
X019841Y025859D01*
X019778Y025830D01*
X019713Y025805D01*
X019647Y025784D01*
X019580Y025766D01*
X019512Y025753D01*
X019443Y025743D01*
X019374Y025737D01*
X019305Y025735D01*
X019236Y025737D01*
X019167Y025743D01*
X019098Y025753D01*
X019030Y025766D01*
X018963Y025784D01*
X018897Y025805D01*
X018832Y025830D01*
X018769Y025859D01*
X018708Y025891D01*
X018648Y025926D01*
X018591Y025965D01*
X018536Y026007D01*
X018483Y026052D01*
X018433Y026100D01*
X018386Y026151D01*
X018342Y026204D01*
X018301Y026260D01*
X018263Y026318D01*
X018228Y026378D01*
X018197Y026440D01*
X018169Y026504D01*
X018146Y026569D01*
X018125Y026635D01*
X018109Y026703D01*
X018096Y026771D01*
X018088Y026839D01*
X018083Y026909D01*
X018082Y026978D01*
X018085Y027047D01*
X018092Y027116D01*
X018103Y027185D01*
X018118Y027252D01*
X018137Y027319D01*
X018159Y027385D01*
X018185Y027449D01*
X018214Y027512D01*
X018248Y027573D01*
X018284Y027631D01*
X018324Y027688D01*
X018367Y027743D01*
X018413Y027794D01*
X018462Y027844D01*
X018513Y027890D01*
X018567Y027933D01*
X018573Y027926D01*
X018519Y027883D01*
X018468Y027837D01*
X018419Y027788D01*
X018374Y027737D01*
X018331Y027683D01*
X018292Y027626D01*
X018255Y027568D01*
X018222Y027508D01*
X018193Y027445D01*
X018167Y027382D01*
X018145Y027316D01*
X018127Y027250D01*
X018112Y027183D01*
X018101Y027115D01*
X018094Y027046D01*
X018091Y026978D01*
X018092Y026909D01*
X018097Y026840D01*
X018105Y026772D01*
X018118Y026704D01*
X018134Y026638D01*
X018154Y026572D01*
X018178Y026507D01*
X018205Y026444D01*
X018236Y026383D01*
X018270Y026323D01*
X018308Y026265D01*
X018349Y026210D01*
X018393Y026157D01*
X018440Y026107D01*
X018489Y026059D01*
X018541Y026014D01*
X018596Y025972D01*
X018653Y025934D01*
X018712Y025899D01*
X018773Y025867D01*
X018836Y025838D01*
X018900Y025814D01*
X018966Y025792D01*
X019032Y025775D01*
X019100Y025762D01*
X019168Y025752D01*
X019236Y025746D01*
X019305Y025744D01*
X019374Y025746D01*
X019442Y025752D01*
X019510Y025762D01*
X019578Y025775D01*
X019644Y025792D01*
X019710Y025814D01*
X019774Y025838D01*
X019837Y025867D01*
X019898Y025899D01*
X019957Y025934D01*
X020014Y025972D01*
X020069Y026014D01*
X020121Y026059D01*
X020170Y026107D01*
X020217Y026157D01*
X020261Y026210D01*
X020302Y026265D01*
X020340Y026323D01*
X020374Y026383D01*
X020405Y026444D01*
X020432Y026507D01*
X020456Y026572D01*
X020476Y026638D01*
X020492Y026704D01*
X020505Y026772D01*
X020513Y026840D01*
X020518Y026909D01*
X020519Y026978D01*
X020516Y027046D01*
X020509Y027115D01*
X020498Y027183D01*
X020483Y027250D01*
X020465Y027316D01*
X020443Y027382D01*
X020417Y027445D01*
X020388Y027508D01*
X020355Y027568D01*
X020318Y027626D01*
X020279Y027683D01*
X020236Y027737D01*
X020191Y027788D01*
X020142Y027837D01*
X020091Y027883D01*
X020037Y027926D01*
X001148Y025928D02*
X001220Y025982D01*
X001219Y025981D02*
X001262Y025928D01*
X001307Y025877D01*
X001356Y025829D01*
X001407Y025784D01*
X001461Y025741D01*
X001517Y025702D01*
X001575Y025666D01*
X001635Y025633D01*
X001696Y025604D01*
X001760Y025579D01*
X001824Y025557D01*
X001890Y025538D01*
X001957Y025524D01*
X002024Y025513D01*
X002092Y025506D01*
X002160Y025503D01*
X002229Y025504D01*
X002297Y025509D01*
X002365Y025517D01*
X002432Y025530D01*
X002498Y025546D01*
X002563Y025566D01*
X002628Y025589D01*
X002690Y025616D01*
X002751Y025647D01*
X002810Y025681D01*
X002868Y025718D01*
X002923Y025759D01*
X002975Y025803D01*
X003025Y025849D01*
X003072Y025898D01*
X003117Y025950D01*
X003158Y026004D01*
X003197Y026061D01*
X003232Y026120D01*
X003263Y026180D01*
X003291Y026242D01*
X003316Y026306D01*
X003337Y026371D01*
X003354Y026437D01*
X003368Y026504D01*
X003377Y026572D01*
X003383Y026640D01*
X003385Y026708D01*
X003383Y026776D01*
X003377Y026844D01*
X003368Y026912D01*
X003354Y026979D01*
X003337Y027045D01*
X003316Y027110D01*
X003291Y027174D01*
X003263Y027236D01*
X003232Y027296D01*
X003197Y027355D01*
X003158Y027412D01*
X003117Y027466D01*
X003072Y027518D01*
X003025Y027567D01*
X002975Y027613D01*
X002923Y027657D01*
X002868Y027698D01*
X002810Y027735D01*
X002751Y027769D01*
X002690Y027800D01*
X002628Y027827D01*
X002563Y027850D01*
X002498Y027870D01*
X002432Y027886D01*
X002365Y027899D01*
X002297Y027907D01*
X002229Y027912D01*
X002160Y027913D01*
X002092Y027910D01*
X002024Y027903D01*
X001957Y027892D01*
X001890Y027878D01*
X001824Y027859D01*
X001760Y027837D01*
X001696Y027812D01*
X001635Y027783D01*
X001575Y027750D01*
X001517Y027714D01*
X001461Y027675D01*
X001407Y027632D01*
X001356Y027587D01*
X001307Y027539D01*
X001262Y027488D01*
X001219Y027435D01*
X001148Y027488D01*
X001147Y027489D01*
X001191Y027544D01*
X001239Y027597D01*
X001289Y027648D01*
X001342Y027695D01*
X001397Y027739D01*
X001455Y027781D01*
X001515Y027819D01*
X001576Y027854D01*
X001640Y027885D01*
X001705Y027913D01*
X001772Y027937D01*
X001840Y027958D01*
X001909Y027974D01*
X001979Y027987D01*
X002049Y027996D01*
X002120Y028002D01*
X002191Y028003D01*
X002262Y028000D01*
X002333Y027994D01*
X002403Y027984D01*
X002472Y027970D01*
X002541Y027952D01*
X002609Y027930D01*
X002675Y027905D01*
X002740Y027876D01*
X002803Y027843D01*
X002864Y027807D01*
X002923Y027768D01*
X002980Y027726D01*
X003035Y027681D01*
X003087Y027632D01*
X003136Y027581D01*
X003183Y027528D01*
X003226Y027471D01*
X003266Y027413D01*
X003303Y027352D01*
X003337Y027290D01*
X003367Y027226D01*
X003394Y027160D01*
X003417Y027093D01*
X003436Y027024D01*
X003451Y026955D01*
X003463Y026885D01*
X003471Y026814D01*
X003475Y026743D01*
X003475Y026673D01*
X003471Y026602D01*
X003463Y026531D01*
X003451Y026461D01*
X003436Y026392D01*
X003417Y026323D01*
X003394Y026256D01*
X003367Y026190D01*
X003337Y026126D01*
X003303Y026064D01*
X003266Y026003D01*
X003226Y025945D01*
X003183Y025888D01*
X003136Y025835D01*
X003087Y025784D01*
X003035Y025735D01*
X002980Y025690D01*
X002923Y025648D01*
X002864Y025609D01*
X002803Y025573D01*
X002740Y025540D01*
X002675Y025511D01*
X002609Y025486D01*
X002541Y025464D01*
X002472Y025446D01*
X002403Y025432D01*
X002333Y025422D01*
X002262Y025416D01*
X002191Y025413D01*
X002120Y025414D01*
X002049Y025420D01*
X001979Y025429D01*
X001909Y025442D01*
X001840Y025458D01*
X001772Y025479D01*
X001705Y025503D01*
X001640Y025531D01*
X001576Y025562D01*
X001515Y025597D01*
X001455Y025635D01*
X001397Y025677D01*
X001342Y025721D01*
X001289Y025768D01*
X001239Y025819D01*
X001191Y025872D01*
X001147Y025927D01*
X001154Y025932D01*
X001199Y025877D01*
X001246Y025824D01*
X001297Y025773D01*
X001350Y025726D01*
X001406Y025681D01*
X001464Y025640D01*
X001524Y025602D01*
X001586Y025567D01*
X001650Y025536D01*
X001716Y025509D01*
X001783Y025485D01*
X001852Y025465D01*
X001921Y025448D01*
X001991Y025436D01*
X002062Y025427D01*
X002133Y025423D01*
X002204Y025422D01*
X002275Y025426D01*
X002346Y025433D01*
X002417Y025444D01*
X002486Y025459D01*
X002555Y025478D01*
X002623Y025501D01*
X002689Y025527D01*
X002754Y025557D01*
X002816Y025591D01*
X002877Y025627D01*
X002936Y025668D01*
X002993Y025711D01*
X003047Y025758D01*
X003098Y025807D01*
X003146Y025860D01*
X003192Y025914D01*
X003234Y025972D01*
X003273Y026031D01*
X003309Y026093D01*
X003342Y026156D01*
X003370Y026221D01*
X003396Y026288D01*
X003417Y026356D01*
X003435Y026425D01*
X003448Y026495D01*
X003458Y026566D01*
X003464Y026637D01*
X003466Y026708D01*
X003464Y026779D01*
X003458Y026850D01*
X003448Y026921D01*
X003435Y026991D01*
X003417Y027060D01*
X003396Y027128D01*
X003370Y027195D01*
X003342Y027260D01*
X003309Y027323D01*
X003273Y027385D01*
X003234Y027444D01*
X003192Y027502D01*
X003146Y027556D01*
X003098Y027609D01*
X003047Y027658D01*
X002993Y027705D01*
X002936Y027748D01*
X002877Y027789D01*
X002816Y027825D01*
X002754Y027859D01*
X002689Y027889D01*
X002623Y027915D01*
X002555Y027938D01*
X002486Y027957D01*
X002417Y027972D01*
X002346Y027983D01*
X002275Y027990D01*
X002204Y027994D01*
X002133Y027993D01*
X002062Y027989D01*
X001991Y027980D01*
X001921Y027968D01*
X001852Y027951D01*
X001783Y027931D01*
X001716Y027907D01*
X001650Y027880D01*
X001586Y027849D01*
X001524Y027814D01*
X001464Y027776D01*
X001406Y027735D01*
X001350Y027690D01*
X001297Y027643D01*
X001246Y027592D01*
X001199Y027539D01*
X001154Y027484D01*
X001161Y027478D01*
X001206Y027533D01*
X001253Y027586D01*
X001303Y027636D01*
X001356Y027683D01*
X001411Y027727D01*
X001469Y027769D01*
X001528Y027806D01*
X001590Y027841D01*
X001654Y027872D01*
X001719Y027899D01*
X001786Y027923D01*
X001854Y027943D01*
X001923Y027959D01*
X001992Y027971D01*
X002063Y027980D01*
X002133Y027984D01*
X002204Y027985D01*
X002275Y027981D01*
X002345Y027974D01*
X002415Y027963D01*
X002484Y027948D01*
X002552Y027929D01*
X002620Y027907D01*
X002685Y027881D01*
X002750Y027851D01*
X002812Y027818D01*
X002872Y027781D01*
X002931Y027741D01*
X002987Y027698D01*
X003041Y027652D01*
X003091Y027602D01*
X003140Y027551D01*
X003185Y027496D01*
X003227Y027439D01*
X003266Y027380D01*
X003301Y027319D01*
X003334Y027256D01*
X003362Y027191D01*
X003387Y027125D01*
X003408Y027057D01*
X003426Y026989D01*
X003439Y026919D01*
X003449Y026849D01*
X003455Y026779D01*
X003457Y026708D01*
X003455Y026637D01*
X003449Y026567D01*
X003439Y026497D01*
X003426Y026427D01*
X003408Y026359D01*
X003387Y026291D01*
X003362Y026225D01*
X003334Y026160D01*
X003301Y026097D01*
X003266Y026036D01*
X003227Y025977D01*
X003185Y025920D01*
X003140Y025865D01*
X003091Y025814D01*
X003041Y025764D01*
X002987Y025718D01*
X002931Y025675D01*
X002872Y025635D01*
X002812Y025598D01*
X002750Y025565D01*
X002685Y025535D01*
X002620Y025509D01*
X002552Y025487D01*
X002484Y025468D01*
X002415Y025453D01*
X002345Y025442D01*
X002275Y025435D01*
X002204Y025431D01*
X002133Y025432D01*
X002063Y025436D01*
X001992Y025445D01*
X001923Y025457D01*
X001854Y025473D01*
X001786Y025493D01*
X001719Y025517D01*
X001654Y025544D01*
X001590Y025575D01*
X001528Y025610D01*
X001469Y025647D01*
X001411Y025689D01*
X001356Y025733D01*
X001303Y025780D01*
X001253Y025830D01*
X001206Y025883D01*
X001161Y025938D01*
X001169Y025943D01*
X001213Y025888D01*
X001261Y025835D01*
X001311Y025785D01*
X001364Y025737D01*
X001420Y025693D01*
X001478Y025652D01*
X001538Y025615D01*
X001600Y025580D01*
X001664Y025550D01*
X001730Y025523D01*
X001797Y025499D01*
X001865Y025480D01*
X001935Y025464D01*
X002005Y025452D01*
X002075Y025444D01*
X002146Y025440D01*
X002217Y025441D01*
X002288Y025445D01*
X002359Y025453D01*
X002429Y025465D01*
X002498Y025481D01*
X002566Y025500D01*
X002634Y025524D01*
X002699Y025551D01*
X002763Y025582D01*
X002825Y025616D01*
X002885Y025654D01*
X002943Y025696D01*
X002999Y025740D01*
X003052Y025787D01*
X003102Y025838D01*
X003149Y025891D01*
X003194Y025946D01*
X003235Y026004D01*
X003272Y026064D01*
X003307Y026127D01*
X003338Y026191D01*
X003365Y026256D01*
X003388Y026323D01*
X003408Y026392D01*
X003424Y026461D01*
X003436Y026531D01*
X003444Y026602D01*
X003448Y026672D01*
X003448Y026744D01*
X003444Y026814D01*
X003436Y026885D01*
X003424Y026955D01*
X003408Y027024D01*
X003388Y027093D01*
X003365Y027160D01*
X003338Y027225D01*
X003307Y027289D01*
X003272Y027352D01*
X003235Y027412D01*
X003194Y027470D01*
X003149Y027525D01*
X003102Y027578D01*
X003052Y027629D01*
X002999Y027676D01*
X002943Y027720D01*
X002885Y027762D01*
X002825Y027800D01*
X002763Y027834D01*
X002699Y027865D01*
X002634Y027892D01*
X002566Y027916D01*
X002498Y027935D01*
X002429Y027951D01*
X002359Y027963D01*
X002288Y027971D01*
X002217Y027975D01*
X002146Y027976D01*
X002075Y027972D01*
X002005Y027964D01*
X001935Y027952D01*
X001865Y027936D01*
X001797Y027917D01*
X001730Y027893D01*
X001664Y027866D01*
X001600Y027836D01*
X001538Y027801D01*
X001478Y027764D01*
X001420Y027723D01*
X001364Y027679D01*
X001311Y027631D01*
X001261Y027581D01*
X001213Y027528D01*
X001169Y027473D01*
X001176Y027467D01*
X001220Y027522D01*
X001267Y027575D01*
X001317Y027625D01*
X001370Y027672D01*
X001425Y027716D01*
X001483Y027756D01*
X001542Y027794D01*
X001604Y027828D01*
X001668Y027858D01*
X001733Y027885D01*
X001800Y027908D01*
X001868Y027928D01*
X001936Y027943D01*
X002006Y027955D01*
X002076Y027963D01*
X002147Y027967D01*
X002217Y027966D01*
X002288Y027962D01*
X002358Y027954D01*
X002427Y027942D01*
X002496Y027927D01*
X002564Y027907D01*
X002630Y027884D01*
X002695Y027857D01*
X002759Y027826D01*
X002821Y027792D01*
X002880Y027754D01*
X002938Y027713D01*
X002993Y027669D01*
X003046Y027622D01*
X003095Y027572D01*
X003142Y027520D01*
X003186Y027464D01*
X003227Y027407D01*
X003265Y027347D01*
X003299Y027285D01*
X003329Y027222D01*
X003356Y027157D01*
X003380Y027090D01*
X003399Y027022D01*
X003415Y026953D01*
X003427Y026884D01*
X003435Y026814D01*
X003439Y026743D01*
X003439Y026673D01*
X003435Y026602D01*
X003427Y026532D01*
X003415Y026463D01*
X003399Y026394D01*
X003380Y026326D01*
X003356Y026259D01*
X003329Y026194D01*
X003299Y026131D01*
X003265Y026069D01*
X003227Y026009D01*
X003186Y025952D01*
X003142Y025896D01*
X003095Y025844D01*
X003046Y025794D01*
X002993Y025747D01*
X002938Y025703D01*
X002880Y025662D01*
X002821Y025624D01*
X002759Y025590D01*
X002695Y025559D01*
X002630Y025532D01*
X002564Y025509D01*
X002496Y025489D01*
X002427Y025474D01*
X002358Y025462D01*
X002288Y025454D01*
X002217Y025450D01*
X002147Y025449D01*
X002076Y025453D01*
X002006Y025461D01*
X001936Y025473D01*
X001868Y025488D01*
X001800Y025508D01*
X001733Y025531D01*
X001668Y025558D01*
X001604Y025588D01*
X001542Y025622D01*
X001483Y025660D01*
X001425Y025700D01*
X001370Y025744D01*
X001317Y025791D01*
X001267Y025841D01*
X001220Y025894D01*
X001176Y025949D01*
X001183Y025954D01*
X001227Y025899D01*
X001274Y025847D01*
X001323Y025798D01*
X001376Y025751D01*
X001430Y025708D01*
X001488Y025667D01*
X001547Y025630D01*
X001608Y025596D01*
X001672Y025566D01*
X001736Y025539D01*
X001803Y025516D01*
X001870Y025497D01*
X001938Y025482D01*
X002007Y025470D01*
X002077Y025462D01*
X002147Y025458D01*
X002217Y025459D01*
X002287Y025463D01*
X002356Y025471D01*
X002425Y025482D01*
X002494Y025498D01*
X002561Y025517D01*
X002627Y025541D01*
X002692Y025568D01*
X002755Y025598D01*
X002816Y025632D01*
X002875Y025669D01*
X002933Y025710D01*
X002987Y025754D01*
X003039Y025800D01*
X003089Y025850D01*
X003136Y025902D01*
X003179Y025957D01*
X003220Y026014D01*
X003257Y026073D01*
X003291Y026135D01*
X003321Y026198D01*
X003348Y026263D01*
X003371Y026329D01*
X003390Y026396D01*
X003406Y026464D01*
X003418Y026533D01*
X003426Y026603D01*
X003430Y026673D01*
X003430Y026743D01*
X003426Y026813D01*
X003418Y026883D01*
X003406Y026952D01*
X003390Y027020D01*
X003371Y027087D01*
X003348Y027153D01*
X003321Y027218D01*
X003291Y027281D01*
X003257Y027343D01*
X003220Y027402D01*
X003179Y027459D01*
X003136Y027514D01*
X003089Y027566D01*
X003039Y027616D01*
X002987Y027662D01*
X002933Y027706D01*
X002875Y027747D01*
X002816Y027784D01*
X002755Y027818D01*
X002692Y027848D01*
X002627Y027875D01*
X002561Y027899D01*
X002494Y027918D01*
X002425Y027934D01*
X002356Y027945D01*
X002287Y027953D01*
X002217Y027957D01*
X002147Y027958D01*
X002077Y027954D01*
X002007Y027946D01*
X001938Y027934D01*
X001870Y027919D01*
X001803Y027900D01*
X001736Y027877D01*
X001672Y027850D01*
X001608Y027820D01*
X001547Y027786D01*
X001488Y027749D01*
X001430Y027708D01*
X001376Y027665D01*
X001323Y027618D01*
X001274Y027569D01*
X001227Y027517D01*
X001183Y027462D01*
X001190Y027457D01*
X001234Y027511D01*
X001280Y027563D01*
X001329Y027612D01*
X001381Y027658D01*
X001436Y027701D01*
X001493Y027741D01*
X001552Y027778D01*
X001613Y027812D01*
X001675Y027842D01*
X001740Y027868D01*
X001805Y027891D01*
X001872Y027910D01*
X001940Y027926D01*
X002009Y027937D01*
X002078Y027945D01*
X002147Y027949D01*
X002217Y027948D01*
X002286Y027944D01*
X002355Y027937D01*
X002424Y027925D01*
X002491Y027909D01*
X002558Y027890D01*
X002624Y027867D01*
X002688Y027840D01*
X002751Y027810D01*
X002812Y027776D01*
X002870Y027739D01*
X002927Y027699D01*
X002981Y027656D01*
X003033Y027609D01*
X003082Y027560D01*
X003129Y027508D01*
X003172Y027454D01*
X003212Y027397D01*
X003249Y027338D01*
X003283Y027277D01*
X003313Y027214D01*
X003340Y027150D01*
X003363Y027085D01*
X003382Y027018D01*
X003397Y026950D01*
X003409Y026881D01*
X003417Y026812D01*
X003421Y026743D01*
X003421Y026673D01*
X003417Y026604D01*
X003409Y026535D01*
X003397Y026466D01*
X003382Y026398D01*
X003363Y026331D01*
X003340Y026266D01*
X003313Y026202D01*
X003283Y026139D01*
X003249Y026078D01*
X003212Y026019D01*
X003172Y025962D01*
X003129Y025908D01*
X003082Y025856D01*
X003033Y025807D01*
X002981Y025760D01*
X002927Y025717D01*
X002870Y025677D01*
X002812Y025640D01*
X002751Y025606D01*
X002688Y025576D01*
X002624Y025549D01*
X002558Y025526D01*
X002491Y025507D01*
X002424Y025491D01*
X002355Y025479D01*
X002286Y025472D01*
X002217Y025468D01*
X002147Y025467D01*
X002078Y025471D01*
X002009Y025479D01*
X001940Y025490D01*
X001872Y025506D01*
X001805Y025525D01*
X001740Y025548D01*
X001675Y025574D01*
X001613Y025604D01*
X001552Y025638D01*
X001493Y025675D01*
X001436Y025715D01*
X001381Y025758D01*
X001329Y025804D01*
X001280Y025853D01*
X001234Y025905D01*
X001190Y025959D01*
X001197Y025965D01*
X001241Y025911D01*
X001287Y025860D01*
X001336Y025811D01*
X001387Y025765D01*
X001441Y025722D01*
X001498Y025682D01*
X001556Y025646D01*
X001617Y025612D01*
X001679Y025582D01*
X001743Y025556D01*
X001808Y025534D01*
X001874Y025515D01*
X001942Y025499D01*
X002010Y025488D01*
X002078Y025480D01*
X002147Y025476D01*
X002216Y025477D01*
X002285Y025481D01*
X002354Y025488D01*
X002422Y025500D01*
X002489Y025515D01*
X002556Y025535D01*
X002621Y025558D01*
X002684Y025584D01*
X002747Y025614D01*
X002807Y025647D01*
X002865Y025684D01*
X002922Y025724D01*
X002976Y025767D01*
X003027Y025813D01*
X003076Y025862D01*
X003122Y025914D01*
X003165Y025968D01*
X003205Y026024D01*
X003241Y026083D01*
X003275Y026143D01*
X003305Y026205D01*
X003331Y026269D01*
X003354Y026334D01*
X003373Y026401D01*
X003388Y026468D01*
X003400Y026536D01*
X003408Y026605D01*
X003412Y026673D01*
X003412Y026743D01*
X003408Y026811D01*
X003400Y026880D01*
X003388Y026948D01*
X003373Y027015D01*
X003354Y027082D01*
X003331Y027147D01*
X003305Y027211D01*
X003275Y027273D01*
X003241Y027333D01*
X003205Y027392D01*
X003165Y027448D01*
X003122Y027502D01*
X003076Y027554D01*
X003027Y027603D01*
X002976Y027649D01*
X002922Y027692D01*
X002865Y027732D01*
X002807Y027769D01*
X002747Y027802D01*
X002684Y027832D01*
X002621Y027858D01*
X002556Y027881D01*
X002489Y027901D01*
X002422Y027916D01*
X002354Y027928D01*
X002285Y027935D01*
X002216Y027939D01*
X002147Y027940D01*
X002078Y027936D01*
X002010Y027928D01*
X001942Y027917D01*
X001874Y027901D01*
X001808Y027882D01*
X001743Y027860D01*
X001679Y027834D01*
X001617Y027804D01*
X001556Y027770D01*
X001498Y027734D01*
X001441Y027694D01*
X001387Y027651D01*
X001336Y027605D01*
X001287Y027556D01*
X001241Y027505D01*
X001197Y027451D01*
X001205Y027446D01*
X001248Y027500D01*
X001294Y027551D01*
X001344Y027600D01*
X001395Y027646D01*
X001450Y027689D01*
X001507Y027729D01*
X001565Y027765D01*
X001626Y027799D01*
X001689Y027828D01*
X001753Y027854D01*
X001819Y027876D01*
X001886Y027895D01*
X001953Y027910D01*
X002022Y027921D01*
X002091Y027928D01*
X002160Y027931D01*
X002229Y027930D01*
X002299Y027925D01*
X002367Y027917D01*
X002435Y027904D01*
X002503Y027888D01*
X002569Y027867D01*
X002634Y027844D01*
X002698Y027816D01*
X002760Y027785D01*
X002820Y027750D01*
X002878Y027712D01*
X002934Y027671D01*
X002987Y027627D01*
X003038Y027580D01*
X003086Y027530D01*
X003131Y027477D01*
X003173Y027422D01*
X003212Y027365D01*
X003247Y027305D01*
X003279Y027244D01*
X003308Y027181D01*
X003333Y027116D01*
X003354Y027050D01*
X003372Y026983D01*
X003385Y026915D01*
X003395Y026846D01*
X003401Y026777D01*
X003403Y026708D01*
X003401Y026639D01*
X003395Y026570D01*
X003385Y026501D01*
X003372Y026433D01*
X003354Y026366D01*
X003333Y026300D01*
X003308Y026235D01*
X003279Y026172D01*
X003247Y026111D01*
X003212Y026051D01*
X003173Y025994D01*
X003131Y025939D01*
X003086Y025886D01*
X003038Y025836D01*
X002987Y025789D01*
X002934Y025745D01*
X002878Y025704D01*
X002820Y025666D01*
X002760Y025631D01*
X002698Y025600D01*
X002634Y025572D01*
X002569Y025549D01*
X002503Y025528D01*
X002435Y025512D01*
X002367Y025499D01*
X002299Y025491D01*
X002229Y025486D01*
X002160Y025485D01*
X002091Y025488D01*
X002022Y025495D01*
X001953Y025506D01*
X001886Y025521D01*
X001819Y025540D01*
X001753Y025562D01*
X001689Y025588D01*
X001626Y025617D01*
X001565Y025651D01*
X001507Y025687D01*
X001450Y025727D01*
X001395Y025770D01*
X001344Y025816D01*
X001294Y025865D01*
X001248Y025916D01*
X001205Y025970D01*
X001212Y025976D01*
X001255Y025922D01*
X001301Y025871D01*
X001350Y025822D01*
X001401Y025777D01*
X001455Y025734D01*
X001512Y025695D01*
X001570Y025658D01*
X001630Y025625D01*
X001693Y025596D01*
X001756Y025570D01*
X001822Y025548D01*
X001888Y025530D01*
X001955Y025515D01*
X002023Y025504D01*
X002092Y025497D01*
X002160Y025494D01*
X002229Y025495D01*
X002298Y025500D01*
X002366Y025508D01*
X002434Y025521D01*
X002500Y025537D01*
X002566Y025557D01*
X002631Y025581D01*
X002694Y025608D01*
X002755Y025639D01*
X002815Y025673D01*
X002873Y025711D01*
X002928Y025752D01*
X002981Y025796D01*
X003031Y025843D01*
X003079Y025892D01*
X003124Y025944D01*
X003166Y025999D01*
X003204Y026056D01*
X003239Y026115D01*
X003271Y026176D01*
X003300Y026239D01*
X003324Y026303D01*
X003346Y026369D01*
X003363Y026435D01*
X003376Y026503D01*
X003386Y026571D01*
X003392Y026639D01*
X003394Y026708D01*
X003392Y026777D01*
X003386Y026845D01*
X003376Y026913D01*
X003363Y026981D01*
X003346Y027047D01*
X003324Y027113D01*
X003300Y027177D01*
X003271Y027240D01*
X003239Y027301D01*
X003204Y027360D01*
X003166Y027417D01*
X003124Y027472D01*
X003079Y027524D01*
X003031Y027573D01*
X002981Y027620D01*
X002928Y027664D01*
X002873Y027705D01*
X002815Y027743D01*
X002755Y027777D01*
X002694Y027808D01*
X002631Y027835D01*
X002566Y027859D01*
X002500Y027879D01*
X002434Y027895D01*
X002366Y027908D01*
X002298Y027916D01*
X002229Y027921D01*
X002160Y027922D01*
X002092Y027919D01*
X002023Y027912D01*
X001955Y027901D01*
X001888Y027886D01*
X001822Y027868D01*
X001756Y027846D01*
X001693Y027820D01*
X001630Y027791D01*
X001570Y027758D01*
X001512Y027721D01*
X001455Y027682D01*
X001401Y027639D01*
X001350Y027594D01*
X001301Y027545D01*
X001255Y027494D01*
X001212Y027440D01*
M02*
