G75*
%MOIN*%
%OFA0B0*%
%FSLAX24Y24*%
%IPPOS*%
%LPD*%
%AMOC8*
5,1,8,0,0,1.08239X$1,22.5*
%
%ADD10C,0.1080*%
%ADD11OC8,0.1080*%
%ADD12C,0.2380*%
%ADD13R,0.0276X0.0502*%
%ADD14R,0.0907X0.0907*%
%ADD15C,0.1340*%
%ADD16R,0.0474X0.0631*%
%ADD17R,0.0710X0.0592*%
%ADD18OC8,0.0680*%
%ADD19C,0.0600*%
%ADD20R,0.0592X0.0710*%
%ADD21C,0.0980*%
%ADD22OC8,0.0740*%
%ADD23R,0.0476X0.0476*%
D10*
X007180Y023833D03*
X013055Y024083D03*
X023055Y023833D03*
D11*
X021055Y023833D03*
X015055Y024083D03*
X005180Y023833D03*
D12*
X002305Y004333D03*
X002180Y029583D03*
X027430Y029708D03*
X027430Y004458D03*
D13*
X017179Y004941D03*
X016805Y004941D03*
X016431Y004941D03*
X016431Y005975D03*
X017179Y005975D03*
D14*
X007180Y005583D03*
X007180Y007748D03*
X007180Y026293D03*
X007180Y028458D03*
X014680Y028458D03*
X014680Y026293D03*
X022055Y026293D03*
X022055Y028458D03*
D15*
X020283Y030112D03*
X023827Y030112D03*
X016452Y030112D03*
X012908Y030112D03*
X008952Y030112D03*
X005408Y030112D03*
X005408Y003930D03*
X008952Y003930D03*
D16*
X014806Y006025D03*
X015554Y006025D03*
X015180Y006891D03*
X008179Y014400D03*
X007805Y015266D03*
X007431Y014400D03*
X026556Y012525D03*
X027304Y012525D03*
X026930Y013391D03*
D17*
X025305Y013459D03*
X025305Y014207D03*
X025055Y006207D03*
X025055Y005459D03*
X022805Y005334D03*
X022805Y006082D03*
X007555Y016459D03*
X007555Y017207D03*
D18*
X005680Y017083D03*
X005680Y010083D03*
X014680Y010083D03*
X014680Y017083D03*
X023180Y017083D03*
X023180Y010083D03*
D19*
X013805Y005093D02*
X013805Y004573D01*
X012805Y004093D02*
X012805Y003573D01*
X011805Y004573D02*
X011805Y005093D01*
D20*
X012181Y005958D03*
X012929Y005958D03*
X016431Y007208D03*
X017179Y007208D03*
D21*
X018430Y010208D03*
X010930Y010208D03*
X010930Y015208D03*
X010930Y016458D03*
X010930Y017708D03*
X010930Y023958D03*
X018430Y023958D03*
D22*
X019305Y026458D03*
X019305Y027458D03*
X026805Y026708D03*
X027805Y026708D03*
X019430Y004833D03*
X019430Y003833D03*
X023680Y003583D03*
X023680Y004583D03*
X002680Y026708D03*
X001680Y026708D03*
D23*
X009680Y014083D03*
X018305Y005958D03*
X021055Y012333D03*
X025305Y015583D03*
X027805Y014333D03*
M02*
