G75*
%MOIN*%
%OFA0B0*%
%FSLAX24Y24*%
%IPPOS*%
%LPD*%
%AMOC8*
5,1,8,0,0,1.08239X$1,22.5*
%
%ADD10C,0.1000*%
%ADD11OC8,0.1000*%
%ADD12C,0.2300*%
%ADD13R,0.0236X0.0472*%
%ADD14R,0.0827X0.0827*%
%ADD15R,0.0394X0.0551*%
%ADD16R,0.0630X0.0512*%
%ADD17OC8,0.0600*%
%ADD18C,0.0520*%
%ADD19R,0.0512X0.0630*%
%ADD20C,0.0900*%
%ADD21OC8,0.0660*%
%ADD22C,0.0160*%
%ADD23C,0.2000*%
%ADD24C,0.0200*%
%ADD25R,0.0396X0.0396*%
%ADD26C,0.1000*%
%ADD27C,0.1500*%
D10*
X007180Y023833D03*
X013055Y024083D03*
X023055Y023833D03*
D11*
X021055Y023833D03*
X015055Y024083D03*
X005180Y023833D03*
D12*
X002180Y029583D03*
X002305Y004333D03*
X027430Y004458D03*
X027430Y029708D03*
D13*
X017179Y005972D03*
X016431Y005972D03*
X016431Y004944D03*
X016805Y004944D03*
X017179Y004944D03*
D14*
X007180Y005583D03*
X007180Y007748D03*
X007180Y026293D03*
X007180Y028458D03*
X014680Y028458D03*
X014680Y026293D03*
X022055Y026293D03*
X022055Y028458D03*
D15*
X026930Y013391D03*
X026556Y012525D03*
X027304Y012525D03*
X015554Y006025D03*
X014806Y006025D03*
X015180Y006891D03*
X008179Y014400D03*
X007805Y015266D03*
X007431Y014400D03*
D16*
X007555Y016459D03*
X007555Y017207D03*
X022805Y006082D03*
X022805Y005334D03*
X025055Y005459D03*
X025055Y006207D03*
X025305Y013459D03*
X025305Y014207D03*
D17*
X023180Y017083D03*
X023180Y010083D03*
X014680Y010083D03*
X014680Y017083D03*
X005680Y017083D03*
X005680Y010083D03*
D18*
X011805Y005093D02*
X011805Y004573D01*
X012805Y004093D02*
X012805Y003573D01*
X013805Y004573D02*
X013805Y005093D01*
D19*
X012929Y005958D03*
X012181Y005958D03*
X016431Y007208D03*
X017179Y007208D03*
D20*
X018430Y010208D03*
X010930Y010208D03*
X010930Y015208D03*
X010930Y016458D03*
X010930Y017708D03*
X010930Y023958D03*
X018430Y023958D03*
D21*
X019305Y026458D03*
X019305Y027458D03*
X026805Y026708D03*
X027805Y026708D03*
X019430Y004833D03*
X019430Y003833D03*
X023680Y003583D03*
X023680Y004583D03*
X002680Y026708D03*
X001680Y026708D03*
D22*
X000660Y031224D02*
X000660Y002813D01*
X029070Y002813D01*
X029070Y031224D01*
X000660Y031224D01*
X000660Y031113D02*
X004923Y031113D01*
X004980Y031146D02*
X004727Y031000D01*
X004520Y030793D01*
X004374Y030540D01*
X004298Y030258D01*
X004298Y029965D01*
X004374Y029683D01*
X004520Y029430D01*
X004727Y029223D01*
X004980Y029077D01*
X005262Y029002D01*
X005554Y029002D01*
X005837Y029077D01*
X006090Y029223D01*
X006297Y029430D01*
X006443Y029683D01*
X006518Y029965D01*
X006518Y030258D01*
X006443Y030540D01*
X006297Y030793D01*
X006090Y031000D01*
X005837Y031146D01*
X005554Y031222D01*
X005262Y031222D01*
X004980Y031146D01*
X004682Y030955D02*
X000660Y030955D01*
X000660Y030796D02*
X001633Y030796D01*
X001611Y030787D02*
X001495Y030725D01*
X001387Y030653D01*
X001286Y030570D01*
X001193Y030477D01*
X001110Y030376D01*
X001038Y030268D01*
X000976Y030152D01*
X000926Y030032D01*
X000888Y029907D01*
X000863Y029778D01*
X000851Y029663D01*
X002100Y029663D01*
X002100Y029503D01*
X002260Y029503D01*
X002260Y028255D01*
X002375Y028266D01*
X002504Y028291D01*
X002629Y028329D01*
X002749Y028379D01*
X002865Y028441D01*
X002973Y028514D01*
X003074Y028596D01*
X003167Y028689D01*
X003250Y028790D01*
X003322Y028898D01*
X003384Y029014D01*
X003434Y029134D01*
X003472Y029260D01*
X003497Y029388D01*
X003509Y029503D01*
X002260Y029503D01*
X002260Y029663D01*
X003509Y029663D01*
X003497Y029778D01*
X003472Y029907D01*
X003434Y030032D01*
X003384Y030152D01*
X003322Y030268D01*
X003250Y030376D01*
X003167Y030477D01*
X003074Y030570D01*
X002973Y030653D01*
X002865Y030725D01*
X002749Y030787D01*
X002629Y030837D01*
X002504Y030875D01*
X002375Y030900D01*
X002260Y030912D01*
X002260Y029663D01*
X002100Y029663D01*
X002100Y030912D01*
X001985Y030900D01*
X001856Y030875D01*
X001731Y030837D01*
X001611Y030787D01*
X001368Y030638D02*
X000660Y030638D01*
X000660Y030479D02*
X001195Y030479D01*
X001073Y030321D02*
X000660Y030321D01*
X000660Y030162D02*
X000981Y030162D01*
X000918Y030004D02*
X000660Y030004D01*
X000660Y029845D02*
X000876Y029845D01*
X000854Y029687D02*
X000660Y029687D01*
X000660Y029528D02*
X002100Y029528D01*
X002100Y029503D02*
X000851Y029503D01*
X000863Y029388D01*
X000888Y029260D01*
X000926Y029134D01*
X000976Y029014D01*
X001038Y028898D01*
X001110Y028790D01*
X001193Y028689D01*
X001286Y028596D01*
X001387Y028514D01*
X001495Y028441D01*
X001611Y028379D01*
X001731Y028329D01*
X001856Y028291D01*
X001985Y028266D01*
X002100Y028255D01*
X002100Y029503D01*
X002100Y029370D02*
X002260Y029370D01*
X002260Y029528D02*
X004464Y029528D01*
X004373Y029687D02*
X003506Y029687D01*
X003484Y029845D02*
X004331Y029845D01*
X004298Y030004D02*
X003442Y030004D01*
X003379Y030162D02*
X004298Y030162D01*
X004315Y030321D02*
X003287Y030321D01*
X003165Y030479D02*
X004358Y030479D01*
X004430Y030638D02*
X002992Y030638D01*
X002727Y030796D02*
X004523Y030796D01*
X005894Y031113D02*
X008466Y031113D01*
X008523Y031146D02*
X008270Y031000D01*
X008063Y030793D01*
X007917Y030540D01*
X007842Y030258D01*
X007842Y029965D01*
X007917Y029683D01*
X008063Y029430D01*
X008270Y029223D01*
X008523Y029077D01*
X008806Y029002D01*
X009098Y029002D01*
X009380Y029077D01*
X009633Y029223D01*
X009840Y029430D01*
X009986Y029683D01*
X010062Y029965D01*
X010062Y030258D01*
X009986Y030540D01*
X009840Y030793D01*
X009633Y031000D01*
X009380Y031146D01*
X009098Y031222D01*
X008806Y031222D01*
X008523Y031146D01*
X008225Y030955D02*
X006135Y030955D01*
X006294Y030796D02*
X008066Y030796D01*
X007974Y030638D02*
X006386Y030638D01*
X006459Y030479D02*
X007901Y030479D01*
X007859Y030321D02*
X006501Y030321D01*
X006518Y030162D02*
X007842Y030162D01*
X007842Y030004D02*
X006518Y030004D01*
X006486Y029845D02*
X007874Y029845D01*
X007916Y029687D02*
X006444Y029687D01*
X006353Y029528D02*
X008007Y029528D01*
X008124Y029370D02*
X006236Y029370D01*
X006068Y029211D02*
X008292Y029211D01*
X008615Y029053D02*
X005745Y029053D01*
X005072Y029053D02*
X003400Y029053D01*
X003457Y029211D02*
X004748Y029211D01*
X004581Y029370D02*
X003494Y029370D01*
X003319Y028894D02*
X006587Y028894D01*
X006587Y028895D02*
X006587Y028516D01*
X007122Y028516D01*
X007122Y028400D01*
X007238Y028400D01*
X007238Y028516D01*
X007773Y028516D01*
X007773Y028895D01*
X007761Y028941D01*
X007737Y028982D01*
X007704Y029015D01*
X007663Y029039D01*
X007617Y029051D01*
X007238Y029051D01*
X007238Y028516D01*
X007122Y028516D01*
X007122Y029051D01*
X006743Y029051D01*
X006697Y029039D01*
X006656Y029015D01*
X006623Y028982D01*
X006599Y028941D01*
X006587Y028895D01*
X006587Y028736D02*
X003205Y028736D01*
X003051Y028577D02*
X006587Y028577D01*
X006587Y028400D02*
X006587Y028021D01*
X006599Y027975D01*
X006623Y027934D01*
X006656Y027901D01*
X006697Y027877D01*
X006743Y027865D01*
X007122Y027865D01*
X007122Y028400D01*
X006587Y028400D01*
X006587Y028260D02*
X002317Y028260D01*
X002260Y028260D02*
X002100Y028260D01*
X002043Y028260D02*
X000660Y028260D01*
X000660Y028102D02*
X006587Y028102D01*
X006617Y027943D02*
X000660Y027943D01*
X000660Y027785D02*
X018910Y027785D01*
X018795Y027669D02*
X019094Y027968D01*
X019305Y027968D01*
X019305Y027458D01*
X019305Y027458D01*
X019815Y027458D01*
X019815Y027247D01*
X019526Y026958D01*
X019815Y026669D01*
X019815Y026247D01*
X019516Y025948D01*
X019094Y025948D01*
X018795Y026247D01*
X018795Y026669D01*
X019084Y026958D01*
X018795Y027247D01*
X018795Y027458D01*
X019305Y027458D01*
X019305Y027458D01*
X019815Y027458D01*
X019815Y027669D01*
X019516Y027968D01*
X019305Y027968D01*
X019305Y027458D01*
X018795Y027458D01*
X018795Y027669D01*
X018795Y027626D02*
X000660Y027626D01*
X000660Y027468D02*
X018795Y027468D01*
X018795Y027309D02*
X000660Y027309D01*
X000660Y027151D02*
X001401Y027151D01*
X001469Y027218D02*
X001170Y026919D01*
X001170Y026708D01*
X001170Y026497D01*
X001469Y026198D01*
X001680Y026198D01*
X001891Y026198D01*
X002180Y026487D01*
X002469Y026198D01*
X002891Y026198D01*
X003190Y026497D01*
X003190Y026919D01*
X002891Y027218D01*
X002469Y027218D01*
X002180Y026929D01*
X001891Y027218D01*
X001680Y027218D01*
X001469Y027218D01*
X001680Y027218D02*
X001680Y026708D01*
X001680Y026198D01*
X001680Y026708D01*
X001680Y026708D01*
X001170Y026708D01*
X001680Y026708D01*
X001680Y026708D01*
X001680Y026708D01*
X001680Y027218D01*
X001680Y027151D02*
X001680Y027151D01*
X001680Y026992D02*
X001680Y026992D01*
X001680Y026834D02*
X001680Y026834D01*
X001680Y026675D02*
X001680Y026675D01*
X001680Y026517D02*
X001680Y026517D01*
X001680Y026358D02*
X001680Y026358D01*
X001680Y026200D02*
X001680Y026200D01*
X001893Y026200D02*
X002467Y026200D01*
X002309Y026358D02*
X002051Y026358D01*
X001467Y026200D02*
X000660Y026200D01*
X000660Y026358D02*
X001309Y026358D01*
X001170Y026517D02*
X000660Y026517D01*
X000660Y026675D02*
X001170Y026675D01*
X001170Y026834D02*
X000660Y026834D01*
X000660Y026992D02*
X001243Y026992D01*
X001959Y027151D02*
X002401Y027151D01*
X002243Y026992D02*
X002117Y026992D01*
X002959Y027151D02*
X014321Y027151D01*
X014153Y027081D02*
X012267Y025195D01*
X012191Y025013D01*
X011417Y025013D01*
X011115Y025138D01*
X010745Y025138D01*
X010403Y024996D01*
X010142Y024735D01*
X010000Y024393D01*
X010000Y024023D01*
X010142Y023681D01*
X010250Y023573D01*
X010250Y017573D01*
X010354Y017323D01*
X010545Y017132D01*
X010727Y017056D01*
X010573Y016992D01*
X010396Y016815D01*
X010364Y016738D01*
X008050Y016738D01*
X008050Y016790D01*
X008006Y016833D01*
X008014Y016841D01*
X008038Y016882D01*
X008050Y016927D01*
X008050Y017159D01*
X007603Y017159D01*
X007603Y017255D01*
X008050Y017255D01*
X008050Y017487D01*
X008038Y017532D01*
X008014Y017574D01*
X007980Y017607D01*
X007939Y017631D01*
X007894Y017643D01*
X007603Y017643D01*
X007603Y017255D01*
X007507Y017255D01*
X007507Y017159D01*
X007060Y017159D01*
X007060Y016927D01*
X007072Y016882D01*
X007096Y016841D01*
X007104Y016833D01*
X007060Y016790D01*
X007060Y016129D01*
X007165Y016023D01*
X007945Y016023D01*
X008050Y016129D01*
X008050Y016178D01*
X010364Y016178D01*
X010396Y016101D01*
X010573Y015924D01*
X010793Y015833D01*
X010573Y015742D01*
X010396Y015565D01*
X010364Y015488D01*
X008182Y015488D01*
X008182Y015616D01*
X008076Y015722D01*
X007534Y015722D01*
X007428Y015616D01*
X007428Y014916D01*
X007489Y014856D01*
X007449Y014856D01*
X007449Y014418D01*
X007413Y014418D01*
X007413Y014382D01*
X007449Y014382D01*
X007449Y013944D01*
X007652Y013944D01*
X007697Y013957D01*
X007738Y013980D01*
X007772Y014014D01*
X007796Y014055D01*
X007802Y014080D01*
X007802Y014050D01*
X007908Y013944D01*
X008239Y013944D01*
X008337Y013846D01*
X008440Y013803D01*
X009309Y013803D01*
X009407Y013705D01*
X009662Y013705D01*
X012275Y011092D01*
X012275Y009152D01*
X012318Y009049D01*
X012396Y008971D01*
X014713Y006654D01*
X014803Y006617D01*
X014803Y006541D01*
X014864Y006481D01*
X014535Y006481D01*
X014429Y006375D01*
X014429Y006305D01*
X014104Y006305D01*
X013792Y006617D01*
X013714Y006695D01*
X013611Y006738D01*
X012249Y006738D01*
X012146Y006695D01*
X011944Y006493D01*
X011927Y006453D01*
X011851Y006453D01*
X011745Y006348D01*
X011745Y006238D01*
X009086Y006238D01*
X008728Y006596D01*
X008926Y006649D01*
X009195Y006804D01*
X009415Y007024D01*
X011874Y009484D01*
X012030Y009753D01*
X012110Y010053D01*
X012110Y010363D01*
X012030Y010664D01*
X011874Y010933D01*
X011655Y011152D01*
X011385Y011308D01*
X011085Y011388D01*
X010775Y011388D01*
X010475Y011308D01*
X010205Y011152D01*
X007982Y008928D01*
X007025Y008928D01*
X006725Y008848D01*
X006455Y008693D01*
X006236Y008473D01*
X006080Y008204D01*
X006000Y007904D01*
X006000Y007593D01*
X006080Y007293D01*
X006236Y007024D01*
X006455Y006804D01*
X006725Y006649D01*
X007025Y006568D01*
X007964Y006568D01*
X008812Y005721D01*
X008915Y005678D01*
X011745Y005678D01*
X011745Y005569D01*
X011781Y005533D01*
X011717Y005533D01*
X011556Y005466D01*
X011432Y005342D01*
X011365Y005181D01*
X011365Y004486D01*
X011432Y004324D01*
X011556Y004200D01*
X011717Y004133D01*
X011893Y004133D01*
X012054Y004200D01*
X012178Y004324D01*
X012245Y004486D01*
X012245Y005181D01*
X012178Y005342D01*
X012057Y005463D01*
X012511Y005463D01*
X012555Y005507D01*
X012599Y005463D01*
X012779Y005463D01*
X013365Y004877D01*
X013365Y004486D01*
X013432Y004324D01*
X013556Y004200D01*
X013717Y004133D01*
X013893Y004133D01*
X014054Y004200D01*
X014178Y004324D01*
X014245Y004486D01*
X014245Y004664D01*
X016133Y004664D01*
X016133Y004633D01*
X016238Y004528D01*
X016624Y004528D01*
X016632Y004536D01*
X016663Y004528D01*
X016805Y004528D01*
X016947Y004528D01*
X016978Y004536D01*
X016986Y004528D01*
X017372Y004528D01*
X017477Y004633D01*
X017477Y004664D01*
X018920Y004664D01*
X018920Y004622D01*
X019209Y004333D01*
X018920Y004044D01*
X018920Y003833D01*
X018920Y003622D01*
X019219Y003323D01*
X019430Y003323D01*
X019430Y003833D01*
X019430Y003323D01*
X019641Y003323D01*
X019940Y003622D01*
X019940Y003833D01*
X019430Y003833D01*
X019430Y003833D01*
X019430Y003833D01*
X018920Y003833D01*
X019430Y003833D01*
X019430Y003833D01*
X019940Y003833D01*
X019940Y004044D01*
X019651Y004333D01*
X019940Y004622D01*
X019940Y005044D01*
X019641Y005343D01*
X019219Y005343D01*
X019100Y005224D01*
X017477Y005224D01*
X017477Y005255D01*
X017372Y005360D01*
X016986Y005360D01*
X016978Y005352D01*
X016947Y005360D01*
X016805Y005360D01*
X016663Y005360D01*
X016632Y005352D01*
X016624Y005360D01*
X016238Y005360D01*
X016133Y005255D01*
X016133Y005224D01*
X014227Y005224D01*
X014178Y005342D01*
X014054Y005466D01*
X013893Y005533D01*
X013717Y005533D01*
X013564Y005470D01*
X013365Y005669D01*
X013365Y006178D01*
X013439Y006178D01*
X013829Y005788D01*
X013932Y005745D01*
X014429Y005745D01*
X014429Y005675D01*
X014535Y005569D01*
X015077Y005569D01*
X015180Y005672D01*
X015283Y005569D01*
X015825Y005569D01*
X015931Y005675D01*
X015931Y005745D01*
X016133Y005745D01*
X016133Y005661D01*
X016238Y005556D01*
X016624Y005556D01*
X016729Y005661D01*
X016729Y006283D01*
X016711Y006301D01*
X016711Y006713D01*
X016761Y006713D01*
X016805Y006757D01*
X016849Y006713D01*
X016899Y006713D01*
X016899Y006301D01*
X016881Y006283D01*
X016881Y005661D01*
X016986Y005556D01*
X017372Y005556D01*
X017477Y005661D01*
X017477Y005692D01*
X017927Y005692D01*
X017927Y005685D01*
X018032Y005580D01*
X018578Y005580D01*
X018683Y005685D01*
X018683Y006231D01*
X018578Y006336D01*
X018032Y006336D01*
X017948Y006252D01*
X017477Y006252D01*
X017477Y006283D01*
X017459Y006301D01*
X017459Y006713D01*
X017509Y006713D01*
X017615Y006819D01*
X017615Y007598D01*
X017534Y007678D01*
X021939Y007678D01*
X022525Y007092D01*
X022525Y006518D01*
X022415Y006518D01*
X022310Y006413D01*
X022310Y005752D01*
X022354Y005708D01*
X022346Y005700D01*
X022322Y005659D01*
X022310Y005614D01*
X022310Y005382D01*
X022757Y005382D01*
X022757Y005286D01*
X022853Y005286D01*
X022853Y004898D01*
X023144Y004898D01*
X023189Y004910D01*
X023230Y004934D01*
X023264Y004968D01*
X023288Y005009D01*
X023300Y005054D01*
X023300Y005286D01*
X022853Y005286D01*
X022853Y005382D01*
X023300Y005382D01*
X023300Y005614D01*
X023288Y005659D01*
X023264Y005700D01*
X023256Y005708D01*
X023300Y005752D01*
X023300Y005802D01*
X024573Y005802D01*
X024560Y005790D01*
X024560Y005739D01*
X024500Y005739D01*
X024397Y005696D01*
X023794Y005093D01*
X023469Y005093D01*
X023170Y004794D01*
X023170Y004372D01*
X023459Y004083D01*
X023170Y003794D01*
X023170Y003583D01*
X023170Y003372D01*
X023469Y003073D01*
X023680Y003073D01*
X023680Y003583D01*
X023680Y003073D01*
X023891Y003073D01*
X024190Y003372D01*
X024190Y003583D01*
X023680Y003583D01*
X023680Y003583D01*
X023680Y003583D01*
X023170Y003583D01*
X023680Y003583D01*
X023680Y003583D01*
X024190Y003583D01*
X024190Y003794D01*
X023901Y004083D01*
X024190Y004372D01*
X024190Y004697D01*
X024591Y005098D01*
X024665Y005023D01*
X025445Y005023D01*
X025550Y005129D01*
X025550Y005790D01*
X025506Y005833D01*
X025550Y005877D01*
X025550Y006538D01*
X025445Y006643D01*
X024665Y006643D01*
X024560Y006538D01*
X024560Y006363D01*
X023300Y006363D01*
X023300Y006413D01*
X023195Y006518D01*
X023085Y006518D01*
X023085Y007264D01*
X023042Y007367D01*
X022292Y008117D01*
X022214Y008195D01*
X022111Y008238D01*
X015874Y008238D01*
X015771Y008195D01*
X015021Y007445D01*
X014943Y007367D01*
X014934Y007347D01*
X014909Y007347D01*
X014860Y007299D01*
X012835Y009324D01*
X012835Y011264D01*
X012792Y011367D01*
X010058Y014101D01*
X010058Y014356D01*
X009953Y014461D01*
X009407Y014461D01*
X009309Y014363D01*
X008612Y014363D01*
X008556Y014419D01*
X008556Y014750D01*
X008450Y014856D01*
X008121Y014856D01*
X008182Y014916D01*
X008182Y014928D01*
X010364Y014928D01*
X010396Y014851D01*
X010573Y014674D01*
X010805Y014578D01*
X011055Y014578D01*
X011287Y014674D01*
X011464Y014851D01*
X011560Y015083D01*
X011560Y015333D01*
X011464Y015565D01*
X011287Y015742D01*
X011067Y015833D01*
X011287Y015924D01*
X011464Y016101D01*
X011560Y016333D01*
X011560Y016583D01*
X011464Y016815D01*
X011287Y016992D01*
X011133Y017056D01*
X011315Y017132D01*
X011506Y017323D01*
X011610Y017573D01*
X011610Y023153D01*
X012125Y023153D01*
X012125Y018523D01*
X012267Y018181D01*
X014153Y016295D01*
X014495Y016153D01*
X014865Y016153D01*
X015207Y016295D01*
X015468Y016556D01*
X015610Y016898D01*
X015610Y017268D01*
X015468Y017610D01*
X013985Y019093D01*
X013985Y024282D01*
X015468Y025766D01*
X015610Y026108D01*
X015610Y026478D01*
X015468Y026820D01*
X015207Y027081D01*
X014865Y027223D01*
X014495Y027223D01*
X014153Y027081D01*
X014064Y026992D02*
X003117Y026992D01*
X003190Y026834D02*
X006640Y026834D01*
X006692Y026886D02*
X006587Y026781D01*
X006587Y025805D01*
X006692Y025699D01*
X007668Y025699D01*
X007773Y025805D01*
X007773Y026781D01*
X007668Y026886D01*
X006692Y026886D01*
X006587Y026675D02*
X003190Y026675D01*
X003190Y026517D02*
X006587Y026517D01*
X006587Y026358D02*
X003051Y026358D01*
X002893Y026200D02*
X006587Y026200D01*
X006587Y026041D02*
X000660Y026041D01*
X000660Y025883D02*
X006587Y025883D01*
X006667Y025724D02*
X000660Y025724D01*
X000660Y025566D02*
X012638Y025566D01*
X012796Y025724D02*
X007693Y025724D01*
X007773Y025883D02*
X012955Y025883D01*
X013113Y026041D02*
X007773Y026041D01*
X007773Y026200D02*
X013272Y026200D01*
X013430Y026358D02*
X007773Y026358D01*
X007773Y026517D02*
X013589Y026517D01*
X013747Y026675D02*
X007773Y026675D01*
X007720Y026834D02*
X013906Y026834D01*
X014197Y027877D02*
X014243Y027865D01*
X014622Y027865D01*
X014622Y028400D01*
X014738Y028400D01*
X014738Y028516D01*
X015273Y028516D01*
X015273Y028895D01*
X015261Y028941D01*
X015237Y028982D01*
X015204Y029015D01*
X015163Y029039D01*
X015117Y029051D01*
X014738Y029051D01*
X014738Y028516D01*
X014622Y028516D01*
X014622Y028400D01*
X014087Y028400D01*
X014087Y028021D01*
X014099Y027975D01*
X014123Y027934D01*
X014156Y027901D01*
X014197Y027877D01*
X014117Y027943D02*
X007743Y027943D01*
X007737Y027934D02*
X007761Y027975D01*
X007773Y028021D01*
X007773Y028400D01*
X007238Y028400D01*
X007238Y027865D01*
X007617Y027865D01*
X007663Y027877D01*
X007704Y027901D01*
X007737Y027934D01*
X007773Y028102D02*
X014087Y028102D01*
X014087Y028260D02*
X007773Y028260D01*
X007773Y028577D02*
X014087Y028577D01*
X014087Y028516D02*
X014622Y028516D01*
X014622Y029051D01*
X014243Y029051D01*
X014197Y029039D01*
X014156Y029015D01*
X014123Y028982D01*
X014099Y028941D01*
X014087Y028895D01*
X014087Y028516D01*
X014087Y028736D02*
X007773Y028736D01*
X007773Y028894D02*
X014087Y028894D01*
X014622Y028894D02*
X014738Y028894D01*
X014738Y028736D02*
X014622Y028736D01*
X014622Y028577D02*
X014738Y028577D01*
X014738Y028419D02*
X021997Y028419D01*
X021997Y028400D02*
X021462Y028400D01*
X021462Y028021D01*
X021474Y027975D01*
X021498Y027934D01*
X021531Y027901D01*
X021572Y027877D01*
X021618Y027865D01*
X021997Y027865D01*
X021997Y028400D01*
X022113Y028400D01*
X022113Y028516D01*
X022648Y028516D01*
X022648Y028895D01*
X022636Y028941D01*
X022612Y028982D01*
X022579Y029015D01*
X022538Y029039D01*
X022492Y029051D01*
X022113Y029051D01*
X022113Y028516D01*
X021997Y028516D01*
X021997Y028400D01*
X022113Y028400D02*
X022113Y027865D01*
X022492Y027865D01*
X022538Y027877D01*
X022579Y027901D01*
X022612Y027934D01*
X022636Y027975D01*
X022648Y028021D01*
X022648Y028400D01*
X022113Y028400D01*
X022113Y028419D02*
X027099Y028419D01*
X027106Y028416D02*
X027235Y028391D01*
X027350Y028380D01*
X027350Y029628D01*
X027510Y029628D01*
X027510Y028380D01*
X027625Y028391D01*
X027754Y028416D01*
X027879Y028454D01*
X027999Y028504D01*
X028115Y028566D01*
X028223Y028639D01*
X028324Y028721D01*
X028417Y028814D01*
X028500Y028915D01*
X028572Y029023D01*
X028634Y029139D01*
X028684Y029259D01*
X028722Y029385D01*
X028747Y029513D01*
X028759Y029628D01*
X027510Y029628D01*
X027510Y029788D01*
X028759Y029788D01*
X028747Y029903D01*
X028722Y030032D01*
X028684Y030157D01*
X028634Y030277D01*
X028572Y030393D01*
X028500Y030501D01*
X028417Y030602D01*
X028324Y030695D01*
X028223Y030778D01*
X028115Y030850D01*
X027999Y030912D01*
X027879Y030962D01*
X027754Y031000D01*
X027625Y031025D01*
X027510Y031037D01*
X027510Y029788D01*
X027350Y029788D01*
X027350Y029628D01*
X026101Y029628D01*
X026113Y029513D01*
X026138Y029385D01*
X026176Y029259D01*
X026226Y029139D01*
X026288Y029023D01*
X026360Y028915D01*
X026443Y028814D01*
X026536Y028721D01*
X026637Y028639D01*
X026745Y028566D01*
X026861Y028504D01*
X026981Y028454D01*
X027106Y028416D01*
X027350Y028419D02*
X027510Y028419D01*
X027510Y028577D02*
X027350Y028577D01*
X027350Y028736D02*
X027510Y028736D01*
X027510Y028894D02*
X027350Y028894D01*
X027350Y029053D02*
X027510Y029053D01*
X027510Y029211D02*
X027350Y029211D01*
X027350Y029370D02*
X027510Y029370D01*
X027510Y029528D02*
X027350Y029528D01*
X027350Y029687D02*
X024862Y029687D01*
X024861Y029683D02*
X024937Y029965D01*
X024937Y030258D01*
X024861Y030540D01*
X024715Y030793D01*
X024508Y031000D01*
X024255Y031146D01*
X023973Y031222D01*
X023681Y031222D01*
X023398Y031146D01*
X023145Y031000D01*
X022938Y030793D01*
X022792Y030540D01*
X022717Y030258D01*
X022717Y029965D01*
X022792Y029683D01*
X022938Y029430D01*
X023145Y029223D01*
X023398Y029077D01*
X023681Y029002D01*
X023973Y029002D01*
X024255Y029077D01*
X024508Y029223D01*
X024715Y029430D01*
X024861Y029683D01*
X024904Y029845D02*
X026107Y029845D01*
X026101Y029788D02*
X026113Y029903D01*
X026138Y030032D01*
X026176Y030157D01*
X026226Y030277D01*
X026288Y030393D01*
X026360Y030501D01*
X026443Y030602D01*
X026536Y030695D01*
X026637Y030778D01*
X026745Y030850D01*
X026861Y030912D01*
X026981Y030962D01*
X027106Y031000D01*
X027235Y031025D01*
X027350Y031037D01*
X027350Y029788D01*
X026101Y029788D01*
X026133Y030004D02*
X024937Y030004D01*
X024937Y030162D02*
X026178Y030162D01*
X026249Y030321D02*
X024920Y030321D01*
X024877Y030479D02*
X026346Y030479D01*
X026479Y030638D02*
X024805Y030638D01*
X024712Y030796D02*
X026664Y030796D01*
X026964Y030955D02*
X024553Y030955D01*
X024312Y031113D02*
X029070Y031113D01*
X029070Y030955D02*
X027896Y030955D01*
X028196Y030796D02*
X029070Y030796D01*
X029070Y030638D02*
X028381Y030638D01*
X028514Y030479D02*
X029070Y030479D01*
X029070Y030321D02*
X028611Y030321D01*
X028682Y030162D02*
X029070Y030162D01*
X029070Y030004D02*
X028727Y030004D01*
X028753Y029845D02*
X029070Y029845D01*
X029070Y029687D02*
X027510Y029687D01*
X027510Y029845D02*
X027350Y029845D01*
X027350Y030004D02*
X027510Y030004D01*
X027510Y030162D02*
X027350Y030162D01*
X027350Y030321D02*
X027510Y030321D01*
X027510Y030479D02*
X027350Y030479D01*
X027350Y030638D02*
X027510Y030638D01*
X027510Y030796D02*
X027350Y030796D01*
X027350Y030955D02*
X027510Y030955D01*
X028749Y029528D02*
X029070Y029528D01*
X029070Y029370D02*
X028717Y029370D01*
X028664Y029211D02*
X029070Y029211D01*
X029070Y029053D02*
X028588Y029053D01*
X028483Y028894D02*
X029070Y028894D01*
X029070Y028736D02*
X028338Y028736D01*
X028131Y028577D02*
X029070Y028577D01*
X029070Y028419D02*
X027761Y028419D01*
X026729Y028577D02*
X022648Y028577D01*
X022648Y028736D02*
X026522Y028736D01*
X026377Y028894D02*
X022648Y028894D01*
X022113Y028894D02*
X021997Y028894D01*
X021997Y029051D02*
X021618Y029051D01*
X021572Y029039D01*
X021531Y029015D01*
X021498Y028982D01*
X021474Y028941D01*
X021462Y028895D01*
X021462Y028516D01*
X021997Y028516D01*
X021997Y029051D01*
X021997Y028736D02*
X022113Y028736D01*
X022113Y028577D02*
X021997Y028577D01*
X021997Y028260D02*
X022113Y028260D01*
X022113Y028102D02*
X021997Y028102D01*
X021997Y027943D02*
X022113Y027943D01*
X022618Y027943D02*
X029070Y027943D01*
X029070Y027785D02*
X019700Y027785D01*
X019815Y027626D02*
X029070Y027626D01*
X029070Y027468D02*
X019815Y027468D01*
X019815Y027309D02*
X029070Y027309D01*
X029070Y027151D02*
X028084Y027151D01*
X028016Y027218D02*
X028315Y026919D01*
X028315Y026708D01*
X027805Y026708D01*
X027805Y026198D01*
X028016Y026198D01*
X028315Y026497D01*
X028315Y026708D01*
X027805Y026708D01*
X027805Y026708D01*
X027805Y026198D01*
X027594Y026198D01*
X027305Y026487D01*
X027016Y026198D01*
X026594Y026198D01*
X026295Y026497D01*
X026295Y026919D01*
X026594Y027218D01*
X027016Y027218D01*
X027305Y026929D01*
X027594Y027218D01*
X027805Y027218D01*
X028016Y027218D01*
X027805Y027218D02*
X027805Y026708D01*
X027805Y026708D01*
X027805Y027218D01*
X027805Y027151D02*
X027805Y027151D01*
X027805Y026992D02*
X027805Y026992D01*
X027805Y026834D02*
X027805Y026834D01*
X027805Y026708D02*
X027805Y026708D01*
X027805Y026675D02*
X027805Y026675D01*
X027805Y026517D02*
X027805Y026517D01*
X027805Y026358D02*
X027805Y026358D01*
X027805Y026200D02*
X027805Y026200D01*
X028018Y026200D02*
X029070Y026200D01*
X029070Y026358D02*
X028176Y026358D01*
X028315Y026517D02*
X029070Y026517D01*
X029070Y026675D02*
X028315Y026675D01*
X028315Y026834D02*
X029070Y026834D01*
X029070Y026992D02*
X028242Y026992D01*
X027526Y027151D02*
X027084Y027151D01*
X027242Y026992D02*
X027368Y026992D01*
X027434Y026358D02*
X027176Y026358D01*
X027018Y026200D02*
X027592Y026200D01*
X026592Y026200D02*
X022648Y026200D01*
X022648Y026358D02*
X026434Y026358D01*
X026295Y026517D02*
X022648Y026517D01*
X022648Y026675D02*
X026295Y026675D01*
X026295Y026834D02*
X022595Y026834D01*
X022543Y026886D02*
X021567Y026886D01*
X021462Y026781D01*
X021462Y025805D01*
X021567Y025699D01*
X022543Y025699D01*
X022648Y025805D01*
X022648Y026781D01*
X022543Y026886D01*
X022648Y026041D02*
X029070Y026041D01*
X029070Y025883D02*
X022648Y025883D01*
X022568Y025724D02*
X029070Y025724D01*
X029070Y025566D02*
X015268Y025566D01*
X015427Y025724D02*
X021542Y025724D01*
X021462Y025883D02*
X015517Y025883D01*
X015582Y026041D02*
X019001Y026041D01*
X018842Y026200D02*
X015610Y026200D01*
X015610Y026358D02*
X018795Y026358D01*
X018795Y026517D02*
X015594Y026517D01*
X015528Y026675D02*
X018801Y026675D01*
X018959Y026834D02*
X015454Y026834D01*
X015296Y026992D02*
X019050Y026992D01*
X018891Y027151D02*
X015039Y027151D01*
X015117Y027865D02*
X014738Y027865D01*
X014738Y028400D01*
X015273Y028400D01*
X015273Y028021D01*
X015261Y027975D01*
X015237Y027934D01*
X015204Y027901D01*
X015163Y027877D01*
X015117Y027865D01*
X015243Y027943D02*
X019069Y027943D01*
X019305Y027943D02*
X019305Y027943D01*
X019305Y027785D02*
X019305Y027785D01*
X019305Y027626D02*
X019305Y027626D01*
X019305Y027468D02*
X019305Y027468D01*
X019305Y027458D02*
X019305Y027458D01*
X019541Y027943D02*
X021492Y027943D01*
X021462Y028102D02*
X015273Y028102D01*
X015273Y028260D02*
X021462Y028260D01*
X021462Y028577D02*
X015273Y028577D01*
X015273Y028736D02*
X021462Y028736D01*
X021462Y028894D02*
X015273Y028894D01*
X015624Y029370D02*
X013736Y029370D01*
X013797Y029430D02*
X013943Y029683D01*
X014018Y029965D01*
X014018Y030258D01*
X013943Y030540D01*
X013797Y030793D01*
X013590Y031000D01*
X013337Y031146D01*
X013054Y031222D01*
X012762Y031222D01*
X012480Y031146D01*
X012227Y031000D01*
X012020Y030793D01*
X011874Y030540D01*
X011798Y030258D01*
X011798Y029965D01*
X011874Y029683D01*
X012020Y029430D01*
X012227Y029223D01*
X012480Y029077D01*
X012762Y029002D01*
X013054Y029002D01*
X013337Y029077D01*
X013590Y029223D01*
X013797Y029430D01*
X013853Y029528D02*
X015507Y029528D01*
X015563Y029430D02*
X015417Y029683D01*
X015342Y029965D01*
X015342Y030258D01*
X015417Y030540D01*
X015563Y030793D01*
X015770Y031000D01*
X016023Y031146D01*
X016306Y031222D01*
X016598Y031222D01*
X016880Y031146D01*
X017133Y031000D01*
X017340Y030793D01*
X017486Y030540D01*
X017562Y030258D01*
X017562Y029965D01*
X017486Y029683D01*
X017340Y029430D01*
X017133Y029223D01*
X016880Y029077D01*
X016598Y029002D01*
X016306Y029002D01*
X016023Y029077D01*
X015770Y029223D01*
X015563Y029430D01*
X015416Y029687D02*
X013944Y029687D01*
X013986Y029845D02*
X015374Y029845D01*
X015342Y030004D02*
X014018Y030004D01*
X014018Y030162D02*
X015342Y030162D01*
X015359Y030321D02*
X014001Y030321D01*
X013959Y030479D02*
X015401Y030479D01*
X015474Y030638D02*
X013886Y030638D01*
X013794Y030796D02*
X015566Y030796D01*
X015725Y030955D02*
X013635Y030955D01*
X013394Y031113D02*
X015966Y031113D01*
X016937Y031113D02*
X019798Y031113D01*
X019855Y031146D02*
X019602Y031000D01*
X019395Y030793D01*
X019249Y030540D01*
X019173Y030258D01*
X019173Y029965D01*
X019249Y029683D01*
X019395Y029430D01*
X019602Y029223D01*
X019855Y029077D01*
X020137Y029002D01*
X020429Y029002D01*
X020712Y029077D01*
X020965Y029223D01*
X021172Y029430D01*
X021318Y029683D01*
X021393Y029965D01*
X021393Y030258D01*
X021318Y030540D01*
X021172Y030793D01*
X020965Y031000D01*
X020712Y031146D01*
X020429Y031222D01*
X020137Y031222D01*
X019855Y031146D01*
X019557Y030955D02*
X017178Y030955D01*
X017337Y030796D02*
X019398Y030796D01*
X019305Y030638D02*
X017430Y030638D01*
X017502Y030479D02*
X019233Y030479D01*
X019190Y030321D02*
X017545Y030321D01*
X017562Y030162D02*
X019173Y030162D01*
X019173Y030004D02*
X017562Y030004D01*
X017529Y029845D02*
X019206Y029845D01*
X019248Y029687D02*
X017487Y029687D01*
X017396Y029528D02*
X019339Y029528D01*
X019456Y029370D02*
X017279Y029370D01*
X017112Y029211D02*
X019623Y029211D01*
X019947Y029053D02*
X016788Y029053D01*
X016115Y029053D02*
X013245Y029053D01*
X013568Y029211D02*
X015792Y029211D01*
X014738Y028260D02*
X014622Y028260D01*
X014622Y028102D02*
X014738Y028102D01*
X014738Y027943D02*
X014622Y027943D01*
X014622Y028419D02*
X007238Y028419D01*
X007122Y028419D02*
X002823Y028419D01*
X002260Y028419D02*
X002100Y028419D01*
X002100Y028577D02*
X002260Y028577D01*
X002260Y028736D02*
X002100Y028736D01*
X002100Y028894D02*
X002260Y028894D01*
X002260Y029053D02*
X002100Y029053D01*
X002100Y029211D02*
X002260Y029211D01*
X002260Y029687D02*
X002100Y029687D01*
X002100Y029845D02*
X002260Y029845D01*
X002260Y030004D02*
X002100Y030004D01*
X002100Y030162D02*
X002260Y030162D01*
X002260Y030321D02*
X002100Y030321D01*
X002100Y030479D02*
X002260Y030479D01*
X002260Y030638D02*
X002100Y030638D01*
X002100Y030796D02*
X002260Y030796D01*
X000903Y029211D02*
X000660Y029211D01*
X000660Y029053D02*
X000960Y029053D01*
X001041Y028894D02*
X000660Y028894D01*
X000660Y028736D02*
X001155Y028736D01*
X001309Y028577D02*
X000660Y028577D01*
X000660Y028419D02*
X001537Y028419D01*
X000866Y029370D02*
X000660Y029370D01*
X000660Y025407D02*
X012479Y025407D01*
X012321Y025249D02*
X000660Y025249D01*
X000660Y025090D02*
X010629Y025090D01*
X010338Y024932D02*
X000660Y024932D01*
X000660Y024773D02*
X010180Y024773D01*
X010092Y024615D02*
X000660Y024615D01*
X000660Y024456D02*
X004841Y024456D01*
X004898Y024513D02*
X004500Y024115D01*
X004500Y023853D01*
X005160Y023853D01*
X005160Y023813D01*
X005200Y023813D01*
X005200Y023153D01*
X005462Y023153D01*
X005860Y023551D01*
X005860Y023813D01*
X005200Y023813D01*
X005200Y023853D01*
X005860Y023853D01*
X005860Y024115D01*
X005462Y024513D01*
X005200Y024513D01*
X005200Y023853D01*
X005160Y023853D01*
X005160Y024513D01*
X004898Y024513D01*
X005160Y024456D02*
X005200Y024456D01*
X005200Y024298D02*
X005160Y024298D01*
X005160Y024139D02*
X005200Y024139D01*
X005200Y023981D02*
X005160Y023981D01*
X005160Y023822D02*
X000660Y023822D01*
X000660Y023664D02*
X004500Y023664D01*
X004500Y023551D02*
X004500Y023813D01*
X005160Y023813D01*
X005160Y023153D01*
X004898Y023153D01*
X004500Y023551D01*
X004546Y023505D02*
X000660Y023505D01*
X000660Y023347D02*
X004705Y023347D01*
X004863Y023188D02*
X000660Y023188D01*
X000660Y023030D02*
X010250Y023030D01*
X010250Y023188D02*
X007400Y023188D01*
X007315Y023153D02*
X007565Y023257D01*
X007756Y023448D01*
X007860Y023698D01*
X007860Y023968D01*
X007756Y024218D01*
X007565Y024410D01*
X007315Y024513D01*
X007045Y024513D01*
X006795Y024410D01*
X006604Y024218D01*
X006500Y023968D01*
X006500Y023698D01*
X006604Y023448D01*
X006795Y023257D01*
X007045Y023153D01*
X007315Y023153D01*
X006960Y023188D02*
X005497Y023188D01*
X005655Y023347D02*
X006705Y023347D01*
X006580Y023505D02*
X005814Y023505D01*
X005860Y023664D02*
X006514Y023664D01*
X006500Y023822D02*
X005200Y023822D01*
X005200Y023664D02*
X005160Y023664D01*
X005160Y023505D02*
X005200Y023505D01*
X005200Y023347D02*
X005160Y023347D01*
X005160Y023188D02*
X005200Y023188D01*
X005860Y023981D02*
X006505Y023981D01*
X006571Y024139D02*
X005836Y024139D01*
X005677Y024298D02*
X006683Y024298D01*
X006907Y024456D02*
X005519Y024456D01*
X004683Y024298D02*
X000660Y024298D01*
X000660Y024139D02*
X004524Y024139D01*
X004500Y023981D02*
X000660Y023981D01*
X000660Y022871D02*
X010250Y022871D01*
X010250Y022713D02*
X000660Y022713D01*
X000660Y022554D02*
X010250Y022554D01*
X010250Y022396D02*
X000660Y022396D01*
X000660Y022237D02*
X010250Y022237D01*
X010250Y022079D02*
X000660Y022079D01*
X000660Y021920D02*
X010250Y021920D01*
X010250Y021762D02*
X000660Y021762D01*
X000660Y021603D02*
X010250Y021603D01*
X010250Y021445D02*
X000660Y021445D01*
X000660Y021286D02*
X010250Y021286D01*
X010250Y021128D02*
X000660Y021128D01*
X000660Y020969D02*
X010250Y020969D01*
X010250Y020811D02*
X000660Y020811D01*
X000660Y020652D02*
X010250Y020652D01*
X010250Y020494D02*
X000660Y020494D01*
X000660Y020335D02*
X010250Y020335D01*
X010250Y020177D02*
X000660Y020177D01*
X000660Y020018D02*
X010250Y020018D01*
X010250Y019860D02*
X000660Y019860D01*
X000660Y019701D02*
X010250Y019701D01*
X010250Y019543D02*
X000660Y019543D01*
X000660Y019384D02*
X010250Y019384D01*
X010250Y019226D02*
X000660Y019226D01*
X000660Y019067D02*
X010250Y019067D01*
X010250Y018909D02*
X000660Y018909D01*
X000660Y018750D02*
X010250Y018750D01*
X010250Y018592D02*
X000660Y018592D01*
X000660Y018433D02*
X010250Y018433D01*
X010250Y018275D02*
X000660Y018275D01*
X000660Y018116D02*
X010250Y018116D01*
X010250Y017958D02*
X000660Y017958D01*
X000660Y017799D02*
X010250Y017799D01*
X010250Y017641D02*
X007903Y017641D01*
X008050Y017482D02*
X010288Y017482D01*
X010353Y017324D02*
X008050Y017324D01*
X008050Y017007D02*
X010608Y017007D01*
X010511Y017165D02*
X007603Y017165D01*
X007507Y017165D02*
X006160Y017165D01*
X006160Y017282D02*
X005879Y017563D01*
X005481Y017563D01*
X005200Y017282D01*
X005200Y016884D01*
X005481Y016603D01*
X005879Y016603D01*
X006160Y016884D01*
X006160Y017282D01*
X006118Y017324D02*
X007060Y017324D01*
X007060Y017255D02*
X007507Y017255D01*
X007507Y017643D01*
X007216Y017643D01*
X007171Y017631D01*
X007130Y017607D01*
X007096Y017574D01*
X007072Y017532D01*
X007060Y017487D01*
X007060Y017255D01*
X007060Y017482D02*
X005960Y017482D01*
X005400Y017482D02*
X000660Y017482D01*
X000660Y017324D02*
X005242Y017324D01*
X005200Y017165D02*
X000660Y017165D01*
X000660Y017007D02*
X005200Y017007D01*
X005236Y016848D02*
X000660Y016848D01*
X000660Y016690D02*
X005395Y016690D01*
X005965Y016690D02*
X007060Y016690D01*
X007060Y016531D02*
X000660Y016531D01*
X000660Y016373D02*
X007060Y016373D01*
X007060Y016214D02*
X000660Y016214D01*
X000660Y016056D02*
X007133Y016056D01*
X007428Y015580D02*
X000660Y015580D01*
X000660Y015422D02*
X007428Y015422D01*
X007428Y015263D02*
X000660Y015263D01*
X000660Y015105D02*
X007428Y015105D01*
X007428Y014946D02*
X000660Y014946D01*
X000660Y014788D02*
X007092Y014788D01*
X007090Y014786D02*
X007066Y014745D01*
X007054Y014699D01*
X007054Y014418D01*
X007413Y014418D01*
X007413Y014856D01*
X007210Y014856D01*
X007165Y014843D01*
X007124Y014820D01*
X007090Y014786D01*
X007054Y014629D02*
X000660Y014629D01*
X000660Y014471D02*
X007054Y014471D01*
X007054Y014382D02*
X007054Y014101D01*
X007066Y014055D01*
X007090Y014014D01*
X007124Y013980D01*
X007165Y013957D01*
X007210Y013944D01*
X007413Y013944D01*
X007413Y014382D01*
X007054Y014382D01*
X007054Y014312D02*
X000660Y014312D01*
X000660Y014154D02*
X007054Y014154D01*
X007109Y013995D02*
X000660Y013995D01*
X000660Y013837D02*
X008359Y013837D01*
X007857Y013995D02*
X007753Y013995D01*
X007449Y013995D02*
X007413Y013995D01*
X007413Y014154D02*
X007449Y014154D01*
X007449Y014312D02*
X007413Y014312D01*
X007413Y014471D02*
X007449Y014471D01*
X007449Y014629D02*
X007413Y014629D01*
X007413Y014788D02*
X007449Y014788D01*
X008182Y015580D02*
X010411Y015580D01*
X010570Y015739D02*
X000660Y015739D01*
X000660Y015897D02*
X010638Y015897D01*
X010442Y016056D02*
X007977Y016056D01*
X008018Y016848D02*
X010429Y016848D01*
X011252Y017007D02*
X013441Y017007D01*
X013283Y017165D02*
X011349Y017165D01*
X011507Y017324D02*
X013124Y017324D01*
X012966Y017482D02*
X011572Y017482D01*
X011610Y017641D02*
X012807Y017641D01*
X012649Y017799D02*
X011610Y017799D01*
X011610Y017958D02*
X012490Y017958D01*
X012332Y018116D02*
X011610Y018116D01*
X011610Y018275D02*
X012228Y018275D01*
X012162Y018433D02*
X011610Y018433D01*
X011610Y018592D02*
X012125Y018592D01*
X012125Y018750D02*
X011610Y018750D01*
X011610Y018909D02*
X012125Y018909D01*
X012125Y019067D02*
X011610Y019067D01*
X011610Y019226D02*
X012125Y019226D01*
X012125Y019384D02*
X011610Y019384D01*
X011610Y019543D02*
X012125Y019543D01*
X012125Y019701D02*
X011610Y019701D01*
X011610Y019860D02*
X012125Y019860D01*
X012125Y020018D02*
X011610Y020018D01*
X011610Y020177D02*
X012125Y020177D01*
X012125Y020335D02*
X011610Y020335D01*
X011610Y020494D02*
X012125Y020494D01*
X012125Y020652D02*
X011610Y020652D01*
X011610Y020811D02*
X012125Y020811D01*
X012125Y020969D02*
X011610Y020969D01*
X011610Y021128D02*
X012125Y021128D01*
X012125Y021286D02*
X011610Y021286D01*
X011610Y021445D02*
X012125Y021445D01*
X012125Y021603D02*
X011610Y021603D01*
X011610Y021762D02*
X012125Y021762D01*
X012125Y021920D02*
X011610Y021920D01*
X011610Y022079D02*
X012125Y022079D01*
X012125Y022237D02*
X011610Y022237D01*
X011610Y022396D02*
X012125Y022396D01*
X012125Y022554D02*
X011610Y022554D01*
X011610Y022713D02*
X012125Y022713D01*
X012125Y022871D02*
X011610Y022871D01*
X011610Y023030D02*
X012125Y023030D01*
X013985Y023030D02*
X029070Y023030D01*
X029070Y023188D02*
X023275Y023188D01*
X023190Y023153D02*
X023440Y023257D01*
X023631Y023448D01*
X023735Y023698D01*
X023735Y023968D01*
X023631Y024218D01*
X023440Y024410D01*
X023190Y024513D01*
X022920Y024513D01*
X022670Y024410D01*
X022479Y024218D01*
X022375Y023968D01*
X022375Y023698D01*
X022479Y023448D01*
X022670Y023257D01*
X022920Y023153D01*
X023190Y023153D01*
X022835Y023188D02*
X021372Y023188D01*
X021337Y023153D02*
X021735Y023551D01*
X021735Y023813D01*
X021075Y023813D01*
X021075Y023153D01*
X021337Y023153D01*
X021075Y023188D02*
X021035Y023188D01*
X021035Y023153D02*
X021035Y023813D01*
X021075Y023813D01*
X021075Y023853D01*
X021735Y023853D01*
X021735Y024115D01*
X021337Y024513D01*
X021075Y024513D01*
X021075Y023853D01*
X021035Y023853D01*
X021035Y023813D01*
X020375Y023813D01*
X020375Y023551D01*
X020773Y023153D01*
X021035Y023153D01*
X021035Y023347D02*
X021075Y023347D01*
X021075Y023505D02*
X021035Y023505D01*
X021035Y023664D02*
X021075Y023664D01*
X021075Y023822D02*
X022375Y023822D01*
X022380Y023981D02*
X021735Y023981D01*
X021711Y024139D02*
X022446Y024139D01*
X022558Y024298D02*
X021552Y024298D01*
X021394Y024456D02*
X022782Y024456D01*
X023328Y024456D02*
X029070Y024456D01*
X029070Y024298D02*
X023552Y024298D01*
X023664Y024139D02*
X029070Y024139D01*
X029070Y023981D02*
X023730Y023981D01*
X023735Y023822D02*
X029070Y023822D01*
X029070Y023664D02*
X023721Y023664D01*
X023655Y023505D02*
X029070Y023505D01*
X029070Y023347D02*
X023530Y023347D01*
X022580Y023347D02*
X021530Y023347D01*
X021689Y023505D02*
X022455Y023505D01*
X022389Y023664D02*
X021735Y023664D01*
X021035Y023822D02*
X019046Y023822D01*
X019044Y023811D02*
X019055Y023878D01*
X018510Y023878D01*
X018510Y023333D01*
X018578Y023344D01*
X018672Y023374D01*
X018760Y023419D01*
X018840Y023478D01*
X018911Y023548D01*
X018969Y023628D01*
X019014Y023716D01*
X019044Y023811D01*
X018987Y023664D02*
X020375Y023664D01*
X020421Y023505D02*
X018868Y023505D01*
X018587Y023347D02*
X020580Y023347D01*
X020738Y023188D02*
X013985Y023188D01*
X013985Y023347D02*
X018273Y023347D01*
X018282Y023344D02*
X018350Y023333D01*
X018350Y023878D01*
X018510Y023878D01*
X018510Y024038D01*
X019055Y024038D01*
X019044Y024106D01*
X019014Y024200D01*
X018969Y024288D01*
X018911Y024368D01*
X018840Y024439D01*
X018760Y024497D01*
X018672Y024542D01*
X018578Y024573D01*
X018510Y024583D01*
X018510Y024038D01*
X018350Y024038D01*
X018350Y023878D01*
X017805Y023878D01*
X017816Y023811D01*
X017846Y023716D01*
X017891Y023628D01*
X017949Y023548D01*
X018020Y023478D01*
X018100Y023419D01*
X018188Y023374D01*
X018282Y023344D01*
X018350Y023347D02*
X018510Y023347D01*
X018510Y023505D02*
X018350Y023505D01*
X018350Y023664D02*
X018510Y023664D01*
X018510Y023822D02*
X018350Y023822D01*
X018350Y023981D02*
X015735Y023981D01*
X015735Y024063D02*
X015735Y023801D01*
X015337Y023403D01*
X015075Y023403D01*
X015075Y024063D01*
X015035Y024063D01*
X015035Y023403D01*
X014773Y023403D01*
X014375Y023801D01*
X014375Y024063D01*
X015035Y024063D01*
X015035Y024103D01*
X014375Y024103D01*
X014375Y024365D01*
X014773Y024763D01*
X015035Y024763D01*
X015035Y024103D01*
X015075Y024103D01*
X015735Y024103D01*
X015735Y024365D01*
X015337Y024763D01*
X015075Y024763D01*
X015075Y024103D01*
X015075Y024063D01*
X015735Y024063D01*
X015735Y024139D02*
X017826Y024139D01*
X017816Y024106D02*
X017805Y024038D01*
X018350Y024038D01*
X018350Y024583D01*
X018282Y024573D01*
X018188Y024542D01*
X018100Y024497D01*
X018020Y024439D01*
X017949Y024368D01*
X017891Y024288D01*
X017846Y024200D01*
X017816Y024106D01*
X017898Y024298D02*
X015735Y024298D01*
X015644Y024456D02*
X018044Y024456D01*
X018350Y024456D02*
X018510Y024456D01*
X018510Y024298D02*
X018350Y024298D01*
X018350Y024139D02*
X018510Y024139D01*
X018510Y023981D02*
X020375Y023981D01*
X020375Y023853D02*
X021035Y023853D01*
X021035Y024513D01*
X020773Y024513D01*
X020375Y024115D01*
X020375Y023853D01*
X020399Y024139D02*
X019034Y024139D01*
X018962Y024298D02*
X020558Y024298D01*
X020716Y024456D02*
X018816Y024456D01*
X017992Y023505D02*
X015439Y023505D01*
X015597Y023664D02*
X017873Y023664D01*
X017814Y023822D02*
X015735Y023822D01*
X015075Y023822D02*
X015035Y023822D01*
X015035Y023664D02*
X015075Y023664D01*
X015075Y023505D02*
X015035Y023505D01*
X014671Y023505D02*
X013985Y023505D01*
X013985Y023664D02*
X014513Y023664D01*
X014375Y023822D02*
X013985Y023822D01*
X013985Y023981D02*
X014375Y023981D01*
X014375Y024139D02*
X013985Y024139D01*
X014000Y024298D02*
X014375Y024298D01*
X014466Y024456D02*
X014159Y024456D01*
X014317Y024615D02*
X014625Y024615D01*
X014476Y024773D02*
X029070Y024773D01*
X029070Y024615D02*
X015485Y024615D01*
X015075Y024615D02*
X015035Y024615D01*
X015035Y024456D02*
X015075Y024456D01*
X015075Y024298D02*
X015035Y024298D01*
X015035Y024139D02*
X015075Y024139D01*
X015075Y023981D02*
X015035Y023981D01*
X014634Y024932D02*
X029070Y024932D01*
X029070Y025090D02*
X014793Y025090D01*
X014951Y025249D02*
X029070Y025249D01*
X029070Y025407D02*
X015110Y025407D01*
X013985Y022871D02*
X029070Y022871D01*
X029070Y022713D02*
X013985Y022713D01*
X013985Y022554D02*
X029070Y022554D01*
X029070Y022396D02*
X013985Y022396D01*
X013985Y022237D02*
X029070Y022237D01*
X029070Y022079D02*
X013985Y022079D01*
X013985Y021920D02*
X029070Y021920D01*
X029070Y021762D02*
X013985Y021762D01*
X013985Y021603D02*
X029070Y021603D01*
X029070Y021445D02*
X013985Y021445D01*
X013985Y021286D02*
X029070Y021286D01*
X029070Y021128D02*
X013985Y021128D01*
X013985Y020969D02*
X029070Y020969D01*
X029070Y020811D02*
X013985Y020811D01*
X013985Y020652D02*
X029070Y020652D01*
X029070Y020494D02*
X013985Y020494D01*
X013985Y020335D02*
X029070Y020335D01*
X029070Y020177D02*
X013985Y020177D01*
X013985Y020018D02*
X029070Y020018D01*
X029070Y019860D02*
X013985Y019860D01*
X013985Y019701D02*
X029070Y019701D01*
X029070Y019543D02*
X013985Y019543D01*
X013985Y019384D02*
X029070Y019384D01*
X029070Y019226D02*
X013985Y019226D01*
X014011Y019067D02*
X029070Y019067D01*
X029070Y018909D02*
X014170Y018909D01*
X014328Y018750D02*
X029070Y018750D01*
X029070Y018592D02*
X014487Y018592D01*
X014645Y018433D02*
X029070Y018433D01*
X029070Y018275D02*
X014804Y018275D01*
X014962Y018116D02*
X029070Y018116D01*
X029070Y017958D02*
X015121Y017958D01*
X015279Y017799D02*
X029070Y017799D01*
X029070Y017641D02*
X015438Y017641D01*
X015521Y017482D02*
X022900Y017482D01*
X022981Y017563D02*
X022700Y017282D01*
X022700Y016884D01*
X022981Y016603D01*
X023379Y016603D01*
X023660Y016884D01*
X023660Y017282D01*
X023379Y017563D01*
X022981Y017563D01*
X022742Y017324D02*
X015587Y017324D01*
X015610Y017165D02*
X022700Y017165D01*
X022700Y017007D02*
X015610Y017007D01*
X015589Y016848D02*
X022736Y016848D01*
X022895Y016690D02*
X015524Y016690D01*
X015443Y016531D02*
X029070Y016531D01*
X029070Y016373D02*
X015285Y016373D01*
X015012Y016214D02*
X029070Y016214D01*
X029070Y016056D02*
X011418Y016056D01*
X011511Y016214D02*
X014348Y016214D01*
X014075Y016373D02*
X011560Y016373D01*
X011560Y016531D02*
X013917Y016531D01*
X013758Y016690D02*
X011516Y016690D01*
X011431Y016848D02*
X013600Y016848D01*
X011449Y015580D02*
X024927Y015580D01*
X024927Y015422D02*
X011523Y015422D01*
X011560Y015263D02*
X024974Y015263D01*
X024927Y015310D02*
X025025Y015212D01*
X025025Y014643D01*
X024915Y014643D01*
X024810Y014538D01*
X024810Y013877D01*
X024854Y013833D01*
X024846Y013825D01*
X024822Y013784D01*
X024810Y013739D01*
X024810Y013507D01*
X025257Y013507D01*
X025257Y013411D01*
X025353Y013411D01*
X025353Y013023D01*
X025644Y013023D01*
X025689Y013035D01*
X025730Y013059D01*
X025764Y013093D01*
X025788Y013134D01*
X025800Y013179D01*
X025800Y013411D01*
X025353Y013411D01*
X025353Y013507D01*
X025800Y013507D01*
X025800Y013739D01*
X025788Y013784D01*
X025764Y013825D01*
X025756Y013833D01*
X025800Y013877D01*
X025800Y014538D01*
X025695Y014643D01*
X025585Y014643D01*
X025585Y015212D01*
X025683Y015310D01*
X025683Y015856D01*
X025578Y015961D01*
X025032Y015961D01*
X024927Y015856D01*
X024927Y015310D01*
X025025Y015105D02*
X011560Y015105D01*
X011503Y014946D02*
X025025Y014946D01*
X025025Y014788D02*
X011400Y014788D01*
X011178Y014629D02*
X024902Y014629D01*
X024810Y014471D02*
X008556Y014471D01*
X008556Y014629D02*
X010682Y014629D01*
X010460Y014788D02*
X008518Y014788D01*
X009689Y013678D02*
X000660Y013678D01*
X000660Y013520D02*
X009848Y013520D01*
X010006Y013361D02*
X000660Y013361D01*
X000660Y013203D02*
X010165Y013203D01*
X010323Y013044D02*
X000660Y013044D01*
X000660Y012886D02*
X010482Y012886D01*
X010640Y012727D02*
X000660Y012727D01*
X000660Y012569D02*
X010799Y012569D01*
X010957Y012410D02*
X000660Y012410D01*
X000660Y012252D02*
X011116Y012252D01*
X011274Y012093D02*
X000660Y012093D01*
X000660Y011935D02*
X011433Y011935D01*
X011591Y011776D02*
X000660Y011776D01*
X000660Y011618D02*
X011750Y011618D01*
X011908Y011459D02*
X000660Y011459D01*
X000660Y011301D02*
X010462Y011301D01*
X010195Y011142D02*
X000660Y011142D01*
X000660Y010984D02*
X010037Y010984D01*
X009878Y010825D02*
X000660Y010825D01*
X000660Y010667D02*
X009720Y010667D01*
X009561Y010508D02*
X005934Y010508D01*
X005879Y010563D02*
X005700Y010563D01*
X005700Y010103D01*
X006160Y010103D01*
X006160Y010282D01*
X005879Y010563D01*
X005700Y010508D02*
X005660Y010508D01*
X005660Y010563D02*
X005481Y010563D01*
X005200Y010282D01*
X005200Y010103D01*
X005660Y010103D01*
X005660Y010063D01*
X005700Y010063D01*
X005700Y009603D01*
X005879Y009603D01*
X006160Y009884D01*
X006160Y010063D01*
X005700Y010063D01*
X005700Y010103D01*
X005660Y010103D01*
X005660Y010563D01*
X005660Y010350D02*
X005700Y010350D01*
X005700Y010191D02*
X005660Y010191D01*
X005660Y010063D02*
X005200Y010063D01*
X005200Y009884D01*
X005481Y009603D01*
X005660Y009603D01*
X005660Y010063D01*
X005660Y010033D02*
X005700Y010033D01*
X005700Y009874D02*
X005660Y009874D01*
X005660Y009716D02*
X005700Y009716D01*
X005991Y009716D02*
X008769Y009716D01*
X008927Y009874D02*
X006150Y009874D01*
X006160Y010033D02*
X009086Y010033D01*
X009244Y010191D02*
X006160Y010191D01*
X006092Y010350D02*
X009403Y010350D01*
X008610Y009557D02*
X000660Y009557D01*
X000660Y009399D02*
X008452Y009399D01*
X008293Y009240D02*
X000660Y009240D01*
X000660Y009082D02*
X008135Y009082D01*
X007005Y008923D02*
X000660Y008923D01*
X000660Y008765D02*
X006580Y008765D01*
X006369Y008606D02*
X000660Y008606D01*
X000660Y008448D02*
X006221Y008448D01*
X006130Y008289D02*
X000660Y008289D01*
X000660Y008131D02*
X006061Y008131D01*
X006018Y007972D02*
X000660Y007972D01*
X000660Y007814D02*
X006000Y007814D01*
X006000Y007655D02*
X000660Y007655D01*
X000660Y007497D02*
X006026Y007497D01*
X006068Y007338D02*
X000660Y007338D01*
X000660Y007180D02*
X006146Y007180D01*
X006239Y007021D02*
X000660Y007021D01*
X000660Y006863D02*
X006397Y006863D01*
X006629Y006704D02*
X000660Y006704D01*
X000660Y006546D02*
X007987Y006546D01*
X008145Y006387D02*
X000660Y006387D01*
X000660Y006229D02*
X008304Y006229D01*
X008462Y006070D02*
X007759Y006070D01*
X007761Y006066D02*
X007737Y006107D01*
X007704Y006140D01*
X007663Y006164D01*
X007617Y006176D01*
X007238Y006176D01*
X007238Y005641D01*
X007773Y005641D01*
X007773Y006020D01*
X007761Y006066D01*
X007773Y005912D02*
X008621Y005912D01*
X008779Y005753D02*
X007773Y005753D01*
X007773Y005525D02*
X007238Y005525D01*
X007238Y005641D01*
X007122Y005641D01*
X007122Y005525D01*
X007238Y005525D01*
X007238Y004990D01*
X007617Y004990D01*
X007663Y005002D01*
X007704Y005026D01*
X007737Y005059D01*
X007761Y005100D01*
X007773Y005146D01*
X007773Y005525D01*
X007773Y005436D02*
X011526Y005436D01*
X011405Y005278D02*
X007773Y005278D01*
X007766Y005119D02*
X011365Y005119D01*
X011365Y004961D02*
X009386Y004961D01*
X009380Y004964D02*
X009098Y005039D01*
X008806Y005039D01*
X008523Y004964D01*
X008270Y004818D01*
X008063Y004611D01*
X007917Y004358D01*
X007842Y004076D01*
X007842Y003783D01*
X007917Y003501D01*
X008063Y003248D01*
X008270Y003041D01*
X008523Y002895D01*
X008806Y002820D01*
X009098Y002820D01*
X009380Y002895D01*
X009633Y003041D01*
X009840Y003248D01*
X009986Y003501D01*
X010062Y003783D01*
X010062Y004076D01*
X009986Y004358D01*
X009840Y004611D01*
X009633Y004818D01*
X009380Y004964D01*
X009649Y004802D02*
X011365Y004802D01*
X011365Y004644D02*
X009807Y004644D01*
X009913Y004485D02*
X011365Y004485D01*
X011431Y004327D02*
X009994Y004327D01*
X010037Y004168D02*
X011633Y004168D01*
X011977Y004168D02*
X012371Y004168D01*
X012376Y004196D02*
X012365Y004128D01*
X012365Y003833D01*
X012365Y003538D01*
X012376Y003470D01*
X012397Y003404D01*
X012429Y003342D01*
X012469Y003286D01*
X012518Y003237D01*
X012574Y003197D01*
X012636Y003165D01*
X012702Y003144D01*
X012770Y003133D01*
X012805Y003133D01*
X012840Y003133D01*
X012908Y003144D01*
X012974Y003165D01*
X013036Y003197D01*
X013092Y003237D01*
X013141Y003286D01*
X013181Y003342D01*
X013213Y003404D01*
X013234Y003470D01*
X013245Y003538D01*
X013245Y003833D01*
X012805Y003833D01*
X012805Y003133D01*
X012805Y003833D01*
X012805Y003833D01*
X012805Y003833D01*
X012365Y003833D01*
X012805Y003833D01*
X012805Y003833D01*
X013245Y003833D01*
X013245Y004128D01*
X013234Y004196D01*
X013213Y004262D01*
X013181Y004324D01*
X013141Y004380D01*
X013092Y004429D01*
X013036Y004469D01*
X012974Y004501D01*
X012908Y004522D01*
X012840Y004533D01*
X012805Y004533D01*
X012805Y003833D01*
X012805Y004533D01*
X012770Y004533D01*
X012702Y004522D01*
X012636Y004501D01*
X012574Y004469D01*
X012518Y004429D01*
X012469Y004380D01*
X012429Y004324D01*
X012397Y004262D01*
X012376Y004196D01*
X012431Y004327D02*
X012179Y004327D01*
X012245Y004485D02*
X012605Y004485D01*
X012805Y004485D02*
X012805Y004485D01*
X012805Y004327D02*
X012805Y004327D01*
X012805Y004168D02*
X012805Y004168D01*
X012805Y004010D02*
X012805Y004010D01*
X012805Y003851D02*
X012805Y003851D01*
X012805Y003833D02*
X012805Y003833D01*
X012805Y003693D02*
X012805Y003693D01*
X012805Y003534D02*
X012805Y003534D01*
X012805Y003376D02*
X012805Y003376D01*
X012805Y003217D02*
X012805Y003217D01*
X013064Y003217D02*
X023325Y003217D01*
X023170Y003376D02*
X019694Y003376D01*
X019852Y003534D02*
X023170Y003534D01*
X023170Y003693D02*
X019940Y003693D01*
X019940Y003851D02*
X023227Y003851D01*
X023385Y004010D02*
X019940Y004010D01*
X019816Y004168D02*
X023374Y004168D01*
X023215Y004327D02*
X019658Y004327D01*
X019803Y004485D02*
X023170Y004485D01*
X023170Y004644D02*
X019940Y004644D01*
X019940Y004802D02*
X023178Y004802D01*
X023257Y004961D02*
X023336Y004961D01*
X023300Y005119D02*
X023820Y005119D01*
X023979Y005278D02*
X023300Y005278D01*
X023300Y005436D02*
X024137Y005436D01*
X024296Y005595D02*
X023300Y005595D01*
X023300Y005753D02*
X024560Y005753D01*
X024560Y006387D02*
X023300Y006387D01*
X023085Y006546D02*
X024568Y006546D01*
X025542Y006546D02*
X029070Y006546D01*
X029070Y006704D02*
X023085Y006704D01*
X023085Y006863D02*
X029070Y006863D01*
X029070Y007021D02*
X023085Y007021D01*
X023085Y007180D02*
X029070Y007180D01*
X029070Y007338D02*
X023054Y007338D01*
X022912Y007497D02*
X029070Y007497D01*
X029070Y007655D02*
X022754Y007655D01*
X022595Y007814D02*
X029070Y007814D01*
X029070Y007972D02*
X022437Y007972D01*
X022278Y008131D02*
X029070Y008131D01*
X029070Y008289D02*
X013870Y008289D01*
X014028Y008131D02*
X015707Y008131D01*
X015548Y007972D02*
X014187Y007972D01*
X014345Y007814D02*
X015390Y007814D01*
X015231Y007655D02*
X014504Y007655D01*
X014662Y007497D02*
X015073Y007497D01*
X014900Y007338D02*
X014821Y007338D01*
X014346Y007021D02*
X009412Y007021D01*
X009570Y007180D02*
X014188Y007180D01*
X014029Y007338D02*
X009729Y007338D01*
X009887Y007497D02*
X013871Y007497D01*
X013712Y007655D02*
X010046Y007655D01*
X010204Y007814D02*
X013554Y007814D01*
X013395Y007972D02*
X010363Y007972D01*
X010521Y008131D02*
X013237Y008131D01*
X013078Y008289D02*
X010680Y008289D01*
X010838Y008448D02*
X012920Y008448D01*
X012761Y008606D02*
X010997Y008606D01*
X011155Y008765D02*
X012603Y008765D01*
X012444Y008923D02*
X011314Y008923D01*
X011472Y009082D02*
X012304Y009082D01*
X012275Y009240D02*
X011631Y009240D01*
X011789Y009399D02*
X012275Y009399D01*
X012275Y009557D02*
X011917Y009557D01*
X012008Y009716D02*
X012275Y009716D01*
X012275Y009874D02*
X012062Y009874D01*
X012105Y010033D02*
X012275Y010033D01*
X012275Y010191D02*
X012110Y010191D01*
X012110Y010350D02*
X012275Y010350D01*
X012275Y010508D02*
X012071Y010508D01*
X012028Y010667D02*
X012275Y010667D01*
X012275Y010825D02*
X011936Y010825D01*
X011823Y010984D02*
X012275Y010984D01*
X012225Y011142D02*
X011665Y011142D01*
X011398Y011301D02*
X012067Y011301D01*
X012541Y011618D02*
X025500Y011618D01*
X025658Y011459D02*
X012700Y011459D01*
X012820Y011301D02*
X029070Y011301D01*
X029070Y011459D02*
X027202Y011459D01*
X027089Y011346D02*
X026986Y011303D01*
X025874Y011303D01*
X025771Y011346D01*
X025693Y011424D01*
X025064Y012053D01*
X021426Y012053D01*
X021328Y011955D01*
X020782Y011955D01*
X020677Y012060D01*
X020677Y012606D01*
X020782Y012711D01*
X021328Y012711D01*
X021426Y012613D01*
X025236Y012613D01*
X025339Y012570D01*
X026046Y011863D01*
X026814Y011863D01*
X027025Y012074D01*
X027025Y012077D01*
X026927Y012175D01*
X026927Y012205D01*
X026921Y012180D01*
X026897Y012139D01*
X026863Y012105D01*
X026822Y012082D01*
X026777Y012069D01*
X026574Y012069D01*
X026574Y012507D01*
X026538Y012507D01*
X026179Y012507D01*
X026179Y012226D01*
X026191Y012180D01*
X026215Y012139D01*
X026249Y012105D01*
X026290Y012082D01*
X026335Y012069D01*
X026538Y012069D01*
X026538Y012507D01*
X026538Y012543D01*
X026179Y012543D01*
X026179Y012824D01*
X026191Y012870D01*
X026215Y012911D01*
X026249Y012945D01*
X026290Y012968D01*
X026335Y012981D01*
X026538Y012981D01*
X026538Y012543D01*
X026574Y012543D01*
X026574Y012981D01*
X026614Y012981D01*
X026553Y013041D01*
X026553Y013741D01*
X026659Y013847D01*
X026990Y013847D01*
X027427Y014284D01*
X027427Y014606D01*
X027532Y014711D01*
X028078Y014711D01*
X028183Y014606D01*
X028183Y014060D01*
X028078Y013955D01*
X027890Y013955D01*
X027307Y013372D01*
X027307Y013041D01*
X027246Y012981D01*
X027575Y012981D01*
X027681Y012875D01*
X027681Y012175D01*
X027585Y012079D01*
X027585Y011902D01*
X027542Y011799D01*
X027464Y011721D01*
X027089Y011346D01*
X027360Y011618D02*
X029070Y011618D01*
X029070Y011776D02*
X027519Y011776D01*
X027585Y011935D02*
X029070Y011935D01*
X029070Y012093D02*
X027599Y012093D01*
X027681Y012252D02*
X029070Y012252D01*
X029070Y012410D02*
X027681Y012410D01*
X027681Y012569D02*
X029070Y012569D01*
X029070Y012727D02*
X027681Y012727D01*
X027670Y012886D02*
X029070Y012886D01*
X029070Y013044D02*
X027307Y013044D01*
X027307Y013203D02*
X029070Y013203D01*
X029070Y013361D02*
X027307Y013361D01*
X027454Y013520D02*
X029070Y013520D01*
X029070Y013678D02*
X027613Y013678D01*
X027771Y013837D02*
X029070Y013837D01*
X029070Y013995D02*
X028118Y013995D01*
X028183Y014154D02*
X029070Y014154D01*
X029070Y014312D02*
X028183Y014312D01*
X028183Y014471D02*
X029070Y014471D01*
X029070Y014629D02*
X028160Y014629D01*
X027450Y014629D02*
X025708Y014629D01*
X025800Y014471D02*
X027427Y014471D01*
X027427Y014312D02*
X025800Y014312D01*
X025800Y014154D02*
X027296Y014154D01*
X027138Y013995D02*
X025800Y013995D01*
X025760Y013837D02*
X026648Y013837D01*
X026553Y013678D02*
X025800Y013678D01*
X025800Y013520D02*
X026553Y013520D01*
X026553Y013361D02*
X025800Y013361D01*
X025800Y013203D02*
X026553Y013203D01*
X026553Y013044D02*
X025704Y013044D01*
X026200Y012886D02*
X011273Y012886D01*
X011115Y013044D02*
X024906Y013044D01*
X024921Y013035D02*
X024966Y013023D01*
X025257Y013023D01*
X025257Y013411D01*
X024810Y013411D01*
X024810Y013179D01*
X024822Y013134D01*
X024846Y013093D01*
X024880Y013059D01*
X024921Y013035D01*
X024810Y013203D02*
X010956Y013203D01*
X010798Y013361D02*
X024810Y013361D01*
X024810Y013520D02*
X010639Y013520D01*
X010481Y013678D02*
X024810Y013678D01*
X024850Y013837D02*
X010322Y013837D01*
X010164Y013995D02*
X024810Y013995D01*
X024810Y014154D02*
X010058Y014154D01*
X010058Y014312D02*
X024810Y014312D01*
X025585Y014788D02*
X029070Y014788D01*
X029070Y014946D02*
X025585Y014946D01*
X025585Y015105D02*
X029070Y015105D01*
X029070Y015263D02*
X025636Y015263D01*
X025683Y015422D02*
X029070Y015422D01*
X029070Y015580D02*
X025683Y015580D01*
X025683Y015739D02*
X029070Y015739D01*
X029070Y015897D02*
X025642Y015897D01*
X024968Y015897D02*
X011222Y015897D01*
X011290Y015739D02*
X024927Y015739D01*
X023624Y016848D02*
X029070Y016848D01*
X029070Y016690D02*
X023465Y016690D01*
X023660Y017007D02*
X029070Y017007D01*
X029070Y017165D02*
X023660Y017165D01*
X023618Y017324D02*
X029070Y017324D01*
X029070Y017482D02*
X023460Y017482D01*
X025257Y013361D02*
X025353Y013361D01*
X025353Y013203D02*
X025257Y013203D01*
X025257Y013044D02*
X025353Y013044D01*
X025340Y012569D02*
X026179Y012569D01*
X026179Y012727D02*
X011432Y012727D01*
X011590Y012569D02*
X020677Y012569D01*
X020677Y012410D02*
X011749Y012410D01*
X011907Y012252D02*
X020677Y012252D01*
X020677Y012093D02*
X012066Y012093D01*
X012224Y011935D02*
X025183Y011935D01*
X025341Y011776D02*
X012383Y011776D01*
X012835Y011142D02*
X029070Y011142D01*
X029070Y010984D02*
X012835Y010984D01*
X012835Y010825D02*
X018298Y010825D01*
X018282Y010823D02*
X018188Y010792D01*
X018100Y010747D01*
X018020Y010689D01*
X017949Y010618D01*
X017891Y010538D01*
X017846Y010450D01*
X017816Y010356D01*
X017805Y010288D01*
X018350Y010288D01*
X018350Y010128D01*
X018510Y010128D01*
X018510Y009583D01*
X018578Y009594D01*
X018672Y009624D01*
X018760Y009669D01*
X018840Y009728D01*
X018911Y009798D01*
X018969Y009878D01*
X019014Y009966D01*
X019044Y010061D01*
X019055Y010128D01*
X018510Y010128D01*
X018510Y010288D01*
X019055Y010288D01*
X019044Y010356D01*
X019014Y010450D01*
X018969Y010538D01*
X018911Y010618D01*
X018840Y010689D01*
X018760Y010747D01*
X018672Y010792D01*
X018578Y010823D01*
X018510Y010833D01*
X018510Y010288D01*
X018350Y010288D01*
X018350Y010833D01*
X018282Y010823D01*
X018350Y010825D02*
X018510Y010825D01*
X018562Y010825D02*
X029070Y010825D01*
X029070Y010667D02*
X018862Y010667D01*
X018984Y010508D02*
X022926Y010508D01*
X022981Y010563D02*
X022700Y010282D01*
X022700Y010103D01*
X023160Y010103D01*
X023160Y010063D01*
X023200Y010063D01*
X023200Y009603D01*
X023379Y009603D01*
X023660Y009884D01*
X023660Y010063D01*
X023200Y010063D01*
X023200Y010103D01*
X023660Y010103D01*
X023660Y010282D01*
X023379Y010563D01*
X023200Y010563D01*
X023200Y010103D01*
X023160Y010103D01*
X023160Y010563D01*
X022981Y010563D01*
X023160Y010508D02*
X023200Y010508D01*
X023200Y010350D02*
X023160Y010350D01*
X023160Y010191D02*
X023200Y010191D01*
X023160Y010063D02*
X022700Y010063D01*
X022700Y009884D01*
X022981Y009603D01*
X023160Y009603D01*
X023160Y010063D01*
X023160Y010033D02*
X023200Y010033D01*
X023200Y009874D02*
X023160Y009874D01*
X023160Y009716D02*
X023200Y009716D01*
X023491Y009716D02*
X029070Y009716D01*
X029070Y009874D02*
X023650Y009874D01*
X023660Y010033D02*
X029070Y010033D01*
X029070Y010191D02*
X023660Y010191D01*
X023592Y010350D02*
X029070Y010350D01*
X029070Y010508D02*
X023434Y010508D01*
X022768Y010350D02*
X019045Y010350D01*
X019035Y010033D02*
X022700Y010033D01*
X022700Y010191D02*
X018510Y010191D01*
X018510Y010033D02*
X018350Y010033D01*
X018350Y010128D02*
X018350Y009583D01*
X018282Y009594D01*
X018188Y009624D01*
X018100Y009669D01*
X018020Y009728D01*
X017949Y009798D01*
X017891Y009878D01*
X017846Y009966D01*
X017816Y010061D01*
X017805Y010128D01*
X018350Y010128D01*
X018350Y010191D02*
X015160Y010191D01*
X015160Y010103D02*
X015160Y010282D01*
X014879Y010563D01*
X014700Y010563D01*
X014700Y010103D01*
X015160Y010103D01*
X015160Y010063D02*
X014700Y010063D01*
X014700Y009603D01*
X014879Y009603D01*
X015160Y009884D01*
X015160Y010063D01*
X015160Y010033D02*
X017825Y010033D01*
X017894Y009874D02*
X015150Y009874D01*
X014991Y009716D02*
X018036Y009716D01*
X018350Y009716D02*
X018510Y009716D01*
X018510Y009874D02*
X018350Y009874D01*
X018350Y010350D02*
X018510Y010350D01*
X018510Y010508D02*
X018350Y010508D01*
X018350Y010667D02*
X018510Y010667D01*
X017998Y010667D02*
X012835Y010667D01*
X012835Y010508D02*
X014426Y010508D01*
X014481Y010563D02*
X014200Y010282D01*
X014200Y010103D01*
X014660Y010103D01*
X014660Y010063D01*
X014700Y010063D01*
X014700Y010103D01*
X014660Y010103D01*
X014660Y010563D01*
X014481Y010563D01*
X014660Y010508D02*
X014700Y010508D01*
X014700Y010350D02*
X014660Y010350D01*
X014660Y010191D02*
X014700Y010191D01*
X014660Y010063D02*
X014200Y010063D01*
X014200Y009884D01*
X014481Y009603D01*
X014660Y009603D01*
X014660Y010063D01*
X014660Y010033D02*
X014700Y010033D01*
X014700Y009874D02*
X014660Y009874D01*
X014660Y009716D02*
X014700Y009716D01*
X014369Y009716D02*
X012835Y009716D01*
X012835Y009874D02*
X014210Y009874D01*
X014200Y010033D02*
X012835Y010033D01*
X012835Y010191D02*
X014200Y010191D01*
X014268Y010350D02*
X012835Y010350D01*
X012835Y009557D02*
X029070Y009557D01*
X029070Y009399D02*
X012835Y009399D01*
X012919Y009240D02*
X029070Y009240D01*
X029070Y009082D02*
X013077Y009082D01*
X013236Y008923D02*
X029070Y008923D01*
X029070Y008765D02*
X013394Y008765D01*
X013553Y008606D02*
X029070Y008606D01*
X029070Y008448D02*
X013711Y008448D01*
X014505Y006863D02*
X009253Y006863D01*
X009021Y006704D02*
X012167Y006704D01*
X011997Y006546D02*
X008779Y006546D01*
X008937Y006387D02*
X011785Y006387D01*
X011745Y005595D02*
X007238Y005595D01*
X007122Y005595D02*
X002728Y005595D01*
X002754Y005587D02*
X002629Y005625D01*
X002500Y005650D01*
X002385Y005662D01*
X002385Y004413D01*
X003634Y004413D01*
X003622Y004528D01*
X003597Y004657D01*
X003559Y004782D01*
X003509Y004902D01*
X003447Y005018D01*
X003375Y005126D01*
X003292Y005227D01*
X003199Y005320D01*
X003098Y005403D01*
X002990Y005475D01*
X002874Y005537D01*
X002754Y005587D01*
X003048Y005436D02*
X006587Y005436D01*
X006587Y005525D02*
X006587Y005146D01*
X006599Y005100D01*
X006623Y005059D01*
X006656Y005026D01*
X006697Y005002D01*
X006743Y004990D01*
X007122Y004990D01*
X007122Y005525D01*
X006587Y005525D01*
X006587Y005641D02*
X007122Y005641D01*
X007122Y006176D01*
X006743Y006176D01*
X006697Y006164D01*
X006656Y006140D01*
X006623Y006107D01*
X006599Y006066D01*
X006587Y006020D01*
X006587Y005641D01*
X006587Y005753D02*
X000660Y005753D01*
X000660Y005595D02*
X001882Y005595D01*
X001856Y005587D02*
X001736Y005537D01*
X001620Y005475D01*
X001512Y005403D01*
X001411Y005320D01*
X001318Y005227D01*
X001235Y005126D01*
X001163Y005018D01*
X001101Y004902D01*
X001051Y004782D01*
X001013Y004657D01*
X000988Y004528D01*
X000976Y004413D01*
X002225Y004413D01*
X002225Y004253D01*
X002385Y004253D01*
X002385Y003005D01*
X002500Y003016D01*
X002629Y003041D01*
X002754Y003079D01*
X002874Y003129D01*
X002990Y003191D01*
X003098Y003264D01*
X003199Y003346D01*
X003292Y003439D01*
X003375Y003540D01*
X003447Y003648D01*
X003509Y003764D01*
X003559Y003884D01*
X003597Y004010D01*
X004298Y004010D01*
X004298Y004076D02*
X004298Y003783D01*
X004374Y003501D01*
X004520Y003248D01*
X004727Y003041D01*
X004980Y002895D01*
X005262Y002820D01*
X005554Y002820D01*
X005837Y002895D01*
X006090Y003041D01*
X006297Y003248D01*
X006443Y003501D01*
X006518Y003783D01*
X006518Y004076D01*
X006443Y004358D01*
X006297Y004611D01*
X006090Y004818D01*
X005837Y004964D01*
X005554Y005039D01*
X005262Y005039D01*
X004980Y004964D01*
X004727Y004818D01*
X004520Y004611D01*
X004374Y004358D01*
X004298Y004076D01*
X004323Y004168D02*
X003625Y004168D01*
X003622Y004138D02*
X003634Y004253D01*
X002385Y004253D01*
X002385Y004413D01*
X002225Y004413D01*
X002225Y005662D01*
X002110Y005650D01*
X001981Y005625D01*
X001856Y005587D01*
X001562Y005436D02*
X000660Y005436D01*
X000660Y005278D02*
X001369Y005278D01*
X001231Y005119D02*
X000660Y005119D01*
X000660Y004961D02*
X001132Y004961D01*
X001060Y004802D02*
X000660Y004802D01*
X000660Y004644D02*
X001011Y004644D01*
X000984Y004485D02*
X000660Y004485D01*
X000660Y004327D02*
X002225Y004327D01*
X002225Y004253D02*
X000976Y004253D01*
X000988Y004138D01*
X001013Y004010D01*
X000660Y004010D01*
X000660Y004168D02*
X000985Y004168D01*
X001013Y004010D02*
X001051Y003884D01*
X001101Y003764D01*
X001163Y003648D01*
X001235Y003540D01*
X001318Y003439D01*
X001411Y003346D01*
X001512Y003264D01*
X001620Y003191D01*
X001736Y003129D01*
X001856Y003079D01*
X001981Y003041D01*
X002110Y003016D01*
X002225Y003005D01*
X002225Y004253D01*
X002225Y004168D02*
X002385Y004168D01*
X002385Y004010D02*
X002225Y004010D01*
X002225Y003851D02*
X002385Y003851D01*
X002385Y003693D02*
X002225Y003693D01*
X002225Y003534D02*
X002385Y003534D01*
X002385Y003376D02*
X002225Y003376D01*
X002225Y003217D02*
X002385Y003217D01*
X002385Y003059D02*
X002225Y003059D01*
X001925Y003059D02*
X000660Y003059D01*
X000660Y003217D02*
X001581Y003217D01*
X001382Y003376D02*
X000660Y003376D01*
X000660Y003534D02*
X001240Y003534D01*
X001139Y003693D02*
X000660Y003693D01*
X000660Y003851D02*
X001065Y003851D01*
X000660Y002900D02*
X004972Y002900D01*
X004710Y003059D02*
X002685Y003059D01*
X003029Y003217D02*
X004551Y003217D01*
X004447Y003376D02*
X003228Y003376D01*
X003370Y003534D02*
X004365Y003534D01*
X004323Y003693D02*
X003471Y003693D01*
X003545Y003851D02*
X004298Y003851D01*
X004366Y004327D02*
X002385Y004327D01*
X002385Y004485D02*
X002225Y004485D01*
X002225Y004644D02*
X002385Y004644D01*
X002385Y004802D02*
X002225Y004802D01*
X002225Y004961D02*
X002385Y004961D01*
X002385Y005119D02*
X002225Y005119D01*
X002225Y005278D02*
X002385Y005278D01*
X002385Y005436D02*
X002225Y005436D01*
X002225Y005595D02*
X002385Y005595D01*
X003241Y005278D02*
X006587Y005278D01*
X006594Y005119D02*
X003379Y005119D01*
X003478Y004961D02*
X004974Y004961D01*
X004711Y004802D02*
X003550Y004802D01*
X003599Y004644D02*
X004553Y004644D01*
X004447Y004485D02*
X003626Y004485D01*
X003622Y004138D02*
X003597Y004010D01*
X005842Y004961D02*
X008518Y004961D01*
X008255Y004802D02*
X006105Y004802D01*
X006264Y004644D02*
X008096Y004644D01*
X007991Y004485D02*
X006369Y004485D01*
X006451Y004327D02*
X007909Y004327D01*
X007866Y004168D02*
X006494Y004168D01*
X006518Y004010D02*
X007842Y004010D01*
X007842Y003851D02*
X006518Y003851D01*
X006494Y003693D02*
X007866Y003693D01*
X007909Y003534D02*
X006451Y003534D01*
X006370Y003376D02*
X007990Y003376D01*
X008094Y003217D02*
X006266Y003217D01*
X006107Y003059D02*
X008253Y003059D01*
X008515Y002900D02*
X005845Y002900D01*
X007122Y005119D02*
X007238Y005119D01*
X007238Y005278D02*
X007122Y005278D01*
X007122Y005436D02*
X007238Y005436D01*
X007238Y005753D02*
X007122Y005753D01*
X007122Y005912D02*
X007238Y005912D01*
X007238Y006070D02*
X007122Y006070D01*
X006601Y006070D02*
X000660Y006070D01*
X000660Y005912D02*
X006587Y005912D01*
X009388Y002900D02*
X029070Y002900D01*
X029070Y003059D02*
X009650Y003059D01*
X009809Y003217D02*
X012546Y003217D01*
X012412Y003376D02*
X009913Y003376D01*
X009995Y003534D02*
X012366Y003534D01*
X012365Y003693D02*
X010037Y003693D01*
X010062Y003851D02*
X012365Y003851D01*
X012365Y004010D02*
X010062Y004010D01*
X012084Y005436D02*
X012806Y005436D01*
X012965Y005278D02*
X012205Y005278D01*
X012245Y005119D02*
X013123Y005119D01*
X013282Y004961D02*
X012245Y004961D01*
X012245Y004802D02*
X013365Y004802D01*
X013365Y004644D02*
X012245Y004644D01*
X013005Y004485D02*
X013365Y004485D01*
X013431Y004327D02*
X013179Y004327D01*
X013239Y004168D02*
X013633Y004168D01*
X013977Y004168D02*
X019044Y004168D01*
X018920Y004010D02*
X013245Y004010D01*
X013245Y003851D02*
X018920Y003851D01*
X018920Y003693D02*
X013245Y003693D01*
X013244Y003534D02*
X019008Y003534D01*
X019166Y003376D02*
X013198Y003376D01*
X014179Y004327D02*
X019202Y004327D01*
X019057Y004485D02*
X014245Y004485D01*
X014245Y004644D02*
X016133Y004644D01*
X016156Y005278D02*
X014205Y005278D01*
X014084Y005436D02*
X022310Y005436D01*
X022310Y005286D02*
X022310Y005054D01*
X022322Y005009D01*
X022346Y004968D01*
X022380Y004934D01*
X022421Y004910D01*
X022466Y004898D01*
X022757Y004898D01*
X022757Y005286D01*
X022310Y005286D01*
X022310Y005278D02*
X019707Y005278D01*
X019865Y005119D02*
X022310Y005119D01*
X022353Y004961D02*
X019940Y004961D01*
X019153Y005278D02*
X017454Y005278D01*
X017410Y005595D02*
X018018Y005595D01*
X018592Y005595D02*
X022310Y005595D01*
X022310Y005753D02*
X018683Y005753D01*
X018683Y005912D02*
X022310Y005912D01*
X022310Y006070D02*
X018683Y006070D01*
X018683Y006229D02*
X022310Y006229D01*
X022310Y006387D02*
X017459Y006387D01*
X017459Y006546D02*
X022525Y006546D01*
X022525Y006704D02*
X017459Y006704D01*
X017615Y006863D02*
X022525Y006863D01*
X022525Y007021D02*
X017615Y007021D01*
X017615Y007180D02*
X022438Y007180D01*
X022279Y007338D02*
X017615Y007338D01*
X017615Y007497D02*
X022121Y007497D01*
X021962Y007655D02*
X017557Y007655D01*
X016899Y006704D02*
X016711Y006704D01*
X016711Y006546D02*
X016899Y006546D01*
X016899Y006387D02*
X016711Y006387D01*
X016729Y006229D02*
X016881Y006229D01*
X016881Y006070D02*
X016729Y006070D01*
X016729Y005912D02*
X016881Y005912D01*
X016881Y005753D02*
X016729Y005753D01*
X016662Y005595D02*
X016948Y005595D01*
X016805Y005360D02*
X016805Y004944D01*
X016805Y005360D01*
X016805Y005278D02*
X016805Y005278D01*
X016805Y005119D02*
X016805Y005119D01*
X016805Y004961D02*
X016805Y004961D01*
X016805Y004944D02*
X016805Y004944D01*
X016805Y004528D01*
X016805Y004944D01*
X016805Y004944D01*
X016805Y004802D02*
X016805Y004802D01*
X016805Y004644D02*
X016805Y004644D01*
X017477Y004644D02*
X018920Y004644D01*
X019430Y003693D02*
X019430Y003693D01*
X019430Y003534D02*
X019430Y003534D01*
X019430Y003376D02*
X019430Y003376D01*
X022757Y004961D02*
X022853Y004961D01*
X022853Y005119D02*
X022757Y005119D01*
X022757Y005278D02*
X022853Y005278D01*
X023986Y004168D02*
X026132Y004168D01*
X026138Y004135D02*
X026176Y004009D01*
X026226Y003889D01*
X026288Y003773D01*
X026360Y003665D01*
X026443Y003564D01*
X026536Y003471D01*
X026637Y003389D01*
X026745Y003316D01*
X026861Y003254D01*
X026981Y003204D01*
X027106Y003166D01*
X027235Y003141D01*
X027350Y003130D01*
X027350Y004378D01*
X027510Y004378D01*
X027510Y003130D01*
X027625Y003141D01*
X027754Y003166D01*
X027879Y003204D01*
X027999Y003254D01*
X028115Y003316D01*
X028223Y003389D01*
X028324Y003471D01*
X028417Y003564D01*
X028500Y003665D01*
X028572Y003773D01*
X028634Y003889D01*
X028684Y004009D01*
X028722Y004135D01*
X028747Y004263D01*
X028759Y004378D01*
X027510Y004378D01*
X027510Y004538D01*
X028759Y004538D01*
X028747Y004653D01*
X028722Y004782D01*
X028684Y004907D01*
X028634Y005027D01*
X028572Y005143D01*
X028500Y005251D01*
X028417Y005352D01*
X028324Y005445D01*
X028223Y005528D01*
X028115Y005600D01*
X027999Y005662D01*
X027879Y005712D01*
X027754Y005750D01*
X027625Y005775D01*
X027510Y005787D01*
X027510Y004538D01*
X027350Y004538D01*
X027350Y004378D01*
X026101Y004378D01*
X026113Y004263D01*
X026138Y004135D01*
X026176Y004010D02*
X023975Y004010D01*
X024133Y003851D02*
X026246Y003851D01*
X026342Y003693D02*
X024190Y003693D01*
X024190Y003534D02*
X026473Y003534D01*
X026656Y003376D02*
X024190Y003376D01*
X024035Y003217D02*
X026951Y003217D01*
X027350Y003217D02*
X027510Y003217D01*
X027510Y003376D02*
X027350Y003376D01*
X027350Y003534D02*
X027510Y003534D01*
X027510Y003693D02*
X027350Y003693D01*
X027350Y003851D02*
X027510Y003851D01*
X027510Y004010D02*
X027350Y004010D01*
X027350Y004168D02*
X027510Y004168D01*
X027510Y004327D02*
X027350Y004327D01*
X027350Y004485D02*
X024190Y004485D01*
X024190Y004644D02*
X026112Y004644D01*
X026113Y004653D02*
X026101Y004538D01*
X027350Y004538D01*
X027350Y005787D01*
X027235Y005775D01*
X027106Y005750D01*
X026981Y005712D01*
X026861Y005662D01*
X026745Y005600D01*
X026637Y005528D01*
X026536Y005445D01*
X026443Y005352D01*
X026360Y005251D01*
X026288Y005143D01*
X026226Y005027D01*
X026176Y004907D01*
X026138Y004782D01*
X026113Y004653D01*
X026145Y004802D02*
X024295Y004802D01*
X024453Y004961D02*
X026199Y004961D01*
X026275Y005119D02*
X025540Y005119D01*
X025550Y005278D02*
X026382Y005278D01*
X026527Y005436D02*
X025550Y005436D01*
X025550Y005595D02*
X026737Y005595D01*
X027123Y005753D02*
X025550Y005753D01*
X025550Y005912D02*
X029070Y005912D01*
X029070Y006070D02*
X025550Y006070D01*
X025550Y006229D02*
X029070Y006229D01*
X029070Y006387D02*
X025550Y006387D01*
X027350Y005753D02*
X027510Y005753D01*
X027510Y005595D02*
X027350Y005595D01*
X027350Y005436D02*
X027510Y005436D01*
X027510Y005278D02*
X027350Y005278D01*
X027350Y005119D02*
X027510Y005119D01*
X027510Y004961D02*
X027350Y004961D01*
X027350Y004802D02*
X027510Y004802D01*
X027510Y004644D02*
X027350Y004644D01*
X027510Y004485D02*
X029070Y004485D01*
X029070Y004327D02*
X028753Y004327D01*
X028728Y004168D02*
X029070Y004168D01*
X029070Y004010D02*
X028684Y004010D01*
X028614Y003851D02*
X029070Y003851D01*
X029070Y003693D02*
X028518Y003693D01*
X028387Y003534D02*
X029070Y003534D01*
X029070Y003376D02*
X028204Y003376D01*
X027909Y003217D02*
X029070Y003217D01*
X029070Y004644D02*
X028748Y004644D01*
X028715Y004802D02*
X029070Y004802D01*
X029070Y004961D02*
X028661Y004961D01*
X028585Y005119D02*
X029070Y005119D01*
X029070Y005278D02*
X028478Y005278D01*
X028333Y005436D02*
X029070Y005436D01*
X029070Y005595D02*
X028123Y005595D01*
X027737Y005753D02*
X029070Y005753D01*
X026107Y004327D02*
X024145Y004327D01*
X023680Y003534D02*
X023680Y003534D01*
X023680Y003376D02*
X023680Y003376D01*
X023680Y003217D02*
X023680Y003217D01*
X022869Y009716D02*
X018824Y009716D01*
X018966Y009874D02*
X022710Y009874D01*
X025499Y012410D02*
X026179Y012410D01*
X026179Y012252D02*
X025657Y012252D01*
X025816Y012093D02*
X026270Y012093D01*
X026538Y012093D02*
X026574Y012093D01*
X026574Y012252D02*
X026538Y012252D01*
X026538Y012410D02*
X026574Y012410D01*
X026574Y012569D02*
X026538Y012569D01*
X026538Y012727D02*
X026574Y012727D01*
X026574Y012886D02*
X026538Y012886D01*
X026842Y012093D02*
X027009Y012093D01*
X026886Y011935D02*
X025974Y011935D01*
X017876Y010508D02*
X014934Y010508D01*
X015092Y010350D02*
X017815Y010350D01*
X014663Y006704D02*
X013693Y006704D01*
X013863Y006546D02*
X014803Y006546D01*
X014441Y006387D02*
X014022Y006387D01*
X013547Y006070D02*
X013365Y006070D01*
X013365Y005912D02*
X013706Y005912D01*
X013913Y005753D02*
X013365Y005753D01*
X013439Y005595D02*
X014509Y005595D01*
X015103Y005595D02*
X015257Y005595D01*
X015851Y005595D02*
X016200Y005595D01*
X007092Y016848D02*
X006124Y016848D01*
X006160Y017007D02*
X007060Y017007D01*
X007507Y017324D02*
X007603Y017324D01*
X007603Y017482D02*
X007507Y017482D01*
X007507Y017641D02*
X007603Y017641D01*
X007207Y017641D02*
X000660Y017641D01*
X000660Y010508D02*
X005426Y010508D01*
X005268Y010350D02*
X000660Y010350D01*
X000660Y010191D02*
X005200Y010191D01*
X005200Y010033D02*
X000660Y010033D01*
X000660Y009874D02*
X005210Y009874D01*
X005369Y009716D02*
X000660Y009716D01*
X007655Y023347D02*
X010250Y023347D01*
X010250Y023505D02*
X007780Y023505D01*
X007846Y023664D02*
X010159Y023664D01*
X010083Y023822D02*
X007860Y023822D01*
X007855Y023981D02*
X010018Y023981D01*
X010000Y024139D02*
X007789Y024139D01*
X007677Y024298D02*
X010000Y024298D01*
X010026Y024456D02*
X007453Y024456D01*
X007238Y027943D02*
X007122Y027943D01*
X007122Y028102D02*
X007238Y028102D01*
X007238Y028260D02*
X007122Y028260D01*
X007122Y028577D02*
X007238Y028577D01*
X007238Y028736D02*
X007122Y028736D01*
X007122Y028894D02*
X007238Y028894D01*
X009288Y029053D02*
X012572Y029053D01*
X012248Y029211D02*
X009612Y029211D01*
X009779Y029370D02*
X012081Y029370D01*
X011964Y029528D02*
X009896Y029528D01*
X009987Y029687D02*
X011873Y029687D01*
X011831Y029845D02*
X010029Y029845D01*
X010062Y030004D02*
X011798Y030004D01*
X011798Y030162D02*
X010062Y030162D01*
X010045Y030321D02*
X011815Y030321D01*
X011858Y030479D02*
X010002Y030479D01*
X009930Y030638D02*
X011930Y030638D01*
X012023Y030796D02*
X009837Y030796D01*
X009678Y030955D02*
X012182Y030955D01*
X012423Y031113D02*
X009437Y031113D01*
X011231Y025090D02*
X012223Y025090D01*
X019609Y026041D02*
X021462Y026041D01*
X021462Y026200D02*
X019768Y026200D01*
X019815Y026358D02*
X021462Y026358D01*
X021462Y026517D02*
X019815Y026517D01*
X019809Y026675D02*
X021462Y026675D01*
X021515Y026834D02*
X019651Y026834D01*
X019560Y026992D02*
X026368Y026992D01*
X026526Y027151D02*
X019719Y027151D01*
X020620Y029053D02*
X023490Y029053D01*
X023167Y029211D02*
X020943Y029211D01*
X021111Y029370D02*
X022999Y029370D01*
X022882Y029528D02*
X021228Y029528D01*
X021319Y029687D02*
X022791Y029687D01*
X022749Y029845D02*
X021361Y029845D01*
X021393Y030004D02*
X022717Y030004D01*
X022717Y030162D02*
X021393Y030162D01*
X021376Y030321D02*
X022734Y030321D01*
X022776Y030479D02*
X021334Y030479D01*
X021261Y030638D02*
X022849Y030638D01*
X022941Y030796D02*
X021169Y030796D01*
X021010Y030955D02*
X023100Y030955D01*
X023341Y031113D02*
X020769Y031113D01*
X022648Y028260D02*
X029070Y028260D01*
X029070Y028102D02*
X022648Y028102D01*
X024163Y029053D02*
X026272Y029053D01*
X026196Y029211D02*
X024487Y029211D01*
X024654Y029370D02*
X026143Y029370D01*
X026111Y029528D02*
X024771Y029528D01*
X021075Y024456D02*
X021035Y024456D01*
X021035Y024298D02*
X021075Y024298D01*
X021075Y024139D02*
X021035Y024139D01*
X021035Y023981D02*
X021075Y023981D01*
D23*
X010930Y010208D02*
X008470Y007748D01*
X007180Y007748D01*
D24*
X008970Y005958D01*
X012181Y005958D01*
X012181Y006334D01*
X012305Y006458D01*
X013555Y006458D01*
X013988Y006025D01*
X014806Y006025D01*
X015554Y006025D02*
X016378Y006025D01*
X016431Y005972D01*
X016431Y007208D01*
X016431Y007457D01*
X015930Y007958D02*
X015180Y007208D01*
X015180Y006891D01*
X014872Y006891D01*
X012555Y009208D01*
X012555Y011208D01*
X009680Y014083D01*
X008496Y014083D01*
X008179Y014400D01*
X007863Y015208D02*
X007805Y015266D01*
X007863Y015208D02*
X010930Y015208D01*
X010930Y016458D02*
X007556Y016458D01*
X007555Y016459D01*
X015930Y007958D02*
X022055Y007958D01*
X022805Y007208D01*
X022805Y006083D01*
X024930Y006083D01*
X025054Y006207D01*
X025055Y006207D01*
X024930Y006082D01*
X022805Y006082D01*
X023680Y004583D02*
X024556Y005459D01*
X025055Y005459D01*
X019430Y004833D02*
X019319Y004944D01*
X017179Y004944D01*
X016431Y004944D02*
X013916Y004944D01*
X013805Y004833D01*
X012929Y005709D01*
X012929Y005958D01*
X017179Y005972D02*
X017179Y007208D01*
X017179Y005972D02*
X018291Y005972D01*
X018305Y005958D01*
X021055Y012333D02*
X025180Y012333D01*
X025930Y011583D01*
X026930Y011583D01*
X027305Y011958D01*
X027305Y012524D01*
X027304Y012525D01*
X026930Y013391D02*
X027805Y014266D01*
X027805Y014333D01*
X025305Y014207D02*
X025305Y015583D01*
D25*
X025305Y015583D03*
X027805Y014333D03*
X021055Y012333D03*
X018305Y005958D03*
X009680Y014083D03*
D26*
X010930Y017708D02*
X010930Y023958D01*
X010930Y024208D01*
D27*
X011055Y024083D01*
X013055Y024083D01*
X013055Y024668D01*
X014680Y026293D01*
X013055Y024083D02*
X013055Y018708D01*
X014680Y017083D01*
M02*
