G75*
%MOIN*%
%OFA0B0*%
%FSLAX24Y24*%
%IPPOS*%
%LPD*%
%AMOC8*
5,1,8,0,0,1.08239X$1,22.5*
%
%ADD10C,0.0000*%
%ADD11C,0.1000*%
%ADD12OC8,0.1000*%
%ADD13R,0.0591X0.0512*%
%ADD14C,0.2300*%
%ADD15R,0.0827X0.0827*%
%ADD16R,0.0394X0.0551*%
%ADD17R,0.0630X0.0512*%
%ADD18OC8,0.0600*%
%ADD19C,0.0520*%
%ADD20R,0.0512X0.0630*%
%ADD21C,0.0900*%
%ADD22OC8,0.0660*%
%ADD23C,0.0160*%
%ADD24C,0.2000*%
%ADD25C,0.0200*%
%ADD26R,0.0396X0.0396*%
%ADD27C,0.1000*%
%ADD28C,0.0500*%
%ADD29C,0.1500*%
D10*
X000180Y002333D02*
X000180Y031704D01*
X029550Y031704D01*
X029550Y002333D01*
X000180Y002333D01*
X004778Y003930D02*
X004780Y003980D01*
X004786Y004030D01*
X004796Y004079D01*
X004810Y004127D01*
X004827Y004174D01*
X004848Y004219D01*
X004873Y004263D01*
X004901Y004304D01*
X004933Y004343D01*
X004967Y004380D01*
X005004Y004414D01*
X005044Y004444D01*
X005086Y004471D01*
X005130Y004495D01*
X005176Y004516D01*
X005223Y004532D01*
X005271Y004545D01*
X005321Y004554D01*
X005370Y004559D01*
X005421Y004560D01*
X005471Y004557D01*
X005520Y004550D01*
X005569Y004539D01*
X005617Y004524D01*
X005663Y004506D01*
X005708Y004484D01*
X005751Y004458D01*
X005792Y004429D01*
X005831Y004397D01*
X005867Y004362D01*
X005899Y004324D01*
X005929Y004284D01*
X005956Y004241D01*
X005979Y004197D01*
X005998Y004151D01*
X006014Y004103D01*
X006026Y004054D01*
X006034Y004005D01*
X006038Y003955D01*
X006038Y003905D01*
X006034Y003855D01*
X006026Y003806D01*
X006014Y003757D01*
X005998Y003709D01*
X005979Y003663D01*
X005956Y003619D01*
X005929Y003576D01*
X005899Y003536D01*
X005867Y003498D01*
X005831Y003463D01*
X005792Y003431D01*
X005751Y003402D01*
X005708Y003376D01*
X005663Y003354D01*
X005617Y003336D01*
X005569Y003321D01*
X005520Y003310D01*
X005471Y003303D01*
X005421Y003300D01*
X005370Y003301D01*
X005321Y003306D01*
X005271Y003315D01*
X005223Y003328D01*
X005176Y003344D01*
X005130Y003365D01*
X005086Y003389D01*
X005044Y003416D01*
X005004Y003446D01*
X004967Y003480D01*
X004933Y003517D01*
X004901Y003556D01*
X004873Y003597D01*
X004848Y003641D01*
X004827Y003686D01*
X004810Y003733D01*
X004796Y003781D01*
X004786Y003830D01*
X004780Y003880D01*
X004778Y003930D01*
X008322Y003930D02*
X008324Y003980D01*
X008330Y004030D01*
X008340Y004079D01*
X008354Y004127D01*
X008371Y004174D01*
X008392Y004219D01*
X008417Y004263D01*
X008445Y004304D01*
X008477Y004343D01*
X008511Y004380D01*
X008548Y004414D01*
X008588Y004444D01*
X008630Y004471D01*
X008674Y004495D01*
X008720Y004516D01*
X008767Y004532D01*
X008815Y004545D01*
X008865Y004554D01*
X008914Y004559D01*
X008965Y004560D01*
X009015Y004557D01*
X009064Y004550D01*
X009113Y004539D01*
X009161Y004524D01*
X009207Y004506D01*
X009252Y004484D01*
X009295Y004458D01*
X009336Y004429D01*
X009375Y004397D01*
X009411Y004362D01*
X009443Y004324D01*
X009473Y004284D01*
X009500Y004241D01*
X009523Y004197D01*
X009542Y004151D01*
X009558Y004103D01*
X009570Y004054D01*
X009578Y004005D01*
X009582Y003955D01*
X009582Y003905D01*
X009578Y003855D01*
X009570Y003806D01*
X009558Y003757D01*
X009542Y003709D01*
X009523Y003663D01*
X009500Y003619D01*
X009473Y003576D01*
X009443Y003536D01*
X009411Y003498D01*
X009375Y003463D01*
X009336Y003431D01*
X009295Y003402D01*
X009252Y003376D01*
X009207Y003354D01*
X009161Y003336D01*
X009113Y003321D01*
X009064Y003310D01*
X009015Y003303D01*
X008965Y003300D01*
X008914Y003301D01*
X008865Y003306D01*
X008815Y003315D01*
X008767Y003328D01*
X008720Y003344D01*
X008674Y003365D01*
X008630Y003389D01*
X008588Y003416D01*
X008548Y003446D01*
X008511Y003480D01*
X008477Y003517D01*
X008445Y003556D01*
X008417Y003597D01*
X008392Y003641D01*
X008371Y003686D01*
X008354Y003733D01*
X008340Y003781D01*
X008330Y003830D01*
X008324Y003880D01*
X008322Y003930D01*
X008322Y030112D02*
X008324Y030162D01*
X008330Y030212D01*
X008340Y030261D01*
X008354Y030309D01*
X008371Y030356D01*
X008392Y030401D01*
X008417Y030445D01*
X008445Y030486D01*
X008477Y030525D01*
X008511Y030562D01*
X008548Y030596D01*
X008588Y030626D01*
X008630Y030653D01*
X008674Y030677D01*
X008720Y030698D01*
X008767Y030714D01*
X008815Y030727D01*
X008865Y030736D01*
X008914Y030741D01*
X008965Y030742D01*
X009015Y030739D01*
X009064Y030732D01*
X009113Y030721D01*
X009161Y030706D01*
X009207Y030688D01*
X009252Y030666D01*
X009295Y030640D01*
X009336Y030611D01*
X009375Y030579D01*
X009411Y030544D01*
X009443Y030506D01*
X009473Y030466D01*
X009500Y030423D01*
X009523Y030379D01*
X009542Y030333D01*
X009558Y030285D01*
X009570Y030236D01*
X009578Y030187D01*
X009582Y030137D01*
X009582Y030087D01*
X009578Y030037D01*
X009570Y029988D01*
X009558Y029939D01*
X009542Y029891D01*
X009523Y029845D01*
X009500Y029801D01*
X009473Y029758D01*
X009443Y029718D01*
X009411Y029680D01*
X009375Y029645D01*
X009336Y029613D01*
X009295Y029584D01*
X009252Y029558D01*
X009207Y029536D01*
X009161Y029518D01*
X009113Y029503D01*
X009064Y029492D01*
X009015Y029485D01*
X008965Y029482D01*
X008914Y029483D01*
X008865Y029488D01*
X008815Y029497D01*
X008767Y029510D01*
X008720Y029526D01*
X008674Y029547D01*
X008630Y029571D01*
X008588Y029598D01*
X008548Y029628D01*
X008511Y029662D01*
X008477Y029699D01*
X008445Y029738D01*
X008417Y029779D01*
X008392Y029823D01*
X008371Y029868D01*
X008354Y029915D01*
X008340Y029963D01*
X008330Y030012D01*
X008324Y030062D01*
X008322Y030112D01*
X004778Y030112D02*
X004780Y030162D01*
X004786Y030212D01*
X004796Y030261D01*
X004810Y030309D01*
X004827Y030356D01*
X004848Y030401D01*
X004873Y030445D01*
X004901Y030486D01*
X004933Y030525D01*
X004967Y030562D01*
X005004Y030596D01*
X005044Y030626D01*
X005086Y030653D01*
X005130Y030677D01*
X005176Y030698D01*
X005223Y030714D01*
X005271Y030727D01*
X005321Y030736D01*
X005370Y030741D01*
X005421Y030742D01*
X005471Y030739D01*
X005520Y030732D01*
X005569Y030721D01*
X005617Y030706D01*
X005663Y030688D01*
X005708Y030666D01*
X005751Y030640D01*
X005792Y030611D01*
X005831Y030579D01*
X005867Y030544D01*
X005899Y030506D01*
X005929Y030466D01*
X005956Y030423D01*
X005979Y030379D01*
X005998Y030333D01*
X006014Y030285D01*
X006026Y030236D01*
X006034Y030187D01*
X006038Y030137D01*
X006038Y030087D01*
X006034Y030037D01*
X006026Y029988D01*
X006014Y029939D01*
X005998Y029891D01*
X005979Y029845D01*
X005956Y029801D01*
X005929Y029758D01*
X005899Y029718D01*
X005867Y029680D01*
X005831Y029645D01*
X005792Y029613D01*
X005751Y029584D01*
X005708Y029558D01*
X005663Y029536D01*
X005617Y029518D01*
X005569Y029503D01*
X005520Y029492D01*
X005471Y029485D01*
X005421Y029482D01*
X005370Y029483D01*
X005321Y029488D01*
X005271Y029497D01*
X005223Y029510D01*
X005176Y029526D01*
X005130Y029547D01*
X005086Y029571D01*
X005044Y029598D01*
X005004Y029628D01*
X004967Y029662D01*
X004933Y029699D01*
X004901Y029738D01*
X004873Y029779D01*
X004848Y029823D01*
X004827Y029868D01*
X004810Y029915D01*
X004796Y029963D01*
X004786Y030012D01*
X004780Y030062D01*
X004778Y030112D01*
X012278Y030112D02*
X012280Y030162D01*
X012286Y030212D01*
X012296Y030261D01*
X012310Y030309D01*
X012327Y030356D01*
X012348Y030401D01*
X012373Y030445D01*
X012401Y030486D01*
X012433Y030525D01*
X012467Y030562D01*
X012504Y030596D01*
X012544Y030626D01*
X012586Y030653D01*
X012630Y030677D01*
X012676Y030698D01*
X012723Y030714D01*
X012771Y030727D01*
X012821Y030736D01*
X012870Y030741D01*
X012921Y030742D01*
X012971Y030739D01*
X013020Y030732D01*
X013069Y030721D01*
X013117Y030706D01*
X013163Y030688D01*
X013208Y030666D01*
X013251Y030640D01*
X013292Y030611D01*
X013331Y030579D01*
X013367Y030544D01*
X013399Y030506D01*
X013429Y030466D01*
X013456Y030423D01*
X013479Y030379D01*
X013498Y030333D01*
X013514Y030285D01*
X013526Y030236D01*
X013534Y030187D01*
X013538Y030137D01*
X013538Y030087D01*
X013534Y030037D01*
X013526Y029988D01*
X013514Y029939D01*
X013498Y029891D01*
X013479Y029845D01*
X013456Y029801D01*
X013429Y029758D01*
X013399Y029718D01*
X013367Y029680D01*
X013331Y029645D01*
X013292Y029613D01*
X013251Y029584D01*
X013208Y029558D01*
X013163Y029536D01*
X013117Y029518D01*
X013069Y029503D01*
X013020Y029492D01*
X012971Y029485D01*
X012921Y029482D01*
X012870Y029483D01*
X012821Y029488D01*
X012771Y029497D01*
X012723Y029510D01*
X012676Y029526D01*
X012630Y029547D01*
X012586Y029571D01*
X012544Y029598D01*
X012504Y029628D01*
X012467Y029662D01*
X012433Y029699D01*
X012401Y029738D01*
X012373Y029779D01*
X012348Y029823D01*
X012327Y029868D01*
X012310Y029915D01*
X012296Y029963D01*
X012286Y030012D01*
X012280Y030062D01*
X012278Y030112D01*
X015822Y030112D02*
X015824Y030162D01*
X015830Y030212D01*
X015840Y030261D01*
X015854Y030309D01*
X015871Y030356D01*
X015892Y030401D01*
X015917Y030445D01*
X015945Y030486D01*
X015977Y030525D01*
X016011Y030562D01*
X016048Y030596D01*
X016088Y030626D01*
X016130Y030653D01*
X016174Y030677D01*
X016220Y030698D01*
X016267Y030714D01*
X016315Y030727D01*
X016365Y030736D01*
X016414Y030741D01*
X016465Y030742D01*
X016515Y030739D01*
X016564Y030732D01*
X016613Y030721D01*
X016661Y030706D01*
X016707Y030688D01*
X016752Y030666D01*
X016795Y030640D01*
X016836Y030611D01*
X016875Y030579D01*
X016911Y030544D01*
X016943Y030506D01*
X016973Y030466D01*
X017000Y030423D01*
X017023Y030379D01*
X017042Y030333D01*
X017058Y030285D01*
X017070Y030236D01*
X017078Y030187D01*
X017082Y030137D01*
X017082Y030087D01*
X017078Y030037D01*
X017070Y029988D01*
X017058Y029939D01*
X017042Y029891D01*
X017023Y029845D01*
X017000Y029801D01*
X016973Y029758D01*
X016943Y029718D01*
X016911Y029680D01*
X016875Y029645D01*
X016836Y029613D01*
X016795Y029584D01*
X016752Y029558D01*
X016707Y029536D01*
X016661Y029518D01*
X016613Y029503D01*
X016564Y029492D01*
X016515Y029485D01*
X016465Y029482D01*
X016414Y029483D01*
X016365Y029488D01*
X016315Y029497D01*
X016267Y029510D01*
X016220Y029526D01*
X016174Y029547D01*
X016130Y029571D01*
X016088Y029598D01*
X016048Y029628D01*
X016011Y029662D01*
X015977Y029699D01*
X015945Y029738D01*
X015917Y029779D01*
X015892Y029823D01*
X015871Y029868D01*
X015854Y029915D01*
X015840Y029963D01*
X015830Y030012D01*
X015824Y030062D01*
X015822Y030112D01*
X019653Y030112D02*
X019655Y030162D01*
X019661Y030212D01*
X019671Y030261D01*
X019685Y030309D01*
X019702Y030356D01*
X019723Y030401D01*
X019748Y030445D01*
X019776Y030486D01*
X019808Y030525D01*
X019842Y030562D01*
X019879Y030596D01*
X019919Y030626D01*
X019961Y030653D01*
X020005Y030677D01*
X020051Y030698D01*
X020098Y030714D01*
X020146Y030727D01*
X020196Y030736D01*
X020245Y030741D01*
X020296Y030742D01*
X020346Y030739D01*
X020395Y030732D01*
X020444Y030721D01*
X020492Y030706D01*
X020538Y030688D01*
X020583Y030666D01*
X020626Y030640D01*
X020667Y030611D01*
X020706Y030579D01*
X020742Y030544D01*
X020774Y030506D01*
X020804Y030466D01*
X020831Y030423D01*
X020854Y030379D01*
X020873Y030333D01*
X020889Y030285D01*
X020901Y030236D01*
X020909Y030187D01*
X020913Y030137D01*
X020913Y030087D01*
X020909Y030037D01*
X020901Y029988D01*
X020889Y029939D01*
X020873Y029891D01*
X020854Y029845D01*
X020831Y029801D01*
X020804Y029758D01*
X020774Y029718D01*
X020742Y029680D01*
X020706Y029645D01*
X020667Y029613D01*
X020626Y029584D01*
X020583Y029558D01*
X020538Y029536D01*
X020492Y029518D01*
X020444Y029503D01*
X020395Y029492D01*
X020346Y029485D01*
X020296Y029482D01*
X020245Y029483D01*
X020196Y029488D01*
X020146Y029497D01*
X020098Y029510D01*
X020051Y029526D01*
X020005Y029547D01*
X019961Y029571D01*
X019919Y029598D01*
X019879Y029628D01*
X019842Y029662D01*
X019808Y029699D01*
X019776Y029738D01*
X019748Y029779D01*
X019723Y029823D01*
X019702Y029868D01*
X019685Y029915D01*
X019671Y029963D01*
X019661Y030012D01*
X019655Y030062D01*
X019653Y030112D01*
X023197Y030112D02*
X023199Y030162D01*
X023205Y030212D01*
X023215Y030261D01*
X023229Y030309D01*
X023246Y030356D01*
X023267Y030401D01*
X023292Y030445D01*
X023320Y030486D01*
X023352Y030525D01*
X023386Y030562D01*
X023423Y030596D01*
X023463Y030626D01*
X023505Y030653D01*
X023549Y030677D01*
X023595Y030698D01*
X023642Y030714D01*
X023690Y030727D01*
X023740Y030736D01*
X023789Y030741D01*
X023840Y030742D01*
X023890Y030739D01*
X023939Y030732D01*
X023988Y030721D01*
X024036Y030706D01*
X024082Y030688D01*
X024127Y030666D01*
X024170Y030640D01*
X024211Y030611D01*
X024250Y030579D01*
X024286Y030544D01*
X024318Y030506D01*
X024348Y030466D01*
X024375Y030423D01*
X024398Y030379D01*
X024417Y030333D01*
X024433Y030285D01*
X024445Y030236D01*
X024453Y030187D01*
X024457Y030137D01*
X024457Y030087D01*
X024453Y030037D01*
X024445Y029988D01*
X024433Y029939D01*
X024417Y029891D01*
X024398Y029845D01*
X024375Y029801D01*
X024348Y029758D01*
X024318Y029718D01*
X024286Y029680D01*
X024250Y029645D01*
X024211Y029613D01*
X024170Y029584D01*
X024127Y029558D01*
X024082Y029536D01*
X024036Y029518D01*
X023988Y029503D01*
X023939Y029492D01*
X023890Y029485D01*
X023840Y029482D01*
X023789Y029483D01*
X023740Y029488D01*
X023690Y029497D01*
X023642Y029510D01*
X023595Y029526D01*
X023549Y029547D01*
X023505Y029571D01*
X023463Y029598D01*
X023423Y029628D01*
X023386Y029662D01*
X023352Y029699D01*
X023320Y029738D01*
X023292Y029779D01*
X023267Y029823D01*
X023246Y029868D01*
X023229Y029915D01*
X023215Y029963D01*
X023205Y030012D01*
X023199Y030062D01*
X023197Y030112D01*
D11*
X023055Y023833D03*
X013055Y024083D03*
X007180Y023833D03*
D12*
X005180Y023833D03*
X015055Y024083D03*
X021055Y023833D03*
D13*
X005180Y007793D03*
X005180Y007123D03*
X003805Y007123D03*
X003805Y007793D03*
X002180Y007793D03*
X002180Y007123D03*
D14*
X002305Y004333D03*
X002180Y029583D03*
X027430Y029708D03*
X027430Y004458D03*
D15*
X022055Y026293D03*
X022055Y028458D03*
X014680Y028458D03*
X014680Y026293D03*
X007180Y026293D03*
X007180Y028458D03*
X007180Y007748D03*
X007180Y005583D03*
D16*
X011931Y014275D03*
X012679Y014275D03*
X012305Y015141D03*
D17*
X012305Y016459D03*
X012305Y017207D03*
X021305Y005957D03*
X021305Y005209D03*
D18*
X023180Y010083D03*
X023180Y017083D03*
X014680Y017083D03*
X014680Y010083D03*
X005680Y010083D03*
X005680Y017083D03*
D19*
X011805Y005093D02*
X011805Y004573D01*
X012805Y004093D02*
X012805Y003573D01*
X013805Y004573D02*
X013805Y005093D01*
D20*
X016431Y026333D03*
X017179Y026333D03*
X024056Y026583D03*
X024804Y026583D03*
X005179Y026708D03*
X004431Y026708D03*
D21*
X001930Y023958D03*
X009430Y023958D03*
X009430Y017708D03*
X009430Y016458D03*
X009430Y015208D03*
X009430Y010208D03*
X001930Y010208D03*
X019430Y010208D03*
X026930Y010208D03*
X026930Y015208D03*
X026930Y016458D03*
X026930Y017708D03*
X026930Y023958D03*
X019430Y023958D03*
D22*
X019305Y026458D03*
X019305Y027458D03*
X026805Y026708D03*
X027805Y026708D03*
X019430Y004833D03*
X019430Y003833D03*
X023680Y003583D03*
X023680Y004583D03*
X002680Y026708D03*
X001680Y026708D03*
D23*
X001680Y026198D01*
X001891Y026198D01*
X002180Y026487D01*
X002469Y026198D01*
X002891Y026198D01*
X003121Y026428D01*
X003995Y026428D01*
X003995Y026319D01*
X004101Y026213D01*
X004761Y026213D01*
X004805Y026257D01*
X004849Y026213D01*
X005509Y026213D01*
X005615Y026319D01*
X005615Y026428D01*
X006250Y026428D01*
X006250Y023984D01*
X006239Y023952D01*
X006250Y023800D01*
X006250Y021218D01*
X004892Y019860D01*
X004750Y019518D01*
X004750Y016898D01*
X004892Y016556D01*
X005153Y016295D01*
X005495Y016153D01*
X005865Y016153D01*
X006207Y016295D01*
X006468Y016556D01*
X006610Y016898D01*
X006610Y018948D01*
X007707Y020045D01*
X007968Y020306D01*
X008110Y020648D01*
X008110Y023028D01*
X008750Y023028D01*
X008750Y017573D01*
X008854Y017323D01*
X009045Y017132D01*
X009227Y017056D01*
X009073Y016992D01*
X008896Y016815D01*
X008800Y016583D01*
X008800Y016333D01*
X008896Y016101D01*
X009073Y015924D01*
X009293Y015833D01*
X009073Y015742D01*
X008896Y015565D01*
X008800Y015333D01*
X008800Y015083D01*
X008896Y014851D01*
X009073Y014674D01*
X009305Y014578D01*
X009555Y014578D01*
X009787Y014674D01*
X009964Y014851D01*
X009968Y014861D01*
X011928Y014861D01*
X011928Y014791D01*
X011989Y014731D01*
X011660Y014731D01*
X011554Y014625D01*
X011554Y014555D01*
X009816Y014555D01*
X009713Y014512D01*
X009662Y014461D01*
X009407Y014461D01*
X009302Y014356D01*
X009302Y013810D01*
X009407Y013705D01*
X009953Y013705D01*
X010058Y013810D01*
X010058Y013995D01*
X011554Y013995D01*
X011554Y013925D01*
X011651Y013828D01*
X011651Y012401D01*
X011694Y012298D01*
X011818Y012174D01*
X011896Y012096D01*
X011999Y012053D01*
X020684Y012053D01*
X020782Y011955D01*
X021328Y011955D01*
X021433Y012060D01*
X021433Y012606D01*
X021328Y012711D01*
X020782Y012711D01*
X020684Y012613D01*
X012211Y012613D01*
X012211Y013828D01*
X012308Y013925D01*
X012308Y013955D01*
X012314Y013930D01*
X012338Y013889D01*
X012372Y013855D01*
X012413Y013832D01*
X012458Y013819D01*
X012661Y013819D01*
X012661Y014257D01*
X012697Y014257D01*
X012697Y013819D01*
X012900Y013819D01*
X012945Y013832D01*
X012986Y013855D01*
X013020Y013889D01*
X013044Y013930D01*
X013056Y013976D01*
X013056Y014257D01*
X012697Y014257D01*
X012697Y014293D01*
X012661Y014293D01*
X012661Y014731D01*
X012621Y014731D01*
X012682Y014791D01*
X012682Y015491D01*
X012576Y015597D01*
X012034Y015597D01*
X011928Y015491D01*
X011928Y015421D01*
X010024Y015421D01*
X009964Y015565D01*
X009787Y015742D01*
X009567Y015833D01*
X009787Y015924D01*
X009964Y016101D01*
X009996Y016179D01*
X011810Y016179D01*
X011810Y016129D01*
X011915Y016023D01*
X012695Y016023D01*
X012800Y016129D01*
X012800Y016790D01*
X012756Y016833D01*
X012764Y016841D01*
X012788Y016882D01*
X012800Y016927D01*
X012800Y017159D01*
X012353Y017159D01*
X012353Y017255D01*
X012800Y017255D01*
X012800Y017487D01*
X012788Y017532D01*
X012764Y017574D01*
X012730Y017607D01*
X012689Y017631D01*
X012644Y017643D01*
X012353Y017643D01*
X012353Y017255D01*
X012257Y017255D01*
X012257Y017159D01*
X011810Y017159D01*
X011810Y016927D01*
X011822Y016882D01*
X011846Y016841D01*
X011854Y016833D01*
X011810Y016790D01*
X011810Y016739D01*
X009996Y016739D01*
X009964Y016815D01*
X009787Y016992D01*
X009633Y017056D01*
X009815Y017132D01*
X010006Y017323D01*
X010110Y017573D01*
X010110Y023323D01*
X010218Y023431D01*
X010360Y023773D01*
X010360Y024143D01*
X010218Y024485D01*
X009957Y024746D01*
X009615Y024888D01*
X008110Y024888D01*
X008110Y026478D01*
X007968Y026820D01*
X007707Y027081D01*
X007365Y027223D01*
X006995Y027223D01*
X006653Y027081D01*
X006560Y026988D01*
X005615Y026988D01*
X005615Y027098D01*
X005509Y027203D01*
X004849Y027203D01*
X004805Y027159D01*
X004761Y027203D01*
X004101Y027203D01*
X003995Y027098D01*
X003995Y026988D01*
X003121Y026988D01*
X002891Y027218D01*
X002469Y027218D01*
X002180Y026929D01*
X001891Y027218D01*
X001680Y027218D01*
X001469Y027218D01*
X001170Y026919D01*
X001170Y026708D01*
X001170Y026497D01*
X001469Y026198D01*
X001680Y026198D01*
X001680Y026708D01*
X001680Y026708D01*
X001170Y026708D01*
X001680Y026708D01*
X001680Y026708D01*
X001680Y027218D01*
X001680Y026708D01*
X001680Y026708D01*
X001680Y026675D02*
X001680Y026675D01*
X001680Y026517D02*
X001680Y026517D01*
X001680Y026358D02*
X001680Y026358D01*
X001680Y026200D02*
X001680Y026200D01*
X001893Y026200D02*
X002467Y026200D01*
X002309Y026358D02*
X002051Y026358D01*
X001680Y026834D02*
X001680Y026834D01*
X001680Y026992D02*
X001680Y026992D01*
X001680Y027151D02*
X001680Y027151D01*
X001959Y027151D02*
X002401Y027151D01*
X002243Y026992D02*
X002117Y026992D01*
X002959Y027151D02*
X004048Y027151D01*
X003995Y026992D02*
X003117Y026992D01*
X003051Y026358D02*
X003995Y026358D01*
X002893Y026200D02*
X006250Y026200D01*
X006250Y026358D02*
X005615Y026358D01*
X005615Y026992D02*
X006564Y026992D01*
X006821Y027151D02*
X005562Y027151D01*
X006250Y026041D02*
X000660Y026041D01*
X000660Y025883D02*
X006250Y025883D01*
X006250Y025724D02*
X000660Y025724D01*
X000660Y025566D02*
X006250Y025566D01*
X006250Y025407D02*
X000660Y025407D01*
X000660Y025249D02*
X006250Y025249D01*
X006250Y025090D02*
X000660Y025090D01*
X000660Y024932D02*
X006250Y024932D01*
X006250Y024773D02*
X000660Y024773D01*
X000660Y024615D02*
X006250Y024615D01*
X006250Y024456D02*
X005519Y024456D01*
X005462Y024513D02*
X005200Y024513D01*
X005200Y023853D01*
X005860Y023853D01*
X005860Y024115D01*
X005462Y024513D01*
X005200Y024456D02*
X005160Y024456D01*
X005160Y024513D02*
X004898Y024513D01*
X004500Y024115D01*
X004500Y023853D01*
X005160Y023853D01*
X005160Y023813D01*
X005200Y023813D01*
X005200Y023153D01*
X005462Y023153D01*
X005860Y023551D01*
X005860Y023813D01*
X005200Y023813D01*
X005200Y023853D01*
X005160Y023853D01*
X005160Y024513D01*
X005160Y024298D02*
X005200Y024298D01*
X005200Y024139D02*
X005160Y024139D01*
X005160Y023981D02*
X005200Y023981D01*
X005200Y023822D02*
X006248Y023822D01*
X006250Y023664D02*
X005860Y023664D01*
X005814Y023505D02*
X006250Y023505D01*
X006250Y023347D02*
X005655Y023347D01*
X005497Y023188D02*
X006250Y023188D01*
X006250Y023030D02*
X000660Y023030D01*
X000660Y023188D02*
X004863Y023188D01*
X004898Y023153D02*
X005160Y023153D01*
X005160Y023813D01*
X004500Y023813D01*
X004500Y023551D01*
X004898Y023153D01*
X005160Y023188D02*
X005200Y023188D01*
X005200Y023347D02*
X005160Y023347D01*
X005160Y023505D02*
X005200Y023505D01*
X005200Y023664D02*
X005160Y023664D01*
X005160Y023822D02*
X002546Y023822D01*
X002544Y023811D02*
X002555Y023878D01*
X002010Y023878D01*
X002010Y023333D01*
X002078Y023344D01*
X002172Y023374D01*
X002260Y023419D01*
X002340Y023478D01*
X002411Y023548D01*
X002469Y023628D01*
X002514Y023716D01*
X002544Y023811D01*
X002487Y023664D02*
X004500Y023664D01*
X004546Y023505D02*
X002368Y023505D01*
X002087Y023347D02*
X004705Y023347D01*
X004500Y023981D02*
X002010Y023981D01*
X002010Y024038D02*
X002010Y023878D01*
X001850Y023878D01*
X001850Y023333D01*
X001782Y023344D01*
X001688Y023374D01*
X001600Y023419D01*
X001520Y023478D01*
X001449Y023548D01*
X001391Y023628D01*
X001346Y023716D01*
X001316Y023811D01*
X001305Y023878D01*
X001850Y023878D01*
X001850Y024038D01*
X001305Y024038D01*
X001316Y024106D01*
X001346Y024200D01*
X001391Y024288D01*
X001449Y024368D01*
X001520Y024439D01*
X001600Y024497D01*
X001688Y024542D01*
X001782Y024573D01*
X001850Y024583D01*
X001850Y024038D01*
X002010Y024038D01*
X002555Y024038D01*
X002544Y024106D01*
X002514Y024200D01*
X002469Y024288D01*
X002411Y024368D01*
X002340Y024439D01*
X002260Y024497D01*
X002172Y024542D01*
X002078Y024573D01*
X002010Y024583D01*
X002010Y024038D01*
X002010Y024139D02*
X001850Y024139D01*
X001850Y023981D02*
X000660Y023981D01*
X000660Y024139D02*
X001326Y024139D01*
X001398Y024298D02*
X000660Y024298D01*
X000660Y024456D02*
X001544Y024456D01*
X001850Y024456D02*
X002010Y024456D01*
X002010Y024298D02*
X001850Y024298D01*
X001850Y023822D02*
X002010Y023822D01*
X002010Y023664D02*
X001850Y023664D01*
X001850Y023505D02*
X002010Y023505D01*
X002010Y023347D02*
X001850Y023347D01*
X001773Y023347D02*
X000660Y023347D01*
X000660Y023505D02*
X001492Y023505D01*
X001373Y023664D02*
X000660Y023664D01*
X000660Y023822D02*
X001314Y023822D01*
X000660Y022871D02*
X006250Y022871D01*
X006250Y022713D02*
X000660Y022713D01*
X000660Y022554D02*
X006250Y022554D01*
X006250Y022396D02*
X000660Y022396D01*
X000660Y022237D02*
X006250Y022237D01*
X006250Y022079D02*
X000660Y022079D01*
X000660Y021920D02*
X006250Y021920D01*
X006250Y021762D02*
X000660Y021762D01*
X000660Y021603D02*
X006250Y021603D01*
X006250Y021445D02*
X000660Y021445D01*
X000660Y021286D02*
X006250Y021286D01*
X006159Y021128D02*
X000660Y021128D01*
X000660Y020969D02*
X006001Y020969D01*
X005842Y020811D02*
X000660Y020811D01*
X000660Y020652D02*
X005684Y020652D01*
X005525Y020494D02*
X000660Y020494D01*
X000660Y020335D02*
X005367Y020335D01*
X005208Y020177D02*
X000660Y020177D01*
X000660Y020018D02*
X005050Y020018D01*
X004891Y019860D02*
X000660Y019860D01*
X000660Y019701D02*
X004826Y019701D01*
X004760Y019543D02*
X000660Y019543D01*
X000660Y019384D02*
X004750Y019384D01*
X004750Y019226D02*
X000660Y019226D01*
X000660Y019067D02*
X004750Y019067D01*
X004750Y018909D02*
X000660Y018909D01*
X000660Y018750D02*
X004750Y018750D01*
X004750Y018592D02*
X000660Y018592D01*
X000660Y018433D02*
X004750Y018433D01*
X004750Y018275D02*
X000660Y018275D01*
X000660Y018116D02*
X004750Y018116D01*
X004750Y017958D02*
X000660Y017958D01*
X000660Y017799D02*
X004750Y017799D01*
X004750Y017641D02*
X000660Y017641D01*
X000660Y017482D02*
X004750Y017482D01*
X004750Y017324D02*
X000660Y017324D01*
X000660Y017165D02*
X004750Y017165D01*
X004750Y017007D02*
X000660Y017007D01*
X000660Y016848D02*
X004771Y016848D01*
X004836Y016690D02*
X000660Y016690D01*
X000660Y016531D02*
X004917Y016531D01*
X005075Y016373D02*
X000660Y016373D01*
X000660Y016214D02*
X005348Y016214D01*
X006012Y016214D02*
X008849Y016214D01*
X008800Y016373D02*
X006285Y016373D01*
X006443Y016531D02*
X008800Y016531D01*
X008844Y016690D02*
X006524Y016690D01*
X006589Y016848D02*
X008929Y016848D01*
X009108Y017007D02*
X006610Y017007D01*
X006610Y017165D02*
X009011Y017165D01*
X008853Y017324D02*
X006610Y017324D01*
X006610Y017482D02*
X008788Y017482D01*
X008750Y017641D02*
X006610Y017641D01*
X006610Y017799D02*
X008750Y017799D01*
X008750Y017958D02*
X006610Y017958D01*
X006610Y018116D02*
X008750Y018116D01*
X008750Y018275D02*
X006610Y018275D01*
X006610Y018433D02*
X008750Y018433D01*
X008750Y018592D02*
X006610Y018592D01*
X006610Y018750D02*
X008750Y018750D01*
X008750Y018909D02*
X006610Y018909D01*
X006729Y019067D02*
X008750Y019067D01*
X008750Y019226D02*
X006888Y019226D01*
X007046Y019384D02*
X008750Y019384D01*
X008750Y019543D02*
X007205Y019543D01*
X007363Y019701D02*
X008750Y019701D01*
X008750Y019860D02*
X007522Y019860D01*
X007680Y020018D02*
X008750Y020018D01*
X008750Y020177D02*
X007839Y020177D01*
X007980Y020335D02*
X008750Y020335D01*
X008750Y020494D02*
X008046Y020494D01*
X008110Y020652D02*
X008750Y020652D01*
X008750Y020811D02*
X008110Y020811D01*
X008110Y020969D02*
X008750Y020969D01*
X008750Y021128D02*
X008110Y021128D01*
X008110Y021286D02*
X008750Y021286D01*
X008750Y021445D02*
X008110Y021445D01*
X008110Y021603D02*
X008750Y021603D01*
X008750Y021762D02*
X008110Y021762D01*
X008110Y021920D02*
X008750Y021920D01*
X008750Y022079D02*
X008110Y022079D01*
X008110Y022237D02*
X008750Y022237D01*
X008750Y022396D02*
X008110Y022396D01*
X008110Y022554D02*
X008750Y022554D01*
X008750Y022713D02*
X008110Y022713D01*
X008110Y022871D02*
X008750Y022871D01*
X010110Y022871D02*
X022250Y022871D01*
X022250Y022713D02*
X010110Y022713D01*
X010110Y022554D02*
X022250Y022554D01*
X022250Y022396D02*
X010110Y022396D01*
X010110Y022237D02*
X022250Y022237D01*
X022250Y022079D02*
X010110Y022079D01*
X010110Y021920D02*
X022250Y021920D01*
X022250Y021762D02*
X010110Y021762D01*
X010110Y021603D02*
X022250Y021603D01*
X022250Y021445D02*
X010110Y021445D01*
X010110Y021286D02*
X022250Y021286D01*
X022250Y021128D02*
X010110Y021128D01*
X010110Y020969D02*
X022250Y020969D01*
X022250Y020811D02*
X010110Y020811D01*
X010110Y020652D02*
X022250Y020652D01*
X022250Y020494D02*
X010110Y020494D01*
X010110Y020335D02*
X022250Y020335D01*
X022250Y020177D02*
X010110Y020177D01*
X010110Y020018D02*
X022250Y020018D01*
X022250Y019860D02*
X010110Y019860D01*
X010110Y019701D02*
X022250Y019701D01*
X022250Y019543D02*
X010110Y019543D01*
X010110Y019384D02*
X022250Y019384D01*
X022250Y019226D02*
X010110Y019226D01*
X010110Y019067D02*
X022250Y019067D01*
X022250Y018909D02*
X010110Y018909D01*
X010110Y018750D02*
X022250Y018750D01*
X022250Y018592D02*
X010110Y018592D01*
X010110Y018433D02*
X022250Y018433D01*
X022250Y018275D02*
X010110Y018275D01*
X010110Y018116D02*
X022250Y018116D01*
X022250Y017958D02*
X010110Y017958D01*
X010110Y017799D02*
X022250Y017799D01*
X022250Y017641D02*
X012653Y017641D01*
X012800Y017482D02*
X014400Y017482D01*
X014481Y017563D02*
X014200Y017282D01*
X014200Y016884D01*
X014481Y016603D01*
X014879Y016603D01*
X015160Y016884D01*
X015160Y017282D01*
X014879Y017563D01*
X014481Y017563D01*
X014242Y017324D02*
X012800Y017324D01*
X012800Y017007D02*
X014200Y017007D01*
X014200Y017165D02*
X012353Y017165D01*
X012257Y017165D02*
X009849Y017165D01*
X009752Y017007D02*
X011810Y017007D01*
X011842Y016848D02*
X009931Y016848D01*
X010007Y017324D02*
X011810Y017324D01*
X011810Y017255D02*
X011810Y017487D01*
X011822Y017532D01*
X011846Y017574D01*
X011880Y017607D01*
X011921Y017631D01*
X011966Y017643D01*
X012257Y017643D01*
X012257Y017255D01*
X011810Y017255D01*
X011810Y017482D02*
X010072Y017482D01*
X010110Y017641D02*
X011957Y017641D01*
X012257Y017641D02*
X012353Y017641D01*
X012353Y017482D02*
X012257Y017482D01*
X012257Y017324D02*
X012353Y017324D01*
X012768Y016848D02*
X014236Y016848D01*
X014395Y016690D02*
X012800Y016690D01*
X012800Y016531D02*
X022417Y016531D01*
X022392Y016556D02*
X022250Y016898D01*
X022250Y023346D01*
X022125Y023648D01*
X022125Y024018D01*
X022250Y024320D01*
X022250Y024782D01*
X021267Y025766D01*
X021125Y026108D01*
X021125Y026478D01*
X021267Y026820D01*
X021528Y027081D01*
X021870Y027223D01*
X022240Y027223D01*
X022582Y027081D01*
X022800Y026863D01*
X023620Y026863D01*
X023620Y026973D01*
X023726Y027078D01*
X024386Y027078D01*
X024430Y027034D01*
X024474Y027078D01*
X025134Y027078D01*
X025240Y026973D01*
X025240Y026863D01*
X026295Y026863D01*
X026295Y026919D01*
X026594Y027218D01*
X027016Y027218D01*
X027305Y026929D01*
X027594Y027218D01*
X027805Y027218D01*
X027805Y026708D01*
X027805Y026198D01*
X028016Y026198D01*
X028315Y026497D01*
X028315Y026708D01*
X027805Y026708D01*
X027805Y026708D01*
X027805Y026198D01*
X027594Y026198D01*
X027305Y026487D01*
X027016Y026198D01*
X026594Y026198D01*
X026489Y026303D01*
X025240Y026303D01*
X025240Y026194D01*
X025134Y026088D01*
X024474Y026088D01*
X024430Y026132D01*
X024386Y026088D01*
X023726Y026088D01*
X023620Y026194D01*
X023620Y026303D01*
X023360Y026303D01*
X023968Y025695D01*
X024110Y025353D01*
X024110Y024888D01*
X027115Y024888D01*
X027457Y024746D01*
X027718Y024485D01*
X027860Y024143D01*
X027860Y023773D01*
X027718Y023431D01*
X027610Y023323D01*
X027610Y017573D01*
X027506Y017323D01*
X027315Y017132D01*
X027133Y017056D01*
X027287Y016992D01*
X027464Y016815D01*
X027560Y016583D01*
X027560Y016333D01*
X027464Y016101D01*
X027287Y015924D01*
X027067Y015833D01*
X027287Y015742D01*
X027464Y015565D01*
X027560Y015333D01*
X027560Y015083D01*
X027528Y015006D01*
X027823Y014711D01*
X028078Y014711D01*
X028183Y014606D01*
X028183Y014060D01*
X028078Y013955D01*
X027532Y013955D01*
X027427Y014060D01*
X027427Y014315D01*
X027132Y014610D01*
X027055Y014578D01*
X026805Y014578D01*
X026573Y014674D01*
X026396Y014851D01*
X026300Y015083D01*
X026300Y015333D01*
X026396Y015565D01*
X026573Y015742D01*
X026793Y015833D01*
X026573Y015924D01*
X026396Y016101D01*
X026364Y016178D01*
X026296Y016178D01*
X025683Y015565D01*
X025683Y015310D01*
X025578Y015205D01*
X025032Y015205D01*
X024927Y015310D01*
X024927Y015856D01*
X025032Y015961D01*
X025287Y015961D01*
X026021Y016695D01*
X026124Y016738D01*
X026364Y016738D01*
X026396Y016815D01*
X026573Y016992D01*
X026727Y017056D01*
X026545Y017132D01*
X026354Y017323D01*
X026250Y017573D01*
X026250Y023028D01*
X024110Y023028D01*
X024110Y016898D01*
X023968Y016556D01*
X023707Y016295D01*
X023365Y016153D01*
X022995Y016153D01*
X022653Y016295D01*
X022392Y016556D01*
X022336Y016690D02*
X014965Y016690D01*
X015124Y016848D02*
X022271Y016848D01*
X022250Y017007D02*
X015160Y017007D01*
X015160Y017165D02*
X022250Y017165D01*
X022250Y017324D02*
X015118Y017324D01*
X014960Y017482D02*
X022250Y017482D01*
X022575Y016373D02*
X012800Y016373D01*
X012800Y016214D02*
X022848Y016214D01*
X023512Y016214D02*
X025540Y016214D01*
X025382Y016056D02*
X012727Y016056D01*
X012593Y015580D02*
X024927Y015580D01*
X024927Y015422D02*
X012682Y015422D01*
X012682Y015263D02*
X024974Y015263D01*
X024927Y015739D02*
X009790Y015739D01*
X009722Y015897D02*
X024968Y015897D01*
X025636Y015263D02*
X026300Y015263D01*
X026300Y015105D02*
X012682Y015105D01*
X012682Y014946D02*
X026357Y014946D01*
X026460Y014788D02*
X012678Y014788D01*
X012697Y014731D02*
X012697Y014293D01*
X013056Y014293D01*
X013056Y014574D01*
X013044Y014620D01*
X013020Y014661D01*
X012986Y014695D01*
X012945Y014718D01*
X012900Y014731D01*
X012697Y014731D01*
X012697Y014629D02*
X012661Y014629D01*
X012661Y014471D02*
X012697Y014471D01*
X012697Y014312D02*
X012661Y014312D01*
X012661Y014154D02*
X012697Y014154D01*
X012697Y013995D02*
X012661Y013995D01*
X012661Y013837D02*
X012697Y013837D01*
X012954Y013837D02*
X029070Y013837D01*
X029070Y013995D02*
X028118Y013995D01*
X028183Y014154D02*
X029070Y014154D01*
X029070Y014312D02*
X028183Y014312D01*
X028183Y014471D02*
X029070Y014471D01*
X029070Y014629D02*
X028160Y014629D01*
X027746Y014788D02*
X029070Y014788D01*
X029070Y014946D02*
X027588Y014946D01*
X027560Y015105D02*
X029070Y015105D01*
X029070Y015263D02*
X027560Y015263D01*
X027523Y015422D02*
X029070Y015422D01*
X029070Y015580D02*
X027449Y015580D01*
X027290Y015739D02*
X029070Y015739D01*
X029070Y015897D02*
X027222Y015897D01*
X027418Y016056D02*
X029070Y016056D01*
X029070Y016214D02*
X027511Y016214D01*
X027560Y016373D02*
X029070Y016373D01*
X029070Y016531D02*
X027560Y016531D01*
X027516Y016690D02*
X029070Y016690D01*
X029070Y016848D02*
X027431Y016848D01*
X027252Y017007D02*
X029070Y017007D01*
X029070Y017165D02*
X027349Y017165D01*
X027507Y017324D02*
X029070Y017324D01*
X029070Y017482D02*
X027572Y017482D01*
X027610Y017641D02*
X029070Y017641D01*
X029070Y017799D02*
X027610Y017799D01*
X027610Y017958D02*
X029070Y017958D01*
X029070Y018116D02*
X027610Y018116D01*
X027610Y018275D02*
X029070Y018275D01*
X029070Y018433D02*
X027610Y018433D01*
X027610Y018592D02*
X029070Y018592D01*
X029070Y018750D02*
X027610Y018750D01*
X027610Y018909D02*
X029070Y018909D01*
X029070Y019067D02*
X027610Y019067D01*
X027610Y019226D02*
X029070Y019226D01*
X029070Y019384D02*
X027610Y019384D01*
X027610Y019543D02*
X029070Y019543D01*
X029070Y019701D02*
X027610Y019701D01*
X027610Y019860D02*
X029070Y019860D01*
X029070Y020018D02*
X027610Y020018D01*
X027610Y020177D02*
X029070Y020177D01*
X029070Y020335D02*
X027610Y020335D01*
X027610Y020494D02*
X029070Y020494D01*
X029070Y020652D02*
X027610Y020652D01*
X027610Y020811D02*
X029070Y020811D01*
X029070Y020969D02*
X027610Y020969D01*
X027610Y021128D02*
X029070Y021128D01*
X029070Y021286D02*
X027610Y021286D01*
X027610Y021445D02*
X029070Y021445D01*
X029070Y021603D02*
X027610Y021603D01*
X027610Y021762D02*
X029070Y021762D01*
X029070Y021920D02*
X027610Y021920D01*
X027610Y022079D02*
X029070Y022079D01*
X029070Y022237D02*
X027610Y022237D01*
X027610Y022396D02*
X029070Y022396D01*
X029070Y022554D02*
X027610Y022554D01*
X027610Y022713D02*
X029070Y022713D01*
X029070Y022871D02*
X027610Y022871D01*
X027610Y023030D02*
X029070Y023030D01*
X029070Y023188D02*
X027610Y023188D01*
X027634Y023347D02*
X029070Y023347D01*
X029070Y023505D02*
X027749Y023505D01*
X027815Y023664D02*
X029070Y023664D01*
X029070Y023822D02*
X027860Y023822D01*
X027860Y023981D02*
X029070Y023981D01*
X029070Y024139D02*
X027860Y024139D01*
X027796Y024298D02*
X029070Y024298D01*
X029070Y024456D02*
X027730Y024456D01*
X027589Y024615D02*
X029070Y024615D01*
X029070Y024773D02*
X027393Y024773D01*
X027592Y026200D02*
X027018Y026200D01*
X027176Y026358D02*
X027434Y026358D01*
X027805Y026358D02*
X027805Y026358D01*
X027805Y026200D02*
X027805Y026200D01*
X028018Y026200D02*
X029070Y026200D01*
X029070Y026358D02*
X028176Y026358D01*
X028315Y026517D02*
X029070Y026517D01*
X029070Y026675D02*
X028315Y026675D01*
X028315Y026708D02*
X028315Y026919D01*
X028016Y027218D01*
X027805Y027218D01*
X027805Y026708D01*
X027805Y026708D01*
X028315Y026708D01*
X028315Y026834D02*
X029070Y026834D01*
X029070Y026992D02*
X028242Y026992D01*
X028084Y027151D02*
X029070Y027151D01*
X029070Y027309D02*
X019815Y027309D01*
X019815Y027247D02*
X019815Y027458D01*
X019305Y027458D01*
X019305Y027458D01*
X018795Y027458D01*
X018795Y027247D01*
X019084Y026958D01*
X018795Y026669D01*
X018795Y026613D01*
X017615Y026613D01*
X017615Y026723D01*
X017509Y026828D01*
X016849Y026828D01*
X016805Y026784D01*
X016761Y026828D01*
X016101Y026828D01*
X015995Y026723D01*
X015995Y026613D01*
X015273Y026613D01*
X015273Y026781D01*
X015168Y026886D01*
X014192Y026886D01*
X014087Y026781D01*
X014087Y025805D01*
X014192Y025699D01*
X015168Y025699D01*
X015273Y025805D01*
X015273Y026053D01*
X015995Y026053D01*
X015995Y025944D01*
X016101Y025838D01*
X016761Y025838D01*
X016805Y025882D01*
X016849Y025838D01*
X017509Y025838D01*
X017615Y025944D01*
X017615Y026053D01*
X018989Y026053D01*
X019094Y025948D01*
X019516Y025948D01*
X019815Y026247D01*
X019815Y026669D01*
X019526Y026958D01*
X019815Y027247D01*
X019719Y027151D02*
X021696Y027151D01*
X021439Y026992D02*
X019560Y026992D01*
X019651Y026834D02*
X021281Y026834D01*
X021207Y026675D02*
X019809Y026675D01*
X019815Y026517D02*
X021141Y026517D01*
X021125Y026358D02*
X019815Y026358D01*
X019768Y026200D02*
X021125Y026200D01*
X021153Y026041D02*
X019609Y026041D01*
X019001Y026041D02*
X017615Y026041D01*
X017554Y025883D02*
X021218Y025883D01*
X021308Y025724D02*
X015193Y025724D01*
X015273Y025883D02*
X016056Y025883D01*
X015995Y026041D02*
X015273Y026041D01*
X015273Y026675D02*
X015995Y026675D01*
X015220Y026834D02*
X018959Y026834D01*
X019050Y026992D02*
X007796Y026992D01*
X007954Y026834D02*
X014140Y026834D01*
X014087Y026675D02*
X008028Y026675D01*
X008094Y026517D02*
X014087Y026517D01*
X014087Y026358D02*
X008110Y026358D01*
X008110Y026200D02*
X014087Y026200D01*
X014087Y026041D02*
X008110Y026041D01*
X008110Y025883D02*
X014087Y025883D01*
X014167Y025724D02*
X008110Y025724D01*
X008110Y025566D02*
X021467Y025566D01*
X021625Y025407D02*
X008110Y025407D01*
X008110Y025249D02*
X021784Y025249D01*
X021942Y025090D02*
X008110Y025090D01*
X008110Y024932D02*
X022101Y024932D01*
X022250Y024773D02*
X009893Y024773D01*
X010089Y024615D02*
X012625Y024615D01*
X012670Y024660D02*
X012479Y024468D01*
X012375Y024218D01*
X012375Y023948D01*
X012479Y023698D01*
X012670Y023507D01*
X012920Y023403D01*
X013190Y023403D01*
X013440Y023507D01*
X013631Y023698D01*
X013735Y023948D01*
X013735Y024218D01*
X013631Y024468D01*
X013440Y024660D01*
X013190Y024763D01*
X012920Y024763D01*
X012670Y024660D01*
X012473Y024456D02*
X010230Y024456D01*
X010296Y024298D02*
X012408Y024298D01*
X012375Y024139D02*
X010360Y024139D01*
X010360Y023981D02*
X012375Y023981D01*
X012427Y023822D02*
X010360Y023822D01*
X010315Y023664D02*
X012513Y023664D01*
X012673Y023505D02*
X010249Y023505D01*
X010134Y023347D02*
X019273Y023347D01*
X019282Y023344D02*
X019350Y023333D01*
X019350Y023878D01*
X019510Y023878D01*
X019510Y023333D01*
X019578Y023344D01*
X019672Y023374D01*
X019760Y023419D01*
X019840Y023478D01*
X019911Y023548D01*
X019969Y023628D01*
X020014Y023716D01*
X020044Y023811D01*
X020055Y023878D01*
X019510Y023878D01*
X019510Y024038D01*
X020055Y024038D01*
X020044Y024106D01*
X020014Y024200D01*
X019969Y024288D01*
X019911Y024368D01*
X019840Y024439D01*
X019760Y024497D01*
X019672Y024542D01*
X019578Y024573D01*
X019510Y024583D01*
X019510Y024038D01*
X019350Y024038D01*
X019350Y023878D01*
X018805Y023878D01*
X018816Y023811D01*
X018846Y023716D01*
X018891Y023628D01*
X018949Y023548D01*
X019020Y023478D01*
X019100Y023419D01*
X019188Y023374D01*
X019282Y023344D01*
X019350Y023347D02*
X019510Y023347D01*
X019587Y023347D02*
X020580Y023347D01*
X020421Y023505D02*
X019868Y023505D01*
X019987Y023664D02*
X020375Y023664D01*
X020375Y023551D02*
X020375Y023813D01*
X021035Y023813D01*
X021075Y023813D01*
X021075Y023153D01*
X021337Y023153D01*
X021735Y023551D01*
X021735Y023813D01*
X021075Y023813D01*
X021075Y023853D01*
X021735Y023853D01*
X021735Y024115D01*
X021337Y024513D01*
X021075Y024513D01*
X021075Y023853D01*
X021035Y023853D01*
X021035Y023813D01*
X021035Y023153D01*
X020773Y023153D01*
X020375Y023551D01*
X020375Y023853D02*
X021035Y023853D01*
X021035Y024513D01*
X020773Y024513D01*
X020375Y024115D01*
X020375Y023853D01*
X020375Y023981D02*
X019510Y023981D01*
X019510Y024139D02*
X019350Y024139D01*
X019350Y024038D02*
X019350Y024583D01*
X019282Y024573D01*
X019188Y024542D01*
X019100Y024497D01*
X019020Y024439D01*
X018949Y024368D01*
X018891Y024288D01*
X018846Y024200D01*
X018816Y024106D01*
X018805Y024038D01*
X019350Y024038D01*
X019350Y023981D02*
X015735Y023981D01*
X015735Y024063D02*
X015735Y023801D01*
X015337Y023403D01*
X015075Y023403D01*
X015075Y024063D01*
X015035Y024063D01*
X015035Y023403D01*
X014773Y023403D01*
X014375Y023801D01*
X014375Y024063D01*
X015035Y024063D01*
X015035Y024103D01*
X014375Y024103D01*
X014375Y024365D01*
X014773Y024763D01*
X015035Y024763D01*
X015035Y024103D01*
X015075Y024103D01*
X015735Y024103D01*
X015735Y024365D01*
X015337Y024763D01*
X015075Y024763D01*
X015075Y024103D01*
X015075Y024063D01*
X015735Y024063D01*
X015735Y024139D02*
X018826Y024139D01*
X018898Y024298D02*
X015735Y024298D01*
X015644Y024456D02*
X019044Y024456D01*
X019350Y024456D02*
X019510Y024456D01*
X019510Y024298D02*
X019350Y024298D01*
X019350Y023822D02*
X019510Y023822D01*
X019510Y023664D02*
X019350Y023664D01*
X019350Y023505D02*
X019510Y023505D01*
X018992Y023505D02*
X015439Y023505D01*
X015597Y023664D02*
X018873Y023664D01*
X018814Y023822D02*
X015735Y023822D01*
X015075Y023822D02*
X015035Y023822D01*
X015035Y023664D02*
X015075Y023664D01*
X015075Y023505D02*
X015035Y023505D01*
X014671Y023505D02*
X013437Y023505D01*
X013597Y023664D02*
X014513Y023664D01*
X014375Y023822D02*
X013683Y023822D01*
X013735Y023981D02*
X014375Y023981D01*
X014375Y024139D02*
X013735Y024139D01*
X013702Y024298D02*
X014375Y024298D01*
X014466Y024456D02*
X013637Y024456D01*
X013485Y024615D02*
X014625Y024615D01*
X015035Y024615D02*
X015075Y024615D01*
X015075Y024456D02*
X015035Y024456D01*
X015035Y024298D02*
X015075Y024298D01*
X015075Y024139D02*
X015035Y024139D01*
X015035Y023981D02*
X015075Y023981D01*
X015485Y024615D02*
X022250Y024615D01*
X022250Y024456D02*
X021394Y024456D01*
X021552Y024298D02*
X022241Y024298D01*
X022175Y024139D02*
X021711Y024139D01*
X021735Y023981D02*
X022125Y023981D01*
X022125Y023822D02*
X021075Y023822D01*
X021035Y023822D02*
X020046Y023822D01*
X020034Y024139D02*
X020399Y024139D01*
X020558Y024298D02*
X019962Y024298D01*
X019816Y024456D02*
X020716Y024456D01*
X021035Y024456D02*
X021075Y024456D01*
X021075Y024298D02*
X021035Y024298D01*
X021035Y024139D02*
X021075Y024139D01*
X021075Y023981D02*
X021035Y023981D01*
X021035Y023664D02*
X021075Y023664D01*
X021075Y023505D02*
X021035Y023505D01*
X021035Y023347D02*
X021075Y023347D01*
X021075Y023188D02*
X021035Y023188D01*
X020738Y023188D02*
X010110Y023188D01*
X010110Y023030D02*
X022250Y023030D01*
X022250Y023188D02*
X021372Y023188D01*
X021530Y023347D02*
X022250Y023347D01*
X022184Y023505D02*
X021689Y023505D01*
X021735Y023664D02*
X022125Y023664D01*
X024110Y022871D02*
X026250Y022871D01*
X026250Y022713D02*
X024110Y022713D01*
X024110Y022554D02*
X026250Y022554D01*
X026250Y022396D02*
X024110Y022396D01*
X024110Y022237D02*
X026250Y022237D01*
X026250Y022079D02*
X024110Y022079D01*
X024110Y021920D02*
X026250Y021920D01*
X026250Y021762D02*
X024110Y021762D01*
X024110Y021603D02*
X026250Y021603D01*
X026250Y021445D02*
X024110Y021445D01*
X024110Y021286D02*
X026250Y021286D01*
X026250Y021128D02*
X024110Y021128D01*
X024110Y020969D02*
X026250Y020969D01*
X026250Y020811D02*
X024110Y020811D01*
X024110Y020652D02*
X026250Y020652D01*
X026250Y020494D02*
X024110Y020494D01*
X024110Y020335D02*
X026250Y020335D01*
X026250Y020177D02*
X024110Y020177D01*
X024110Y020018D02*
X026250Y020018D01*
X026250Y019860D02*
X024110Y019860D01*
X024110Y019701D02*
X026250Y019701D01*
X026250Y019543D02*
X024110Y019543D01*
X024110Y019384D02*
X026250Y019384D01*
X026250Y019226D02*
X024110Y019226D01*
X024110Y019067D02*
X026250Y019067D01*
X026250Y018909D02*
X024110Y018909D01*
X024110Y018750D02*
X026250Y018750D01*
X026250Y018592D02*
X024110Y018592D01*
X024110Y018433D02*
X026250Y018433D01*
X026250Y018275D02*
X024110Y018275D01*
X024110Y018116D02*
X026250Y018116D01*
X026250Y017958D02*
X024110Y017958D01*
X024110Y017799D02*
X026250Y017799D01*
X026250Y017641D02*
X024110Y017641D01*
X024110Y017482D02*
X026288Y017482D01*
X026353Y017324D02*
X024110Y017324D01*
X024110Y017165D02*
X026511Y017165D01*
X026608Y017007D02*
X024110Y017007D01*
X024089Y016848D02*
X026429Y016848D01*
X026016Y016690D02*
X024024Y016690D01*
X023943Y016531D02*
X025857Y016531D01*
X025699Y016373D02*
X023785Y016373D01*
X025698Y015580D02*
X026411Y015580D01*
X026337Y015422D02*
X025683Y015422D01*
X025856Y015739D02*
X026570Y015739D01*
X026638Y015897D02*
X026015Y015897D01*
X026174Y016056D02*
X026442Y016056D01*
X026682Y014629D02*
X013038Y014629D01*
X013056Y014471D02*
X027272Y014471D01*
X027427Y014312D02*
X013056Y014312D01*
X013056Y014154D02*
X027427Y014154D01*
X027492Y013995D02*
X013056Y013995D01*
X012404Y013837D02*
X012220Y013837D01*
X012211Y013678D02*
X029070Y013678D01*
X029070Y013520D02*
X012211Y013520D01*
X012211Y013361D02*
X029070Y013361D01*
X029070Y013203D02*
X012211Y013203D01*
X012211Y013044D02*
X029070Y013044D01*
X029070Y012886D02*
X012211Y012886D01*
X012211Y012727D02*
X029070Y012727D01*
X029070Y012569D02*
X021433Y012569D01*
X021433Y012410D02*
X029070Y012410D01*
X029070Y012252D02*
X021433Y012252D01*
X021433Y012093D02*
X029070Y012093D01*
X029070Y011935D02*
X000660Y011935D01*
X000660Y012093D02*
X011903Y012093D01*
X011818Y012174D02*
X011818Y012174D01*
X011741Y012252D02*
X000660Y012252D01*
X000660Y012410D02*
X011651Y012410D01*
X011651Y012569D02*
X000660Y012569D01*
X000660Y012727D02*
X011651Y012727D01*
X011651Y012886D02*
X000660Y012886D01*
X000660Y013044D02*
X011651Y013044D01*
X011651Y013203D02*
X000660Y013203D01*
X000660Y013361D02*
X011651Y013361D01*
X011651Y013520D02*
X000660Y013520D01*
X000660Y013678D02*
X011651Y013678D01*
X011642Y013837D02*
X010058Y013837D01*
X009672Y014471D02*
X000660Y014471D01*
X000660Y014629D02*
X009182Y014629D01*
X008960Y014788D02*
X000660Y014788D01*
X000660Y014946D02*
X008857Y014946D01*
X008800Y015105D02*
X000660Y015105D01*
X000660Y015263D02*
X008800Y015263D01*
X008837Y015422D02*
X000660Y015422D01*
X000660Y015580D02*
X008911Y015580D01*
X009070Y015739D02*
X000660Y015739D01*
X000660Y015897D02*
X009138Y015897D01*
X008942Y016056D02*
X000660Y016056D01*
X000660Y014312D02*
X009302Y014312D01*
X009302Y014154D02*
X000660Y014154D01*
X000660Y013995D02*
X009302Y013995D01*
X009302Y013837D02*
X000660Y013837D01*
X000660Y011776D02*
X029070Y011776D01*
X029070Y011618D02*
X000660Y011618D01*
X000660Y011459D02*
X029070Y011459D01*
X029070Y011301D02*
X027398Y011301D01*
X027385Y011308D02*
X027085Y011388D01*
X026775Y011388D01*
X026475Y011308D01*
X026205Y011152D01*
X023982Y008928D01*
X009819Y008928D01*
X010374Y009484D01*
X010530Y009753D01*
X010610Y010053D01*
X010610Y010363D01*
X010530Y010664D01*
X010374Y010933D01*
X010155Y011152D01*
X009885Y011308D01*
X009585Y011388D01*
X009275Y011388D01*
X008975Y011308D01*
X008705Y011152D01*
X006236Y008683D01*
X006080Y008414D01*
X006033Y008238D01*
X005290Y008238D01*
X005267Y008229D01*
X004810Y008229D01*
X004705Y008123D01*
X004705Y008073D01*
X004280Y008073D01*
X004280Y008123D01*
X004175Y008229D01*
X003435Y008229D01*
X003330Y008123D01*
X003330Y008073D01*
X002655Y008073D01*
X002655Y008123D01*
X002550Y008229D01*
X001810Y008229D01*
X001705Y008123D01*
X001705Y007462D01*
X001717Y007450D01*
X001717Y007449D01*
X001705Y007403D01*
X001705Y007171D01*
X002132Y007171D01*
X002132Y007075D01*
X002228Y007075D01*
X002228Y006688D01*
X002499Y006688D01*
X002545Y006700D01*
X002586Y006723D01*
X002619Y006757D01*
X002643Y006798D01*
X002655Y006844D01*
X002655Y007075D01*
X002228Y007075D01*
X002228Y007171D01*
X002655Y007171D01*
X002655Y007403D01*
X002643Y007449D01*
X002643Y007450D01*
X002655Y007462D01*
X002655Y007513D01*
X003330Y007513D01*
X003330Y007462D01*
X003342Y007450D01*
X003342Y007449D01*
X003330Y007403D01*
X003330Y007171D01*
X003757Y007171D01*
X003757Y007075D01*
X003853Y007075D01*
X003853Y006688D01*
X004124Y006688D01*
X004170Y006700D01*
X004211Y006723D01*
X004244Y006757D01*
X004268Y006798D01*
X004280Y006844D01*
X004280Y007075D01*
X003853Y007075D01*
X003853Y007171D01*
X004280Y007171D01*
X004280Y007403D01*
X004268Y007449D01*
X004268Y007450D01*
X004280Y007462D01*
X004280Y007513D01*
X004705Y007513D01*
X004705Y007462D01*
X004717Y007450D01*
X004717Y007449D01*
X004705Y007403D01*
X004705Y007171D01*
X005132Y007171D01*
X005132Y007075D01*
X005228Y007075D01*
X005228Y006688D01*
X005499Y006688D01*
X005545Y006700D01*
X005586Y006723D01*
X005619Y006757D01*
X005643Y006798D01*
X005655Y006844D01*
X005655Y007075D01*
X005228Y007075D01*
X005228Y007171D01*
X005655Y007171D01*
X005655Y007403D01*
X005643Y007449D01*
X005643Y007450D01*
X005655Y007462D01*
X005655Y007678D01*
X006000Y007678D01*
X006000Y007593D01*
X006080Y007293D01*
X006236Y007024D01*
X006455Y006804D01*
X006725Y006649D01*
X007025Y006568D01*
X018025Y006568D01*
X018025Y006329D01*
X017927Y006231D01*
X017927Y005685D01*
X018032Y005580D01*
X018578Y005580D01*
X018683Y005685D01*
X018683Y006231D01*
X018585Y006329D01*
X018585Y006568D01*
X021025Y006568D01*
X021025Y006393D01*
X020915Y006393D01*
X020810Y006288D01*
X020810Y005627D01*
X020854Y005583D01*
X020810Y005540D01*
X020810Y005489D01*
X019750Y005489D01*
X019647Y005446D01*
X019544Y005343D01*
X019219Y005343D01*
X018920Y005044D01*
X018920Y004622D01*
X019209Y004333D01*
X018920Y004044D01*
X018920Y003833D01*
X018920Y003622D01*
X019219Y003323D01*
X019430Y003323D01*
X019430Y003833D01*
X019430Y003323D01*
X019641Y003323D01*
X019940Y003622D01*
X019940Y003833D01*
X019430Y003833D01*
X019430Y003833D01*
X019430Y003833D01*
X018920Y003833D01*
X019430Y003833D01*
X019430Y003833D01*
X019940Y003833D01*
X019940Y004044D01*
X019651Y004333D01*
X019940Y004622D01*
X019940Y004929D01*
X020810Y004929D01*
X020810Y004879D01*
X020915Y004773D01*
X021695Y004773D01*
X021800Y004879D01*
X021800Y005540D01*
X021756Y005583D01*
X021800Y005627D01*
X021800Y006288D01*
X021695Y006393D01*
X021585Y006393D01*
X021585Y006568D01*
X024626Y006568D01*
X024926Y006649D01*
X025195Y006804D01*
X025415Y007024D01*
X027874Y009484D01*
X028030Y009753D01*
X028110Y010053D01*
X028110Y010363D01*
X028030Y010664D01*
X027874Y010933D01*
X027655Y011152D01*
X027385Y011308D01*
X027665Y011142D02*
X029070Y011142D01*
X029070Y010984D02*
X027823Y010984D01*
X027936Y010825D02*
X029070Y010825D01*
X029070Y010667D02*
X028028Y010667D01*
X028071Y010508D02*
X029070Y010508D01*
X029070Y010350D02*
X028110Y010350D01*
X028110Y010191D02*
X029070Y010191D01*
X029070Y010033D02*
X028105Y010033D01*
X028062Y009874D02*
X029070Y009874D01*
X029070Y009716D02*
X028008Y009716D01*
X027917Y009557D02*
X029070Y009557D01*
X029070Y009399D02*
X027789Y009399D01*
X027631Y009240D02*
X029070Y009240D01*
X029070Y009082D02*
X027472Y009082D01*
X027314Y008923D02*
X029070Y008923D01*
X029070Y008765D02*
X027155Y008765D01*
X026997Y008606D02*
X029070Y008606D01*
X029070Y008448D02*
X026838Y008448D01*
X026680Y008289D02*
X029070Y008289D01*
X029070Y008131D02*
X026521Y008131D01*
X026363Y007972D02*
X029070Y007972D01*
X029070Y007814D02*
X026204Y007814D01*
X026046Y007655D02*
X029070Y007655D01*
X029070Y007497D02*
X025887Y007497D01*
X025729Y007338D02*
X029070Y007338D01*
X029070Y007180D02*
X025570Y007180D01*
X025412Y007021D02*
X029070Y007021D01*
X029070Y006863D02*
X025253Y006863D01*
X025021Y006704D02*
X029070Y006704D01*
X029070Y006546D02*
X021585Y006546D01*
X021700Y006387D02*
X029070Y006387D01*
X029070Y006229D02*
X021800Y006229D01*
X021800Y006070D02*
X029070Y006070D01*
X029070Y005912D02*
X021800Y005912D01*
X021800Y005753D02*
X027123Y005753D01*
X027106Y005750D02*
X026981Y005712D01*
X026861Y005662D01*
X026745Y005600D01*
X026637Y005528D01*
X026536Y005445D01*
X026443Y005352D01*
X026360Y005251D01*
X026288Y005143D01*
X026226Y005027D01*
X026176Y004907D01*
X026138Y004782D01*
X026113Y004653D01*
X026101Y004538D01*
X027350Y004538D01*
X027350Y004378D01*
X027510Y004378D01*
X027510Y003130D01*
X027625Y003141D01*
X027754Y003166D01*
X027879Y003204D01*
X027999Y003254D01*
X028115Y003316D01*
X028223Y003389D01*
X028324Y003471D01*
X028417Y003564D01*
X028500Y003665D01*
X028572Y003773D01*
X028634Y003889D01*
X028684Y004009D01*
X028722Y004135D01*
X028747Y004263D01*
X028759Y004378D01*
X027510Y004378D01*
X027510Y004538D01*
X028759Y004538D01*
X028747Y004653D01*
X028722Y004782D01*
X028684Y004907D01*
X028634Y005027D01*
X028572Y005143D01*
X028500Y005251D01*
X028417Y005352D01*
X028324Y005445D01*
X028223Y005528D01*
X028115Y005600D01*
X027999Y005662D01*
X027879Y005712D01*
X027754Y005750D01*
X027625Y005775D01*
X027510Y005787D01*
X027510Y004538D01*
X027350Y004538D01*
X027350Y005787D01*
X027235Y005775D01*
X027106Y005750D01*
X027350Y005753D02*
X027510Y005753D01*
X027510Y005595D02*
X027350Y005595D01*
X027350Y005436D02*
X027510Y005436D01*
X027510Y005278D02*
X027350Y005278D01*
X027350Y005119D02*
X027510Y005119D01*
X027510Y004961D02*
X027350Y004961D01*
X027350Y004802D02*
X027510Y004802D01*
X027510Y004644D02*
X027350Y004644D01*
X027350Y004485D02*
X024190Y004485D01*
X024190Y004372D02*
X024190Y004794D01*
X023891Y005093D01*
X023469Y005093D01*
X023170Y004794D01*
X023170Y004372D01*
X023459Y004083D01*
X023170Y003794D01*
X023170Y003583D01*
X023170Y003372D01*
X023469Y003073D01*
X023680Y003073D01*
X023680Y003583D01*
X023680Y003073D01*
X023891Y003073D01*
X024190Y003372D01*
X024190Y003583D01*
X023680Y003583D01*
X023680Y003583D01*
X023680Y003583D01*
X023170Y003583D01*
X023680Y003583D01*
X023680Y003583D01*
X024190Y003583D01*
X024190Y003794D01*
X023901Y004083D01*
X024190Y004372D01*
X024145Y004327D02*
X026107Y004327D01*
X026101Y004378D02*
X026113Y004263D01*
X026138Y004135D01*
X026176Y004009D01*
X026226Y003889D01*
X026288Y003773D01*
X026360Y003665D01*
X026443Y003564D01*
X026536Y003471D01*
X026637Y003389D01*
X026745Y003316D01*
X026861Y003254D01*
X026981Y003204D01*
X027106Y003166D01*
X027235Y003141D01*
X027350Y003130D01*
X027350Y004378D01*
X026101Y004378D01*
X026132Y004168D02*
X023986Y004168D01*
X023975Y004010D02*
X026176Y004010D01*
X026246Y003851D02*
X024133Y003851D01*
X024190Y003693D02*
X026342Y003693D01*
X026473Y003534D02*
X024190Y003534D01*
X024190Y003376D02*
X026656Y003376D01*
X026951Y003217D02*
X024035Y003217D01*
X023680Y003217D02*
X023680Y003217D01*
X023680Y003376D02*
X023680Y003376D01*
X023680Y003534D02*
X023680Y003534D01*
X023325Y003217D02*
X013064Y003217D01*
X013092Y003237D02*
X013141Y003286D01*
X013181Y003342D01*
X013213Y003404D01*
X013234Y003470D01*
X013245Y003538D01*
X013245Y003833D01*
X012805Y003833D01*
X012805Y003133D01*
X012840Y003133D01*
X012908Y003144D01*
X012974Y003165D01*
X013036Y003197D01*
X013092Y003237D01*
X013198Y003376D02*
X019166Y003376D01*
X019008Y003534D02*
X013244Y003534D01*
X013245Y003693D02*
X018920Y003693D01*
X018920Y003851D02*
X013245Y003851D01*
X013245Y003833D02*
X013245Y004128D01*
X013234Y004196D01*
X013213Y004262D01*
X013181Y004324D01*
X013141Y004380D01*
X013092Y004429D01*
X013036Y004469D01*
X012974Y004501D01*
X012908Y004522D01*
X012840Y004533D01*
X012805Y004533D01*
X012805Y003833D01*
X012805Y003833D01*
X012805Y003133D01*
X012770Y003133D01*
X012702Y003144D01*
X012636Y003165D01*
X012574Y003197D01*
X012518Y003237D01*
X012469Y003286D01*
X012429Y003342D01*
X012397Y003404D01*
X012376Y003470D01*
X012365Y003538D01*
X012365Y003833D01*
X012805Y003833D01*
X012805Y003833D01*
X012805Y003833D01*
X012365Y003833D01*
X012365Y004128D01*
X012376Y004196D01*
X012397Y004262D01*
X012429Y004324D01*
X012469Y004380D01*
X012518Y004429D01*
X012574Y004469D01*
X012636Y004501D01*
X012702Y004522D01*
X012770Y004533D01*
X012805Y004533D01*
X012805Y003833D01*
X013245Y003833D01*
X013245Y004010D02*
X018920Y004010D01*
X019044Y004168D02*
X013977Y004168D01*
X014054Y004200D02*
X013893Y004133D01*
X013717Y004133D01*
X013556Y004200D01*
X013432Y004324D01*
X013365Y004486D01*
X013365Y005181D01*
X013432Y005342D01*
X013556Y005466D01*
X013717Y005533D01*
X013893Y005533D01*
X014054Y005466D01*
X014178Y005342D01*
X014245Y005181D01*
X014245Y004486D01*
X014178Y004324D01*
X014054Y004200D01*
X014179Y004327D02*
X019202Y004327D01*
X019057Y004485D02*
X014245Y004485D01*
X014245Y004644D02*
X018920Y004644D01*
X018920Y004802D02*
X014245Y004802D01*
X014245Y004961D02*
X018920Y004961D01*
X018995Y005119D02*
X014245Y005119D01*
X014205Y005278D02*
X019153Y005278D01*
X019637Y005436D02*
X014084Y005436D01*
X013526Y005436D02*
X012084Y005436D01*
X012054Y005466D02*
X011893Y005533D01*
X011717Y005533D01*
X011556Y005466D01*
X011432Y005342D01*
X011365Y005181D01*
X011365Y004486D01*
X011432Y004324D01*
X011556Y004200D01*
X011717Y004133D01*
X011893Y004133D01*
X012054Y004200D01*
X012178Y004324D01*
X012245Y004486D01*
X012245Y005181D01*
X012178Y005342D01*
X012054Y005466D01*
X012205Y005278D02*
X013405Y005278D01*
X013365Y005119D02*
X012245Y005119D01*
X012245Y004961D02*
X013365Y004961D01*
X013365Y004802D02*
X012245Y004802D01*
X012245Y004644D02*
X013365Y004644D01*
X013365Y004485D02*
X013005Y004485D01*
X012805Y004485D02*
X012805Y004485D01*
X012805Y004327D02*
X012805Y004327D01*
X012805Y004168D02*
X012805Y004168D01*
X012805Y004010D02*
X012805Y004010D01*
X012805Y003851D02*
X012805Y003851D01*
X012805Y003833D02*
X012805Y003833D01*
X012805Y003693D02*
X012805Y003693D01*
X012805Y003534D02*
X012805Y003534D01*
X012805Y003376D02*
X012805Y003376D01*
X012805Y003217D02*
X012805Y003217D01*
X012546Y003217D02*
X009809Y003217D01*
X009840Y003248D02*
X009986Y003501D01*
X010062Y003783D01*
X010062Y004076D01*
X009986Y004358D01*
X009840Y004611D01*
X009633Y004818D01*
X009380Y004964D01*
X009098Y005039D01*
X008806Y005039D01*
X008523Y004964D01*
X008270Y004818D01*
X008063Y004611D01*
X007917Y004358D01*
X007842Y004076D01*
X007842Y003783D01*
X007917Y003501D01*
X008063Y003248D01*
X008270Y003041D01*
X008523Y002895D01*
X008806Y002820D01*
X009098Y002820D01*
X009380Y002895D01*
X009633Y003041D01*
X009840Y003248D01*
X009913Y003376D02*
X012412Y003376D01*
X012366Y003534D02*
X009995Y003534D01*
X010037Y003693D02*
X012365Y003693D01*
X012365Y003851D02*
X010062Y003851D01*
X010062Y004010D02*
X012365Y004010D01*
X012371Y004168D02*
X011977Y004168D01*
X012179Y004327D02*
X012431Y004327D01*
X012605Y004485D02*
X012245Y004485D01*
X011633Y004168D02*
X010037Y004168D01*
X009994Y004327D02*
X011431Y004327D01*
X011365Y004485D02*
X009913Y004485D01*
X009807Y004644D02*
X011365Y004644D01*
X011365Y004802D02*
X009649Y004802D01*
X009386Y004961D02*
X011365Y004961D01*
X011365Y005119D02*
X007766Y005119D01*
X007761Y005100D02*
X007773Y005146D01*
X007773Y005525D01*
X007238Y005525D01*
X007238Y005641D01*
X007773Y005641D01*
X007773Y006020D01*
X007761Y006066D01*
X007737Y006107D01*
X007704Y006140D01*
X007663Y006164D01*
X007617Y006176D01*
X007238Y006176D01*
X007238Y005641D01*
X007122Y005641D01*
X007122Y005525D01*
X007238Y005525D01*
X007238Y004990D01*
X007617Y004990D01*
X007663Y005002D01*
X007704Y005026D01*
X007737Y005059D01*
X007761Y005100D01*
X007773Y005278D02*
X011405Y005278D01*
X011526Y005436D02*
X007773Y005436D01*
X007773Y005753D02*
X017927Y005753D01*
X017927Y005912D02*
X007773Y005912D01*
X007759Y006070D02*
X017927Y006070D01*
X017927Y006229D02*
X000660Y006229D01*
X000660Y006387D02*
X018025Y006387D01*
X018025Y006546D02*
X000660Y006546D01*
X000660Y006704D02*
X001808Y006704D01*
X001815Y006700D02*
X001861Y006688D01*
X002132Y006688D01*
X002132Y007075D01*
X001705Y007075D01*
X001705Y006844D01*
X001717Y006798D01*
X001741Y006757D01*
X001774Y006723D01*
X001815Y006700D01*
X001705Y006863D02*
X000660Y006863D01*
X000660Y007021D02*
X001705Y007021D01*
X001705Y007180D02*
X000660Y007180D01*
X000660Y007338D02*
X001705Y007338D01*
X001705Y007497D02*
X000660Y007497D01*
X000660Y007655D02*
X001705Y007655D01*
X001705Y007814D02*
X000660Y007814D01*
X000660Y007972D02*
X001705Y007972D01*
X001712Y008131D02*
X000660Y008131D01*
X000660Y008289D02*
X006047Y008289D01*
X006100Y008448D02*
X000660Y008448D01*
X000660Y008606D02*
X006192Y008606D01*
X006318Y008765D02*
X000660Y008765D01*
X000660Y008923D02*
X006476Y008923D01*
X006635Y009082D02*
X000660Y009082D01*
X000660Y009240D02*
X006793Y009240D01*
X006952Y009399D02*
X000660Y009399D01*
X000660Y009557D02*
X007110Y009557D01*
X007269Y009716D02*
X005991Y009716D01*
X005879Y009603D02*
X006160Y009884D01*
X006160Y010063D01*
X005700Y010063D01*
X005700Y009603D01*
X005879Y009603D01*
X005700Y009716D02*
X005660Y009716D01*
X005660Y009603D02*
X005660Y010063D01*
X005700Y010063D01*
X005700Y010103D01*
X006160Y010103D01*
X006160Y010282D01*
X005879Y010563D01*
X005700Y010563D01*
X005700Y010103D01*
X005660Y010103D01*
X005660Y010063D01*
X005200Y010063D01*
X005200Y009884D01*
X005481Y009603D01*
X005660Y009603D01*
X005660Y009874D02*
X005700Y009874D01*
X005700Y010033D02*
X005660Y010033D01*
X005660Y010103D02*
X005200Y010103D01*
X005200Y010282D01*
X005481Y010563D01*
X005660Y010563D01*
X005660Y010103D01*
X005660Y010191D02*
X005700Y010191D01*
X005700Y010350D02*
X005660Y010350D01*
X005660Y010508D02*
X005700Y010508D01*
X005934Y010508D02*
X008061Y010508D01*
X007903Y010350D02*
X006092Y010350D01*
X006160Y010191D02*
X007744Y010191D01*
X007586Y010033D02*
X006160Y010033D01*
X006150Y009874D02*
X007427Y009874D01*
X008220Y010667D02*
X002362Y010667D01*
X002340Y010689D02*
X002260Y010747D01*
X002172Y010792D01*
X002078Y010823D01*
X002010Y010833D01*
X002010Y010288D01*
X002555Y010288D01*
X002544Y010356D01*
X002514Y010450D01*
X002469Y010538D01*
X002411Y010618D01*
X002340Y010689D01*
X002484Y010508D02*
X005426Y010508D01*
X005268Y010350D02*
X002545Y010350D01*
X002555Y010128D02*
X002010Y010128D01*
X002010Y009583D01*
X002078Y009594D01*
X002172Y009624D01*
X002260Y009669D01*
X002340Y009728D01*
X002411Y009798D01*
X002469Y009878D01*
X002514Y009966D01*
X002544Y010061D01*
X002555Y010128D01*
X002535Y010033D02*
X005200Y010033D01*
X005200Y010191D02*
X002010Y010191D01*
X002010Y010128D02*
X002010Y010288D01*
X001850Y010288D01*
X001850Y010128D01*
X002010Y010128D01*
X002010Y010033D02*
X001850Y010033D01*
X001850Y010128D02*
X001850Y009583D01*
X001782Y009594D01*
X001688Y009624D01*
X001600Y009669D01*
X001520Y009728D01*
X001449Y009798D01*
X001391Y009878D01*
X001346Y009966D01*
X001316Y010061D01*
X001305Y010128D01*
X001850Y010128D01*
X001850Y010191D02*
X000660Y010191D01*
X000660Y010033D02*
X001325Y010033D01*
X001394Y009874D02*
X000660Y009874D01*
X000660Y009716D02*
X001536Y009716D01*
X001850Y009716D02*
X002010Y009716D01*
X002010Y009874D02*
X001850Y009874D01*
X002324Y009716D02*
X005369Y009716D01*
X005210Y009874D02*
X002466Y009874D01*
X002010Y010350D02*
X001850Y010350D01*
X001850Y010288D02*
X001850Y010833D01*
X001782Y010823D01*
X001688Y010792D01*
X001600Y010747D01*
X001520Y010689D01*
X001449Y010618D01*
X001391Y010538D01*
X001346Y010450D01*
X001316Y010356D01*
X001305Y010288D01*
X001850Y010288D01*
X001850Y010508D02*
X002010Y010508D01*
X002010Y010667D02*
X001850Y010667D01*
X001850Y010825D02*
X002010Y010825D01*
X002062Y010825D02*
X008378Y010825D01*
X008537Y010984D02*
X000660Y010984D01*
X000660Y011142D02*
X008695Y011142D01*
X008962Y011301D02*
X000660Y011301D01*
X000660Y010825D02*
X001798Y010825D01*
X001498Y010667D02*
X000660Y010667D01*
X000660Y010508D02*
X001376Y010508D01*
X001315Y010350D02*
X000660Y010350D01*
X002648Y008131D02*
X003337Y008131D01*
X003330Y007497D02*
X002655Y007497D01*
X002655Y007338D02*
X003330Y007338D01*
X003330Y007180D02*
X002655Y007180D01*
X002655Y007021D02*
X003330Y007021D01*
X003330Y007075D02*
X003330Y006844D01*
X003342Y006798D01*
X003366Y006757D01*
X003399Y006723D01*
X003440Y006700D01*
X003486Y006688D01*
X003757Y006688D01*
X003757Y007075D01*
X003330Y007075D01*
X003330Y006863D02*
X002655Y006863D01*
X002552Y006704D02*
X003433Y006704D01*
X003757Y006704D02*
X003853Y006704D01*
X003853Y006863D02*
X003757Y006863D01*
X003757Y007021D02*
X003853Y007021D01*
X004177Y006704D02*
X004808Y006704D01*
X004815Y006700D02*
X004861Y006688D01*
X005132Y006688D01*
X005132Y007075D01*
X004705Y007075D01*
X004705Y006844D01*
X004717Y006798D01*
X004741Y006757D01*
X004774Y006723D01*
X004815Y006700D01*
X004705Y006863D02*
X004280Y006863D01*
X004280Y007021D02*
X004705Y007021D01*
X004705Y007180D02*
X004280Y007180D01*
X004280Y007338D02*
X004705Y007338D01*
X004705Y007497D02*
X004280Y007497D01*
X004273Y008131D02*
X004712Y008131D01*
X005655Y007655D02*
X006000Y007655D01*
X006026Y007497D02*
X005655Y007497D01*
X005655Y007338D02*
X006068Y007338D01*
X006146Y007180D02*
X005655Y007180D01*
X005655Y007021D02*
X006239Y007021D01*
X006397Y006863D02*
X005655Y006863D01*
X005552Y006704D02*
X006629Y006704D01*
X006743Y006176D02*
X006697Y006164D01*
X006656Y006140D01*
X006623Y006107D01*
X006599Y006066D01*
X006587Y006020D01*
X006587Y005641D01*
X007122Y005641D01*
X007122Y006176D01*
X006743Y006176D01*
X006601Y006070D02*
X000660Y006070D01*
X000660Y005912D02*
X006587Y005912D01*
X006587Y005753D02*
X000660Y005753D01*
X000660Y005595D02*
X001882Y005595D01*
X001856Y005587D02*
X001736Y005537D01*
X001620Y005475D01*
X001512Y005403D01*
X001411Y005320D01*
X001318Y005227D01*
X001235Y005126D01*
X001163Y005018D01*
X001101Y004902D01*
X001051Y004782D01*
X001013Y004657D01*
X000988Y004528D01*
X000976Y004413D01*
X002225Y004413D01*
X002225Y004253D01*
X002385Y004253D01*
X002385Y003005D01*
X002500Y003016D01*
X002629Y003041D01*
X002754Y003079D01*
X002874Y003129D01*
X002990Y003191D01*
X003098Y003264D01*
X003199Y003346D01*
X003292Y003439D01*
X003375Y003540D01*
X003447Y003648D01*
X003509Y003764D01*
X003559Y003884D01*
X003597Y004010D01*
X004298Y004010D01*
X004298Y004076D02*
X004298Y003783D01*
X004374Y003501D01*
X004520Y003248D01*
X004727Y003041D01*
X004980Y002895D01*
X005262Y002820D01*
X005554Y002820D01*
X005837Y002895D01*
X006090Y003041D01*
X006297Y003248D01*
X006443Y003501D01*
X006518Y003783D01*
X006518Y004076D01*
X006443Y004358D01*
X006297Y004611D01*
X006090Y004818D01*
X005837Y004964D01*
X005554Y005039D01*
X005262Y005039D01*
X004980Y004964D01*
X004727Y004818D01*
X004520Y004611D01*
X004374Y004358D01*
X004298Y004076D01*
X004323Y004168D02*
X003625Y004168D01*
X003622Y004138D02*
X003634Y004253D01*
X002385Y004253D01*
X002385Y004413D01*
X003634Y004413D01*
X003622Y004528D01*
X003597Y004657D01*
X003559Y004782D01*
X003509Y004902D01*
X003447Y005018D01*
X003375Y005126D01*
X003292Y005227D01*
X003199Y005320D01*
X003098Y005403D01*
X002990Y005475D01*
X002874Y005537D01*
X002754Y005587D01*
X002629Y005625D01*
X002500Y005650D01*
X002385Y005662D01*
X002385Y004413D01*
X002225Y004413D01*
X002225Y005662D01*
X002110Y005650D01*
X001981Y005625D01*
X001856Y005587D01*
X001562Y005436D02*
X000660Y005436D01*
X000660Y005278D02*
X001369Y005278D01*
X001231Y005119D02*
X000660Y005119D01*
X000660Y004961D02*
X001132Y004961D01*
X001060Y004802D02*
X000660Y004802D01*
X000660Y004644D02*
X001011Y004644D01*
X000984Y004485D02*
X000660Y004485D01*
X000660Y004327D02*
X002225Y004327D01*
X002225Y004253D02*
X000976Y004253D01*
X000988Y004138D01*
X001013Y004010D01*
X000660Y004010D01*
X000660Y004168D02*
X000985Y004168D01*
X001013Y004010D02*
X001051Y003884D01*
X001101Y003764D01*
X001163Y003648D01*
X001235Y003540D01*
X001318Y003439D01*
X001411Y003346D01*
X001512Y003264D01*
X001620Y003191D01*
X001736Y003129D01*
X001856Y003079D01*
X001981Y003041D01*
X002110Y003016D01*
X002225Y003005D01*
X002225Y004253D01*
X002225Y004168D02*
X002385Y004168D01*
X002385Y004010D02*
X002225Y004010D01*
X002225Y003851D02*
X002385Y003851D01*
X002385Y003693D02*
X002225Y003693D01*
X002225Y003534D02*
X002385Y003534D01*
X002385Y003376D02*
X002225Y003376D01*
X002225Y003217D02*
X002385Y003217D01*
X002385Y003059D02*
X002225Y003059D01*
X001925Y003059D02*
X000660Y003059D01*
X000660Y003217D02*
X001581Y003217D01*
X001382Y003376D02*
X000660Y003376D01*
X000660Y003534D02*
X001240Y003534D01*
X001139Y003693D02*
X000660Y003693D01*
X000660Y003851D02*
X001065Y003851D01*
X000660Y002900D02*
X004972Y002900D01*
X004710Y003059D02*
X002685Y003059D01*
X003029Y003217D02*
X004551Y003217D01*
X004447Y003376D02*
X003228Y003376D01*
X003370Y003534D02*
X004365Y003534D01*
X004323Y003693D02*
X003471Y003693D01*
X003545Y003851D02*
X004298Y003851D01*
X004366Y004327D02*
X002385Y004327D01*
X002385Y004485D02*
X002225Y004485D01*
X002225Y004644D02*
X002385Y004644D01*
X002385Y004802D02*
X002225Y004802D01*
X002225Y004961D02*
X002385Y004961D01*
X002385Y005119D02*
X002225Y005119D01*
X002225Y005278D02*
X002385Y005278D01*
X002385Y005436D02*
X002225Y005436D01*
X002225Y005595D02*
X002385Y005595D01*
X002728Y005595D02*
X007122Y005595D01*
X007122Y005525D02*
X006587Y005525D01*
X006587Y005146D01*
X006599Y005100D01*
X006623Y005059D01*
X006656Y005026D01*
X006697Y005002D01*
X006743Y004990D01*
X007122Y004990D01*
X007122Y005525D01*
X007122Y005436D02*
X007238Y005436D01*
X007238Y005278D02*
X007122Y005278D01*
X007122Y005119D02*
X007238Y005119D01*
X007238Y005595D02*
X018018Y005595D01*
X018592Y005595D02*
X020842Y005595D01*
X020810Y005753D02*
X018683Y005753D01*
X018683Y005912D02*
X020810Y005912D01*
X020810Y006070D02*
X018683Y006070D01*
X018683Y006229D02*
X020810Y006229D01*
X020910Y006387D02*
X018585Y006387D01*
X018585Y006546D02*
X021025Y006546D01*
X021768Y005595D02*
X026737Y005595D01*
X026527Y005436D02*
X021800Y005436D01*
X021800Y005278D02*
X026382Y005278D01*
X026275Y005119D02*
X021800Y005119D01*
X021800Y004961D02*
X023336Y004961D01*
X023178Y004802D02*
X021723Y004802D01*
X020887Y004802D02*
X019940Y004802D01*
X019940Y004644D02*
X023170Y004644D01*
X023170Y004485D02*
X019803Y004485D01*
X019658Y004327D02*
X023215Y004327D01*
X023374Y004168D02*
X019816Y004168D01*
X019940Y004010D02*
X023385Y004010D01*
X023227Y003851D02*
X019940Y003851D01*
X019940Y003693D02*
X023170Y003693D01*
X023170Y003534D02*
X019852Y003534D01*
X019694Y003376D02*
X023170Y003376D01*
X024190Y004644D02*
X026112Y004644D01*
X026145Y004802D02*
X024182Y004802D01*
X024024Y004961D02*
X026199Y004961D01*
X027350Y004327D02*
X027510Y004327D01*
X027510Y004485D02*
X029070Y004485D01*
X029070Y004327D02*
X028753Y004327D01*
X028728Y004168D02*
X029070Y004168D01*
X029070Y004010D02*
X028684Y004010D01*
X028614Y003851D02*
X029070Y003851D01*
X029070Y003693D02*
X028518Y003693D01*
X028387Y003534D02*
X029070Y003534D01*
X029070Y003376D02*
X028204Y003376D01*
X027909Y003217D02*
X029070Y003217D01*
X029070Y003059D02*
X009650Y003059D01*
X009388Y002900D02*
X029070Y002900D01*
X029070Y002813D02*
X029070Y031224D01*
X000660Y031224D01*
X000660Y002813D01*
X029070Y002813D01*
X027510Y003217D02*
X027350Y003217D01*
X027350Y003376D02*
X027510Y003376D01*
X027510Y003534D02*
X027350Y003534D01*
X027350Y003693D02*
X027510Y003693D01*
X027510Y003851D02*
X027350Y003851D01*
X027350Y004010D02*
X027510Y004010D01*
X027510Y004168D02*
X027350Y004168D01*
X028333Y005436D02*
X029070Y005436D01*
X029070Y005278D02*
X028478Y005278D01*
X028585Y005119D02*
X029070Y005119D01*
X029070Y004961D02*
X028661Y004961D01*
X028715Y004802D02*
X029070Y004802D01*
X029070Y004644D02*
X028748Y004644D01*
X029070Y005595D02*
X028123Y005595D01*
X027737Y005753D02*
X029070Y005753D01*
X025086Y010033D02*
X023660Y010033D01*
X023660Y010063D02*
X023200Y010063D01*
X023200Y009603D01*
X023379Y009603D01*
X023660Y009884D01*
X023660Y010063D01*
X023660Y010103D02*
X023660Y010282D01*
X023379Y010563D01*
X023200Y010563D01*
X023200Y010103D01*
X023660Y010103D01*
X023660Y010191D02*
X025244Y010191D01*
X025403Y010350D02*
X023592Y010350D01*
X023434Y010508D02*
X025561Y010508D01*
X025720Y010667D02*
X019862Y010667D01*
X019840Y010689D02*
X019760Y010747D01*
X019672Y010792D01*
X019578Y010823D01*
X019510Y010833D01*
X019510Y010288D01*
X020055Y010288D01*
X020044Y010356D01*
X020014Y010450D01*
X019969Y010538D01*
X019911Y010618D01*
X019840Y010689D01*
X019984Y010508D02*
X022926Y010508D01*
X022981Y010563D02*
X022700Y010282D01*
X022700Y010103D01*
X023160Y010103D01*
X023160Y010063D01*
X023200Y010063D01*
X023200Y010103D01*
X023160Y010103D01*
X023160Y010563D01*
X022981Y010563D01*
X023160Y010508D02*
X023200Y010508D01*
X023200Y010350D02*
X023160Y010350D01*
X023160Y010191D02*
X023200Y010191D01*
X023160Y010063D02*
X022700Y010063D01*
X022700Y009884D01*
X022981Y009603D01*
X023160Y009603D01*
X023160Y010063D01*
X023160Y010033D02*
X023200Y010033D01*
X023200Y009874D02*
X023160Y009874D01*
X023160Y009716D02*
X023200Y009716D01*
X023491Y009716D02*
X024769Y009716D01*
X024927Y009874D02*
X023650Y009874D01*
X024293Y009240D02*
X010131Y009240D01*
X010289Y009399D02*
X024452Y009399D01*
X024610Y009557D02*
X010417Y009557D01*
X010508Y009716D02*
X014369Y009716D01*
X014481Y009603D02*
X014200Y009884D01*
X014200Y010063D01*
X014660Y010063D01*
X014700Y010063D01*
X014700Y009603D01*
X014879Y009603D01*
X015160Y009884D01*
X015160Y010063D01*
X014700Y010063D01*
X014700Y010103D01*
X015160Y010103D01*
X015160Y010282D01*
X014879Y010563D01*
X014700Y010563D01*
X014700Y010103D01*
X014660Y010103D01*
X014660Y010063D01*
X014660Y009603D01*
X014481Y009603D01*
X014660Y009716D02*
X014700Y009716D01*
X014700Y009874D02*
X014660Y009874D01*
X014660Y010033D02*
X014700Y010033D01*
X014660Y010103D02*
X014200Y010103D01*
X014200Y010282D01*
X014481Y010563D01*
X014660Y010563D01*
X014660Y010103D01*
X014660Y010191D02*
X014700Y010191D01*
X014700Y010350D02*
X014660Y010350D01*
X014660Y010508D02*
X014700Y010508D01*
X014934Y010508D02*
X018876Y010508D01*
X018891Y010538D02*
X018846Y010450D01*
X018816Y010356D01*
X018805Y010288D01*
X019350Y010288D01*
X019350Y010128D01*
X019510Y010128D01*
X019510Y009583D01*
X019578Y009594D01*
X019672Y009624D01*
X019760Y009669D01*
X019840Y009728D01*
X019911Y009798D01*
X019969Y009878D01*
X020014Y009966D01*
X020044Y010061D01*
X020055Y010128D01*
X019510Y010128D01*
X019510Y010288D01*
X019350Y010288D01*
X019350Y010833D01*
X019282Y010823D01*
X019188Y010792D01*
X019100Y010747D01*
X019020Y010689D01*
X018949Y010618D01*
X018891Y010538D01*
X018998Y010667D02*
X010528Y010667D01*
X010571Y010508D02*
X014426Y010508D01*
X014268Y010350D02*
X010610Y010350D01*
X010610Y010191D02*
X014200Y010191D01*
X014200Y010033D02*
X010605Y010033D01*
X010562Y009874D02*
X014210Y009874D01*
X014991Y009716D02*
X019036Y009716D01*
X019020Y009728D02*
X019100Y009669D01*
X019188Y009624D01*
X019282Y009594D01*
X019350Y009583D01*
X019350Y010128D01*
X018805Y010128D01*
X018816Y010061D01*
X018846Y009966D01*
X018891Y009878D01*
X018949Y009798D01*
X019020Y009728D01*
X018894Y009874D02*
X015150Y009874D01*
X015160Y010033D02*
X018825Y010033D01*
X018815Y010350D02*
X015092Y010350D01*
X015160Y010191D02*
X019350Y010191D01*
X019350Y010033D02*
X019510Y010033D01*
X019510Y010191D02*
X022700Y010191D01*
X022700Y010033D02*
X020035Y010033D01*
X019966Y009874D02*
X022710Y009874D01*
X022869Y009716D02*
X019824Y009716D01*
X019510Y009716D02*
X019350Y009716D01*
X019350Y009874D02*
X019510Y009874D01*
X019510Y010350D02*
X019350Y010350D01*
X019350Y010508D02*
X019510Y010508D01*
X019510Y010667D02*
X019350Y010667D01*
X019350Y010825D02*
X019510Y010825D01*
X019562Y010825D02*
X025878Y010825D01*
X026037Y010984D02*
X010323Y010984D01*
X010436Y010825D02*
X019298Y010825D01*
X020045Y010350D02*
X022768Y010350D01*
X024135Y009082D02*
X009972Y009082D01*
X010165Y011142D02*
X026195Y011142D01*
X026462Y011301D02*
X009898Y011301D01*
X009678Y014629D02*
X011558Y014629D01*
X011932Y014788D02*
X009900Y014788D01*
X010023Y015422D02*
X011928Y015422D01*
X012017Y015580D02*
X009949Y015580D01*
X009918Y016056D02*
X011883Y016056D01*
X006249Y023981D02*
X005860Y023981D01*
X005836Y024139D02*
X006250Y024139D01*
X006250Y024298D02*
X005677Y024298D01*
X004841Y024456D02*
X002316Y024456D01*
X002462Y024298D02*
X004683Y024298D01*
X004524Y024139D02*
X002534Y024139D01*
X001467Y026200D02*
X000660Y026200D01*
X000660Y026358D02*
X001309Y026358D01*
X001170Y026517D02*
X000660Y026517D01*
X000660Y026675D02*
X001170Y026675D01*
X001170Y026834D02*
X000660Y026834D01*
X000660Y026992D02*
X001243Y026992D01*
X001401Y027151D02*
X000660Y027151D01*
X000660Y027309D02*
X018795Y027309D01*
X018795Y027458D02*
X019305Y027458D01*
X019305Y027458D01*
X019815Y027458D01*
X019815Y027669D01*
X019516Y027968D01*
X019305Y027968D01*
X019094Y027968D01*
X018795Y027669D01*
X018795Y027458D01*
X018795Y027468D02*
X000660Y027468D01*
X000660Y027626D02*
X018795Y027626D01*
X018910Y027785D02*
X000660Y027785D01*
X000660Y027943D02*
X006617Y027943D01*
X006623Y027934D02*
X006656Y027901D01*
X006697Y027877D01*
X006743Y027865D01*
X007122Y027865D01*
X007122Y028400D01*
X007238Y028400D01*
X007238Y028516D01*
X007773Y028516D01*
X007773Y028895D01*
X007761Y028941D01*
X007737Y028982D01*
X007704Y029015D01*
X007663Y029039D01*
X007617Y029051D01*
X007238Y029051D01*
X007238Y028516D01*
X007122Y028516D01*
X007122Y028400D01*
X006587Y028400D01*
X006587Y028021D01*
X006599Y027975D01*
X006623Y027934D01*
X006587Y028102D02*
X000660Y028102D01*
X000660Y028260D02*
X002043Y028260D01*
X002100Y028260D02*
X002260Y028260D01*
X002260Y028255D02*
X002375Y028266D01*
X002504Y028291D01*
X002629Y028329D01*
X002749Y028379D01*
X002865Y028441D01*
X002973Y028514D01*
X003074Y028596D01*
X003167Y028689D01*
X003250Y028790D01*
X003322Y028898D01*
X003384Y029014D01*
X003434Y029134D01*
X003472Y029260D01*
X003497Y029388D01*
X003509Y029503D01*
X002260Y029503D01*
X002260Y028255D01*
X002317Y028260D02*
X006587Y028260D01*
X006587Y028516D02*
X007122Y028516D01*
X007122Y029051D01*
X006743Y029051D01*
X006697Y029039D01*
X006656Y029015D01*
X006623Y028982D01*
X006599Y028941D01*
X006587Y028895D01*
X006587Y028516D01*
X006587Y028577D02*
X003051Y028577D01*
X003205Y028736D02*
X006587Y028736D01*
X006587Y028894D02*
X003319Y028894D01*
X003400Y029053D02*
X005072Y029053D01*
X004980Y029077D02*
X005262Y029002D01*
X005554Y029002D01*
X005837Y029077D01*
X006090Y029223D01*
X006297Y029430D01*
X006443Y029683D01*
X006518Y029965D01*
X006518Y030258D01*
X006443Y030540D01*
X006297Y030793D01*
X006090Y031000D01*
X005837Y031146D01*
X005554Y031222D01*
X005262Y031222D01*
X004980Y031146D01*
X004727Y031000D01*
X004520Y030793D01*
X004374Y030540D01*
X004298Y030258D01*
X004298Y029965D01*
X004374Y029683D01*
X004520Y029430D01*
X004727Y029223D01*
X004980Y029077D01*
X004748Y029211D02*
X003457Y029211D01*
X003494Y029370D02*
X004581Y029370D01*
X004464Y029528D02*
X002260Y029528D01*
X002260Y029503D02*
X002260Y029663D01*
X003509Y029663D01*
X003497Y029778D01*
X003472Y029907D01*
X003434Y030032D01*
X003384Y030152D01*
X003322Y030268D01*
X003250Y030376D01*
X003167Y030477D01*
X003074Y030570D01*
X002973Y030653D01*
X002865Y030725D01*
X002749Y030787D01*
X002629Y030837D01*
X002504Y030875D01*
X002375Y030900D01*
X002260Y030912D01*
X002260Y029663D01*
X002100Y029663D01*
X002100Y029503D01*
X002260Y029503D01*
X002260Y029370D02*
X002100Y029370D01*
X002100Y029503D02*
X002100Y028255D01*
X001985Y028266D01*
X001856Y028291D01*
X001731Y028329D01*
X001611Y028379D01*
X001495Y028441D01*
X001387Y028514D01*
X001286Y028596D01*
X001193Y028689D01*
X001110Y028790D01*
X001038Y028898D01*
X000976Y029014D01*
X000926Y029134D01*
X000888Y029260D01*
X000863Y029388D01*
X000851Y029503D01*
X002100Y029503D01*
X002100Y029528D02*
X000660Y029528D01*
X000660Y029370D02*
X000866Y029370D01*
X000903Y029211D02*
X000660Y029211D01*
X000660Y029053D02*
X000960Y029053D01*
X001041Y028894D02*
X000660Y028894D01*
X000660Y028736D02*
X001155Y028736D01*
X001309Y028577D02*
X000660Y028577D01*
X000660Y028419D02*
X001537Y028419D01*
X002100Y028419D02*
X002260Y028419D01*
X002260Y028577D02*
X002100Y028577D01*
X002100Y028736D02*
X002260Y028736D01*
X002260Y028894D02*
X002100Y028894D01*
X002100Y029053D02*
X002260Y029053D01*
X002260Y029211D02*
X002100Y029211D01*
X002100Y029663D02*
X000851Y029663D01*
X000863Y029778D01*
X000888Y029907D01*
X000926Y030032D01*
X000976Y030152D01*
X001038Y030268D01*
X001110Y030376D01*
X001193Y030477D01*
X001286Y030570D01*
X001387Y030653D01*
X001495Y030725D01*
X001611Y030787D01*
X001731Y030837D01*
X001856Y030875D01*
X001985Y030900D01*
X002100Y030912D01*
X002100Y029663D01*
X002100Y029687D02*
X002260Y029687D01*
X002260Y029845D02*
X002100Y029845D01*
X002100Y030004D02*
X002260Y030004D01*
X002260Y030162D02*
X002100Y030162D01*
X002100Y030321D02*
X002260Y030321D01*
X002260Y030479D02*
X002100Y030479D01*
X002100Y030638D02*
X002260Y030638D01*
X002260Y030796D02*
X002100Y030796D01*
X001633Y030796D02*
X000660Y030796D01*
X000660Y030638D02*
X001368Y030638D01*
X001195Y030479D02*
X000660Y030479D01*
X000660Y030321D02*
X001073Y030321D01*
X000981Y030162D02*
X000660Y030162D01*
X000660Y030004D02*
X000918Y030004D01*
X000876Y029845D02*
X000660Y029845D01*
X000660Y029687D02*
X000854Y029687D01*
X000660Y030955D02*
X004682Y030955D01*
X004523Y030796D02*
X002727Y030796D01*
X002992Y030638D02*
X004430Y030638D01*
X004358Y030479D02*
X003165Y030479D01*
X003287Y030321D02*
X004315Y030321D01*
X004298Y030162D02*
X003379Y030162D01*
X003442Y030004D02*
X004298Y030004D01*
X004331Y029845D02*
X003484Y029845D01*
X003506Y029687D02*
X004373Y029687D01*
X004923Y031113D02*
X000660Y031113D01*
X002823Y028419D02*
X007122Y028419D01*
X007238Y028419D02*
X014622Y028419D01*
X014622Y028400D02*
X014087Y028400D01*
X014087Y028021D01*
X014099Y027975D01*
X014123Y027934D01*
X014156Y027901D01*
X014197Y027877D01*
X014243Y027865D01*
X014622Y027865D01*
X014622Y028400D01*
X014738Y028400D01*
X014738Y028516D01*
X015273Y028516D01*
X015273Y028895D01*
X015261Y028941D01*
X015237Y028982D01*
X015204Y029015D01*
X015163Y029039D01*
X015117Y029051D01*
X014738Y029051D01*
X014738Y028516D01*
X014622Y028516D01*
X014622Y028400D01*
X014738Y028400D02*
X014738Y027865D01*
X015117Y027865D01*
X015163Y027877D01*
X015204Y027901D01*
X015237Y027934D01*
X015261Y027975D01*
X015273Y028021D01*
X015273Y028400D01*
X014738Y028400D01*
X014738Y028419D02*
X021997Y028419D01*
X021997Y028400D02*
X021462Y028400D01*
X021462Y028021D01*
X021474Y027975D01*
X021498Y027934D01*
X021531Y027901D01*
X021572Y027877D01*
X021618Y027865D01*
X021997Y027865D01*
X021997Y028400D01*
X022113Y028400D01*
X022113Y028516D01*
X022648Y028516D01*
X022648Y028895D01*
X022636Y028941D01*
X022612Y028982D01*
X022579Y029015D01*
X022538Y029039D01*
X022492Y029051D01*
X022113Y029051D01*
X022113Y028516D01*
X021997Y028516D01*
X021997Y028400D01*
X022113Y028400D02*
X022113Y027865D01*
X022492Y027865D01*
X022538Y027877D01*
X022579Y027901D01*
X022612Y027934D01*
X022636Y027975D01*
X022648Y028021D01*
X022648Y028400D01*
X022113Y028400D01*
X022113Y028419D02*
X027099Y028419D01*
X027106Y028416D02*
X027235Y028391D01*
X027350Y028380D01*
X027350Y029628D01*
X027510Y029628D01*
X027510Y028380D01*
X027625Y028391D01*
X027754Y028416D01*
X027879Y028454D01*
X027999Y028504D01*
X028115Y028566D01*
X028223Y028639D01*
X028324Y028721D01*
X028417Y028814D01*
X028500Y028915D01*
X028572Y029023D01*
X028634Y029139D01*
X028684Y029259D01*
X028722Y029385D01*
X028747Y029513D01*
X028759Y029628D01*
X027510Y029628D01*
X027510Y029788D01*
X028759Y029788D01*
X028747Y029903D01*
X028722Y030032D01*
X028684Y030157D01*
X028634Y030277D01*
X028572Y030393D01*
X028500Y030501D01*
X028417Y030602D01*
X028324Y030695D01*
X028223Y030778D01*
X028115Y030850D01*
X027999Y030912D01*
X027879Y030962D01*
X027754Y031000D01*
X027625Y031025D01*
X027510Y031037D01*
X027510Y029788D01*
X027350Y029788D01*
X027350Y029628D01*
X026101Y029628D01*
X026113Y029513D01*
X026138Y029385D01*
X026176Y029259D01*
X026226Y029139D01*
X026288Y029023D01*
X026360Y028915D01*
X026443Y028814D01*
X026536Y028721D01*
X026637Y028639D01*
X026745Y028566D01*
X026861Y028504D01*
X026981Y028454D01*
X027106Y028416D01*
X027350Y028419D02*
X027510Y028419D01*
X027510Y028577D02*
X027350Y028577D01*
X027350Y028736D02*
X027510Y028736D01*
X027510Y028894D02*
X027350Y028894D01*
X027350Y029053D02*
X027510Y029053D01*
X027510Y029211D02*
X027350Y029211D01*
X027350Y029370D02*
X027510Y029370D01*
X027510Y029528D02*
X027350Y029528D01*
X027350Y029687D02*
X024862Y029687D01*
X024861Y029683D02*
X024937Y029965D01*
X024937Y030258D01*
X024861Y030540D01*
X024715Y030793D01*
X024508Y031000D01*
X024255Y031146D01*
X023973Y031222D01*
X023681Y031222D01*
X023398Y031146D01*
X023145Y031000D01*
X022938Y030793D01*
X022792Y030540D01*
X022717Y030258D01*
X022717Y029965D01*
X022792Y029683D01*
X022938Y029430D01*
X023145Y029223D01*
X023398Y029077D01*
X023681Y029002D01*
X023973Y029002D01*
X024255Y029077D01*
X024508Y029223D01*
X024715Y029430D01*
X024861Y029683D01*
X024904Y029845D02*
X026107Y029845D01*
X026101Y029788D02*
X026113Y029903D01*
X026138Y030032D01*
X026176Y030157D01*
X026226Y030277D01*
X026288Y030393D01*
X026360Y030501D01*
X026443Y030602D01*
X026536Y030695D01*
X026637Y030778D01*
X026745Y030850D01*
X026861Y030912D01*
X026981Y030962D01*
X027106Y031000D01*
X027235Y031025D01*
X027350Y031037D01*
X027350Y029788D01*
X026101Y029788D01*
X026133Y030004D02*
X024937Y030004D01*
X024937Y030162D02*
X026178Y030162D01*
X026249Y030321D02*
X024920Y030321D01*
X024877Y030479D02*
X026346Y030479D01*
X026479Y030638D02*
X024805Y030638D01*
X024712Y030796D02*
X026664Y030796D01*
X026964Y030955D02*
X024553Y030955D01*
X024312Y031113D02*
X029070Y031113D01*
X029070Y030955D02*
X027896Y030955D01*
X028196Y030796D02*
X029070Y030796D01*
X029070Y030638D02*
X028381Y030638D01*
X028514Y030479D02*
X029070Y030479D01*
X029070Y030321D02*
X028611Y030321D01*
X028682Y030162D02*
X029070Y030162D01*
X029070Y030004D02*
X028727Y030004D01*
X028753Y029845D02*
X029070Y029845D01*
X029070Y029687D02*
X027510Y029687D01*
X027510Y029845D02*
X027350Y029845D01*
X027350Y030004D02*
X027510Y030004D01*
X027510Y030162D02*
X027350Y030162D01*
X027350Y030321D02*
X027510Y030321D01*
X027510Y030479D02*
X027350Y030479D01*
X027350Y030638D02*
X027510Y030638D01*
X027510Y030796D02*
X027350Y030796D01*
X027350Y030955D02*
X027510Y030955D01*
X028749Y029528D02*
X029070Y029528D01*
X029070Y029370D02*
X028717Y029370D01*
X028664Y029211D02*
X029070Y029211D01*
X029070Y029053D02*
X028588Y029053D01*
X028483Y028894D02*
X029070Y028894D01*
X029070Y028736D02*
X028338Y028736D01*
X028131Y028577D02*
X029070Y028577D01*
X029070Y028419D02*
X027761Y028419D01*
X026729Y028577D02*
X022648Y028577D01*
X022648Y028736D02*
X026522Y028736D01*
X026377Y028894D02*
X022648Y028894D01*
X022113Y028894D02*
X021997Y028894D01*
X021997Y029051D02*
X021618Y029051D01*
X021572Y029039D01*
X021531Y029015D01*
X021498Y028982D01*
X021474Y028941D01*
X021462Y028895D01*
X021462Y028516D01*
X021997Y028516D01*
X021997Y029051D01*
X021997Y028736D02*
X022113Y028736D01*
X022113Y028577D02*
X021997Y028577D01*
X021997Y028260D02*
X022113Y028260D01*
X022113Y028102D02*
X021997Y028102D01*
X021997Y027943D02*
X022113Y027943D01*
X022618Y027943D02*
X029070Y027943D01*
X029070Y027785D02*
X019700Y027785D01*
X019815Y027626D02*
X029070Y027626D01*
X029070Y027468D02*
X019815Y027468D01*
X019541Y027943D02*
X021492Y027943D01*
X021462Y028102D02*
X015273Y028102D01*
X015273Y028260D02*
X021462Y028260D01*
X021462Y028577D02*
X015273Y028577D01*
X015273Y028736D02*
X021462Y028736D01*
X021462Y028894D02*
X015273Y028894D01*
X015624Y029370D02*
X013736Y029370D01*
X013797Y029430D02*
X013943Y029683D01*
X014018Y029965D01*
X014018Y030258D01*
X013943Y030540D01*
X013797Y030793D01*
X013590Y031000D01*
X013337Y031146D01*
X013054Y031222D01*
X012762Y031222D01*
X012480Y031146D01*
X012227Y031000D01*
X012020Y030793D01*
X011874Y030540D01*
X011798Y030258D01*
X011798Y029965D01*
X011874Y029683D01*
X012020Y029430D01*
X012227Y029223D01*
X012480Y029077D01*
X012762Y029002D01*
X013054Y029002D01*
X013337Y029077D01*
X013590Y029223D01*
X013797Y029430D01*
X013853Y029528D02*
X015507Y029528D01*
X015563Y029430D02*
X015417Y029683D01*
X015342Y029965D01*
X015342Y030258D01*
X015417Y030540D01*
X015563Y030793D01*
X015770Y031000D01*
X016023Y031146D01*
X016306Y031222D01*
X016598Y031222D01*
X016880Y031146D01*
X017133Y031000D01*
X017340Y030793D01*
X017486Y030540D01*
X017562Y030258D01*
X017562Y029965D01*
X017486Y029683D01*
X017340Y029430D01*
X017133Y029223D01*
X016880Y029077D01*
X016598Y029002D01*
X016306Y029002D01*
X016023Y029077D01*
X015770Y029223D01*
X015563Y029430D01*
X015416Y029687D02*
X013944Y029687D01*
X013986Y029845D02*
X015374Y029845D01*
X015342Y030004D02*
X014018Y030004D01*
X014018Y030162D02*
X015342Y030162D01*
X015359Y030321D02*
X014001Y030321D01*
X013959Y030479D02*
X015401Y030479D01*
X015474Y030638D02*
X013886Y030638D01*
X013794Y030796D02*
X015566Y030796D01*
X015725Y030955D02*
X013635Y030955D01*
X013394Y031113D02*
X015966Y031113D01*
X016937Y031113D02*
X019798Y031113D01*
X019855Y031146D02*
X019602Y031000D01*
X019395Y030793D01*
X019249Y030540D01*
X019173Y030258D01*
X019173Y029965D01*
X019249Y029683D01*
X019395Y029430D01*
X019602Y029223D01*
X019855Y029077D01*
X020137Y029002D01*
X020429Y029002D01*
X020712Y029077D01*
X020965Y029223D01*
X021172Y029430D01*
X021318Y029683D01*
X021393Y029965D01*
X021393Y030258D01*
X021318Y030540D01*
X021172Y030793D01*
X020965Y031000D01*
X020712Y031146D01*
X020429Y031222D01*
X020137Y031222D01*
X019855Y031146D01*
X019557Y030955D02*
X017178Y030955D01*
X017337Y030796D02*
X019398Y030796D01*
X019305Y030638D02*
X017430Y030638D01*
X017502Y030479D02*
X019233Y030479D01*
X019190Y030321D02*
X017545Y030321D01*
X017562Y030162D02*
X019173Y030162D01*
X019173Y030004D02*
X017562Y030004D01*
X017529Y029845D02*
X019206Y029845D01*
X019248Y029687D02*
X017487Y029687D01*
X017396Y029528D02*
X019339Y029528D01*
X019456Y029370D02*
X017279Y029370D01*
X017112Y029211D02*
X019623Y029211D01*
X019947Y029053D02*
X016788Y029053D01*
X016115Y029053D02*
X013245Y029053D01*
X013568Y029211D02*
X015792Y029211D01*
X014738Y028894D02*
X014622Y028894D01*
X014622Y029051D02*
X014243Y029051D01*
X014197Y029039D01*
X014156Y029015D01*
X014123Y028982D01*
X014099Y028941D01*
X014087Y028895D01*
X014087Y028516D01*
X014622Y028516D01*
X014622Y029051D01*
X014622Y028736D02*
X014738Y028736D01*
X014738Y028577D02*
X014622Y028577D01*
X014622Y028260D02*
X014738Y028260D01*
X014738Y028102D02*
X014622Y028102D01*
X014622Y027943D02*
X014738Y027943D01*
X015243Y027943D02*
X019069Y027943D01*
X019305Y027943D02*
X019305Y027943D01*
X019305Y027968D02*
X019305Y027458D01*
X019305Y027458D01*
X019305Y027968D01*
X019305Y027785D02*
X019305Y027785D01*
X019305Y027626D02*
X019305Y027626D01*
X019305Y027468D02*
X019305Y027468D01*
X018891Y027151D02*
X007539Y027151D01*
X007617Y027865D02*
X007238Y027865D01*
X007238Y028400D01*
X007773Y028400D01*
X007773Y028021D01*
X007761Y027975D01*
X007737Y027934D01*
X007704Y027901D01*
X007663Y027877D01*
X007617Y027865D01*
X007743Y027943D02*
X014117Y027943D01*
X014087Y028102D02*
X007773Y028102D01*
X007773Y028260D02*
X014087Y028260D01*
X014087Y028577D02*
X007773Y028577D01*
X007773Y028736D02*
X014087Y028736D01*
X014087Y028894D02*
X007773Y028894D01*
X008124Y029370D02*
X006236Y029370D01*
X006353Y029528D02*
X008007Y029528D01*
X008063Y029430D02*
X007917Y029683D01*
X007842Y029965D01*
X007842Y030258D01*
X007917Y030540D01*
X008063Y030793D01*
X008270Y031000D01*
X008523Y031146D01*
X008806Y031222D01*
X009098Y031222D01*
X009380Y031146D01*
X009633Y031000D01*
X009840Y030793D01*
X009986Y030540D01*
X010062Y030258D01*
X010062Y029965D01*
X009986Y029683D01*
X009840Y029430D01*
X009633Y029223D01*
X009380Y029077D01*
X009098Y029002D01*
X008806Y029002D01*
X008523Y029077D01*
X008270Y029223D01*
X008063Y029430D01*
X007916Y029687D02*
X006444Y029687D01*
X006486Y029845D02*
X007874Y029845D01*
X007842Y030004D02*
X006518Y030004D01*
X006518Y030162D02*
X007842Y030162D01*
X007859Y030321D02*
X006501Y030321D01*
X006459Y030479D02*
X007901Y030479D01*
X007974Y030638D02*
X006386Y030638D01*
X006294Y030796D02*
X008066Y030796D01*
X008225Y030955D02*
X006135Y030955D01*
X005894Y031113D02*
X008466Y031113D01*
X009437Y031113D02*
X012423Y031113D01*
X012182Y030955D02*
X009678Y030955D01*
X009837Y030796D02*
X012023Y030796D01*
X011930Y030638D02*
X009930Y030638D01*
X010002Y030479D02*
X011858Y030479D01*
X011815Y030321D02*
X010045Y030321D01*
X010062Y030162D02*
X011798Y030162D01*
X011798Y030004D02*
X010062Y030004D01*
X010029Y029845D02*
X011831Y029845D01*
X011873Y029687D02*
X009987Y029687D01*
X009896Y029528D02*
X011964Y029528D01*
X012081Y029370D02*
X009779Y029370D01*
X009612Y029211D02*
X012248Y029211D01*
X012572Y029053D02*
X009288Y029053D01*
X008615Y029053D02*
X005745Y029053D01*
X006068Y029211D02*
X008292Y029211D01*
X007238Y028894D02*
X007122Y028894D01*
X007122Y028736D02*
X007238Y028736D01*
X007238Y028577D02*
X007122Y028577D01*
X007122Y028260D02*
X007238Y028260D01*
X007238Y028102D02*
X007122Y028102D01*
X007122Y027943D02*
X007238Y027943D01*
X017615Y026675D02*
X018801Y026675D01*
X020620Y029053D02*
X023490Y029053D01*
X023167Y029211D02*
X020943Y029211D01*
X021111Y029370D02*
X022999Y029370D01*
X022882Y029528D02*
X021228Y029528D01*
X021319Y029687D02*
X022791Y029687D01*
X022749Y029845D02*
X021361Y029845D01*
X021393Y030004D02*
X022717Y030004D01*
X022717Y030162D02*
X021393Y030162D01*
X021376Y030321D02*
X022734Y030321D01*
X022776Y030479D02*
X021334Y030479D01*
X021261Y030638D02*
X022849Y030638D01*
X022941Y030796D02*
X021169Y030796D01*
X021010Y030955D02*
X023100Y030955D01*
X023341Y031113D02*
X020769Y031113D01*
X022648Y028260D02*
X029070Y028260D01*
X029070Y028102D02*
X022648Y028102D01*
X022414Y027151D02*
X026526Y027151D01*
X026368Y026992D02*
X025220Y026992D01*
X025240Y026200D02*
X026592Y026200D01*
X027242Y026992D02*
X027368Y026992D01*
X027526Y027151D02*
X027084Y027151D01*
X027805Y027151D02*
X027805Y027151D01*
X027805Y026992D02*
X027805Y026992D01*
X027805Y026834D02*
X027805Y026834D01*
X027805Y026708D02*
X027805Y026708D01*
X027805Y026675D02*
X027805Y026675D01*
X027805Y026517D02*
X027805Y026517D01*
X029070Y026041D02*
X023622Y026041D01*
X023620Y026200D02*
X023463Y026200D01*
X023780Y025883D02*
X029070Y025883D01*
X029070Y025724D02*
X023939Y025724D01*
X024022Y025566D02*
X029070Y025566D01*
X029070Y025407D02*
X024087Y025407D01*
X024110Y025249D02*
X029070Y025249D01*
X029070Y025090D02*
X024110Y025090D01*
X024110Y024932D02*
X029070Y024932D01*
X026272Y029053D02*
X024163Y029053D01*
X024487Y029211D02*
X026196Y029211D01*
X026143Y029370D02*
X024654Y029370D01*
X024771Y029528D02*
X026111Y029528D01*
X023640Y026992D02*
X022671Y026992D01*
X005228Y007021D02*
X005132Y007021D01*
X005132Y006863D02*
X005228Y006863D01*
X005228Y006704D02*
X005132Y006704D01*
X004974Y004961D02*
X003478Y004961D01*
X003550Y004802D02*
X004711Y004802D01*
X004553Y004644D02*
X003599Y004644D01*
X003626Y004485D02*
X004447Y004485D01*
X003622Y004138D02*
X003597Y004010D01*
X003379Y005119D02*
X006594Y005119D01*
X006587Y005278D02*
X003241Y005278D01*
X003048Y005436D02*
X006587Y005436D01*
X007122Y005753D02*
X007238Y005753D01*
X007238Y005912D02*
X007122Y005912D01*
X007122Y006070D02*
X007238Y006070D01*
X008255Y004802D02*
X006105Y004802D01*
X006264Y004644D02*
X008096Y004644D01*
X007991Y004485D02*
X006369Y004485D01*
X006451Y004327D02*
X007909Y004327D01*
X007866Y004168D02*
X006494Y004168D01*
X006518Y004010D02*
X007842Y004010D01*
X007842Y003851D02*
X006518Y003851D01*
X006494Y003693D02*
X007866Y003693D01*
X007909Y003534D02*
X006451Y003534D01*
X006370Y003376D02*
X007990Y003376D01*
X008094Y003217D02*
X006266Y003217D01*
X006107Y003059D02*
X008253Y003059D01*
X008515Y002900D02*
X005845Y002900D01*
X005842Y004961D02*
X008518Y004961D01*
X013179Y004327D02*
X013431Y004327D01*
X013239Y004168D02*
X013633Y004168D01*
X019430Y003693D02*
X019430Y003693D01*
X019430Y003534D02*
X019430Y003534D01*
X019430Y003376D02*
X019430Y003376D01*
X002228Y006704D02*
X002132Y006704D01*
X002132Y006863D02*
X002228Y006863D01*
X002228Y007021D02*
X002132Y007021D01*
D24*
X007180Y007748D02*
X018305Y007748D01*
X021305Y007748D01*
X024470Y007748D01*
X026930Y010208D01*
X009430Y010208D02*
X007180Y007958D01*
X007180Y007748D01*
D25*
X007180Y007958D02*
X005345Y007958D01*
X005180Y007793D01*
X003805Y007793D01*
X002180Y007793D01*
X009497Y015141D02*
X009430Y015208D01*
X009497Y015141D02*
X012305Y015141D01*
X011931Y014275D02*
X011931Y012457D01*
X012055Y012333D01*
X021055Y012333D01*
X021305Y007748D02*
X021305Y005957D01*
X021305Y005209D02*
X019806Y005209D01*
X019430Y004833D01*
X018305Y005958D02*
X018305Y007748D01*
X011931Y014275D02*
X009872Y014275D01*
X009680Y014083D01*
X009430Y016458D02*
X009431Y016459D01*
X012305Y016459D01*
X014680Y026293D02*
X014720Y026333D01*
X016431Y026333D01*
X017179Y026333D02*
X019180Y026333D01*
X019305Y026458D01*
X022055Y026293D02*
X022345Y026583D01*
X024056Y026583D01*
X024804Y026583D02*
X026680Y026583D01*
X026805Y026708D01*
X026930Y016458D02*
X026180Y016458D01*
X025368Y015646D01*
X025305Y015583D01*
X026930Y015208D02*
X027805Y014333D01*
X007180Y026293D02*
X006765Y026708D01*
X005179Y026708D01*
X004431Y026708D02*
X002680Y026708D01*
D26*
X009680Y014083D03*
X018305Y005958D03*
X021055Y012333D03*
X025305Y015583D03*
X027805Y014333D03*
D27*
X026930Y017708D02*
X026930Y023958D01*
X009430Y023958D02*
X009430Y017708D01*
D28*
X005680Y017083D02*
X005430Y017333D01*
D29*
X005680Y017083D02*
X005680Y019333D01*
X007180Y020833D01*
X007180Y023708D01*
X007430Y023958D01*
X007180Y023833D01*
X007180Y026293D01*
X007430Y023958D02*
X009430Y023958D01*
X022055Y026293D02*
X023180Y025168D01*
X023180Y023958D01*
X023055Y023833D01*
X023180Y023708D01*
X023180Y017083D01*
X023180Y023958D02*
X026930Y023958D01*
M02*
