G75*
%MOIN*%
%OFA0B0*%
%FSLAX24Y24*%
%IPPOS*%
%LPD*%
%AMOC8*
5,1,8,0,0,1.08239X$1,22.5*
%
%ADD10C,0.1080*%
%ADD11OC8,0.1080*%
%ADD12R,0.0671X0.0592*%
%ADD13C,0.2380*%
%ADD14R,0.0907X0.0907*%
%ADD15C,0.1340*%
%ADD16R,0.0474X0.0631*%
%ADD17R,0.0710X0.0592*%
%ADD18OC8,0.0680*%
%ADD19C,0.0600*%
%ADD20R,0.0592X0.0710*%
%ADD21C,0.0980*%
%ADD22OC8,0.0740*%
%ADD23R,0.0476X0.0476*%
D10*
X007180Y023833D03*
X013055Y024083D03*
X023055Y023833D03*
D11*
X021055Y023833D03*
X015055Y024083D03*
X005180Y023833D03*
D12*
X005180Y007793D03*
X005180Y007123D03*
X003805Y007123D03*
X003805Y007793D03*
X002180Y007793D03*
X002180Y007123D03*
D13*
X002305Y004333D03*
X002180Y029583D03*
X027430Y029708D03*
X027430Y004458D03*
D14*
X022055Y026293D03*
X022055Y028458D03*
X014680Y028458D03*
X014680Y026293D03*
X007180Y026293D03*
X007180Y028458D03*
X007180Y007748D03*
X007180Y005583D03*
D15*
X008952Y003930D03*
X005408Y003930D03*
X005408Y030112D03*
X008952Y030112D03*
X012908Y030112D03*
X016452Y030112D03*
X020283Y030112D03*
X023827Y030112D03*
D16*
X012305Y015141D03*
X011931Y014275D03*
X012679Y014275D03*
D17*
X012305Y016459D03*
X012305Y017207D03*
X021305Y005957D03*
X021305Y005209D03*
D18*
X023180Y010083D03*
X023180Y017083D03*
X014680Y017083D03*
X014680Y010083D03*
X005680Y010083D03*
X005680Y017083D03*
D19*
X011805Y005093D02*
X011805Y004573D01*
X012805Y004093D02*
X012805Y003573D01*
X013805Y004573D02*
X013805Y005093D01*
D20*
X016431Y026333D03*
X017179Y026333D03*
X024056Y026583D03*
X024804Y026583D03*
X005179Y026708D03*
X004431Y026708D03*
D21*
X001930Y023958D03*
X009430Y023958D03*
X009430Y017708D03*
X009430Y016458D03*
X009430Y015208D03*
X009430Y010208D03*
X001930Y010208D03*
X019430Y010208D03*
X026930Y010208D03*
X026930Y015208D03*
X026930Y016458D03*
X026930Y017708D03*
X026930Y023958D03*
X019430Y023958D03*
D22*
X019305Y026458D03*
X019305Y027458D03*
X026805Y026708D03*
X027805Y026708D03*
X019430Y004833D03*
X019430Y003833D03*
X023680Y003583D03*
X023680Y004583D03*
X002680Y026708D03*
X001680Y026708D03*
D23*
X009680Y014083D03*
X018305Y005958D03*
X021055Y012333D03*
X025305Y015583D03*
X027805Y014333D03*
M02*
