G75*
%MOIN*%
%OFA0B0*%
%FSLAX24Y24*%
%IPPOS*%
%LPD*%
%AMOC8*
5,1,8,0,0,1.08239X$1,22.5*
%
%ADD10C,0.0000*%
D10*
X002583Y001150D02*
X002583Y030146D01*
X039953Y030146D01*
X039953Y001150D01*
X002583Y001150D01*
X003300Y013878D02*
X003302Y013928D01*
X003308Y013978D01*
X003318Y014027D01*
X003332Y014075D01*
X003349Y014122D01*
X003370Y014167D01*
X003395Y014211D01*
X003423Y014252D01*
X003455Y014291D01*
X003489Y014328D01*
X003526Y014362D01*
X003566Y014392D01*
X003608Y014419D01*
X003652Y014443D01*
X003698Y014464D01*
X003745Y014480D01*
X003793Y014493D01*
X003843Y014502D01*
X003892Y014507D01*
X003943Y014508D01*
X003993Y014505D01*
X004042Y014498D01*
X004091Y014487D01*
X004139Y014472D01*
X004185Y014454D01*
X004230Y014432D01*
X004273Y014406D01*
X004314Y014377D01*
X004353Y014345D01*
X004389Y014310D01*
X004421Y014272D01*
X004451Y014232D01*
X004478Y014189D01*
X004501Y014145D01*
X004520Y014099D01*
X004536Y014051D01*
X004548Y014002D01*
X004556Y013953D01*
X004560Y013903D01*
X004560Y013853D01*
X004556Y013803D01*
X004548Y013754D01*
X004536Y013705D01*
X004520Y013657D01*
X004501Y013611D01*
X004478Y013567D01*
X004451Y013524D01*
X004421Y013484D01*
X004389Y013446D01*
X004353Y013411D01*
X004314Y013379D01*
X004273Y013350D01*
X004230Y013324D01*
X004185Y013302D01*
X004139Y013284D01*
X004091Y013269D01*
X004042Y013258D01*
X003993Y013251D01*
X003943Y013248D01*
X003892Y013249D01*
X003843Y013254D01*
X003793Y013263D01*
X003745Y013276D01*
X003698Y013292D01*
X003652Y013313D01*
X003608Y013337D01*
X003566Y013364D01*
X003526Y013394D01*
X003489Y013428D01*
X003455Y013465D01*
X003423Y013504D01*
X003395Y013545D01*
X003370Y013589D01*
X003349Y013634D01*
X003332Y013681D01*
X003318Y013729D01*
X003308Y013778D01*
X003302Y013828D01*
X003300Y013878D01*
X003300Y017422D02*
X003302Y017472D01*
X003308Y017522D01*
X003318Y017571D01*
X003332Y017619D01*
X003349Y017666D01*
X003370Y017711D01*
X003395Y017755D01*
X003423Y017796D01*
X003455Y017835D01*
X003489Y017872D01*
X003526Y017906D01*
X003566Y017936D01*
X003608Y017963D01*
X003652Y017987D01*
X003698Y018008D01*
X003745Y018024D01*
X003793Y018037D01*
X003843Y018046D01*
X003892Y018051D01*
X003943Y018052D01*
X003993Y018049D01*
X004042Y018042D01*
X004091Y018031D01*
X004139Y018016D01*
X004185Y017998D01*
X004230Y017976D01*
X004273Y017950D01*
X004314Y017921D01*
X004353Y017889D01*
X004389Y017854D01*
X004421Y017816D01*
X004451Y017776D01*
X004478Y017733D01*
X004501Y017689D01*
X004520Y017643D01*
X004536Y017595D01*
X004548Y017546D01*
X004556Y017497D01*
X004560Y017447D01*
X004560Y017397D01*
X004556Y017347D01*
X004548Y017298D01*
X004536Y017249D01*
X004520Y017201D01*
X004501Y017155D01*
X004478Y017111D01*
X004451Y017068D01*
X004421Y017028D01*
X004389Y016990D01*
X004353Y016955D01*
X004314Y016923D01*
X004273Y016894D01*
X004230Y016868D01*
X004185Y016846D01*
X004139Y016828D01*
X004091Y016813D01*
X004042Y016802D01*
X003993Y016795D01*
X003943Y016792D01*
X003892Y016793D01*
X003843Y016798D01*
X003793Y016807D01*
X003745Y016820D01*
X003698Y016836D01*
X003652Y016857D01*
X003608Y016881D01*
X003566Y016908D01*
X003526Y016938D01*
X003489Y016972D01*
X003455Y017009D01*
X003423Y017048D01*
X003395Y017089D01*
X003370Y017133D01*
X003349Y017178D01*
X003332Y017225D01*
X003318Y017273D01*
X003308Y017322D01*
X003302Y017372D01*
X003300Y017422D01*
M02*
