G75*
%MOIN*%
%OFA0B0*%
%FSLAX24Y24*%
%IPPOS*%
%LPD*%
%AMOC8*
5,1,8,0,0,1.08239X$1,22.5*
%
%ADD10R,0.0827X0.0827*%
%ADD11R,0.0594X0.0594*%
%ADD12C,0.0594*%
%ADD13C,0.0100*%
%ADD14C,0.0160*%
%ADD15C,0.0400*%
%ADD16R,0.0650X0.0650*%
%ADD17R,0.0357X0.0357*%
D10*
X005583Y015650D03*
X007748Y015650D03*
D11*
X010083Y024900D03*
X010083Y005900D03*
D12*
X010083Y006900D03*
X011083Y006900D03*
X012083Y006900D03*
X012083Y005900D03*
X011083Y005900D03*
X013083Y005900D03*
X014083Y005900D03*
X014083Y006900D03*
X013083Y006900D03*
X015083Y006900D03*
X016083Y006900D03*
X017083Y006900D03*
X017083Y005900D03*
X016083Y005900D03*
X015083Y005900D03*
X018083Y005900D03*
X019083Y005900D03*
X019083Y006900D03*
X018083Y006900D03*
X020083Y006900D03*
X021083Y006900D03*
X021083Y005900D03*
X020083Y005900D03*
X022083Y005900D03*
X023083Y005900D03*
X023083Y006900D03*
X022083Y006900D03*
X024083Y006900D03*
X025083Y006900D03*
X025083Y005900D03*
X024083Y005900D03*
X026083Y005900D03*
X027083Y005900D03*
X028083Y005900D03*
X028083Y006900D03*
X027083Y006900D03*
X026083Y006900D03*
X029083Y006900D03*
X030083Y006900D03*
X030083Y005900D03*
X029083Y005900D03*
X031083Y005900D03*
X032083Y005900D03*
X032083Y006900D03*
X031083Y006900D03*
X031083Y024900D03*
X032083Y024900D03*
X032083Y025900D03*
X031083Y025900D03*
X030083Y025900D03*
X029083Y025900D03*
X028083Y025900D03*
X027083Y025900D03*
X026083Y025900D03*
X025083Y025900D03*
X024083Y025900D03*
X023083Y025900D03*
X022083Y025900D03*
X021083Y025900D03*
X020083Y025900D03*
X019083Y025900D03*
X018083Y025900D03*
X017083Y025900D03*
X016083Y025900D03*
X015083Y025900D03*
X014083Y025900D03*
X013083Y025900D03*
X012083Y025900D03*
X011083Y025900D03*
X010083Y025900D03*
X011083Y024900D03*
X012083Y024900D03*
X013083Y024900D03*
X014083Y024900D03*
X015083Y024900D03*
X016083Y024900D03*
X017083Y024900D03*
X018083Y024900D03*
X019083Y024900D03*
X020083Y024900D03*
X021083Y024900D03*
X022083Y024900D03*
X023083Y024900D03*
X024083Y024900D03*
X025083Y024900D03*
X026083Y024900D03*
X027083Y024900D03*
X028083Y024900D03*
X029083Y024900D03*
X030083Y024900D03*
D13*
X003033Y013271D02*
X003033Y001600D01*
X039503Y001600D01*
X039503Y029696D01*
X003033Y029696D01*
X003033Y018029D01*
X003065Y018085D01*
X003266Y018286D01*
X003513Y018428D01*
X003787Y018502D01*
X004072Y018502D01*
X004346Y018428D01*
X004593Y018286D01*
X004794Y018085D01*
X004936Y017838D01*
X005009Y017564D01*
X005009Y017279D01*
X004936Y017005D01*
X004794Y016759D01*
X004593Y016558D01*
X004346Y016415D01*
X004072Y016342D01*
X003787Y016342D01*
X003513Y016415D01*
X003266Y016558D01*
X003065Y016759D01*
X003033Y016815D01*
X003033Y014485D01*
X003065Y014541D01*
X003266Y014742D01*
X003513Y014885D01*
X003787Y014958D01*
X004072Y014958D01*
X004346Y014885D01*
X004593Y014742D01*
X004794Y014541D01*
X004936Y014295D01*
X005009Y014021D01*
X005009Y013736D01*
X004936Y013462D01*
X004794Y013215D01*
X004593Y013014D01*
X004346Y012872D01*
X004072Y012798D01*
X003787Y012798D01*
X003513Y012872D01*
X003266Y013014D01*
X003065Y013215D01*
X003033Y013271D01*
X003033Y013266D02*
X003036Y013266D01*
X003033Y013167D02*
X003114Y013167D01*
X003033Y013069D02*
X003212Y013069D01*
X003343Y012970D02*
X003033Y012970D01*
X003033Y012872D02*
X003515Y012872D01*
X003033Y012773D02*
X007398Y012773D01*
X007398Y012675D02*
X003033Y012675D01*
X003033Y012576D02*
X007398Y012576D01*
X007398Y012478D02*
X003033Y012478D01*
X003033Y012379D02*
X007398Y012379D01*
X007398Y012281D02*
X003033Y012281D01*
X003033Y012182D02*
X007398Y012182D01*
X007398Y012084D02*
X003033Y012084D01*
X003033Y011985D02*
X007398Y011985D01*
X007398Y011887D02*
X003033Y011887D01*
X003033Y011788D02*
X007398Y011788D01*
X007398Y011690D02*
X003033Y011690D01*
X003033Y011591D02*
X007398Y011591D01*
X007398Y011493D02*
X003033Y011493D01*
X003033Y011394D02*
X007398Y011394D01*
X007398Y011296D02*
X003033Y011296D01*
X003033Y011197D02*
X007398Y011197D01*
X007398Y011099D02*
X003033Y011099D01*
X003033Y011000D02*
X007398Y011000D01*
X007398Y010902D02*
X003033Y010902D01*
X003033Y010803D02*
X007398Y010803D01*
X007398Y010705D02*
X003033Y010705D01*
X003033Y010606D02*
X007398Y010606D01*
X007398Y010508D02*
X003033Y010508D01*
X003033Y010409D02*
X007398Y010409D01*
X007398Y010311D02*
X003033Y010311D01*
X003033Y010212D02*
X007398Y010212D01*
X007398Y010114D02*
X003033Y010114D01*
X003033Y010015D02*
X007398Y010015D01*
X007398Y009917D02*
X003033Y009917D01*
X003033Y009818D02*
X007398Y009818D01*
X007398Y009720D02*
X003033Y009720D01*
X003033Y009621D02*
X007398Y009621D01*
X007398Y009523D02*
X003033Y009523D01*
X003033Y009424D02*
X007398Y009424D01*
X007398Y009326D02*
X003033Y009326D01*
X003033Y009227D02*
X007398Y009227D01*
X007398Y009129D02*
X003033Y009129D01*
X003033Y009030D02*
X007398Y009030D01*
X007398Y008932D02*
X003033Y008932D01*
X003033Y008833D02*
X007398Y008833D01*
X007398Y008735D02*
X003033Y008735D01*
X003033Y008636D02*
X007398Y008636D01*
X007398Y008538D02*
X003033Y008538D01*
X003033Y008439D02*
X007398Y008439D01*
X007398Y008341D02*
X003033Y008341D01*
X003033Y008242D02*
X007398Y008242D01*
X007398Y008144D02*
X003033Y008144D01*
X003033Y008045D02*
X007398Y008045D01*
X007398Y007947D02*
X003033Y007947D01*
X003033Y007848D02*
X007398Y007848D01*
X007398Y007750D02*
X003033Y007750D01*
X003033Y007651D02*
X007398Y007651D01*
X007398Y007553D02*
X003033Y007553D01*
X003033Y007454D02*
X007398Y007454D01*
X007398Y007356D02*
X003033Y007356D01*
X003033Y007257D02*
X007398Y007257D01*
X007398Y007159D02*
X003033Y007159D01*
X003033Y007060D02*
X007398Y007060D01*
X007398Y006962D02*
X003033Y006962D01*
X003033Y006863D02*
X007398Y006863D01*
X007398Y006765D02*
X003033Y006765D01*
X003033Y006666D02*
X007398Y006666D01*
X007398Y006568D02*
X003033Y006568D01*
X003033Y006469D02*
X007398Y006469D01*
X007398Y006371D02*
X003033Y006371D01*
X003033Y006272D02*
X007398Y006272D01*
X007398Y006174D02*
X003033Y006174D01*
X003033Y006075D02*
X007398Y006075D01*
X007398Y005977D02*
X003033Y005977D01*
X003033Y005878D02*
X007398Y005878D01*
X007398Y005780D02*
X003033Y005780D01*
X003033Y005681D02*
X007398Y005681D01*
X007398Y005583D02*
X003033Y005583D01*
X003033Y005484D02*
X007398Y005484D01*
X007398Y005386D02*
X003033Y005386D01*
X003033Y005287D02*
X007398Y005287D01*
X007398Y005189D02*
X003033Y005189D01*
X003033Y005090D02*
X007398Y005090D01*
X007398Y004992D02*
X003033Y004992D01*
X003033Y004893D02*
X007398Y004893D01*
X007398Y004795D02*
X003033Y004795D01*
X003033Y004696D02*
X007437Y004696D01*
X007452Y004661D02*
X009036Y003077D01*
X009135Y002978D01*
X009263Y002925D01*
X014421Y002925D01*
X014421Y002888D01*
X014509Y002800D01*
X015283Y002800D01*
X015370Y002888D01*
X015370Y003662D01*
X015283Y003750D01*
X014509Y003750D01*
X014421Y003662D01*
X014421Y003625D01*
X009478Y003625D01*
X008098Y005005D01*
X008098Y015087D01*
X008224Y015087D01*
X008312Y015174D01*
X008312Y016126D01*
X008224Y016213D01*
X008098Y016213D01*
X008098Y019193D01*
X008331Y019425D01*
X009608Y019425D01*
X009608Y019388D01*
X009696Y019300D01*
X010470Y019300D01*
X010558Y019388D01*
X010558Y020162D01*
X010470Y020250D01*
X009696Y020250D01*
X009608Y020162D01*
X009608Y020125D01*
X008116Y020125D01*
X008098Y020118D01*
X008098Y023092D01*
X008644Y023638D01*
X010442Y023638D01*
X010442Y023159D01*
X010530Y023072D01*
X011011Y023072D01*
X011099Y023159D01*
X011099Y023638D01*
X013755Y023638D01*
X013755Y023597D01*
X013843Y023509D01*
X014324Y023509D01*
X014411Y023597D01*
X014411Y024078D01*
X014324Y024166D01*
X013843Y024166D01*
X013755Y024078D01*
X013755Y024037D01*
X008478Y024037D01*
X008098Y023658D01*
X008098Y025045D01*
X010478Y027425D01*
X010845Y027425D01*
X010933Y027513D01*
X010933Y028287D01*
X010845Y028375D01*
X010071Y028375D01*
X009983Y028287D01*
X009983Y027920D01*
X007550Y025487D01*
X007452Y025389D01*
X007398Y025260D01*
X007398Y016213D01*
X007273Y016213D01*
X007185Y016126D01*
X007185Y015174D01*
X007273Y015087D01*
X007398Y015087D01*
X007398Y004790D01*
X007452Y004661D01*
X007516Y004598D02*
X003033Y004598D01*
X003033Y004499D02*
X007614Y004499D01*
X007713Y004401D02*
X003033Y004401D01*
X003033Y004302D02*
X007811Y004302D01*
X007910Y004204D02*
X003033Y004204D01*
X003033Y004105D02*
X008008Y004105D01*
X008107Y004007D02*
X003033Y004007D01*
X003033Y003908D02*
X008205Y003908D01*
X008304Y003810D02*
X003033Y003810D01*
X003033Y003711D02*
X008402Y003711D01*
X008501Y003613D02*
X003033Y003613D01*
X003033Y003514D02*
X008599Y003514D01*
X008698Y003416D02*
X003033Y003416D01*
X003033Y003317D02*
X008796Y003317D01*
X008895Y003219D02*
X003033Y003219D01*
X003033Y003120D02*
X008993Y003120D01*
X009092Y003022D02*
X003033Y003022D01*
X003033Y002923D02*
X014421Y002923D01*
X014484Y002825D02*
X003033Y002825D01*
X003033Y002726D02*
X039503Y002726D01*
X039503Y002628D02*
X003033Y002628D01*
X003033Y002529D02*
X039503Y002529D01*
X039503Y002431D02*
X003033Y002431D01*
X003033Y002332D02*
X039503Y002332D01*
X039503Y002234D02*
X003033Y002234D01*
X003033Y002135D02*
X039503Y002135D01*
X039503Y002037D02*
X003033Y002037D01*
X003033Y001938D02*
X039503Y001938D01*
X039503Y001840D02*
X003033Y001840D01*
X003033Y001741D02*
X039503Y001741D01*
X039503Y001643D02*
X003033Y001643D01*
X008112Y004992D02*
X039503Y004992D01*
X039503Y005090D02*
X008098Y005090D01*
X008098Y005189D02*
X039503Y005189D01*
X039503Y005287D02*
X008098Y005287D01*
X008098Y005386D02*
X039503Y005386D01*
X039503Y005484D02*
X032249Y005484D01*
X032255Y005486D02*
X032317Y005518D01*
X032374Y005559D01*
X032424Y005609D01*
X032465Y005666D01*
X032497Y005728D01*
X032519Y005795D01*
X032528Y005852D01*
X032132Y005852D01*
X032132Y005948D01*
X032528Y005948D01*
X032519Y006005D01*
X032497Y006072D01*
X032465Y006134D01*
X032424Y006191D01*
X032374Y006241D01*
X032317Y006282D01*
X032255Y006314D01*
X032188Y006336D01*
X032131Y006345D01*
X032131Y005948D01*
X032035Y005948D01*
X032035Y005852D01*
X032131Y005852D01*
X032131Y005455D01*
X032188Y005464D01*
X032255Y005486D01*
X032131Y005484D02*
X032035Y005484D01*
X032035Y005455D02*
X032035Y005852D01*
X031638Y005852D01*
X031647Y005795D01*
X031669Y005728D01*
X031701Y005666D01*
X031742Y005609D01*
X031792Y005559D01*
X031849Y005518D01*
X031912Y005486D01*
X031978Y005464D01*
X032035Y005455D01*
X031917Y005484D02*
X031246Y005484D01*
X031172Y005453D02*
X031336Y005521D01*
X031462Y005647D01*
X031530Y005811D01*
X031530Y005989D01*
X031462Y006153D01*
X031336Y006279D01*
X031313Y006288D01*
X031313Y006512D01*
X031336Y006521D01*
X031462Y006647D01*
X031530Y006811D01*
X031530Y006989D01*
X031462Y007153D01*
X031336Y007279D01*
X031172Y007347D01*
X030994Y007347D01*
X030830Y007279D01*
X030704Y007153D01*
X030636Y006989D01*
X030636Y006811D01*
X030704Y006647D01*
X030830Y006521D01*
X030853Y006512D01*
X030853Y006288D01*
X030830Y006279D01*
X030704Y006153D01*
X030636Y005989D01*
X030636Y005811D01*
X030704Y005647D01*
X030830Y005521D01*
X030994Y005453D01*
X031172Y005453D01*
X030920Y005484D02*
X030246Y005484D01*
X030172Y005453D02*
X030336Y005521D01*
X030462Y005647D01*
X030530Y005811D01*
X030530Y005989D01*
X030462Y006153D01*
X030336Y006279D01*
X030313Y006288D01*
X030313Y006512D01*
X030336Y006521D01*
X030462Y006647D01*
X030530Y006811D01*
X030530Y006989D01*
X030462Y007153D01*
X030336Y007279D01*
X030172Y007347D01*
X029994Y007347D01*
X029830Y007279D01*
X029704Y007153D01*
X029636Y006989D01*
X029636Y006811D01*
X029704Y006647D01*
X029830Y006521D01*
X029853Y006512D01*
X029853Y006288D01*
X029830Y006279D01*
X029704Y006153D01*
X029636Y005989D01*
X029636Y005811D01*
X029704Y005647D01*
X029830Y005521D01*
X029994Y005453D01*
X030172Y005453D01*
X029920Y005484D02*
X029246Y005484D01*
X029172Y005453D02*
X029336Y005521D01*
X029462Y005647D01*
X029530Y005811D01*
X029530Y005989D01*
X029462Y006153D01*
X029336Y006279D01*
X029172Y006347D01*
X028994Y006347D01*
X028830Y006279D01*
X028704Y006153D01*
X028636Y005989D01*
X028636Y005811D01*
X028704Y005647D01*
X028830Y005521D01*
X028994Y005453D01*
X029172Y005453D01*
X028920Y005484D02*
X028246Y005484D01*
X028172Y005453D02*
X028336Y005521D01*
X028462Y005647D01*
X028530Y005811D01*
X028530Y005989D01*
X028462Y006153D01*
X028336Y006279D01*
X028172Y006347D01*
X027994Y006347D01*
X027830Y006279D01*
X027704Y006153D01*
X027636Y005989D01*
X027636Y005811D01*
X027704Y005647D01*
X027830Y005521D01*
X027994Y005453D01*
X028172Y005453D01*
X027920Y005484D02*
X027246Y005484D01*
X027172Y005453D02*
X027336Y005521D01*
X027462Y005647D01*
X027530Y005811D01*
X027530Y005989D01*
X027462Y006153D01*
X027336Y006279D01*
X027172Y006347D01*
X026994Y006347D01*
X026830Y006279D01*
X026704Y006153D01*
X026636Y005989D01*
X026636Y005811D01*
X026704Y005647D01*
X026830Y005521D01*
X026994Y005453D01*
X027172Y005453D01*
X026920Y005484D02*
X026246Y005484D01*
X026172Y005453D02*
X026336Y005521D01*
X026462Y005647D01*
X026530Y005811D01*
X026530Y005989D01*
X026462Y006153D01*
X026336Y006279D01*
X026172Y006347D01*
X025994Y006347D01*
X025830Y006279D01*
X025704Y006153D01*
X025636Y005989D01*
X025636Y005811D01*
X025704Y005647D01*
X025830Y005521D01*
X025994Y005453D01*
X026172Y005453D01*
X025920Y005484D02*
X025246Y005484D01*
X025172Y005453D02*
X025336Y005521D01*
X025462Y005647D01*
X025530Y005811D01*
X025530Y005989D01*
X025462Y006153D01*
X025336Y006279D01*
X025172Y006347D01*
X024994Y006347D01*
X024830Y006279D01*
X024704Y006153D01*
X024636Y005989D01*
X024636Y005811D01*
X024704Y005647D01*
X024830Y005521D01*
X024994Y005453D01*
X025172Y005453D01*
X024920Y005484D02*
X024246Y005484D01*
X024172Y005453D02*
X024336Y005521D01*
X024462Y005647D01*
X024530Y005811D01*
X024530Y005989D01*
X024462Y006153D01*
X024336Y006279D01*
X024172Y006347D01*
X023994Y006347D01*
X023830Y006279D01*
X023704Y006153D01*
X023636Y005989D01*
X023636Y005811D01*
X023704Y005647D01*
X023830Y005521D01*
X023994Y005453D01*
X024172Y005453D01*
X023920Y005484D02*
X023246Y005484D01*
X023172Y005453D02*
X023336Y005521D01*
X023462Y005647D01*
X023530Y005811D01*
X023530Y005989D01*
X023462Y006153D01*
X023336Y006279D01*
X023172Y006347D01*
X022994Y006347D01*
X022830Y006279D01*
X022704Y006153D01*
X022636Y005989D01*
X022636Y005811D01*
X022704Y005647D01*
X022830Y005521D01*
X022994Y005453D01*
X023172Y005453D01*
X022920Y005484D02*
X022246Y005484D01*
X022172Y005453D02*
X022336Y005521D01*
X022462Y005647D01*
X022530Y005811D01*
X022530Y005989D01*
X022462Y006153D01*
X022336Y006279D01*
X022172Y006347D01*
X021994Y006347D01*
X021830Y006279D01*
X021704Y006153D01*
X021636Y005989D01*
X021636Y005811D01*
X021704Y005647D01*
X021830Y005521D01*
X021994Y005453D01*
X022172Y005453D01*
X021920Y005484D02*
X021246Y005484D01*
X021172Y005453D02*
X021336Y005521D01*
X021462Y005647D01*
X021530Y005811D01*
X021530Y005989D01*
X021462Y006153D01*
X021336Y006279D01*
X021172Y006347D01*
X020994Y006347D01*
X020830Y006279D01*
X020704Y006153D01*
X020636Y005989D01*
X020636Y005811D01*
X020704Y005647D01*
X020830Y005521D01*
X020994Y005453D01*
X021172Y005453D01*
X020920Y005484D02*
X020246Y005484D01*
X020172Y005453D02*
X020336Y005521D01*
X020462Y005647D01*
X020530Y005811D01*
X020530Y005989D01*
X020462Y006153D01*
X020336Y006279D01*
X020172Y006347D01*
X019994Y006347D01*
X019830Y006279D01*
X019704Y006153D01*
X019636Y005989D01*
X019636Y005811D01*
X019704Y005647D01*
X019830Y005521D01*
X019994Y005453D01*
X020172Y005453D01*
X019920Y005484D02*
X019246Y005484D01*
X019172Y005453D02*
X019336Y005521D01*
X019462Y005647D01*
X019530Y005811D01*
X019530Y005989D01*
X019462Y006153D01*
X019336Y006279D01*
X019172Y006347D01*
X018994Y006347D01*
X018830Y006279D01*
X018704Y006153D01*
X018636Y005989D01*
X018636Y005811D01*
X018704Y005647D01*
X018830Y005521D01*
X018994Y005453D01*
X019172Y005453D01*
X018920Y005484D02*
X018246Y005484D01*
X018172Y005453D02*
X018336Y005521D01*
X018462Y005647D01*
X018530Y005811D01*
X018530Y005989D01*
X018462Y006153D01*
X018336Y006279D01*
X018172Y006347D01*
X017994Y006347D01*
X017830Y006279D01*
X017704Y006153D01*
X017636Y005989D01*
X017636Y005811D01*
X017704Y005647D01*
X017830Y005521D01*
X017994Y005453D01*
X018172Y005453D01*
X017920Y005484D02*
X017246Y005484D01*
X017172Y005453D02*
X017336Y005521D01*
X017462Y005647D01*
X017530Y005811D01*
X017530Y005989D01*
X017462Y006153D01*
X017336Y006279D01*
X017172Y006347D01*
X016994Y006347D01*
X016830Y006279D01*
X016704Y006153D01*
X016636Y005989D01*
X016636Y005811D01*
X016704Y005647D01*
X016830Y005521D01*
X016994Y005453D01*
X017172Y005453D01*
X016920Y005484D02*
X016246Y005484D01*
X016172Y005453D02*
X016336Y005521D01*
X016462Y005647D01*
X016530Y005811D01*
X016530Y005989D01*
X016462Y006153D01*
X016336Y006279D01*
X016172Y006347D01*
X015994Y006347D01*
X015830Y006279D01*
X015704Y006153D01*
X015636Y005989D01*
X015636Y005811D01*
X015704Y005647D01*
X015830Y005521D01*
X015994Y005453D01*
X016172Y005453D01*
X015920Y005484D02*
X015246Y005484D01*
X015172Y005453D02*
X015336Y005521D01*
X015462Y005647D01*
X015530Y005811D01*
X015530Y005989D01*
X015462Y006153D01*
X015336Y006279D01*
X015172Y006347D01*
X014994Y006347D01*
X014830Y006279D01*
X014704Y006153D01*
X014636Y005989D01*
X014636Y005811D01*
X014704Y005647D01*
X014830Y005521D01*
X014994Y005453D01*
X015172Y005453D01*
X014920Y005484D02*
X014246Y005484D01*
X014172Y005453D02*
X014336Y005521D01*
X014462Y005647D01*
X014530Y005811D01*
X014530Y005989D01*
X014462Y006153D01*
X014336Y006279D01*
X014172Y006347D01*
X013994Y006347D01*
X013830Y006279D01*
X013704Y006153D01*
X013636Y005989D01*
X013636Y005811D01*
X013704Y005647D01*
X013830Y005521D01*
X013994Y005453D01*
X014172Y005453D01*
X013920Y005484D02*
X013246Y005484D01*
X013172Y005453D02*
X013336Y005521D01*
X013462Y005647D01*
X013530Y005811D01*
X013530Y005989D01*
X013462Y006153D01*
X013336Y006279D01*
X013172Y006347D01*
X012994Y006347D01*
X012830Y006279D01*
X012704Y006153D01*
X012636Y005989D01*
X012636Y005811D01*
X012704Y005647D01*
X012830Y005521D01*
X012994Y005453D01*
X013172Y005453D01*
X012920Y005484D02*
X012246Y005484D01*
X012172Y005453D02*
X012336Y005521D01*
X012462Y005647D01*
X012530Y005811D01*
X012530Y005989D01*
X012462Y006153D01*
X012336Y006279D01*
X012172Y006347D01*
X011994Y006347D01*
X011830Y006279D01*
X011704Y006153D01*
X011636Y005989D01*
X011636Y005811D01*
X011704Y005647D01*
X011830Y005521D01*
X011994Y005453D01*
X012172Y005453D01*
X011920Y005484D02*
X011249Y005484D01*
X011255Y005486D02*
X011317Y005518D01*
X011374Y005559D01*
X011424Y005609D01*
X011465Y005666D01*
X011497Y005728D01*
X011519Y005795D01*
X011528Y005852D01*
X011132Y005852D01*
X011132Y005948D01*
X011528Y005948D01*
X011519Y006005D01*
X011497Y006072D01*
X011465Y006134D01*
X011424Y006191D01*
X011374Y006241D01*
X011317Y006282D01*
X011255Y006314D01*
X011188Y006336D01*
X011131Y006345D01*
X011131Y005948D01*
X011035Y005948D01*
X011035Y005852D01*
X011131Y005852D01*
X011131Y005455D01*
X011188Y005464D01*
X011255Y005486D01*
X011131Y005484D02*
X011035Y005484D01*
X011035Y005455D02*
X011035Y005852D01*
X010638Y005852D01*
X010647Y005795D01*
X010669Y005728D01*
X010701Y005666D01*
X010742Y005609D01*
X010792Y005559D01*
X010849Y005518D01*
X010912Y005486D01*
X010978Y005464D01*
X011035Y005455D01*
X010917Y005484D02*
X010473Y005484D01*
X010472Y005483D02*
X010500Y005511D01*
X010520Y005545D01*
X010530Y005583D01*
X010530Y005852D01*
X010132Y005852D01*
X010132Y005948D01*
X010530Y005948D01*
X010530Y006217D01*
X010520Y006255D01*
X010500Y006289D01*
X010472Y006317D01*
X010438Y006337D01*
X010400Y006347D01*
X010131Y006347D01*
X010131Y005948D01*
X010035Y005948D01*
X010035Y005852D01*
X010131Y005852D01*
X010131Y005453D01*
X010400Y005453D01*
X010438Y005463D01*
X010472Y005483D01*
X010530Y005583D02*
X010769Y005583D01*
X010693Y005681D02*
X010530Y005681D01*
X010530Y005780D02*
X010652Y005780D01*
X010638Y005948D02*
X011035Y005948D01*
X011035Y006345D01*
X010978Y006336D01*
X010912Y006314D01*
X010849Y006282D01*
X010792Y006241D01*
X010742Y006191D01*
X010701Y006134D01*
X010669Y006072D01*
X010647Y006005D01*
X010638Y005948D01*
X010643Y005977D02*
X010530Y005977D01*
X010530Y006075D02*
X010671Y006075D01*
X010729Y006174D02*
X010530Y006174D01*
X010510Y006272D02*
X010835Y006272D01*
X011035Y006272D02*
X011131Y006272D01*
X011131Y006174D02*
X011035Y006174D01*
X011035Y006075D02*
X011131Y006075D01*
X011131Y005977D02*
X011035Y005977D01*
X011035Y005878D02*
X010132Y005878D01*
X010035Y005878D02*
X008098Y005878D01*
X008098Y005780D02*
X009636Y005780D01*
X009636Y005852D02*
X009636Y005583D01*
X009646Y005545D01*
X009666Y005511D01*
X009694Y005483D01*
X009728Y005463D01*
X009766Y005453D01*
X010035Y005453D01*
X010035Y005852D01*
X009636Y005852D01*
X009636Y005948D02*
X010035Y005948D01*
X010035Y006347D01*
X009766Y006347D01*
X009728Y006337D01*
X009694Y006317D01*
X009666Y006289D01*
X009646Y006255D01*
X009636Y006217D01*
X009636Y005948D01*
X009636Y005977D02*
X008098Y005977D01*
X008098Y006075D02*
X009636Y006075D01*
X009636Y006174D02*
X008098Y006174D01*
X008098Y006272D02*
X009656Y006272D01*
X009849Y006518D02*
X009912Y006486D01*
X009978Y006464D01*
X010035Y006455D01*
X010035Y006852D01*
X010131Y006852D01*
X010131Y006455D01*
X010188Y006464D01*
X010255Y006486D01*
X010317Y006518D01*
X010374Y006559D01*
X010424Y006609D01*
X010465Y006666D01*
X010497Y006728D01*
X010519Y006795D01*
X010528Y006852D01*
X010132Y006852D01*
X010132Y006948D01*
X010528Y006948D01*
X010519Y007005D01*
X010497Y007072D01*
X010465Y007134D01*
X010424Y007191D01*
X010374Y007241D01*
X010317Y007282D01*
X010255Y007314D01*
X010188Y007336D01*
X010131Y007345D01*
X010131Y006948D01*
X010035Y006948D01*
X010035Y006852D01*
X009638Y006852D01*
X009647Y006795D01*
X009669Y006728D01*
X009701Y006666D01*
X008098Y006666D01*
X008098Y006568D02*
X009784Y006568D01*
X009792Y006559D02*
X009849Y006518D01*
X009792Y006559D02*
X009742Y006609D01*
X009701Y006666D01*
X009657Y006765D02*
X008098Y006765D01*
X008098Y006863D02*
X010035Y006863D01*
X010035Y006948D02*
X009638Y006948D01*
X009647Y007005D01*
X009669Y007072D01*
X009701Y007134D01*
X009742Y007191D01*
X009792Y007241D01*
X009849Y007282D01*
X009912Y007314D01*
X009978Y007336D01*
X010035Y007345D01*
X010035Y006948D01*
X010035Y006962D02*
X010131Y006962D01*
X010131Y007060D02*
X010035Y007060D01*
X010035Y007159D02*
X010131Y007159D01*
X010131Y007257D02*
X010035Y007257D01*
X009814Y007257D02*
X008098Y007257D01*
X008098Y007159D02*
X009719Y007159D01*
X009665Y007060D02*
X008098Y007060D01*
X008098Y006962D02*
X009640Y006962D01*
X010035Y006765D02*
X010131Y006765D01*
X010132Y006863D02*
X011035Y006863D01*
X011035Y006852D02*
X010638Y006852D01*
X010647Y006795D01*
X010669Y006728D01*
X010701Y006666D01*
X010465Y006666D01*
X010509Y006765D02*
X010657Y006765D01*
X010701Y006666D02*
X010742Y006609D01*
X010792Y006559D01*
X010849Y006518D01*
X010912Y006486D01*
X010978Y006464D01*
X011035Y006455D01*
X011035Y006852D01*
X011131Y006852D01*
X011131Y006455D01*
X011188Y006464D01*
X011255Y006486D01*
X011317Y006518D01*
X011374Y006559D01*
X011424Y006609D01*
X011465Y006666D01*
X011497Y006728D01*
X011519Y006795D01*
X011528Y006852D01*
X011132Y006852D01*
X011132Y006948D01*
X011528Y006948D01*
X011519Y007005D01*
X011497Y007072D01*
X011465Y007134D01*
X011424Y007191D01*
X011374Y007241D01*
X011317Y007282D01*
X011255Y007314D01*
X011188Y007336D01*
X011131Y007345D01*
X011131Y006948D01*
X011035Y006948D01*
X011035Y006852D01*
X011035Y006765D02*
X011131Y006765D01*
X011132Y006863D02*
X011636Y006863D01*
X011636Y006811D02*
X011636Y006989D01*
X011704Y007153D01*
X011830Y007279D01*
X011994Y007347D01*
X012172Y007347D01*
X012336Y007279D01*
X012462Y007153D01*
X012530Y006989D01*
X012530Y006811D01*
X012462Y006647D01*
X012336Y006521D01*
X012172Y006453D01*
X011994Y006453D01*
X011830Y006521D01*
X011704Y006647D01*
X011636Y006811D01*
X011656Y006765D02*
X011509Y006765D01*
X011465Y006666D02*
X011696Y006666D01*
X011784Y006568D02*
X011383Y006568D01*
X011203Y006469D02*
X011956Y006469D01*
X011823Y006272D02*
X011331Y006272D01*
X011437Y006174D02*
X011725Y006174D01*
X011672Y006075D02*
X011495Y006075D01*
X011523Y005977D02*
X011636Y005977D01*
X011636Y005878D02*
X011132Y005878D01*
X011131Y005780D02*
X011035Y005780D01*
X011035Y005681D02*
X011131Y005681D01*
X011131Y005583D02*
X011035Y005583D01*
X011398Y005583D02*
X011769Y005583D01*
X011690Y005681D02*
X011473Y005681D01*
X011514Y005780D02*
X011649Y005780D01*
X012398Y005583D02*
X012769Y005583D01*
X012690Y005681D02*
X012476Y005681D01*
X012517Y005780D02*
X012649Y005780D01*
X012636Y005878D02*
X012530Y005878D01*
X012530Y005977D02*
X012636Y005977D01*
X012672Y006075D02*
X012494Y006075D01*
X012441Y006174D02*
X012725Y006174D01*
X012823Y006272D02*
X012343Y006272D01*
X012210Y006469D02*
X012956Y006469D01*
X012994Y006453D02*
X013172Y006453D01*
X013336Y006521D01*
X013462Y006647D01*
X013530Y006811D01*
X013530Y006989D01*
X013462Y007153D01*
X013336Y007279D01*
X013172Y007347D01*
X012994Y007347D01*
X012830Y007279D01*
X012704Y007153D01*
X012636Y006989D01*
X012636Y006811D01*
X012704Y006647D01*
X012830Y006521D01*
X012994Y006453D01*
X013210Y006469D02*
X013956Y006469D01*
X013994Y006453D02*
X014172Y006453D01*
X014336Y006521D01*
X014462Y006647D01*
X014530Y006811D01*
X014530Y006989D01*
X014462Y007153D01*
X014336Y007279D01*
X014172Y007347D01*
X013994Y007347D01*
X013830Y007279D01*
X013704Y007153D01*
X013636Y006989D01*
X013636Y006811D01*
X013704Y006647D01*
X013830Y006521D01*
X013994Y006453D01*
X014210Y006469D02*
X014956Y006469D01*
X014994Y006453D02*
X015172Y006453D01*
X015336Y006521D01*
X015462Y006647D01*
X015530Y006811D01*
X015530Y006989D01*
X015462Y007153D01*
X015336Y007279D01*
X015172Y007347D01*
X014994Y007347D01*
X014830Y007279D01*
X014704Y007153D01*
X014636Y006989D01*
X014636Y006811D01*
X014704Y006647D01*
X014830Y006521D01*
X014994Y006453D01*
X015210Y006469D02*
X015956Y006469D01*
X015994Y006453D02*
X016172Y006453D01*
X016336Y006521D01*
X016462Y006647D01*
X016530Y006811D01*
X016530Y006989D01*
X016462Y007153D01*
X016336Y007279D01*
X016172Y007347D01*
X015994Y007347D01*
X015830Y007279D01*
X015704Y007153D01*
X015636Y006989D01*
X015636Y006811D01*
X015704Y006647D01*
X015830Y006521D01*
X015994Y006453D01*
X016210Y006469D02*
X016956Y006469D01*
X016994Y006453D02*
X017172Y006453D01*
X017336Y006521D01*
X017462Y006647D01*
X017530Y006811D01*
X017530Y006989D01*
X017462Y007153D01*
X017336Y007279D01*
X017172Y007347D01*
X016994Y007347D01*
X016830Y007279D01*
X016704Y007153D01*
X016636Y006989D01*
X016636Y006811D01*
X016704Y006647D01*
X016830Y006521D01*
X016994Y006453D01*
X017210Y006469D02*
X017956Y006469D01*
X017994Y006453D02*
X018172Y006453D01*
X018336Y006521D01*
X018462Y006647D01*
X018530Y006811D01*
X018530Y006989D01*
X018462Y007153D01*
X018336Y007279D01*
X018172Y007347D01*
X017994Y007347D01*
X017830Y007279D01*
X017704Y007153D01*
X017636Y006989D01*
X017636Y006811D01*
X017704Y006647D01*
X017830Y006521D01*
X017994Y006453D01*
X018210Y006469D02*
X018956Y006469D01*
X018994Y006453D02*
X019172Y006453D01*
X019336Y006521D01*
X019462Y006647D01*
X019530Y006811D01*
X019530Y006989D01*
X019462Y007153D01*
X019336Y007279D01*
X019172Y007347D01*
X018994Y007347D01*
X018830Y007279D01*
X018704Y007153D01*
X018636Y006989D01*
X018636Y006811D01*
X018704Y006647D01*
X018830Y006521D01*
X018994Y006453D01*
X019210Y006469D02*
X019956Y006469D01*
X019994Y006453D02*
X019830Y006521D01*
X019704Y006647D01*
X019636Y006811D01*
X019636Y006989D01*
X019704Y007153D01*
X019830Y007279D01*
X019994Y007347D01*
X020172Y007347D01*
X020336Y007279D01*
X020462Y007153D01*
X020530Y006989D01*
X020530Y006811D01*
X020462Y006647D01*
X020336Y006521D01*
X020172Y006453D01*
X019994Y006453D01*
X020210Y006469D02*
X020956Y006469D01*
X020994Y006453D02*
X021172Y006453D01*
X021336Y006521D01*
X021462Y006647D01*
X021530Y006811D01*
X021530Y006989D01*
X021462Y007153D01*
X021336Y007279D01*
X021172Y007347D01*
X020994Y007347D01*
X020830Y007279D01*
X020704Y007153D01*
X020636Y006989D01*
X020636Y006811D01*
X020704Y006647D01*
X020830Y006521D01*
X020994Y006453D01*
X021210Y006469D02*
X021956Y006469D01*
X021994Y006453D02*
X022172Y006453D01*
X022336Y006521D01*
X022462Y006647D01*
X022530Y006811D01*
X022530Y006989D01*
X022462Y007153D01*
X022336Y007279D01*
X022172Y007347D01*
X021994Y007347D01*
X021830Y007279D01*
X021704Y007153D01*
X021636Y006989D01*
X021636Y006811D01*
X021704Y006647D01*
X021830Y006521D01*
X021994Y006453D01*
X022210Y006469D02*
X022956Y006469D01*
X022994Y006453D02*
X023172Y006453D01*
X023336Y006521D01*
X023462Y006647D01*
X023530Y006811D01*
X023530Y006989D01*
X023462Y007153D01*
X023336Y007279D01*
X023172Y007347D01*
X022994Y007347D01*
X022830Y007279D01*
X022704Y007153D01*
X022636Y006989D01*
X022636Y006811D01*
X022704Y006647D01*
X022830Y006521D01*
X022994Y006453D01*
X023210Y006469D02*
X023956Y006469D01*
X023994Y006453D02*
X024172Y006453D01*
X024336Y006521D01*
X024462Y006647D01*
X024530Y006811D01*
X024530Y006989D01*
X024462Y007153D01*
X024336Y007279D01*
X024172Y007347D01*
X023994Y007347D01*
X023830Y007279D01*
X023704Y007153D01*
X023636Y006989D01*
X023636Y006811D01*
X023704Y006647D01*
X023830Y006521D01*
X023994Y006453D01*
X024210Y006469D02*
X024956Y006469D01*
X024994Y006453D02*
X025172Y006453D01*
X025336Y006521D01*
X025462Y006647D01*
X025530Y006811D01*
X025530Y006989D01*
X025462Y007153D01*
X025336Y007279D01*
X025172Y007347D01*
X024994Y007347D01*
X024830Y007279D01*
X024704Y007153D01*
X024636Y006989D01*
X024636Y006811D01*
X024704Y006647D01*
X024830Y006521D01*
X024994Y006453D01*
X025210Y006469D02*
X025956Y006469D01*
X025994Y006453D02*
X026172Y006453D01*
X026336Y006521D01*
X026462Y006647D01*
X026530Y006811D01*
X026530Y006989D01*
X026462Y007153D01*
X026336Y007279D01*
X026172Y007347D01*
X025994Y007347D01*
X025830Y007279D01*
X025704Y007153D01*
X025636Y006989D01*
X025636Y006811D01*
X025704Y006647D01*
X025830Y006521D01*
X025994Y006453D01*
X026210Y006469D02*
X026956Y006469D01*
X026994Y006453D02*
X027172Y006453D01*
X027336Y006521D01*
X027462Y006647D01*
X027530Y006811D01*
X027530Y006989D01*
X027462Y007153D01*
X027336Y007279D01*
X027172Y007347D01*
X026994Y007347D01*
X026830Y007279D01*
X026704Y007153D01*
X026636Y006989D01*
X026636Y006811D01*
X026704Y006647D01*
X026830Y006521D01*
X026994Y006453D01*
X027210Y006469D02*
X027956Y006469D01*
X027994Y006453D02*
X028172Y006453D01*
X028336Y006521D01*
X028462Y006647D01*
X028530Y006811D01*
X028530Y006989D01*
X028462Y007153D01*
X028336Y007279D01*
X028172Y007347D01*
X027994Y007347D01*
X027830Y007279D01*
X027704Y007153D01*
X027636Y006989D01*
X027636Y006811D01*
X027704Y006647D01*
X027830Y006521D01*
X027994Y006453D01*
X028210Y006469D02*
X028956Y006469D01*
X028994Y006453D02*
X029172Y006453D01*
X029336Y006521D01*
X029462Y006647D01*
X029530Y006811D01*
X029530Y006989D01*
X029462Y007153D01*
X029336Y007279D01*
X029172Y007347D01*
X028994Y007347D01*
X028830Y007279D01*
X028704Y007153D01*
X028636Y006989D01*
X028636Y006811D01*
X028704Y006647D01*
X028830Y006521D01*
X028994Y006453D01*
X029210Y006469D02*
X029853Y006469D01*
X029853Y006371D02*
X008098Y006371D01*
X008098Y006469D02*
X009963Y006469D01*
X010035Y006469D02*
X010131Y006469D01*
X010203Y006469D02*
X010963Y006469D01*
X011035Y006469D02*
X011131Y006469D01*
X011131Y006568D02*
X011035Y006568D01*
X011035Y006666D02*
X011131Y006666D01*
X011131Y006962D02*
X011035Y006962D01*
X011035Y006948D02*
X011035Y007345D01*
X010978Y007336D01*
X010912Y007314D01*
X010849Y007282D01*
X010792Y007241D01*
X010742Y007191D01*
X010701Y007134D01*
X010669Y007072D01*
X010647Y007005D01*
X010638Y006948D01*
X011035Y006948D01*
X011035Y007060D02*
X011131Y007060D01*
X011131Y007159D02*
X011035Y007159D01*
X011035Y007257D02*
X011131Y007257D01*
X011352Y007257D02*
X011808Y007257D01*
X011710Y007159D02*
X011448Y007159D01*
X011501Y007060D02*
X011666Y007060D01*
X011636Y006962D02*
X011526Y006962D01*
X010814Y007257D02*
X010352Y007257D01*
X010448Y007159D02*
X010719Y007159D01*
X010665Y007060D02*
X010501Y007060D01*
X010526Y006962D02*
X010640Y006962D01*
X010784Y006568D02*
X010383Y006568D01*
X010131Y006568D02*
X010035Y006568D01*
X010035Y006666D02*
X010131Y006666D01*
X010131Y006272D02*
X010035Y006272D01*
X010035Y006174D02*
X010131Y006174D01*
X010131Y006075D02*
X010035Y006075D01*
X010035Y005977D02*
X010131Y005977D01*
X010131Y005780D02*
X010035Y005780D01*
X010035Y005681D02*
X010131Y005681D01*
X010131Y005583D02*
X010035Y005583D01*
X010035Y005484D02*
X010131Y005484D01*
X009693Y005484D02*
X008098Y005484D01*
X008098Y005583D02*
X009636Y005583D01*
X009636Y005681D02*
X008098Y005681D01*
X008210Y004893D02*
X039503Y004893D01*
X039503Y004795D02*
X008309Y004795D01*
X008407Y004696D02*
X039503Y004696D01*
X039503Y004598D02*
X008506Y004598D01*
X008604Y004499D02*
X039503Y004499D01*
X039503Y004401D02*
X008703Y004401D01*
X008801Y004302D02*
X039503Y004302D01*
X039503Y004204D02*
X008900Y004204D01*
X008998Y004105D02*
X039503Y004105D01*
X039503Y004007D02*
X009097Y004007D01*
X009195Y003908D02*
X039503Y003908D01*
X039503Y003810D02*
X009294Y003810D01*
X009392Y003711D02*
X014470Y003711D01*
X015321Y003711D02*
X039503Y003711D01*
X039503Y003613D02*
X015370Y003613D01*
X015370Y003514D02*
X039503Y003514D01*
X039503Y003416D02*
X015370Y003416D01*
X015370Y003317D02*
X039503Y003317D01*
X039503Y003219D02*
X015370Y003219D01*
X015370Y003120D02*
X039503Y003120D01*
X039503Y003022D02*
X015370Y003022D01*
X015370Y002923D02*
X039503Y002923D01*
X039503Y002825D02*
X015307Y002825D01*
X015398Y005583D02*
X015769Y005583D01*
X015690Y005681D02*
X015476Y005681D01*
X015517Y005780D02*
X015649Y005780D01*
X015636Y005878D02*
X015530Y005878D01*
X015530Y005977D02*
X015636Y005977D01*
X015672Y006075D02*
X015494Y006075D01*
X015441Y006174D02*
X015725Y006174D01*
X015823Y006272D02*
X015343Y006272D01*
X015383Y006568D02*
X015784Y006568D01*
X015696Y006666D02*
X015470Y006666D01*
X015511Y006765D02*
X015656Y006765D01*
X015636Y006863D02*
X015530Y006863D01*
X015530Y006962D02*
X015636Y006962D01*
X015666Y007060D02*
X015500Y007060D01*
X015456Y007159D02*
X015710Y007159D01*
X015808Y007257D02*
X015358Y007257D01*
X014808Y007257D02*
X014358Y007257D01*
X014456Y007159D02*
X014710Y007159D01*
X014666Y007060D02*
X014500Y007060D01*
X014530Y006962D02*
X014636Y006962D01*
X014636Y006863D02*
X014530Y006863D01*
X014511Y006765D02*
X014656Y006765D01*
X014696Y006666D02*
X014470Y006666D01*
X014383Y006568D02*
X014784Y006568D01*
X014823Y006272D02*
X014343Y006272D01*
X014441Y006174D02*
X014725Y006174D01*
X014672Y006075D02*
X014494Y006075D01*
X014530Y005977D02*
X014636Y005977D01*
X014636Y005878D02*
X014530Y005878D01*
X014517Y005780D02*
X014649Y005780D01*
X014690Y005681D02*
X014476Y005681D01*
X014398Y005583D02*
X014769Y005583D01*
X013769Y005583D02*
X013398Y005583D01*
X013476Y005681D02*
X013690Y005681D01*
X013649Y005780D02*
X013517Y005780D01*
X013530Y005878D02*
X013636Y005878D01*
X013636Y005977D02*
X013530Y005977D01*
X013494Y006075D02*
X013672Y006075D01*
X013725Y006174D02*
X013441Y006174D01*
X013343Y006272D02*
X013823Y006272D01*
X013784Y006568D02*
X013383Y006568D01*
X013470Y006666D02*
X013696Y006666D01*
X013656Y006765D02*
X013511Y006765D01*
X013530Y006863D02*
X013636Y006863D01*
X013636Y006962D02*
X013530Y006962D01*
X013500Y007060D02*
X013666Y007060D01*
X013710Y007159D02*
X013456Y007159D01*
X013358Y007257D02*
X013808Y007257D01*
X012808Y007257D02*
X012358Y007257D01*
X012456Y007159D02*
X012710Y007159D01*
X012666Y007060D02*
X012500Y007060D01*
X012530Y006962D02*
X012636Y006962D01*
X012636Y006863D02*
X012530Y006863D01*
X012511Y006765D02*
X012656Y006765D01*
X012696Y006666D02*
X012470Y006666D01*
X012383Y006568D02*
X012784Y006568D01*
X016343Y006272D02*
X016823Y006272D01*
X016725Y006174D02*
X016441Y006174D01*
X016494Y006075D02*
X016672Y006075D01*
X016636Y005977D02*
X016530Y005977D01*
X016530Y005878D02*
X016636Y005878D01*
X016649Y005780D02*
X016517Y005780D01*
X016476Y005681D02*
X016690Y005681D01*
X016769Y005583D02*
X016398Y005583D01*
X017398Y005583D02*
X017769Y005583D01*
X017690Y005681D02*
X017476Y005681D01*
X017517Y005780D02*
X017649Y005780D01*
X017636Y005878D02*
X017530Y005878D01*
X017530Y005977D02*
X017636Y005977D01*
X017672Y006075D02*
X017494Y006075D01*
X017441Y006174D02*
X017725Y006174D01*
X017823Y006272D02*
X017343Y006272D01*
X017383Y006568D02*
X017784Y006568D01*
X017696Y006666D02*
X017470Y006666D01*
X017511Y006765D02*
X017656Y006765D01*
X017636Y006863D02*
X017530Y006863D01*
X017530Y006962D02*
X017636Y006962D01*
X017666Y007060D02*
X017500Y007060D01*
X017456Y007159D02*
X017710Y007159D01*
X017808Y007257D02*
X017358Y007257D01*
X016808Y007257D02*
X016358Y007257D01*
X016456Y007159D02*
X016710Y007159D01*
X016666Y007060D02*
X016500Y007060D01*
X016530Y006962D02*
X016636Y006962D01*
X016636Y006863D02*
X016530Y006863D01*
X016511Y006765D02*
X016656Y006765D01*
X016696Y006666D02*
X016470Y006666D01*
X016383Y006568D02*
X016784Y006568D01*
X018343Y006272D02*
X018823Y006272D01*
X018725Y006174D02*
X018441Y006174D01*
X018494Y006075D02*
X018672Y006075D01*
X018636Y005977D02*
X018530Y005977D01*
X018530Y005878D02*
X018636Y005878D01*
X018649Y005780D02*
X018517Y005780D01*
X018476Y005681D02*
X018690Y005681D01*
X018769Y005583D02*
X018398Y005583D01*
X019398Y005583D02*
X019769Y005583D01*
X019690Y005681D02*
X019476Y005681D01*
X019517Y005780D02*
X019649Y005780D01*
X019636Y005878D02*
X019530Y005878D01*
X019530Y005977D02*
X019636Y005977D01*
X019672Y006075D02*
X019494Y006075D01*
X019441Y006174D02*
X019725Y006174D01*
X019823Y006272D02*
X019343Y006272D01*
X019383Y006568D02*
X019784Y006568D01*
X019696Y006666D02*
X019470Y006666D01*
X019511Y006765D02*
X019656Y006765D01*
X019636Y006863D02*
X019530Y006863D01*
X019530Y006962D02*
X019636Y006962D01*
X019666Y007060D02*
X019500Y007060D01*
X019456Y007159D02*
X019710Y007159D01*
X019808Y007257D02*
X019358Y007257D01*
X018808Y007257D02*
X018358Y007257D01*
X018456Y007159D02*
X018710Y007159D01*
X018666Y007060D02*
X018500Y007060D01*
X018530Y006962D02*
X018636Y006962D01*
X018636Y006863D02*
X018530Y006863D01*
X018511Y006765D02*
X018656Y006765D01*
X018696Y006666D02*
X018470Y006666D01*
X018383Y006568D02*
X018784Y006568D01*
X020343Y006272D02*
X020823Y006272D01*
X020725Y006174D02*
X020441Y006174D01*
X020494Y006075D02*
X020672Y006075D01*
X020636Y005977D02*
X020530Y005977D01*
X020530Y005878D02*
X020636Y005878D01*
X020649Y005780D02*
X020517Y005780D01*
X020476Y005681D02*
X020690Y005681D01*
X020769Y005583D02*
X020398Y005583D01*
X021398Y005583D02*
X021769Y005583D01*
X021690Y005681D02*
X021476Y005681D01*
X021517Y005780D02*
X021649Y005780D01*
X021636Y005878D02*
X021530Y005878D01*
X021530Y005977D02*
X021636Y005977D01*
X021672Y006075D02*
X021494Y006075D01*
X021441Y006174D02*
X021725Y006174D01*
X021823Y006272D02*
X021343Y006272D01*
X021383Y006568D02*
X021784Y006568D01*
X021696Y006666D02*
X021470Y006666D01*
X021511Y006765D02*
X021656Y006765D01*
X021636Y006863D02*
X021530Y006863D01*
X021530Y006962D02*
X021636Y006962D01*
X021666Y007060D02*
X021500Y007060D01*
X021456Y007159D02*
X021710Y007159D01*
X021808Y007257D02*
X021358Y007257D01*
X020808Y007257D02*
X020358Y007257D01*
X020456Y007159D02*
X020710Y007159D01*
X020666Y007060D02*
X020500Y007060D01*
X020530Y006962D02*
X020636Y006962D01*
X020636Y006863D02*
X020530Y006863D01*
X020511Y006765D02*
X020656Y006765D01*
X020696Y006666D02*
X020470Y006666D01*
X020383Y006568D02*
X020784Y006568D01*
X022343Y006272D02*
X022823Y006272D01*
X022725Y006174D02*
X022441Y006174D01*
X022494Y006075D02*
X022672Y006075D01*
X022636Y005977D02*
X022530Y005977D01*
X022530Y005878D02*
X022636Y005878D01*
X022649Y005780D02*
X022517Y005780D01*
X022476Y005681D02*
X022690Y005681D01*
X022769Y005583D02*
X022398Y005583D01*
X022383Y006568D02*
X022784Y006568D01*
X022696Y006666D02*
X022470Y006666D01*
X022511Y006765D02*
X022656Y006765D01*
X022636Y006863D02*
X022530Y006863D01*
X022530Y006962D02*
X022636Y006962D01*
X022666Y007060D02*
X022500Y007060D01*
X022456Y007159D02*
X022710Y007159D01*
X022808Y007257D02*
X022358Y007257D01*
X023358Y007257D02*
X023808Y007257D01*
X023710Y007159D02*
X023456Y007159D01*
X023500Y007060D02*
X023666Y007060D01*
X023636Y006962D02*
X023530Y006962D01*
X023530Y006863D02*
X023636Y006863D01*
X023656Y006765D02*
X023511Y006765D01*
X023470Y006666D02*
X023696Y006666D01*
X023784Y006568D02*
X023383Y006568D01*
X023343Y006272D02*
X023823Y006272D01*
X023725Y006174D02*
X023441Y006174D01*
X023494Y006075D02*
X023672Y006075D01*
X023636Y005977D02*
X023530Y005977D01*
X023530Y005878D02*
X023636Y005878D01*
X023649Y005780D02*
X023517Y005780D01*
X023476Y005681D02*
X023690Y005681D01*
X023769Y005583D02*
X023398Y005583D01*
X024398Y005583D02*
X024769Y005583D01*
X024690Y005681D02*
X024476Y005681D01*
X024517Y005780D02*
X024649Y005780D01*
X024636Y005878D02*
X024530Y005878D01*
X024530Y005977D02*
X024636Y005977D01*
X024672Y006075D02*
X024494Y006075D01*
X024441Y006174D02*
X024725Y006174D01*
X024823Y006272D02*
X024343Y006272D01*
X024383Y006568D02*
X024784Y006568D01*
X024696Y006666D02*
X024470Y006666D01*
X024511Y006765D02*
X024656Y006765D01*
X024636Y006863D02*
X024530Y006863D01*
X024530Y006962D02*
X024636Y006962D01*
X024666Y007060D02*
X024500Y007060D01*
X024456Y007159D02*
X024710Y007159D01*
X024808Y007257D02*
X024358Y007257D01*
X025358Y007257D02*
X025808Y007257D01*
X025710Y007159D02*
X025456Y007159D01*
X025500Y007060D02*
X025666Y007060D01*
X025636Y006962D02*
X025530Y006962D01*
X025530Y006863D02*
X025636Y006863D01*
X025656Y006765D02*
X025511Y006765D01*
X025470Y006666D02*
X025696Y006666D01*
X025784Y006568D02*
X025383Y006568D01*
X025343Y006272D02*
X025823Y006272D01*
X025725Y006174D02*
X025441Y006174D01*
X025494Y006075D02*
X025672Y006075D01*
X025636Y005977D02*
X025530Y005977D01*
X025530Y005878D02*
X025636Y005878D01*
X025649Y005780D02*
X025517Y005780D01*
X025476Y005681D02*
X025690Y005681D01*
X025769Y005583D02*
X025398Y005583D01*
X026398Y005583D02*
X026769Y005583D01*
X026690Y005681D02*
X026476Y005681D01*
X026517Y005780D02*
X026649Y005780D01*
X026636Y005878D02*
X026530Y005878D01*
X026530Y005977D02*
X026636Y005977D01*
X026672Y006075D02*
X026494Y006075D01*
X026441Y006174D02*
X026725Y006174D01*
X026823Y006272D02*
X026343Y006272D01*
X026383Y006568D02*
X026784Y006568D01*
X026696Y006666D02*
X026470Y006666D01*
X026511Y006765D02*
X026656Y006765D01*
X026636Y006863D02*
X026530Y006863D01*
X026530Y006962D02*
X026636Y006962D01*
X026666Y007060D02*
X026500Y007060D01*
X026456Y007159D02*
X026710Y007159D01*
X026808Y007257D02*
X026358Y007257D01*
X027358Y007257D02*
X027808Y007257D01*
X027710Y007159D02*
X027456Y007159D01*
X027500Y007060D02*
X027666Y007060D01*
X027636Y006962D02*
X027530Y006962D01*
X027530Y006863D02*
X027636Y006863D01*
X027656Y006765D02*
X027511Y006765D01*
X027470Y006666D02*
X027696Y006666D01*
X027784Y006568D02*
X027383Y006568D01*
X027343Y006272D02*
X027823Y006272D01*
X027725Y006174D02*
X027441Y006174D01*
X027494Y006075D02*
X027672Y006075D01*
X027636Y005977D02*
X027530Y005977D01*
X027530Y005878D02*
X027636Y005878D01*
X027649Y005780D02*
X027517Y005780D01*
X027476Y005681D02*
X027690Y005681D01*
X027769Y005583D02*
X027398Y005583D01*
X028398Y005583D02*
X028769Y005583D01*
X028690Y005681D02*
X028476Y005681D01*
X028517Y005780D02*
X028649Y005780D01*
X028636Y005878D02*
X028530Y005878D01*
X028530Y005977D02*
X028636Y005977D01*
X028672Y006075D02*
X028494Y006075D01*
X028441Y006174D02*
X028725Y006174D01*
X028823Y006272D02*
X028343Y006272D01*
X028383Y006568D02*
X028784Y006568D01*
X028696Y006666D02*
X028470Y006666D01*
X028511Y006765D02*
X028656Y006765D01*
X028636Y006863D02*
X028530Y006863D01*
X028530Y006962D02*
X028636Y006962D01*
X028666Y007060D02*
X028500Y007060D01*
X028456Y007159D02*
X028710Y007159D01*
X028808Y007257D02*
X028358Y007257D01*
X029358Y007257D02*
X029808Y007257D01*
X029710Y007159D02*
X029456Y007159D01*
X029500Y007060D02*
X029666Y007060D01*
X029636Y006962D02*
X029530Y006962D01*
X029530Y006863D02*
X029636Y006863D01*
X029656Y006765D02*
X029511Y006765D01*
X029470Y006666D02*
X029696Y006666D01*
X029784Y006568D02*
X029383Y006568D01*
X029343Y006272D02*
X029823Y006272D01*
X029725Y006174D02*
X029441Y006174D01*
X029494Y006075D02*
X029672Y006075D01*
X029636Y005977D02*
X029530Y005977D01*
X029530Y005878D02*
X029636Y005878D01*
X029649Y005780D02*
X029517Y005780D01*
X029476Y005681D02*
X029690Y005681D01*
X029769Y005583D02*
X029398Y005583D01*
X030398Y005583D02*
X030769Y005583D01*
X030690Y005681D02*
X030476Y005681D01*
X030517Y005780D02*
X030649Y005780D01*
X030636Y005878D02*
X030530Y005878D01*
X030530Y005977D02*
X030636Y005977D01*
X030672Y006075D02*
X030494Y006075D01*
X030441Y006174D02*
X030725Y006174D01*
X030823Y006272D02*
X030343Y006272D01*
X030313Y006371D02*
X030853Y006371D01*
X030853Y006469D02*
X030313Y006469D01*
X030383Y006568D02*
X030784Y006568D01*
X030696Y006666D02*
X030470Y006666D01*
X030511Y006765D02*
X030656Y006765D01*
X030636Y006863D02*
X030530Y006863D01*
X030530Y006962D02*
X030636Y006962D01*
X030666Y007060D02*
X030500Y007060D01*
X030456Y007159D02*
X030710Y007159D01*
X030808Y007257D02*
X030358Y007257D01*
X031358Y007257D02*
X031814Y007257D01*
X031792Y007241D02*
X031742Y007191D01*
X031701Y007134D01*
X031669Y007072D01*
X031647Y007005D01*
X031638Y006948D01*
X032035Y006948D01*
X032035Y006852D01*
X032131Y006852D01*
X032131Y006455D01*
X032188Y006464D01*
X032255Y006486D01*
X032317Y006518D01*
X032374Y006559D01*
X032424Y006609D01*
X032465Y006666D01*
X032497Y006728D01*
X032519Y006795D01*
X032528Y006852D01*
X032132Y006852D01*
X032132Y006948D01*
X032528Y006948D01*
X032519Y007005D01*
X032497Y007072D01*
X032465Y007134D01*
X032424Y007191D01*
X032374Y007241D01*
X032317Y007282D01*
X032255Y007314D01*
X032188Y007336D01*
X032131Y007345D01*
X032131Y006948D01*
X032035Y006948D01*
X032035Y007345D01*
X031978Y007336D01*
X031912Y007314D01*
X031849Y007282D01*
X031792Y007241D01*
X031719Y007159D02*
X031456Y007159D01*
X031500Y007060D02*
X031665Y007060D01*
X031640Y006962D02*
X031530Y006962D01*
X031530Y006863D02*
X032035Y006863D01*
X032035Y006852D02*
X031638Y006852D01*
X031647Y006795D01*
X031669Y006728D01*
X031701Y006666D01*
X031470Y006666D01*
X031511Y006765D02*
X031657Y006765D01*
X031701Y006666D02*
X031742Y006609D01*
X031792Y006559D01*
X031849Y006518D01*
X031912Y006486D01*
X031978Y006464D01*
X032035Y006455D01*
X032035Y006852D01*
X032035Y006765D02*
X032131Y006765D01*
X032132Y006863D02*
X039503Y006863D01*
X039503Y006765D02*
X032509Y006765D01*
X032465Y006666D02*
X039503Y006666D01*
X039503Y006568D02*
X032383Y006568D01*
X032203Y006469D02*
X039503Y006469D01*
X039503Y006371D02*
X031313Y006371D01*
X031313Y006469D02*
X031963Y006469D01*
X032035Y006469D02*
X032131Y006469D01*
X032131Y006568D02*
X032035Y006568D01*
X032035Y006666D02*
X032131Y006666D01*
X032131Y006962D02*
X032035Y006962D01*
X032035Y007060D02*
X032131Y007060D01*
X032131Y007159D02*
X032035Y007159D01*
X032035Y007257D02*
X032131Y007257D01*
X032352Y007257D02*
X039503Y007257D01*
X039503Y007159D02*
X032448Y007159D01*
X032501Y007060D02*
X039503Y007060D01*
X039503Y006962D02*
X032526Y006962D01*
X031784Y006568D02*
X031383Y006568D01*
X031343Y006272D02*
X031835Y006272D01*
X031849Y006282D02*
X031792Y006241D01*
X031742Y006191D01*
X031701Y006134D01*
X031669Y006072D01*
X031647Y006005D01*
X031638Y005948D01*
X032035Y005948D01*
X032035Y006345D01*
X031978Y006336D01*
X031912Y006314D01*
X031849Y006282D01*
X031729Y006174D02*
X031441Y006174D01*
X031494Y006075D02*
X031671Y006075D01*
X031643Y005977D02*
X031530Y005977D01*
X031530Y005878D02*
X032035Y005878D01*
X032132Y005878D02*
X039503Y005878D01*
X039503Y005780D02*
X032514Y005780D01*
X032473Y005681D02*
X039503Y005681D01*
X039503Y005583D02*
X032398Y005583D01*
X032131Y005583D02*
X032035Y005583D01*
X032035Y005681D02*
X032131Y005681D01*
X032131Y005780D02*
X032035Y005780D01*
X032035Y005977D02*
X032131Y005977D01*
X032131Y006075D02*
X032035Y006075D01*
X032035Y006174D02*
X032131Y006174D01*
X032131Y006272D02*
X032035Y006272D01*
X032331Y006272D02*
X039503Y006272D01*
X039503Y006174D02*
X032437Y006174D01*
X032495Y006075D02*
X039503Y006075D01*
X039503Y005977D02*
X032523Y005977D01*
X031769Y005583D02*
X031398Y005583D01*
X031476Y005681D02*
X031693Y005681D01*
X031652Y005780D02*
X031517Y005780D01*
X030416Y008450D02*
X028438Y008450D01*
X028321Y008567D01*
X027133Y009755D01*
X027133Y009763D01*
X020286Y009763D01*
X020286Y009722D01*
X020199Y009634D01*
X019718Y009634D01*
X019630Y009722D01*
X019630Y010203D01*
X019718Y010291D01*
X020199Y010291D01*
X020286Y010203D01*
X020286Y010162D01*
X027416Y010162D01*
X027533Y010045D01*
X027533Y009920D01*
X028603Y008850D01*
X030250Y008850D01*
X030411Y009011D01*
X030411Y009297D01*
X030499Y009385D01*
X030508Y009385D01*
X030508Y020634D01*
X030468Y020634D01*
X030380Y020722D01*
X030380Y021008D01*
X028688Y022700D01*
X014165Y022700D01*
X014224Y022641D01*
X014224Y022159D01*
X014136Y022072D01*
X014096Y022072D01*
X014096Y013537D01*
X024875Y013537D01*
X027633Y016295D01*
X027633Y021072D01*
X027593Y021072D01*
X027505Y021159D01*
X027505Y021641D01*
X027593Y021728D01*
X028074Y021728D01*
X028161Y021641D01*
X028161Y021159D01*
X028074Y021072D01*
X028033Y021072D01*
X028033Y016130D01*
X027916Y016013D01*
X027916Y016013D01*
X025241Y013338D01*
X028850Y009728D01*
X029136Y009728D01*
X029224Y009641D01*
X029224Y009159D01*
X029136Y009072D01*
X028655Y009072D01*
X028567Y009159D01*
X028567Y009446D01*
X024875Y013138D01*
X018566Y013138D01*
X020162Y011541D01*
X020449Y011541D01*
X020536Y011453D01*
X020536Y010972D01*
X020449Y010884D01*
X019968Y010884D01*
X019880Y010972D01*
X019880Y011258D01*
X018000Y013138D01*
X013916Y013138D01*
X011536Y010758D01*
X011536Y010472D01*
X011449Y010384D01*
X010968Y010384D01*
X010880Y010472D01*
X010880Y010953D01*
X010968Y011041D01*
X011254Y011041D01*
X013633Y013420D01*
X013696Y013483D01*
X013696Y022072D01*
X013655Y022072D01*
X013567Y022159D01*
X013567Y022641D01*
X013627Y022700D01*
X011786Y022700D01*
X011786Y022659D01*
X011699Y022572D01*
X011218Y022572D01*
X011130Y022659D01*
X011130Y023141D01*
X011218Y023228D01*
X011699Y023228D01*
X011786Y023141D01*
X011786Y023100D01*
X028853Y023100D01*
X030662Y021291D01*
X030949Y021291D01*
X031036Y021203D01*
X031036Y020722D01*
X030949Y020634D01*
X030908Y020634D01*
X030908Y009385D01*
X030980Y009385D01*
X031068Y009297D01*
X031068Y008816D01*
X030980Y008728D01*
X030694Y008728D01*
X030416Y008450D01*
X030503Y008538D02*
X039503Y008538D01*
X039503Y008636D02*
X030602Y008636D01*
X030333Y008650D02*
X030739Y009056D01*
X030708Y009088D01*
X030708Y020963D01*
X028771Y022900D01*
X011458Y022900D01*
X011130Y022919D02*
X008098Y022919D01*
X008098Y023017D02*
X011130Y023017D01*
X011130Y023116D02*
X011055Y023116D01*
X011099Y023214D02*
X011203Y023214D01*
X011099Y023313D02*
X039503Y023313D01*
X039503Y023411D02*
X011099Y023411D01*
X011099Y023510D02*
X013842Y023510D01*
X013755Y023608D02*
X011099Y023608D01*
X010771Y023713D02*
X010771Y023400D01*
X010771Y023713D02*
X010646Y023838D01*
X008561Y023838D01*
X007748Y023025D01*
X007398Y023017D02*
X003033Y023017D01*
X003033Y022919D02*
X007398Y022919D01*
X007398Y022820D02*
X003033Y022820D01*
X003033Y022722D02*
X007398Y022722D01*
X007398Y022623D02*
X003033Y022623D01*
X003033Y022525D02*
X007398Y022525D01*
X007398Y022426D02*
X003033Y022426D01*
X003033Y022328D02*
X007398Y022328D01*
X007398Y022229D02*
X003033Y022229D01*
X003033Y022131D02*
X007398Y022131D01*
X007398Y022032D02*
X003033Y022032D01*
X003033Y021934D02*
X007398Y021934D01*
X007398Y021835D02*
X003033Y021835D01*
X003033Y021737D02*
X007398Y021737D01*
X007398Y021638D02*
X003033Y021638D01*
X003033Y021540D02*
X007398Y021540D01*
X007398Y021441D02*
X003033Y021441D01*
X003033Y021343D02*
X007398Y021343D01*
X007398Y021244D02*
X003033Y021244D01*
X003033Y021146D02*
X007398Y021146D01*
X007398Y021047D02*
X003033Y021047D01*
X003033Y020949D02*
X007398Y020949D01*
X007398Y020850D02*
X003033Y020850D01*
X003033Y020752D02*
X007398Y020752D01*
X007398Y020653D02*
X003033Y020653D01*
X003033Y020555D02*
X007398Y020555D01*
X007398Y020456D02*
X003033Y020456D01*
X003033Y020358D02*
X007398Y020358D01*
X007398Y020259D02*
X003033Y020259D01*
X003033Y020161D02*
X007398Y020161D01*
X007398Y020062D02*
X003033Y020062D01*
X003033Y019964D02*
X007398Y019964D01*
X007398Y019865D02*
X003033Y019865D01*
X003033Y019767D02*
X007398Y019767D01*
X007398Y019668D02*
X003033Y019668D01*
X003033Y019570D02*
X007398Y019570D01*
X007398Y019471D02*
X003033Y019471D01*
X003033Y019373D02*
X007398Y019373D01*
X007398Y019274D02*
X003033Y019274D01*
X003033Y019176D02*
X007398Y019176D01*
X007398Y019077D02*
X003033Y019077D01*
X003033Y018979D02*
X007398Y018979D01*
X007398Y018880D02*
X003033Y018880D01*
X003033Y018782D02*
X007398Y018782D01*
X007398Y018683D02*
X003033Y018683D01*
X003033Y018585D02*
X007398Y018585D01*
X007398Y018486D02*
X004130Y018486D01*
X004416Y018388D02*
X007398Y018388D01*
X007398Y018289D02*
X004587Y018289D01*
X004688Y018191D02*
X007398Y018191D01*
X007398Y018092D02*
X004786Y018092D01*
X004846Y017994D02*
X007398Y017994D01*
X007398Y017895D02*
X004903Y017895D01*
X004947Y017797D02*
X007398Y017797D01*
X007398Y017698D02*
X004973Y017698D01*
X005000Y017600D02*
X007398Y017600D01*
X007398Y017501D02*
X005009Y017501D01*
X005009Y017403D02*
X007398Y017403D01*
X007398Y017304D02*
X005009Y017304D01*
X004990Y017206D02*
X007398Y017206D01*
X007398Y017107D02*
X004963Y017107D01*
X004937Y017009D02*
X007398Y017009D01*
X007398Y016910D02*
X004881Y016910D01*
X004824Y016812D02*
X007398Y016812D01*
X007398Y016713D02*
X004748Y016713D01*
X004650Y016615D02*
X007398Y016615D01*
X007398Y016516D02*
X004521Y016516D01*
X004350Y016418D02*
X007398Y016418D01*
X007398Y016319D02*
X003033Y016319D01*
X003033Y016221D02*
X007398Y016221D01*
X007185Y016122D02*
X006136Y016122D01*
X006136Y016121D02*
X006116Y016155D01*
X006089Y016183D01*
X006054Y016203D01*
X006016Y016213D01*
X005633Y016213D01*
X005633Y015700D01*
X005533Y015700D01*
X005533Y015600D01*
X005020Y015600D01*
X005020Y015217D01*
X005030Y015179D01*
X005050Y015145D01*
X005078Y015117D01*
X005112Y015097D01*
X005150Y015087D01*
X005533Y015087D01*
X005533Y015600D01*
X005633Y015600D01*
X005633Y015087D01*
X006016Y015087D01*
X006054Y015097D01*
X006089Y015117D01*
X006116Y015145D01*
X006136Y015179D01*
X006146Y015217D01*
X006146Y015600D01*
X005633Y015600D01*
X005633Y015700D01*
X006146Y015700D01*
X006146Y016083D01*
X006136Y016121D01*
X006146Y016024D02*
X007185Y016024D01*
X007185Y015925D02*
X006146Y015925D01*
X006146Y015827D02*
X007185Y015827D01*
X007185Y015728D02*
X006146Y015728D01*
X006146Y015531D02*
X007185Y015531D01*
X007185Y015433D02*
X006146Y015433D01*
X006146Y015334D02*
X007185Y015334D01*
X007185Y015236D02*
X006146Y015236D01*
X006109Y015137D02*
X007222Y015137D01*
X007398Y015039D02*
X003033Y015039D01*
X003033Y015137D02*
X005057Y015137D01*
X005020Y015236D02*
X003033Y015236D01*
X003033Y015334D02*
X005020Y015334D01*
X005020Y015433D02*
X003033Y015433D01*
X003033Y015531D02*
X005020Y015531D01*
X005020Y015700D02*
X005533Y015700D01*
X005533Y016213D01*
X005150Y016213D01*
X005112Y016203D01*
X005078Y016183D01*
X005050Y016155D01*
X005030Y016121D01*
X005020Y016083D01*
X005020Y015700D01*
X005020Y015728D02*
X003033Y015728D01*
X003033Y015630D02*
X005533Y015630D01*
X005533Y015728D02*
X005633Y015728D01*
X005633Y015630D02*
X007185Y015630D01*
X007398Y014940D02*
X004140Y014940D01*
X004421Y014842D02*
X007398Y014842D01*
X007398Y014743D02*
X004592Y014743D01*
X004691Y014645D02*
X007398Y014645D01*
X007398Y014546D02*
X004789Y014546D01*
X004848Y014448D02*
X007398Y014448D01*
X007398Y014349D02*
X004905Y014349D01*
X004948Y014251D02*
X007398Y014251D01*
X007398Y014152D02*
X004974Y014152D01*
X005001Y014054D02*
X007398Y014054D01*
X007398Y013955D02*
X005009Y013955D01*
X005009Y013857D02*
X007398Y013857D01*
X007398Y013758D02*
X005009Y013758D01*
X004989Y013660D02*
X007398Y013660D01*
X007398Y013561D02*
X004963Y013561D01*
X004936Y013463D02*
X007398Y013463D01*
X007398Y013364D02*
X004880Y013364D01*
X004823Y013266D02*
X007398Y013266D01*
X007398Y013167D02*
X004745Y013167D01*
X004647Y013069D02*
X007398Y013069D01*
X007398Y012970D02*
X004516Y012970D01*
X004345Y012872D02*
X007398Y012872D01*
X008098Y012872D02*
X013084Y012872D01*
X013183Y012970D02*
X008098Y012970D01*
X008098Y013069D02*
X013281Y013069D01*
X013380Y013167D02*
X008098Y013167D01*
X008098Y013266D02*
X013478Y013266D01*
X013577Y013364D02*
X008098Y013364D01*
X008098Y013463D02*
X013675Y013463D01*
X013696Y013561D02*
X008098Y013561D01*
X008098Y013660D02*
X013696Y013660D01*
X013696Y013758D02*
X008098Y013758D01*
X008098Y013857D02*
X013696Y013857D01*
X013696Y013955D02*
X008098Y013955D01*
X008098Y014054D02*
X013696Y014054D01*
X013696Y014152D02*
X008098Y014152D01*
X008098Y014251D02*
X013696Y014251D01*
X013696Y014349D02*
X008098Y014349D01*
X008098Y014448D02*
X013696Y014448D01*
X013696Y014546D02*
X008098Y014546D01*
X008098Y014645D02*
X013696Y014645D01*
X013696Y014743D02*
X008098Y014743D01*
X008098Y014842D02*
X013696Y014842D01*
X013696Y014940D02*
X008098Y014940D01*
X008098Y015039D02*
X013696Y015039D01*
X013696Y015137D02*
X008274Y015137D01*
X008312Y015236D02*
X013696Y015236D01*
X013696Y015334D02*
X008312Y015334D01*
X008312Y015433D02*
X013696Y015433D01*
X013696Y015531D02*
X008312Y015531D01*
X008312Y015630D02*
X013696Y015630D01*
X013696Y015728D02*
X008312Y015728D01*
X008312Y015827D02*
X013696Y015827D01*
X013696Y015925D02*
X008312Y015925D01*
X008312Y016024D02*
X013696Y016024D01*
X013696Y016122D02*
X008312Y016122D01*
X008098Y016221D02*
X013696Y016221D01*
X013696Y016319D02*
X008098Y016319D01*
X008098Y016418D02*
X013696Y016418D01*
X013696Y016516D02*
X008098Y016516D01*
X008098Y016615D02*
X013696Y016615D01*
X013696Y016713D02*
X008098Y016713D01*
X008098Y016812D02*
X013696Y016812D01*
X013696Y016910D02*
X008098Y016910D01*
X008098Y017009D02*
X013696Y017009D01*
X013696Y017107D02*
X008098Y017107D01*
X008098Y017206D02*
X013696Y017206D01*
X013696Y017304D02*
X008098Y017304D01*
X008098Y017403D02*
X013696Y017403D01*
X013696Y017501D02*
X008098Y017501D01*
X008098Y017600D02*
X013696Y017600D01*
X013696Y017698D02*
X008098Y017698D01*
X008098Y017797D02*
X013696Y017797D01*
X013696Y017895D02*
X008098Y017895D01*
X008098Y017994D02*
X013696Y017994D01*
X013696Y018092D02*
X008098Y018092D01*
X008098Y018191D02*
X013696Y018191D01*
X013696Y018289D02*
X008098Y018289D01*
X008098Y018388D02*
X013696Y018388D01*
X013696Y018486D02*
X008098Y018486D01*
X008098Y018585D02*
X013696Y018585D01*
X013696Y018683D02*
X008098Y018683D01*
X008098Y018782D02*
X013696Y018782D01*
X013696Y018880D02*
X008098Y018880D01*
X008098Y018979D02*
X013696Y018979D01*
X013696Y019077D02*
X008098Y019077D01*
X008098Y019176D02*
X013696Y019176D01*
X013696Y019274D02*
X008180Y019274D01*
X008278Y019373D02*
X009624Y019373D01*
X010542Y019373D02*
X013696Y019373D01*
X013696Y019471D02*
X010558Y019471D01*
X010558Y019570D02*
X013696Y019570D01*
X013696Y019668D02*
X010558Y019668D01*
X010558Y019767D02*
X013696Y019767D01*
X013696Y019865D02*
X010558Y019865D01*
X010558Y019964D02*
X013696Y019964D01*
X013696Y020062D02*
X010558Y020062D01*
X010558Y020161D02*
X013696Y020161D01*
X013696Y020259D02*
X008098Y020259D01*
X008098Y020161D02*
X009608Y020161D01*
X008098Y020358D02*
X013696Y020358D01*
X013696Y020456D02*
X008098Y020456D01*
X008098Y020555D02*
X013696Y020555D01*
X013696Y020653D02*
X008098Y020653D01*
X008098Y020752D02*
X013696Y020752D01*
X013696Y020850D02*
X008098Y020850D01*
X008098Y020949D02*
X013696Y020949D01*
X013696Y021047D02*
X008098Y021047D01*
X008098Y021146D02*
X013696Y021146D01*
X013696Y021244D02*
X008098Y021244D01*
X008098Y021343D02*
X013696Y021343D01*
X013696Y021441D02*
X008098Y021441D01*
X008098Y021540D02*
X013696Y021540D01*
X013696Y021638D02*
X008098Y021638D01*
X008098Y021737D02*
X013696Y021737D01*
X013696Y021835D02*
X008098Y021835D01*
X008098Y021934D02*
X013696Y021934D01*
X013696Y022032D02*
X008098Y022032D01*
X008098Y022131D02*
X013596Y022131D01*
X013567Y022229D02*
X008098Y022229D01*
X008098Y022328D02*
X013567Y022328D01*
X013567Y022426D02*
X008098Y022426D01*
X008098Y022525D02*
X013567Y022525D01*
X013567Y022623D02*
X011750Y022623D01*
X011166Y022623D02*
X008098Y022623D01*
X008098Y022722D02*
X011130Y022722D01*
X011130Y022820D02*
X008098Y022820D01*
X008122Y023116D02*
X010486Y023116D01*
X010442Y023214D02*
X008220Y023214D01*
X008319Y023313D02*
X010442Y023313D01*
X010442Y023411D02*
X008417Y023411D01*
X008516Y023510D02*
X010442Y023510D01*
X010442Y023608D02*
X008614Y023608D01*
X008344Y023904D02*
X008098Y023904D01*
X008098Y024002D02*
X008443Y024002D01*
X008246Y023805D02*
X008098Y023805D01*
X008098Y023707D02*
X008147Y023707D01*
X008098Y024101D02*
X013777Y024101D01*
X014083Y023838D02*
X010646Y023838D01*
X010442Y024453D02*
X010530Y024541D01*
X010530Y025259D01*
X010442Y025347D01*
X009724Y025347D01*
X009636Y025259D01*
X009636Y024541D01*
X009724Y024453D01*
X010442Y024453D01*
X010483Y024495D02*
X010894Y024495D01*
X010830Y024521D02*
X010994Y024453D01*
X011172Y024453D01*
X011336Y024521D01*
X011462Y024647D01*
X011530Y024811D01*
X011530Y024989D01*
X011462Y025153D01*
X011336Y025279D01*
X011172Y025347D01*
X010994Y025347D01*
X010830Y025279D01*
X010704Y025153D01*
X010636Y024989D01*
X010636Y024811D01*
X010704Y024647D01*
X010830Y024521D01*
X010758Y024593D02*
X010530Y024593D01*
X010530Y024692D02*
X010686Y024692D01*
X010645Y024790D02*
X010530Y024790D01*
X010530Y024889D02*
X010636Y024889D01*
X010636Y024987D02*
X010530Y024987D01*
X010530Y025086D02*
X010676Y025086D01*
X010735Y025184D02*
X010530Y025184D01*
X010506Y025283D02*
X010839Y025283D01*
X010930Y025480D02*
X010236Y025480D01*
X010172Y025453D02*
X010336Y025521D01*
X010462Y025647D01*
X010530Y025811D01*
X010530Y025989D01*
X010462Y026153D01*
X010336Y026279D01*
X010172Y026347D01*
X009994Y026347D01*
X009830Y026279D01*
X009704Y026153D01*
X009636Y025989D01*
X009636Y025811D01*
X009704Y025647D01*
X009830Y025521D01*
X009994Y025453D01*
X010172Y025453D01*
X009930Y025480D02*
X008533Y025480D01*
X008631Y025578D02*
X009773Y025578D01*
X009692Y025677D02*
X008730Y025677D01*
X008828Y025775D02*
X009651Y025775D01*
X009636Y025874D02*
X008927Y025874D01*
X009025Y025972D02*
X009636Y025972D01*
X009670Y026071D02*
X009124Y026071D01*
X009222Y026169D02*
X009720Y026169D01*
X009819Y026268D02*
X009321Y026268D01*
X009419Y026366D02*
X039503Y026366D01*
X039503Y026268D02*
X032337Y026268D01*
X032317Y026282D02*
X032255Y026314D01*
X032188Y026336D01*
X032131Y026345D01*
X032131Y025948D01*
X032132Y025948D02*
X032528Y025948D01*
X032519Y026005D01*
X032497Y026072D01*
X032465Y026134D01*
X032424Y026191D01*
X032374Y026241D01*
X032317Y026282D01*
X032440Y026169D02*
X039503Y026169D01*
X039503Y026071D02*
X032497Y026071D01*
X032524Y025972D02*
X039503Y025972D01*
X039503Y025874D02*
X032132Y025874D01*
X032132Y025852D02*
X032132Y025948D01*
X032131Y025948D02*
X032035Y025948D01*
X032035Y025852D01*
X032131Y025852D01*
X032131Y025455D01*
X032188Y025464D01*
X032255Y025486D01*
X032317Y025518D01*
X032374Y025559D01*
X032424Y025609D01*
X032465Y025666D01*
X032497Y025728D01*
X032519Y025795D01*
X032528Y025852D01*
X032132Y025852D01*
X032131Y025775D02*
X032035Y025775D01*
X032035Y025852D02*
X032035Y025455D01*
X031978Y025464D01*
X031912Y025486D01*
X031849Y025518D01*
X031792Y025559D01*
X031742Y025609D01*
X031701Y025666D01*
X031669Y025728D01*
X031647Y025795D01*
X031638Y025852D01*
X032035Y025852D01*
X032035Y025874D02*
X031530Y025874D01*
X031530Y025811D02*
X031462Y025647D01*
X031336Y025521D01*
X031172Y025453D01*
X030994Y025453D01*
X030830Y025521D01*
X030704Y025647D01*
X030636Y025811D01*
X030636Y025989D01*
X030704Y026153D01*
X030830Y026279D01*
X030994Y026347D01*
X031172Y026347D01*
X031336Y026279D01*
X031462Y026153D01*
X031530Y025989D01*
X031530Y025811D01*
X031515Y025775D02*
X031654Y025775D01*
X031695Y025677D02*
X031474Y025677D01*
X031393Y025578D02*
X031773Y025578D01*
X031931Y025480D02*
X031236Y025480D01*
X031172Y025347D02*
X030994Y025347D01*
X030830Y025279D01*
X030704Y025153D01*
X030636Y024989D01*
X030636Y024811D01*
X030704Y024647D01*
X030830Y024521D01*
X030994Y024453D01*
X031172Y024453D01*
X031336Y024521D01*
X031462Y024647D01*
X031530Y024811D01*
X031530Y024989D01*
X031462Y025153D01*
X031336Y025279D01*
X031172Y025347D01*
X031327Y025283D02*
X031850Y025283D01*
X031849Y025282D02*
X031792Y025241D01*
X031742Y025191D01*
X031701Y025134D01*
X031669Y025072D01*
X031647Y025005D01*
X031638Y024948D01*
X032035Y024948D01*
X032035Y024852D01*
X032131Y024852D01*
X032131Y024455D01*
X032188Y024464D01*
X032255Y024486D01*
X032317Y024518D01*
X032374Y024559D01*
X032424Y024609D01*
X032465Y024666D01*
X032497Y024728D01*
X032519Y024795D01*
X032528Y024852D01*
X032132Y024852D01*
X032132Y024948D01*
X032528Y024948D01*
X032519Y025005D01*
X032497Y025072D01*
X032465Y025134D01*
X032424Y025191D01*
X032374Y025241D01*
X032317Y025282D01*
X032255Y025314D01*
X032188Y025336D01*
X032131Y025345D01*
X032131Y024948D01*
X032035Y024948D01*
X032035Y025345D01*
X031978Y025336D01*
X031912Y025314D01*
X031849Y025282D01*
X031737Y025184D02*
X031431Y025184D01*
X031490Y025086D02*
X031676Y025086D01*
X031644Y024987D02*
X031530Y024987D01*
X031530Y024889D02*
X032035Y024889D01*
X032035Y024852D02*
X031638Y024852D01*
X031647Y024795D01*
X031669Y024728D01*
X031701Y024666D01*
X031742Y024609D01*
X031792Y024559D01*
X031849Y024518D01*
X031912Y024486D01*
X031978Y024464D01*
X032035Y024455D01*
X032035Y024852D01*
X032035Y024790D02*
X032131Y024790D01*
X032131Y024692D02*
X032035Y024692D01*
X032035Y024593D02*
X032131Y024593D01*
X032131Y024495D02*
X032035Y024495D01*
X031895Y024495D02*
X031272Y024495D01*
X031408Y024593D02*
X031758Y024593D01*
X031688Y024692D02*
X031480Y024692D01*
X031521Y024790D02*
X031649Y024790D01*
X032035Y024987D02*
X032131Y024987D01*
X032132Y024889D02*
X039503Y024889D01*
X039503Y024987D02*
X032522Y024987D01*
X032490Y025086D02*
X039503Y025086D01*
X039503Y025184D02*
X032429Y025184D01*
X032317Y025283D02*
X039503Y025283D01*
X039503Y025381D02*
X008434Y025381D01*
X008336Y025283D02*
X009660Y025283D01*
X009636Y025184D02*
X008237Y025184D01*
X008139Y025086D02*
X009636Y025086D01*
X009636Y024987D02*
X008098Y024987D01*
X008098Y024889D02*
X009636Y024889D01*
X009636Y024790D02*
X008098Y024790D01*
X008098Y024692D02*
X009636Y024692D01*
X009636Y024593D02*
X008098Y024593D01*
X008098Y024495D02*
X009683Y024495D01*
X010393Y025578D02*
X010773Y025578D01*
X010830Y025521D02*
X010994Y025453D01*
X011172Y025453D01*
X011336Y025521D01*
X011462Y025647D01*
X011530Y025811D01*
X011530Y025989D01*
X011462Y026153D01*
X011336Y026279D01*
X011172Y026347D01*
X010994Y026347D01*
X010830Y026279D01*
X010704Y026153D01*
X010636Y025989D01*
X010636Y025811D01*
X010704Y025647D01*
X010830Y025521D01*
X010692Y025677D02*
X010474Y025677D01*
X010515Y025775D02*
X010651Y025775D01*
X010636Y025874D02*
X010530Y025874D01*
X010530Y025972D02*
X010636Y025972D01*
X010670Y026071D02*
X010496Y026071D01*
X010446Y026169D02*
X010720Y026169D01*
X010819Y026268D02*
X010347Y026268D01*
X009813Y026760D02*
X039503Y026760D01*
X039503Y026662D02*
X009715Y026662D01*
X009616Y026563D02*
X039503Y026563D01*
X039503Y026465D02*
X009518Y026465D01*
X009912Y026859D02*
X039503Y026859D01*
X039503Y026957D02*
X010010Y026957D01*
X010109Y027056D02*
X039503Y027056D01*
X039503Y027154D02*
X010207Y027154D01*
X010306Y027253D02*
X039503Y027253D01*
X039503Y027351D02*
X010404Y027351D01*
X010869Y027450D02*
X039503Y027450D01*
X039503Y027548D02*
X010933Y027548D01*
X010933Y027647D02*
X039503Y027647D01*
X039503Y027745D02*
X010933Y027745D01*
X010933Y027844D02*
X039503Y027844D01*
X039503Y027942D02*
X010933Y027942D01*
X010933Y028041D02*
X039503Y028041D01*
X039503Y028139D02*
X010933Y028139D01*
X010933Y028238D02*
X039503Y028238D01*
X039503Y028336D02*
X010884Y028336D01*
X010032Y028336D02*
X003033Y028336D01*
X003033Y028238D02*
X009983Y028238D01*
X009983Y028139D02*
X003033Y028139D01*
X003033Y028041D02*
X009983Y028041D01*
X009983Y027942D02*
X003033Y027942D01*
X003033Y027844D02*
X009907Y027844D01*
X009808Y027745D02*
X003033Y027745D01*
X003033Y027647D02*
X009710Y027647D01*
X009611Y027548D02*
X003033Y027548D01*
X003033Y027450D02*
X009513Y027450D01*
X009414Y027351D02*
X003033Y027351D01*
X003033Y027253D02*
X009316Y027253D01*
X009217Y027154D02*
X003033Y027154D01*
X003033Y027056D02*
X009119Y027056D01*
X009020Y026957D02*
X003033Y026957D01*
X003033Y026859D02*
X008922Y026859D01*
X008823Y026760D02*
X003033Y026760D01*
X003033Y026662D02*
X008725Y026662D01*
X008626Y026563D02*
X003033Y026563D01*
X003033Y026465D02*
X008528Y026465D01*
X008429Y026366D02*
X003033Y026366D01*
X003033Y026268D02*
X008331Y026268D01*
X008232Y026169D02*
X003033Y026169D01*
X003033Y026071D02*
X008134Y026071D01*
X008035Y025972D02*
X003033Y025972D01*
X003033Y025874D02*
X007937Y025874D01*
X007838Y025775D02*
X003033Y025775D01*
X003033Y025677D02*
X007740Y025677D01*
X007641Y025578D02*
X003033Y025578D01*
X003033Y025480D02*
X007543Y025480D01*
X007550Y025487D02*
X007550Y025487D01*
X007449Y025381D02*
X003033Y025381D01*
X003033Y025283D02*
X007408Y025283D01*
X007398Y025184D02*
X003033Y025184D01*
X003033Y025086D02*
X007398Y025086D01*
X007398Y024987D02*
X003033Y024987D01*
X003033Y024889D02*
X007398Y024889D01*
X007398Y024790D02*
X003033Y024790D01*
X003033Y024692D02*
X007398Y024692D01*
X007398Y024593D02*
X003033Y024593D01*
X003033Y024495D02*
X007398Y024495D01*
X007398Y024396D02*
X003033Y024396D01*
X003033Y024298D02*
X007398Y024298D01*
X007398Y024199D02*
X003033Y024199D01*
X003033Y024101D02*
X007398Y024101D01*
X007398Y024002D02*
X003033Y024002D01*
X003033Y023904D02*
X007398Y023904D01*
X007398Y023805D02*
X003033Y023805D01*
X003033Y023707D02*
X007398Y023707D01*
X007398Y023608D02*
X003033Y023608D01*
X003033Y023510D02*
X007398Y023510D01*
X007398Y023411D02*
X003033Y023411D01*
X003033Y023313D02*
X007398Y023313D01*
X007398Y023214D02*
X003033Y023214D01*
X003033Y023116D02*
X007398Y023116D01*
X008098Y024199D02*
X039503Y024199D01*
X039503Y024101D02*
X014389Y024101D01*
X014411Y024002D02*
X039503Y024002D01*
X039503Y023904D02*
X014411Y023904D01*
X014411Y023805D02*
X039503Y023805D01*
X039503Y023707D02*
X014411Y023707D01*
X014411Y023608D02*
X039503Y023608D01*
X039503Y023510D02*
X014324Y023510D01*
X014224Y022623D02*
X028765Y022623D01*
X028863Y022525D02*
X014224Y022525D01*
X014224Y022426D02*
X028962Y022426D01*
X029060Y022328D02*
X014224Y022328D01*
X014224Y022229D02*
X029159Y022229D01*
X029257Y022131D02*
X014195Y022131D01*
X014096Y022032D02*
X029356Y022032D01*
X029454Y021934D02*
X014096Y021934D01*
X014096Y021835D02*
X029553Y021835D01*
X029651Y021737D02*
X014096Y021737D01*
X014096Y021638D02*
X027505Y021638D01*
X027505Y021540D02*
X014096Y021540D01*
X014096Y021441D02*
X027505Y021441D01*
X027505Y021343D02*
X014096Y021343D01*
X014096Y021244D02*
X027505Y021244D01*
X027519Y021146D02*
X014096Y021146D01*
X014096Y021047D02*
X027633Y021047D01*
X027633Y020949D02*
X014096Y020949D01*
X014096Y020850D02*
X027633Y020850D01*
X027633Y020752D02*
X014096Y020752D01*
X014096Y020653D02*
X027633Y020653D01*
X027633Y020555D02*
X014096Y020555D01*
X014096Y020456D02*
X027633Y020456D01*
X027633Y020358D02*
X014096Y020358D01*
X014096Y020259D02*
X027633Y020259D01*
X027633Y020161D02*
X014096Y020161D01*
X014096Y020062D02*
X027633Y020062D01*
X027633Y019964D02*
X014096Y019964D01*
X014096Y019865D02*
X027633Y019865D01*
X027633Y019767D02*
X014096Y019767D01*
X014096Y019668D02*
X027633Y019668D01*
X027633Y019570D02*
X014096Y019570D01*
X014096Y019471D02*
X027633Y019471D01*
X027633Y019373D02*
X014096Y019373D01*
X014096Y019274D02*
X027633Y019274D01*
X027633Y019176D02*
X014096Y019176D01*
X014096Y019077D02*
X027633Y019077D01*
X027633Y018979D02*
X014096Y018979D01*
X014096Y018880D02*
X027633Y018880D01*
X027633Y018782D02*
X014096Y018782D01*
X014096Y018683D02*
X027633Y018683D01*
X027633Y018585D02*
X014096Y018585D01*
X014096Y018486D02*
X027633Y018486D01*
X027633Y018388D02*
X014096Y018388D01*
X014096Y018289D02*
X027633Y018289D01*
X027633Y018191D02*
X014096Y018191D01*
X014096Y018092D02*
X027633Y018092D01*
X027633Y017994D02*
X014096Y017994D01*
X014096Y017895D02*
X027633Y017895D01*
X027633Y017797D02*
X014096Y017797D01*
X014096Y017698D02*
X027633Y017698D01*
X027633Y017600D02*
X014096Y017600D01*
X014096Y017501D02*
X027633Y017501D01*
X027633Y017403D02*
X014096Y017403D01*
X014096Y017304D02*
X027633Y017304D01*
X027633Y017206D02*
X014096Y017206D01*
X014096Y017107D02*
X027633Y017107D01*
X027633Y017009D02*
X014096Y017009D01*
X014096Y016910D02*
X027633Y016910D01*
X027633Y016812D02*
X014096Y016812D01*
X014096Y016713D02*
X027633Y016713D01*
X027633Y016615D02*
X014096Y016615D01*
X014096Y016516D02*
X027633Y016516D01*
X027633Y016418D02*
X014096Y016418D01*
X014096Y016319D02*
X027633Y016319D01*
X027558Y016221D02*
X014096Y016221D01*
X014096Y016122D02*
X027460Y016122D01*
X027361Y016024D02*
X014096Y016024D01*
X014096Y015925D02*
X027263Y015925D01*
X027164Y015827D02*
X014096Y015827D01*
X014096Y015728D02*
X027066Y015728D01*
X026967Y015630D02*
X014096Y015630D01*
X014096Y015531D02*
X026869Y015531D01*
X026770Y015433D02*
X014096Y015433D01*
X014096Y015334D02*
X026672Y015334D01*
X026573Y015236D02*
X014096Y015236D01*
X014096Y015137D02*
X026475Y015137D01*
X026376Y015039D02*
X014096Y015039D01*
X014096Y014940D02*
X026278Y014940D01*
X026179Y014842D02*
X014096Y014842D01*
X014096Y014743D02*
X026081Y014743D01*
X025982Y014645D02*
X014096Y014645D01*
X014096Y014546D02*
X025884Y014546D01*
X025785Y014448D02*
X014096Y014448D01*
X014096Y014349D02*
X025687Y014349D01*
X025588Y014251D02*
X014096Y014251D01*
X014096Y014152D02*
X025490Y014152D01*
X025391Y014054D02*
X014096Y014054D01*
X014096Y013955D02*
X025293Y013955D01*
X025194Y013857D02*
X014096Y013857D01*
X014096Y013758D02*
X025096Y013758D01*
X024997Y013660D02*
X014096Y013660D01*
X014096Y013561D02*
X024899Y013561D01*
X024958Y013338D02*
X027833Y016213D01*
X027833Y021400D01*
X028161Y021441D02*
X029947Y021441D01*
X030045Y021343D02*
X028161Y021343D01*
X028161Y021244D02*
X030144Y021244D01*
X030242Y021146D02*
X028148Y021146D01*
X028033Y021047D02*
X030341Y021047D01*
X030380Y020949D02*
X028033Y020949D01*
X028033Y020850D02*
X030380Y020850D01*
X030380Y020752D02*
X028033Y020752D01*
X028033Y020653D02*
X030449Y020653D01*
X030508Y020555D02*
X028033Y020555D01*
X028033Y020456D02*
X030508Y020456D01*
X030508Y020358D02*
X028033Y020358D01*
X028033Y020259D02*
X030508Y020259D01*
X030508Y020161D02*
X028033Y020161D01*
X028033Y020062D02*
X030508Y020062D01*
X030508Y019964D02*
X028033Y019964D01*
X028033Y019865D02*
X030508Y019865D01*
X030508Y019767D02*
X028033Y019767D01*
X028033Y019668D02*
X030508Y019668D01*
X030508Y019570D02*
X028033Y019570D01*
X028033Y019471D02*
X030508Y019471D01*
X030508Y019373D02*
X028033Y019373D01*
X028033Y019274D02*
X030508Y019274D01*
X030508Y019176D02*
X028033Y019176D01*
X028033Y019077D02*
X030508Y019077D01*
X030508Y018979D02*
X028033Y018979D01*
X028033Y018880D02*
X030508Y018880D01*
X030508Y018782D02*
X028033Y018782D01*
X028033Y018683D02*
X030508Y018683D01*
X030508Y018585D02*
X028033Y018585D01*
X028033Y018486D02*
X030508Y018486D01*
X030508Y018388D02*
X028033Y018388D01*
X028033Y018289D02*
X030508Y018289D01*
X030508Y018191D02*
X028033Y018191D01*
X028033Y018092D02*
X030508Y018092D01*
X030508Y017994D02*
X028033Y017994D01*
X028033Y017895D02*
X030508Y017895D01*
X030508Y017797D02*
X028033Y017797D01*
X028033Y017698D02*
X030508Y017698D01*
X030508Y017600D02*
X028033Y017600D01*
X028033Y017501D02*
X030508Y017501D01*
X030508Y017403D02*
X028033Y017403D01*
X028033Y017304D02*
X030508Y017304D01*
X030508Y017206D02*
X028033Y017206D01*
X028033Y017107D02*
X030508Y017107D01*
X030508Y017009D02*
X028033Y017009D01*
X028033Y016910D02*
X030508Y016910D01*
X030508Y016812D02*
X028033Y016812D01*
X028033Y016713D02*
X030508Y016713D01*
X030508Y016615D02*
X028033Y016615D01*
X028033Y016516D02*
X030508Y016516D01*
X030508Y016418D02*
X028033Y016418D01*
X028033Y016319D02*
X030508Y016319D01*
X030508Y016221D02*
X028033Y016221D01*
X028025Y016122D02*
X030508Y016122D01*
X030508Y016024D02*
X027927Y016024D01*
X027828Y015925D02*
X030508Y015925D01*
X030508Y015827D02*
X027730Y015827D01*
X027631Y015728D02*
X030508Y015728D01*
X030508Y015630D02*
X027533Y015630D01*
X027434Y015531D02*
X030508Y015531D01*
X030508Y015433D02*
X027336Y015433D01*
X027237Y015334D02*
X030508Y015334D01*
X030508Y015236D02*
X027139Y015236D01*
X027040Y015137D02*
X030508Y015137D01*
X030508Y015039D02*
X026942Y015039D01*
X026843Y014940D02*
X030508Y014940D01*
X030508Y014842D02*
X026745Y014842D01*
X026646Y014743D02*
X030508Y014743D01*
X030508Y014645D02*
X026548Y014645D01*
X026449Y014546D02*
X030508Y014546D01*
X030508Y014448D02*
X026351Y014448D01*
X026252Y014349D02*
X030508Y014349D01*
X030508Y014251D02*
X026154Y014251D01*
X026055Y014152D02*
X030508Y014152D01*
X030508Y014054D02*
X025957Y014054D01*
X025858Y013955D02*
X030508Y013955D01*
X030508Y013857D02*
X025760Y013857D01*
X025661Y013758D02*
X030508Y013758D01*
X030508Y013660D02*
X025563Y013660D01*
X025464Y013561D02*
X030508Y013561D01*
X030508Y013463D02*
X025366Y013463D01*
X025267Y013364D02*
X030508Y013364D01*
X030508Y013266D02*
X025313Y013266D01*
X025411Y013167D02*
X030508Y013167D01*
X030508Y013069D02*
X025510Y013069D01*
X025608Y012970D02*
X030508Y012970D01*
X030508Y012872D02*
X025707Y012872D01*
X025805Y012773D02*
X030508Y012773D01*
X030508Y012675D02*
X025904Y012675D01*
X026002Y012576D02*
X030508Y012576D01*
X030508Y012478D02*
X026101Y012478D01*
X026199Y012379D02*
X030508Y012379D01*
X030508Y012281D02*
X026298Y012281D01*
X026396Y012182D02*
X030508Y012182D01*
X030508Y012084D02*
X026495Y012084D01*
X026593Y011985D02*
X030508Y011985D01*
X030508Y011887D02*
X026692Y011887D01*
X026790Y011788D02*
X030508Y011788D01*
X030508Y011690D02*
X026889Y011690D01*
X026987Y011591D02*
X030508Y011591D01*
X030508Y011493D02*
X027086Y011493D01*
X027184Y011394D02*
X030508Y011394D01*
X030508Y011296D02*
X027283Y011296D01*
X027381Y011197D02*
X030508Y011197D01*
X030508Y011099D02*
X027480Y011099D01*
X027578Y011000D02*
X030508Y011000D01*
X030508Y010902D02*
X027677Y010902D01*
X027775Y010803D02*
X030508Y010803D01*
X030508Y010705D02*
X027874Y010705D01*
X027972Y010606D02*
X030508Y010606D01*
X030508Y010508D02*
X028071Y010508D01*
X028169Y010409D02*
X030508Y010409D01*
X030508Y010311D02*
X028268Y010311D01*
X028366Y010212D02*
X030508Y010212D01*
X030508Y010114D02*
X028465Y010114D01*
X028563Y010015D02*
X030508Y010015D01*
X030508Y009917D02*
X028662Y009917D01*
X028760Y009818D02*
X030508Y009818D01*
X030508Y009720D02*
X029145Y009720D01*
X029224Y009621D02*
X030508Y009621D01*
X030508Y009523D02*
X029224Y009523D01*
X029224Y009424D02*
X030508Y009424D01*
X030440Y009326D02*
X029224Y009326D01*
X029224Y009227D02*
X030411Y009227D01*
X030411Y009129D02*
X029193Y009129D01*
X028896Y009400D02*
X024958Y013338D01*
X018083Y013338D01*
X013833Y013338D01*
X013896Y013400D01*
X013896Y022400D01*
X013994Y024453D02*
X014172Y024453D01*
X014336Y024521D01*
X014462Y024647D01*
X014530Y024811D01*
X014530Y024989D01*
X014462Y025153D01*
X014336Y025279D01*
X014172Y025347D01*
X013994Y025347D01*
X013830Y025279D01*
X013704Y025153D01*
X013636Y024989D01*
X013636Y024811D01*
X013704Y024647D01*
X013830Y024521D01*
X013994Y024453D01*
X013894Y024495D02*
X013272Y024495D01*
X013336Y024521D02*
X013172Y024453D01*
X012994Y024453D01*
X012830Y024521D01*
X012704Y024647D01*
X012636Y024811D01*
X012636Y024989D01*
X012704Y025153D01*
X012830Y025279D01*
X012994Y025347D01*
X013172Y025347D01*
X013336Y025279D01*
X013462Y025153D01*
X013530Y024989D01*
X013530Y024811D01*
X013462Y024647D01*
X013336Y024521D01*
X013408Y024593D02*
X013758Y024593D01*
X013686Y024692D02*
X013480Y024692D01*
X013521Y024790D02*
X013645Y024790D01*
X013636Y024889D02*
X013530Y024889D01*
X013530Y024987D02*
X013636Y024987D01*
X013676Y025086D02*
X013490Y025086D01*
X013431Y025184D02*
X013735Y025184D01*
X013839Y025283D02*
X013327Y025283D01*
X013236Y025480D02*
X013930Y025480D01*
X013994Y025453D02*
X014172Y025453D01*
X014336Y025521D01*
X014462Y025647D01*
X014530Y025811D01*
X014530Y025989D01*
X014462Y026153D01*
X014336Y026279D01*
X014172Y026347D01*
X013994Y026347D01*
X013830Y026279D01*
X013704Y026153D01*
X013636Y025989D01*
X013636Y025811D01*
X013704Y025647D01*
X013830Y025521D01*
X013994Y025453D01*
X014236Y025480D02*
X014930Y025480D01*
X014994Y025453D02*
X015172Y025453D01*
X015336Y025521D01*
X015462Y025647D01*
X015530Y025811D01*
X015530Y025989D01*
X015462Y026153D01*
X015336Y026279D01*
X015172Y026347D01*
X014994Y026347D01*
X014830Y026279D01*
X014704Y026153D01*
X014636Y025989D01*
X014636Y025811D01*
X014704Y025647D01*
X014830Y025521D01*
X014994Y025453D01*
X014994Y025347D02*
X014830Y025279D01*
X014704Y025153D01*
X014636Y024989D01*
X014636Y024811D01*
X014704Y024647D01*
X014830Y024521D01*
X014994Y024453D01*
X015172Y024453D01*
X015336Y024521D01*
X015462Y024647D01*
X015530Y024811D01*
X015530Y024989D01*
X015462Y025153D01*
X015336Y025279D01*
X015172Y025347D01*
X014994Y025347D01*
X014839Y025283D02*
X014327Y025283D01*
X014431Y025184D02*
X014735Y025184D01*
X014676Y025086D02*
X014490Y025086D01*
X014530Y024987D02*
X014636Y024987D01*
X014636Y024889D02*
X014530Y024889D01*
X014521Y024790D02*
X014645Y024790D01*
X014686Y024692D02*
X014480Y024692D01*
X014408Y024593D02*
X014758Y024593D01*
X014894Y024495D02*
X014272Y024495D01*
X015272Y024495D02*
X015894Y024495D01*
X015830Y024521D02*
X015994Y024453D01*
X016172Y024453D01*
X016336Y024521D01*
X016462Y024647D01*
X016530Y024811D01*
X016530Y024989D01*
X016462Y025153D01*
X016336Y025279D01*
X016172Y025347D01*
X015994Y025347D01*
X015830Y025279D01*
X015704Y025153D01*
X015636Y024989D01*
X015636Y024811D01*
X015704Y024647D01*
X015830Y024521D01*
X015758Y024593D02*
X015408Y024593D01*
X015480Y024692D02*
X015686Y024692D01*
X015645Y024790D02*
X015521Y024790D01*
X015530Y024889D02*
X015636Y024889D01*
X015636Y024987D02*
X015530Y024987D01*
X015490Y025086D02*
X015676Y025086D01*
X015735Y025184D02*
X015431Y025184D01*
X015327Y025283D02*
X015839Y025283D01*
X015930Y025480D02*
X015236Y025480D01*
X015393Y025578D02*
X015773Y025578D01*
X015830Y025521D02*
X015994Y025453D01*
X016172Y025453D01*
X016336Y025521D01*
X016462Y025647D01*
X016530Y025811D01*
X016530Y025989D01*
X016462Y026153D01*
X016336Y026279D01*
X016172Y026347D01*
X015994Y026347D01*
X015830Y026279D01*
X015704Y026153D01*
X015636Y025989D01*
X015636Y025811D01*
X015704Y025647D01*
X015830Y025521D01*
X015692Y025677D02*
X015474Y025677D01*
X015515Y025775D02*
X015651Y025775D01*
X015636Y025874D02*
X015530Y025874D01*
X015530Y025972D02*
X015636Y025972D01*
X015670Y026071D02*
X015496Y026071D01*
X015446Y026169D02*
X015720Y026169D01*
X015819Y026268D02*
X015347Y026268D01*
X014819Y026268D02*
X014347Y026268D01*
X014446Y026169D02*
X014720Y026169D01*
X014670Y026071D02*
X014496Y026071D01*
X014530Y025972D02*
X014636Y025972D01*
X014636Y025874D02*
X014530Y025874D01*
X014515Y025775D02*
X014651Y025775D01*
X014692Y025677D02*
X014474Y025677D01*
X014393Y025578D02*
X014773Y025578D01*
X013773Y025578D02*
X013393Y025578D01*
X013336Y025521D02*
X013462Y025647D01*
X013530Y025811D01*
X013530Y025989D01*
X013462Y026153D01*
X013336Y026279D01*
X013172Y026347D01*
X012994Y026347D01*
X012830Y026279D01*
X012704Y026153D01*
X012636Y025989D01*
X012636Y025811D01*
X012704Y025647D01*
X012830Y025521D01*
X012994Y025453D01*
X013172Y025453D01*
X013336Y025521D01*
X013474Y025677D02*
X013692Y025677D01*
X013651Y025775D02*
X013515Y025775D01*
X013530Y025874D02*
X013636Y025874D01*
X013636Y025972D02*
X013530Y025972D01*
X013496Y026071D02*
X013670Y026071D01*
X013720Y026169D02*
X013446Y026169D01*
X013347Y026268D02*
X013819Y026268D01*
X012819Y026268D02*
X012347Y026268D01*
X012336Y026279D02*
X012172Y026347D01*
X011994Y026347D01*
X011830Y026279D01*
X011704Y026153D01*
X011636Y025989D01*
X011636Y025811D01*
X011704Y025647D01*
X011830Y025521D01*
X011994Y025453D01*
X012172Y025453D01*
X012336Y025521D01*
X012462Y025647D01*
X012530Y025811D01*
X012530Y025989D01*
X012462Y026153D01*
X012336Y026279D01*
X012446Y026169D02*
X012720Y026169D01*
X012670Y026071D02*
X012496Y026071D01*
X012530Y025972D02*
X012636Y025972D01*
X012636Y025874D02*
X012530Y025874D01*
X012515Y025775D02*
X012651Y025775D01*
X012692Y025677D02*
X012474Y025677D01*
X012393Y025578D02*
X012773Y025578D01*
X012930Y025480D02*
X012236Y025480D01*
X012172Y025347D02*
X011994Y025347D01*
X011830Y025279D01*
X011704Y025153D01*
X011636Y024989D01*
X011636Y024811D01*
X011704Y024647D01*
X011830Y024521D01*
X011994Y024453D01*
X012172Y024453D01*
X012336Y024521D01*
X012462Y024647D01*
X012530Y024811D01*
X012530Y024989D01*
X012462Y025153D01*
X012336Y025279D01*
X012172Y025347D01*
X012327Y025283D02*
X012839Y025283D01*
X012735Y025184D02*
X012431Y025184D01*
X012490Y025086D02*
X012676Y025086D01*
X012636Y024987D02*
X012530Y024987D01*
X012530Y024889D02*
X012636Y024889D01*
X012645Y024790D02*
X012521Y024790D01*
X012480Y024692D02*
X012686Y024692D01*
X012758Y024593D02*
X012408Y024593D01*
X012272Y024495D02*
X012894Y024495D01*
X011894Y024495D02*
X011272Y024495D01*
X011408Y024593D02*
X011758Y024593D01*
X011686Y024692D02*
X011480Y024692D01*
X011521Y024790D02*
X011645Y024790D01*
X011636Y024889D02*
X011530Y024889D01*
X011530Y024987D02*
X011636Y024987D01*
X011676Y025086D02*
X011490Y025086D01*
X011431Y025184D02*
X011735Y025184D01*
X011839Y025283D02*
X011327Y025283D01*
X011236Y025480D02*
X011930Y025480D01*
X011773Y025578D02*
X011393Y025578D01*
X011474Y025677D02*
X011692Y025677D01*
X011651Y025775D02*
X011515Y025775D01*
X011530Y025874D02*
X011636Y025874D01*
X011636Y025972D02*
X011530Y025972D01*
X011496Y026071D02*
X011670Y026071D01*
X011720Y026169D02*
X011446Y026169D01*
X011347Y026268D02*
X011819Y026268D01*
X011713Y023214D02*
X039503Y023214D01*
X039503Y023116D02*
X011786Y023116D01*
X008098Y024298D02*
X039503Y024298D01*
X039503Y024396D02*
X008098Y024396D01*
X003033Y028435D02*
X039503Y028435D01*
X039503Y028533D02*
X003033Y028533D01*
X003033Y028632D02*
X039503Y028632D01*
X039503Y028730D02*
X003033Y028730D01*
X003033Y028829D02*
X039503Y028829D01*
X039503Y028927D02*
X003033Y028927D01*
X003033Y029026D02*
X039503Y029026D01*
X039503Y029124D02*
X003033Y029124D01*
X003033Y029223D02*
X039503Y029223D01*
X039503Y029321D02*
X003033Y029321D01*
X003033Y029420D02*
X039503Y029420D01*
X039503Y029518D02*
X003033Y029518D01*
X003033Y029617D02*
X039503Y029617D01*
X039503Y025775D02*
X032512Y025775D01*
X032471Y025677D02*
X039503Y025677D01*
X039503Y025578D02*
X032393Y025578D01*
X032235Y025480D02*
X039503Y025480D01*
X039503Y024790D02*
X032517Y024790D01*
X032478Y024692D02*
X039503Y024692D01*
X039503Y024593D02*
X032408Y024593D01*
X032272Y024495D02*
X039503Y024495D01*
X039503Y023017D02*
X028936Y023017D01*
X029035Y022919D02*
X039503Y022919D01*
X039503Y022820D02*
X029133Y022820D01*
X029232Y022722D02*
X039503Y022722D01*
X039503Y022623D02*
X029330Y022623D01*
X029429Y022525D02*
X039503Y022525D01*
X039503Y022426D02*
X029527Y022426D01*
X029626Y022328D02*
X039503Y022328D01*
X039503Y022229D02*
X029724Y022229D01*
X029823Y022131D02*
X039503Y022131D01*
X039503Y022032D02*
X029921Y022032D01*
X030020Y021934D02*
X039503Y021934D01*
X039503Y021835D02*
X030118Y021835D01*
X030217Y021737D02*
X039503Y021737D01*
X039503Y021638D02*
X030315Y021638D01*
X030414Y021540D02*
X039503Y021540D01*
X039503Y021441D02*
X030512Y021441D01*
X030611Y021343D02*
X039503Y021343D01*
X039503Y021244D02*
X030996Y021244D01*
X031036Y021146D02*
X039503Y021146D01*
X039503Y021047D02*
X031036Y021047D01*
X031036Y020949D02*
X039503Y020949D01*
X039503Y020850D02*
X031036Y020850D01*
X031036Y020752D02*
X039503Y020752D01*
X039503Y020653D02*
X030968Y020653D01*
X030908Y020555D02*
X039503Y020555D01*
X039503Y020456D02*
X030908Y020456D01*
X030908Y020358D02*
X039503Y020358D01*
X039503Y020259D02*
X030908Y020259D01*
X030908Y020161D02*
X039503Y020161D01*
X039503Y020062D02*
X030908Y020062D01*
X030908Y019964D02*
X039503Y019964D01*
X039503Y019865D02*
X030908Y019865D01*
X030908Y019767D02*
X039503Y019767D01*
X039503Y019668D02*
X030908Y019668D01*
X030908Y019570D02*
X039503Y019570D01*
X039503Y019471D02*
X030908Y019471D01*
X030908Y019373D02*
X039503Y019373D01*
X039503Y019274D02*
X030908Y019274D01*
X030908Y019176D02*
X039503Y019176D01*
X039503Y019077D02*
X030908Y019077D01*
X030908Y018979D02*
X039503Y018979D01*
X039503Y018880D02*
X030908Y018880D01*
X030908Y018782D02*
X039503Y018782D01*
X039503Y018683D02*
X030908Y018683D01*
X030908Y018585D02*
X039503Y018585D01*
X039503Y018486D02*
X030908Y018486D01*
X030908Y018388D02*
X039503Y018388D01*
X039503Y018289D02*
X030908Y018289D01*
X030908Y018191D02*
X039503Y018191D01*
X039503Y018092D02*
X030908Y018092D01*
X030908Y017994D02*
X039503Y017994D01*
X039503Y017895D02*
X030908Y017895D01*
X030908Y017797D02*
X039503Y017797D01*
X039503Y017698D02*
X030908Y017698D01*
X030908Y017600D02*
X039503Y017600D01*
X039503Y017501D02*
X030908Y017501D01*
X030908Y017403D02*
X039503Y017403D01*
X039503Y017304D02*
X030908Y017304D01*
X030908Y017206D02*
X039503Y017206D01*
X039503Y017107D02*
X030908Y017107D01*
X030908Y017009D02*
X039503Y017009D01*
X039503Y016910D02*
X030908Y016910D01*
X030908Y016812D02*
X039503Y016812D01*
X039503Y016713D02*
X030908Y016713D01*
X030908Y016615D02*
X039503Y016615D01*
X039503Y016516D02*
X030908Y016516D01*
X030908Y016418D02*
X039503Y016418D01*
X039503Y016319D02*
X030908Y016319D01*
X030908Y016221D02*
X039503Y016221D01*
X039503Y016122D02*
X030908Y016122D01*
X030908Y016024D02*
X039503Y016024D01*
X039503Y015925D02*
X030908Y015925D01*
X030908Y015827D02*
X039503Y015827D01*
X039503Y015728D02*
X030908Y015728D01*
X030908Y015630D02*
X039503Y015630D01*
X039503Y015531D02*
X030908Y015531D01*
X030908Y015433D02*
X039503Y015433D01*
X039503Y015334D02*
X030908Y015334D01*
X030908Y015236D02*
X039503Y015236D01*
X039503Y015137D02*
X030908Y015137D01*
X030908Y015039D02*
X039503Y015039D01*
X039503Y014940D02*
X030908Y014940D01*
X030908Y014842D02*
X039503Y014842D01*
X039503Y014743D02*
X030908Y014743D01*
X030908Y014645D02*
X039503Y014645D01*
X039503Y014546D02*
X030908Y014546D01*
X030908Y014448D02*
X039503Y014448D01*
X039503Y014349D02*
X030908Y014349D01*
X030908Y014251D02*
X039503Y014251D01*
X039503Y014152D02*
X030908Y014152D01*
X030908Y014054D02*
X039503Y014054D01*
X039503Y013955D02*
X030908Y013955D01*
X030908Y013857D02*
X039503Y013857D01*
X039503Y013758D02*
X030908Y013758D01*
X030908Y013660D02*
X039503Y013660D01*
X039503Y013561D02*
X030908Y013561D01*
X030908Y013463D02*
X039503Y013463D01*
X039503Y013364D02*
X030908Y013364D01*
X030908Y013266D02*
X039503Y013266D01*
X039503Y013167D02*
X030908Y013167D01*
X030908Y013069D02*
X039503Y013069D01*
X039503Y012970D02*
X030908Y012970D01*
X030908Y012872D02*
X039503Y012872D01*
X039503Y012773D02*
X030908Y012773D01*
X030908Y012675D02*
X039503Y012675D01*
X039503Y012576D02*
X030908Y012576D01*
X030908Y012478D02*
X039503Y012478D01*
X039503Y012379D02*
X030908Y012379D01*
X030908Y012281D02*
X039503Y012281D01*
X039503Y012182D02*
X030908Y012182D01*
X030908Y012084D02*
X039503Y012084D01*
X039503Y011985D02*
X030908Y011985D01*
X030908Y011887D02*
X039503Y011887D01*
X039503Y011788D02*
X030908Y011788D01*
X030908Y011690D02*
X039503Y011690D01*
X039503Y011591D02*
X030908Y011591D01*
X030908Y011493D02*
X039503Y011493D01*
X039503Y011394D02*
X030908Y011394D01*
X030908Y011296D02*
X039503Y011296D01*
X039503Y011197D02*
X030908Y011197D01*
X030908Y011099D02*
X039503Y011099D01*
X039503Y011000D02*
X030908Y011000D01*
X030908Y010902D02*
X039503Y010902D01*
X039503Y010803D02*
X030908Y010803D01*
X030908Y010705D02*
X039503Y010705D01*
X039503Y010606D02*
X030908Y010606D01*
X030908Y010508D02*
X039503Y010508D01*
X039503Y010409D02*
X030908Y010409D01*
X030908Y010311D02*
X039503Y010311D01*
X039503Y010212D02*
X030908Y010212D01*
X030908Y010114D02*
X039503Y010114D01*
X039503Y010015D02*
X030908Y010015D01*
X030908Y009917D02*
X039503Y009917D01*
X039503Y009818D02*
X030908Y009818D01*
X030908Y009720D02*
X039503Y009720D01*
X039503Y009621D02*
X030908Y009621D01*
X030908Y009523D02*
X039503Y009523D01*
X039503Y009424D02*
X030908Y009424D01*
X031039Y009326D02*
X039503Y009326D01*
X039503Y009227D02*
X031068Y009227D01*
X031068Y009129D02*
X039503Y009129D01*
X039503Y009030D02*
X031068Y009030D01*
X031068Y008932D02*
X039503Y008932D01*
X039503Y008833D02*
X031068Y008833D01*
X030987Y008735D02*
X039503Y008735D01*
X039503Y008439D02*
X008098Y008439D01*
X008098Y008341D02*
X039503Y008341D01*
X039503Y008242D02*
X008098Y008242D01*
X008098Y008144D02*
X039503Y008144D01*
X039503Y008045D02*
X008098Y008045D01*
X008098Y007947D02*
X039503Y007947D01*
X039503Y007848D02*
X008098Y007848D01*
X008098Y007750D02*
X039503Y007750D01*
X039503Y007651D02*
X008098Y007651D01*
X008098Y007553D02*
X039503Y007553D01*
X039503Y007454D02*
X008098Y007454D01*
X008098Y007356D02*
X039503Y007356D01*
X030411Y009030D02*
X028423Y009030D01*
X028325Y009129D02*
X028598Y009129D01*
X028567Y009227D02*
X028226Y009227D01*
X028128Y009326D02*
X028567Y009326D01*
X028567Y009424D02*
X028029Y009424D01*
X027931Y009523D02*
X028490Y009523D01*
X028392Y009621D02*
X027832Y009621D01*
X027734Y009720D02*
X028293Y009720D01*
X028195Y009818D02*
X027635Y009818D01*
X027537Y009917D02*
X028096Y009917D01*
X027998Y010015D02*
X027533Y010015D01*
X027465Y010114D02*
X027899Y010114D01*
X027801Y010212D02*
X020278Y010212D01*
X019958Y009963D02*
X027333Y009963D01*
X027333Y009838D01*
X028521Y008650D01*
X030333Y008650D01*
X030332Y008932D02*
X028522Y008932D01*
X028252Y008636D02*
X008098Y008636D01*
X008098Y008538D02*
X028350Y008538D01*
X028153Y008735D02*
X008098Y008735D01*
X008098Y008833D02*
X028055Y008833D01*
X027956Y008932D02*
X008098Y008932D01*
X008098Y009030D02*
X027858Y009030D01*
X027759Y009129D02*
X008098Y009129D01*
X008098Y009227D02*
X027661Y009227D01*
X027562Y009326D02*
X008098Y009326D01*
X008098Y009424D02*
X027464Y009424D01*
X027365Y009523D02*
X008098Y009523D01*
X008098Y009621D02*
X027267Y009621D01*
X027168Y009720D02*
X020284Y009720D01*
X019632Y009720D02*
X008098Y009720D01*
X008098Y009818D02*
X019630Y009818D01*
X019630Y009917D02*
X008098Y009917D01*
X008098Y010015D02*
X019630Y010015D01*
X019630Y010114D02*
X008098Y010114D01*
X008098Y010212D02*
X019639Y010212D01*
X019950Y010902D02*
X011680Y010902D01*
X011778Y011000D02*
X019880Y011000D01*
X019880Y011099D02*
X011877Y011099D01*
X011975Y011197D02*
X019880Y011197D01*
X019842Y011296D02*
X012074Y011296D01*
X012172Y011394D02*
X019744Y011394D01*
X019645Y011493D02*
X012271Y011493D01*
X012369Y011591D02*
X019547Y011591D01*
X019448Y011690D02*
X012468Y011690D01*
X012566Y011788D02*
X019350Y011788D01*
X019251Y011887D02*
X012665Y011887D01*
X012763Y011985D02*
X019153Y011985D01*
X019054Y012084D02*
X012862Y012084D01*
X012960Y012182D02*
X018956Y012182D01*
X018857Y012281D02*
X013059Y012281D01*
X013157Y012379D02*
X018759Y012379D01*
X018660Y012478D02*
X013256Y012478D01*
X013354Y012576D02*
X018562Y012576D01*
X018463Y012675D02*
X013453Y012675D01*
X013551Y012773D02*
X018365Y012773D01*
X018266Y012872D02*
X013650Y012872D01*
X013748Y012970D02*
X018168Y012970D01*
X018069Y013069D02*
X013847Y013069D01*
X013833Y013338D02*
X011208Y010713D01*
X010880Y010705D02*
X008098Y010705D01*
X008098Y010803D02*
X010880Y010803D01*
X010880Y010902D02*
X008098Y010902D01*
X008098Y011000D02*
X010927Y011000D01*
X011311Y011099D02*
X008098Y011099D01*
X008098Y011197D02*
X011410Y011197D01*
X011508Y011296D02*
X008098Y011296D01*
X008098Y011394D02*
X011607Y011394D01*
X011705Y011493D02*
X008098Y011493D01*
X008098Y011591D02*
X011804Y011591D01*
X011902Y011690D02*
X008098Y011690D01*
X008098Y011788D02*
X012001Y011788D01*
X012099Y011887D02*
X008098Y011887D01*
X008098Y011985D02*
X012198Y011985D01*
X012296Y012084D02*
X008098Y012084D01*
X008098Y012182D02*
X012395Y012182D01*
X012493Y012281D02*
X008098Y012281D01*
X008098Y012379D02*
X012592Y012379D01*
X012690Y012478D02*
X008098Y012478D01*
X008098Y012576D02*
X012789Y012576D01*
X012887Y012675D02*
X008098Y012675D01*
X008098Y012773D02*
X012986Y012773D01*
X011581Y010803D02*
X027210Y010803D01*
X027308Y010705D02*
X011536Y010705D01*
X011536Y010606D02*
X027407Y010606D01*
X027505Y010508D02*
X011536Y010508D01*
X011474Y010409D02*
X027604Y010409D01*
X027702Y010311D02*
X008098Y010311D01*
X008098Y010409D02*
X010943Y010409D01*
X010880Y010508D02*
X008098Y010508D01*
X008098Y010606D02*
X010880Y010606D01*
X005633Y015137D02*
X005533Y015137D01*
X005533Y015236D02*
X005633Y015236D01*
X005633Y015334D02*
X005533Y015334D01*
X005533Y015433D02*
X005633Y015433D01*
X005633Y015531D02*
X005533Y015531D01*
X005533Y015827D02*
X005633Y015827D01*
X005633Y015925D02*
X005533Y015925D01*
X005533Y016024D02*
X005633Y016024D01*
X005633Y016122D02*
X005533Y016122D01*
X005030Y016122D02*
X003033Y016122D01*
X003033Y016024D02*
X005020Y016024D01*
X005020Y015925D02*
X003033Y015925D01*
X003033Y015827D02*
X005020Y015827D01*
X003719Y014940D02*
X003033Y014940D01*
X003033Y014842D02*
X003438Y014842D01*
X003267Y014743D02*
X003033Y014743D01*
X003033Y014645D02*
X003168Y014645D01*
X003070Y014546D02*
X003033Y014546D01*
X003033Y016418D02*
X003509Y016418D01*
X003338Y016516D02*
X003033Y016516D01*
X003033Y016615D02*
X003209Y016615D01*
X003111Y016713D02*
X003033Y016713D01*
X003033Y016812D02*
X003035Y016812D01*
X003033Y018092D02*
X003073Y018092D01*
X003033Y018191D02*
X003171Y018191D01*
X003272Y018289D02*
X003033Y018289D01*
X003033Y018388D02*
X003443Y018388D01*
X003729Y018486D02*
X003033Y018486D01*
X016272Y024495D02*
X016894Y024495D01*
X016830Y024521D02*
X016994Y024453D01*
X017172Y024453D01*
X017336Y024521D01*
X017462Y024647D01*
X017530Y024811D01*
X017530Y024989D01*
X017462Y025153D01*
X017336Y025279D01*
X017172Y025347D01*
X016994Y025347D01*
X016830Y025279D01*
X016704Y025153D01*
X016636Y024989D01*
X016636Y024811D01*
X016704Y024647D01*
X016830Y024521D01*
X016758Y024593D02*
X016408Y024593D01*
X016480Y024692D02*
X016686Y024692D01*
X016645Y024790D02*
X016521Y024790D01*
X016530Y024889D02*
X016636Y024889D01*
X016636Y024987D02*
X016530Y024987D01*
X016490Y025086D02*
X016676Y025086D01*
X016735Y025184D02*
X016431Y025184D01*
X016327Y025283D02*
X016839Y025283D01*
X016930Y025480D02*
X016236Y025480D01*
X016393Y025578D02*
X016773Y025578D01*
X016830Y025521D02*
X016994Y025453D01*
X017172Y025453D01*
X017336Y025521D01*
X017462Y025647D01*
X017530Y025811D01*
X017530Y025989D01*
X017462Y026153D01*
X017336Y026279D01*
X017172Y026347D01*
X016994Y026347D01*
X016830Y026279D01*
X016704Y026153D01*
X016636Y025989D01*
X016636Y025811D01*
X016704Y025647D01*
X016830Y025521D01*
X016692Y025677D02*
X016474Y025677D01*
X016515Y025775D02*
X016651Y025775D01*
X016636Y025874D02*
X016530Y025874D01*
X016530Y025972D02*
X016636Y025972D01*
X016670Y026071D02*
X016496Y026071D01*
X016446Y026169D02*
X016720Y026169D01*
X016819Y026268D02*
X016347Y026268D01*
X017347Y026268D02*
X017819Y026268D01*
X017830Y026279D02*
X017704Y026153D01*
X017636Y025989D01*
X017636Y025811D01*
X017704Y025647D01*
X017830Y025521D01*
X017994Y025453D01*
X018172Y025453D01*
X018336Y025521D01*
X018462Y025647D01*
X018530Y025811D01*
X018530Y025989D01*
X018462Y026153D01*
X018336Y026279D01*
X018172Y026347D01*
X017994Y026347D01*
X017830Y026279D01*
X017720Y026169D02*
X017446Y026169D01*
X017496Y026071D02*
X017670Y026071D01*
X017636Y025972D02*
X017530Y025972D01*
X017530Y025874D02*
X017636Y025874D01*
X017651Y025775D02*
X017515Y025775D01*
X017474Y025677D02*
X017692Y025677D01*
X017773Y025578D02*
X017393Y025578D01*
X017236Y025480D02*
X017930Y025480D01*
X017994Y025347D02*
X017830Y025279D01*
X017704Y025153D01*
X017636Y024989D01*
X017636Y024811D01*
X017704Y024647D01*
X017830Y024521D01*
X017994Y024453D01*
X018172Y024453D01*
X018336Y024521D01*
X018462Y024647D01*
X018530Y024811D01*
X018530Y024989D01*
X018462Y025153D01*
X018336Y025279D01*
X018172Y025347D01*
X017994Y025347D01*
X017839Y025283D02*
X017327Y025283D01*
X017431Y025184D02*
X017735Y025184D01*
X017676Y025086D02*
X017490Y025086D01*
X017530Y024987D02*
X017636Y024987D01*
X017636Y024889D02*
X017530Y024889D01*
X017521Y024790D02*
X017645Y024790D01*
X017686Y024692D02*
X017480Y024692D01*
X017408Y024593D02*
X017758Y024593D01*
X017894Y024495D02*
X017272Y024495D01*
X018272Y024495D02*
X018894Y024495D01*
X018830Y024521D02*
X018994Y024453D01*
X019172Y024453D01*
X019336Y024521D01*
X019462Y024647D01*
X019530Y024811D01*
X019530Y024989D01*
X019462Y025153D01*
X019336Y025279D01*
X019172Y025347D01*
X018994Y025347D01*
X018830Y025279D01*
X018704Y025153D01*
X018636Y024989D01*
X018636Y024811D01*
X018704Y024647D01*
X018830Y024521D01*
X018758Y024593D02*
X018408Y024593D01*
X018480Y024692D02*
X018686Y024692D01*
X018645Y024790D02*
X018521Y024790D01*
X018530Y024889D02*
X018636Y024889D01*
X018636Y024987D02*
X018530Y024987D01*
X018490Y025086D02*
X018676Y025086D01*
X018735Y025184D02*
X018431Y025184D01*
X018327Y025283D02*
X018839Y025283D01*
X018930Y025480D02*
X018236Y025480D01*
X018393Y025578D02*
X018773Y025578D01*
X018830Y025521D02*
X018994Y025453D01*
X019172Y025453D01*
X019336Y025521D01*
X019462Y025647D01*
X019530Y025811D01*
X019530Y025989D01*
X019462Y026153D01*
X019336Y026279D01*
X019172Y026347D01*
X018994Y026347D01*
X018830Y026279D01*
X018704Y026153D01*
X018636Y025989D01*
X018636Y025811D01*
X018704Y025647D01*
X018830Y025521D01*
X018692Y025677D02*
X018474Y025677D01*
X018515Y025775D02*
X018651Y025775D01*
X018636Y025874D02*
X018530Y025874D01*
X018530Y025972D02*
X018636Y025972D01*
X018670Y026071D02*
X018496Y026071D01*
X018446Y026169D02*
X018720Y026169D01*
X018819Y026268D02*
X018347Y026268D01*
X019347Y026268D02*
X019819Y026268D01*
X019830Y026279D02*
X019704Y026153D01*
X019636Y025989D01*
X019636Y025811D01*
X019704Y025647D01*
X019830Y025521D01*
X019994Y025453D01*
X020172Y025453D01*
X020336Y025521D01*
X020462Y025647D01*
X020530Y025811D01*
X020530Y025989D01*
X020462Y026153D01*
X020336Y026279D01*
X020172Y026347D01*
X019994Y026347D01*
X019830Y026279D01*
X019720Y026169D02*
X019446Y026169D01*
X019496Y026071D02*
X019670Y026071D01*
X019636Y025972D02*
X019530Y025972D01*
X019530Y025874D02*
X019636Y025874D01*
X019651Y025775D02*
X019515Y025775D01*
X019474Y025677D02*
X019692Y025677D01*
X019773Y025578D02*
X019393Y025578D01*
X019236Y025480D02*
X019930Y025480D01*
X019994Y025347D02*
X019830Y025279D01*
X019704Y025153D01*
X019636Y024989D01*
X019636Y024811D01*
X019704Y024647D01*
X019830Y024521D01*
X019994Y024453D01*
X020172Y024453D01*
X020336Y024521D01*
X020462Y024647D01*
X020530Y024811D01*
X020530Y024989D01*
X020462Y025153D01*
X020336Y025279D01*
X020172Y025347D01*
X019994Y025347D01*
X019839Y025283D02*
X019327Y025283D01*
X019431Y025184D02*
X019735Y025184D01*
X019676Y025086D02*
X019490Y025086D01*
X019530Y024987D02*
X019636Y024987D01*
X019636Y024889D02*
X019530Y024889D01*
X019521Y024790D02*
X019645Y024790D01*
X019686Y024692D02*
X019480Y024692D01*
X019408Y024593D02*
X019758Y024593D01*
X019894Y024495D02*
X019272Y024495D01*
X020272Y024495D02*
X020894Y024495D01*
X020830Y024521D02*
X020994Y024453D01*
X021172Y024453D01*
X021336Y024521D01*
X021462Y024647D01*
X021530Y024811D01*
X021530Y024989D01*
X021462Y025153D01*
X021336Y025279D01*
X021172Y025347D01*
X020994Y025347D01*
X020830Y025279D01*
X020704Y025153D01*
X020636Y024989D01*
X020636Y024811D01*
X020704Y024647D01*
X020830Y024521D01*
X020758Y024593D02*
X020408Y024593D01*
X020480Y024692D02*
X020686Y024692D01*
X020645Y024790D02*
X020521Y024790D01*
X020530Y024889D02*
X020636Y024889D01*
X020636Y024987D02*
X020530Y024987D01*
X020490Y025086D02*
X020676Y025086D01*
X020735Y025184D02*
X020431Y025184D01*
X020327Y025283D02*
X020839Y025283D01*
X020930Y025480D02*
X020236Y025480D01*
X020393Y025578D02*
X020773Y025578D01*
X020830Y025521D02*
X020704Y025647D01*
X020636Y025811D01*
X020636Y025989D01*
X020704Y026153D01*
X020830Y026279D01*
X020994Y026347D01*
X021172Y026347D01*
X021336Y026279D01*
X021462Y026153D01*
X021530Y025989D01*
X021530Y025811D01*
X021462Y025647D01*
X021336Y025521D01*
X021172Y025453D01*
X020994Y025453D01*
X020830Y025521D01*
X020692Y025677D02*
X020474Y025677D01*
X020515Y025775D02*
X020651Y025775D01*
X020636Y025874D02*
X020530Y025874D01*
X020530Y025972D02*
X020636Y025972D01*
X020670Y026071D02*
X020496Y026071D01*
X020446Y026169D02*
X020720Y026169D01*
X020819Y026268D02*
X020347Y026268D01*
X021347Y026268D02*
X021819Y026268D01*
X021830Y026279D02*
X021704Y026153D01*
X021636Y025989D01*
X021636Y025811D01*
X021704Y025647D01*
X021830Y025521D01*
X021994Y025453D01*
X022172Y025453D01*
X022336Y025521D01*
X022462Y025647D01*
X022530Y025811D01*
X022530Y025989D01*
X022462Y026153D01*
X022336Y026279D01*
X022172Y026347D01*
X021994Y026347D01*
X021830Y026279D01*
X021720Y026169D02*
X021446Y026169D01*
X021496Y026071D02*
X021670Y026071D01*
X021636Y025972D02*
X021530Y025972D01*
X021530Y025874D02*
X021636Y025874D01*
X021651Y025775D02*
X021515Y025775D01*
X021474Y025677D02*
X021692Y025677D01*
X021773Y025578D02*
X021393Y025578D01*
X021236Y025480D02*
X021930Y025480D01*
X021994Y025347D02*
X021830Y025279D01*
X021704Y025153D01*
X021636Y024989D01*
X021636Y024811D01*
X021704Y024647D01*
X021830Y024521D01*
X021994Y024453D01*
X022172Y024453D01*
X022336Y024521D01*
X022462Y024647D01*
X022530Y024811D01*
X022530Y024989D01*
X022462Y025153D01*
X022336Y025279D01*
X022172Y025347D01*
X021994Y025347D01*
X021839Y025283D02*
X021327Y025283D01*
X021431Y025184D02*
X021735Y025184D01*
X021676Y025086D02*
X021490Y025086D01*
X021530Y024987D02*
X021636Y024987D01*
X021636Y024889D02*
X021530Y024889D01*
X021521Y024790D02*
X021645Y024790D01*
X021686Y024692D02*
X021480Y024692D01*
X021408Y024593D02*
X021758Y024593D01*
X021894Y024495D02*
X021272Y024495D01*
X022272Y024495D02*
X022894Y024495D01*
X022830Y024521D02*
X022994Y024453D01*
X023172Y024453D01*
X023336Y024521D01*
X023462Y024647D01*
X023530Y024811D01*
X023530Y024989D01*
X023462Y025153D01*
X023336Y025279D01*
X023172Y025347D01*
X022994Y025347D01*
X022830Y025279D01*
X022704Y025153D01*
X022636Y024989D01*
X022636Y024811D01*
X022704Y024647D01*
X022830Y024521D01*
X022758Y024593D02*
X022408Y024593D01*
X022480Y024692D02*
X022686Y024692D01*
X022645Y024790D02*
X022521Y024790D01*
X022530Y024889D02*
X022636Y024889D01*
X022636Y024987D02*
X022530Y024987D01*
X022490Y025086D02*
X022676Y025086D01*
X022735Y025184D02*
X022431Y025184D01*
X022327Y025283D02*
X022839Y025283D01*
X022930Y025480D02*
X022236Y025480D01*
X022393Y025578D02*
X022773Y025578D01*
X022830Y025521D02*
X022704Y025647D01*
X022636Y025811D01*
X022636Y025989D01*
X022704Y026153D01*
X022830Y026279D01*
X022994Y026347D01*
X023172Y026347D01*
X023336Y026279D01*
X023462Y026153D01*
X023530Y025989D01*
X023530Y025811D01*
X023462Y025647D01*
X023336Y025521D01*
X023172Y025453D01*
X022994Y025453D01*
X022830Y025521D01*
X022692Y025677D02*
X022474Y025677D01*
X022515Y025775D02*
X022651Y025775D01*
X022636Y025874D02*
X022530Y025874D01*
X022530Y025972D02*
X022636Y025972D01*
X022670Y026071D02*
X022496Y026071D01*
X022446Y026169D02*
X022720Y026169D01*
X022819Y026268D02*
X022347Y026268D01*
X023347Y026268D02*
X023819Y026268D01*
X023830Y026279D02*
X023704Y026153D01*
X023636Y025989D01*
X023636Y025811D01*
X023704Y025647D01*
X023830Y025521D01*
X023994Y025453D01*
X024172Y025453D01*
X024336Y025521D01*
X024462Y025647D01*
X024530Y025811D01*
X024530Y025989D01*
X024462Y026153D01*
X024336Y026279D01*
X024172Y026347D01*
X023994Y026347D01*
X023830Y026279D01*
X023720Y026169D02*
X023446Y026169D01*
X023496Y026071D02*
X023670Y026071D01*
X023636Y025972D02*
X023530Y025972D01*
X023530Y025874D02*
X023636Y025874D01*
X023651Y025775D02*
X023515Y025775D01*
X023474Y025677D02*
X023692Y025677D01*
X023773Y025578D02*
X023393Y025578D01*
X023236Y025480D02*
X023930Y025480D01*
X023994Y025347D02*
X023830Y025279D01*
X023704Y025153D01*
X023636Y024989D01*
X023636Y024811D01*
X023704Y024647D01*
X023830Y024521D01*
X023994Y024453D01*
X024172Y024453D01*
X024336Y024521D01*
X024462Y024647D01*
X024530Y024811D01*
X024530Y024989D01*
X024462Y025153D01*
X024336Y025279D01*
X024172Y025347D01*
X023994Y025347D01*
X023839Y025283D02*
X023327Y025283D01*
X023431Y025184D02*
X023735Y025184D01*
X023676Y025086D02*
X023490Y025086D01*
X023530Y024987D02*
X023636Y024987D01*
X023636Y024889D02*
X023530Y024889D01*
X023521Y024790D02*
X023645Y024790D01*
X023686Y024692D02*
X023480Y024692D01*
X023408Y024593D02*
X023758Y024593D01*
X023894Y024495D02*
X023272Y024495D01*
X024272Y024495D02*
X024894Y024495D01*
X024830Y024521D02*
X024994Y024453D01*
X025172Y024453D01*
X025336Y024521D01*
X025462Y024647D01*
X025530Y024811D01*
X025530Y024989D01*
X025462Y025153D01*
X025336Y025279D01*
X025172Y025347D01*
X024994Y025347D01*
X024830Y025279D01*
X024704Y025153D01*
X024636Y024989D01*
X024636Y024811D01*
X024704Y024647D01*
X024830Y024521D01*
X024758Y024593D02*
X024408Y024593D01*
X024480Y024692D02*
X024686Y024692D01*
X024645Y024790D02*
X024521Y024790D01*
X024530Y024889D02*
X024636Y024889D01*
X024636Y024987D02*
X024530Y024987D01*
X024490Y025086D02*
X024676Y025086D01*
X024735Y025184D02*
X024431Y025184D01*
X024327Y025283D02*
X024839Y025283D01*
X024930Y025480D02*
X024236Y025480D01*
X024393Y025578D02*
X024773Y025578D01*
X024830Y025521D02*
X024994Y025453D01*
X025172Y025453D01*
X025336Y025521D01*
X025462Y025647D01*
X025530Y025811D01*
X025530Y025989D01*
X025462Y026153D01*
X025336Y026279D01*
X025172Y026347D01*
X024994Y026347D01*
X024830Y026279D01*
X024704Y026153D01*
X024636Y025989D01*
X024636Y025811D01*
X024704Y025647D01*
X024830Y025521D01*
X024692Y025677D02*
X024474Y025677D01*
X024515Y025775D02*
X024651Y025775D01*
X024636Y025874D02*
X024530Y025874D01*
X024530Y025972D02*
X024636Y025972D01*
X024670Y026071D02*
X024496Y026071D01*
X024446Y026169D02*
X024720Y026169D01*
X024819Y026268D02*
X024347Y026268D01*
X025236Y025480D02*
X025930Y025480D01*
X025994Y025453D02*
X026172Y025453D01*
X026336Y025521D01*
X026462Y025647D01*
X026530Y025811D01*
X026530Y025989D01*
X026462Y026153D01*
X026336Y026279D01*
X026172Y026347D01*
X025994Y026347D01*
X025830Y026279D01*
X025704Y026153D01*
X025636Y025989D01*
X025636Y025811D01*
X025704Y025647D01*
X025830Y025521D01*
X025994Y025453D01*
X025994Y025347D02*
X025830Y025279D01*
X025704Y025153D01*
X025636Y024989D01*
X025636Y024811D01*
X025704Y024647D01*
X025830Y024521D01*
X025994Y024453D01*
X026172Y024453D01*
X026336Y024521D01*
X026462Y024647D01*
X026530Y024811D01*
X026530Y024989D01*
X026462Y025153D01*
X026336Y025279D01*
X026172Y025347D01*
X025994Y025347D01*
X025839Y025283D02*
X025327Y025283D01*
X025431Y025184D02*
X025735Y025184D01*
X025676Y025086D02*
X025490Y025086D01*
X025530Y024987D02*
X025636Y024987D01*
X025636Y024889D02*
X025530Y024889D01*
X025521Y024790D02*
X025645Y024790D01*
X025686Y024692D02*
X025480Y024692D01*
X025408Y024593D02*
X025758Y024593D01*
X025894Y024495D02*
X025272Y024495D01*
X026272Y024495D02*
X026894Y024495D01*
X026830Y024521D02*
X026994Y024453D01*
X027172Y024453D01*
X027336Y024521D01*
X027462Y024647D01*
X027530Y024811D01*
X027530Y024989D01*
X027462Y025153D01*
X027336Y025279D01*
X027172Y025347D01*
X026994Y025347D01*
X026830Y025279D01*
X026704Y025153D01*
X026636Y024989D01*
X026636Y024811D01*
X026704Y024647D01*
X026830Y024521D01*
X026758Y024593D02*
X026408Y024593D01*
X026480Y024692D02*
X026686Y024692D01*
X026645Y024790D02*
X026521Y024790D01*
X026530Y024889D02*
X026636Y024889D01*
X026636Y024987D02*
X026530Y024987D01*
X026490Y025086D02*
X026676Y025086D01*
X026735Y025184D02*
X026431Y025184D01*
X026327Y025283D02*
X026839Y025283D01*
X026930Y025480D02*
X026236Y025480D01*
X026393Y025578D02*
X026773Y025578D01*
X026830Y025521D02*
X026994Y025453D01*
X027172Y025453D01*
X027336Y025521D01*
X027462Y025647D01*
X027530Y025811D01*
X027530Y025989D01*
X027462Y026153D01*
X027336Y026279D01*
X027172Y026347D01*
X026994Y026347D01*
X026830Y026279D01*
X026704Y026153D01*
X026636Y025989D01*
X026636Y025811D01*
X026704Y025647D01*
X026830Y025521D01*
X026692Y025677D02*
X026474Y025677D01*
X026515Y025775D02*
X026651Y025775D01*
X026636Y025874D02*
X026530Y025874D01*
X026530Y025972D02*
X026636Y025972D01*
X026670Y026071D02*
X026496Y026071D01*
X026446Y026169D02*
X026720Y026169D01*
X026819Y026268D02*
X026347Y026268D01*
X025819Y026268D02*
X025347Y026268D01*
X025446Y026169D02*
X025720Y026169D01*
X025670Y026071D02*
X025496Y026071D01*
X025530Y025972D02*
X025636Y025972D01*
X025636Y025874D02*
X025530Y025874D01*
X025515Y025775D02*
X025651Y025775D01*
X025692Y025677D02*
X025474Y025677D01*
X025393Y025578D02*
X025773Y025578D01*
X027236Y025480D02*
X027930Y025480D01*
X027994Y025453D02*
X028172Y025453D01*
X028336Y025521D01*
X028462Y025647D01*
X028530Y025811D01*
X028530Y025989D01*
X028462Y026153D01*
X028336Y026279D01*
X028172Y026347D01*
X027994Y026347D01*
X027830Y026279D01*
X027704Y026153D01*
X027636Y025989D01*
X027636Y025811D01*
X027704Y025647D01*
X027830Y025521D01*
X027994Y025453D01*
X027994Y025347D02*
X027830Y025279D01*
X027704Y025153D01*
X027636Y024989D01*
X027636Y024811D01*
X027704Y024647D01*
X027830Y024521D01*
X027994Y024453D01*
X028172Y024453D01*
X028336Y024521D01*
X028462Y024647D01*
X028530Y024811D01*
X028530Y024989D01*
X028462Y025153D01*
X028336Y025279D01*
X028172Y025347D01*
X027994Y025347D01*
X027839Y025283D02*
X027327Y025283D01*
X027431Y025184D02*
X027735Y025184D01*
X027676Y025086D02*
X027490Y025086D01*
X027530Y024987D02*
X027636Y024987D01*
X027636Y024889D02*
X027530Y024889D01*
X027521Y024790D02*
X027645Y024790D01*
X027686Y024692D02*
X027480Y024692D01*
X027408Y024593D02*
X027758Y024593D01*
X027894Y024495D02*
X027272Y024495D01*
X028272Y024495D02*
X028894Y024495D01*
X028830Y024521D02*
X028994Y024453D01*
X029172Y024453D01*
X029336Y024521D01*
X029462Y024647D01*
X029530Y024811D01*
X029530Y024989D01*
X029462Y025153D01*
X029336Y025279D01*
X029172Y025347D01*
X028994Y025347D01*
X028830Y025279D01*
X028704Y025153D01*
X028636Y024989D01*
X028636Y024811D01*
X028704Y024647D01*
X028830Y024521D01*
X028758Y024593D02*
X028408Y024593D01*
X028480Y024692D02*
X028686Y024692D01*
X028645Y024790D02*
X028521Y024790D01*
X028530Y024889D02*
X028636Y024889D01*
X028636Y024987D02*
X028530Y024987D01*
X028490Y025086D02*
X028676Y025086D01*
X028735Y025184D02*
X028431Y025184D01*
X028327Y025283D02*
X028839Y025283D01*
X028930Y025480D02*
X028236Y025480D01*
X028393Y025578D02*
X028773Y025578D01*
X028830Y025521D02*
X028994Y025453D01*
X029172Y025453D01*
X029336Y025521D01*
X029462Y025647D01*
X029530Y025811D01*
X029530Y025989D01*
X029462Y026153D01*
X029336Y026279D01*
X029172Y026347D01*
X028994Y026347D01*
X028830Y026279D01*
X028704Y026153D01*
X028636Y025989D01*
X028636Y025811D01*
X028704Y025647D01*
X028830Y025521D01*
X028692Y025677D02*
X028474Y025677D01*
X028515Y025775D02*
X028651Y025775D01*
X028636Y025874D02*
X028530Y025874D01*
X028530Y025972D02*
X028636Y025972D01*
X028670Y026071D02*
X028496Y026071D01*
X028446Y026169D02*
X028720Y026169D01*
X028819Y026268D02*
X028347Y026268D01*
X027819Y026268D02*
X027347Y026268D01*
X027446Y026169D02*
X027720Y026169D01*
X027670Y026071D02*
X027496Y026071D01*
X027530Y025972D02*
X027636Y025972D01*
X027636Y025874D02*
X027530Y025874D01*
X027515Y025775D02*
X027651Y025775D01*
X027692Y025677D02*
X027474Y025677D01*
X027393Y025578D02*
X027773Y025578D01*
X029236Y025480D02*
X029930Y025480D01*
X029994Y025453D02*
X030172Y025453D01*
X030336Y025521D01*
X030462Y025647D01*
X030530Y025811D01*
X030530Y025989D01*
X030462Y026153D01*
X030336Y026279D01*
X030172Y026347D01*
X029994Y026347D01*
X029830Y026279D01*
X029704Y026153D01*
X029636Y025989D01*
X029636Y025811D01*
X029704Y025647D01*
X029830Y025521D01*
X029994Y025453D01*
X029994Y025347D02*
X029830Y025279D01*
X029704Y025153D01*
X029636Y024989D01*
X029636Y024811D01*
X029704Y024647D01*
X029830Y024521D01*
X029994Y024453D01*
X030172Y024453D01*
X030336Y024521D01*
X030462Y024647D01*
X030530Y024811D01*
X030530Y024989D01*
X030462Y025153D01*
X030336Y025279D01*
X030172Y025347D01*
X029994Y025347D01*
X029839Y025283D02*
X029327Y025283D01*
X029431Y025184D02*
X029735Y025184D01*
X029676Y025086D02*
X029490Y025086D01*
X029530Y024987D02*
X029636Y024987D01*
X029636Y024889D02*
X029530Y024889D01*
X029521Y024790D02*
X029645Y024790D01*
X029686Y024692D02*
X029480Y024692D01*
X029408Y024593D02*
X029758Y024593D01*
X029894Y024495D02*
X029272Y024495D01*
X030272Y024495D02*
X030894Y024495D01*
X030758Y024593D02*
X030408Y024593D01*
X030480Y024692D02*
X030686Y024692D01*
X030645Y024790D02*
X030521Y024790D01*
X030530Y024889D02*
X030636Y024889D01*
X030636Y024987D02*
X030530Y024987D01*
X030490Y025086D02*
X030676Y025086D01*
X030735Y025184D02*
X030431Y025184D01*
X030327Y025283D02*
X030839Y025283D01*
X030930Y025480D02*
X030236Y025480D01*
X030393Y025578D02*
X030773Y025578D01*
X030692Y025677D02*
X030474Y025677D01*
X030515Y025775D02*
X030651Y025775D01*
X030636Y025874D02*
X030530Y025874D01*
X030530Y025972D02*
X030636Y025972D01*
X030670Y026071D02*
X030496Y026071D01*
X030446Y026169D02*
X030720Y026169D01*
X030819Y026268D02*
X030347Y026268D01*
X029819Y026268D02*
X029347Y026268D01*
X029446Y026169D02*
X029720Y026169D01*
X029670Y026071D02*
X029496Y026071D01*
X029530Y025972D02*
X029636Y025972D01*
X029636Y025874D02*
X029530Y025874D01*
X029515Y025775D02*
X029651Y025775D01*
X029692Y025677D02*
X029474Y025677D01*
X029393Y025578D02*
X029773Y025578D01*
X031347Y026268D02*
X031829Y026268D01*
X031849Y026282D02*
X031792Y026241D01*
X031742Y026191D01*
X031701Y026134D01*
X031669Y026072D01*
X031647Y026005D01*
X031638Y025948D01*
X032035Y025948D01*
X032035Y026345D01*
X031978Y026336D01*
X031912Y026314D01*
X031849Y026282D01*
X031726Y026169D02*
X031446Y026169D01*
X031496Y026071D02*
X031669Y026071D01*
X031642Y025972D02*
X031530Y025972D01*
X032035Y025972D02*
X032131Y025972D01*
X032131Y026071D02*
X032035Y026071D01*
X032035Y026169D02*
X032131Y026169D01*
X032131Y026268D02*
X032035Y026268D01*
X032035Y025677D02*
X032131Y025677D01*
X032131Y025578D02*
X032035Y025578D01*
X032035Y025480D02*
X032131Y025480D01*
X032131Y025283D02*
X032035Y025283D01*
X032035Y025184D02*
X032131Y025184D01*
X032131Y025086D02*
X032035Y025086D01*
X029750Y021638D02*
X028161Y021638D01*
X028161Y021540D02*
X029848Y021540D01*
X024944Y013069D02*
X018635Y013069D01*
X018733Y012970D02*
X025043Y012970D01*
X025141Y012872D02*
X018832Y012872D01*
X018930Y012773D02*
X025240Y012773D01*
X025338Y012675D02*
X019029Y012675D01*
X019127Y012576D02*
X025437Y012576D01*
X025535Y012478D02*
X019226Y012478D01*
X019324Y012379D02*
X025634Y012379D01*
X025732Y012281D02*
X019423Y012281D01*
X019521Y012182D02*
X025831Y012182D01*
X025929Y012084D02*
X019620Y012084D01*
X019718Y011985D02*
X026028Y011985D01*
X026126Y011887D02*
X019817Y011887D01*
X019915Y011788D02*
X026225Y011788D01*
X026323Y011690D02*
X020014Y011690D01*
X020112Y011591D02*
X026422Y011591D01*
X026520Y011493D02*
X020497Y011493D01*
X020536Y011394D02*
X026619Y011394D01*
X026717Y011296D02*
X020536Y011296D01*
X020536Y011197D02*
X026816Y011197D01*
X026914Y011099D02*
X020536Y011099D01*
X020536Y011000D02*
X027013Y011000D01*
X027111Y010902D02*
X020466Y010902D01*
X020208Y011213D02*
X018083Y013338D01*
D14*
X030083Y006900D02*
X030083Y005900D01*
X031083Y005900D02*
X031083Y006900D01*
D15*
X014896Y003275D02*
X009333Y003275D01*
X007748Y004860D01*
X007748Y015650D01*
X007748Y019338D01*
X008186Y019775D01*
X010083Y019775D01*
X007748Y019338D02*
X007748Y023025D01*
X007748Y025190D01*
X010458Y027900D01*
D16*
X010458Y027900D03*
X010083Y019775D03*
X014896Y003275D03*
D17*
X019958Y009963D03*
X020208Y011213D03*
X028896Y009400D03*
X030739Y009056D03*
X030708Y020963D03*
X027833Y021400D03*
X014083Y023838D03*
X013896Y022400D03*
X011458Y022900D03*
X010771Y023400D03*
X011208Y010713D03*
M02*
