G75*
%MOIN*%
%OFA0B0*%
%FSLAX24Y24*%
%IPPOS*%
%LPD*%
%AMOC8*
5,1,8,0,0,1.08239X$1,22.5*
%
%ADD10C,0.0000*%
%ADD11C,0.0040*%
%ADD12C,0.0500*%
%ADD13C,0.0100*%
%ADD14R,0.0551X0.0256*%
%ADD15C,0.0060*%
%ADD16C,0.0050*%
%ADD17R,0.0256X0.0551*%
D10*
X002583Y001150D02*
X002583Y030146D01*
X039953Y030146D01*
X039953Y001150D01*
X002583Y001150D01*
X003300Y013878D02*
X003302Y013928D01*
X003308Y013978D01*
X003318Y014027D01*
X003332Y014075D01*
X003349Y014122D01*
X003370Y014167D01*
X003395Y014211D01*
X003423Y014252D01*
X003455Y014291D01*
X003489Y014328D01*
X003526Y014362D01*
X003566Y014392D01*
X003608Y014419D01*
X003652Y014443D01*
X003698Y014464D01*
X003745Y014480D01*
X003793Y014493D01*
X003843Y014502D01*
X003892Y014507D01*
X003943Y014508D01*
X003993Y014505D01*
X004042Y014498D01*
X004091Y014487D01*
X004139Y014472D01*
X004185Y014454D01*
X004230Y014432D01*
X004273Y014406D01*
X004314Y014377D01*
X004353Y014345D01*
X004389Y014310D01*
X004421Y014272D01*
X004451Y014232D01*
X004478Y014189D01*
X004501Y014145D01*
X004520Y014099D01*
X004536Y014051D01*
X004548Y014002D01*
X004556Y013953D01*
X004560Y013903D01*
X004560Y013853D01*
X004556Y013803D01*
X004548Y013754D01*
X004536Y013705D01*
X004520Y013657D01*
X004501Y013611D01*
X004478Y013567D01*
X004451Y013524D01*
X004421Y013484D01*
X004389Y013446D01*
X004353Y013411D01*
X004314Y013379D01*
X004273Y013350D01*
X004230Y013324D01*
X004185Y013302D01*
X004139Y013284D01*
X004091Y013269D01*
X004042Y013258D01*
X003993Y013251D01*
X003943Y013248D01*
X003892Y013249D01*
X003843Y013254D01*
X003793Y013263D01*
X003745Y013276D01*
X003698Y013292D01*
X003652Y013313D01*
X003608Y013337D01*
X003566Y013364D01*
X003526Y013394D01*
X003489Y013428D01*
X003455Y013465D01*
X003423Y013504D01*
X003395Y013545D01*
X003370Y013589D01*
X003349Y013634D01*
X003332Y013681D01*
X003318Y013729D01*
X003308Y013778D01*
X003302Y013828D01*
X003300Y013878D01*
X003300Y017422D02*
X003302Y017472D01*
X003308Y017522D01*
X003318Y017571D01*
X003332Y017619D01*
X003349Y017666D01*
X003370Y017711D01*
X003395Y017755D01*
X003423Y017796D01*
X003455Y017835D01*
X003489Y017872D01*
X003526Y017906D01*
X003566Y017936D01*
X003608Y017963D01*
X003652Y017987D01*
X003698Y018008D01*
X003745Y018024D01*
X003793Y018037D01*
X003843Y018046D01*
X003892Y018051D01*
X003943Y018052D01*
X003993Y018049D01*
X004042Y018042D01*
X004091Y018031D01*
X004139Y018016D01*
X004185Y017998D01*
X004230Y017976D01*
X004273Y017950D01*
X004314Y017921D01*
X004353Y017889D01*
X004389Y017854D01*
X004421Y017816D01*
X004451Y017776D01*
X004478Y017733D01*
X004501Y017689D01*
X004520Y017643D01*
X004536Y017595D01*
X004548Y017546D01*
X004556Y017497D01*
X004560Y017447D01*
X004560Y017397D01*
X004556Y017347D01*
X004548Y017298D01*
X004536Y017249D01*
X004520Y017201D01*
X004501Y017155D01*
X004478Y017111D01*
X004451Y017068D01*
X004421Y017028D01*
X004389Y016990D01*
X004353Y016955D01*
X004314Y016923D01*
X004273Y016894D01*
X004230Y016868D01*
X004185Y016846D01*
X004139Y016828D01*
X004091Y016813D01*
X004042Y016802D01*
X003993Y016795D01*
X003943Y016792D01*
X003892Y016793D01*
X003843Y016798D01*
X003793Y016807D01*
X003745Y016820D01*
X003698Y016836D01*
X003652Y016857D01*
X003608Y016881D01*
X003566Y016908D01*
X003526Y016938D01*
X003489Y016972D01*
X003455Y017009D01*
X003423Y017048D01*
X003395Y017089D01*
X003370Y017133D01*
X003349Y017178D01*
X003332Y017225D01*
X003318Y017273D01*
X003308Y017322D01*
X003302Y017372D01*
X003300Y017422D01*
D11*
X003410Y019539D02*
X003103Y019539D01*
X003410Y019539D02*
X003563Y019692D01*
X003410Y019846D01*
X003103Y019846D01*
X003179Y019999D02*
X003486Y019999D01*
X003563Y020076D01*
X003563Y020229D01*
X003486Y020306D01*
X003486Y020460D02*
X003563Y020536D01*
X003563Y020690D01*
X003486Y020767D01*
X003179Y020767D02*
X003103Y020690D01*
X003103Y020536D01*
X003179Y020460D01*
X003486Y020460D01*
X003179Y020306D02*
X003103Y020229D01*
X003103Y020076D01*
X003179Y019999D01*
X006853Y019377D02*
X006853Y019224D01*
X006929Y019147D01*
X006929Y018994D02*
X006853Y018917D01*
X006853Y018763D01*
X006929Y018687D01*
X007236Y018687D01*
X007313Y018763D01*
X007313Y018917D01*
X007236Y018994D01*
X007236Y018977D02*
X007313Y018900D01*
X007313Y018747D01*
X007236Y018670D01*
X006929Y018670D01*
X006853Y018747D01*
X006853Y018900D01*
X006929Y018977D01*
X007236Y018977D01*
X007313Y018977D02*
X007160Y018823D01*
X007083Y019130D02*
X007083Y019437D01*
X007083Y019377D02*
X007160Y019454D01*
X007236Y019454D01*
X007313Y019377D01*
X007313Y019224D01*
X007236Y019147D01*
X007083Y019130D02*
X006853Y019361D01*
X007313Y019361D01*
X007083Y019377D02*
X007083Y019301D01*
X007083Y019377D02*
X007006Y019454D01*
X006929Y019454D01*
X006853Y019377D01*
X007603Y020073D02*
X008063Y020073D01*
X008063Y019920D02*
X008063Y020227D01*
X007986Y020380D02*
X008063Y020457D01*
X008063Y020611D01*
X007986Y020687D01*
X007910Y020687D01*
X007833Y020611D01*
X007833Y020380D01*
X007986Y020380D01*
X007833Y020380D02*
X007679Y020534D01*
X007603Y020687D01*
X007603Y020073D02*
X007756Y019920D01*
X012045Y022958D02*
X012045Y023418D01*
X012275Y023418D01*
X012352Y023341D01*
X012352Y023188D01*
X012275Y023111D01*
X012045Y023111D01*
X012198Y023111D02*
X012352Y022958D01*
X012505Y022958D02*
X012812Y023264D01*
X012812Y023341D01*
X012735Y023418D01*
X012582Y023418D01*
X012505Y023341D01*
X012505Y022958D02*
X012812Y022958D01*
X014290Y022934D02*
X014367Y022858D01*
X014674Y022858D01*
X014751Y022934D01*
X014751Y023088D01*
X014674Y023164D01*
X014751Y023318D02*
X014751Y023625D01*
X014751Y023471D02*
X014290Y023471D01*
X014444Y023318D01*
X014367Y023164D02*
X014290Y023088D01*
X014290Y022934D01*
X014492Y021392D02*
X014415Y021315D01*
X014415Y021161D01*
X014492Y021085D01*
X014492Y020931D02*
X014415Y020854D01*
X014415Y020701D01*
X014492Y020624D01*
X014799Y020624D01*
X014876Y020701D01*
X014876Y020854D01*
X014799Y020931D01*
X014876Y021085D02*
X014569Y021392D01*
X014492Y021392D01*
X014876Y021392D02*
X014876Y021085D01*
X010831Y023670D02*
X010524Y023670D01*
X010677Y023670D02*
X010677Y024130D01*
X010524Y023977D01*
X010370Y024054D02*
X010294Y024130D01*
X010140Y024130D01*
X010063Y024054D01*
X010063Y023977D01*
X010140Y023900D01*
X010294Y023900D01*
X010370Y023823D01*
X010370Y023747D01*
X010294Y023670D01*
X010140Y023670D01*
X010063Y023747D01*
X009910Y023747D02*
X009910Y024130D01*
X009603Y024130D02*
X009603Y023747D01*
X009680Y023670D01*
X009833Y023670D01*
X009910Y023747D01*
X010217Y023593D02*
X010217Y024207D01*
X007986Y028920D02*
X007603Y028920D01*
X007603Y029227D02*
X007986Y029227D01*
X008063Y029150D01*
X008063Y028997D01*
X007986Y028920D01*
X007986Y029380D02*
X008063Y029457D01*
X008063Y029611D01*
X007986Y029687D01*
X007910Y029687D01*
X007833Y029611D01*
X007833Y029457D01*
X007756Y029380D01*
X007679Y029380D01*
X007603Y029457D01*
X007603Y029611D01*
X007679Y029687D01*
X007756Y029841D02*
X007603Y029994D01*
X008063Y029994D01*
X008063Y029841D02*
X008063Y030148D01*
X007833Y030301D02*
X007833Y030608D01*
X008063Y030531D02*
X007603Y030531D01*
X007833Y030301D01*
X007526Y029534D02*
X008140Y029534D01*
X008543Y016580D02*
X008543Y016273D01*
X008543Y016426D02*
X008083Y016426D01*
X008236Y016273D01*
X008543Y016119D02*
X008543Y015812D01*
X008083Y015812D01*
X008160Y015659D02*
X008083Y015582D01*
X008083Y015352D01*
X008543Y015352D01*
X008390Y015352D02*
X008390Y015582D01*
X008313Y015659D01*
X008160Y015659D01*
X009978Y015321D02*
X009978Y015168D01*
X010054Y015091D01*
X009978Y015321D02*
X010054Y015398D01*
X010131Y015398D01*
X010438Y015091D01*
X010438Y015398D01*
X010438Y014937D02*
X010438Y014630D01*
X010438Y014784D02*
X009978Y014784D01*
X010131Y014630D01*
X010054Y014477D02*
X009978Y014400D01*
X009978Y014247D01*
X010054Y014170D01*
X010361Y014170D01*
X010438Y014247D01*
X010438Y014400D01*
X010361Y014477D01*
X011678Y013030D02*
X011908Y013030D01*
X011985Y012954D01*
X011985Y012800D01*
X011908Y012723D01*
X011678Y012723D01*
X011678Y012570D02*
X011678Y013030D01*
X011832Y012723D02*
X011985Y012570D01*
X012138Y012647D02*
X012215Y012570D01*
X012369Y012570D01*
X012445Y012647D01*
X012445Y012723D01*
X012369Y012800D01*
X012138Y012800D01*
X012138Y012647D01*
X012138Y012800D02*
X012292Y012954D01*
X012445Y013030D01*
X014853Y011679D02*
X014853Y011372D01*
X014930Y011295D01*
X015083Y011295D01*
X015160Y011372D01*
X015313Y011372D02*
X015390Y011295D01*
X015544Y011295D01*
X015620Y011372D01*
X015620Y011525D01*
X015544Y011602D01*
X015467Y011602D01*
X015313Y011525D01*
X015313Y011755D01*
X015620Y011755D01*
X015160Y011679D02*
X015083Y011755D01*
X014930Y011755D01*
X014853Y011679D01*
X014910Y009079D02*
X014833Y009002D01*
X014833Y008772D01*
X014986Y008772D01*
X015063Y008849D01*
X015063Y009002D01*
X014986Y009079D01*
X014910Y009079D01*
X014679Y008926D02*
X014833Y008772D01*
X014986Y008619D02*
X015063Y008542D01*
X015063Y008388D01*
X014986Y008312D01*
X014679Y008312D01*
X014603Y008388D01*
X014603Y008542D01*
X014679Y008619D01*
X014679Y008926D02*
X014603Y009079D01*
X018315Y008987D02*
X018315Y009217D01*
X018392Y009294D01*
X018545Y009294D01*
X018622Y009217D01*
X018622Y008987D01*
X018622Y009140D02*
X018776Y009294D01*
X018788Y009308D02*
X018328Y009308D01*
X018328Y009538D01*
X018404Y009614D01*
X018558Y009614D01*
X018635Y009538D01*
X018635Y009308D01*
X018635Y009461D02*
X018788Y009614D01*
X018776Y009677D02*
X018776Y009524D01*
X018699Y009447D01*
X018545Y009447D02*
X018469Y009601D01*
X018469Y009677D01*
X018545Y009754D01*
X018699Y009754D01*
X018776Y009677D01*
X018558Y009768D02*
X018558Y010075D01*
X018788Y009998D02*
X018328Y009998D01*
X018558Y009768D01*
X018315Y009754D02*
X018315Y009447D01*
X018545Y009447D01*
X018776Y008987D02*
X018315Y008987D01*
X019628Y010987D02*
X019628Y011217D01*
X019704Y011294D01*
X019858Y011294D01*
X019935Y011217D01*
X019935Y010987D01*
X020088Y010987D02*
X019628Y010987D01*
X019935Y011140D02*
X020088Y011294D01*
X020088Y011447D02*
X020088Y011754D01*
X020088Y011601D02*
X019628Y011601D01*
X019781Y011447D01*
X021315Y011524D02*
X021392Y011447D01*
X021315Y011524D02*
X021315Y011677D01*
X021392Y011754D01*
X021469Y011754D01*
X021545Y011677D01*
X021622Y011754D01*
X021699Y011754D01*
X021776Y011677D01*
X021776Y011524D01*
X021699Y011447D01*
X021776Y011294D02*
X021622Y011140D01*
X021622Y011217D02*
X021622Y010987D01*
X021776Y010987D02*
X021315Y010987D01*
X021315Y011217D01*
X021392Y011294D01*
X021545Y011294D01*
X021622Y011217D01*
X021545Y011601D02*
X021545Y011677D01*
X021578Y010012D02*
X021654Y010012D01*
X021961Y009705D01*
X022038Y009705D01*
X022038Y009552D02*
X021885Y009398D01*
X021885Y009475D02*
X021885Y009245D01*
X021776Y009231D02*
X021622Y009078D01*
X021622Y009154D02*
X021622Y008924D01*
X021776Y008924D02*
X021315Y008924D01*
X021315Y009154D01*
X021392Y009231D01*
X021545Y009231D01*
X021622Y009154D01*
X021578Y009245D02*
X021578Y009475D01*
X021654Y009552D01*
X021808Y009552D01*
X021885Y009475D01*
X021776Y009461D02*
X021699Y009385D01*
X021622Y009385D01*
X021545Y009461D01*
X021545Y009615D01*
X021622Y009692D01*
X021699Y009692D01*
X021776Y009615D01*
X021776Y009461D01*
X021545Y009461D02*
X021469Y009385D01*
X021392Y009385D01*
X021315Y009461D01*
X021315Y009615D01*
X021392Y009692D01*
X021469Y009692D01*
X021545Y009615D01*
X021578Y009705D02*
X021578Y010012D01*
X021578Y009245D02*
X022038Y009245D01*
X026534Y008241D02*
X026534Y007934D01*
X026611Y007858D01*
X026765Y007858D01*
X026841Y007934D01*
X026995Y007858D02*
X027302Y007858D01*
X027455Y007858D02*
X027762Y007858D01*
X027609Y007858D02*
X027609Y008318D01*
X027455Y008164D01*
X027148Y008318D02*
X027148Y007858D01*
X026995Y008164D02*
X027148Y008318D01*
X026841Y008241D02*
X026765Y008318D01*
X026611Y008318D01*
X026534Y008241D01*
X028991Y008383D02*
X028991Y008843D01*
X029221Y008843D01*
X029297Y008766D01*
X029297Y008613D01*
X029221Y008536D01*
X028991Y008536D01*
X029144Y008536D02*
X029297Y008383D01*
X029451Y008383D02*
X029758Y008383D01*
X029911Y008383D02*
X030218Y008689D01*
X030218Y008766D01*
X030142Y008843D01*
X029988Y008843D01*
X029911Y008766D01*
X029604Y008843D02*
X029604Y008383D01*
X029911Y008383D02*
X030218Y008383D01*
X029604Y008843D02*
X029451Y008689D01*
X027126Y010434D02*
X027126Y010588D01*
X027049Y010664D01*
X027126Y010818D02*
X027126Y011125D01*
X027126Y010971D02*
X026665Y010971D01*
X026819Y010818D01*
X026742Y010664D02*
X026665Y010588D01*
X026665Y010434D01*
X026742Y010358D01*
X027049Y010358D01*
X027126Y010434D01*
X027049Y011278D02*
X027126Y011355D01*
X027126Y011508D01*
X027049Y011585D01*
X026972Y011585D01*
X026895Y011508D01*
X026895Y011432D01*
X026895Y011508D02*
X026819Y011585D01*
X026742Y011585D01*
X026665Y011508D01*
X026665Y011355D01*
X026742Y011278D01*
X034603Y011153D02*
X035063Y011153D01*
X035063Y011306D02*
X035063Y010999D01*
X034756Y010999D02*
X034603Y011153D01*
X034833Y011460D02*
X034833Y011690D01*
X034910Y011767D01*
X034986Y011767D01*
X035063Y011690D01*
X035063Y011536D01*
X034986Y011460D01*
X034833Y011460D01*
X034679Y011613D01*
X034603Y011767D01*
X035679Y013312D02*
X035603Y013388D01*
X035603Y013542D01*
X035679Y013619D01*
X035986Y013619D01*
X036063Y013542D01*
X036063Y013388D01*
X035986Y013312D01*
X035679Y013312D01*
X035910Y013465D02*
X036063Y013619D01*
X036228Y013588D02*
X036228Y013434D01*
X036304Y013358D01*
X036611Y013358D01*
X036688Y013434D01*
X036688Y013588D01*
X036611Y013664D01*
X036688Y013818D02*
X036688Y014125D01*
X036688Y013971D02*
X036228Y013971D01*
X036381Y013818D01*
X036304Y013664D02*
X036228Y013588D01*
X035986Y013772D02*
X036063Y013849D01*
X036063Y014002D01*
X035986Y014079D01*
X035910Y014079D01*
X035833Y014002D01*
X035833Y013926D01*
X035833Y014002D02*
X035756Y014079D01*
X035679Y014079D01*
X035603Y014002D01*
X035603Y013849D01*
X035679Y013772D01*
X036228Y014355D02*
X036228Y014508D01*
X036304Y014585D01*
X036611Y014278D01*
X036688Y014355D01*
X036688Y014508D01*
X036611Y014585D01*
X036304Y014585D01*
X036228Y014355D02*
X036304Y014278D01*
X036611Y014278D01*
X039103Y012071D02*
X039179Y012148D01*
X039103Y012071D02*
X039103Y011918D01*
X039179Y011841D01*
X039486Y011841D01*
X039563Y011918D01*
X039563Y012071D01*
X039486Y012148D01*
X039486Y011687D02*
X039563Y011611D01*
X039563Y011457D01*
X039486Y011380D01*
X039179Y011380D01*
X039103Y011457D01*
X039103Y011611D01*
X039179Y011687D01*
X039103Y011227D02*
X039410Y011227D01*
X039563Y011073D01*
X039410Y010920D01*
X039103Y010920D01*
X034986Y019039D02*
X034603Y019039D01*
X034603Y019346D02*
X034986Y019346D01*
X035063Y019269D01*
X035063Y019116D01*
X034986Y019039D01*
X034986Y019499D02*
X035063Y019576D01*
X035063Y019729D01*
X034986Y019806D01*
X034910Y019806D01*
X034833Y019729D01*
X034833Y019576D01*
X034756Y019499D01*
X034679Y019499D01*
X034603Y019576D01*
X034603Y019729D01*
X034679Y019806D01*
X034603Y019960D02*
X034833Y019960D01*
X034756Y020113D01*
X034756Y020190D01*
X034833Y020267D01*
X034986Y020267D01*
X035063Y020190D01*
X035063Y020036D01*
X034986Y019960D01*
X035140Y019653D02*
X034526Y019653D01*
X034603Y019960D02*
X034603Y020267D01*
X031620Y020372D02*
X031544Y020295D01*
X031390Y020295D01*
X031313Y020372D01*
X031313Y020448D01*
X031390Y020525D01*
X031544Y020525D01*
X031620Y020448D01*
X031620Y020372D01*
X031544Y020525D02*
X031620Y020602D01*
X031620Y020679D01*
X031544Y020755D01*
X031390Y020755D01*
X031313Y020679D01*
X031313Y020602D01*
X031390Y020525D01*
X031160Y020372D02*
X031083Y020295D01*
X030930Y020295D01*
X030853Y020372D01*
X030853Y020679D01*
X030930Y020755D01*
X031083Y020755D01*
X031160Y020679D01*
X029945Y020579D02*
X029945Y020272D01*
X029869Y020195D01*
X029715Y020195D01*
X029638Y020272D01*
X029485Y020195D02*
X029332Y020348D01*
X029408Y020348D02*
X029178Y020348D01*
X029178Y020195D02*
X029178Y020655D01*
X029408Y020655D01*
X029485Y020579D01*
X029485Y020425D01*
X029408Y020348D01*
X029638Y020502D02*
X029715Y020425D01*
X029945Y020425D01*
X029945Y020579D02*
X029869Y020655D01*
X029715Y020655D01*
X029638Y020579D01*
X029638Y020502D01*
X027501Y022559D02*
X027501Y022713D01*
X027424Y022789D01*
X027424Y022943D02*
X027501Y023020D01*
X027501Y023173D01*
X027424Y023250D01*
X027117Y023250D01*
X027040Y023173D01*
X027040Y023020D01*
X027117Y022943D01*
X027194Y022943D01*
X027270Y023020D01*
X027270Y023250D01*
X027117Y022789D02*
X027040Y022713D01*
X027040Y022559D01*
X027117Y022483D01*
X027424Y022483D01*
X027501Y022559D01*
X030492Y028124D02*
X030415Y028201D01*
X030415Y028354D01*
X030492Y028431D01*
X030799Y028431D01*
X030876Y028354D01*
X030876Y028201D01*
X030799Y028124D01*
X030492Y028124D01*
X030722Y028278D02*
X030876Y028431D01*
X030853Y028400D02*
X030853Y028247D01*
X030929Y028170D01*
X031236Y028170D01*
X031313Y028247D01*
X031313Y028400D01*
X031236Y028477D01*
X031236Y028630D02*
X031313Y028630D01*
X031236Y028630D02*
X030929Y028937D01*
X030853Y028937D01*
X030853Y028630D01*
X030876Y028585D02*
X030569Y028892D01*
X030492Y028892D01*
X030415Y028815D01*
X030415Y028661D01*
X030492Y028585D01*
X030876Y028585D02*
X030876Y028892D01*
X030929Y028477D02*
X030853Y028400D01*
X034603Y028653D02*
X035063Y028653D01*
X035063Y028806D02*
X035063Y028499D01*
X034756Y028499D02*
X034603Y028653D01*
X034833Y028960D02*
X034833Y029190D01*
X034910Y029267D01*
X034986Y029267D01*
X035063Y029190D01*
X035063Y029036D01*
X034986Y028960D01*
X034833Y028960D01*
X034679Y029113D01*
X034603Y029267D01*
X039103Y029418D02*
X039179Y029341D01*
X039486Y029341D01*
X039563Y029418D01*
X039563Y029571D01*
X039486Y029648D01*
X039179Y029648D02*
X039103Y029571D01*
X039103Y029418D01*
X039179Y029187D02*
X039103Y029111D01*
X039103Y028957D01*
X039179Y028880D01*
X039486Y028880D01*
X039563Y028957D01*
X039563Y029111D01*
X039486Y029187D01*
X039410Y028727D02*
X039103Y028727D01*
X039410Y028727D02*
X039563Y028573D01*
X039410Y028420D01*
X039103Y028420D01*
X010677Y009130D02*
X010677Y008670D01*
X010524Y008670D02*
X010831Y008670D01*
X010524Y008977D02*
X010677Y009130D01*
X010370Y009054D02*
X010294Y009130D01*
X010140Y009130D01*
X010063Y009054D01*
X010063Y008977D01*
X010140Y008900D01*
X010294Y008900D01*
X010370Y008823D01*
X010370Y008747D01*
X010294Y008670D01*
X010140Y008670D01*
X010063Y008747D01*
X009910Y008747D02*
X009910Y009130D01*
X009603Y009130D02*
X009603Y008747D01*
X009680Y008670D01*
X009833Y008670D01*
X009910Y008747D01*
X010217Y008593D02*
X010217Y009207D01*
X008063Y010997D02*
X008063Y011150D01*
X007986Y011227D01*
X007603Y011227D01*
X007679Y011380D02*
X007603Y011457D01*
X007603Y011611D01*
X007679Y011687D01*
X007679Y011841D02*
X007603Y011918D01*
X007603Y012071D01*
X007679Y012148D01*
X007756Y012148D01*
X008063Y011841D01*
X008063Y012148D01*
X007986Y011687D02*
X007910Y011687D01*
X007833Y011611D01*
X007833Y011457D01*
X007756Y011380D01*
X007679Y011380D01*
X007526Y011534D02*
X008140Y011534D01*
X008063Y011611D02*
X007986Y011687D01*
X008063Y011611D02*
X008063Y011457D01*
X007986Y011380D01*
X008063Y010997D02*
X007986Y010920D01*
X007603Y010920D01*
X009833Y003000D02*
X009833Y002693D01*
X009603Y002923D01*
X010063Y002923D01*
X009986Y002539D02*
X010063Y002463D01*
X010063Y002309D01*
X009986Y002233D01*
X009679Y002233D01*
X009603Y002309D01*
X009603Y002463D01*
X009679Y002539D01*
X008063Y002611D02*
X008063Y002457D01*
X007986Y002380D01*
X007833Y002380D01*
X007833Y002611D01*
X007910Y002687D01*
X007986Y002687D01*
X008063Y002611D01*
X007833Y002380D02*
X007679Y002534D01*
X007603Y002687D01*
X008063Y002227D02*
X008063Y001920D01*
X008063Y002073D02*
X007603Y002073D01*
X007756Y001920D01*
X011478Y001997D02*
X011478Y002150D01*
X011554Y002227D01*
X011861Y002227D01*
X011938Y002150D01*
X011938Y001997D01*
X011861Y001920D01*
X011554Y001920D01*
X011478Y001997D01*
X011785Y002073D02*
X011938Y002227D01*
X011938Y002380D02*
X011938Y002687D01*
X011938Y002534D02*
X011478Y002534D01*
X011631Y002380D01*
X003563Y002229D02*
X003563Y002076D01*
X003486Y001999D01*
X003179Y001999D01*
X003103Y002076D01*
X003103Y002229D01*
X003179Y002306D01*
X003179Y002460D02*
X003486Y002460D01*
X003563Y002536D01*
X003563Y002690D01*
X003486Y002767D01*
X003179Y002767D02*
X003103Y002690D01*
X003103Y002536D01*
X003179Y002460D01*
X003486Y002306D02*
X003563Y002229D01*
X003410Y001846D02*
X003103Y001846D01*
X003410Y001846D02*
X003563Y001692D01*
X003410Y001539D01*
X003103Y001539D01*
X034526Y002153D02*
X035140Y002153D01*
X035063Y002076D02*
X035063Y002229D01*
X034986Y002306D01*
X034910Y002306D01*
X034833Y002229D01*
X034833Y002076D01*
X034756Y001999D01*
X034679Y001999D01*
X034603Y002076D01*
X034603Y002229D01*
X034679Y002306D01*
X034603Y002460D02*
X034603Y002767D01*
X034679Y002767D01*
X034986Y002460D01*
X035063Y002460D01*
X035063Y002076D02*
X034986Y001999D01*
X034986Y001846D02*
X034603Y001846D01*
X034603Y001539D02*
X034986Y001539D01*
X035063Y001616D01*
X035063Y001769D01*
X034986Y001846D01*
D12*
X007394Y015650D02*
X005937Y015650D01*
D13*
X006016Y014587D02*
X005150Y014587D01*
X002748Y014587D02*
X002748Y012619D01*
X005229Y012619D01*
X005229Y018681D01*
X002748Y018681D01*
X002748Y016713D01*
X000150Y016713D01*
X000150Y014587D01*
X002748Y014587D01*
D14*
X017896Y009880D03*
X017896Y009300D03*
X019207Y009295D03*
X019207Y009875D03*
X020896Y009817D03*
X020896Y009237D03*
X022457Y009233D03*
X022457Y009813D03*
X020896Y011300D03*
X020896Y011880D03*
X019209Y011880D03*
X019209Y011300D03*
D15*
X019333Y007400D02*
X018833Y007400D01*
X018583Y007150D01*
X018583Y005650D01*
X018333Y005400D01*
X017833Y005400D01*
X017583Y005650D01*
X017583Y007150D01*
X017833Y007400D01*
X018333Y007400D01*
X018583Y007150D01*
X019333Y007400D02*
X019583Y007150D01*
X019583Y005650D01*
X019333Y005400D01*
X018833Y005400D01*
X018583Y005650D01*
X017583Y005650D02*
X017333Y005400D01*
X016833Y005400D01*
X016583Y005650D01*
X016583Y007150D01*
X016833Y007400D01*
X017333Y007400D01*
X017583Y007150D01*
X016583Y007150D02*
X016333Y007400D01*
X015833Y007400D01*
X015583Y007150D01*
X015583Y005650D01*
X015833Y005400D01*
X016333Y005400D01*
X016583Y005650D01*
X015583Y005650D02*
X015333Y005400D01*
X014833Y005400D01*
X014583Y005650D01*
X014583Y007150D01*
X014833Y007400D01*
X015333Y007400D01*
X015583Y007150D01*
X014583Y007150D02*
X014333Y007400D01*
X013833Y007400D01*
X013583Y007150D01*
X013583Y005650D01*
X013833Y005400D01*
X014333Y005400D01*
X014583Y005650D01*
X013583Y005650D02*
X013333Y005400D01*
X012833Y005400D01*
X012583Y005650D01*
X012583Y007150D01*
X012833Y007400D01*
X013333Y007400D01*
X013583Y007150D01*
X012583Y007150D02*
X012333Y007400D01*
X011833Y007400D01*
X011583Y007150D01*
X011583Y005650D01*
X011833Y005400D01*
X012333Y005400D01*
X012583Y005650D01*
X011583Y005650D02*
X011333Y005400D01*
X010833Y005400D01*
X010583Y005650D01*
X010583Y007150D01*
X010833Y007400D01*
X011333Y007400D01*
X011583Y007150D01*
X010583Y007150D02*
X010333Y007400D01*
X009833Y007400D01*
X009583Y007150D01*
X009583Y005650D01*
X009833Y005400D01*
X010333Y005400D01*
X010583Y005650D01*
X019583Y005650D02*
X019833Y005400D01*
X020333Y005400D01*
X020583Y005650D01*
X020583Y007150D01*
X020833Y007400D01*
X021333Y007400D01*
X021583Y007150D01*
X021583Y005650D01*
X021333Y005400D01*
X020833Y005400D01*
X020583Y005650D01*
X021583Y005650D02*
X021833Y005400D01*
X022333Y005400D01*
X022583Y005650D01*
X022583Y007150D01*
X022833Y007400D01*
X023333Y007400D01*
X023583Y007150D01*
X023583Y005650D01*
X023333Y005400D01*
X022833Y005400D01*
X022583Y005650D01*
X023583Y005650D02*
X023833Y005400D01*
X024333Y005400D01*
X024583Y005650D01*
X024583Y007150D01*
X024833Y007400D01*
X025333Y007400D01*
X025583Y007150D01*
X025833Y007400D01*
X026333Y007400D01*
X026583Y007150D01*
X026833Y007400D01*
X027333Y007400D01*
X027583Y007150D01*
X027833Y007400D01*
X028333Y007400D01*
X028583Y007150D01*
X028833Y007400D01*
X029333Y007400D01*
X029583Y007150D01*
X029833Y007400D01*
X030333Y007400D01*
X030583Y007150D01*
X030833Y007400D01*
X031333Y007400D01*
X031583Y007150D01*
X031833Y007400D01*
X032333Y007400D01*
X032583Y007150D01*
X032583Y005650D01*
X032333Y005400D01*
X031833Y005400D01*
X031583Y005650D01*
X031583Y007150D01*
X030583Y007150D02*
X030583Y005650D01*
X030833Y005400D01*
X031333Y005400D01*
X031583Y005650D01*
X030583Y005650D02*
X030333Y005400D01*
X029833Y005400D01*
X029583Y005650D01*
X029583Y007150D01*
X028583Y007150D02*
X028583Y005650D01*
X028833Y005400D01*
X029333Y005400D01*
X029583Y005650D01*
X028583Y005650D02*
X028333Y005400D01*
X027833Y005400D01*
X027583Y005650D01*
X027583Y007150D01*
X026583Y007150D02*
X026583Y005650D01*
X026833Y005400D01*
X027333Y005400D01*
X027583Y005650D01*
X026583Y005650D02*
X026333Y005400D01*
X025833Y005400D01*
X025583Y005650D01*
X025583Y007150D01*
X024583Y007150D02*
X024333Y007400D01*
X023833Y007400D01*
X023583Y007150D01*
X022583Y007150D02*
X022333Y007400D01*
X021833Y007400D01*
X021583Y007150D01*
X020583Y007150D02*
X020333Y007400D01*
X019833Y007400D01*
X019583Y007150D01*
X024583Y005650D02*
X024833Y005400D01*
X025333Y005400D01*
X025583Y005650D01*
X025333Y024400D02*
X024833Y024400D01*
X024583Y024650D01*
X024583Y026150D01*
X024833Y026400D01*
X025333Y026400D01*
X025583Y026150D01*
X025833Y026400D01*
X026333Y026400D01*
X026583Y026150D01*
X026833Y026400D01*
X027333Y026400D01*
X027583Y026150D01*
X027833Y026400D01*
X028333Y026400D01*
X028583Y026150D01*
X028833Y026400D01*
X029333Y026400D01*
X029583Y026150D01*
X029833Y026400D01*
X030333Y026400D01*
X030583Y026150D01*
X030833Y026400D01*
X031333Y026400D01*
X031583Y026150D01*
X031833Y026400D01*
X032333Y026400D01*
X032583Y026150D01*
X032583Y024650D01*
X032333Y024400D01*
X031833Y024400D01*
X031583Y024650D01*
X031583Y026150D01*
X030583Y026150D02*
X030583Y024650D01*
X030833Y024400D01*
X031333Y024400D01*
X031583Y024650D01*
X030583Y024650D02*
X030333Y024400D01*
X029833Y024400D01*
X029583Y024650D01*
X029583Y026150D01*
X028583Y026150D02*
X028583Y024650D01*
X028833Y024400D01*
X029333Y024400D01*
X029583Y024650D01*
X028583Y024650D02*
X028333Y024400D01*
X027833Y024400D01*
X027583Y024650D01*
X027583Y026150D01*
X026583Y026150D02*
X026583Y024650D01*
X026833Y024400D01*
X027333Y024400D01*
X027583Y024650D01*
X026583Y024650D02*
X026333Y024400D01*
X025833Y024400D01*
X025583Y024650D01*
X025583Y026150D01*
X024583Y026150D02*
X024333Y026400D01*
X023833Y026400D01*
X023583Y026150D01*
X023583Y024650D01*
X023333Y024400D01*
X022833Y024400D01*
X022583Y024650D01*
X022583Y026150D01*
X022833Y026400D01*
X023333Y026400D01*
X023583Y026150D01*
X022583Y026150D02*
X022333Y026400D01*
X021833Y026400D01*
X021583Y026150D01*
X021583Y024650D01*
X021333Y024400D01*
X020833Y024400D01*
X020583Y024650D01*
X020583Y026150D01*
X020833Y026400D01*
X021333Y026400D01*
X021583Y026150D01*
X020583Y026150D02*
X020333Y026400D01*
X019833Y026400D01*
X019583Y026150D01*
X019583Y024650D01*
X019333Y024400D01*
X018833Y024400D01*
X018583Y024650D01*
X018583Y026150D01*
X018833Y026400D01*
X019333Y026400D01*
X019583Y026150D01*
X018583Y026150D02*
X018333Y026400D01*
X017833Y026400D01*
X017583Y026150D01*
X017583Y024650D01*
X017333Y024400D01*
X016833Y024400D01*
X016583Y024650D01*
X016583Y026150D01*
X016833Y026400D01*
X017333Y026400D01*
X017583Y026150D01*
X016583Y026150D02*
X016333Y026400D01*
X015833Y026400D01*
X015583Y026150D01*
X015583Y024650D01*
X015833Y024400D01*
X016333Y024400D01*
X016583Y024650D01*
X015583Y024650D02*
X015333Y024400D01*
X014833Y024400D01*
X014583Y024650D01*
X014583Y026150D01*
X014833Y026400D01*
X015333Y026400D01*
X015583Y026150D01*
X014583Y026150D02*
X014333Y026400D01*
X013833Y026400D01*
X013583Y026150D01*
X013583Y024650D01*
X013833Y024400D01*
X014333Y024400D01*
X014583Y024650D01*
X013583Y024650D02*
X013333Y024400D01*
X012833Y024400D01*
X012583Y024650D01*
X012583Y026150D01*
X012833Y026400D01*
X013333Y026400D01*
X013583Y026150D01*
X012583Y026150D02*
X012333Y026400D01*
X011833Y026400D01*
X011583Y026150D01*
X011583Y024650D01*
X011833Y024400D01*
X012333Y024400D01*
X012583Y024650D01*
X011583Y024650D02*
X011333Y024400D01*
X010833Y024400D01*
X010583Y024650D01*
X010583Y026150D01*
X010833Y026400D01*
X011333Y026400D01*
X011583Y026150D01*
X010583Y026150D02*
X010333Y026400D01*
X009833Y026400D01*
X009583Y026150D01*
X009583Y024650D01*
X009833Y024400D01*
X010333Y024400D01*
X010583Y024650D01*
X017583Y024650D02*
X017833Y024400D01*
X018333Y024400D01*
X018583Y024650D01*
X019583Y024650D02*
X019833Y024400D01*
X020333Y024400D01*
X020583Y024650D01*
X021583Y024650D02*
X021833Y024400D01*
X022333Y024400D01*
X022583Y024650D01*
X023583Y024650D02*
X023833Y024400D01*
X024333Y024400D01*
X024583Y024650D01*
X025333Y024400D02*
X025583Y024650D01*
D16*
X029908Y023135D02*
X029908Y023007D01*
X029908Y023135D02*
X032083Y023135D01*
X032083Y023007D01*
X031571Y021215D02*
X031569Y021195D01*
X031565Y021175D01*
X031557Y021157D01*
X031547Y021140D01*
X031534Y021124D01*
X031518Y021111D01*
X031501Y021101D01*
X031483Y021093D01*
X031463Y021089D01*
X031443Y021087D01*
X031571Y021215D02*
X031569Y021235D01*
X031565Y021255D01*
X031557Y021273D01*
X031547Y021290D01*
X031534Y021306D01*
X031518Y021319D01*
X031501Y021329D01*
X031483Y021337D01*
X031463Y021341D01*
X031443Y021343D01*
X031423Y021341D01*
X031403Y021337D01*
X031385Y021329D01*
X031368Y021319D01*
X031352Y021306D01*
X031339Y021290D01*
X031329Y021273D01*
X031321Y021255D01*
X031317Y021235D01*
X031315Y021215D01*
X031317Y021195D01*
X031321Y021175D01*
X031329Y021157D01*
X031339Y021140D01*
X031352Y021124D01*
X031368Y021111D01*
X031385Y021101D01*
X031403Y021093D01*
X031423Y021089D01*
X031443Y021087D01*
X032083Y020960D02*
X032083Y020832D01*
X029908Y020832D01*
X029908Y020960D01*
X035311Y020910D02*
X035311Y019630D01*
X038855Y019630D01*
X038855Y020910D01*
X038855Y028390D02*
X038855Y029571D01*
X035311Y029571D01*
X035311Y028390D01*
X035311Y012071D02*
X035311Y010890D01*
X035311Y012071D02*
X038855Y012071D01*
X038855Y010890D01*
X031896Y010819D02*
X031896Y010947D01*
X029720Y010947D01*
X029720Y010819D01*
X031384Y009028D02*
X031382Y009008D01*
X031378Y008988D01*
X031370Y008970D01*
X031360Y008953D01*
X031347Y008937D01*
X031331Y008924D01*
X031314Y008914D01*
X031296Y008906D01*
X031276Y008902D01*
X031256Y008900D01*
X031384Y009028D02*
X031382Y009048D01*
X031378Y009068D01*
X031370Y009086D01*
X031360Y009103D01*
X031347Y009119D01*
X031331Y009132D01*
X031314Y009142D01*
X031296Y009150D01*
X031276Y009154D01*
X031256Y009156D01*
X031236Y009154D01*
X031216Y009150D01*
X031198Y009142D01*
X031181Y009132D01*
X031165Y009119D01*
X031152Y009103D01*
X031142Y009086D01*
X031134Y009068D01*
X031130Y009048D01*
X031128Y009028D01*
X031130Y009008D01*
X031134Y008988D01*
X031142Y008970D01*
X031152Y008953D01*
X031165Y008937D01*
X031181Y008924D01*
X031198Y008914D01*
X031216Y008906D01*
X031236Y008902D01*
X031256Y008900D01*
X031896Y008772D02*
X031896Y008644D01*
X029720Y008644D01*
X029720Y008772D01*
X035311Y003410D02*
X035311Y002130D01*
X038855Y002130D01*
X038855Y003410D01*
X012258Y008603D02*
X012258Y008731D01*
X012258Y008603D02*
X010083Y008603D01*
X010083Y008731D01*
X010595Y010522D02*
X010597Y010542D01*
X010601Y010562D01*
X010609Y010580D01*
X010619Y010597D01*
X010632Y010613D01*
X010648Y010626D01*
X010665Y010636D01*
X010683Y010644D01*
X010703Y010648D01*
X010723Y010650D01*
X010595Y010522D02*
X010597Y010502D01*
X010601Y010482D01*
X010609Y010464D01*
X010619Y010447D01*
X010632Y010431D01*
X010648Y010418D01*
X010665Y010408D01*
X010683Y010400D01*
X010703Y010396D01*
X010723Y010394D01*
X010743Y010396D01*
X010763Y010400D01*
X010781Y010408D01*
X010798Y010418D01*
X010814Y010431D01*
X010827Y010447D01*
X010837Y010464D01*
X010845Y010482D01*
X010849Y010502D01*
X010851Y010522D01*
X010849Y010542D01*
X010845Y010562D01*
X010837Y010580D01*
X010827Y010597D01*
X010814Y010613D01*
X010798Y010626D01*
X010781Y010636D01*
X010763Y010644D01*
X010743Y010648D01*
X010723Y010650D01*
X010083Y010778D02*
X010083Y010906D01*
X012258Y010906D01*
X012258Y010778D01*
X007355Y010390D02*
X007355Y011670D01*
X003811Y011670D01*
X003811Y010390D01*
X003811Y002910D02*
X003811Y001729D01*
X007355Y001729D01*
X007355Y002910D01*
X007355Y019729D02*
X003811Y019729D01*
X003811Y020910D01*
X007355Y020910D02*
X007355Y019729D01*
X010021Y020915D02*
X012196Y020915D01*
X012196Y021043D01*
X010021Y021043D02*
X010021Y020915D01*
X010532Y022835D02*
X010534Y022855D01*
X010538Y022875D01*
X010546Y022893D01*
X010556Y022910D01*
X010569Y022926D01*
X010585Y022939D01*
X010602Y022949D01*
X010620Y022957D01*
X010640Y022961D01*
X010660Y022963D01*
X010532Y022835D02*
X010534Y022815D01*
X010538Y022795D01*
X010546Y022777D01*
X010556Y022760D01*
X010569Y022744D01*
X010585Y022731D01*
X010602Y022721D01*
X010620Y022713D01*
X010640Y022709D01*
X010660Y022707D01*
X010680Y022709D01*
X010700Y022713D01*
X010718Y022721D01*
X010735Y022731D01*
X010751Y022744D01*
X010764Y022760D01*
X010774Y022777D01*
X010782Y022795D01*
X010786Y022815D01*
X010788Y022835D01*
X010786Y022855D01*
X010782Y022875D01*
X010774Y022893D01*
X010764Y022910D01*
X010751Y022926D01*
X010735Y022939D01*
X010718Y022949D01*
X010700Y022957D01*
X010680Y022961D01*
X010660Y022963D01*
X010021Y023090D02*
X010021Y023218D01*
X012196Y023218D01*
X012196Y023090D01*
X007355Y028390D02*
X007355Y029670D01*
X003811Y029670D01*
X003811Y028390D01*
D17*
X012358Y023837D03*
X012938Y023837D03*
X012246Y012151D03*
X011666Y012151D03*
X028979Y007963D03*
X029559Y007963D03*
X029746Y019776D03*
X029166Y019776D03*
M02*
