G75*
%MOIN*%
%OFA0B0*%
%FSLAX24Y24*%
%IPPOS*%
%LPD*%
%AMOC8*
5,1,8,0,0,1.08239X$1,22.5*
%
%ADD10R,0.0591X0.0512*%
%ADD11R,0.0551X0.0394*%
%ADD12R,0.0551X0.0433*%
%ADD13R,0.1890X0.0350*%
%ADD14R,0.0610X0.0118*%
%ADD15R,0.0433X0.0551*%
%ADD16R,0.0512X0.0591*%
D10*
X010583Y002338D03*
X010583Y003087D03*
X014083Y008338D03*
X014083Y009087D03*
X010958Y014276D03*
X010958Y015024D03*
X006333Y018713D03*
X006333Y019462D03*
X013896Y020651D03*
X013896Y021399D03*
X015271Y022963D03*
X015271Y023712D03*
X028021Y023337D03*
X028021Y022588D03*
X031833Y028276D03*
X031833Y029024D03*
X037208Y014212D03*
X037208Y013463D03*
X027646Y011212D03*
X027646Y010463D03*
D11*
X034400Y013088D03*
X034400Y013837D03*
X035266Y013463D03*
X029213Y027901D03*
X030079Y028275D03*
X029213Y028649D03*
X008516Y019774D03*
X008516Y019026D03*
X007650Y019400D03*
X013141Y003024D03*
X013141Y002276D03*
X012275Y002650D03*
D12*
X017896Y009194D03*
X017896Y009981D03*
X019208Y009981D03*
X019208Y009194D03*
X020896Y009131D03*
X020896Y009919D03*
X022458Y009919D03*
X022458Y009131D03*
X020896Y011194D03*
X020896Y011981D03*
X019208Y011981D03*
X019208Y011194D03*
D13*
X004274Y003150D03*
X004274Y004150D03*
X004274Y005150D03*
X004274Y006150D03*
X004274Y007150D03*
X004274Y008150D03*
X004274Y009150D03*
X004274Y010150D03*
X006833Y010150D03*
X006833Y009150D03*
X006833Y008150D03*
X006833Y007150D03*
X006833Y006150D03*
X006833Y005150D03*
X006833Y004150D03*
X006833Y003150D03*
X006833Y021150D03*
X006833Y022150D03*
X006833Y023150D03*
X006833Y024150D03*
X006833Y025150D03*
X006833Y026150D03*
X006833Y027150D03*
X006833Y028150D03*
X004274Y028150D03*
X004274Y027150D03*
X004274Y026150D03*
X004274Y025150D03*
X004274Y024150D03*
X004274Y023150D03*
X004274Y022150D03*
X004274Y021150D03*
X035833Y021150D03*
X035833Y022150D03*
X035833Y023150D03*
X035833Y024150D03*
X035833Y025150D03*
X035833Y026150D03*
X035833Y027150D03*
X035833Y028150D03*
X038392Y028150D03*
X038392Y027150D03*
X038392Y026150D03*
X038392Y025150D03*
X038392Y024150D03*
X038392Y023150D03*
X038392Y022150D03*
X038392Y021150D03*
X038392Y010650D03*
X038392Y009650D03*
X038392Y008650D03*
X038392Y007650D03*
X038392Y006650D03*
X038392Y005650D03*
X038392Y004650D03*
X038392Y003650D03*
X035833Y003650D03*
X035833Y004650D03*
X035833Y005650D03*
X035833Y006650D03*
X035833Y007650D03*
X035833Y008650D03*
X035833Y009650D03*
X035833Y010650D03*
D14*
X031896Y010691D03*
X031896Y010435D03*
X031896Y010180D03*
X031896Y009924D03*
X031896Y009668D03*
X031896Y009412D03*
X031896Y009156D03*
X031896Y008900D03*
X029691Y008900D03*
X029691Y009156D03*
X029691Y009412D03*
X029691Y009668D03*
X029691Y009924D03*
X029691Y010180D03*
X029691Y010435D03*
X029691Y010691D03*
X029878Y021088D03*
X029878Y021343D03*
X029878Y021599D03*
X029878Y021855D03*
X029878Y022111D03*
X029878Y022367D03*
X029878Y022623D03*
X029878Y022879D03*
X032083Y022879D03*
X032083Y022623D03*
X032083Y022367D03*
X032083Y022111D03*
X032083Y021855D03*
X032083Y021599D03*
X032083Y021343D03*
X032083Y021088D03*
X012225Y021171D03*
X012225Y021427D03*
X012225Y021683D03*
X012225Y021939D03*
X012225Y022195D03*
X012225Y022451D03*
X012225Y022707D03*
X012225Y022963D03*
X010021Y022963D03*
X010021Y022707D03*
X010021Y022451D03*
X010021Y022195D03*
X010021Y021939D03*
X010021Y021683D03*
X010021Y021427D03*
X010021Y021171D03*
X010083Y010650D03*
X010083Y010394D03*
X010083Y010138D03*
X010083Y009882D03*
X010083Y009626D03*
X010083Y009370D03*
X010083Y009115D03*
X010083Y008859D03*
X012288Y008859D03*
X012288Y009115D03*
X012288Y009370D03*
X012288Y009626D03*
X012288Y009882D03*
X012288Y010138D03*
X012288Y010394D03*
X012288Y010650D03*
D15*
X012352Y012150D03*
X011564Y012150D03*
X012252Y023838D03*
X013039Y023838D03*
X029064Y019775D03*
X029852Y019775D03*
X029664Y007963D03*
X028877Y007963D03*
D16*
X027770Y008838D03*
X027022Y008838D03*
X015707Y010775D03*
X014959Y010775D03*
X030959Y019775D03*
X031707Y019775D03*
M02*
