G75*
%MOIN*%
%OFA0B0*%
%FSLAX24Y24*%
%IPPOS*%
%LPD*%
%AMOC8*
5,1,8,0,0,1.08239X$1,22.5*
%
%ADD10R,0.0907X0.0907*%
%ADD11C,0.1340*%
%ADD12R,0.0674X0.0674*%
%ADD13C,0.0674*%
%ADD14R,0.0730X0.0730*%
%ADD15R,0.0437X0.0437*%
D10*
X005583Y015650D03*
X007748Y015650D03*
D11*
X003930Y013878D03*
X003930Y017422D03*
D12*
X010083Y005900D03*
X010083Y024900D03*
D13*
X010083Y025900D03*
X011083Y025900D03*
X012083Y025900D03*
X012083Y024900D03*
X011083Y024900D03*
X013083Y024900D03*
X014083Y024900D03*
X014083Y025900D03*
X013083Y025900D03*
X015083Y025900D03*
X016083Y025900D03*
X017083Y025900D03*
X017083Y024900D03*
X016083Y024900D03*
X015083Y024900D03*
X018083Y024900D03*
X019083Y024900D03*
X019083Y025900D03*
X018083Y025900D03*
X020083Y025900D03*
X021083Y025900D03*
X021083Y024900D03*
X020083Y024900D03*
X022083Y024900D03*
X023083Y024900D03*
X023083Y025900D03*
X022083Y025900D03*
X024083Y025900D03*
X025083Y025900D03*
X025083Y024900D03*
X024083Y024900D03*
X026083Y024900D03*
X027083Y024900D03*
X028083Y024900D03*
X028083Y025900D03*
X027083Y025900D03*
X026083Y025900D03*
X029083Y025900D03*
X030083Y025900D03*
X030083Y024900D03*
X029083Y024900D03*
X031083Y024900D03*
X032083Y024900D03*
X032083Y025900D03*
X031083Y025900D03*
X031083Y006900D03*
X032083Y006900D03*
X032083Y005900D03*
X031083Y005900D03*
X030083Y005900D03*
X029083Y005900D03*
X028083Y005900D03*
X027083Y005900D03*
X026083Y005900D03*
X025083Y005900D03*
X024083Y005900D03*
X023083Y005900D03*
X022083Y005900D03*
X021083Y005900D03*
X020083Y005900D03*
X019083Y005900D03*
X018083Y005900D03*
X017083Y005900D03*
X016083Y005900D03*
X015083Y005900D03*
X014083Y005900D03*
X013083Y005900D03*
X012083Y005900D03*
X011083Y005900D03*
X011083Y006900D03*
X012083Y006900D03*
X013083Y006900D03*
X014083Y006900D03*
X015083Y006900D03*
X016083Y006900D03*
X017083Y006900D03*
X018083Y006900D03*
X019083Y006900D03*
X020083Y006900D03*
X021083Y006900D03*
X022083Y006900D03*
X023083Y006900D03*
X024083Y006900D03*
X025083Y006900D03*
X026083Y006900D03*
X027083Y006900D03*
X028083Y006900D03*
X029083Y006900D03*
X030083Y006900D03*
X010083Y006900D03*
D14*
X014896Y003275D03*
X010083Y019775D03*
X010458Y027900D03*
D15*
X014083Y023838D03*
X013896Y022400D03*
X011458Y022900D03*
X010771Y023400D03*
X020208Y011213D03*
X019958Y009963D03*
X011208Y010713D03*
X027833Y021400D03*
X030708Y020963D03*
X028896Y009400D03*
X030739Y009056D03*
M02*
