G75*
%MOIN*%
%OFA0B0*%
%FSLAX24Y24*%
%IPPOS*%
%LPD*%
%AMOC8*
5,1,8,0,0,1.08239X$1,22.5*
%
%ADD10C,0.0000*%
%ADD11C,0.0040*%
%ADD12C,0.0060*%
%ADD13C,0.0050*%
D10*
X001708Y002271D02*
X001771Y029579D01*
X040391Y029517D01*
X040328Y002208D01*
X001708Y002271D01*
X005681Y003930D02*
X005683Y003980D01*
X005689Y004030D01*
X005699Y004079D01*
X005713Y004127D01*
X005730Y004174D01*
X005751Y004219D01*
X005776Y004263D01*
X005804Y004304D01*
X005836Y004343D01*
X005870Y004380D01*
X005907Y004414D01*
X005947Y004444D01*
X005989Y004471D01*
X006033Y004495D01*
X006079Y004516D01*
X006126Y004532D01*
X006174Y004545D01*
X006224Y004554D01*
X006273Y004559D01*
X006324Y004560D01*
X006374Y004557D01*
X006423Y004550D01*
X006472Y004539D01*
X006520Y004524D01*
X006566Y004506D01*
X006611Y004484D01*
X006654Y004458D01*
X006695Y004429D01*
X006734Y004397D01*
X006770Y004362D01*
X006802Y004324D01*
X006832Y004284D01*
X006859Y004241D01*
X006882Y004197D01*
X006901Y004151D01*
X006917Y004103D01*
X006929Y004054D01*
X006937Y004005D01*
X006941Y003955D01*
X006941Y003905D01*
X006937Y003855D01*
X006929Y003806D01*
X006917Y003757D01*
X006901Y003709D01*
X006882Y003663D01*
X006859Y003619D01*
X006832Y003576D01*
X006802Y003536D01*
X006770Y003498D01*
X006734Y003463D01*
X006695Y003431D01*
X006654Y003402D01*
X006611Y003376D01*
X006566Y003354D01*
X006520Y003336D01*
X006472Y003321D01*
X006423Y003310D01*
X006374Y003303D01*
X006324Y003300D01*
X006273Y003301D01*
X006224Y003306D01*
X006174Y003315D01*
X006126Y003328D01*
X006079Y003344D01*
X006033Y003365D01*
X005989Y003389D01*
X005947Y003416D01*
X005907Y003446D01*
X005870Y003480D01*
X005836Y003517D01*
X005804Y003556D01*
X005776Y003597D01*
X005751Y003641D01*
X005730Y003686D01*
X005713Y003733D01*
X005699Y003781D01*
X005689Y003830D01*
X005683Y003880D01*
X005681Y003930D01*
X009225Y003930D02*
X009227Y003980D01*
X009233Y004030D01*
X009243Y004079D01*
X009257Y004127D01*
X009274Y004174D01*
X009295Y004219D01*
X009320Y004263D01*
X009348Y004304D01*
X009380Y004343D01*
X009414Y004380D01*
X009451Y004414D01*
X009491Y004444D01*
X009533Y004471D01*
X009577Y004495D01*
X009623Y004516D01*
X009670Y004532D01*
X009718Y004545D01*
X009768Y004554D01*
X009817Y004559D01*
X009868Y004560D01*
X009918Y004557D01*
X009967Y004550D01*
X010016Y004539D01*
X010064Y004524D01*
X010110Y004506D01*
X010155Y004484D01*
X010198Y004458D01*
X010239Y004429D01*
X010278Y004397D01*
X010314Y004362D01*
X010346Y004324D01*
X010376Y004284D01*
X010403Y004241D01*
X010426Y004197D01*
X010445Y004151D01*
X010461Y004103D01*
X010473Y004054D01*
X010481Y004005D01*
X010485Y003955D01*
X010485Y003905D01*
X010481Y003855D01*
X010473Y003806D01*
X010461Y003757D01*
X010445Y003709D01*
X010426Y003663D01*
X010403Y003619D01*
X010376Y003576D01*
X010346Y003536D01*
X010314Y003498D01*
X010278Y003463D01*
X010239Y003431D01*
X010198Y003402D01*
X010155Y003376D01*
X010110Y003354D01*
X010064Y003336D01*
X010016Y003321D01*
X009967Y003310D01*
X009918Y003303D01*
X009868Y003300D01*
X009817Y003301D01*
X009768Y003306D01*
X009718Y003315D01*
X009670Y003328D01*
X009623Y003344D01*
X009577Y003365D01*
X009533Y003389D01*
X009491Y003416D01*
X009451Y003446D01*
X009414Y003480D01*
X009380Y003517D01*
X009348Y003556D01*
X009320Y003597D01*
X009295Y003641D01*
X009274Y003686D01*
X009257Y003733D01*
X009243Y003781D01*
X009233Y003830D01*
X009227Y003880D01*
X009225Y003930D01*
X012681Y003930D02*
X012683Y003980D01*
X012689Y004030D01*
X012699Y004079D01*
X012713Y004127D01*
X012730Y004174D01*
X012751Y004219D01*
X012776Y004263D01*
X012804Y004304D01*
X012836Y004343D01*
X012870Y004380D01*
X012907Y004414D01*
X012947Y004444D01*
X012989Y004471D01*
X013033Y004495D01*
X013079Y004516D01*
X013126Y004532D01*
X013174Y004545D01*
X013224Y004554D01*
X013273Y004559D01*
X013324Y004560D01*
X013374Y004557D01*
X013423Y004550D01*
X013472Y004539D01*
X013520Y004524D01*
X013566Y004506D01*
X013611Y004484D01*
X013654Y004458D01*
X013695Y004429D01*
X013734Y004397D01*
X013770Y004362D01*
X013802Y004324D01*
X013832Y004284D01*
X013859Y004241D01*
X013882Y004197D01*
X013901Y004151D01*
X013917Y004103D01*
X013929Y004054D01*
X013937Y004005D01*
X013941Y003955D01*
X013941Y003905D01*
X013937Y003855D01*
X013929Y003806D01*
X013917Y003757D01*
X013901Y003709D01*
X013882Y003663D01*
X013859Y003619D01*
X013832Y003576D01*
X013802Y003536D01*
X013770Y003498D01*
X013734Y003463D01*
X013695Y003431D01*
X013654Y003402D01*
X013611Y003376D01*
X013566Y003354D01*
X013520Y003336D01*
X013472Y003321D01*
X013423Y003310D01*
X013374Y003303D01*
X013324Y003300D01*
X013273Y003301D01*
X013224Y003306D01*
X013174Y003315D01*
X013126Y003328D01*
X013079Y003344D01*
X013033Y003365D01*
X012989Y003389D01*
X012947Y003416D01*
X012907Y003446D01*
X012870Y003480D01*
X012836Y003517D01*
X012804Y003556D01*
X012776Y003597D01*
X012751Y003641D01*
X012730Y003686D01*
X012713Y003733D01*
X012699Y003781D01*
X012689Y003830D01*
X012683Y003880D01*
X012681Y003930D01*
X016225Y003930D02*
X016227Y003980D01*
X016233Y004030D01*
X016243Y004079D01*
X016257Y004127D01*
X016274Y004174D01*
X016295Y004219D01*
X016320Y004263D01*
X016348Y004304D01*
X016380Y004343D01*
X016414Y004380D01*
X016451Y004414D01*
X016491Y004444D01*
X016533Y004471D01*
X016577Y004495D01*
X016623Y004516D01*
X016670Y004532D01*
X016718Y004545D01*
X016768Y004554D01*
X016817Y004559D01*
X016868Y004560D01*
X016918Y004557D01*
X016967Y004550D01*
X017016Y004539D01*
X017064Y004524D01*
X017110Y004506D01*
X017155Y004484D01*
X017198Y004458D01*
X017239Y004429D01*
X017278Y004397D01*
X017314Y004362D01*
X017346Y004324D01*
X017376Y004284D01*
X017403Y004241D01*
X017426Y004197D01*
X017445Y004151D01*
X017461Y004103D01*
X017473Y004054D01*
X017481Y004005D01*
X017485Y003955D01*
X017485Y003905D01*
X017481Y003855D01*
X017473Y003806D01*
X017461Y003757D01*
X017445Y003709D01*
X017426Y003663D01*
X017403Y003619D01*
X017376Y003576D01*
X017346Y003536D01*
X017314Y003498D01*
X017278Y003463D01*
X017239Y003431D01*
X017198Y003402D01*
X017155Y003376D01*
X017110Y003354D01*
X017064Y003336D01*
X017016Y003321D01*
X016967Y003310D01*
X016918Y003303D01*
X016868Y003300D01*
X016817Y003301D01*
X016768Y003306D01*
X016718Y003315D01*
X016670Y003328D01*
X016623Y003344D01*
X016577Y003365D01*
X016533Y003389D01*
X016491Y003416D01*
X016451Y003446D01*
X016414Y003480D01*
X016380Y003517D01*
X016348Y003556D01*
X016320Y003597D01*
X016295Y003641D01*
X016274Y003686D01*
X016257Y003733D01*
X016243Y003781D01*
X016233Y003830D01*
X016227Y003880D01*
X016225Y003930D01*
X019681Y003930D02*
X019683Y003980D01*
X019689Y004030D01*
X019699Y004079D01*
X019713Y004127D01*
X019730Y004174D01*
X019751Y004219D01*
X019776Y004263D01*
X019804Y004304D01*
X019836Y004343D01*
X019870Y004380D01*
X019907Y004414D01*
X019947Y004444D01*
X019989Y004471D01*
X020033Y004495D01*
X020079Y004516D01*
X020126Y004532D01*
X020174Y004545D01*
X020224Y004554D01*
X020273Y004559D01*
X020324Y004560D01*
X020374Y004557D01*
X020423Y004550D01*
X020472Y004539D01*
X020520Y004524D01*
X020566Y004506D01*
X020611Y004484D01*
X020654Y004458D01*
X020695Y004429D01*
X020734Y004397D01*
X020770Y004362D01*
X020802Y004324D01*
X020832Y004284D01*
X020859Y004241D01*
X020882Y004197D01*
X020901Y004151D01*
X020917Y004103D01*
X020929Y004054D01*
X020937Y004005D01*
X020941Y003955D01*
X020941Y003905D01*
X020937Y003855D01*
X020929Y003806D01*
X020917Y003757D01*
X020901Y003709D01*
X020882Y003663D01*
X020859Y003619D01*
X020832Y003576D01*
X020802Y003536D01*
X020770Y003498D01*
X020734Y003463D01*
X020695Y003431D01*
X020654Y003402D01*
X020611Y003376D01*
X020566Y003354D01*
X020520Y003336D01*
X020472Y003321D01*
X020423Y003310D01*
X020374Y003303D01*
X020324Y003300D01*
X020273Y003301D01*
X020224Y003306D01*
X020174Y003315D01*
X020126Y003328D01*
X020079Y003344D01*
X020033Y003365D01*
X019989Y003389D01*
X019947Y003416D01*
X019907Y003446D01*
X019870Y003480D01*
X019836Y003517D01*
X019804Y003556D01*
X019776Y003597D01*
X019751Y003641D01*
X019730Y003686D01*
X019713Y003733D01*
X019699Y003781D01*
X019689Y003830D01*
X019683Y003880D01*
X019681Y003930D01*
X023225Y003930D02*
X023227Y003980D01*
X023233Y004030D01*
X023243Y004079D01*
X023257Y004127D01*
X023274Y004174D01*
X023295Y004219D01*
X023320Y004263D01*
X023348Y004304D01*
X023380Y004343D01*
X023414Y004380D01*
X023451Y004414D01*
X023491Y004444D01*
X023533Y004471D01*
X023577Y004495D01*
X023623Y004516D01*
X023670Y004532D01*
X023718Y004545D01*
X023768Y004554D01*
X023817Y004559D01*
X023868Y004560D01*
X023918Y004557D01*
X023967Y004550D01*
X024016Y004539D01*
X024064Y004524D01*
X024110Y004506D01*
X024155Y004484D01*
X024198Y004458D01*
X024239Y004429D01*
X024278Y004397D01*
X024314Y004362D01*
X024346Y004324D01*
X024376Y004284D01*
X024403Y004241D01*
X024426Y004197D01*
X024445Y004151D01*
X024461Y004103D01*
X024473Y004054D01*
X024481Y004005D01*
X024485Y003955D01*
X024485Y003905D01*
X024481Y003855D01*
X024473Y003806D01*
X024461Y003757D01*
X024445Y003709D01*
X024426Y003663D01*
X024403Y003619D01*
X024376Y003576D01*
X024346Y003536D01*
X024314Y003498D01*
X024278Y003463D01*
X024239Y003431D01*
X024198Y003402D01*
X024155Y003376D01*
X024110Y003354D01*
X024064Y003336D01*
X024016Y003321D01*
X023967Y003310D01*
X023918Y003303D01*
X023868Y003300D01*
X023817Y003301D01*
X023768Y003306D01*
X023718Y003315D01*
X023670Y003328D01*
X023623Y003344D01*
X023577Y003365D01*
X023533Y003389D01*
X023491Y003416D01*
X023451Y003446D01*
X023414Y003480D01*
X023380Y003517D01*
X023348Y003556D01*
X023320Y003597D01*
X023295Y003641D01*
X023274Y003686D01*
X023257Y003733D01*
X023243Y003781D01*
X023233Y003830D01*
X023227Y003880D01*
X023225Y003930D01*
X026681Y003930D02*
X026683Y003980D01*
X026689Y004030D01*
X026699Y004079D01*
X026713Y004127D01*
X026730Y004174D01*
X026751Y004219D01*
X026776Y004263D01*
X026804Y004304D01*
X026836Y004343D01*
X026870Y004380D01*
X026907Y004414D01*
X026947Y004444D01*
X026989Y004471D01*
X027033Y004495D01*
X027079Y004516D01*
X027126Y004532D01*
X027174Y004545D01*
X027224Y004554D01*
X027273Y004559D01*
X027324Y004560D01*
X027374Y004557D01*
X027423Y004550D01*
X027472Y004539D01*
X027520Y004524D01*
X027566Y004506D01*
X027611Y004484D01*
X027654Y004458D01*
X027695Y004429D01*
X027734Y004397D01*
X027770Y004362D01*
X027802Y004324D01*
X027832Y004284D01*
X027859Y004241D01*
X027882Y004197D01*
X027901Y004151D01*
X027917Y004103D01*
X027929Y004054D01*
X027937Y004005D01*
X027941Y003955D01*
X027941Y003905D01*
X027937Y003855D01*
X027929Y003806D01*
X027917Y003757D01*
X027901Y003709D01*
X027882Y003663D01*
X027859Y003619D01*
X027832Y003576D01*
X027802Y003536D01*
X027770Y003498D01*
X027734Y003463D01*
X027695Y003431D01*
X027654Y003402D01*
X027611Y003376D01*
X027566Y003354D01*
X027520Y003336D01*
X027472Y003321D01*
X027423Y003310D01*
X027374Y003303D01*
X027324Y003300D01*
X027273Y003301D01*
X027224Y003306D01*
X027174Y003315D01*
X027126Y003328D01*
X027079Y003344D01*
X027033Y003365D01*
X026989Y003389D01*
X026947Y003416D01*
X026907Y003446D01*
X026870Y003480D01*
X026836Y003517D01*
X026804Y003556D01*
X026776Y003597D01*
X026751Y003641D01*
X026730Y003686D01*
X026713Y003733D01*
X026699Y003781D01*
X026689Y003830D01*
X026683Y003880D01*
X026681Y003930D01*
X030225Y003930D02*
X030227Y003980D01*
X030233Y004030D01*
X030243Y004079D01*
X030257Y004127D01*
X030274Y004174D01*
X030295Y004219D01*
X030320Y004263D01*
X030348Y004304D01*
X030380Y004343D01*
X030414Y004380D01*
X030451Y004414D01*
X030491Y004444D01*
X030533Y004471D01*
X030577Y004495D01*
X030623Y004516D01*
X030670Y004532D01*
X030718Y004545D01*
X030768Y004554D01*
X030817Y004559D01*
X030868Y004560D01*
X030918Y004557D01*
X030967Y004550D01*
X031016Y004539D01*
X031064Y004524D01*
X031110Y004506D01*
X031155Y004484D01*
X031198Y004458D01*
X031239Y004429D01*
X031278Y004397D01*
X031314Y004362D01*
X031346Y004324D01*
X031376Y004284D01*
X031403Y004241D01*
X031426Y004197D01*
X031445Y004151D01*
X031461Y004103D01*
X031473Y004054D01*
X031481Y004005D01*
X031485Y003955D01*
X031485Y003905D01*
X031481Y003855D01*
X031473Y003806D01*
X031461Y003757D01*
X031445Y003709D01*
X031426Y003663D01*
X031403Y003619D01*
X031376Y003576D01*
X031346Y003536D01*
X031314Y003498D01*
X031278Y003463D01*
X031239Y003431D01*
X031198Y003402D01*
X031155Y003376D01*
X031110Y003354D01*
X031064Y003336D01*
X031016Y003321D01*
X030967Y003310D01*
X030918Y003303D01*
X030868Y003300D01*
X030817Y003301D01*
X030768Y003306D01*
X030718Y003315D01*
X030670Y003328D01*
X030623Y003344D01*
X030577Y003365D01*
X030533Y003389D01*
X030491Y003416D01*
X030451Y003446D01*
X030414Y003480D01*
X030380Y003517D01*
X030348Y003556D01*
X030320Y003597D01*
X030295Y003641D01*
X030274Y003686D01*
X030257Y003733D01*
X030243Y003781D01*
X030233Y003830D01*
X030227Y003880D01*
X030225Y003930D01*
X033681Y003930D02*
X033683Y003980D01*
X033689Y004030D01*
X033699Y004079D01*
X033713Y004127D01*
X033730Y004174D01*
X033751Y004219D01*
X033776Y004263D01*
X033804Y004304D01*
X033836Y004343D01*
X033870Y004380D01*
X033907Y004414D01*
X033947Y004444D01*
X033989Y004471D01*
X034033Y004495D01*
X034079Y004516D01*
X034126Y004532D01*
X034174Y004545D01*
X034224Y004554D01*
X034273Y004559D01*
X034324Y004560D01*
X034374Y004557D01*
X034423Y004550D01*
X034472Y004539D01*
X034520Y004524D01*
X034566Y004506D01*
X034611Y004484D01*
X034654Y004458D01*
X034695Y004429D01*
X034734Y004397D01*
X034770Y004362D01*
X034802Y004324D01*
X034832Y004284D01*
X034859Y004241D01*
X034882Y004197D01*
X034901Y004151D01*
X034917Y004103D01*
X034929Y004054D01*
X034937Y004005D01*
X034941Y003955D01*
X034941Y003905D01*
X034937Y003855D01*
X034929Y003806D01*
X034917Y003757D01*
X034901Y003709D01*
X034882Y003663D01*
X034859Y003619D01*
X034832Y003576D01*
X034802Y003536D01*
X034770Y003498D01*
X034734Y003463D01*
X034695Y003431D01*
X034654Y003402D01*
X034611Y003376D01*
X034566Y003354D01*
X034520Y003336D01*
X034472Y003321D01*
X034423Y003310D01*
X034374Y003303D01*
X034324Y003300D01*
X034273Y003301D01*
X034224Y003306D01*
X034174Y003315D01*
X034126Y003328D01*
X034079Y003344D01*
X034033Y003365D01*
X033989Y003389D01*
X033947Y003416D01*
X033907Y003446D01*
X033870Y003480D01*
X033836Y003517D01*
X033804Y003556D01*
X033776Y003597D01*
X033751Y003641D01*
X033730Y003686D01*
X033713Y003733D01*
X033699Y003781D01*
X033689Y003830D01*
X033683Y003880D01*
X033681Y003930D01*
X037225Y003930D02*
X037227Y003980D01*
X037233Y004030D01*
X037243Y004079D01*
X037257Y004127D01*
X037274Y004174D01*
X037295Y004219D01*
X037320Y004263D01*
X037348Y004304D01*
X037380Y004343D01*
X037414Y004380D01*
X037451Y004414D01*
X037491Y004444D01*
X037533Y004471D01*
X037577Y004495D01*
X037623Y004516D01*
X037670Y004532D01*
X037718Y004545D01*
X037768Y004554D01*
X037817Y004559D01*
X037868Y004560D01*
X037918Y004557D01*
X037967Y004550D01*
X038016Y004539D01*
X038064Y004524D01*
X038110Y004506D01*
X038155Y004484D01*
X038198Y004458D01*
X038239Y004429D01*
X038278Y004397D01*
X038314Y004362D01*
X038346Y004324D01*
X038376Y004284D01*
X038403Y004241D01*
X038426Y004197D01*
X038445Y004151D01*
X038461Y004103D01*
X038473Y004054D01*
X038481Y004005D01*
X038485Y003955D01*
X038485Y003905D01*
X038481Y003855D01*
X038473Y003806D01*
X038461Y003757D01*
X038445Y003709D01*
X038426Y003663D01*
X038403Y003619D01*
X038376Y003576D01*
X038346Y003536D01*
X038314Y003498D01*
X038278Y003463D01*
X038239Y003431D01*
X038198Y003402D01*
X038155Y003376D01*
X038110Y003354D01*
X038064Y003336D01*
X038016Y003321D01*
X037967Y003310D01*
X037918Y003303D01*
X037868Y003300D01*
X037817Y003301D01*
X037768Y003306D01*
X037718Y003315D01*
X037670Y003328D01*
X037623Y003344D01*
X037577Y003365D01*
X037533Y003389D01*
X037491Y003416D01*
X037451Y003446D01*
X037414Y003480D01*
X037380Y003517D01*
X037348Y003556D01*
X037320Y003597D01*
X037295Y003641D01*
X037274Y003686D01*
X037257Y003733D01*
X037243Y003781D01*
X037233Y003830D01*
X037227Y003880D01*
X037225Y003930D01*
X038107Y008985D02*
X038109Y009035D01*
X038115Y009085D01*
X038125Y009134D01*
X038139Y009182D01*
X038156Y009229D01*
X038177Y009274D01*
X038202Y009318D01*
X038230Y009359D01*
X038262Y009398D01*
X038296Y009435D01*
X038333Y009469D01*
X038373Y009499D01*
X038415Y009526D01*
X038459Y009550D01*
X038505Y009571D01*
X038552Y009587D01*
X038600Y009600D01*
X038650Y009609D01*
X038699Y009614D01*
X038750Y009615D01*
X038800Y009612D01*
X038849Y009605D01*
X038898Y009594D01*
X038946Y009579D01*
X038992Y009561D01*
X039037Y009539D01*
X039080Y009513D01*
X039121Y009484D01*
X039160Y009452D01*
X039196Y009417D01*
X039228Y009379D01*
X039258Y009339D01*
X039285Y009296D01*
X039308Y009252D01*
X039327Y009206D01*
X039343Y009158D01*
X039355Y009109D01*
X039363Y009060D01*
X039367Y009010D01*
X039367Y008960D01*
X039363Y008910D01*
X039355Y008861D01*
X039343Y008812D01*
X039327Y008764D01*
X039308Y008718D01*
X039285Y008674D01*
X039258Y008631D01*
X039228Y008591D01*
X039196Y008553D01*
X039160Y008518D01*
X039121Y008486D01*
X039080Y008457D01*
X039037Y008431D01*
X038992Y008409D01*
X038946Y008391D01*
X038898Y008376D01*
X038849Y008365D01*
X038800Y008358D01*
X038750Y008355D01*
X038699Y008356D01*
X038650Y008361D01*
X038600Y008370D01*
X038552Y008383D01*
X038505Y008399D01*
X038459Y008420D01*
X038415Y008444D01*
X038373Y008471D01*
X038333Y008501D01*
X038296Y008535D01*
X038262Y008572D01*
X038230Y008611D01*
X038202Y008652D01*
X038177Y008696D01*
X038156Y008741D01*
X038139Y008788D01*
X038125Y008836D01*
X038115Y008885D01*
X038109Y008935D01*
X038107Y008985D01*
X038107Y014181D02*
X038109Y014231D01*
X038115Y014281D01*
X038125Y014330D01*
X038139Y014378D01*
X038156Y014425D01*
X038177Y014470D01*
X038202Y014514D01*
X038230Y014555D01*
X038262Y014594D01*
X038296Y014631D01*
X038333Y014665D01*
X038373Y014695D01*
X038415Y014722D01*
X038459Y014746D01*
X038505Y014767D01*
X038552Y014783D01*
X038600Y014796D01*
X038650Y014805D01*
X038699Y014810D01*
X038750Y014811D01*
X038800Y014808D01*
X038849Y014801D01*
X038898Y014790D01*
X038946Y014775D01*
X038992Y014757D01*
X039037Y014735D01*
X039080Y014709D01*
X039121Y014680D01*
X039160Y014648D01*
X039196Y014613D01*
X039228Y014575D01*
X039258Y014535D01*
X039285Y014492D01*
X039308Y014448D01*
X039327Y014402D01*
X039343Y014354D01*
X039355Y014305D01*
X039363Y014256D01*
X039367Y014206D01*
X039367Y014156D01*
X039363Y014106D01*
X039355Y014057D01*
X039343Y014008D01*
X039327Y013960D01*
X039308Y013914D01*
X039285Y013870D01*
X039258Y013827D01*
X039228Y013787D01*
X039196Y013749D01*
X039160Y013714D01*
X039121Y013682D01*
X039080Y013653D01*
X039037Y013627D01*
X038992Y013605D01*
X038946Y013587D01*
X038898Y013572D01*
X038849Y013561D01*
X038800Y013554D01*
X038750Y013551D01*
X038699Y013552D01*
X038650Y013557D01*
X038600Y013566D01*
X038552Y013579D01*
X038505Y013595D01*
X038459Y013616D01*
X038415Y013640D01*
X038373Y013667D01*
X038333Y013697D01*
X038296Y013731D01*
X038262Y013768D01*
X038230Y013807D01*
X038202Y013848D01*
X038177Y013892D01*
X038156Y013937D01*
X038139Y013984D01*
X038125Y014032D01*
X038115Y014081D01*
X038109Y014131D01*
X038107Y014181D01*
X038107Y017985D02*
X038109Y018035D01*
X038115Y018085D01*
X038125Y018134D01*
X038139Y018182D01*
X038156Y018229D01*
X038177Y018274D01*
X038202Y018318D01*
X038230Y018359D01*
X038262Y018398D01*
X038296Y018435D01*
X038333Y018469D01*
X038373Y018499D01*
X038415Y018526D01*
X038459Y018550D01*
X038505Y018571D01*
X038552Y018587D01*
X038600Y018600D01*
X038650Y018609D01*
X038699Y018614D01*
X038750Y018615D01*
X038800Y018612D01*
X038849Y018605D01*
X038898Y018594D01*
X038946Y018579D01*
X038992Y018561D01*
X039037Y018539D01*
X039080Y018513D01*
X039121Y018484D01*
X039160Y018452D01*
X039196Y018417D01*
X039228Y018379D01*
X039258Y018339D01*
X039285Y018296D01*
X039308Y018252D01*
X039327Y018206D01*
X039343Y018158D01*
X039355Y018109D01*
X039363Y018060D01*
X039367Y018010D01*
X039367Y017960D01*
X039363Y017910D01*
X039355Y017861D01*
X039343Y017812D01*
X039327Y017764D01*
X039308Y017718D01*
X039285Y017674D01*
X039258Y017631D01*
X039228Y017591D01*
X039196Y017553D01*
X039160Y017518D01*
X039121Y017486D01*
X039080Y017457D01*
X039037Y017431D01*
X038992Y017409D01*
X038946Y017391D01*
X038898Y017376D01*
X038849Y017365D01*
X038800Y017358D01*
X038750Y017355D01*
X038699Y017356D01*
X038650Y017361D01*
X038600Y017370D01*
X038552Y017383D01*
X038505Y017399D01*
X038459Y017420D01*
X038415Y017444D01*
X038373Y017471D01*
X038333Y017501D01*
X038296Y017535D01*
X038262Y017572D01*
X038230Y017611D01*
X038202Y017652D01*
X038177Y017696D01*
X038156Y017741D01*
X038139Y017788D01*
X038125Y017836D01*
X038115Y017885D01*
X038109Y017935D01*
X038107Y017985D01*
X038107Y023181D02*
X038109Y023231D01*
X038115Y023281D01*
X038125Y023330D01*
X038139Y023378D01*
X038156Y023425D01*
X038177Y023470D01*
X038202Y023514D01*
X038230Y023555D01*
X038262Y023594D01*
X038296Y023631D01*
X038333Y023665D01*
X038373Y023695D01*
X038415Y023722D01*
X038459Y023746D01*
X038505Y023767D01*
X038552Y023783D01*
X038600Y023796D01*
X038650Y023805D01*
X038699Y023810D01*
X038750Y023811D01*
X038800Y023808D01*
X038849Y023801D01*
X038898Y023790D01*
X038946Y023775D01*
X038992Y023757D01*
X039037Y023735D01*
X039080Y023709D01*
X039121Y023680D01*
X039160Y023648D01*
X039196Y023613D01*
X039228Y023575D01*
X039258Y023535D01*
X039285Y023492D01*
X039308Y023448D01*
X039327Y023402D01*
X039343Y023354D01*
X039355Y023305D01*
X039363Y023256D01*
X039367Y023206D01*
X039367Y023156D01*
X039363Y023106D01*
X039355Y023057D01*
X039343Y023008D01*
X039327Y022960D01*
X039308Y022914D01*
X039285Y022870D01*
X039258Y022827D01*
X039228Y022787D01*
X039196Y022749D01*
X039160Y022714D01*
X039121Y022682D01*
X039080Y022653D01*
X039037Y022627D01*
X038992Y022605D01*
X038946Y022587D01*
X038898Y022572D01*
X038849Y022561D01*
X038800Y022554D01*
X038750Y022551D01*
X038699Y022552D01*
X038650Y022557D01*
X038600Y022566D01*
X038552Y022579D01*
X038505Y022595D01*
X038459Y022616D01*
X038415Y022640D01*
X038373Y022667D01*
X038333Y022697D01*
X038296Y022731D01*
X038262Y022768D01*
X038230Y022807D01*
X038202Y022848D01*
X038177Y022892D01*
X038156Y022937D01*
X038139Y022984D01*
X038125Y023032D01*
X038115Y023081D01*
X038109Y023131D01*
X038107Y023181D01*
X037225Y027737D02*
X037227Y027787D01*
X037233Y027837D01*
X037243Y027886D01*
X037257Y027934D01*
X037274Y027981D01*
X037295Y028026D01*
X037320Y028070D01*
X037348Y028111D01*
X037380Y028150D01*
X037414Y028187D01*
X037451Y028221D01*
X037491Y028251D01*
X037533Y028278D01*
X037577Y028302D01*
X037623Y028323D01*
X037670Y028339D01*
X037718Y028352D01*
X037768Y028361D01*
X037817Y028366D01*
X037868Y028367D01*
X037918Y028364D01*
X037967Y028357D01*
X038016Y028346D01*
X038064Y028331D01*
X038110Y028313D01*
X038155Y028291D01*
X038198Y028265D01*
X038239Y028236D01*
X038278Y028204D01*
X038314Y028169D01*
X038346Y028131D01*
X038376Y028091D01*
X038403Y028048D01*
X038426Y028004D01*
X038445Y027958D01*
X038461Y027910D01*
X038473Y027861D01*
X038481Y027812D01*
X038485Y027762D01*
X038485Y027712D01*
X038481Y027662D01*
X038473Y027613D01*
X038461Y027564D01*
X038445Y027516D01*
X038426Y027470D01*
X038403Y027426D01*
X038376Y027383D01*
X038346Y027343D01*
X038314Y027305D01*
X038278Y027270D01*
X038239Y027238D01*
X038198Y027209D01*
X038155Y027183D01*
X038110Y027161D01*
X038064Y027143D01*
X038016Y027128D01*
X037967Y027117D01*
X037918Y027110D01*
X037868Y027107D01*
X037817Y027108D01*
X037768Y027113D01*
X037718Y027122D01*
X037670Y027135D01*
X037623Y027151D01*
X037577Y027172D01*
X037533Y027196D01*
X037491Y027223D01*
X037451Y027253D01*
X037414Y027287D01*
X037380Y027324D01*
X037348Y027363D01*
X037320Y027404D01*
X037295Y027448D01*
X037274Y027493D01*
X037257Y027540D01*
X037243Y027588D01*
X037233Y027637D01*
X037227Y027687D01*
X037225Y027737D01*
X033681Y027737D02*
X033683Y027787D01*
X033689Y027837D01*
X033699Y027886D01*
X033713Y027934D01*
X033730Y027981D01*
X033751Y028026D01*
X033776Y028070D01*
X033804Y028111D01*
X033836Y028150D01*
X033870Y028187D01*
X033907Y028221D01*
X033947Y028251D01*
X033989Y028278D01*
X034033Y028302D01*
X034079Y028323D01*
X034126Y028339D01*
X034174Y028352D01*
X034224Y028361D01*
X034273Y028366D01*
X034324Y028367D01*
X034374Y028364D01*
X034423Y028357D01*
X034472Y028346D01*
X034520Y028331D01*
X034566Y028313D01*
X034611Y028291D01*
X034654Y028265D01*
X034695Y028236D01*
X034734Y028204D01*
X034770Y028169D01*
X034802Y028131D01*
X034832Y028091D01*
X034859Y028048D01*
X034882Y028004D01*
X034901Y027958D01*
X034917Y027910D01*
X034929Y027861D01*
X034937Y027812D01*
X034941Y027762D01*
X034941Y027712D01*
X034937Y027662D01*
X034929Y027613D01*
X034917Y027564D01*
X034901Y027516D01*
X034882Y027470D01*
X034859Y027426D01*
X034832Y027383D01*
X034802Y027343D01*
X034770Y027305D01*
X034734Y027270D01*
X034695Y027238D01*
X034654Y027209D01*
X034611Y027183D01*
X034566Y027161D01*
X034520Y027143D01*
X034472Y027128D01*
X034423Y027117D01*
X034374Y027110D01*
X034324Y027107D01*
X034273Y027108D01*
X034224Y027113D01*
X034174Y027122D01*
X034126Y027135D01*
X034079Y027151D01*
X034033Y027172D01*
X033989Y027196D01*
X033947Y027223D01*
X033907Y027253D01*
X033870Y027287D01*
X033836Y027324D01*
X033804Y027363D01*
X033776Y027404D01*
X033751Y027448D01*
X033730Y027493D01*
X033713Y027540D01*
X033699Y027588D01*
X033689Y027637D01*
X033683Y027687D01*
X033681Y027737D01*
X030225Y027737D02*
X030227Y027787D01*
X030233Y027837D01*
X030243Y027886D01*
X030257Y027934D01*
X030274Y027981D01*
X030295Y028026D01*
X030320Y028070D01*
X030348Y028111D01*
X030380Y028150D01*
X030414Y028187D01*
X030451Y028221D01*
X030491Y028251D01*
X030533Y028278D01*
X030577Y028302D01*
X030623Y028323D01*
X030670Y028339D01*
X030718Y028352D01*
X030768Y028361D01*
X030817Y028366D01*
X030868Y028367D01*
X030918Y028364D01*
X030967Y028357D01*
X031016Y028346D01*
X031064Y028331D01*
X031110Y028313D01*
X031155Y028291D01*
X031198Y028265D01*
X031239Y028236D01*
X031278Y028204D01*
X031314Y028169D01*
X031346Y028131D01*
X031376Y028091D01*
X031403Y028048D01*
X031426Y028004D01*
X031445Y027958D01*
X031461Y027910D01*
X031473Y027861D01*
X031481Y027812D01*
X031485Y027762D01*
X031485Y027712D01*
X031481Y027662D01*
X031473Y027613D01*
X031461Y027564D01*
X031445Y027516D01*
X031426Y027470D01*
X031403Y027426D01*
X031376Y027383D01*
X031346Y027343D01*
X031314Y027305D01*
X031278Y027270D01*
X031239Y027238D01*
X031198Y027209D01*
X031155Y027183D01*
X031110Y027161D01*
X031064Y027143D01*
X031016Y027128D01*
X030967Y027117D01*
X030918Y027110D01*
X030868Y027107D01*
X030817Y027108D01*
X030768Y027113D01*
X030718Y027122D01*
X030670Y027135D01*
X030623Y027151D01*
X030577Y027172D01*
X030533Y027196D01*
X030491Y027223D01*
X030451Y027253D01*
X030414Y027287D01*
X030380Y027324D01*
X030348Y027363D01*
X030320Y027404D01*
X030295Y027448D01*
X030274Y027493D01*
X030257Y027540D01*
X030243Y027588D01*
X030233Y027637D01*
X030227Y027687D01*
X030225Y027737D01*
X026681Y027737D02*
X026683Y027787D01*
X026689Y027837D01*
X026699Y027886D01*
X026713Y027934D01*
X026730Y027981D01*
X026751Y028026D01*
X026776Y028070D01*
X026804Y028111D01*
X026836Y028150D01*
X026870Y028187D01*
X026907Y028221D01*
X026947Y028251D01*
X026989Y028278D01*
X027033Y028302D01*
X027079Y028323D01*
X027126Y028339D01*
X027174Y028352D01*
X027224Y028361D01*
X027273Y028366D01*
X027324Y028367D01*
X027374Y028364D01*
X027423Y028357D01*
X027472Y028346D01*
X027520Y028331D01*
X027566Y028313D01*
X027611Y028291D01*
X027654Y028265D01*
X027695Y028236D01*
X027734Y028204D01*
X027770Y028169D01*
X027802Y028131D01*
X027832Y028091D01*
X027859Y028048D01*
X027882Y028004D01*
X027901Y027958D01*
X027917Y027910D01*
X027929Y027861D01*
X027937Y027812D01*
X027941Y027762D01*
X027941Y027712D01*
X027937Y027662D01*
X027929Y027613D01*
X027917Y027564D01*
X027901Y027516D01*
X027882Y027470D01*
X027859Y027426D01*
X027832Y027383D01*
X027802Y027343D01*
X027770Y027305D01*
X027734Y027270D01*
X027695Y027238D01*
X027654Y027209D01*
X027611Y027183D01*
X027566Y027161D01*
X027520Y027143D01*
X027472Y027128D01*
X027423Y027117D01*
X027374Y027110D01*
X027324Y027107D01*
X027273Y027108D01*
X027224Y027113D01*
X027174Y027122D01*
X027126Y027135D01*
X027079Y027151D01*
X027033Y027172D01*
X026989Y027196D01*
X026947Y027223D01*
X026907Y027253D01*
X026870Y027287D01*
X026836Y027324D01*
X026804Y027363D01*
X026776Y027404D01*
X026751Y027448D01*
X026730Y027493D01*
X026713Y027540D01*
X026699Y027588D01*
X026689Y027637D01*
X026683Y027687D01*
X026681Y027737D01*
X023225Y027737D02*
X023227Y027787D01*
X023233Y027837D01*
X023243Y027886D01*
X023257Y027934D01*
X023274Y027981D01*
X023295Y028026D01*
X023320Y028070D01*
X023348Y028111D01*
X023380Y028150D01*
X023414Y028187D01*
X023451Y028221D01*
X023491Y028251D01*
X023533Y028278D01*
X023577Y028302D01*
X023623Y028323D01*
X023670Y028339D01*
X023718Y028352D01*
X023768Y028361D01*
X023817Y028366D01*
X023868Y028367D01*
X023918Y028364D01*
X023967Y028357D01*
X024016Y028346D01*
X024064Y028331D01*
X024110Y028313D01*
X024155Y028291D01*
X024198Y028265D01*
X024239Y028236D01*
X024278Y028204D01*
X024314Y028169D01*
X024346Y028131D01*
X024376Y028091D01*
X024403Y028048D01*
X024426Y028004D01*
X024445Y027958D01*
X024461Y027910D01*
X024473Y027861D01*
X024481Y027812D01*
X024485Y027762D01*
X024485Y027712D01*
X024481Y027662D01*
X024473Y027613D01*
X024461Y027564D01*
X024445Y027516D01*
X024426Y027470D01*
X024403Y027426D01*
X024376Y027383D01*
X024346Y027343D01*
X024314Y027305D01*
X024278Y027270D01*
X024239Y027238D01*
X024198Y027209D01*
X024155Y027183D01*
X024110Y027161D01*
X024064Y027143D01*
X024016Y027128D01*
X023967Y027117D01*
X023918Y027110D01*
X023868Y027107D01*
X023817Y027108D01*
X023768Y027113D01*
X023718Y027122D01*
X023670Y027135D01*
X023623Y027151D01*
X023577Y027172D01*
X023533Y027196D01*
X023491Y027223D01*
X023451Y027253D01*
X023414Y027287D01*
X023380Y027324D01*
X023348Y027363D01*
X023320Y027404D01*
X023295Y027448D01*
X023274Y027493D01*
X023257Y027540D01*
X023243Y027588D01*
X023233Y027637D01*
X023227Y027687D01*
X023225Y027737D01*
X019681Y027737D02*
X019683Y027787D01*
X019689Y027837D01*
X019699Y027886D01*
X019713Y027934D01*
X019730Y027981D01*
X019751Y028026D01*
X019776Y028070D01*
X019804Y028111D01*
X019836Y028150D01*
X019870Y028187D01*
X019907Y028221D01*
X019947Y028251D01*
X019989Y028278D01*
X020033Y028302D01*
X020079Y028323D01*
X020126Y028339D01*
X020174Y028352D01*
X020224Y028361D01*
X020273Y028366D01*
X020324Y028367D01*
X020374Y028364D01*
X020423Y028357D01*
X020472Y028346D01*
X020520Y028331D01*
X020566Y028313D01*
X020611Y028291D01*
X020654Y028265D01*
X020695Y028236D01*
X020734Y028204D01*
X020770Y028169D01*
X020802Y028131D01*
X020832Y028091D01*
X020859Y028048D01*
X020882Y028004D01*
X020901Y027958D01*
X020917Y027910D01*
X020929Y027861D01*
X020937Y027812D01*
X020941Y027762D01*
X020941Y027712D01*
X020937Y027662D01*
X020929Y027613D01*
X020917Y027564D01*
X020901Y027516D01*
X020882Y027470D01*
X020859Y027426D01*
X020832Y027383D01*
X020802Y027343D01*
X020770Y027305D01*
X020734Y027270D01*
X020695Y027238D01*
X020654Y027209D01*
X020611Y027183D01*
X020566Y027161D01*
X020520Y027143D01*
X020472Y027128D01*
X020423Y027117D01*
X020374Y027110D01*
X020324Y027107D01*
X020273Y027108D01*
X020224Y027113D01*
X020174Y027122D01*
X020126Y027135D01*
X020079Y027151D01*
X020033Y027172D01*
X019989Y027196D01*
X019947Y027223D01*
X019907Y027253D01*
X019870Y027287D01*
X019836Y027324D01*
X019804Y027363D01*
X019776Y027404D01*
X019751Y027448D01*
X019730Y027493D01*
X019713Y027540D01*
X019699Y027588D01*
X019689Y027637D01*
X019683Y027687D01*
X019681Y027737D01*
X016225Y027737D02*
X016227Y027787D01*
X016233Y027837D01*
X016243Y027886D01*
X016257Y027934D01*
X016274Y027981D01*
X016295Y028026D01*
X016320Y028070D01*
X016348Y028111D01*
X016380Y028150D01*
X016414Y028187D01*
X016451Y028221D01*
X016491Y028251D01*
X016533Y028278D01*
X016577Y028302D01*
X016623Y028323D01*
X016670Y028339D01*
X016718Y028352D01*
X016768Y028361D01*
X016817Y028366D01*
X016868Y028367D01*
X016918Y028364D01*
X016967Y028357D01*
X017016Y028346D01*
X017064Y028331D01*
X017110Y028313D01*
X017155Y028291D01*
X017198Y028265D01*
X017239Y028236D01*
X017278Y028204D01*
X017314Y028169D01*
X017346Y028131D01*
X017376Y028091D01*
X017403Y028048D01*
X017426Y028004D01*
X017445Y027958D01*
X017461Y027910D01*
X017473Y027861D01*
X017481Y027812D01*
X017485Y027762D01*
X017485Y027712D01*
X017481Y027662D01*
X017473Y027613D01*
X017461Y027564D01*
X017445Y027516D01*
X017426Y027470D01*
X017403Y027426D01*
X017376Y027383D01*
X017346Y027343D01*
X017314Y027305D01*
X017278Y027270D01*
X017239Y027238D01*
X017198Y027209D01*
X017155Y027183D01*
X017110Y027161D01*
X017064Y027143D01*
X017016Y027128D01*
X016967Y027117D01*
X016918Y027110D01*
X016868Y027107D01*
X016817Y027108D01*
X016768Y027113D01*
X016718Y027122D01*
X016670Y027135D01*
X016623Y027151D01*
X016577Y027172D01*
X016533Y027196D01*
X016491Y027223D01*
X016451Y027253D01*
X016414Y027287D01*
X016380Y027324D01*
X016348Y027363D01*
X016320Y027404D01*
X016295Y027448D01*
X016274Y027493D01*
X016257Y027540D01*
X016243Y027588D01*
X016233Y027637D01*
X016227Y027687D01*
X016225Y027737D01*
X012681Y027737D02*
X012683Y027787D01*
X012689Y027837D01*
X012699Y027886D01*
X012713Y027934D01*
X012730Y027981D01*
X012751Y028026D01*
X012776Y028070D01*
X012804Y028111D01*
X012836Y028150D01*
X012870Y028187D01*
X012907Y028221D01*
X012947Y028251D01*
X012989Y028278D01*
X013033Y028302D01*
X013079Y028323D01*
X013126Y028339D01*
X013174Y028352D01*
X013224Y028361D01*
X013273Y028366D01*
X013324Y028367D01*
X013374Y028364D01*
X013423Y028357D01*
X013472Y028346D01*
X013520Y028331D01*
X013566Y028313D01*
X013611Y028291D01*
X013654Y028265D01*
X013695Y028236D01*
X013734Y028204D01*
X013770Y028169D01*
X013802Y028131D01*
X013832Y028091D01*
X013859Y028048D01*
X013882Y028004D01*
X013901Y027958D01*
X013917Y027910D01*
X013929Y027861D01*
X013937Y027812D01*
X013941Y027762D01*
X013941Y027712D01*
X013937Y027662D01*
X013929Y027613D01*
X013917Y027564D01*
X013901Y027516D01*
X013882Y027470D01*
X013859Y027426D01*
X013832Y027383D01*
X013802Y027343D01*
X013770Y027305D01*
X013734Y027270D01*
X013695Y027238D01*
X013654Y027209D01*
X013611Y027183D01*
X013566Y027161D01*
X013520Y027143D01*
X013472Y027128D01*
X013423Y027117D01*
X013374Y027110D01*
X013324Y027107D01*
X013273Y027108D01*
X013224Y027113D01*
X013174Y027122D01*
X013126Y027135D01*
X013079Y027151D01*
X013033Y027172D01*
X012989Y027196D01*
X012947Y027223D01*
X012907Y027253D01*
X012870Y027287D01*
X012836Y027324D01*
X012804Y027363D01*
X012776Y027404D01*
X012751Y027448D01*
X012730Y027493D01*
X012713Y027540D01*
X012699Y027588D01*
X012689Y027637D01*
X012683Y027687D01*
X012681Y027737D01*
X009225Y027737D02*
X009227Y027787D01*
X009233Y027837D01*
X009243Y027886D01*
X009257Y027934D01*
X009274Y027981D01*
X009295Y028026D01*
X009320Y028070D01*
X009348Y028111D01*
X009380Y028150D01*
X009414Y028187D01*
X009451Y028221D01*
X009491Y028251D01*
X009533Y028278D01*
X009577Y028302D01*
X009623Y028323D01*
X009670Y028339D01*
X009718Y028352D01*
X009768Y028361D01*
X009817Y028366D01*
X009868Y028367D01*
X009918Y028364D01*
X009967Y028357D01*
X010016Y028346D01*
X010064Y028331D01*
X010110Y028313D01*
X010155Y028291D01*
X010198Y028265D01*
X010239Y028236D01*
X010278Y028204D01*
X010314Y028169D01*
X010346Y028131D01*
X010376Y028091D01*
X010403Y028048D01*
X010426Y028004D01*
X010445Y027958D01*
X010461Y027910D01*
X010473Y027861D01*
X010481Y027812D01*
X010485Y027762D01*
X010485Y027712D01*
X010481Y027662D01*
X010473Y027613D01*
X010461Y027564D01*
X010445Y027516D01*
X010426Y027470D01*
X010403Y027426D01*
X010376Y027383D01*
X010346Y027343D01*
X010314Y027305D01*
X010278Y027270D01*
X010239Y027238D01*
X010198Y027209D01*
X010155Y027183D01*
X010110Y027161D01*
X010064Y027143D01*
X010016Y027128D01*
X009967Y027117D01*
X009918Y027110D01*
X009868Y027107D01*
X009817Y027108D01*
X009768Y027113D01*
X009718Y027122D01*
X009670Y027135D01*
X009623Y027151D01*
X009577Y027172D01*
X009533Y027196D01*
X009491Y027223D01*
X009451Y027253D01*
X009414Y027287D01*
X009380Y027324D01*
X009348Y027363D01*
X009320Y027404D01*
X009295Y027448D01*
X009274Y027493D01*
X009257Y027540D01*
X009243Y027588D01*
X009233Y027637D01*
X009227Y027687D01*
X009225Y027737D01*
X005681Y027737D02*
X005683Y027787D01*
X005689Y027837D01*
X005699Y027886D01*
X005713Y027934D01*
X005730Y027981D01*
X005751Y028026D01*
X005776Y028070D01*
X005804Y028111D01*
X005836Y028150D01*
X005870Y028187D01*
X005907Y028221D01*
X005947Y028251D01*
X005989Y028278D01*
X006033Y028302D01*
X006079Y028323D01*
X006126Y028339D01*
X006174Y028352D01*
X006224Y028361D01*
X006273Y028366D01*
X006324Y028367D01*
X006374Y028364D01*
X006423Y028357D01*
X006472Y028346D01*
X006520Y028331D01*
X006566Y028313D01*
X006611Y028291D01*
X006654Y028265D01*
X006695Y028236D01*
X006734Y028204D01*
X006770Y028169D01*
X006802Y028131D01*
X006832Y028091D01*
X006859Y028048D01*
X006882Y028004D01*
X006901Y027958D01*
X006917Y027910D01*
X006929Y027861D01*
X006937Y027812D01*
X006941Y027762D01*
X006941Y027712D01*
X006937Y027662D01*
X006929Y027613D01*
X006917Y027564D01*
X006901Y027516D01*
X006882Y027470D01*
X006859Y027426D01*
X006832Y027383D01*
X006802Y027343D01*
X006770Y027305D01*
X006734Y027270D01*
X006695Y027238D01*
X006654Y027209D01*
X006611Y027183D01*
X006566Y027161D01*
X006520Y027143D01*
X006472Y027128D01*
X006423Y027117D01*
X006374Y027110D01*
X006324Y027107D01*
X006273Y027108D01*
X006224Y027113D01*
X006174Y027122D01*
X006126Y027135D01*
X006079Y027151D01*
X006033Y027172D01*
X005989Y027196D01*
X005947Y027223D01*
X005907Y027253D01*
X005870Y027287D01*
X005836Y027324D01*
X005804Y027363D01*
X005776Y027404D01*
X005751Y027448D01*
X005730Y027493D01*
X005713Y027540D01*
X005699Y027588D01*
X005689Y027637D01*
X005683Y027687D01*
X005681Y027737D01*
X003300Y013355D02*
X003302Y013405D01*
X003308Y013455D01*
X003318Y013504D01*
X003332Y013552D01*
X003349Y013599D01*
X003370Y013644D01*
X003395Y013688D01*
X003423Y013729D01*
X003455Y013768D01*
X003489Y013805D01*
X003526Y013839D01*
X003566Y013869D01*
X003608Y013896D01*
X003652Y013920D01*
X003698Y013941D01*
X003745Y013957D01*
X003793Y013970D01*
X003843Y013979D01*
X003892Y013984D01*
X003943Y013985D01*
X003993Y013982D01*
X004042Y013975D01*
X004091Y013964D01*
X004139Y013949D01*
X004185Y013931D01*
X004230Y013909D01*
X004273Y013883D01*
X004314Y013854D01*
X004353Y013822D01*
X004389Y013787D01*
X004421Y013749D01*
X004451Y013709D01*
X004478Y013666D01*
X004501Y013622D01*
X004520Y013576D01*
X004536Y013528D01*
X004548Y013479D01*
X004556Y013430D01*
X004560Y013380D01*
X004560Y013330D01*
X004556Y013280D01*
X004548Y013231D01*
X004536Y013182D01*
X004520Y013134D01*
X004501Y013088D01*
X004478Y013044D01*
X004451Y013001D01*
X004421Y012961D01*
X004389Y012923D01*
X004353Y012888D01*
X004314Y012856D01*
X004273Y012827D01*
X004230Y012801D01*
X004185Y012779D01*
X004139Y012761D01*
X004091Y012746D01*
X004042Y012735D01*
X003993Y012728D01*
X003943Y012725D01*
X003892Y012726D01*
X003843Y012731D01*
X003793Y012740D01*
X003745Y012753D01*
X003698Y012769D01*
X003652Y012790D01*
X003608Y012814D01*
X003566Y012841D01*
X003526Y012871D01*
X003489Y012905D01*
X003455Y012942D01*
X003423Y012981D01*
X003395Y013022D01*
X003370Y013066D01*
X003349Y013111D01*
X003332Y013158D01*
X003318Y013206D01*
X003308Y013255D01*
X003302Y013305D01*
X003300Y013355D01*
X003300Y009811D02*
X003302Y009861D01*
X003308Y009911D01*
X003318Y009960D01*
X003332Y010008D01*
X003349Y010055D01*
X003370Y010100D01*
X003395Y010144D01*
X003423Y010185D01*
X003455Y010224D01*
X003489Y010261D01*
X003526Y010295D01*
X003566Y010325D01*
X003608Y010352D01*
X003652Y010376D01*
X003698Y010397D01*
X003745Y010413D01*
X003793Y010426D01*
X003843Y010435D01*
X003892Y010440D01*
X003943Y010441D01*
X003993Y010438D01*
X004042Y010431D01*
X004091Y010420D01*
X004139Y010405D01*
X004185Y010387D01*
X004230Y010365D01*
X004273Y010339D01*
X004314Y010310D01*
X004353Y010278D01*
X004389Y010243D01*
X004421Y010205D01*
X004451Y010165D01*
X004478Y010122D01*
X004501Y010078D01*
X004520Y010032D01*
X004536Y009984D01*
X004548Y009935D01*
X004556Y009886D01*
X004560Y009836D01*
X004560Y009786D01*
X004556Y009736D01*
X004548Y009687D01*
X004536Y009638D01*
X004520Y009590D01*
X004501Y009544D01*
X004478Y009500D01*
X004451Y009457D01*
X004421Y009417D01*
X004389Y009379D01*
X004353Y009344D01*
X004314Y009312D01*
X004273Y009283D01*
X004230Y009257D01*
X004185Y009235D01*
X004139Y009217D01*
X004091Y009202D01*
X004042Y009191D01*
X003993Y009184D01*
X003943Y009181D01*
X003892Y009182D01*
X003843Y009187D01*
X003793Y009196D01*
X003745Y009209D01*
X003698Y009225D01*
X003652Y009246D01*
X003608Y009270D01*
X003566Y009297D01*
X003526Y009327D01*
X003489Y009361D01*
X003455Y009398D01*
X003423Y009437D01*
X003395Y009478D01*
X003370Y009522D01*
X003349Y009567D01*
X003332Y009614D01*
X003318Y009662D01*
X003308Y009711D01*
X003302Y009761D01*
X003300Y009811D01*
D11*
X005328Y009725D02*
X005328Y009418D01*
X005328Y009571D02*
X005788Y009571D01*
X005635Y009418D01*
X005558Y009264D02*
X005482Y009187D01*
X005482Y008957D01*
X005482Y009111D02*
X005328Y009264D01*
X005558Y009264D02*
X005712Y009264D01*
X005788Y009187D01*
X005788Y008957D01*
X005328Y008957D01*
X007754Y008413D02*
X008061Y008413D01*
X008061Y008183D01*
X007908Y008260D01*
X007831Y008260D01*
X007754Y008183D01*
X007754Y008030D01*
X007831Y007953D01*
X007984Y007953D01*
X008061Y008030D01*
X008214Y007953D02*
X008368Y008107D01*
X008291Y008107D02*
X008521Y008107D01*
X008521Y007953D02*
X008521Y008413D01*
X008291Y008413D01*
X008214Y008337D01*
X008214Y008183D01*
X008291Y008107D01*
X010254Y007413D02*
X010254Y007337D01*
X010561Y007030D01*
X010561Y006953D01*
X010714Y006953D02*
X010868Y007107D01*
X010791Y007107D02*
X011021Y007107D01*
X011021Y006953D02*
X011021Y007413D01*
X010791Y007413D01*
X010714Y007337D01*
X010714Y007183D01*
X010791Y007107D01*
X010561Y007413D02*
X010254Y007413D01*
X012196Y007642D02*
X012272Y007566D01*
X012426Y007566D01*
X012503Y007642D01*
X012503Y007719D01*
X012426Y007796D01*
X012272Y007796D01*
X012196Y007719D01*
X012196Y007642D01*
X012272Y007796D02*
X012196Y007872D01*
X012196Y007949D01*
X012272Y008026D01*
X012426Y008026D01*
X012503Y007949D01*
X012503Y007872D01*
X012426Y007796D01*
X012656Y007796D02*
X012733Y007719D01*
X012963Y007719D01*
X012810Y007719D02*
X012656Y007566D01*
X012656Y007796D02*
X012656Y007949D01*
X012733Y008026D01*
X012963Y008026D01*
X012963Y007566D01*
X016853Y010242D02*
X016930Y010166D01*
X017237Y010166D01*
X017313Y010242D01*
X017313Y010396D01*
X017237Y010472D01*
X016930Y010472D01*
X016853Y010396D01*
X016853Y010242D01*
X017007Y010319D02*
X016853Y010472D01*
X016853Y010626D02*
X016853Y010933D01*
X016853Y010779D02*
X017313Y010779D01*
X017160Y010626D01*
X017953Y009725D02*
X017953Y009418D01*
X018260Y009725D01*
X018337Y009725D01*
X018413Y009648D01*
X018413Y009494D01*
X018337Y009418D01*
X018413Y009111D02*
X017953Y009111D01*
X017953Y009264D02*
X017953Y008957D01*
X017953Y008804D02*
X018107Y008650D01*
X018107Y008727D02*
X018107Y008497D01*
X017953Y008497D02*
X018413Y008497D01*
X018413Y008727D01*
X018337Y008804D01*
X018183Y008804D01*
X018107Y008727D01*
X018260Y008957D02*
X018413Y009111D01*
X019978Y010617D02*
X020055Y010541D01*
X020362Y010541D01*
X020438Y010617D01*
X020438Y010771D01*
X020362Y010847D01*
X020055Y010847D01*
X019978Y010771D01*
X019978Y010617D01*
X020132Y010694D02*
X019978Y010847D01*
X019978Y011001D02*
X020285Y011308D01*
X020362Y011308D01*
X020438Y011231D01*
X020438Y011078D01*
X020362Y011001D01*
X019978Y011001D02*
X019978Y011308D01*
X013884Y016092D02*
X013807Y016016D01*
X013654Y016016D01*
X013577Y016092D01*
X013423Y016246D02*
X013117Y016246D01*
X013193Y016016D02*
X013193Y016476D01*
X013423Y016246D01*
X013577Y016399D02*
X013654Y016476D01*
X013807Y016476D01*
X013884Y016399D01*
X013884Y016092D01*
X011651Y016066D02*
X011651Y016526D01*
X011420Y016526D01*
X011344Y016449D01*
X011344Y016296D01*
X011420Y016219D01*
X011651Y016219D01*
X011497Y016219D02*
X011344Y016066D01*
X011190Y016142D02*
X011113Y016066D01*
X010960Y016066D01*
X010883Y016142D01*
X010883Y016219D01*
X010960Y016296D01*
X011037Y016296D01*
X010960Y016296D02*
X010883Y016372D01*
X010883Y016449D01*
X010960Y016526D01*
X011113Y016526D01*
X011190Y016449D01*
X012943Y017766D02*
X012943Y018226D01*
X013173Y017996D01*
X012867Y017996D01*
X013327Y017766D02*
X013634Y017766D01*
X013480Y017766D02*
X013480Y018226D01*
X013634Y018072D01*
X013787Y018149D02*
X013864Y018226D01*
X014018Y018226D01*
X014094Y018149D01*
X014094Y017842D01*
X014018Y017766D01*
X013864Y017766D01*
X013787Y017842D01*
X013838Y019253D02*
X013838Y019713D01*
X013608Y019713D01*
X013531Y019637D01*
X013531Y019483D01*
X013608Y019407D01*
X013838Y019407D01*
X013685Y019407D02*
X013531Y019253D01*
X013378Y019253D02*
X013071Y019253D01*
X013224Y019253D02*
X013224Y019713D01*
X013378Y019560D01*
X012917Y019637D02*
X012841Y019713D01*
X012687Y019713D01*
X012610Y019637D01*
X012610Y019560D01*
X012687Y019483D01*
X012610Y019407D01*
X012610Y019330D01*
X012687Y019253D01*
X012841Y019253D01*
X012917Y019330D01*
X012764Y019483D02*
X012687Y019483D01*
X006901Y020753D02*
X006901Y021213D01*
X006670Y021213D01*
X006594Y021137D01*
X006594Y020983D01*
X006670Y020907D01*
X006901Y020907D01*
X006747Y020907D02*
X006594Y020753D01*
X006440Y020753D02*
X006133Y020753D01*
X005980Y020753D02*
X005673Y020753D01*
X005826Y020753D02*
X005826Y021213D01*
X005980Y021060D01*
X006287Y021213D02*
X006287Y020753D01*
X006440Y021060D02*
X006287Y021213D01*
X010333Y014547D02*
X010487Y014547D01*
X010563Y014470D01*
X010717Y014470D02*
X010717Y014317D01*
X010794Y014240D01*
X011024Y014240D01*
X011024Y014087D02*
X011024Y014547D01*
X010794Y014547D01*
X010717Y014470D01*
X010870Y014240D02*
X010717Y014087D01*
X010563Y014087D02*
X010257Y014394D01*
X010257Y014470D01*
X010333Y014547D01*
X010257Y014087D02*
X010563Y014087D01*
X010547Y011788D02*
X010623Y011712D01*
X010623Y011635D01*
X010547Y011558D01*
X010317Y011558D01*
X010317Y011405D02*
X010317Y011712D01*
X010393Y011788D01*
X010547Y011788D01*
X010777Y011712D02*
X010777Y011558D01*
X010854Y011482D01*
X011084Y011482D01*
X010930Y011482D02*
X010777Y011328D01*
X010623Y011405D02*
X010547Y011328D01*
X010393Y011328D01*
X010317Y011405D01*
X010777Y011712D02*
X010854Y011788D01*
X011084Y011788D01*
X011084Y011328D01*
D12*
X010893Y010642D02*
X010273Y010642D01*
X010273Y009524D02*
X010893Y009524D01*
D13*
X009696Y010033D02*
X009696Y010183D01*
X009696Y010108D02*
X009246Y010108D01*
X009246Y010033D02*
X009246Y010183D01*
X009321Y010340D02*
X009246Y010415D01*
X009246Y010565D01*
X009321Y010640D01*
X009246Y010800D02*
X009246Y011101D01*
X009246Y010951D02*
X009696Y010951D01*
X009546Y010800D01*
X009621Y010640D02*
X009696Y010565D01*
X009696Y010415D01*
X009621Y010340D01*
X009321Y010340D01*
M02*
