G75*
%MOIN*%
%OFA0B0*%
%FSLAX24Y24*%
%IPPOS*%
%LPD*%
%AMOC8*
5,1,8,0,0,1.08239X$1,22.5*
%
%ADD10C,0.1000*%
%ADD11OC8,0.1000*%
%ADD12R,0.0512X0.0591*%
%ADD13R,0.0472X0.0236*%
%ADD14R,0.0827X0.0827*%
%ADD15R,0.0630X0.0512*%
%ADD16R,0.0512X0.0630*%
%ADD17C,0.0476*%
%ADD18OC8,0.0660*%
%ADD19C,0.0600*%
%ADD20C,0.2300*%
%ADD21R,0.0551X0.0394*%
%ADD22C,0.0520*%
%ADD23OC8,0.0600*%
%ADD24C,0.0160*%
%ADD25C,0.0240*%
%ADD26C,0.0200*%
%ADD27R,0.0396X0.0396*%
D10*
X029771Y011708D03*
D11*
X029771Y009708D03*
D12*
X013668Y015521D03*
X012998Y015521D03*
X012998Y017271D03*
X013668Y017271D03*
D13*
X011097Y010457D03*
X011097Y009709D03*
X010069Y009709D03*
X010069Y010083D03*
X010069Y010457D03*
D14*
X007748Y011583D03*
X005583Y011583D03*
X008083Y007748D03*
X008083Y005583D03*
X015083Y005583D03*
X015083Y007748D03*
X022083Y007748D03*
X022083Y005583D03*
X029083Y005583D03*
X029083Y007748D03*
X034918Y010756D03*
X037083Y010756D03*
X037083Y012410D03*
X034918Y012410D03*
X036083Y007748D03*
X036083Y005583D03*
X037083Y019756D03*
X037083Y021410D03*
X034918Y021410D03*
X034918Y019756D03*
X036083Y023918D03*
X036083Y026083D03*
X029083Y026083D03*
X029083Y023918D03*
X022083Y023918D03*
X022083Y026083D03*
X015083Y026083D03*
X015083Y023918D03*
X008083Y023918D03*
X008083Y026083D03*
D15*
X018833Y009832D03*
X018833Y009084D03*
X006333Y008959D03*
X006333Y009707D03*
D16*
X007647Y008958D03*
X008395Y008958D03*
X010209Y008083D03*
X010957Y008083D03*
X012209Y008583D03*
X012957Y008583D03*
X010895Y012333D03*
X010147Y012333D03*
X010144Y013512D03*
X010892Y013512D03*
X010897Y015521D03*
X011645Y015521D03*
X013084Y018833D03*
X013832Y018833D03*
X006645Y020208D03*
X005897Y020208D03*
D17*
X005083Y018083D03*
X005083Y017083D03*
X005083Y016083D03*
D18*
X004271Y021521D03*
X003271Y021521D03*
X003208Y027646D03*
X004208Y027646D03*
X004208Y003771D03*
X003208Y003771D03*
D19*
X008021Y021583D03*
X009021Y021583D03*
X010021Y021583D03*
D20*
X004146Y024646D03*
X004146Y006833D03*
X031396Y014521D03*
X031396Y020083D03*
D21*
X019641Y011271D03*
X018775Y011645D03*
X018775Y010897D03*
X016516Y010896D03*
X015650Y011270D03*
X015650Y010522D03*
D22*
X008281Y015521D02*
X007761Y015521D01*
X007281Y016521D02*
X006761Y016521D01*
X007761Y017521D02*
X008281Y017521D01*
D23*
X028583Y020646D03*
X028583Y013646D03*
D24*
X009437Y002498D02*
X002583Y002521D01*
X002583Y029083D01*
X040149Y028960D01*
X040089Y002448D01*
X009437Y002498D01*
X009682Y003060D02*
X010028Y003060D01*
X010347Y003192D01*
X010592Y003437D01*
X010725Y003756D01*
X010725Y004103D01*
X010592Y004422D01*
X010347Y004667D01*
X010028Y004799D01*
X009682Y004799D01*
X009362Y004667D01*
X009117Y004422D01*
X008985Y004103D01*
X008985Y003756D01*
X009117Y003437D01*
X009362Y003192D01*
X009682Y003060D01*
X009337Y003217D02*
X006829Y003217D01*
X006804Y003192D02*
X007049Y003437D01*
X007181Y003756D01*
X007181Y004103D01*
X007049Y004422D01*
X006804Y004667D01*
X006484Y004799D01*
X006138Y004799D01*
X005819Y004667D01*
X005574Y004422D01*
X005441Y004103D01*
X005441Y003756D01*
X005574Y003437D01*
X005819Y003192D01*
X006138Y003060D01*
X006484Y003060D01*
X006804Y003192D01*
X006988Y003376D02*
X009178Y003376D01*
X009077Y003534D02*
X007089Y003534D01*
X007155Y003693D02*
X009011Y003693D01*
X008985Y003851D02*
X007181Y003851D01*
X007181Y004010D02*
X008985Y004010D01*
X009012Y004168D02*
X007154Y004168D01*
X007089Y004327D02*
X009078Y004327D01*
X009180Y004485D02*
X006986Y004485D01*
X006828Y004644D02*
X009339Y004644D01*
X008640Y005059D02*
X008664Y005100D01*
X008676Y005146D01*
X008676Y005525D01*
X008141Y005525D01*
X008141Y004990D01*
X008520Y004990D01*
X008566Y005002D01*
X008607Y005026D01*
X008640Y005059D01*
X008669Y005119D02*
X014497Y005119D01*
X014502Y005100D02*
X014526Y005059D01*
X014559Y005026D01*
X014600Y005002D01*
X014646Y004990D01*
X015025Y004990D01*
X015025Y005525D01*
X015141Y005525D01*
X015141Y004990D01*
X015520Y004990D01*
X015566Y005002D01*
X015607Y005026D01*
X015640Y005059D01*
X015664Y005100D01*
X015676Y005146D01*
X015676Y005525D01*
X015141Y005525D01*
X015141Y005641D01*
X015676Y005641D01*
X015676Y006020D01*
X015664Y006066D01*
X015640Y006107D01*
X015607Y006140D01*
X015566Y006164D01*
X015520Y006176D01*
X015141Y006176D01*
X015141Y005641D01*
X015025Y005641D01*
X015025Y005525D01*
X014490Y005525D01*
X014490Y005146D01*
X014502Y005100D01*
X014490Y005278D02*
X008676Y005278D01*
X008676Y005436D02*
X014490Y005436D01*
X014490Y005641D02*
X015025Y005641D01*
X015025Y006176D01*
X014646Y006176D01*
X014600Y006164D01*
X014559Y006140D01*
X014526Y006107D01*
X014502Y006066D01*
X014490Y006020D01*
X014490Y005641D01*
X014490Y005753D02*
X008676Y005753D01*
X008676Y005641D02*
X008141Y005641D01*
X008141Y005525D01*
X008025Y005525D01*
X008025Y004990D01*
X007646Y004990D01*
X007600Y005002D01*
X007559Y005026D01*
X007526Y005059D01*
X007502Y005100D01*
X007490Y005146D01*
X007490Y005525D01*
X008025Y005525D01*
X008025Y005641D01*
X007490Y005641D01*
X007490Y006020D01*
X007502Y006066D01*
X007526Y006107D01*
X007559Y006140D01*
X007600Y006164D01*
X007646Y006176D01*
X008025Y006176D01*
X008025Y005641D01*
X008141Y005641D01*
X008141Y006176D01*
X008520Y006176D01*
X008566Y006164D01*
X008607Y006140D01*
X008640Y006107D01*
X008664Y006066D01*
X008676Y006020D01*
X008676Y005641D01*
X008676Y005912D02*
X014490Y005912D01*
X014504Y006070D02*
X008662Y006070D01*
X008141Y006070D02*
X008025Y006070D01*
X008025Y005912D02*
X008141Y005912D01*
X008141Y005753D02*
X008025Y005753D01*
X008025Y005595D02*
X005854Y005595D01*
X006041Y005753D02*
X007490Y005753D01*
X007490Y005912D02*
X006228Y005912D01*
X006286Y005960D02*
X006331Y005996D01*
X006334Y006001D01*
X006339Y006005D01*
X006365Y006057D01*
X006393Y006107D01*
X006394Y006113D01*
X006397Y006118D01*
X006402Y006176D01*
X006637Y008179D01*
X006673Y008265D01*
X006673Y008463D01*
X006696Y008463D01*
X006784Y008500D01*
X006851Y008567D01*
X006873Y008619D01*
X007085Y008619D01*
X007151Y008619D01*
X007151Y008595D01*
X007187Y008507D01*
X007255Y008440D01*
X007343Y008403D01*
X007950Y008403D01*
X008021Y008432D01*
X008091Y008403D01*
X008698Y008403D01*
X008786Y008440D01*
X008854Y008507D01*
X008890Y008595D01*
X008890Y008638D01*
X009729Y008638D01*
X009729Y008484D01*
X009713Y008446D01*
X009713Y007720D01*
X009750Y007632D01*
X009817Y007565D01*
X009905Y007528D01*
X010513Y007528D01*
X010601Y007565D01*
X010636Y007599D01*
X010677Y007588D01*
X010909Y007588D01*
X010909Y008035D01*
X011005Y008035D01*
X011005Y007588D01*
X011237Y007588D01*
X011282Y007600D01*
X011324Y007624D01*
X011357Y007658D01*
X011381Y007699D01*
X011393Y007744D01*
X011393Y008035D01*
X011005Y008035D01*
X011005Y008131D01*
X010909Y008131D01*
X010909Y008578D01*
X010677Y008578D01*
X010636Y008567D01*
X010601Y008601D01*
X010513Y008638D01*
X010409Y008638D01*
X010409Y009374D01*
X010441Y009387D01*
X010509Y009455D01*
X010545Y009543D01*
X010545Y009875D01*
X010509Y009963D01*
X010485Y009987D01*
X010485Y010083D01*
X010069Y010083D01*
X010069Y010083D01*
X010485Y010083D01*
X010485Y010180D01*
X010509Y010203D01*
X010545Y010291D01*
X010545Y010623D01*
X010509Y010711D01*
X010507Y010713D01*
X010507Y011801D01*
X010521Y011807D01*
X010591Y011778D01*
X010757Y011778D01*
X010757Y010792D01*
X010725Y010779D01*
X010658Y010711D01*
X010621Y010623D01*
X010621Y010291D01*
X010658Y010203D01*
X010725Y010136D01*
X010813Y010099D01*
X011381Y010099D01*
X011425Y010117D01*
X012617Y010117D01*
X012617Y009123D01*
X012583Y009109D01*
X012513Y009138D01*
X012428Y009138D01*
X012459Y009212D01*
X012459Y009704D01*
X012422Y009792D01*
X012355Y009860D01*
X012266Y009896D01*
X012063Y009896D01*
X011962Y009997D01*
X011837Y010049D01*
X011425Y010049D01*
X011381Y010067D01*
X010813Y010067D01*
X010725Y010031D01*
X010658Y009963D01*
X010621Y009875D01*
X010621Y009543D01*
X010658Y009455D01*
X010725Y009387D01*
X010813Y009351D01*
X010960Y009351D01*
X011713Y008598D01*
X011713Y008220D01*
X011750Y008132D01*
X011817Y008065D01*
X011905Y008028D01*
X012513Y008028D01*
X012583Y008057D01*
X012653Y008028D01*
X013261Y008028D01*
X013349Y008065D01*
X013416Y008132D01*
X013453Y008220D01*
X013453Y008946D01*
X013416Y009034D01*
X013349Y009101D01*
X013297Y009123D01*
X013297Y010117D01*
X013397Y010117D01*
X013514Y010166D01*
X015194Y010166D01*
X015238Y010121D01*
X015327Y010085D01*
X015973Y010085D01*
X016062Y010121D01*
X016129Y010189D01*
X016166Y010277D01*
X016166Y010470D01*
X016193Y010459D01*
X016839Y010459D01*
X016928Y010495D01*
X016995Y010563D01*
X017001Y010577D01*
X018291Y010577D01*
X018296Y010564D01*
X018363Y010496D01*
X018452Y010460D01*
X018473Y010460D01*
X018473Y010328D01*
X018470Y010328D01*
X018382Y010291D01*
X018315Y010224D01*
X018278Y010136D01*
X018278Y009528D01*
X018315Y009440D01*
X018349Y009406D01*
X018338Y009364D01*
X018338Y009132D01*
X018785Y009132D01*
X018785Y009036D01*
X018881Y009036D01*
X018881Y008648D01*
X019172Y008648D01*
X019218Y008660D01*
X019259Y008684D01*
X019292Y008718D01*
X019316Y008759D01*
X019328Y008804D01*
X019328Y009036D01*
X018881Y009036D01*
X018881Y009132D01*
X019328Y009132D01*
X019328Y009364D01*
X019317Y009406D01*
X019351Y009440D01*
X019388Y009528D01*
X019388Y010136D01*
X019351Y010224D01*
X019284Y010291D01*
X019196Y010328D01*
X019193Y010328D01*
X019193Y010503D01*
X019254Y010564D01*
X019291Y010652D01*
X019291Y010845D01*
X019318Y010834D01*
X019536Y010834D01*
X019536Y010146D01*
X019494Y010105D01*
X019457Y010016D01*
X019457Y009525D01*
X019494Y009437D01*
X019562Y009369D01*
X019650Y009332D01*
X020141Y009332D01*
X020230Y009369D01*
X020297Y009437D01*
X020334Y009525D01*
X020334Y010016D01*
X020297Y010105D01*
X020256Y010146D01*
X020256Y011088D01*
X020201Y011220D01*
X020157Y011264D01*
X020157Y011515D01*
X020120Y011603D01*
X020053Y011671D01*
X019964Y011707D01*
X019318Y011707D01*
X019231Y011671D01*
X019231Y011865D01*
X019218Y011911D01*
X019195Y011952D01*
X019161Y011985D01*
X019120Y012009D01*
X019074Y012021D01*
X018793Y012021D01*
X018793Y011663D01*
X018757Y011663D01*
X018757Y012021D01*
X018476Y012021D01*
X018430Y012009D01*
X018389Y011985D01*
X018355Y011952D01*
X018332Y011911D01*
X018319Y011865D01*
X018319Y011663D01*
X018757Y011663D01*
X018757Y011626D01*
X018319Y011626D01*
X018319Y011424D01*
X018332Y011378D01*
X018355Y011337D01*
X018386Y011306D01*
X018363Y011297D01*
X018296Y011229D01*
X018291Y011217D01*
X017290Y011217D01*
X017389Y011316D01*
X017479Y011406D01*
X017528Y011524D01*
X017528Y019147D01*
X017479Y019264D01*
X016292Y020452D01*
X016202Y020542D01*
X016084Y020591D01*
X010466Y020591D01*
X010341Y020716D01*
X010341Y021139D01*
X010478Y021277D01*
X010561Y021476D01*
X010561Y021690D01*
X010478Y021889D01*
X010326Y022041D01*
X010128Y022123D01*
X009913Y022123D01*
X009715Y022041D01*
X009577Y021903D01*
X009464Y021903D01*
X009326Y022041D01*
X009128Y022123D01*
X008913Y022123D01*
X008715Y022041D01*
X008577Y021903D01*
X008464Y021903D01*
X008326Y022041D01*
X008128Y022123D01*
X007913Y022123D01*
X007715Y022041D01*
X007563Y021889D01*
X007481Y021690D01*
X007481Y021476D01*
X007563Y021277D01*
X007715Y021125D01*
X007913Y021043D01*
X008128Y021043D01*
X008326Y021125D01*
X008464Y021263D01*
X008577Y021263D01*
X008715Y021125D01*
X008913Y021043D01*
X009128Y021043D01*
X009326Y021125D01*
X009464Y021263D01*
X009577Y021263D01*
X009701Y021139D01*
X009701Y020591D01*
X007132Y020591D01*
X007104Y020659D01*
X007036Y020726D01*
X006948Y020763D01*
X006341Y020763D01*
X006271Y020734D01*
X006257Y020740D01*
X006257Y020904D01*
X006202Y021036D01*
X005576Y021662D01*
X005474Y021763D01*
X005342Y021818D01*
X004779Y021818D01*
X004507Y022091D01*
X004034Y022091D01*
X003728Y021784D01*
X003482Y022031D01*
X003271Y022031D01*
X003271Y021521D01*
X003271Y021521D01*
X003271Y022031D01*
X003059Y022031D01*
X002761Y021732D01*
X002761Y021521D01*
X003271Y021521D01*
X003271Y021011D01*
X003482Y021011D01*
X003728Y021257D01*
X004034Y020951D01*
X004507Y020951D01*
X004654Y021098D01*
X005121Y021098D01*
X005499Y020721D01*
X005437Y020659D01*
X005401Y020571D01*
X005401Y019845D01*
X005437Y019757D01*
X005505Y019690D01*
X005593Y019653D01*
X006200Y019653D01*
X006271Y019682D01*
X006341Y019653D01*
X006948Y019653D01*
X007036Y019690D01*
X007104Y019757D01*
X007140Y019845D01*
X007140Y019951D01*
X015888Y019951D01*
X016888Y018951D01*
X016888Y011720D01*
X016500Y011332D01*
X016193Y011332D01*
X016166Y011321D01*
X016166Y011514D01*
X016129Y011602D01*
X016062Y011670D01*
X015973Y011706D01*
X015327Y011706D01*
X015238Y011670D01*
X015198Y011630D01*
X015171Y011630D01*
X013459Y013342D01*
X013459Y013516D01*
X013422Y013605D01*
X013381Y013646D01*
X013381Y015018D01*
X013390Y015022D01*
X013414Y015045D01*
X013620Y015045D01*
X013620Y015473D01*
X013716Y015473D01*
X013716Y015569D01*
X013620Y015569D01*
X013620Y015996D01*
X013414Y015996D01*
X013390Y016019D01*
X013338Y016041D01*
X013338Y016750D01*
X013390Y016772D01*
X013414Y016795D01*
X013620Y016795D01*
X013620Y017223D01*
X013716Y017223D01*
X013716Y017319D01*
X013620Y017319D01*
X013620Y017746D01*
X013414Y017746D01*
X013390Y017769D01*
X013302Y017806D01*
X012695Y017806D01*
X012607Y017769D01*
X012539Y017702D01*
X012503Y017614D01*
X012503Y016928D01*
X012539Y016839D01*
X012607Y016772D01*
X012658Y016750D01*
X012658Y016041D01*
X012607Y016019D01*
X012539Y015952D01*
X012503Y015864D01*
X012503Y015861D01*
X012140Y015861D01*
X012140Y015883D01*
X012104Y015971D01*
X012036Y016039D01*
X011948Y016076D01*
X011341Y016076D01*
X011271Y016046D01*
X011200Y016076D01*
X010593Y016076D01*
X010505Y016039D01*
X010437Y015971D01*
X010401Y015883D01*
X010401Y015858D01*
X008650Y015858D01*
X008564Y015944D01*
X008380Y016021D01*
X007661Y016021D01*
X007477Y015944D01*
X007337Y015804D01*
X007261Y015620D01*
X007261Y015421D01*
X007337Y015237D01*
X007477Y015097D01*
X007661Y015021D01*
X008380Y015021D01*
X008564Y015097D01*
X008645Y015178D01*
X010401Y015178D01*
X010401Y015158D01*
X010437Y015070D01*
X010505Y015002D01*
X010552Y014983D01*
X010552Y014052D01*
X010518Y014038D01*
X010448Y014067D01*
X009840Y014067D01*
X009752Y014030D01*
X009685Y013963D01*
X009648Y013875D01*
X009648Y013149D01*
X009685Y013061D01*
X009752Y012993D01*
X009807Y012971D01*
X009807Y012873D01*
X009755Y012851D01*
X009687Y012784D01*
X009651Y012696D01*
X009651Y011970D01*
X009687Y011882D01*
X009755Y011815D01*
X009787Y011801D01*
X009787Y010815D01*
X009785Y010815D01*
X009697Y010779D01*
X009629Y010711D01*
X009593Y010623D01*
X009593Y010291D01*
X009629Y010203D01*
X009653Y010180D01*
X009653Y010083D01*
X009653Y009987D01*
X009629Y009963D01*
X009593Y009875D01*
X009593Y009543D01*
X009603Y009518D01*
X009603Y009515D01*
X009655Y009390D01*
X009729Y009316D01*
X009729Y009278D01*
X008890Y009278D01*
X008890Y009321D01*
X008854Y009409D01*
X008786Y009476D01*
X008698Y009513D01*
X008091Y009513D01*
X008021Y009484D01*
X007950Y009513D01*
X007343Y009513D01*
X007255Y009476D01*
X007187Y009409D01*
X007151Y009321D01*
X007151Y009299D01*
X007085Y009299D01*
X007018Y009299D01*
X007018Y009299D01*
X006873Y009299D01*
X006859Y009333D01*
X006888Y009403D01*
X006888Y010011D01*
X006851Y010099D01*
X006798Y010152D01*
X007576Y010930D01*
X008210Y010930D01*
X008298Y010966D01*
X008365Y011034D01*
X008402Y011122D01*
X008402Y012044D01*
X008365Y012132D01*
X008298Y012200D01*
X008210Y012236D01*
X007287Y012236D01*
X007199Y012200D01*
X007132Y012132D01*
X007095Y012044D01*
X007095Y011411D01*
X006140Y010456D01*
X006045Y010360D01*
X005993Y010235D01*
X005993Y010203D01*
X005970Y010203D01*
X005882Y010166D01*
X005815Y010099D01*
X005778Y010011D01*
X005778Y009403D01*
X005807Y009333D01*
X005778Y009263D01*
X005778Y008655D01*
X005815Y008567D01*
X005882Y008500D01*
X005970Y008463D01*
X005993Y008463D01*
X005993Y008265D01*
X006001Y008247D01*
X005780Y006371D01*
X003386Y004341D01*
X002972Y004341D01*
X002638Y004007D01*
X002638Y003534D01*
X002583Y003534D01*
X002638Y003534D02*
X002972Y003201D01*
X003444Y003201D01*
X003750Y003507D01*
X003997Y003261D01*
X004208Y003261D01*
X004208Y003771D01*
X004718Y003771D01*
X004718Y003982D01*
X004419Y004281D01*
X004304Y004281D01*
X006286Y005960D01*
X006373Y006070D02*
X007504Y006070D01*
X007490Y005436D02*
X005667Y005436D01*
X005480Y005278D02*
X007490Y005278D01*
X007497Y005119D02*
X005293Y005119D01*
X005106Y004961D02*
X040094Y004961D01*
X040095Y005119D02*
X036669Y005119D01*
X036664Y005100D02*
X036676Y005146D01*
X036676Y005525D01*
X036141Y005525D01*
X036141Y004990D01*
X036520Y004990D01*
X036566Y005002D01*
X036607Y005026D01*
X036640Y005059D01*
X036664Y005100D01*
X036676Y005278D02*
X040095Y005278D01*
X040096Y005436D02*
X036676Y005436D01*
X036676Y005641D02*
X036676Y006020D01*
X036664Y006066D01*
X036640Y006107D01*
X036607Y006140D01*
X036566Y006164D01*
X036520Y006176D01*
X036141Y006176D01*
X036141Y005641D01*
X036676Y005641D01*
X036676Y005753D02*
X040096Y005753D01*
X040096Y005595D02*
X036141Y005595D01*
X036141Y005641D02*
X036141Y005525D01*
X036025Y005525D01*
X036025Y004990D01*
X035646Y004990D01*
X035600Y005002D01*
X035559Y005026D01*
X035526Y005059D01*
X035502Y005100D01*
X035490Y005146D01*
X035490Y005525D01*
X036025Y005525D01*
X036025Y005641D01*
X035490Y005641D01*
X035490Y006020D01*
X035502Y006066D01*
X035526Y006107D01*
X035559Y006140D01*
X035600Y006164D01*
X035646Y006176D01*
X036025Y006176D01*
X036025Y005641D01*
X036141Y005641D01*
X036141Y005753D02*
X036025Y005753D01*
X036025Y005595D02*
X029141Y005595D01*
X029141Y005641D02*
X029676Y005641D01*
X029676Y006020D01*
X029664Y006066D01*
X029640Y006107D01*
X029607Y006140D01*
X029566Y006164D01*
X029520Y006176D01*
X029141Y006176D01*
X029141Y005641D01*
X029141Y005525D01*
X029141Y004990D01*
X029520Y004990D01*
X029566Y005002D01*
X029607Y005026D01*
X029640Y005059D01*
X029664Y005100D01*
X029676Y005146D01*
X029676Y005525D01*
X029141Y005525D01*
X029025Y005525D01*
X029025Y004990D01*
X028646Y004990D01*
X028600Y005002D01*
X028559Y005026D01*
X028526Y005059D01*
X028502Y005100D01*
X028490Y005146D01*
X028490Y005525D01*
X029025Y005525D01*
X029025Y005641D01*
X028490Y005641D01*
X028490Y006020D01*
X028502Y006066D01*
X028526Y006107D01*
X028559Y006140D01*
X028600Y006164D01*
X028646Y006176D01*
X029025Y006176D01*
X029025Y005641D01*
X029141Y005641D01*
X029141Y005753D02*
X029025Y005753D01*
X029025Y005595D02*
X022141Y005595D01*
X022141Y005641D02*
X022676Y005641D01*
X022676Y006020D01*
X022664Y006066D01*
X022640Y006107D01*
X022607Y006140D01*
X022566Y006164D01*
X022520Y006176D01*
X022141Y006176D01*
X022141Y005641D01*
X022141Y005525D01*
X022141Y004990D01*
X022520Y004990D01*
X022566Y005002D01*
X022607Y005026D01*
X022640Y005059D01*
X022664Y005100D01*
X022676Y005146D01*
X022676Y005525D01*
X022141Y005525D01*
X022025Y005525D01*
X022025Y004990D01*
X021646Y004990D01*
X021600Y005002D01*
X021559Y005026D01*
X021526Y005059D01*
X021502Y005100D01*
X021490Y005146D01*
X021490Y005525D01*
X022025Y005525D01*
X022025Y005641D01*
X021490Y005641D01*
X021490Y006020D01*
X021502Y006066D01*
X021526Y006107D01*
X021559Y006140D01*
X021600Y006164D01*
X021646Y006176D01*
X022025Y006176D01*
X022025Y005641D01*
X022141Y005641D01*
X022141Y005753D02*
X022025Y005753D01*
X022025Y005595D02*
X015141Y005595D01*
X015025Y005595D02*
X008141Y005595D01*
X008141Y005436D02*
X008025Y005436D01*
X008025Y005278D02*
X008141Y005278D01*
X008141Y005119D02*
X008025Y005119D01*
X006408Y006229D02*
X040097Y006229D01*
X040098Y006387D02*
X006426Y006387D01*
X006445Y006546D02*
X040098Y006546D01*
X040098Y006704D02*
X006464Y006704D01*
X006482Y006863D02*
X040099Y006863D01*
X040099Y007021D02*
X006501Y007021D01*
X006520Y007180D02*
X007486Y007180D01*
X007466Y007199D02*
X007534Y007132D01*
X007622Y007095D01*
X008544Y007095D01*
X008632Y007132D01*
X008700Y007199D01*
X008736Y007287D01*
X008736Y008210D01*
X008700Y008298D01*
X008632Y008365D01*
X008544Y008402D01*
X007622Y008402D01*
X007534Y008365D01*
X007466Y008298D01*
X007430Y008210D01*
X007430Y007287D01*
X007466Y007199D01*
X007430Y007338D02*
X006538Y007338D01*
X006557Y007497D02*
X007430Y007497D01*
X007430Y007655D02*
X006576Y007655D01*
X006594Y007814D02*
X007430Y007814D01*
X007430Y007972D02*
X006613Y007972D01*
X006631Y008131D02*
X007430Y008131D01*
X007463Y008289D02*
X006673Y008289D01*
X006673Y008448D02*
X007247Y008448D01*
X007151Y008606D02*
X006868Y008606D01*
X006333Y008333D02*
X006083Y006208D01*
X003208Y003771D01*
X002797Y003376D02*
X002583Y003376D01*
X002583Y003217D02*
X002955Y003217D01*
X002583Y003059D02*
X040090Y003059D01*
X040090Y003217D02*
X038373Y003217D01*
X038347Y003192D02*
X038592Y003437D01*
X038725Y003756D01*
X038725Y004103D01*
X038592Y004422D01*
X038347Y004667D01*
X038028Y004799D01*
X037682Y004799D01*
X037362Y004667D01*
X037117Y004422D01*
X036985Y004103D01*
X036985Y003756D01*
X037117Y003437D01*
X037362Y003192D01*
X037682Y003060D01*
X038028Y003060D01*
X038347Y003192D01*
X038531Y003376D02*
X040091Y003376D01*
X040091Y003534D02*
X038633Y003534D01*
X038698Y003693D02*
X040092Y003693D01*
X040092Y003851D02*
X038725Y003851D01*
X038725Y004010D02*
X040092Y004010D01*
X040093Y004168D02*
X038698Y004168D01*
X038632Y004327D02*
X040093Y004327D01*
X040093Y004485D02*
X038529Y004485D01*
X038371Y004644D02*
X040094Y004644D01*
X040094Y004802D02*
X004920Y004802D01*
X004733Y004644D02*
X005795Y004644D01*
X005637Y004485D02*
X004546Y004485D01*
X004359Y004327D02*
X005534Y004327D01*
X005469Y004168D02*
X004532Y004168D01*
X004690Y004010D02*
X005441Y004010D01*
X005441Y003851D02*
X004718Y003851D01*
X004718Y003771D02*
X004208Y003771D01*
X004208Y003771D01*
X004208Y003771D01*
X004208Y003261D01*
X004419Y003261D01*
X004718Y003559D01*
X004718Y003771D01*
X004718Y003693D02*
X005468Y003693D01*
X005534Y003534D02*
X004693Y003534D01*
X004534Y003376D02*
X005635Y003376D01*
X005794Y003217D02*
X003461Y003217D01*
X003619Y003376D02*
X003882Y003376D01*
X004208Y003376D02*
X004208Y003376D01*
X004208Y003534D02*
X004208Y003534D01*
X004208Y003693D02*
X004208Y003693D01*
X003556Y004485D02*
X002583Y004485D01*
X002583Y004327D02*
X002958Y004327D01*
X002799Y004168D02*
X002583Y004168D01*
X002583Y004010D02*
X002641Y004010D01*
X002638Y003851D02*
X002583Y003851D01*
X002583Y003693D02*
X002638Y003693D01*
X002583Y002900D02*
X040090Y002900D01*
X040089Y002742D02*
X002583Y002742D01*
X002583Y002583D02*
X040089Y002583D01*
X037337Y003217D02*
X034829Y003217D01*
X034804Y003192D02*
X035049Y003437D01*
X035181Y003756D01*
X035181Y004103D01*
X035049Y004422D01*
X034804Y004667D01*
X034484Y004799D01*
X034138Y004799D01*
X033819Y004667D01*
X033574Y004422D01*
X033441Y004103D01*
X033441Y003756D01*
X033574Y003437D01*
X033819Y003192D01*
X034138Y003060D01*
X034484Y003060D01*
X034804Y003192D01*
X034988Y003376D02*
X037178Y003376D01*
X037077Y003534D02*
X035089Y003534D01*
X035155Y003693D02*
X037011Y003693D01*
X036985Y003851D02*
X035181Y003851D01*
X035181Y004010D02*
X036985Y004010D01*
X037012Y004168D02*
X035154Y004168D01*
X035089Y004327D02*
X037078Y004327D01*
X037180Y004485D02*
X034986Y004485D01*
X034828Y004644D02*
X037339Y004644D01*
X036141Y005119D02*
X036025Y005119D01*
X036025Y005278D02*
X036141Y005278D01*
X036141Y005436D02*
X036025Y005436D01*
X036025Y005912D02*
X036141Y005912D01*
X036141Y006070D02*
X036025Y006070D01*
X035504Y006070D02*
X029662Y006070D01*
X029676Y005912D02*
X035490Y005912D01*
X035490Y005753D02*
X029676Y005753D01*
X029676Y005436D02*
X035490Y005436D01*
X035490Y005278D02*
X029676Y005278D01*
X029669Y005119D02*
X035497Y005119D01*
X036676Y005912D02*
X040097Y005912D01*
X040097Y006070D02*
X036662Y006070D01*
X036544Y007095D02*
X035622Y007095D01*
X035534Y007132D01*
X035466Y007199D01*
X035430Y007287D01*
X035430Y008210D01*
X035466Y008298D01*
X035534Y008365D01*
X035622Y008402D01*
X036544Y008402D01*
X036632Y008365D01*
X036700Y008298D01*
X036736Y008210D01*
X036736Y007287D01*
X036700Y007199D01*
X036632Y007132D01*
X036544Y007095D01*
X036680Y007180D02*
X040100Y007180D01*
X040100Y007338D02*
X036736Y007338D01*
X036736Y007497D02*
X040100Y007497D01*
X040101Y007655D02*
X036736Y007655D01*
X036736Y007814D02*
X040101Y007814D01*
X040101Y007972D02*
X036736Y007972D01*
X036736Y008131D02*
X038525Y008131D01*
X038564Y008115D02*
X038910Y008115D01*
X039229Y008247D01*
X039474Y008492D01*
X039607Y008812D01*
X039607Y009158D01*
X039474Y009477D01*
X039229Y009722D01*
X038910Y009855D01*
X038564Y009855D01*
X038244Y009722D01*
X037999Y009477D01*
X037867Y009158D01*
X037867Y008812D01*
X037999Y008492D01*
X038244Y008247D01*
X038564Y008115D01*
X038948Y008131D02*
X040102Y008131D01*
X040102Y008289D02*
X039271Y008289D01*
X039430Y008448D02*
X040102Y008448D01*
X040103Y008606D02*
X039521Y008606D01*
X039587Y008765D02*
X040103Y008765D01*
X040104Y008923D02*
X039607Y008923D01*
X039607Y009082D02*
X040104Y009082D01*
X040104Y009240D02*
X039572Y009240D01*
X039507Y009399D02*
X040105Y009399D01*
X040105Y009557D02*
X039394Y009557D01*
X039236Y009716D02*
X040105Y009716D01*
X040106Y009874D02*
X030451Y009874D01*
X030451Y009990D02*
X030052Y010388D01*
X029791Y010388D01*
X029791Y009728D01*
X030451Y009728D01*
X030451Y009990D01*
X030408Y010033D02*
X040106Y010033D01*
X040106Y010191D02*
X037593Y010191D01*
X037607Y010199D02*
X037640Y010232D01*
X037664Y010273D01*
X037676Y010319D01*
X037676Y010699D01*
X037141Y010699D01*
X037141Y010814D01*
X037676Y010814D01*
X037676Y011193D01*
X037664Y011239D01*
X037640Y011280D01*
X037607Y011314D01*
X037566Y011337D01*
X037520Y011350D01*
X037141Y011350D01*
X037141Y010814D01*
X037025Y010814D01*
X037025Y010699D01*
X036490Y010699D01*
X036490Y010319D01*
X036502Y010273D01*
X036526Y010232D01*
X036559Y010199D01*
X036600Y010175D01*
X036646Y010163D01*
X037025Y010163D01*
X037025Y010698D01*
X037141Y010698D01*
X037141Y010163D01*
X037520Y010163D01*
X037566Y010175D01*
X037607Y010199D01*
X037676Y010350D02*
X040107Y010350D01*
X040107Y010508D02*
X037676Y010508D01*
X037676Y010667D02*
X040108Y010667D01*
X040108Y010825D02*
X037676Y010825D01*
X037676Y010984D02*
X040108Y010984D01*
X040109Y011142D02*
X037676Y011142D01*
X037620Y011301D02*
X040109Y011301D01*
X040109Y011459D02*
X030468Y011459D01*
X030511Y011561D02*
X030398Y011289D01*
X030190Y011081D01*
X029918Y010968D01*
X029623Y010968D01*
X029351Y011081D01*
X029143Y011289D01*
X029031Y011561D01*
X029031Y011855D01*
X029143Y012127D01*
X029351Y012335D01*
X029623Y012448D01*
X029918Y012448D01*
X030190Y012335D01*
X030398Y012127D01*
X030511Y011855D01*
X030511Y011561D01*
X030511Y011618D02*
X040110Y011618D01*
X040110Y011776D02*
X035426Y011776D01*
X035467Y011793D02*
X035535Y011861D01*
X035571Y011949D01*
X035571Y012871D01*
X035535Y012959D01*
X035467Y013027D01*
X035379Y013063D01*
X034457Y013063D01*
X034368Y013027D01*
X034301Y012959D01*
X034264Y012871D01*
X034264Y011949D01*
X034301Y011861D01*
X034368Y011793D01*
X034457Y011756D01*
X035379Y011756D01*
X035467Y011793D01*
X035565Y011935D02*
X036500Y011935D01*
X036502Y011927D02*
X036526Y011886D01*
X036559Y011852D01*
X036600Y011829D01*
X036646Y011816D01*
X037025Y011816D01*
X037025Y012352D01*
X036490Y012352D01*
X036490Y011973D01*
X036502Y011927D01*
X036490Y012093D02*
X035571Y012093D01*
X035571Y012252D02*
X036490Y012252D01*
X036490Y012468D02*
X036490Y012847D01*
X036502Y012893D01*
X036526Y012934D01*
X036559Y012967D01*
X036600Y012991D01*
X036646Y013003D01*
X037025Y013003D01*
X037025Y012468D01*
X037141Y012468D01*
X037141Y013003D01*
X037520Y013003D01*
X037566Y012991D01*
X037607Y012967D01*
X037640Y012934D01*
X037664Y012893D01*
X037676Y012847D01*
X037676Y012468D01*
X037141Y012468D01*
X037141Y012352D01*
X037676Y012352D01*
X037676Y011973D01*
X037664Y011927D01*
X037640Y011886D01*
X037607Y011852D01*
X037566Y011829D01*
X037520Y011816D01*
X037141Y011816D01*
X037141Y012352D01*
X037025Y012352D01*
X037025Y012468D01*
X036490Y012468D01*
X036490Y012569D02*
X035571Y012569D01*
X035571Y012727D02*
X036490Y012727D01*
X036500Y012886D02*
X035565Y012886D01*
X035425Y013044D02*
X040113Y013044D01*
X040113Y012886D02*
X037666Y012886D01*
X037676Y012727D02*
X040112Y012727D01*
X040112Y012569D02*
X037676Y012569D01*
X037676Y012252D02*
X040111Y012252D01*
X040111Y012410D02*
X037141Y012410D01*
X037025Y012410D02*
X035571Y012410D01*
X035379Y011410D02*
X034457Y011410D01*
X034368Y011373D01*
X034301Y011306D01*
X034264Y011217D01*
X034264Y010295D01*
X034301Y010207D01*
X034368Y010139D01*
X034457Y010103D01*
X035379Y010103D01*
X035467Y010139D01*
X035535Y010207D01*
X035571Y010295D01*
X035571Y011217D01*
X035535Y011306D01*
X035467Y011373D01*
X035379Y011410D01*
X035537Y011301D02*
X036546Y011301D01*
X036559Y011314D02*
X036526Y011280D01*
X036502Y011239D01*
X036490Y011193D01*
X036490Y010814D01*
X037025Y010814D01*
X037025Y011350D01*
X036646Y011350D01*
X036600Y011337D01*
X036559Y011314D01*
X036490Y011142D02*
X035571Y011142D01*
X035571Y010984D02*
X036490Y010984D01*
X036490Y010825D02*
X035571Y010825D01*
X035571Y010667D02*
X036490Y010667D01*
X036490Y010508D02*
X035571Y010508D01*
X035571Y010350D02*
X036490Y010350D01*
X036573Y010191D02*
X035519Y010191D01*
X034317Y010191D02*
X030249Y010191D01*
X030091Y010350D02*
X034264Y010350D01*
X034264Y010508D02*
X020256Y010508D01*
X020256Y010350D02*
X029450Y010350D01*
X029489Y010388D02*
X029091Y009990D01*
X029091Y009728D01*
X029751Y009728D01*
X029751Y010388D01*
X029489Y010388D01*
X029751Y010350D02*
X029791Y010350D01*
X029791Y010191D02*
X029751Y010191D01*
X029751Y010033D02*
X029791Y010033D01*
X029791Y009874D02*
X029751Y009874D01*
X029751Y009728D02*
X029791Y009728D01*
X029791Y009688D01*
X030451Y009688D01*
X030451Y009426D01*
X030052Y009028D01*
X029791Y009028D01*
X029791Y009688D01*
X029751Y009688D01*
X029751Y009028D01*
X029489Y009028D01*
X029091Y009426D01*
X029091Y009688D01*
X029751Y009688D01*
X029751Y009728D01*
X029751Y009716D02*
X020334Y009716D01*
X020334Y009874D02*
X029091Y009874D01*
X029133Y010033D02*
X020327Y010033D01*
X020256Y010191D02*
X029292Y010191D01*
X029091Y009557D02*
X020334Y009557D01*
X020259Y009399D02*
X029118Y009399D01*
X029277Y009240D02*
X019328Y009240D01*
X019319Y009399D02*
X019532Y009399D01*
X019457Y009557D02*
X019388Y009557D01*
X019388Y009716D02*
X019457Y009716D01*
X019457Y009874D02*
X019388Y009874D01*
X019388Y010033D02*
X019464Y010033D01*
X019536Y010191D02*
X019365Y010191D01*
X019536Y010350D02*
X019193Y010350D01*
X019198Y010508D02*
X019536Y010508D01*
X019536Y010667D02*
X019291Y010667D01*
X019291Y010825D02*
X019536Y010825D01*
X018833Y010838D02*
X018775Y010897D01*
X016517Y010897D01*
X016516Y010896D01*
X017208Y011588D01*
X017208Y019083D01*
X016021Y020271D01*
X010333Y020271D01*
X010021Y020583D01*
X010021Y021583D01*
X009021Y021583D01*
X008021Y021583D01*
X008235Y022079D02*
X008806Y022079D01*
X008594Y021920D02*
X008447Y021920D01*
X007806Y022079D02*
X004519Y022079D01*
X004677Y021920D02*
X007594Y021920D01*
X007510Y021762D02*
X005476Y021762D01*
X005635Y021603D02*
X007481Y021603D01*
X007493Y021445D02*
X005793Y021445D01*
X005952Y021286D02*
X007559Y021286D01*
X007712Y021128D02*
X006110Y021128D01*
X006229Y020969D02*
X009701Y020969D01*
X009701Y020811D02*
X006257Y020811D01*
X006707Y020271D02*
X006645Y020208D01*
X006707Y020271D02*
X010333Y020271D01*
X010404Y020652D02*
X028563Y020652D01*
X028563Y020666D02*
X028563Y020626D01*
X028103Y020626D01*
X028103Y020447D01*
X028384Y020166D01*
X028563Y020166D01*
X028563Y020626D01*
X028603Y020626D01*
X028603Y020666D01*
X028563Y020666D01*
X028563Y021126D01*
X028384Y021126D01*
X028103Y020844D01*
X028103Y020666D01*
X028563Y020666D01*
X028603Y020666D02*
X028603Y021126D01*
X028782Y021126D01*
X029063Y020844D01*
X029063Y020666D01*
X028603Y020666D01*
X028603Y020652D02*
X030192Y020652D01*
X030142Y020532D01*
X030104Y020407D01*
X030078Y020278D01*
X030067Y020163D01*
X031316Y020163D01*
X031316Y021412D01*
X031200Y021400D01*
X031072Y021375D01*
X030947Y021337D01*
X030826Y021287D01*
X030711Y021225D01*
X030602Y021153D01*
X030501Y021070D01*
X030409Y020977D01*
X030326Y020876D01*
X030253Y020768D01*
X030192Y020652D01*
X030130Y020494D02*
X029063Y020494D01*
X029063Y020447D02*
X029063Y020626D01*
X028603Y020626D01*
X028603Y020166D01*
X028782Y020166D01*
X029063Y020447D01*
X028951Y020335D02*
X030090Y020335D01*
X030068Y020177D02*
X028793Y020177D01*
X028603Y020177D02*
X028563Y020177D01*
X028563Y020335D02*
X028603Y020335D01*
X028603Y020494D02*
X028563Y020494D01*
X028563Y020811D02*
X028603Y020811D01*
X028603Y020969D02*
X028563Y020969D01*
X028228Y020969D02*
X010341Y020969D01*
X010341Y020811D02*
X028103Y020811D01*
X028103Y020494D02*
X016250Y020494D01*
X016409Y020335D02*
X028215Y020335D01*
X028373Y020177D02*
X016567Y020177D01*
X016726Y020018D02*
X031316Y020018D01*
X031316Y020003D02*
X030067Y020003D01*
X030078Y019888D01*
X030104Y019760D01*
X030142Y019634D01*
X030192Y019514D01*
X030253Y019398D01*
X030326Y019290D01*
X030409Y019189D01*
X030501Y019096D01*
X030602Y019014D01*
X030711Y018941D01*
X030826Y018879D01*
X030947Y018829D01*
X031072Y018791D01*
X031200Y018766D01*
X031316Y018755D01*
X031316Y020003D01*
X031476Y020003D01*
X031476Y020163D01*
X032724Y020163D01*
X032713Y020278D01*
X032687Y020407D01*
X032649Y020532D01*
X032599Y020652D01*
X040130Y020652D01*
X040130Y020494D02*
X032661Y020494D01*
X032701Y020335D02*
X034330Y020335D01*
X034301Y020306D02*
X034264Y020217D01*
X034264Y019295D01*
X034301Y019207D01*
X034368Y019139D01*
X034457Y019103D01*
X035379Y019103D01*
X035467Y019139D01*
X035535Y019207D01*
X035571Y019295D01*
X035571Y020217D01*
X035535Y020306D01*
X035467Y020373D01*
X035379Y020410D01*
X034457Y020410D01*
X034368Y020373D01*
X034301Y020306D01*
X034264Y020177D02*
X032723Y020177D01*
X032724Y020003D02*
X031476Y020003D01*
X031476Y018755D01*
X031591Y018766D01*
X031719Y018791D01*
X031844Y018829D01*
X031965Y018879D01*
X032080Y018941D01*
X032189Y019014D01*
X032290Y019096D01*
X032382Y019189D01*
X032465Y019290D01*
X032538Y019398D01*
X032599Y019514D01*
X032649Y019634D01*
X032687Y019760D01*
X032713Y019888D01*
X032724Y020003D01*
X032707Y019860D02*
X034264Y019860D01*
X034264Y020018D02*
X031476Y020018D01*
X031476Y020163D02*
X031316Y020163D01*
X031316Y020003D01*
X031316Y019860D02*
X031476Y019860D01*
X031476Y019701D02*
X031316Y019701D01*
X031316Y019543D02*
X031476Y019543D01*
X031476Y019384D02*
X031316Y019384D01*
X031316Y019226D02*
X031476Y019226D01*
X031476Y019067D02*
X031316Y019067D01*
X031316Y018909D02*
X031476Y018909D01*
X030771Y018909D02*
X017528Y018909D01*
X017528Y019067D02*
X030537Y019067D01*
X030379Y019226D02*
X017495Y019226D01*
X017360Y019384D02*
X030263Y019384D01*
X030180Y019543D02*
X017201Y019543D01*
X017043Y019701D02*
X030122Y019701D01*
X030084Y019860D02*
X016884Y019860D01*
X016454Y019384D02*
X014145Y019384D01*
X014136Y019388D02*
X013528Y019388D01*
X013458Y019359D01*
X013388Y019388D01*
X012780Y019388D01*
X012692Y019351D01*
X012625Y019284D01*
X012588Y019196D01*
X012588Y019153D01*
X006769Y019153D01*
X006652Y019104D01*
X005561Y018013D01*
X005561Y018178D01*
X005488Y018354D01*
X005354Y018488D01*
X005178Y018561D01*
X004988Y018561D01*
X004812Y018488D01*
X004678Y018354D01*
X004605Y018178D01*
X004605Y017988D01*
X004678Y017812D01*
X004812Y017678D01*
X004988Y017605D01*
X005153Y017605D01*
X005108Y017561D01*
X004988Y017561D01*
X004812Y017488D01*
X004678Y017354D01*
X004605Y017178D01*
X004605Y016988D01*
X004678Y016812D01*
X004812Y016678D01*
X004988Y016605D01*
X005178Y016605D01*
X005354Y016678D01*
X005488Y016812D01*
X005561Y016988D01*
X005561Y017108D01*
X006966Y018513D01*
X012588Y018513D01*
X012588Y018470D01*
X012625Y018382D01*
X012692Y018315D01*
X012780Y018278D01*
X013388Y018278D01*
X013458Y018307D01*
X013528Y018278D01*
X014136Y018278D01*
X014224Y018315D01*
X014291Y018382D01*
X014328Y018470D01*
X014328Y018513D01*
X015676Y018513D01*
X015681Y018499D01*
X015749Y018431D01*
X015837Y018395D01*
X016329Y018395D01*
X016417Y018431D01*
X016485Y018499D01*
X016521Y018587D01*
X016521Y019079D01*
X016485Y019167D01*
X016417Y019235D01*
X016329Y019271D01*
X015837Y019271D01*
X015749Y019235D01*
X015681Y019167D01*
X015676Y019153D01*
X014328Y019153D01*
X014328Y019196D01*
X014291Y019284D01*
X014224Y019351D01*
X014136Y019388D01*
X014316Y019226D02*
X015740Y019226D01*
X016083Y018833D02*
X013832Y018833D01*
X014313Y018433D02*
X015747Y018433D01*
X016419Y018433D02*
X016888Y018433D01*
X016888Y018275D02*
X006727Y018275D01*
X006886Y018433D02*
X012604Y018433D01*
X013084Y018833D02*
X006833Y018833D01*
X005083Y017083D01*
X005146Y017021D01*
X005503Y016848D02*
X006466Y016848D01*
X006474Y016856D02*
X006425Y016807D01*
X006384Y016751D01*
X006353Y016689D01*
X006331Y016624D01*
X006321Y016555D01*
X006321Y016521D01*
X007021Y016521D01*
X007021Y016521D01*
X007021Y016961D01*
X007315Y016961D01*
X007384Y016950D01*
X007449Y016928D01*
X007511Y016897D01*
X007567Y016856D01*
X007616Y016807D01*
X007657Y016751D01*
X007688Y016689D01*
X007710Y016624D01*
X007721Y016555D01*
X007721Y016521D01*
X007021Y016521D01*
X007021Y016521D01*
X007021Y016961D01*
X006726Y016961D01*
X006658Y016950D01*
X006592Y016928D01*
X006530Y016897D01*
X006474Y016856D01*
X006353Y016690D02*
X005365Y016690D01*
X005243Y016470D02*
X005181Y016491D01*
X005116Y016501D01*
X005083Y016501D01*
X005050Y016501D01*
X004985Y016491D01*
X004923Y016470D01*
X004864Y016440D01*
X004811Y016402D01*
X004764Y016355D01*
X004726Y016302D01*
X004696Y016243D01*
X004676Y016181D01*
X004665Y016116D01*
X004665Y016083D01*
X004665Y016050D01*
X004676Y015985D01*
X004696Y015923D01*
X004726Y015864D01*
X004764Y015811D01*
X004811Y015764D01*
X004864Y015726D01*
X004923Y015696D01*
X004985Y015676D01*
X005050Y015665D01*
X005083Y015665D01*
X005083Y016083D01*
X004665Y016083D01*
X005083Y016083D01*
X005083Y016083D01*
X005083Y016083D01*
X005083Y015665D01*
X005116Y015665D01*
X005181Y015676D01*
X005243Y015696D01*
X005302Y015726D01*
X005355Y015764D01*
X005402Y015811D01*
X005440Y015864D01*
X005470Y015923D01*
X005491Y015985D01*
X005501Y016050D01*
X005501Y016083D01*
X005083Y016083D01*
X005083Y016501D01*
X005083Y016083D01*
X005083Y016083D01*
X005083Y016083D01*
X005501Y016083D01*
X005501Y016116D01*
X005491Y016181D01*
X005470Y016243D01*
X005440Y016302D01*
X005402Y016355D01*
X005355Y016402D01*
X005302Y016440D01*
X005243Y016470D01*
X005384Y016373D02*
X006346Y016373D01*
X006353Y016352D02*
X006384Y016290D01*
X006425Y016234D01*
X006474Y016185D01*
X006530Y016144D01*
X006592Y016113D01*
X006658Y016091D01*
X006726Y016081D01*
X007021Y016081D01*
X007315Y016081D01*
X007384Y016091D01*
X007449Y016113D01*
X007511Y016144D01*
X007567Y016185D01*
X007616Y016234D01*
X007657Y016290D01*
X007688Y016352D01*
X007710Y016418D01*
X007721Y016486D01*
X007721Y016521D01*
X007021Y016521D01*
X007021Y016081D01*
X007021Y016521D01*
X007021Y016521D01*
X007021Y016521D01*
X006321Y016521D01*
X006321Y016486D01*
X006331Y016418D01*
X006353Y016352D01*
X006445Y016214D02*
X005480Y016214D01*
X005501Y016056D02*
X010545Y016056D01*
X010406Y015897D02*
X008611Y015897D01*
X007695Y016373D02*
X012658Y016373D01*
X012658Y016531D02*
X007721Y016531D01*
X007688Y016690D02*
X012658Y016690D01*
X012535Y016848D02*
X007575Y016848D01*
X007661Y017021D02*
X007477Y017097D01*
X007337Y017237D01*
X007261Y017421D01*
X007261Y017620D01*
X007337Y017804D01*
X007477Y017944D01*
X007661Y018021D01*
X008380Y018021D01*
X008564Y017944D01*
X008704Y017804D01*
X008781Y017620D01*
X008781Y017421D01*
X008704Y017237D01*
X008564Y017097D01*
X008380Y017021D01*
X007661Y017021D01*
X007409Y017165D02*
X005618Y017165D01*
X005561Y017007D02*
X012503Y017007D01*
X012503Y017165D02*
X008632Y017165D01*
X008740Y017324D02*
X012503Y017324D01*
X012503Y017482D02*
X008781Y017482D01*
X008772Y017641D02*
X012514Y017641D01*
X012678Y017799D02*
X008706Y017799D01*
X008532Y017958D02*
X016888Y017958D01*
X016888Y018116D02*
X006569Y018116D01*
X006410Y017958D02*
X007509Y017958D01*
X007335Y017799D02*
X006252Y017799D01*
X006093Y017641D02*
X007269Y017641D01*
X007261Y017482D02*
X005935Y017482D01*
X005776Y017324D02*
X007301Y017324D01*
X007021Y016848D02*
X007021Y016848D01*
X007021Y016690D02*
X007021Y016690D01*
X007021Y016531D02*
X007021Y016531D01*
X007021Y016373D02*
X007021Y016373D01*
X007021Y016214D02*
X007021Y016214D01*
X007430Y015897D02*
X005457Y015897D01*
X005320Y015739D02*
X007310Y015739D01*
X007261Y015580D02*
X002583Y015580D01*
X002583Y015422D02*
X007261Y015422D01*
X007326Y015263D02*
X002583Y015263D01*
X002583Y015105D02*
X007469Y015105D01*
X008572Y015105D02*
X010423Y015105D01*
X010552Y014946D02*
X002583Y014946D01*
X002583Y014788D02*
X010552Y014788D01*
X010552Y014629D02*
X002583Y014629D01*
X002583Y014471D02*
X010552Y014471D01*
X010552Y014312D02*
X002583Y014312D01*
X002583Y014154D02*
X003585Y014154D01*
X003437Y014092D02*
X003192Y013847D01*
X003060Y013528D01*
X003060Y013182D01*
X003192Y012862D01*
X003437Y012617D01*
X003756Y012485D01*
X004103Y012485D01*
X004422Y012617D01*
X004667Y012862D01*
X004799Y013182D01*
X004799Y013528D01*
X004667Y013847D01*
X004422Y014092D01*
X004103Y014225D01*
X003756Y014225D01*
X003437Y014092D01*
X003340Y013995D02*
X002583Y013995D01*
X002583Y013837D02*
X003188Y013837D01*
X003122Y013678D02*
X002583Y013678D01*
X002583Y013520D02*
X003060Y013520D01*
X003060Y013361D02*
X002583Y013361D01*
X002583Y013203D02*
X003060Y013203D01*
X003117Y013044D02*
X002583Y013044D01*
X002583Y012886D02*
X003182Y012886D01*
X003327Y012727D02*
X002583Y012727D01*
X002583Y012569D02*
X003554Y012569D01*
X004305Y012569D02*
X009651Y012569D01*
X009664Y012727D02*
X004532Y012727D01*
X004677Y012886D02*
X009807Y012886D01*
X009702Y013044D02*
X004742Y013044D01*
X004799Y013203D02*
X009648Y013203D01*
X009648Y013361D02*
X004799Y013361D01*
X004799Y013520D02*
X009648Y013520D01*
X009648Y013678D02*
X004737Y013678D01*
X004672Y013837D02*
X009648Y013837D01*
X009717Y013995D02*
X004519Y013995D01*
X004274Y014154D02*
X010552Y014154D01*
X009651Y012410D02*
X002583Y012410D01*
X002583Y012252D02*
X009651Y012252D01*
X009651Y012093D02*
X008382Y012093D01*
X008402Y011935D02*
X009665Y011935D01*
X009787Y011776D02*
X008402Y011776D01*
X008402Y011618D02*
X009787Y011618D01*
X009787Y011459D02*
X008402Y011459D01*
X008402Y011301D02*
X009787Y011301D01*
X009787Y011142D02*
X008402Y011142D01*
X008315Y010984D02*
X009787Y010984D01*
X009787Y010825D02*
X007471Y010825D01*
X007313Y010667D02*
X009611Y010667D01*
X009593Y010508D02*
X007154Y010508D01*
X006996Y010350D02*
X009593Y010350D01*
X009641Y010191D02*
X006837Y010191D01*
X006879Y010033D02*
X009653Y010033D01*
X009653Y010083D02*
X010069Y010083D01*
X010069Y010083D01*
X009653Y010083D01*
X009593Y009874D02*
X006888Y009874D01*
X006888Y009716D02*
X009593Y009716D01*
X009593Y009557D02*
X006888Y009557D01*
X006886Y009399D02*
X007183Y009399D01*
X008395Y008958D02*
X009881Y008958D01*
X010069Y009146D01*
X010409Y009082D02*
X011230Y009082D01*
X011071Y009240D02*
X010409Y009240D01*
X010452Y009399D02*
X010714Y009399D01*
X010621Y009557D02*
X010545Y009557D01*
X010545Y009716D02*
X010621Y009716D01*
X010621Y009874D02*
X010545Y009874D01*
X010485Y010033D02*
X010730Y010033D01*
X010670Y010191D02*
X010497Y010191D01*
X010545Y010350D02*
X010621Y010350D01*
X010621Y010508D02*
X010545Y010508D01*
X010527Y010667D02*
X010639Y010667D01*
X010757Y010825D02*
X010507Y010825D01*
X010507Y010984D02*
X010757Y010984D01*
X010757Y011142D02*
X010507Y011142D01*
X010507Y011301D02*
X010757Y011301D01*
X010757Y011459D02*
X010507Y011459D01*
X010507Y011618D02*
X010757Y011618D01*
X010757Y011776D02*
X010507Y011776D01*
X011877Y010033D02*
X012617Y010033D01*
X012617Y009874D02*
X012320Y009874D01*
X012454Y009716D02*
X012617Y009716D01*
X012617Y009557D02*
X012459Y009557D01*
X012459Y009399D02*
X012617Y009399D01*
X012617Y009240D02*
X012459Y009240D01*
X013297Y009240D02*
X018338Y009240D01*
X018347Y009399D02*
X013297Y009399D01*
X013297Y009557D02*
X018278Y009557D01*
X018278Y009716D02*
X013297Y009716D01*
X013297Y009874D02*
X018278Y009874D01*
X018278Y010033D02*
X013297Y010033D01*
X013329Y010457D02*
X013329Y010486D01*
X015650Y010486D01*
X015650Y010522D01*
X016166Y010350D02*
X018473Y010350D01*
X018352Y010508D02*
X016941Y010508D01*
X016130Y010191D02*
X018301Y010191D01*
X018372Y011301D02*
X017374Y011301D01*
X017501Y011459D02*
X018319Y011459D01*
X018319Y011618D02*
X017528Y011618D01*
X017528Y011776D02*
X018319Y011776D01*
X018345Y011935D02*
X017528Y011935D01*
X017528Y012093D02*
X029129Y012093D01*
X029063Y011935D02*
X019205Y011935D01*
X019231Y011776D02*
X029031Y011776D01*
X029031Y011618D02*
X020106Y011618D01*
X020157Y011459D02*
X029073Y011459D01*
X029138Y011301D02*
X020157Y011301D01*
X020233Y011142D02*
X029290Y011142D01*
X029586Y010984D02*
X020256Y010984D01*
X020256Y010825D02*
X034264Y010825D01*
X034264Y010667D02*
X020256Y010667D01*
X018793Y011776D02*
X018757Y011776D01*
X018757Y011935D02*
X018793Y011935D01*
X017528Y012252D02*
X029268Y012252D01*
X029532Y012410D02*
X017528Y012410D01*
X017528Y012569D02*
X034264Y012569D01*
X034264Y012727D02*
X017528Y012727D01*
X017528Y012886D02*
X034270Y012886D01*
X034410Y013044D02*
X017528Y013044D01*
X017528Y013203D02*
X028262Y013203D01*
X028359Y013106D02*
X028807Y013106D01*
X029123Y013422D01*
X029123Y013869D01*
X028807Y014186D01*
X028359Y014186D01*
X028043Y013869D01*
X028043Y013422D01*
X028359Y013106D01*
X028104Y013361D02*
X017528Y013361D01*
X017528Y013520D02*
X028043Y013520D01*
X028043Y013678D02*
X017528Y013678D01*
X017528Y013837D02*
X028043Y013837D01*
X028169Y013995D02*
X017528Y013995D01*
X017528Y014154D02*
X028327Y014154D01*
X028839Y014154D02*
X030117Y014154D01*
X030104Y014197D02*
X030142Y014072D01*
X030192Y013951D01*
X030253Y013836D01*
X030326Y013727D01*
X030409Y013626D01*
X030501Y013534D01*
X030602Y013451D01*
X030711Y013378D01*
X030826Y013317D01*
X030947Y013267D01*
X031072Y013229D01*
X031200Y013203D01*
X031316Y013192D01*
X031316Y014441D01*
X031476Y014441D01*
X031476Y014601D01*
X032724Y014601D01*
X032713Y014716D01*
X032687Y014844D01*
X032649Y014969D01*
X032599Y015090D01*
X032538Y015205D01*
X032465Y015314D01*
X032382Y015415D01*
X032290Y015507D01*
X032189Y015590D01*
X032080Y015663D01*
X031965Y015724D01*
X031844Y015774D01*
X031719Y015812D01*
X031591Y015838D01*
X031476Y015849D01*
X031476Y014601D01*
X031316Y014601D01*
X031316Y015849D01*
X031200Y015838D01*
X031072Y015812D01*
X030947Y015774D01*
X030826Y015724D01*
X030711Y015663D01*
X030602Y015590D01*
X030501Y015507D01*
X030409Y015415D01*
X030326Y015314D01*
X030253Y015205D01*
X030192Y015090D01*
X030142Y014969D01*
X030104Y014844D01*
X030078Y014716D01*
X030067Y014601D01*
X031316Y014601D01*
X031316Y014441D01*
X030067Y014441D01*
X030078Y014325D01*
X030104Y014197D01*
X030081Y014312D02*
X017528Y014312D01*
X017528Y014471D02*
X031316Y014471D01*
X031316Y014629D02*
X031476Y014629D01*
X031476Y014471D02*
X037915Y014471D01*
X037867Y014355D02*
X037867Y014008D01*
X037999Y013689D01*
X038244Y013444D01*
X038564Y013312D01*
X038910Y013312D01*
X039229Y013444D01*
X039474Y013689D01*
X039607Y014008D01*
X039607Y014355D01*
X039474Y014674D01*
X039229Y014919D01*
X038910Y015051D01*
X038564Y015051D01*
X038244Y014919D01*
X037999Y014674D01*
X037867Y014355D01*
X037867Y014312D02*
X032710Y014312D01*
X032713Y014325D02*
X032724Y014441D01*
X031476Y014441D01*
X031476Y013192D01*
X031591Y013203D01*
X031719Y013229D01*
X031844Y013267D01*
X031965Y013317D01*
X032080Y013378D01*
X032189Y013451D01*
X032290Y013534D01*
X032382Y013626D01*
X032465Y013727D01*
X032538Y013836D01*
X032599Y013951D01*
X032649Y014072D01*
X032687Y014197D01*
X032713Y014325D01*
X032674Y014154D02*
X037867Y014154D01*
X037872Y013995D02*
X032617Y013995D01*
X032538Y013837D02*
X037938Y013837D01*
X038010Y013678D02*
X032425Y013678D01*
X032272Y013520D02*
X038168Y013520D01*
X038444Y013361D02*
X032048Y013361D01*
X031583Y013203D02*
X040113Y013203D01*
X040114Y013361D02*
X039029Y013361D01*
X039305Y013520D02*
X040114Y013520D01*
X040114Y013678D02*
X039463Y013678D01*
X039535Y013837D02*
X040115Y013837D01*
X040115Y013995D02*
X039601Y013995D01*
X039607Y014154D02*
X040115Y014154D01*
X040116Y014312D02*
X039607Y014312D01*
X039558Y014471D02*
X040116Y014471D01*
X040117Y014629D02*
X039493Y014629D01*
X039361Y014788D02*
X040117Y014788D01*
X040117Y014946D02*
X039164Y014946D01*
X038309Y014946D02*
X032656Y014946D01*
X032699Y014788D02*
X038112Y014788D01*
X037980Y014629D02*
X032721Y014629D01*
X032591Y015105D02*
X040118Y015105D01*
X040118Y015263D02*
X032499Y015263D01*
X032375Y015422D02*
X040118Y015422D01*
X040119Y015580D02*
X032201Y015580D01*
X031930Y015739D02*
X040119Y015739D01*
X040119Y015897D02*
X017528Y015897D01*
X017528Y015739D02*
X030861Y015739D01*
X030590Y015580D02*
X017528Y015580D01*
X017528Y015422D02*
X030416Y015422D01*
X030292Y015263D02*
X017528Y015263D01*
X017528Y015105D02*
X030200Y015105D01*
X030135Y014946D02*
X017528Y014946D01*
X017528Y014788D02*
X030093Y014788D01*
X030070Y014629D02*
X017528Y014629D01*
X016888Y014629D02*
X013381Y014629D01*
X013381Y014471D02*
X016888Y014471D01*
X016888Y014312D02*
X013381Y014312D01*
X013381Y014154D02*
X016888Y014154D01*
X016888Y013995D02*
X013381Y013995D01*
X013381Y013837D02*
X016888Y013837D01*
X016888Y013678D02*
X013381Y013678D01*
X013457Y013520D02*
X016888Y013520D01*
X016888Y013361D02*
X013459Y013361D01*
X013598Y013203D02*
X016888Y013203D01*
X016888Y013044D02*
X013756Y013044D01*
X013915Y012886D02*
X016888Y012886D01*
X016888Y012727D02*
X014073Y012727D01*
X014232Y012569D02*
X016888Y012569D01*
X016888Y012410D02*
X014390Y012410D01*
X014549Y012252D02*
X016888Y012252D01*
X016888Y012093D02*
X014707Y012093D01*
X014866Y011935D02*
X016888Y011935D01*
X016888Y011776D02*
X015024Y011776D01*
X016114Y011618D02*
X016786Y011618D01*
X016627Y011459D02*
X016166Y011459D01*
X018338Y009036D02*
X018338Y008804D01*
X018350Y008759D01*
X018374Y008718D01*
X018408Y008684D01*
X018449Y008660D01*
X018494Y008648D01*
X018785Y008648D01*
X018785Y009036D01*
X018338Y009036D01*
X018338Y008923D02*
X013453Y008923D01*
X013453Y008765D02*
X018349Y008765D01*
X018785Y008765D02*
X018881Y008765D01*
X018881Y008923D02*
X018785Y008923D01*
X018785Y009082D02*
X013369Y009082D01*
X013453Y008606D02*
X037952Y008606D01*
X037886Y008765D02*
X019317Y008765D01*
X019328Y008923D02*
X037867Y008923D01*
X037867Y009082D02*
X030106Y009082D01*
X030264Y009240D02*
X037901Y009240D01*
X037966Y009399D02*
X030423Y009399D01*
X030451Y009557D02*
X038079Y009557D01*
X038237Y009716D02*
X029791Y009716D01*
X029791Y009557D02*
X029751Y009557D01*
X029751Y009399D02*
X029791Y009399D01*
X029791Y009240D02*
X029751Y009240D01*
X029751Y009082D02*
X029791Y009082D01*
X029435Y009082D02*
X018881Y009082D01*
X021430Y008210D02*
X021430Y007287D01*
X021466Y007199D01*
X021534Y007132D01*
X021622Y007095D01*
X022544Y007095D01*
X022632Y007132D01*
X022700Y007199D01*
X022736Y007287D01*
X022736Y008210D01*
X022700Y008298D01*
X022632Y008365D01*
X022544Y008402D01*
X021622Y008402D01*
X021534Y008365D01*
X021466Y008298D01*
X021430Y008210D01*
X021430Y008131D02*
X015736Y008131D01*
X015736Y008210D02*
X015700Y008298D01*
X015632Y008365D01*
X015544Y008402D01*
X014622Y008402D01*
X014534Y008365D01*
X014466Y008298D01*
X014430Y008210D01*
X014430Y007287D01*
X014466Y007199D01*
X014534Y007132D01*
X014622Y007095D01*
X015544Y007095D01*
X015632Y007132D01*
X015700Y007199D01*
X015736Y007287D01*
X015736Y008210D01*
X015704Y008289D02*
X021463Y008289D01*
X021430Y007972D02*
X015736Y007972D01*
X015736Y007814D02*
X021430Y007814D01*
X021430Y007655D02*
X015736Y007655D01*
X015736Y007497D02*
X021430Y007497D01*
X021430Y007338D02*
X015736Y007338D01*
X015680Y007180D02*
X021486Y007180D01*
X021504Y006070D02*
X015662Y006070D01*
X015676Y005912D02*
X021490Y005912D01*
X021490Y005753D02*
X015676Y005753D01*
X015676Y005436D02*
X021490Y005436D01*
X021490Y005278D02*
X015676Y005278D01*
X015669Y005119D02*
X021497Y005119D01*
X022025Y005119D02*
X022141Y005119D01*
X022141Y005278D02*
X022025Y005278D01*
X022025Y005436D02*
X022141Y005436D01*
X022141Y005912D02*
X022025Y005912D01*
X022025Y006070D02*
X022141Y006070D01*
X022662Y006070D02*
X028504Y006070D01*
X028490Y005912D02*
X022676Y005912D01*
X022676Y005753D02*
X028490Y005753D01*
X028490Y005436D02*
X022676Y005436D01*
X022676Y005278D02*
X028490Y005278D01*
X028497Y005119D02*
X022669Y005119D01*
X023180Y004485D02*
X020986Y004485D01*
X021049Y004422D02*
X020804Y004667D01*
X020484Y004799D01*
X020138Y004799D01*
X019819Y004667D01*
X019574Y004422D01*
X019441Y004103D01*
X019441Y003756D01*
X019574Y003437D01*
X019819Y003192D01*
X020138Y003060D01*
X020484Y003060D01*
X020804Y003192D01*
X021049Y003437D01*
X021181Y003756D01*
X021181Y004103D01*
X021049Y004422D01*
X021089Y004327D02*
X023078Y004327D01*
X023117Y004422D02*
X022985Y004103D01*
X022985Y003756D01*
X023117Y003437D01*
X023362Y003192D01*
X023682Y003060D01*
X024028Y003060D01*
X024347Y003192D01*
X024592Y003437D01*
X024725Y003756D01*
X024725Y004103D01*
X024592Y004422D01*
X024347Y004667D01*
X024028Y004799D01*
X023682Y004799D01*
X023362Y004667D01*
X023117Y004422D01*
X023012Y004168D02*
X021154Y004168D01*
X021181Y004010D02*
X022985Y004010D01*
X022985Y003851D02*
X021181Y003851D01*
X021155Y003693D02*
X023011Y003693D01*
X023077Y003534D02*
X021089Y003534D01*
X020988Y003376D02*
X023178Y003376D01*
X023337Y003217D02*
X020829Y003217D01*
X019794Y003217D02*
X017373Y003217D01*
X017347Y003192D02*
X017592Y003437D01*
X017725Y003756D01*
X017725Y004103D01*
X017592Y004422D01*
X017347Y004667D01*
X017028Y004799D01*
X016682Y004799D01*
X016362Y004667D01*
X016117Y004422D01*
X015985Y004103D01*
X015985Y003756D01*
X016117Y003437D01*
X016362Y003192D01*
X016682Y003060D01*
X017028Y003060D01*
X017347Y003192D01*
X017531Y003376D02*
X019635Y003376D01*
X019534Y003534D02*
X017633Y003534D01*
X017698Y003693D02*
X019468Y003693D01*
X019441Y003851D02*
X017725Y003851D01*
X017725Y004010D02*
X019441Y004010D01*
X019469Y004168D02*
X017698Y004168D01*
X017632Y004327D02*
X019534Y004327D01*
X019637Y004485D02*
X017529Y004485D01*
X017371Y004644D02*
X019795Y004644D01*
X020828Y004644D02*
X023339Y004644D01*
X024371Y004644D02*
X026795Y004644D01*
X026819Y004667D02*
X026574Y004422D01*
X026441Y004103D01*
X026441Y003756D01*
X026574Y003437D01*
X026819Y003192D01*
X027138Y003060D01*
X027484Y003060D01*
X027804Y003192D01*
X028049Y003437D01*
X028181Y003756D01*
X028181Y004103D01*
X028049Y004422D01*
X027804Y004667D01*
X027484Y004799D01*
X027138Y004799D01*
X026819Y004667D01*
X026637Y004485D02*
X024529Y004485D01*
X024632Y004327D02*
X026534Y004327D01*
X026469Y004168D02*
X024698Y004168D01*
X024725Y004010D02*
X026441Y004010D01*
X026441Y003851D02*
X024725Y003851D01*
X024698Y003693D02*
X026468Y003693D01*
X026534Y003534D02*
X024633Y003534D01*
X024531Y003376D02*
X026635Y003376D01*
X026794Y003217D02*
X024373Y003217D01*
X027829Y003217D02*
X030337Y003217D01*
X030362Y003192D02*
X030682Y003060D01*
X031028Y003060D01*
X031347Y003192D01*
X031592Y003437D01*
X031725Y003756D01*
X031725Y004103D01*
X031592Y004422D01*
X031347Y004667D01*
X031028Y004799D01*
X030682Y004799D01*
X030362Y004667D01*
X030117Y004422D01*
X029985Y004103D01*
X029985Y003756D01*
X030117Y003437D01*
X030362Y003192D01*
X030178Y003376D02*
X027988Y003376D01*
X028089Y003534D02*
X030077Y003534D01*
X030011Y003693D02*
X028155Y003693D01*
X028181Y003851D02*
X029985Y003851D01*
X029985Y004010D02*
X028181Y004010D01*
X028154Y004168D02*
X030012Y004168D01*
X030078Y004327D02*
X028089Y004327D01*
X027986Y004485D02*
X030180Y004485D01*
X030339Y004644D02*
X027828Y004644D01*
X029025Y005119D02*
X029141Y005119D01*
X029141Y005278D02*
X029025Y005278D01*
X029025Y005436D02*
X029141Y005436D01*
X029141Y005912D02*
X029025Y005912D01*
X029025Y006070D02*
X029141Y006070D01*
X029544Y007095D02*
X028622Y007095D01*
X028534Y007132D01*
X028466Y007199D01*
X028430Y007287D01*
X028430Y008210D01*
X028466Y008298D01*
X028534Y008365D01*
X028622Y008402D01*
X029544Y008402D01*
X029632Y008365D01*
X029700Y008298D01*
X029736Y008210D01*
X029736Y007287D01*
X029700Y007199D01*
X029632Y007132D01*
X029544Y007095D01*
X029680Y007180D02*
X035486Y007180D01*
X035430Y007338D02*
X029736Y007338D01*
X029736Y007497D02*
X035430Y007497D01*
X035430Y007655D02*
X029736Y007655D01*
X029736Y007814D02*
X035430Y007814D01*
X035430Y007972D02*
X029736Y007972D01*
X029736Y008131D02*
X035430Y008131D01*
X035463Y008289D02*
X029704Y008289D01*
X028463Y008289D02*
X022704Y008289D01*
X022736Y008131D02*
X028430Y008131D01*
X028430Y007972D02*
X022736Y007972D01*
X022736Y007814D02*
X028430Y007814D01*
X028430Y007655D02*
X022736Y007655D01*
X022736Y007497D02*
X028430Y007497D01*
X028430Y007338D02*
X022736Y007338D01*
X022680Y007180D02*
X028486Y007180D01*
X031371Y004644D02*
X033795Y004644D01*
X033637Y004485D02*
X031529Y004485D01*
X031632Y004327D02*
X033534Y004327D01*
X033469Y004168D02*
X031698Y004168D01*
X031725Y004010D02*
X033441Y004010D01*
X033441Y003851D02*
X031725Y003851D01*
X031698Y003693D02*
X033468Y003693D01*
X033534Y003534D02*
X031633Y003534D01*
X031531Y003376D02*
X033635Y003376D01*
X033794Y003217D02*
X031373Y003217D01*
X036704Y008289D02*
X038202Y008289D01*
X038043Y008448D02*
X013453Y008448D01*
X013453Y008289D02*
X014463Y008289D01*
X014430Y008131D02*
X013415Y008131D01*
X014430Y007972D02*
X011393Y007972D01*
X011393Y007814D02*
X014430Y007814D01*
X014430Y007655D02*
X011355Y007655D01*
X011005Y007655D02*
X010909Y007655D01*
X010909Y007814D02*
X011005Y007814D01*
X011005Y007972D02*
X010909Y007972D01*
X011005Y008131D02*
X011751Y008131D01*
X011713Y008289D02*
X011393Y008289D01*
X011393Y008422D02*
X011381Y008468D01*
X011357Y008509D01*
X011324Y008542D01*
X011282Y008566D01*
X011237Y008578D01*
X011005Y008578D01*
X011005Y008131D01*
X011393Y008131D01*
X011393Y008422D01*
X011386Y008448D02*
X011713Y008448D01*
X011705Y008606D02*
X010590Y008606D01*
X010409Y008765D02*
X011547Y008765D01*
X011388Y008923D02*
X010409Y008923D01*
X010909Y008448D02*
X011005Y008448D01*
X011005Y008289D02*
X010909Y008289D01*
X009713Y008289D02*
X008704Y008289D01*
X008736Y008131D02*
X009713Y008131D01*
X009713Y007972D02*
X008736Y007972D01*
X008736Y007814D02*
X009713Y007814D01*
X009740Y007655D02*
X008736Y007655D01*
X008736Y007497D02*
X014430Y007497D01*
X014430Y007338D02*
X008736Y007338D01*
X008680Y007180D02*
X014486Y007180D01*
X015025Y006070D02*
X015141Y006070D01*
X015141Y005912D02*
X015025Y005912D01*
X015025Y005753D02*
X015141Y005753D01*
X015141Y005436D02*
X015025Y005436D01*
X015025Y005278D02*
X015141Y005278D01*
X015141Y005119D02*
X015025Y005119D01*
X013986Y004485D02*
X016180Y004485D01*
X016078Y004327D02*
X014089Y004327D01*
X014049Y004422D02*
X013804Y004667D01*
X013484Y004799D01*
X013138Y004799D01*
X012819Y004667D01*
X012574Y004422D01*
X012441Y004103D01*
X012441Y003756D01*
X012574Y003437D01*
X012819Y003192D01*
X013138Y003060D01*
X013484Y003060D01*
X013804Y003192D01*
X014049Y003437D01*
X014181Y003756D01*
X014181Y004103D01*
X014049Y004422D01*
X014154Y004168D02*
X016012Y004168D01*
X015985Y004010D02*
X014181Y004010D01*
X014181Y003851D02*
X015985Y003851D01*
X016011Y003693D02*
X014155Y003693D01*
X014089Y003534D02*
X016077Y003534D01*
X016178Y003376D02*
X013988Y003376D01*
X013829Y003217D02*
X016337Y003217D01*
X016339Y004644D02*
X013828Y004644D01*
X012795Y004644D02*
X010371Y004644D01*
X010529Y004485D02*
X012637Y004485D01*
X012534Y004327D02*
X010632Y004327D01*
X010698Y004168D02*
X012469Y004168D01*
X012441Y004010D02*
X010725Y004010D01*
X010725Y003851D02*
X012441Y003851D01*
X012468Y003693D02*
X010698Y003693D01*
X010633Y003534D02*
X012534Y003534D01*
X012635Y003376D02*
X010531Y003376D01*
X010373Y003217D02*
X012794Y003217D01*
X005987Y008131D02*
X004440Y008131D01*
X004469Y008125D02*
X004341Y008150D01*
X004226Y008162D01*
X004226Y006913D01*
X005474Y006913D01*
X005463Y007028D01*
X005437Y007157D01*
X005399Y007282D01*
X005349Y007402D01*
X005288Y007518D01*
X005215Y007626D01*
X005132Y007727D01*
X005040Y007820D01*
X004939Y007903D01*
X004830Y007975D01*
X004715Y008037D01*
X004594Y008087D01*
X004469Y008125D01*
X004226Y008131D02*
X004066Y008131D01*
X004066Y008162D02*
X003950Y008150D01*
X003822Y008125D01*
X003697Y008087D01*
X003576Y008037D01*
X003461Y007975D01*
X003352Y007903D01*
X003251Y007820D01*
X003159Y007727D01*
X003076Y007626D01*
X003003Y007518D01*
X002942Y007402D01*
X002892Y007282D01*
X002854Y007157D01*
X002828Y007028D01*
X002817Y006913D01*
X004066Y006913D01*
X004066Y008162D01*
X004066Y007972D02*
X004226Y007972D01*
X004226Y007814D02*
X004066Y007814D01*
X004066Y007655D02*
X004226Y007655D01*
X004226Y007497D02*
X004066Y007497D01*
X004066Y007338D02*
X004226Y007338D01*
X004226Y007180D02*
X004066Y007180D01*
X004066Y007021D02*
X004226Y007021D01*
X004226Y006913D02*
X004066Y006913D01*
X004066Y006753D01*
X004226Y006753D01*
X004226Y006913D01*
X004226Y006863D02*
X005838Y006863D01*
X005857Y007021D02*
X005463Y007021D01*
X005430Y007180D02*
X005875Y007180D01*
X005894Y007338D02*
X005376Y007338D01*
X005299Y007497D02*
X005912Y007497D01*
X005931Y007655D02*
X005192Y007655D01*
X005046Y007814D02*
X005950Y007814D01*
X005968Y007972D02*
X004835Y007972D01*
X003851Y008131D02*
X002583Y008131D01*
X002583Y008289D02*
X005993Y008289D01*
X005993Y008448D02*
X002583Y008448D01*
X002583Y008606D02*
X005799Y008606D01*
X005778Y008765D02*
X002583Y008765D01*
X002583Y008923D02*
X005778Y008923D01*
X005778Y009082D02*
X004430Y009082D01*
X004422Y009074D02*
X004667Y009319D01*
X004799Y009638D01*
X004799Y009984D01*
X004667Y010304D01*
X004422Y010549D01*
X004103Y010681D01*
X003756Y010681D01*
X003437Y010549D01*
X003192Y010304D01*
X003060Y009984D01*
X003060Y009638D01*
X003192Y009319D01*
X003437Y009074D01*
X003756Y008941D01*
X004103Y008941D01*
X004422Y009074D01*
X004588Y009240D02*
X005778Y009240D01*
X005780Y009399D02*
X004700Y009399D01*
X004766Y009557D02*
X005778Y009557D01*
X005778Y009716D02*
X004799Y009716D01*
X004799Y009874D02*
X005778Y009874D01*
X005787Y010033D02*
X004780Y010033D01*
X004714Y010191D02*
X005942Y010191D01*
X006040Y010350D02*
X004622Y010350D01*
X004463Y010508D02*
X006193Y010508D01*
X006351Y010667D02*
X004138Y010667D01*
X003721Y010667D02*
X002583Y010667D01*
X002583Y010825D02*
X006510Y010825D01*
X006668Y010984D02*
X002583Y010984D01*
X002583Y011142D02*
X004991Y011142D01*
X004990Y011146D02*
X005002Y011100D01*
X005026Y011059D01*
X005059Y011026D01*
X005100Y011002D01*
X005146Y010990D01*
X005525Y010990D01*
X005525Y011525D01*
X005641Y011525D01*
X005641Y010990D01*
X006020Y010990D01*
X006066Y011002D01*
X006107Y011026D01*
X006140Y011059D01*
X006164Y011100D01*
X006176Y011146D01*
X006176Y011525D01*
X005641Y011525D01*
X005641Y011641D01*
X005525Y011641D01*
X005525Y011525D01*
X004990Y011525D01*
X004990Y011146D01*
X004990Y011301D02*
X002583Y011301D01*
X002583Y011459D02*
X004990Y011459D01*
X004990Y011641D02*
X005525Y011641D01*
X005525Y012176D01*
X005146Y012176D01*
X005100Y012164D01*
X005059Y012140D01*
X005026Y012107D01*
X005002Y012066D01*
X004990Y012020D01*
X004990Y011641D01*
X004990Y011776D02*
X002583Y011776D01*
X002583Y011618D02*
X005525Y011618D01*
X005641Y011618D02*
X007095Y011618D01*
X007095Y011776D02*
X006176Y011776D01*
X006176Y011641D02*
X006176Y012020D01*
X006164Y012066D01*
X006140Y012107D01*
X006107Y012140D01*
X006066Y012164D01*
X006020Y012176D01*
X005641Y012176D01*
X005641Y011641D01*
X006176Y011641D01*
X006176Y011459D02*
X007095Y011459D01*
X006985Y011301D02*
X006176Y011301D01*
X006175Y011142D02*
X006827Y011142D01*
X007095Y011935D02*
X006176Y011935D01*
X006149Y012093D02*
X007115Y012093D01*
X005641Y012093D02*
X005525Y012093D01*
X005525Y011935D02*
X005641Y011935D01*
X005641Y011776D02*
X005525Y011776D01*
X005525Y011459D02*
X005641Y011459D01*
X005641Y011301D02*
X005525Y011301D01*
X005525Y011142D02*
X005641Y011142D01*
X004990Y011935D02*
X002583Y011935D01*
X002583Y012093D02*
X005018Y012093D01*
X003396Y010508D02*
X002583Y010508D01*
X002583Y010350D02*
X003237Y010350D01*
X003145Y010191D02*
X002583Y010191D01*
X002583Y010033D02*
X003080Y010033D01*
X003060Y009874D02*
X002583Y009874D01*
X002583Y009716D02*
X003060Y009716D01*
X003093Y009557D02*
X002583Y009557D01*
X002583Y009399D02*
X003159Y009399D01*
X003271Y009240D02*
X002583Y009240D01*
X002583Y009082D02*
X003429Y009082D01*
X003456Y007972D02*
X002583Y007972D01*
X002583Y007814D02*
X003245Y007814D01*
X003100Y007655D02*
X002583Y007655D01*
X002583Y007497D02*
X002992Y007497D01*
X002915Y007338D02*
X002583Y007338D01*
X002583Y007180D02*
X002861Y007180D01*
X002828Y007021D02*
X002583Y007021D01*
X002583Y006863D02*
X004066Y006863D01*
X004066Y006753D02*
X002817Y006753D01*
X002828Y006638D01*
X002854Y006510D01*
X002892Y006384D01*
X002942Y006264D01*
X003003Y006148D01*
X003076Y006040D01*
X003159Y005939D01*
X003251Y005846D01*
X003352Y005764D01*
X003461Y005691D01*
X003576Y005629D01*
X003697Y005579D01*
X003822Y005541D01*
X003950Y005516D01*
X004066Y005505D01*
X004066Y006753D01*
X004066Y006704D02*
X004226Y006704D01*
X004226Y006753D02*
X004226Y005505D01*
X004341Y005516D01*
X004469Y005541D01*
X004594Y005579D01*
X004715Y005629D01*
X004830Y005691D01*
X004939Y005764D01*
X005040Y005846D01*
X005132Y005939D01*
X005215Y006040D01*
X005288Y006148D01*
X005349Y006264D01*
X005399Y006384D01*
X005437Y006510D01*
X005463Y006638D01*
X005474Y006753D01*
X004226Y006753D01*
X004226Y006546D02*
X004066Y006546D01*
X004066Y006387D02*
X004226Y006387D01*
X004226Y006229D02*
X004066Y006229D01*
X004066Y006070D02*
X004226Y006070D01*
X004226Y005912D02*
X004066Y005912D01*
X004066Y005753D02*
X004226Y005753D01*
X004226Y005595D02*
X004066Y005595D01*
X003660Y005595D02*
X002583Y005595D01*
X002583Y005753D02*
X003368Y005753D01*
X003186Y005912D02*
X002583Y005912D01*
X002583Y006070D02*
X003056Y006070D01*
X002961Y006229D02*
X002583Y006229D01*
X002583Y006387D02*
X002891Y006387D01*
X002847Y006546D02*
X002583Y006546D01*
X002583Y006704D02*
X002822Y006704D01*
X002583Y005436D02*
X004678Y005436D01*
X004631Y005595D02*
X004865Y005595D01*
X004923Y005753D02*
X005052Y005753D01*
X005105Y005912D02*
X005239Y005912D01*
X005235Y006070D02*
X005425Y006070D01*
X005331Y006229D02*
X005612Y006229D01*
X005782Y006387D02*
X005400Y006387D01*
X005444Y006546D02*
X005801Y006546D01*
X005819Y006704D02*
X005469Y006704D01*
X004491Y005278D02*
X002583Y005278D01*
X002583Y005119D02*
X004304Y005119D01*
X004117Y004961D02*
X002583Y004961D01*
X002583Y004802D02*
X003930Y004802D01*
X003743Y004644D02*
X002583Y004644D01*
X008794Y008448D02*
X009714Y008448D01*
X009729Y008606D02*
X008890Y008606D01*
X008858Y009399D02*
X009651Y009399D01*
X013381Y014788D02*
X016888Y014788D01*
X016888Y014946D02*
X013381Y014946D01*
X013620Y015105D02*
X013716Y015105D01*
X013716Y015045D02*
X013947Y015045D01*
X013993Y015058D01*
X014034Y015081D01*
X014068Y015115D01*
X014091Y015156D01*
X014104Y015202D01*
X014104Y015473D01*
X013716Y015473D01*
X013716Y015045D01*
X013716Y015263D02*
X013620Y015263D01*
X013620Y015422D02*
X013716Y015422D01*
X013716Y015569D02*
X014104Y015569D01*
X014104Y015840D01*
X014091Y015885D01*
X014068Y015926D01*
X014034Y015960D01*
X013993Y015984D01*
X013947Y015996D01*
X013716Y015996D01*
X013716Y015569D01*
X013716Y015580D02*
X013620Y015580D01*
X013620Y015739D02*
X013716Y015739D01*
X013716Y015897D02*
X013620Y015897D01*
X013338Y016056D02*
X016888Y016056D01*
X016888Y016214D02*
X013338Y016214D01*
X013338Y016373D02*
X016888Y016373D01*
X016888Y016531D02*
X013338Y016531D01*
X013338Y016690D02*
X016888Y016690D01*
X016888Y016848D02*
X014051Y016848D01*
X014068Y016865D02*
X014091Y016906D01*
X014104Y016952D01*
X014104Y017223D01*
X013716Y017223D01*
X013716Y016795D01*
X013947Y016795D01*
X013993Y016808D01*
X014034Y016831D01*
X014068Y016865D01*
X014104Y017007D02*
X016888Y017007D01*
X016888Y017165D02*
X014104Y017165D01*
X014104Y017319D02*
X014104Y017590D01*
X014091Y017635D01*
X014068Y017676D01*
X014034Y017710D01*
X013993Y017734D01*
X013947Y017746D01*
X013716Y017746D01*
X013716Y017319D01*
X014104Y017319D01*
X014104Y017324D02*
X016888Y017324D01*
X016888Y017482D02*
X014104Y017482D01*
X014088Y017641D02*
X016888Y017641D01*
X016888Y017799D02*
X013318Y017799D01*
X013620Y017641D02*
X013716Y017641D01*
X013716Y017482D02*
X013620Y017482D01*
X013620Y017324D02*
X013716Y017324D01*
X013716Y017165D02*
X013620Y017165D01*
X013620Y017007D02*
X013716Y017007D01*
X013716Y016848D02*
X013620Y016848D01*
X012658Y016214D02*
X007596Y016214D01*
X006321Y016531D02*
X002583Y016531D01*
X002583Y016373D02*
X004782Y016373D01*
X004686Y016214D02*
X002583Y016214D01*
X002583Y016056D02*
X004665Y016056D01*
X004709Y015897D02*
X002583Y015897D01*
X002583Y015739D02*
X004846Y015739D01*
X005083Y015739D02*
X005083Y015739D01*
X005083Y015897D02*
X005083Y015897D01*
X005083Y016056D02*
X005083Y016056D01*
X005083Y016214D02*
X005083Y016214D01*
X005083Y016373D02*
X005083Y016373D01*
X004801Y016690D02*
X002583Y016690D01*
X002583Y016848D02*
X004663Y016848D01*
X004605Y017007D02*
X002583Y017007D01*
X002583Y017165D02*
X004605Y017165D01*
X004666Y017324D02*
X002583Y017324D01*
X002583Y017482D02*
X004806Y017482D01*
X004903Y017641D02*
X002583Y017641D01*
X002583Y017799D02*
X004691Y017799D01*
X004618Y017958D02*
X002583Y017958D01*
X002583Y018116D02*
X004605Y018116D01*
X004645Y018275D02*
X002583Y018275D01*
X002583Y018433D02*
X004757Y018433D01*
X005409Y018433D02*
X005981Y018433D01*
X006139Y018592D02*
X002583Y018592D01*
X002583Y018750D02*
X006298Y018750D01*
X006456Y018909D02*
X002583Y018909D01*
X002583Y019067D02*
X006615Y019067D01*
X007048Y019701D02*
X016137Y019701D01*
X015979Y019860D02*
X007140Y019860D01*
X007107Y020652D02*
X009701Y020652D01*
X009701Y021128D02*
X009329Y021128D01*
X008712Y021128D02*
X008329Y021128D01*
X009235Y022079D02*
X009806Y022079D01*
X009594Y021920D02*
X009447Y021920D01*
X010235Y022079D02*
X040134Y022079D01*
X040134Y022237D02*
X002583Y022237D01*
X002583Y022079D02*
X004023Y022079D01*
X003864Y021920D02*
X003592Y021920D01*
X003271Y021920D02*
X003271Y021920D01*
X003271Y021762D02*
X003271Y021762D01*
X003271Y021603D02*
X003271Y021603D01*
X003271Y021521D02*
X003271Y021521D01*
X003271Y021521D01*
X003271Y021011D01*
X003059Y021011D01*
X002761Y021309D01*
X002761Y021521D01*
X003271Y021521D01*
X003271Y021445D02*
X003271Y021445D01*
X003271Y021286D02*
X003271Y021286D01*
X003271Y021128D02*
X003271Y021128D01*
X003599Y021128D02*
X003857Y021128D01*
X004016Y020969D02*
X002583Y020969D01*
X002583Y020811D02*
X005409Y020811D01*
X005434Y020652D02*
X002583Y020652D01*
X002583Y020494D02*
X005401Y020494D01*
X005401Y020335D02*
X002583Y020335D01*
X002583Y020177D02*
X005401Y020177D01*
X005401Y020018D02*
X002583Y020018D01*
X002583Y019860D02*
X005401Y019860D01*
X005493Y019701D02*
X002583Y019701D01*
X002583Y019543D02*
X016296Y019543D01*
X016426Y019226D02*
X016613Y019226D01*
X016521Y019067D02*
X016771Y019067D01*
X016888Y018909D02*
X016521Y018909D01*
X016521Y018750D02*
X016888Y018750D01*
X016888Y018592D02*
X016521Y018592D01*
X017528Y018592D02*
X038113Y018592D01*
X037999Y018477D02*
X037867Y018158D01*
X037867Y017812D01*
X037999Y017492D01*
X038244Y017247D01*
X038564Y017115D01*
X038910Y017115D01*
X039229Y017247D01*
X039474Y017492D01*
X039607Y017812D01*
X039607Y018158D01*
X039474Y018477D01*
X039229Y018722D01*
X038910Y018855D01*
X038564Y018855D01*
X038244Y018722D01*
X037999Y018477D01*
X037981Y018433D02*
X017528Y018433D01*
X017528Y018275D02*
X037915Y018275D01*
X037867Y018116D02*
X017528Y018116D01*
X017528Y017958D02*
X037867Y017958D01*
X037872Y017799D02*
X017528Y017799D01*
X017528Y017641D02*
X037938Y017641D01*
X038009Y017482D02*
X017528Y017482D01*
X017528Y017324D02*
X038167Y017324D01*
X038442Y017165D02*
X017528Y017165D01*
X017528Y017007D02*
X040122Y017007D01*
X040122Y017165D02*
X039031Y017165D01*
X039306Y017324D02*
X040123Y017324D01*
X040123Y017482D02*
X039464Y017482D01*
X039536Y017641D02*
X040123Y017641D01*
X040124Y017799D02*
X039601Y017799D01*
X039607Y017958D02*
X040124Y017958D01*
X040125Y018116D02*
X039607Y018116D01*
X039558Y018275D02*
X040125Y018275D01*
X040125Y018433D02*
X039492Y018433D01*
X039360Y018592D02*
X040126Y018592D01*
X040126Y018750D02*
X039162Y018750D01*
X038311Y018750D02*
X017528Y018750D01*
X017528Y016848D02*
X040122Y016848D01*
X040121Y016690D02*
X017528Y016690D01*
X017528Y016531D02*
X040121Y016531D01*
X040121Y016373D02*
X017528Y016373D01*
X017528Y016214D02*
X040120Y016214D01*
X040120Y016056D02*
X017528Y016056D01*
X016888Y015897D02*
X014085Y015897D01*
X014104Y015739D02*
X016888Y015739D01*
X016888Y015580D02*
X014104Y015580D01*
X014104Y015422D02*
X016888Y015422D01*
X016888Y015263D02*
X014104Y015263D01*
X014057Y015105D02*
X016888Y015105D01*
X012658Y016056D02*
X011996Y016056D01*
X012135Y015897D02*
X012516Y015897D01*
X011293Y016056D02*
X011248Y016056D01*
X012601Y019226D02*
X002583Y019226D01*
X002583Y019384D02*
X012771Y019384D01*
X013397Y019384D02*
X013519Y019384D01*
X010482Y021286D02*
X030825Y021286D01*
X030572Y021128D02*
X010341Y021128D01*
X010548Y021445D02*
X034264Y021445D01*
X034264Y021603D02*
X010561Y021603D01*
X010531Y021762D02*
X034264Y021762D01*
X034264Y021871D02*
X034264Y020949D01*
X034301Y020861D01*
X034368Y020793D01*
X034457Y020756D01*
X035379Y020756D01*
X035467Y020793D01*
X035535Y020861D01*
X035571Y020949D01*
X035571Y021871D01*
X035535Y021959D01*
X035467Y022027D01*
X035379Y022063D01*
X034457Y022063D01*
X034368Y022027D01*
X034301Y021959D01*
X034264Y021871D01*
X034285Y021920D02*
X010447Y021920D01*
X008700Y023368D02*
X008736Y023457D01*
X008736Y024379D01*
X008700Y024467D01*
X008632Y024535D01*
X008544Y024571D01*
X007622Y024571D01*
X007534Y024535D01*
X007466Y024467D01*
X007430Y024379D01*
X007430Y023457D01*
X007466Y023368D01*
X007534Y023301D01*
X007622Y023264D01*
X008544Y023264D01*
X008632Y023301D01*
X008700Y023368D01*
X008678Y023347D02*
X014488Y023347D01*
X014466Y023368D02*
X014534Y023301D01*
X014622Y023264D01*
X015544Y023264D01*
X015632Y023301D01*
X015700Y023368D01*
X015736Y023457D01*
X015736Y024379D01*
X015700Y024467D01*
X015632Y024535D01*
X015544Y024571D01*
X014622Y024571D01*
X014534Y024535D01*
X014466Y024467D01*
X014430Y024379D01*
X014430Y023457D01*
X014466Y023368D01*
X014430Y023505D02*
X008736Y023505D01*
X008736Y023664D02*
X014430Y023664D01*
X014430Y023822D02*
X008736Y023822D01*
X008736Y023981D02*
X014430Y023981D01*
X014430Y024139D02*
X008736Y024139D01*
X008736Y024298D02*
X014430Y024298D01*
X014462Y024456D02*
X008704Y024456D01*
X008520Y025490D02*
X008566Y025502D01*
X008607Y025526D01*
X008640Y025559D01*
X008664Y025600D01*
X008676Y025646D01*
X008676Y026025D01*
X008141Y026025D01*
X008141Y025490D01*
X008520Y025490D01*
X008644Y025566D02*
X014522Y025566D01*
X014526Y025559D02*
X014559Y025526D01*
X014600Y025502D01*
X014646Y025490D01*
X015025Y025490D01*
X015025Y026025D01*
X014490Y026025D01*
X014490Y025646D01*
X014502Y025600D01*
X014526Y025559D01*
X014490Y025724D02*
X008676Y025724D01*
X008676Y025883D02*
X014490Y025883D01*
X014490Y026141D02*
X015025Y026141D01*
X015025Y026025D01*
X015141Y026025D01*
X015141Y025490D01*
X015520Y025490D01*
X015566Y025502D01*
X015607Y025526D01*
X015640Y025559D01*
X015664Y025600D01*
X015676Y025646D01*
X015676Y026025D01*
X015141Y026025D01*
X015141Y026141D01*
X015025Y026141D01*
X015025Y026676D01*
X014646Y026676D01*
X014600Y026664D01*
X014559Y026640D01*
X014526Y026607D01*
X014502Y026566D01*
X014490Y026520D01*
X014490Y026141D01*
X014490Y026200D02*
X008676Y026200D01*
X008676Y026141D02*
X008676Y026520D01*
X008664Y026566D01*
X008640Y026607D01*
X008607Y026640D01*
X008566Y026664D01*
X008520Y026676D01*
X008141Y026676D01*
X008141Y026141D01*
X008025Y026141D01*
X008025Y026025D01*
X007490Y026025D01*
X007490Y025646D01*
X007502Y025600D01*
X007526Y025559D01*
X007559Y025526D01*
X007600Y025502D01*
X007646Y025490D01*
X008025Y025490D01*
X008025Y026025D01*
X008141Y026025D01*
X008141Y026141D01*
X008676Y026141D01*
X008676Y026358D02*
X014490Y026358D01*
X014490Y026517D02*
X008676Y026517D01*
X008525Y026675D02*
X014641Y026675D01*
X015025Y026675D02*
X015141Y026675D01*
X015141Y026676D02*
X015141Y026141D01*
X015676Y026141D01*
X015676Y026520D01*
X015664Y026566D01*
X015640Y026607D01*
X015607Y026640D01*
X015566Y026664D01*
X015520Y026676D01*
X015141Y026676D01*
X015141Y026517D02*
X015025Y026517D01*
X015025Y026358D02*
X015141Y026358D01*
X015141Y026200D02*
X015025Y026200D01*
X015025Y026041D02*
X008141Y026041D01*
X008025Y026041D02*
X002583Y026041D01*
X002583Y025883D02*
X003657Y025883D01*
X003697Y025899D02*
X003576Y025849D01*
X003461Y025788D01*
X003352Y025715D01*
X003251Y025632D01*
X003159Y025540D01*
X003076Y025439D01*
X003003Y025330D01*
X002942Y025215D01*
X002892Y025094D01*
X002854Y024969D01*
X002828Y024841D01*
X002817Y024726D01*
X004066Y024726D01*
X004066Y025974D01*
X003950Y025963D01*
X003822Y025937D01*
X003697Y025899D01*
X004066Y025883D02*
X004226Y025883D01*
X004226Y025974D02*
X004341Y025963D01*
X004469Y025937D01*
X004594Y025899D01*
X004715Y025849D01*
X004830Y025788D01*
X004939Y025715D01*
X005040Y025632D01*
X005132Y025540D01*
X005215Y025439D01*
X005288Y025330D01*
X005349Y025215D01*
X005399Y025094D01*
X005437Y024969D01*
X005463Y024841D01*
X005474Y024726D01*
X004226Y024726D01*
X004226Y024566D01*
X005474Y024566D01*
X005463Y024450D01*
X005437Y024322D01*
X005399Y024197D01*
X005349Y024076D01*
X005288Y023961D01*
X005215Y023852D01*
X005132Y023751D01*
X005040Y023659D01*
X004939Y023576D01*
X004830Y023503D01*
X004715Y023442D01*
X004594Y023392D01*
X004469Y023354D01*
X004341Y023328D01*
X004226Y023317D01*
X004226Y024566D01*
X004066Y024566D01*
X004066Y023317D01*
X003950Y023328D01*
X003822Y023354D01*
X003697Y023392D01*
X003576Y023442D01*
X003461Y023503D01*
X003352Y023576D01*
X003251Y023659D01*
X003159Y023751D01*
X003076Y023852D01*
X003003Y023961D01*
X002942Y024076D01*
X002892Y024197D01*
X002854Y024322D01*
X002828Y024450D01*
X002817Y024566D01*
X004066Y024566D01*
X004066Y024726D01*
X004226Y024726D01*
X004226Y025974D01*
X004226Y025724D02*
X004066Y025724D01*
X004066Y025566D02*
X004226Y025566D01*
X004226Y025407D02*
X004066Y025407D01*
X004066Y025249D02*
X004226Y025249D01*
X004226Y025090D02*
X004066Y025090D01*
X004066Y024932D02*
X004226Y024932D01*
X004226Y024773D02*
X004066Y024773D01*
X004066Y024615D02*
X002583Y024615D01*
X002583Y024773D02*
X002822Y024773D01*
X002846Y024932D02*
X002583Y024932D01*
X002583Y025090D02*
X002891Y025090D01*
X002960Y025249D02*
X002583Y025249D01*
X002583Y025407D02*
X003055Y025407D01*
X003185Y025566D02*
X002583Y025566D01*
X002583Y025724D02*
X003366Y025724D01*
X002583Y026200D02*
X007490Y026200D01*
X007490Y026141D02*
X008025Y026141D01*
X008025Y026676D01*
X007646Y026676D01*
X007600Y026664D01*
X007559Y026640D01*
X007526Y026607D01*
X007502Y026566D01*
X007490Y026520D01*
X007490Y026141D01*
X007490Y026358D02*
X002583Y026358D01*
X002583Y026517D02*
X007490Y026517D01*
X007641Y026675D02*
X002583Y026675D01*
X002583Y026834D02*
X040145Y026834D01*
X040145Y026992D02*
X038331Y026992D01*
X038347Y026999D02*
X038592Y027244D01*
X038725Y027564D01*
X038725Y027910D01*
X038592Y028229D01*
X038347Y028474D01*
X038028Y028607D01*
X037682Y028607D01*
X037362Y028474D01*
X037117Y028229D01*
X036985Y027910D01*
X036985Y027564D01*
X037117Y027244D01*
X037362Y026999D01*
X037682Y026867D01*
X038028Y026867D01*
X038347Y026999D01*
X038499Y027151D02*
X040145Y027151D01*
X040146Y027309D02*
X038619Y027309D01*
X038685Y027468D02*
X040146Y027468D01*
X040146Y027626D02*
X038725Y027626D01*
X038725Y027785D02*
X040147Y027785D01*
X040147Y027943D02*
X038711Y027943D01*
X038645Y028102D02*
X040147Y028102D01*
X040148Y028260D02*
X038561Y028260D01*
X038403Y028419D02*
X040148Y028419D01*
X040149Y028577D02*
X038099Y028577D01*
X037611Y028577D02*
X034555Y028577D01*
X034484Y028607D02*
X034138Y028607D01*
X033819Y028474D01*
X033574Y028229D01*
X033441Y027910D01*
X033441Y027564D01*
X033574Y027244D01*
X033819Y026999D01*
X034138Y026867D01*
X034484Y026867D01*
X034804Y026999D01*
X035049Y027244D01*
X035181Y027564D01*
X035181Y027910D01*
X035049Y028229D01*
X034804Y028474D01*
X034484Y028607D01*
X034067Y028577D02*
X031099Y028577D01*
X031028Y028607D02*
X030682Y028607D01*
X030362Y028474D01*
X030117Y028229D01*
X029985Y027910D01*
X029985Y027564D01*
X030117Y027244D01*
X030362Y026999D01*
X030682Y026867D01*
X031028Y026867D01*
X031347Y026999D01*
X031592Y027244D01*
X031725Y027564D01*
X031725Y027910D01*
X031592Y028229D01*
X031347Y028474D01*
X031028Y028607D01*
X030611Y028577D02*
X027555Y028577D01*
X027484Y028607D02*
X027138Y028607D01*
X026819Y028474D01*
X026574Y028229D01*
X026441Y027910D01*
X026441Y027564D01*
X026574Y027244D01*
X026819Y026999D01*
X027138Y026867D01*
X027484Y026867D01*
X027804Y026999D01*
X028049Y027244D01*
X028181Y027564D01*
X028181Y027910D01*
X028049Y028229D01*
X027804Y028474D01*
X027484Y028607D01*
X027067Y028577D02*
X024099Y028577D01*
X024028Y028607D02*
X023682Y028607D01*
X023362Y028474D01*
X023117Y028229D01*
X022985Y027910D01*
X022985Y027564D01*
X023117Y027244D01*
X023362Y026999D01*
X023682Y026867D01*
X024028Y026867D01*
X024347Y026999D01*
X024592Y027244D01*
X024725Y027564D01*
X024725Y027910D01*
X024592Y028229D01*
X024347Y028474D01*
X024028Y028607D01*
X023611Y028577D02*
X020555Y028577D01*
X020484Y028607D02*
X020138Y028607D01*
X019819Y028474D01*
X019574Y028229D01*
X019441Y027910D01*
X019441Y027564D01*
X019574Y027244D01*
X019819Y026999D01*
X020138Y026867D01*
X020484Y026867D01*
X020804Y026999D01*
X021049Y027244D01*
X021181Y027564D01*
X021181Y027910D01*
X021049Y028229D01*
X020804Y028474D01*
X020484Y028607D01*
X020067Y028577D02*
X017099Y028577D01*
X017028Y028607D02*
X017347Y028474D01*
X017592Y028229D01*
X017725Y027910D01*
X017725Y027564D01*
X017592Y027244D01*
X017347Y026999D01*
X017028Y026867D01*
X016682Y026867D01*
X016362Y026999D01*
X016117Y027244D01*
X015985Y027564D01*
X015985Y027910D01*
X016117Y028229D01*
X016362Y028474D01*
X016682Y028607D01*
X017028Y028607D01*
X016611Y028577D02*
X013555Y028577D01*
X013484Y028607D02*
X013138Y028607D01*
X012819Y028474D01*
X012574Y028229D01*
X012441Y027910D01*
X012441Y027564D01*
X012574Y027244D01*
X012819Y026999D01*
X013138Y026867D01*
X013484Y026867D01*
X013804Y026999D01*
X014049Y027244D01*
X014181Y027564D01*
X014181Y027910D01*
X014049Y028229D01*
X013804Y028474D01*
X013484Y028607D01*
X013067Y028577D02*
X010099Y028577D01*
X010028Y028607D02*
X009682Y028607D01*
X009362Y028474D01*
X009117Y028229D01*
X008985Y027910D01*
X008985Y027564D01*
X009117Y027244D01*
X009362Y026999D01*
X009682Y026867D01*
X010028Y026867D01*
X010347Y026999D01*
X010592Y027244D01*
X010725Y027564D01*
X010725Y027910D01*
X010592Y028229D01*
X010347Y028474D01*
X010028Y028607D01*
X009611Y028577D02*
X006555Y028577D01*
X006484Y028607D02*
X006138Y028607D01*
X005819Y028474D01*
X005574Y028229D01*
X005441Y027910D01*
X005441Y027564D01*
X005574Y027244D01*
X005819Y026999D01*
X006138Y026867D01*
X006484Y026867D01*
X006804Y026999D01*
X007049Y027244D01*
X007181Y027564D01*
X007181Y027910D01*
X007049Y028229D01*
X006804Y028474D01*
X006484Y028607D01*
X006067Y028577D02*
X002583Y028577D01*
X002583Y028419D02*
X005763Y028419D01*
X005605Y028260D02*
X002583Y028260D01*
X002583Y028102D02*
X002943Y028102D01*
X002997Y028156D02*
X002698Y027857D01*
X002698Y027646D01*
X003208Y027646D01*
X003208Y028156D01*
X002997Y028156D01*
X003208Y028156D02*
X003208Y027646D01*
X003208Y027646D01*
X003208Y027646D01*
X002698Y027646D01*
X002698Y027434D01*
X002997Y027136D01*
X003208Y027136D01*
X003208Y027646D01*
X003208Y027646D01*
X003208Y027136D01*
X003419Y027136D01*
X003666Y027382D01*
X003972Y027076D01*
X004444Y027076D01*
X004778Y027409D01*
X004778Y027882D01*
X004444Y028216D01*
X003972Y028216D01*
X003666Y027909D01*
X003419Y028156D01*
X003208Y028156D01*
X003208Y028102D02*
X003208Y028102D01*
X003208Y027943D02*
X003208Y027943D01*
X003208Y027785D02*
X003208Y027785D01*
X003208Y027626D02*
X003208Y027626D01*
X003208Y027468D02*
X003208Y027468D01*
X003208Y027309D02*
X003208Y027309D01*
X003208Y027151D02*
X003208Y027151D01*
X002982Y027151D02*
X002583Y027151D01*
X002583Y027309D02*
X002823Y027309D01*
X002698Y027468D02*
X002583Y027468D01*
X002583Y027626D02*
X002698Y027626D01*
X002698Y027785D02*
X002583Y027785D01*
X002583Y027943D02*
X002784Y027943D01*
X003473Y028102D02*
X003858Y028102D01*
X003700Y027943D02*
X003632Y027943D01*
X003593Y027309D02*
X003738Y027309D01*
X003897Y027151D02*
X003434Y027151D01*
X002583Y026992D02*
X005836Y026992D01*
X005667Y027151D02*
X004519Y027151D01*
X004678Y027309D02*
X005547Y027309D01*
X005481Y027468D02*
X004778Y027468D01*
X004778Y027626D02*
X005441Y027626D01*
X005441Y027785D02*
X004778Y027785D01*
X004717Y027943D02*
X005455Y027943D01*
X005521Y028102D02*
X004558Y028102D01*
X002583Y028736D02*
X040149Y028736D01*
X040149Y028894D02*
X002583Y028894D01*
X002583Y029053D02*
X011858Y029053D01*
X012605Y028260D02*
X010561Y028260D01*
X010645Y028102D02*
X012521Y028102D01*
X012455Y027943D02*
X010711Y027943D01*
X010725Y027785D02*
X012441Y027785D01*
X012441Y027626D02*
X010725Y027626D01*
X010685Y027468D02*
X012481Y027468D01*
X012547Y027309D02*
X010619Y027309D01*
X010499Y027151D02*
X012667Y027151D01*
X012836Y026992D02*
X010331Y026992D01*
X009379Y026992D02*
X006787Y026992D01*
X006956Y027151D02*
X009210Y027151D01*
X009090Y027309D02*
X007076Y027309D01*
X007142Y027468D02*
X009025Y027468D01*
X008985Y027626D02*
X007181Y027626D01*
X007181Y027785D02*
X008985Y027785D01*
X008999Y027943D02*
X007167Y027943D01*
X007102Y028102D02*
X009064Y028102D01*
X009148Y028260D02*
X007018Y028260D01*
X006860Y028419D02*
X009306Y028419D01*
X010403Y028419D02*
X012763Y028419D01*
X013860Y028419D02*
X016306Y028419D01*
X016148Y028260D02*
X014018Y028260D01*
X014102Y028102D02*
X016064Y028102D01*
X015999Y027943D02*
X014167Y027943D01*
X014181Y027785D02*
X015985Y027785D01*
X015985Y027626D02*
X014181Y027626D01*
X014142Y027468D02*
X016025Y027468D01*
X016090Y027309D02*
X014076Y027309D01*
X013956Y027151D02*
X016210Y027151D01*
X016379Y026992D02*
X013787Y026992D01*
X015141Y026041D02*
X022025Y026041D01*
X022025Y026025D02*
X021490Y026025D01*
X021490Y025646D01*
X021502Y025600D01*
X021526Y025559D01*
X021559Y025526D01*
X021600Y025502D01*
X021646Y025490D01*
X022025Y025490D01*
X022025Y026025D01*
X022025Y026141D01*
X021490Y026141D01*
X021490Y026520D01*
X021502Y026566D01*
X021526Y026607D01*
X021559Y026640D01*
X021600Y026664D01*
X021646Y026676D01*
X022025Y026676D01*
X022025Y026141D01*
X022141Y026141D01*
X022141Y026676D01*
X022520Y026676D01*
X022566Y026664D01*
X022607Y026640D01*
X022640Y026607D01*
X022664Y026566D01*
X022676Y026520D01*
X022676Y026141D01*
X022141Y026141D01*
X022141Y026025D01*
X022141Y025490D01*
X022520Y025490D01*
X022566Y025502D01*
X022607Y025526D01*
X022640Y025559D01*
X022664Y025600D01*
X022676Y025646D01*
X022676Y026025D01*
X022141Y026025D01*
X022025Y026025D01*
X022141Y026041D02*
X029025Y026041D01*
X029025Y026025D02*
X028490Y026025D01*
X028490Y025646D01*
X028502Y025600D01*
X028526Y025559D01*
X028559Y025526D01*
X028600Y025502D01*
X028646Y025490D01*
X029025Y025490D01*
X029025Y026025D01*
X029025Y026141D01*
X028490Y026141D01*
X028490Y026520D01*
X028502Y026566D01*
X028526Y026607D01*
X028559Y026640D01*
X028600Y026664D01*
X028646Y026676D01*
X029025Y026676D01*
X029025Y026141D01*
X029141Y026141D01*
X029141Y026676D01*
X029520Y026676D01*
X029566Y026664D01*
X029607Y026640D01*
X029640Y026607D01*
X029664Y026566D01*
X029676Y026520D01*
X029676Y026141D01*
X029141Y026141D01*
X029141Y026025D01*
X029141Y025490D01*
X029520Y025490D01*
X029566Y025502D01*
X029607Y025526D01*
X029640Y025559D01*
X029664Y025600D01*
X029676Y025646D01*
X029676Y026025D01*
X029141Y026025D01*
X029025Y026025D01*
X029141Y026041D02*
X036025Y026041D01*
X036025Y026025D02*
X035490Y026025D01*
X035490Y025646D01*
X035502Y025600D01*
X035526Y025559D01*
X035559Y025526D01*
X035600Y025502D01*
X035646Y025490D01*
X036025Y025490D01*
X036025Y026025D01*
X036025Y026141D01*
X035490Y026141D01*
X035490Y026520D01*
X035502Y026566D01*
X035526Y026607D01*
X035559Y026640D01*
X035600Y026664D01*
X035646Y026676D01*
X036025Y026676D01*
X036025Y026141D01*
X036141Y026141D01*
X036141Y026676D01*
X036520Y026676D01*
X036566Y026664D01*
X036607Y026640D01*
X036640Y026607D01*
X036664Y026566D01*
X036676Y026520D01*
X036676Y026141D01*
X036141Y026141D01*
X036141Y026025D01*
X036141Y025490D01*
X036520Y025490D01*
X036566Y025502D01*
X036607Y025526D01*
X036640Y025559D01*
X036664Y025600D01*
X036676Y025646D01*
X036676Y026025D01*
X036141Y026025D01*
X036025Y026025D01*
X036141Y026041D02*
X040143Y026041D01*
X040142Y025883D02*
X036676Y025883D01*
X036676Y025724D02*
X040142Y025724D01*
X040142Y025566D02*
X036644Y025566D01*
X036141Y025566D02*
X036025Y025566D01*
X036025Y025724D02*
X036141Y025724D01*
X036141Y025883D02*
X036025Y025883D01*
X036025Y026200D02*
X036141Y026200D01*
X036141Y026358D02*
X036025Y026358D01*
X036025Y026517D02*
X036141Y026517D01*
X036141Y026675D02*
X036025Y026675D01*
X035641Y026675D02*
X029525Y026675D01*
X029676Y026517D02*
X035490Y026517D01*
X035490Y026358D02*
X029676Y026358D01*
X029676Y026200D02*
X035490Y026200D01*
X035490Y025883D02*
X029676Y025883D01*
X029676Y025724D02*
X035490Y025724D01*
X035522Y025566D02*
X029644Y025566D01*
X029141Y025566D02*
X029025Y025566D01*
X029025Y025724D02*
X029141Y025724D01*
X029141Y025883D02*
X029025Y025883D01*
X029025Y026200D02*
X029141Y026200D01*
X029141Y026358D02*
X029025Y026358D01*
X029025Y026517D02*
X029141Y026517D01*
X029141Y026675D02*
X029025Y026675D01*
X028641Y026675D02*
X022525Y026675D01*
X022676Y026517D02*
X028490Y026517D01*
X028490Y026358D02*
X022676Y026358D01*
X022676Y026200D02*
X028490Y026200D01*
X028490Y025883D02*
X022676Y025883D01*
X022676Y025724D02*
X028490Y025724D01*
X028522Y025566D02*
X022644Y025566D01*
X022141Y025566D02*
X022025Y025566D01*
X022025Y025724D02*
X022141Y025724D01*
X022141Y025883D02*
X022025Y025883D01*
X022025Y026200D02*
X022141Y026200D01*
X022141Y026358D02*
X022025Y026358D01*
X022025Y026517D02*
X022141Y026517D01*
X022141Y026675D02*
X022025Y026675D01*
X021641Y026675D02*
X015525Y026675D01*
X015676Y026517D02*
X021490Y026517D01*
X021490Y026358D02*
X015676Y026358D01*
X015676Y026200D02*
X021490Y026200D01*
X021490Y025883D02*
X015676Y025883D01*
X015676Y025724D02*
X021490Y025724D01*
X021522Y025566D02*
X015644Y025566D01*
X015141Y025566D02*
X015025Y025566D01*
X015025Y025724D02*
X015141Y025724D01*
X015141Y025883D02*
X015025Y025883D01*
X015704Y024456D02*
X021462Y024456D01*
X021466Y024467D02*
X021430Y024379D01*
X021430Y023457D01*
X021466Y023368D01*
X021534Y023301D01*
X021622Y023264D01*
X022544Y023264D01*
X022632Y023301D01*
X022700Y023368D01*
X022736Y023457D01*
X022736Y024379D01*
X022700Y024467D01*
X022632Y024535D01*
X022544Y024571D01*
X021622Y024571D01*
X021534Y024535D01*
X021466Y024467D01*
X021430Y024298D02*
X015736Y024298D01*
X015736Y024139D02*
X021430Y024139D01*
X021430Y023981D02*
X015736Y023981D01*
X015736Y023822D02*
X021430Y023822D01*
X021430Y023664D02*
X015736Y023664D01*
X015736Y023505D02*
X021430Y023505D01*
X021488Y023347D02*
X015678Y023347D01*
X017331Y026992D02*
X019836Y026992D01*
X019667Y027151D02*
X017499Y027151D01*
X017619Y027309D02*
X019547Y027309D01*
X019481Y027468D02*
X017685Y027468D01*
X017725Y027626D02*
X019441Y027626D01*
X019441Y027785D02*
X017725Y027785D01*
X017711Y027943D02*
X019455Y027943D01*
X019521Y028102D02*
X017645Y028102D01*
X017561Y028260D02*
X019605Y028260D01*
X019763Y028419D02*
X017403Y028419D01*
X020860Y028419D02*
X023306Y028419D01*
X023148Y028260D02*
X021018Y028260D01*
X021102Y028102D02*
X023064Y028102D01*
X022999Y027943D02*
X021167Y027943D01*
X021181Y027785D02*
X022985Y027785D01*
X022985Y027626D02*
X021181Y027626D01*
X021142Y027468D02*
X023025Y027468D01*
X023090Y027309D02*
X021076Y027309D01*
X020956Y027151D02*
X023210Y027151D01*
X023379Y026992D02*
X020787Y026992D01*
X022704Y024456D02*
X028462Y024456D01*
X028466Y024467D02*
X028430Y024379D01*
X028430Y023457D01*
X028466Y023368D01*
X028534Y023301D01*
X028622Y023264D01*
X029544Y023264D01*
X029632Y023301D01*
X029700Y023368D01*
X029736Y023457D01*
X029736Y024379D01*
X029700Y024467D01*
X029632Y024535D01*
X029544Y024571D01*
X028622Y024571D01*
X028534Y024535D01*
X028466Y024467D01*
X028430Y024298D02*
X022736Y024298D01*
X022736Y024139D02*
X028430Y024139D01*
X028430Y023981D02*
X022736Y023981D01*
X022736Y023822D02*
X028430Y023822D01*
X028430Y023664D02*
X022736Y023664D01*
X022736Y023505D02*
X028430Y023505D01*
X028488Y023347D02*
X022678Y023347D01*
X024331Y026992D02*
X026836Y026992D01*
X026667Y027151D02*
X024499Y027151D01*
X024619Y027309D02*
X026547Y027309D01*
X026481Y027468D02*
X024685Y027468D01*
X024725Y027626D02*
X026441Y027626D01*
X026441Y027785D02*
X024725Y027785D01*
X024711Y027943D02*
X026455Y027943D01*
X026521Y028102D02*
X024645Y028102D01*
X024561Y028260D02*
X026605Y028260D01*
X026763Y028419D02*
X024403Y028419D01*
X027860Y028419D02*
X030306Y028419D01*
X030148Y028260D02*
X028018Y028260D01*
X028102Y028102D02*
X030064Y028102D01*
X029999Y027943D02*
X028167Y027943D01*
X028181Y027785D02*
X029985Y027785D01*
X029985Y027626D02*
X028181Y027626D01*
X028142Y027468D02*
X030025Y027468D01*
X030090Y027309D02*
X028076Y027309D01*
X027956Y027151D02*
X030210Y027151D01*
X030379Y026992D02*
X027787Y026992D01*
X029704Y024456D02*
X035462Y024456D01*
X035466Y024467D02*
X035430Y024379D01*
X035430Y023457D01*
X035466Y023368D01*
X035534Y023301D01*
X035622Y023264D01*
X036544Y023264D01*
X036632Y023301D01*
X036700Y023368D01*
X036736Y023457D01*
X036736Y024379D01*
X036700Y024467D01*
X036632Y024535D01*
X036544Y024571D01*
X035622Y024571D01*
X035534Y024535D01*
X035466Y024467D01*
X035430Y024298D02*
X029736Y024298D01*
X029736Y024139D02*
X035430Y024139D01*
X035430Y023981D02*
X029736Y023981D01*
X029736Y023822D02*
X035430Y023822D01*
X035430Y023664D02*
X029736Y023664D01*
X029736Y023505D02*
X035430Y023505D01*
X035488Y023347D02*
X029678Y023347D01*
X031316Y021286D02*
X031476Y021286D01*
X031476Y021412D02*
X031591Y021400D01*
X031719Y021375D01*
X031844Y021337D01*
X031965Y021287D01*
X032080Y021225D01*
X032189Y021153D01*
X032290Y021070D01*
X032382Y020977D01*
X032465Y020876D01*
X032538Y020768D01*
X032599Y020652D01*
X032509Y020811D02*
X034351Y020811D01*
X034264Y020969D02*
X032389Y020969D01*
X032219Y021128D02*
X034264Y021128D01*
X034264Y021286D02*
X031966Y021286D01*
X031476Y021412D02*
X031476Y020163D01*
X031476Y020177D02*
X031316Y020177D01*
X031316Y020335D02*
X031476Y020335D01*
X031476Y020494D02*
X031316Y020494D01*
X031316Y020652D02*
X031476Y020652D01*
X031476Y020811D02*
X031316Y020811D01*
X031316Y020969D02*
X031476Y020969D01*
X031476Y021128D02*
X031316Y021128D01*
X030402Y020969D02*
X028938Y020969D01*
X029063Y020811D02*
X030282Y020811D01*
X032254Y019067D02*
X040127Y019067D01*
X040126Y018909D02*
X032020Y018909D01*
X032412Y019226D02*
X034293Y019226D01*
X034264Y019384D02*
X032528Y019384D01*
X032611Y019543D02*
X034264Y019543D01*
X034264Y019701D02*
X032670Y019701D01*
X035571Y019701D02*
X037025Y019701D01*
X037025Y019699D02*
X036490Y019699D01*
X036490Y019319D01*
X036502Y019273D01*
X036526Y019232D01*
X036559Y019199D01*
X036600Y019175D01*
X036646Y019163D01*
X037025Y019163D01*
X037025Y019698D01*
X037141Y019698D01*
X037141Y019163D01*
X037520Y019163D01*
X037566Y019175D01*
X037607Y019199D01*
X037640Y019232D01*
X037664Y019273D01*
X037676Y019319D01*
X037676Y019699D01*
X037141Y019699D01*
X037141Y019814D01*
X037676Y019814D01*
X037676Y020193D01*
X037664Y020239D01*
X037640Y020280D01*
X037607Y020314D01*
X037566Y020337D01*
X037520Y020350D01*
X037141Y020350D01*
X037141Y019814D01*
X037025Y019814D01*
X037025Y019699D01*
X037025Y019814D02*
X036490Y019814D01*
X036490Y020193D01*
X036502Y020239D01*
X036526Y020280D01*
X036559Y020314D01*
X036600Y020337D01*
X036646Y020350D01*
X037025Y020350D01*
X037025Y019814D01*
X037025Y019860D02*
X037141Y019860D01*
X037141Y020018D02*
X037025Y020018D01*
X037025Y020177D02*
X037141Y020177D01*
X037141Y020335D02*
X037025Y020335D01*
X036596Y020335D02*
X035505Y020335D01*
X035571Y020177D02*
X036490Y020177D01*
X036490Y020018D02*
X035571Y020018D01*
X035571Y019860D02*
X036490Y019860D01*
X036490Y019543D02*
X035571Y019543D01*
X035571Y019384D02*
X036490Y019384D01*
X036532Y019226D02*
X035542Y019226D01*
X037025Y019226D02*
X037141Y019226D01*
X037141Y019384D02*
X037025Y019384D01*
X037025Y019543D02*
X037141Y019543D01*
X037141Y019701D02*
X040128Y019701D01*
X040128Y019543D02*
X037676Y019543D01*
X037676Y019384D02*
X040127Y019384D01*
X040127Y019226D02*
X037634Y019226D01*
X037676Y019860D02*
X040129Y019860D01*
X040129Y020018D02*
X037676Y020018D01*
X037676Y020177D02*
X040129Y020177D01*
X040130Y020335D02*
X037570Y020335D01*
X037520Y020816D02*
X037566Y020829D01*
X037607Y020852D01*
X037640Y020886D01*
X037664Y020927D01*
X037676Y020973D01*
X037676Y021352D01*
X037141Y021352D01*
X037141Y021468D01*
X037025Y021468D01*
X037025Y022003D01*
X036646Y022003D01*
X036600Y021991D01*
X036559Y021967D01*
X036526Y021934D01*
X036502Y021893D01*
X036490Y021847D01*
X036490Y021468D01*
X037025Y021468D01*
X037025Y021352D01*
X036490Y021352D01*
X036490Y020973D01*
X036502Y020927D01*
X036526Y020886D01*
X036559Y020852D01*
X036600Y020829D01*
X036646Y020816D01*
X037025Y020816D01*
X037025Y021352D01*
X037141Y021352D01*
X037141Y020816D01*
X037520Y020816D01*
X037675Y020969D02*
X040131Y020969D01*
X040131Y020811D02*
X035485Y020811D01*
X035571Y020969D02*
X036491Y020969D01*
X036490Y021128D02*
X035571Y021128D01*
X035571Y021286D02*
X036490Y021286D01*
X036490Y021603D02*
X035571Y021603D01*
X035571Y021445D02*
X037025Y021445D01*
X037141Y021445D02*
X040132Y021445D01*
X040133Y021603D02*
X037676Y021603D01*
X037676Y021468D02*
X037676Y021847D01*
X037664Y021893D01*
X037640Y021934D01*
X037607Y021967D01*
X037566Y021991D01*
X037520Y022003D01*
X037141Y022003D01*
X037141Y021468D01*
X037676Y021468D01*
X037676Y021286D02*
X040132Y021286D01*
X040131Y021128D02*
X037676Y021128D01*
X037141Y021128D02*
X037025Y021128D01*
X037025Y021286D02*
X037141Y021286D01*
X037141Y020969D02*
X037025Y020969D01*
X037025Y021603D02*
X037141Y021603D01*
X037141Y021762D02*
X037025Y021762D01*
X037025Y021920D02*
X037141Y021920D01*
X037648Y021920D02*
X040133Y021920D01*
X040133Y021762D02*
X037676Y021762D01*
X038244Y022444D02*
X038564Y022312D01*
X038910Y022312D01*
X039229Y022444D01*
X039474Y022689D01*
X039607Y023008D01*
X039607Y023355D01*
X039474Y023674D01*
X039229Y023919D01*
X038910Y024051D01*
X038564Y024051D01*
X038244Y023919D01*
X037999Y023674D01*
X037867Y023355D01*
X037867Y023008D01*
X037999Y022689D01*
X038244Y022444D01*
X038361Y022396D02*
X002583Y022396D01*
X002583Y022554D02*
X038134Y022554D01*
X037989Y022713D02*
X002583Y022713D01*
X002583Y022871D02*
X037924Y022871D01*
X037867Y023030D02*
X002583Y023030D01*
X002583Y023188D02*
X037867Y023188D01*
X037867Y023347D02*
X036678Y023347D01*
X036736Y023505D02*
X037929Y023505D01*
X037995Y023664D02*
X036736Y023664D01*
X036736Y023822D02*
X038147Y023822D01*
X038393Y023981D02*
X036736Y023981D01*
X036736Y024139D02*
X040138Y024139D01*
X040138Y023981D02*
X039081Y023981D01*
X039326Y023822D02*
X040138Y023822D01*
X040137Y023664D02*
X039479Y023664D01*
X039544Y023505D02*
X040137Y023505D01*
X040137Y023347D02*
X039607Y023347D01*
X039607Y023188D02*
X040136Y023188D01*
X040136Y023030D02*
X039607Y023030D01*
X039550Y022871D02*
X040135Y022871D01*
X040135Y022713D02*
X039484Y022713D01*
X039339Y022554D02*
X040135Y022554D01*
X040134Y022396D02*
X039113Y022396D01*
X040139Y024298D02*
X036736Y024298D01*
X036704Y024456D02*
X040139Y024456D01*
X040139Y024615D02*
X004226Y024615D01*
X004226Y024456D02*
X004066Y024456D01*
X004066Y024298D02*
X004226Y024298D01*
X004226Y024139D02*
X004066Y024139D01*
X004066Y023981D02*
X004226Y023981D01*
X004226Y023822D02*
X004066Y023822D01*
X004066Y023664D02*
X004226Y023664D01*
X004226Y023505D02*
X004066Y023505D01*
X004066Y023347D02*
X004226Y023347D01*
X004433Y023347D02*
X007488Y023347D01*
X007430Y023505D02*
X004833Y023505D01*
X005045Y023664D02*
X007430Y023664D01*
X007430Y023822D02*
X005190Y023822D01*
X005298Y023981D02*
X007430Y023981D01*
X007430Y024139D02*
X005375Y024139D01*
X005430Y024298D02*
X007430Y024298D01*
X007462Y024456D02*
X005463Y024456D01*
X005469Y024773D02*
X040140Y024773D01*
X040140Y024932D02*
X005445Y024932D01*
X005401Y025090D02*
X040141Y025090D01*
X040141Y025249D02*
X005331Y025249D01*
X005236Y025407D02*
X040141Y025407D01*
X040143Y026200D02*
X036676Y026200D01*
X036676Y026358D02*
X040143Y026358D01*
X040144Y026517D02*
X036676Y026517D01*
X036525Y026675D02*
X040144Y026675D01*
X037379Y026992D02*
X034787Y026992D01*
X034956Y027151D02*
X037210Y027151D01*
X037090Y027309D02*
X035076Y027309D01*
X035142Y027468D02*
X037025Y027468D01*
X036985Y027626D02*
X035181Y027626D01*
X035181Y027785D02*
X036985Y027785D01*
X036999Y027943D02*
X035167Y027943D01*
X035102Y028102D02*
X037064Y028102D01*
X037148Y028260D02*
X035018Y028260D01*
X034860Y028419D02*
X037306Y028419D01*
X033763Y028419D02*
X031403Y028419D01*
X031561Y028260D02*
X033605Y028260D01*
X033521Y028102D02*
X031645Y028102D01*
X031711Y027943D02*
X033455Y027943D01*
X033441Y027785D02*
X031725Y027785D01*
X031725Y027626D02*
X033441Y027626D01*
X033481Y027468D02*
X031685Y027468D01*
X031619Y027309D02*
X033547Y027309D01*
X033667Y027151D02*
X031499Y027151D01*
X031331Y026992D02*
X033836Y026992D01*
X035551Y021920D02*
X036518Y021920D01*
X036490Y021762D02*
X035571Y021762D01*
X031476Y015739D02*
X031316Y015739D01*
X031316Y015580D02*
X031476Y015580D01*
X031476Y015422D02*
X031316Y015422D01*
X031316Y015263D02*
X031476Y015263D01*
X031476Y015105D02*
X031316Y015105D01*
X031316Y014946D02*
X031476Y014946D01*
X031476Y014788D02*
X031316Y014788D01*
X031316Y014312D02*
X031476Y014312D01*
X031476Y014154D02*
X031316Y014154D01*
X031316Y013995D02*
X031476Y013995D01*
X031476Y013837D02*
X031316Y013837D01*
X031316Y013678D02*
X031476Y013678D01*
X031476Y013520D02*
X031316Y013520D01*
X031316Y013361D02*
X031476Y013361D01*
X031476Y013203D02*
X031316Y013203D01*
X031208Y013203D02*
X028904Y013203D01*
X029062Y013361D02*
X030743Y013361D01*
X030519Y013520D02*
X029123Y013520D01*
X029123Y013678D02*
X030366Y013678D01*
X030253Y013837D02*
X029123Y013837D01*
X028997Y013995D02*
X030174Y013995D01*
X030009Y012410D02*
X034264Y012410D01*
X034264Y012252D02*
X030274Y012252D01*
X030412Y012093D02*
X034264Y012093D01*
X034270Y011935D02*
X030478Y011935D01*
X030511Y011776D02*
X034409Y011776D01*
X034299Y011301D02*
X030403Y011301D01*
X030251Y011142D02*
X034264Y011142D01*
X034264Y010984D02*
X029955Y010984D01*
X037025Y010984D02*
X037141Y010984D01*
X037141Y011142D02*
X037025Y011142D01*
X037025Y011301D02*
X037141Y011301D01*
X037141Y010825D02*
X037025Y010825D01*
X037025Y010667D02*
X037141Y010667D01*
X037141Y010508D02*
X037025Y010508D01*
X037025Y010350D02*
X037141Y010350D01*
X037141Y010191D02*
X037025Y010191D01*
X037025Y011935D02*
X037141Y011935D01*
X037141Y012093D02*
X037025Y012093D01*
X037025Y012252D02*
X037141Y012252D01*
X037141Y012569D02*
X037025Y012569D01*
X037025Y012727D02*
X037141Y012727D01*
X037141Y012886D02*
X037025Y012886D01*
X037676Y012093D02*
X040111Y012093D01*
X040110Y011935D02*
X037666Y011935D01*
X008141Y025566D02*
X008025Y025566D01*
X008025Y025724D02*
X008141Y025724D01*
X008141Y025883D02*
X008025Y025883D01*
X008025Y026200D02*
X008141Y026200D01*
X008141Y026358D02*
X008025Y026358D01*
X008025Y026517D02*
X008141Y026517D01*
X008141Y026675D02*
X008025Y026675D01*
X007490Y025883D02*
X004635Y025883D01*
X004925Y025724D02*
X007490Y025724D01*
X007522Y025566D02*
X005106Y025566D01*
X002828Y024456D02*
X002583Y024456D01*
X002583Y024298D02*
X002861Y024298D01*
X002916Y024139D02*
X002583Y024139D01*
X002583Y023981D02*
X002993Y023981D01*
X003101Y023822D02*
X002583Y023822D01*
X002583Y023664D02*
X003247Y023664D01*
X003458Y023505D02*
X002583Y023505D01*
X002583Y023347D02*
X003859Y023347D01*
X002949Y021920D02*
X002583Y021920D01*
X002583Y021762D02*
X002790Y021762D01*
X002761Y021603D02*
X002583Y021603D01*
X002583Y021445D02*
X002761Y021445D01*
X002784Y021286D02*
X002583Y021286D01*
X002583Y021128D02*
X002942Y021128D01*
X004525Y020969D02*
X005250Y020969D01*
X005521Y018275D02*
X005822Y018275D01*
X005664Y018116D02*
X005561Y018116D01*
D25*
X005897Y020208D02*
X005897Y020832D01*
X005271Y021458D01*
X004333Y021458D01*
X004271Y021521D01*
X013021Y015498D02*
X013021Y013271D01*
X015022Y011270D01*
X015650Y011270D01*
X018833Y010838D02*
X018833Y009832D01*
X019896Y009771D02*
X019896Y011016D01*
X019641Y011271D01*
X010147Y010535D02*
X010147Y012333D01*
X010147Y010535D02*
X010069Y010457D01*
X010069Y010083D02*
X009521Y010083D01*
D26*
X009943Y009583D02*
X010069Y009709D01*
X010069Y009146D01*
X010069Y008223D01*
X010209Y008083D01*
X011097Y009695D02*
X012209Y008583D01*
X012957Y008583D02*
X012957Y010456D01*
X012958Y010457D01*
X013329Y010457D01*
X012958Y010457D02*
X011097Y010457D01*
X011097Y012130D01*
X010895Y012333D01*
X011771Y013209D01*
X011771Y013271D01*
X010892Y013512D02*
X010892Y015518D01*
X008023Y015518D01*
X008021Y015521D01*
X010892Y015518D02*
X010897Y015521D01*
X011645Y015521D02*
X012998Y015521D01*
X013021Y015498D01*
X012998Y015521D02*
X012998Y017271D01*
X010144Y013512D02*
X010147Y013509D01*
X010147Y012333D01*
X010895Y012333D02*
X010895Y012457D01*
X007748Y011583D02*
X006333Y010168D01*
X006333Y009707D01*
X006333Y008959D02*
X007085Y008959D01*
X007647Y008958D01*
X006333Y008959D02*
X006333Y008333D01*
X011097Y009695D02*
X011097Y009709D01*
X011770Y009709D01*
X012021Y009458D01*
D27*
X012021Y009458D03*
X011771Y013271D03*
X013021Y013271D03*
X019896Y009771D03*
X016083Y018833D03*
M02*
