G75*
%MOIN*%
%OFA0B0*%
%FSLAX24Y24*%
%IPPOS*%
%LPD*%
%AMOC8*
5,1,8,0,0,1.08239X$1,22.5*
%
%ADD10C,0.0000*%
%ADD11C,0.1000*%
%ADD12OC8,0.1000*%
%ADD13R,0.0827X0.0827*%
%ADD14R,0.0630X0.0512*%
%ADD15C,0.0900*%
%ADD16C,0.0476*%
%ADD17OC8,0.0660*%
%ADD18C,0.0600*%
%ADD19R,0.0591X0.0512*%
%ADD20C,0.2300*%
%ADD21C,0.0520*%
%ADD22OC8,0.0600*%
%ADD23C,0.0160*%
%ADD24R,0.0396X0.0396*%
%ADD25C,0.2000*%
%ADD26C,0.0200*%
%ADD27C,0.0240*%
%ADD28C,0.1000*%
%ADD29C,0.0400*%
D10*
X001708Y002271D02*
X001771Y029579D01*
X040391Y029517D01*
X040328Y002208D01*
X001708Y002271D01*
X005681Y003930D02*
X005683Y003980D01*
X005689Y004030D01*
X005699Y004079D01*
X005713Y004127D01*
X005730Y004174D01*
X005751Y004219D01*
X005776Y004263D01*
X005804Y004304D01*
X005836Y004343D01*
X005870Y004380D01*
X005907Y004414D01*
X005947Y004444D01*
X005989Y004471D01*
X006033Y004495D01*
X006079Y004516D01*
X006126Y004532D01*
X006174Y004545D01*
X006224Y004554D01*
X006273Y004559D01*
X006324Y004560D01*
X006374Y004557D01*
X006423Y004550D01*
X006472Y004539D01*
X006520Y004524D01*
X006566Y004506D01*
X006611Y004484D01*
X006654Y004458D01*
X006695Y004429D01*
X006734Y004397D01*
X006770Y004362D01*
X006802Y004324D01*
X006832Y004284D01*
X006859Y004241D01*
X006882Y004197D01*
X006901Y004151D01*
X006917Y004103D01*
X006929Y004054D01*
X006937Y004005D01*
X006941Y003955D01*
X006941Y003905D01*
X006937Y003855D01*
X006929Y003806D01*
X006917Y003757D01*
X006901Y003709D01*
X006882Y003663D01*
X006859Y003619D01*
X006832Y003576D01*
X006802Y003536D01*
X006770Y003498D01*
X006734Y003463D01*
X006695Y003431D01*
X006654Y003402D01*
X006611Y003376D01*
X006566Y003354D01*
X006520Y003336D01*
X006472Y003321D01*
X006423Y003310D01*
X006374Y003303D01*
X006324Y003300D01*
X006273Y003301D01*
X006224Y003306D01*
X006174Y003315D01*
X006126Y003328D01*
X006079Y003344D01*
X006033Y003365D01*
X005989Y003389D01*
X005947Y003416D01*
X005907Y003446D01*
X005870Y003480D01*
X005836Y003517D01*
X005804Y003556D01*
X005776Y003597D01*
X005751Y003641D01*
X005730Y003686D01*
X005713Y003733D01*
X005699Y003781D01*
X005689Y003830D01*
X005683Y003880D01*
X005681Y003930D01*
X009225Y003930D02*
X009227Y003980D01*
X009233Y004030D01*
X009243Y004079D01*
X009257Y004127D01*
X009274Y004174D01*
X009295Y004219D01*
X009320Y004263D01*
X009348Y004304D01*
X009380Y004343D01*
X009414Y004380D01*
X009451Y004414D01*
X009491Y004444D01*
X009533Y004471D01*
X009577Y004495D01*
X009623Y004516D01*
X009670Y004532D01*
X009718Y004545D01*
X009768Y004554D01*
X009817Y004559D01*
X009868Y004560D01*
X009918Y004557D01*
X009967Y004550D01*
X010016Y004539D01*
X010064Y004524D01*
X010110Y004506D01*
X010155Y004484D01*
X010198Y004458D01*
X010239Y004429D01*
X010278Y004397D01*
X010314Y004362D01*
X010346Y004324D01*
X010376Y004284D01*
X010403Y004241D01*
X010426Y004197D01*
X010445Y004151D01*
X010461Y004103D01*
X010473Y004054D01*
X010481Y004005D01*
X010485Y003955D01*
X010485Y003905D01*
X010481Y003855D01*
X010473Y003806D01*
X010461Y003757D01*
X010445Y003709D01*
X010426Y003663D01*
X010403Y003619D01*
X010376Y003576D01*
X010346Y003536D01*
X010314Y003498D01*
X010278Y003463D01*
X010239Y003431D01*
X010198Y003402D01*
X010155Y003376D01*
X010110Y003354D01*
X010064Y003336D01*
X010016Y003321D01*
X009967Y003310D01*
X009918Y003303D01*
X009868Y003300D01*
X009817Y003301D01*
X009768Y003306D01*
X009718Y003315D01*
X009670Y003328D01*
X009623Y003344D01*
X009577Y003365D01*
X009533Y003389D01*
X009491Y003416D01*
X009451Y003446D01*
X009414Y003480D01*
X009380Y003517D01*
X009348Y003556D01*
X009320Y003597D01*
X009295Y003641D01*
X009274Y003686D01*
X009257Y003733D01*
X009243Y003781D01*
X009233Y003830D01*
X009227Y003880D01*
X009225Y003930D01*
X012681Y003930D02*
X012683Y003980D01*
X012689Y004030D01*
X012699Y004079D01*
X012713Y004127D01*
X012730Y004174D01*
X012751Y004219D01*
X012776Y004263D01*
X012804Y004304D01*
X012836Y004343D01*
X012870Y004380D01*
X012907Y004414D01*
X012947Y004444D01*
X012989Y004471D01*
X013033Y004495D01*
X013079Y004516D01*
X013126Y004532D01*
X013174Y004545D01*
X013224Y004554D01*
X013273Y004559D01*
X013324Y004560D01*
X013374Y004557D01*
X013423Y004550D01*
X013472Y004539D01*
X013520Y004524D01*
X013566Y004506D01*
X013611Y004484D01*
X013654Y004458D01*
X013695Y004429D01*
X013734Y004397D01*
X013770Y004362D01*
X013802Y004324D01*
X013832Y004284D01*
X013859Y004241D01*
X013882Y004197D01*
X013901Y004151D01*
X013917Y004103D01*
X013929Y004054D01*
X013937Y004005D01*
X013941Y003955D01*
X013941Y003905D01*
X013937Y003855D01*
X013929Y003806D01*
X013917Y003757D01*
X013901Y003709D01*
X013882Y003663D01*
X013859Y003619D01*
X013832Y003576D01*
X013802Y003536D01*
X013770Y003498D01*
X013734Y003463D01*
X013695Y003431D01*
X013654Y003402D01*
X013611Y003376D01*
X013566Y003354D01*
X013520Y003336D01*
X013472Y003321D01*
X013423Y003310D01*
X013374Y003303D01*
X013324Y003300D01*
X013273Y003301D01*
X013224Y003306D01*
X013174Y003315D01*
X013126Y003328D01*
X013079Y003344D01*
X013033Y003365D01*
X012989Y003389D01*
X012947Y003416D01*
X012907Y003446D01*
X012870Y003480D01*
X012836Y003517D01*
X012804Y003556D01*
X012776Y003597D01*
X012751Y003641D01*
X012730Y003686D01*
X012713Y003733D01*
X012699Y003781D01*
X012689Y003830D01*
X012683Y003880D01*
X012681Y003930D01*
X016225Y003930D02*
X016227Y003980D01*
X016233Y004030D01*
X016243Y004079D01*
X016257Y004127D01*
X016274Y004174D01*
X016295Y004219D01*
X016320Y004263D01*
X016348Y004304D01*
X016380Y004343D01*
X016414Y004380D01*
X016451Y004414D01*
X016491Y004444D01*
X016533Y004471D01*
X016577Y004495D01*
X016623Y004516D01*
X016670Y004532D01*
X016718Y004545D01*
X016768Y004554D01*
X016817Y004559D01*
X016868Y004560D01*
X016918Y004557D01*
X016967Y004550D01*
X017016Y004539D01*
X017064Y004524D01*
X017110Y004506D01*
X017155Y004484D01*
X017198Y004458D01*
X017239Y004429D01*
X017278Y004397D01*
X017314Y004362D01*
X017346Y004324D01*
X017376Y004284D01*
X017403Y004241D01*
X017426Y004197D01*
X017445Y004151D01*
X017461Y004103D01*
X017473Y004054D01*
X017481Y004005D01*
X017485Y003955D01*
X017485Y003905D01*
X017481Y003855D01*
X017473Y003806D01*
X017461Y003757D01*
X017445Y003709D01*
X017426Y003663D01*
X017403Y003619D01*
X017376Y003576D01*
X017346Y003536D01*
X017314Y003498D01*
X017278Y003463D01*
X017239Y003431D01*
X017198Y003402D01*
X017155Y003376D01*
X017110Y003354D01*
X017064Y003336D01*
X017016Y003321D01*
X016967Y003310D01*
X016918Y003303D01*
X016868Y003300D01*
X016817Y003301D01*
X016768Y003306D01*
X016718Y003315D01*
X016670Y003328D01*
X016623Y003344D01*
X016577Y003365D01*
X016533Y003389D01*
X016491Y003416D01*
X016451Y003446D01*
X016414Y003480D01*
X016380Y003517D01*
X016348Y003556D01*
X016320Y003597D01*
X016295Y003641D01*
X016274Y003686D01*
X016257Y003733D01*
X016243Y003781D01*
X016233Y003830D01*
X016227Y003880D01*
X016225Y003930D01*
X019681Y003930D02*
X019683Y003980D01*
X019689Y004030D01*
X019699Y004079D01*
X019713Y004127D01*
X019730Y004174D01*
X019751Y004219D01*
X019776Y004263D01*
X019804Y004304D01*
X019836Y004343D01*
X019870Y004380D01*
X019907Y004414D01*
X019947Y004444D01*
X019989Y004471D01*
X020033Y004495D01*
X020079Y004516D01*
X020126Y004532D01*
X020174Y004545D01*
X020224Y004554D01*
X020273Y004559D01*
X020324Y004560D01*
X020374Y004557D01*
X020423Y004550D01*
X020472Y004539D01*
X020520Y004524D01*
X020566Y004506D01*
X020611Y004484D01*
X020654Y004458D01*
X020695Y004429D01*
X020734Y004397D01*
X020770Y004362D01*
X020802Y004324D01*
X020832Y004284D01*
X020859Y004241D01*
X020882Y004197D01*
X020901Y004151D01*
X020917Y004103D01*
X020929Y004054D01*
X020937Y004005D01*
X020941Y003955D01*
X020941Y003905D01*
X020937Y003855D01*
X020929Y003806D01*
X020917Y003757D01*
X020901Y003709D01*
X020882Y003663D01*
X020859Y003619D01*
X020832Y003576D01*
X020802Y003536D01*
X020770Y003498D01*
X020734Y003463D01*
X020695Y003431D01*
X020654Y003402D01*
X020611Y003376D01*
X020566Y003354D01*
X020520Y003336D01*
X020472Y003321D01*
X020423Y003310D01*
X020374Y003303D01*
X020324Y003300D01*
X020273Y003301D01*
X020224Y003306D01*
X020174Y003315D01*
X020126Y003328D01*
X020079Y003344D01*
X020033Y003365D01*
X019989Y003389D01*
X019947Y003416D01*
X019907Y003446D01*
X019870Y003480D01*
X019836Y003517D01*
X019804Y003556D01*
X019776Y003597D01*
X019751Y003641D01*
X019730Y003686D01*
X019713Y003733D01*
X019699Y003781D01*
X019689Y003830D01*
X019683Y003880D01*
X019681Y003930D01*
X023225Y003930D02*
X023227Y003980D01*
X023233Y004030D01*
X023243Y004079D01*
X023257Y004127D01*
X023274Y004174D01*
X023295Y004219D01*
X023320Y004263D01*
X023348Y004304D01*
X023380Y004343D01*
X023414Y004380D01*
X023451Y004414D01*
X023491Y004444D01*
X023533Y004471D01*
X023577Y004495D01*
X023623Y004516D01*
X023670Y004532D01*
X023718Y004545D01*
X023768Y004554D01*
X023817Y004559D01*
X023868Y004560D01*
X023918Y004557D01*
X023967Y004550D01*
X024016Y004539D01*
X024064Y004524D01*
X024110Y004506D01*
X024155Y004484D01*
X024198Y004458D01*
X024239Y004429D01*
X024278Y004397D01*
X024314Y004362D01*
X024346Y004324D01*
X024376Y004284D01*
X024403Y004241D01*
X024426Y004197D01*
X024445Y004151D01*
X024461Y004103D01*
X024473Y004054D01*
X024481Y004005D01*
X024485Y003955D01*
X024485Y003905D01*
X024481Y003855D01*
X024473Y003806D01*
X024461Y003757D01*
X024445Y003709D01*
X024426Y003663D01*
X024403Y003619D01*
X024376Y003576D01*
X024346Y003536D01*
X024314Y003498D01*
X024278Y003463D01*
X024239Y003431D01*
X024198Y003402D01*
X024155Y003376D01*
X024110Y003354D01*
X024064Y003336D01*
X024016Y003321D01*
X023967Y003310D01*
X023918Y003303D01*
X023868Y003300D01*
X023817Y003301D01*
X023768Y003306D01*
X023718Y003315D01*
X023670Y003328D01*
X023623Y003344D01*
X023577Y003365D01*
X023533Y003389D01*
X023491Y003416D01*
X023451Y003446D01*
X023414Y003480D01*
X023380Y003517D01*
X023348Y003556D01*
X023320Y003597D01*
X023295Y003641D01*
X023274Y003686D01*
X023257Y003733D01*
X023243Y003781D01*
X023233Y003830D01*
X023227Y003880D01*
X023225Y003930D01*
X026681Y003930D02*
X026683Y003980D01*
X026689Y004030D01*
X026699Y004079D01*
X026713Y004127D01*
X026730Y004174D01*
X026751Y004219D01*
X026776Y004263D01*
X026804Y004304D01*
X026836Y004343D01*
X026870Y004380D01*
X026907Y004414D01*
X026947Y004444D01*
X026989Y004471D01*
X027033Y004495D01*
X027079Y004516D01*
X027126Y004532D01*
X027174Y004545D01*
X027224Y004554D01*
X027273Y004559D01*
X027324Y004560D01*
X027374Y004557D01*
X027423Y004550D01*
X027472Y004539D01*
X027520Y004524D01*
X027566Y004506D01*
X027611Y004484D01*
X027654Y004458D01*
X027695Y004429D01*
X027734Y004397D01*
X027770Y004362D01*
X027802Y004324D01*
X027832Y004284D01*
X027859Y004241D01*
X027882Y004197D01*
X027901Y004151D01*
X027917Y004103D01*
X027929Y004054D01*
X027937Y004005D01*
X027941Y003955D01*
X027941Y003905D01*
X027937Y003855D01*
X027929Y003806D01*
X027917Y003757D01*
X027901Y003709D01*
X027882Y003663D01*
X027859Y003619D01*
X027832Y003576D01*
X027802Y003536D01*
X027770Y003498D01*
X027734Y003463D01*
X027695Y003431D01*
X027654Y003402D01*
X027611Y003376D01*
X027566Y003354D01*
X027520Y003336D01*
X027472Y003321D01*
X027423Y003310D01*
X027374Y003303D01*
X027324Y003300D01*
X027273Y003301D01*
X027224Y003306D01*
X027174Y003315D01*
X027126Y003328D01*
X027079Y003344D01*
X027033Y003365D01*
X026989Y003389D01*
X026947Y003416D01*
X026907Y003446D01*
X026870Y003480D01*
X026836Y003517D01*
X026804Y003556D01*
X026776Y003597D01*
X026751Y003641D01*
X026730Y003686D01*
X026713Y003733D01*
X026699Y003781D01*
X026689Y003830D01*
X026683Y003880D01*
X026681Y003930D01*
X030225Y003930D02*
X030227Y003980D01*
X030233Y004030D01*
X030243Y004079D01*
X030257Y004127D01*
X030274Y004174D01*
X030295Y004219D01*
X030320Y004263D01*
X030348Y004304D01*
X030380Y004343D01*
X030414Y004380D01*
X030451Y004414D01*
X030491Y004444D01*
X030533Y004471D01*
X030577Y004495D01*
X030623Y004516D01*
X030670Y004532D01*
X030718Y004545D01*
X030768Y004554D01*
X030817Y004559D01*
X030868Y004560D01*
X030918Y004557D01*
X030967Y004550D01*
X031016Y004539D01*
X031064Y004524D01*
X031110Y004506D01*
X031155Y004484D01*
X031198Y004458D01*
X031239Y004429D01*
X031278Y004397D01*
X031314Y004362D01*
X031346Y004324D01*
X031376Y004284D01*
X031403Y004241D01*
X031426Y004197D01*
X031445Y004151D01*
X031461Y004103D01*
X031473Y004054D01*
X031481Y004005D01*
X031485Y003955D01*
X031485Y003905D01*
X031481Y003855D01*
X031473Y003806D01*
X031461Y003757D01*
X031445Y003709D01*
X031426Y003663D01*
X031403Y003619D01*
X031376Y003576D01*
X031346Y003536D01*
X031314Y003498D01*
X031278Y003463D01*
X031239Y003431D01*
X031198Y003402D01*
X031155Y003376D01*
X031110Y003354D01*
X031064Y003336D01*
X031016Y003321D01*
X030967Y003310D01*
X030918Y003303D01*
X030868Y003300D01*
X030817Y003301D01*
X030768Y003306D01*
X030718Y003315D01*
X030670Y003328D01*
X030623Y003344D01*
X030577Y003365D01*
X030533Y003389D01*
X030491Y003416D01*
X030451Y003446D01*
X030414Y003480D01*
X030380Y003517D01*
X030348Y003556D01*
X030320Y003597D01*
X030295Y003641D01*
X030274Y003686D01*
X030257Y003733D01*
X030243Y003781D01*
X030233Y003830D01*
X030227Y003880D01*
X030225Y003930D01*
X033681Y003930D02*
X033683Y003980D01*
X033689Y004030D01*
X033699Y004079D01*
X033713Y004127D01*
X033730Y004174D01*
X033751Y004219D01*
X033776Y004263D01*
X033804Y004304D01*
X033836Y004343D01*
X033870Y004380D01*
X033907Y004414D01*
X033947Y004444D01*
X033989Y004471D01*
X034033Y004495D01*
X034079Y004516D01*
X034126Y004532D01*
X034174Y004545D01*
X034224Y004554D01*
X034273Y004559D01*
X034324Y004560D01*
X034374Y004557D01*
X034423Y004550D01*
X034472Y004539D01*
X034520Y004524D01*
X034566Y004506D01*
X034611Y004484D01*
X034654Y004458D01*
X034695Y004429D01*
X034734Y004397D01*
X034770Y004362D01*
X034802Y004324D01*
X034832Y004284D01*
X034859Y004241D01*
X034882Y004197D01*
X034901Y004151D01*
X034917Y004103D01*
X034929Y004054D01*
X034937Y004005D01*
X034941Y003955D01*
X034941Y003905D01*
X034937Y003855D01*
X034929Y003806D01*
X034917Y003757D01*
X034901Y003709D01*
X034882Y003663D01*
X034859Y003619D01*
X034832Y003576D01*
X034802Y003536D01*
X034770Y003498D01*
X034734Y003463D01*
X034695Y003431D01*
X034654Y003402D01*
X034611Y003376D01*
X034566Y003354D01*
X034520Y003336D01*
X034472Y003321D01*
X034423Y003310D01*
X034374Y003303D01*
X034324Y003300D01*
X034273Y003301D01*
X034224Y003306D01*
X034174Y003315D01*
X034126Y003328D01*
X034079Y003344D01*
X034033Y003365D01*
X033989Y003389D01*
X033947Y003416D01*
X033907Y003446D01*
X033870Y003480D01*
X033836Y003517D01*
X033804Y003556D01*
X033776Y003597D01*
X033751Y003641D01*
X033730Y003686D01*
X033713Y003733D01*
X033699Y003781D01*
X033689Y003830D01*
X033683Y003880D01*
X033681Y003930D01*
X037225Y003930D02*
X037227Y003980D01*
X037233Y004030D01*
X037243Y004079D01*
X037257Y004127D01*
X037274Y004174D01*
X037295Y004219D01*
X037320Y004263D01*
X037348Y004304D01*
X037380Y004343D01*
X037414Y004380D01*
X037451Y004414D01*
X037491Y004444D01*
X037533Y004471D01*
X037577Y004495D01*
X037623Y004516D01*
X037670Y004532D01*
X037718Y004545D01*
X037768Y004554D01*
X037817Y004559D01*
X037868Y004560D01*
X037918Y004557D01*
X037967Y004550D01*
X038016Y004539D01*
X038064Y004524D01*
X038110Y004506D01*
X038155Y004484D01*
X038198Y004458D01*
X038239Y004429D01*
X038278Y004397D01*
X038314Y004362D01*
X038346Y004324D01*
X038376Y004284D01*
X038403Y004241D01*
X038426Y004197D01*
X038445Y004151D01*
X038461Y004103D01*
X038473Y004054D01*
X038481Y004005D01*
X038485Y003955D01*
X038485Y003905D01*
X038481Y003855D01*
X038473Y003806D01*
X038461Y003757D01*
X038445Y003709D01*
X038426Y003663D01*
X038403Y003619D01*
X038376Y003576D01*
X038346Y003536D01*
X038314Y003498D01*
X038278Y003463D01*
X038239Y003431D01*
X038198Y003402D01*
X038155Y003376D01*
X038110Y003354D01*
X038064Y003336D01*
X038016Y003321D01*
X037967Y003310D01*
X037918Y003303D01*
X037868Y003300D01*
X037817Y003301D01*
X037768Y003306D01*
X037718Y003315D01*
X037670Y003328D01*
X037623Y003344D01*
X037577Y003365D01*
X037533Y003389D01*
X037491Y003416D01*
X037451Y003446D01*
X037414Y003480D01*
X037380Y003517D01*
X037348Y003556D01*
X037320Y003597D01*
X037295Y003641D01*
X037274Y003686D01*
X037257Y003733D01*
X037243Y003781D01*
X037233Y003830D01*
X037227Y003880D01*
X037225Y003930D01*
X038107Y008985D02*
X038109Y009035D01*
X038115Y009085D01*
X038125Y009134D01*
X038139Y009182D01*
X038156Y009229D01*
X038177Y009274D01*
X038202Y009318D01*
X038230Y009359D01*
X038262Y009398D01*
X038296Y009435D01*
X038333Y009469D01*
X038373Y009499D01*
X038415Y009526D01*
X038459Y009550D01*
X038505Y009571D01*
X038552Y009587D01*
X038600Y009600D01*
X038650Y009609D01*
X038699Y009614D01*
X038750Y009615D01*
X038800Y009612D01*
X038849Y009605D01*
X038898Y009594D01*
X038946Y009579D01*
X038992Y009561D01*
X039037Y009539D01*
X039080Y009513D01*
X039121Y009484D01*
X039160Y009452D01*
X039196Y009417D01*
X039228Y009379D01*
X039258Y009339D01*
X039285Y009296D01*
X039308Y009252D01*
X039327Y009206D01*
X039343Y009158D01*
X039355Y009109D01*
X039363Y009060D01*
X039367Y009010D01*
X039367Y008960D01*
X039363Y008910D01*
X039355Y008861D01*
X039343Y008812D01*
X039327Y008764D01*
X039308Y008718D01*
X039285Y008674D01*
X039258Y008631D01*
X039228Y008591D01*
X039196Y008553D01*
X039160Y008518D01*
X039121Y008486D01*
X039080Y008457D01*
X039037Y008431D01*
X038992Y008409D01*
X038946Y008391D01*
X038898Y008376D01*
X038849Y008365D01*
X038800Y008358D01*
X038750Y008355D01*
X038699Y008356D01*
X038650Y008361D01*
X038600Y008370D01*
X038552Y008383D01*
X038505Y008399D01*
X038459Y008420D01*
X038415Y008444D01*
X038373Y008471D01*
X038333Y008501D01*
X038296Y008535D01*
X038262Y008572D01*
X038230Y008611D01*
X038202Y008652D01*
X038177Y008696D01*
X038156Y008741D01*
X038139Y008788D01*
X038125Y008836D01*
X038115Y008885D01*
X038109Y008935D01*
X038107Y008985D01*
X038107Y014181D02*
X038109Y014231D01*
X038115Y014281D01*
X038125Y014330D01*
X038139Y014378D01*
X038156Y014425D01*
X038177Y014470D01*
X038202Y014514D01*
X038230Y014555D01*
X038262Y014594D01*
X038296Y014631D01*
X038333Y014665D01*
X038373Y014695D01*
X038415Y014722D01*
X038459Y014746D01*
X038505Y014767D01*
X038552Y014783D01*
X038600Y014796D01*
X038650Y014805D01*
X038699Y014810D01*
X038750Y014811D01*
X038800Y014808D01*
X038849Y014801D01*
X038898Y014790D01*
X038946Y014775D01*
X038992Y014757D01*
X039037Y014735D01*
X039080Y014709D01*
X039121Y014680D01*
X039160Y014648D01*
X039196Y014613D01*
X039228Y014575D01*
X039258Y014535D01*
X039285Y014492D01*
X039308Y014448D01*
X039327Y014402D01*
X039343Y014354D01*
X039355Y014305D01*
X039363Y014256D01*
X039367Y014206D01*
X039367Y014156D01*
X039363Y014106D01*
X039355Y014057D01*
X039343Y014008D01*
X039327Y013960D01*
X039308Y013914D01*
X039285Y013870D01*
X039258Y013827D01*
X039228Y013787D01*
X039196Y013749D01*
X039160Y013714D01*
X039121Y013682D01*
X039080Y013653D01*
X039037Y013627D01*
X038992Y013605D01*
X038946Y013587D01*
X038898Y013572D01*
X038849Y013561D01*
X038800Y013554D01*
X038750Y013551D01*
X038699Y013552D01*
X038650Y013557D01*
X038600Y013566D01*
X038552Y013579D01*
X038505Y013595D01*
X038459Y013616D01*
X038415Y013640D01*
X038373Y013667D01*
X038333Y013697D01*
X038296Y013731D01*
X038262Y013768D01*
X038230Y013807D01*
X038202Y013848D01*
X038177Y013892D01*
X038156Y013937D01*
X038139Y013984D01*
X038125Y014032D01*
X038115Y014081D01*
X038109Y014131D01*
X038107Y014181D01*
X038107Y017985D02*
X038109Y018035D01*
X038115Y018085D01*
X038125Y018134D01*
X038139Y018182D01*
X038156Y018229D01*
X038177Y018274D01*
X038202Y018318D01*
X038230Y018359D01*
X038262Y018398D01*
X038296Y018435D01*
X038333Y018469D01*
X038373Y018499D01*
X038415Y018526D01*
X038459Y018550D01*
X038505Y018571D01*
X038552Y018587D01*
X038600Y018600D01*
X038650Y018609D01*
X038699Y018614D01*
X038750Y018615D01*
X038800Y018612D01*
X038849Y018605D01*
X038898Y018594D01*
X038946Y018579D01*
X038992Y018561D01*
X039037Y018539D01*
X039080Y018513D01*
X039121Y018484D01*
X039160Y018452D01*
X039196Y018417D01*
X039228Y018379D01*
X039258Y018339D01*
X039285Y018296D01*
X039308Y018252D01*
X039327Y018206D01*
X039343Y018158D01*
X039355Y018109D01*
X039363Y018060D01*
X039367Y018010D01*
X039367Y017960D01*
X039363Y017910D01*
X039355Y017861D01*
X039343Y017812D01*
X039327Y017764D01*
X039308Y017718D01*
X039285Y017674D01*
X039258Y017631D01*
X039228Y017591D01*
X039196Y017553D01*
X039160Y017518D01*
X039121Y017486D01*
X039080Y017457D01*
X039037Y017431D01*
X038992Y017409D01*
X038946Y017391D01*
X038898Y017376D01*
X038849Y017365D01*
X038800Y017358D01*
X038750Y017355D01*
X038699Y017356D01*
X038650Y017361D01*
X038600Y017370D01*
X038552Y017383D01*
X038505Y017399D01*
X038459Y017420D01*
X038415Y017444D01*
X038373Y017471D01*
X038333Y017501D01*
X038296Y017535D01*
X038262Y017572D01*
X038230Y017611D01*
X038202Y017652D01*
X038177Y017696D01*
X038156Y017741D01*
X038139Y017788D01*
X038125Y017836D01*
X038115Y017885D01*
X038109Y017935D01*
X038107Y017985D01*
X038107Y023181D02*
X038109Y023231D01*
X038115Y023281D01*
X038125Y023330D01*
X038139Y023378D01*
X038156Y023425D01*
X038177Y023470D01*
X038202Y023514D01*
X038230Y023555D01*
X038262Y023594D01*
X038296Y023631D01*
X038333Y023665D01*
X038373Y023695D01*
X038415Y023722D01*
X038459Y023746D01*
X038505Y023767D01*
X038552Y023783D01*
X038600Y023796D01*
X038650Y023805D01*
X038699Y023810D01*
X038750Y023811D01*
X038800Y023808D01*
X038849Y023801D01*
X038898Y023790D01*
X038946Y023775D01*
X038992Y023757D01*
X039037Y023735D01*
X039080Y023709D01*
X039121Y023680D01*
X039160Y023648D01*
X039196Y023613D01*
X039228Y023575D01*
X039258Y023535D01*
X039285Y023492D01*
X039308Y023448D01*
X039327Y023402D01*
X039343Y023354D01*
X039355Y023305D01*
X039363Y023256D01*
X039367Y023206D01*
X039367Y023156D01*
X039363Y023106D01*
X039355Y023057D01*
X039343Y023008D01*
X039327Y022960D01*
X039308Y022914D01*
X039285Y022870D01*
X039258Y022827D01*
X039228Y022787D01*
X039196Y022749D01*
X039160Y022714D01*
X039121Y022682D01*
X039080Y022653D01*
X039037Y022627D01*
X038992Y022605D01*
X038946Y022587D01*
X038898Y022572D01*
X038849Y022561D01*
X038800Y022554D01*
X038750Y022551D01*
X038699Y022552D01*
X038650Y022557D01*
X038600Y022566D01*
X038552Y022579D01*
X038505Y022595D01*
X038459Y022616D01*
X038415Y022640D01*
X038373Y022667D01*
X038333Y022697D01*
X038296Y022731D01*
X038262Y022768D01*
X038230Y022807D01*
X038202Y022848D01*
X038177Y022892D01*
X038156Y022937D01*
X038139Y022984D01*
X038125Y023032D01*
X038115Y023081D01*
X038109Y023131D01*
X038107Y023181D01*
X037225Y027737D02*
X037227Y027787D01*
X037233Y027837D01*
X037243Y027886D01*
X037257Y027934D01*
X037274Y027981D01*
X037295Y028026D01*
X037320Y028070D01*
X037348Y028111D01*
X037380Y028150D01*
X037414Y028187D01*
X037451Y028221D01*
X037491Y028251D01*
X037533Y028278D01*
X037577Y028302D01*
X037623Y028323D01*
X037670Y028339D01*
X037718Y028352D01*
X037768Y028361D01*
X037817Y028366D01*
X037868Y028367D01*
X037918Y028364D01*
X037967Y028357D01*
X038016Y028346D01*
X038064Y028331D01*
X038110Y028313D01*
X038155Y028291D01*
X038198Y028265D01*
X038239Y028236D01*
X038278Y028204D01*
X038314Y028169D01*
X038346Y028131D01*
X038376Y028091D01*
X038403Y028048D01*
X038426Y028004D01*
X038445Y027958D01*
X038461Y027910D01*
X038473Y027861D01*
X038481Y027812D01*
X038485Y027762D01*
X038485Y027712D01*
X038481Y027662D01*
X038473Y027613D01*
X038461Y027564D01*
X038445Y027516D01*
X038426Y027470D01*
X038403Y027426D01*
X038376Y027383D01*
X038346Y027343D01*
X038314Y027305D01*
X038278Y027270D01*
X038239Y027238D01*
X038198Y027209D01*
X038155Y027183D01*
X038110Y027161D01*
X038064Y027143D01*
X038016Y027128D01*
X037967Y027117D01*
X037918Y027110D01*
X037868Y027107D01*
X037817Y027108D01*
X037768Y027113D01*
X037718Y027122D01*
X037670Y027135D01*
X037623Y027151D01*
X037577Y027172D01*
X037533Y027196D01*
X037491Y027223D01*
X037451Y027253D01*
X037414Y027287D01*
X037380Y027324D01*
X037348Y027363D01*
X037320Y027404D01*
X037295Y027448D01*
X037274Y027493D01*
X037257Y027540D01*
X037243Y027588D01*
X037233Y027637D01*
X037227Y027687D01*
X037225Y027737D01*
X033681Y027737D02*
X033683Y027787D01*
X033689Y027837D01*
X033699Y027886D01*
X033713Y027934D01*
X033730Y027981D01*
X033751Y028026D01*
X033776Y028070D01*
X033804Y028111D01*
X033836Y028150D01*
X033870Y028187D01*
X033907Y028221D01*
X033947Y028251D01*
X033989Y028278D01*
X034033Y028302D01*
X034079Y028323D01*
X034126Y028339D01*
X034174Y028352D01*
X034224Y028361D01*
X034273Y028366D01*
X034324Y028367D01*
X034374Y028364D01*
X034423Y028357D01*
X034472Y028346D01*
X034520Y028331D01*
X034566Y028313D01*
X034611Y028291D01*
X034654Y028265D01*
X034695Y028236D01*
X034734Y028204D01*
X034770Y028169D01*
X034802Y028131D01*
X034832Y028091D01*
X034859Y028048D01*
X034882Y028004D01*
X034901Y027958D01*
X034917Y027910D01*
X034929Y027861D01*
X034937Y027812D01*
X034941Y027762D01*
X034941Y027712D01*
X034937Y027662D01*
X034929Y027613D01*
X034917Y027564D01*
X034901Y027516D01*
X034882Y027470D01*
X034859Y027426D01*
X034832Y027383D01*
X034802Y027343D01*
X034770Y027305D01*
X034734Y027270D01*
X034695Y027238D01*
X034654Y027209D01*
X034611Y027183D01*
X034566Y027161D01*
X034520Y027143D01*
X034472Y027128D01*
X034423Y027117D01*
X034374Y027110D01*
X034324Y027107D01*
X034273Y027108D01*
X034224Y027113D01*
X034174Y027122D01*
X034126Y027135D01*
X034079Y027151D01*
X034033Y027172D01*
X033989Y027196D01*
X033947Y027223D01*
X033907Y027253D01*
X033870Y027287D01*
X033836Y027324D01*
X033804Y027363D01*
X033776Y027404D01*
X033751Y027448D01*
X033730Y027493D01*
X033713Y027540D01*
X033699Y027588D01*
X033689Y027637D01*
X033683Y027687D01*
X033681Y027737D01*
X030225Y027737D02*
X030227Y027787D01*
X030233Y027837D01*
X030243Y027886D01*
X030257Y027934D01*
X030274Y027981D01*
X030295Y028026D01*
X030320Y028070D01*
X030348Y028111D01*
X030380Y028150D01*
X030414Y028187D01*
X030451Y028221D01*
X030491Y028251D01*
X030533Y028278D01*
X030577Y028302D01*
X030623Y028323D01*
X030670Y028339D01*
X030718Y028352D01*
X030768Y028361D01*
X030817Y028366D01*
X030868Y028367D01*
X030918Y028364D01*
X030967Y028357D01*
X031016Y028346D01*
X031064Y028331D01*
X031110Y028313D01*
X031155Y028291D01*
X031198Y028265D01*
X031239Y028236D01*
X031278Y028204D01*
X031314Y028169D01*
X031346Y028131D01*
X031376Y028091D01*
X031403Y028048D01*
X031426Y028004D01*
X031445Y027958D01*
X031461Y027910D01*
X031473Y027861D01*
X031481Y027812D01*
X031485Y027762D01*
X031485Y027712D01*
X031481Y027662D01*
X031473Y027613D01*
X031461Y027564D01*
X031445Y027516D01*
X031426Y027470D01*
X031403Y027426D01*
X031376Y027383D01*
X031346Y027343D01*
X031314Y027305D01*
X031278Y027270D01*
X031239Y027238D01*
X031198Y027209D01*
X031155Y027183D01*
X031110Y027161D01*
X031064Y027143D01*
X031016Y027128D01*
X030967Y027117D01*
X030918Y027110D01*
X030868Y027107D01*
X030817Y027108D01*
X030768Y027113D01*
X030718Y027122D01*
X030670Y027135D01*
X030623Y027151D01*
X030577Y027172D01*
X030533Y027196D01*
X030491Y027223D01*
X030451Y027253D01*
X030414Y027287D01*
X030380Y027324D01*
X030348Y027363D01*
X030320Y027404D01*
X030295Y027448D01*
X030274Y027493D01*
X030257Y027540D01*
X030243Y027588D01*
X030233Y027637D01*
X030227Y027687D01*
X030225Y027737D01*
X026681Y027737D02*
X026683Y027787D01*
X026689Y027837D01*
X026699Y027886D01*
X026713Y027934D01*
X026730Y027981D01*
X026751Y028026D01*
X026776Y028070D01*
X026804Y028111D01*
X026836Y028150D01*
X026870Y028187D01*
X026907Y028221D01*
X026947Y028251D01*
X026989Y028278D01*
X027033Y028302D01*
X027079Y028323D01*
X027126Y028339D01*
X027174Y028352D01*
X027224Y028361D01*
X027273Y028366D01*
X027324Y028367D01*
X027374Y028364D01*
X027423Y028357D01*
X027472Y028346D01*
X027520Y028331D01*
X027566Y028313D01*
X027611Y028291D01*
X027654Y028265D01*
X027695Y028236D01*
X027734Y028204D01*
X027770Y028169D01*
X027802Y028131D01*
X027832Y028091D01*
X027859Y028048D01*
X027882Y028004D01*
X027901Y027958D01*
X027917Y027910D01*
X027929Y027861D01*
X027937Y027812D01*
X027941Y027762D01*
X027941Y027712D01*
X027937Y027662D01*
X027929Y027613D01*
X027917Y027564D01*
X027901Y027516D01*
X027882Y027470D01*
X027859Y027426D01*
X027832Y027383D01*
X027802Y027343D01*
X027770Y027305D01*
X027734Y027270D01*
X027695Y027238D01*
X027654Y027209D01*
X027611Y027183D01*
X027566Y027161D01*
X027520Y027143D01*
X027472Y027128D01*
X027423Y027117D01*
X027374Y027110D01*
X027324Y027107D01*
X027273Y027108D01*
X027224Y027113D01*
X027174Y027122D01*
X027126Y027135D01*
X027079Y027151D01*
X027033Y027172D01*
X026989Y027196D01*
X026947Y027223D01*
X026907Y027253D01*
X026870Y027287D01*
X026836Y027324D01*
X026804Y027363D01*
X026776Y027404D01*
X026751Y027448D01*
X026730Y027493D01*
X026713Y027540D01*
X026699Y027588D01*
X026689Y027637D01*
X026683Y027687D01*
X026681Y027737D01*
X023225Y027737D02*
X023227Y027787D01*
X023233Y027837D01*
X023243Y027886D01*
X023257Y027934D01*
X023274Y027981D01*
X023295Y028026D01*
X023320Y028070D01*
X023348Y028111D01*
X023380Y028150D01*
X023414Y028187D01*
X023451Y028221D01*
X023491Y028251D01*
X023533Y028278D01*
X023577Y028302D01*
X023623Y028323D01*
X023670Y028339D01*
X023718Y028352D01*
X023768Y028361D01*
X023817Y028366D01*
X023868Y028367D01*
X023918Y028364D01*
X023967Y028357D01*
X024016Y028346D01*
X024064Y028331D01*
X024110Y028313D01*
X024155Y028291D01*
X024198Y028265D01*
X024239Y028236D01*
X024278Y028204D01*
X024314Y028169D01*
X024346Y028131D01*
X024376Y028091D01*
X024403Y028048D01*
X024426Y028004D01*
X024445Y027958D01*
X024461Y027910D01*
X024473Y027861D01*
X024481Y027812D01*
X024485Y027762D01*
X024485Y027712D01*
X024481Y027662D01*
X024473Y027613D01*
X024461Y027564D01*
X024445Y027516D01*
X024426Y027470D01*
X024403Y027426D01*
X024376Y027383D01*
X024346Y027343D01*
X024314Y027305D01*
X024278Y027270D01*
X024239Y027238D01*
X024198Y027209D01*
X024155Y027183D01*
X024110Y027161D01*
X024064Y027143D01*
X024016Y027128D01*
X023967Y027117D01*
X023918Y027110D01*
X023868Y027107D01*
X023817Y027108D01*
X023768Y027113D01*
X023718Y027122D01*
X023670Y027135D01*
X023623Y027151D01*
X023577Y027172D01*
X023533Y027196D01*
X023491Y027223D01*
X023451Y027253D01*
X023414Y027287D01*
X023380Y027324D01*
X023348Y027363D01*
X023320Y027404D01*
X023295Y027448D01*
X023274Y027493D01*
X023257Y027540D01*
X023243Y027588D01*
X023233Y027637D01*
X023227Y027687D01*
X023225Y027737D01*
X019681Y027737D02*
X019683Y027787D01*
X019689Y027837D01*
X019699Y027886D01*
X019713Y027934D01*
X019730Y027981D01*
X019751Y028026D01*
X019776Y028070D01*
X019804Y028111D01*
X019836Y028150D01*
X019870Y028187D01*
X019907Y028221D01*
X019947Y028251D01*
X019989Y028278D01*
X020033Y028302D01*
X020079Y028323D01*
X020126Y028339D01*
X020174Y028352D01*
X020224Y028361D01*
X020273Y028366D01*
X020324Y028367D01*
X020374Y028364D01*
X020423Y028357D01*
X020472Y028346D01*
X020520Y028331D01*
X020566Y028313D01*
X020611Y028291D01*
X020654Y028265D01*
X020695Y028236D01*
X020734Y028204D01*
X020770Y028169D01*
X020802Y028131D01*
X020832Y028091D01*
X020859Y028048D01*
X020882Y028004D01*
X020901Y027958D01*
X020917Y027910D01*
X020929Y027861D01*
X020937Y027812D01*
X020941Y027762D01*
X020941Y027712D01*
X020937Y027662D01*
X020929Y027613D01*
X020917Y027564D01*
X020901Y027516D01*
X020882Y027470D01*
X020859Y027426D01*
X020832Y027383D01*
X020802Y027343D01*
X020770Y027305D01*
X020734Y027270D01*
X020695Y027238D01*
X020654Y027209D01*
X020611Y027183D01*
X020566Y027161D01*
X020520Y027143D01*
X020472Y027128D01*
X020423Y027117D01*
X020374Y027110D01*
X020324Y027107D01*
X020273Y027108D01*
X020224Y027113D01*
X020174Y027122D01*
X020126Y027135D01*
X020079Y027151D01*
X020033Y027172D01*
X019989Y027196D01*
X019947Y027223D01*
X019907Y027253D01*
X019870Y027287D01*
X019836Y027324D01*
X019804Y027363D01*
X019776Y027404D01*
X019751Y027448D01*
X019730Y027493D01*
X019713Y027540D01*
X019699Y027588D01*
X019689Y027637D01*
X019683Y027687D01*
X019681Y027737D01*
X016225Y027737D02*
X016227Y027787D01*
X016233Y027837D01*
X016243Y027886D01*
X016257Y027934D01*
X016274Y027981D01*
X016295Y028026D01*
X016320Y028070D01*
X016348Y028111D01*
X016380Y028150D01*
X016414Y028187D01*
X016451Y028221D01*
X016491Y028251D01*
X016533Y028278D01*
X016577Y028302D01*
X016623Y028323D01*
X016670Y028339D01*
X016718Y028352D01*
X016768Y028361D01*
X016817Y028366D01*
X016868Y028367D01*
X016918Y028364D01*
X016967Y028357D01*
X017016Y028346D01*
X017064Y028331D01*
X017110Y028313D01*
X017155Y028291D01*
X017198Y028265D01*
X017239Y028236D01*
X017278Y028204D01*
X017314Y028169D01*
X017346Y028131D01*
X017376Y028091D01*
X017403Y028048D01*
X017426Y028004D01*
X017445Y027958D01*
X017461Y027910D01*
X017473Y027861D01*
X017481Y027812D01*
X017485Y027762D01*
X017485Y027712D01*
X017481Y027662D01*
X017473Y027613D01*
X017461Y027564D01*
X017445Y027516D01*
X017426Y027470D01*
X017403Y027426D01*
X017376Y027383D01*
X017346Y027343D01*
X017314Y027305D01*
X017278Y027270D01*
X017239Y027238D01*
X017198Y027209D01*
X017155Y027183D01*
X017110Y027161D01*
X017064Y027143D01*
X017016Y027128D01*
X016967Y027117D01*
X016918Y027110D01*
X016868Y027107D01*
X016817Y027108D01*
X016768Y027113D01*
X016718Y027122D01*
X016670Y027135D01*
X016623Y027151D01*
X016577Y027172D01*
X016533Y027196D01*
X016491Y027223D01*
X016451Y027253D01*
X016414Y027287D01*
X016380Y027324D01*
X016348Y027363D01*
X016320Y027404D01*
X016295Y027448D01*
X016274Y027493D01*
X016257Y027540D01*
X016243Y027588D01*
X016233Y027637D01*
X016227Y027687D01*
X016225Y027737D01*
X012681Y027737D02*
X012683Y027787D01*
X012689Y027837D01*
X012699Y027886D01*
X012713Y027934D01*
X012730Y027981D01*
X012751Y028026D01*
X012776Y028070D01*
X012804Y028111D01*
X012836Y028150D01*
X012870Y028187D01*
X012907Y028221D01*
X012947Y028251D01*
X012989Y028278D01*
X013033Y028302D01*
X013079Y028323D01*
X013126Y028339D01*
X013174Y028352D01*
X013224Y028361D01*
X013273Y028366D01*
X013324Y028367D01*
X013374Y028364D01*
X013423Y028357D01*
X013472Y028346D01*
X013520Y028331D01*
X013566Y028313D01*
X013611Y028291D01*
X013654Y028265D01*
X013695Y028236D01*
X013734Y028204D01*
X013770Y028169D01*
X013802Y028131D01*
X013832Y028091D01*
X013859Y028048D01*
X013882Y028004D01*
X013901Y027958D01*
X013917Y027910D01*
X013929Y027861D01*
X013937Y027812D01*
X013941Y027762D01*
X013941Y027712D01*
X013937Y027662D01*
X013929Y027613D01*
X013917Y027564D01*
X013901Y027516D01*
X013882Y027470D01*
X013859Y027426D01*
X013832Y027383D01*
X013802Y027343D01*
X013770Y027305D01*
X013734Y027270D01*
X013695Y027238D01*
X013654Y027209D01*
X013611Y027183D01*
X013566Y027161D01*
X013520Y027143D01*
X013472Y027128D01*
X013423Y027117D01*
X013374Y027110D01*
X013324Y027107D01*
X013273Y027108D01*
X013224Y027113D01*
X013174Y027122D01*
X013126Y027135D01*
X013079Y027151D01*
X013033Y027172D01*
X012989Y027196D01*
X012947Y027223D01*
X012907Y027253D01*
X012870Y027287D01*
X012836Y027324D01*
X012804Y027363D01*
X012776Y027404D01*
X012751Y027448D01*
X012730Y027493D01*
X012713Y027540D01*
X012699Y027588D01*
X012689Y027637D01*
X012683Y027687D01*
X012681Y027737D01*
X009225Y027737D02*
X009227Y027787D01*
X009233Y027837D01*
X009243Y027886D01*
X009257Y027934D01*
X009274Y027981D01*
X009295Y028026D01*
X009320Y028070D01*
X009348Y028111D01*
X009380Y028150D01*
X009414Y028187D01*
X009451Y028221D01*
X009491Y028251D01*
X009533Y028278D01*
X009577Y028302D01*
X009623Y028323D01*
X009670Y028339D01*
X009718Y028352D01*
X009768Y028361D01*
X009817Y028366D01*
X009868Y028367D01*
X009918Y028364D01*
X009967Y028357D01*
X010016Y028346D01*
X010064Y028331D01*
X010110Y028313D01*
X010155Y028291D01*
X010198Y028265D01*
X010239Y028236D01*
X010278Y028204D01*
X010314Y028169D01*
X010346Y028131D01*
X010376Y028091D01*
X010403Y028048D01*
X010426Y028004D01*
X010445Y027958D01*
X010461Y027910D01*
X010473Y027861D01*
X010481Y027812D01*
X010485Y027762D01*
X010485Y027712D01*
X010481Y027662D01*
X010473Y027613D01*
X010461Y027564D01*
X010445Y027516D01*
X010426Y027470D01*
X010403Y027426D01*
X010376Y027383D01*
X010346Y027343D01*
X010314Y027305D01*
X010278Y027270D01*
X010239Y027238D01*
X010198Y027209D01*
X010155Y027183D01*
X010110Y027161D01*
X010064Y027143D01*
X010016Y027128D01*
X009967Y027117D01*
X009918Y027110D01*
X009868Y027107D01*
X009817Y027108D01*
X009768Y027113D01*
X009718Y027122D01*
X009670Y027135D01*
X009623Y027151D01*
X009577Y027172D01*
X009533Y027196D01*
X009491Y027223D01*
X009451Y027253D01*
X009414Y027287D01*
X009380Y027324D01*
X009348Y027363D01*
X009320Y027404D01*
X009295Y027448D01*
X009274Y027493D01*
X009257Y027540D01*
X009243Y027588D01*
X009233Y027637D01*
X009227Y027687D01*
X009225Y027737D01*
X005681Y027737D02*
X005683Y027787D01*
X005689Y027837D01*
X005699Y027886D01*
X005713Y027934D01*
X005730Y027981D01*
X005751Y028026D01*
X005776Y028070D01*
X005804Y028111D01*
X005836Y028150D01*
X005870Y028187D01*
X005907Y028221D01*
X005947Y028251D01*
X005989Y028278D01*
X006033Y028302D01*
X006079Y028323D01*
X006126Y028339D01*
X006174Y028352D01*
X006224Y028361D01*
X006273Y028366D01*
X006324Y028367D01*
X006374Y028364D01*
X006423Y028357D01*
X006472Y028346D01*
X006520Y028331D01*
X006566Y028313D01*
X006611Y028291D01*
X006654Y028265D01*
X006695Y028236D01*
X006734Y028204D01*
X006770Y028169D01*
X006802Y028131D01*
X006832Y028091D01*
X006859Y028048D01*
X006882Y028004D01*
X006901Y027958D01*
X006917Y027910D01*
X006929Y027861D01*
X006937Y027812D01*
X006941Y027762D01*
X006941Y027712D01*
X006937Y027662D01*
X006929Y027613D01*
X006917Y027564D01*
X006901Y027516D01*
X006882Y027470D01*
X006859Y027426D01*
X006832Y027383D01*
X006802Y027343D01*
X006770Y027305D01*
X006734Y027270D01*
X006695Y027238D01*
X006654Y027209D01*
X006611Y027183D01*
X006566Y027161D01*
X006520Y027143D01*
X006472Y027128D01*
X006423Y027117D01*
X006374Y027110D01*
X006324Y027107D01*
X006273Y027108D01*
X006224Y027113D01*
X006174Y027122D01*
X006126Y027135D01*
X006079Y027151D01*
X006033Y027172D01*
X005989Y027196D01*
X005947Y027223D01*
X005907Y027253D01*
X005870Y027287D01*
X005836Y027324D01*
X005804Y027363D01*
X005776Y027404D01*
X005751Y027448D01*
X005730Y027493D01*
X005713Y027540D01*
X005699Y027588D01*
X005689Y027637D01*
X005683Y027687D01*
X005681Y027737D01*
X003300Y013355D02*
X003302Y013405D01*
X003308Y013455D01*
X003318Y013504D01*
X003332Y013552D01*
X003349Y013599D01*
X003370Y013644D01*
X003395Y013688D01*
X003423Y013729D01*
X003455Y013768D01*
X003489Y013805D01*
X003526Y013839D01*
X003566Y013869D01*
X003608Y013896D01*
X003652Y013920D01*
X003698Y013941D01*
X003745Y013957D01*
X003793Y013970D01*
X003843Y013979D01*
X003892Y013984D01*
X003943Y013985D01*
X003993Y013982D01*
X004042Y013975D01*
X004091Y013964D01*
X004139Y013949D01*
X004185Y013931D01*
X004230Y013909D01*
X004273Y013883D01*
X004314Y013854D01*
X004353Y013822D01*
X004389Y013787D01*
X004421Y013749D01*
X004451Y013709D01*
X004478Y013666D01*
X004501Y013622D01*
X004520Y013576D01*
X004536Y013528D01*
X004548Y013479D01*
X004556Y013430D01*
X004560Y013380D01*
X004560Y013330D01*
X004556Y013280D01*
X004548Y013231D01*
X004536Y013182D01*
X004520Y013134D01*
X004501Y013088D01*
X004478Y013044D01*
X004451Y013001D01*
X004421Y012961D01*
X004389Y012923D01*
X004353Y012888D01*
X004314Y012856D01*
X004273Y012827D01*
X004230Y012801D01*
X004185Y012779D01*
X004139Y012761D01*
X004091Y012746D01*
X004042Y012735D01*
X003993Y012728D01*
X003943Y012725D01*
X003892Y012726D01*
X003843Y012731D01*
X003793Y012740D01*
X003745Y012753D01*
X003698Y012769D01*
X003652Y012790D01*
X003608Y012814D01*
X003566Y012841D01*
X003526Y012871D01*
X003489Y012905D01*
X003455Y012942D01*
X003423Y012981D01*
X003395Y013022D01*
X003370Y013066D01*
X003349Y013111D01*
X003332Y013158D01*
X003318Y013206D01*
X003308Y013255D01*
X003302Y013305D01*
X003300Y013355D01*
X003300Y009811D02*
X003302Y009861D01*
X003308Y009911D01*
X003318Y009960D01*
X003332Y010008D01*
X003349Y010055D01*
X003370Y010100D01*
X003395Y010144D01*
X003423Y010185D01*
X003455Y010224D01*
X003489Y010261D01*
X003526Y010295D01*
X003566Y010325D01*
X003608Y010352D01*
X003652Y010376D01*
X003698Y010397D01*
X003745Y010413D01*
X003793Y010426D01*
X003843Y010435D01*
X003892Y010440D01*
X003943Y010441D01*
X003993Y010438D01*
X004042Y010431D01*
X004091Y010420D01*
X004139Y010405D01*
X004185Y010387D01*
X004230Y010365D01*
X004273Y010339D01*
X004314Y010310D01*
X004353Y010278D01*
X004389Y010243D01*
X004421Y010205D01*
X004451Y010165D01*
X004478Y010122D01*
X004501Y010078D01*
X004520Y010032D01*
X004536Y009984D01*
X004548Y009935D01*
X004556Y009886D01*
X004560Y009836D01*
X004560Y009786D01*
X004556Y009736D01*
X004548Y009687D01*
X004536Y009638D01*
X004520Y009590D01*
X004501Y009544D01*
X004478Y009500D01*
X004451Y009457D01*
X004421Y009417D01*
X004389Y009379D01*
X004353Y009344D01*
X004314Y009312D01*
X004273Y009283D01*
X004230Y009257D01*
X004185Y009235D01*
X004139Y009217D01*
X004091Y009202D01*
X004042Y009191D01*
X003993Y009184D01*
X003943Y009181D01*
X003892Y009182D01*
X003843Y009187D01*
X003793Y009196D01*
X003745Y009209D01*
X003698Y009225D01*
X003652Y009246D01*
X003608Y009270D01*
X003566Y009297D01*
X003526Y009327D01*
X003489Y009361D01*
X003455Y009398D01*
X003423Y009437D01*
X003395Y009478D01*
X003370Y009522D01*
X003349Y009567D01*
X003332Y009614D01*
X003318Y009662D01*
X003308Y009711D01*
X003302Y009761D01*
X003300Y009811D01*
D11*
X029771Y011708D03*
D12*
X029771Y009708D03*
D13*
X029083Y007748D03*
X029083Y005583D03*
X036083Y005583D03*
X036083Y007748D03*
X037083Y010756D03*
X034918Y010756D03*
X034918Y012410D03*
X037083Y012410D03*
X037083Y019756D03*
X037083Y021410D03*
X034918Y021410D03*
X034918Y019756D03*
X036083Y023918D03*
X036083Y026083D03*
X029083Y026083D03*
X029083Y023918D03*
X022083Y023918D03*
X022083Y026083D03*
X015083Y026083D03*
X015083Y023918D03*
X008083Y023918D03*
X008083Y026083D03*
X007748Y011583D03*
X005583Y011583D03*
X008083Y007748D03*
X008083Y005583D03*
X015083Y005583D03*
X015083Y007748D03*
X022083Y007748D03*
X022083Y005583D03*
D14*
X006333Y023709D03*
X006333Y024457D03*
D15*
X012208Y019083D03*
X012208Y011583D03*
X017208Y011583D03*
X018458Y011583D03*
X019708Y011583D03*
X025958Y011583D03*
X025958Y019083D03*
D16*
X005083Y018083D03*
X005083Y017083D03*
X005083Y016083D03*
D17*
X004271Y021521D03*
X003271Y021521D03*
X003208Y027646D03*
X004208Y027646D03*
X004208Y003771D03*
X003208Y003771D03*
D18*
X008021Y021583D03*
X009021Y021583D03*
X010021Y021583D03*
D19*
X011458Y022459D03*
X011458Y023207D03*
X018458Y023207D03*
X018458Y022459D03*
X025583Y022459D03*
X025583Y023207D03*
X032208Y023082D03*
X032208Y022334D03*
X032833Y007082D03*
X032833Y006334D03*
X025708Y006209D03*
X025708Y006957D03*
X018708Y006957D03*
X018708Y006209D03*
X011958Y006334D03*
X011958Y007082D03*
X010146Y010061D03*
X010146Y010730D03*
X008771Y010730D03*
X008771Y010061D03*
X008833Y012561D03*
X008833Y013230D03*
X010208Y013230D03*
X010208Y012561D03*
D20*
X004146Y006833D03*
X004146Y024646D03*
X031396Y020083D03*
X031396Y014521D03*
D21*
X008281Y015521D02*
X007761Y015521D01*
X007281Y016521D02*
X006761Y016521D01*
X007761Y017521D02*
X008281Y017521D01*
D22*
X028583Y020646D03*
X028583Y013646D03*
D23*
X028043Y013678D02*
X018778Y013678D01*
X018778Y013520D02*
X028043Y013520D01*
X028043Y013422D02*
X028143Y013322D01*
X028143Y012948D01*
X025920Y012948D01*
X025604Y012864D01*
X025322Y012700D01*
X025091Y012469D01*
X024966Y012344D01*
X024953Y012323D01*
X019561Y012323D01*
X019289Y012210D01*
X019081Y012002D01*
X019056Y011943D01*
X019043Y011974D01*
X018849Y012168D01*
X018778Y012197D01*
X018778Y016522D01*
X018729Y016639D01*
X016521Y018848D01*
X016521Y019079D01*
X016485Y019167D01*
X016417Y019235D01*
X016329Y019271D01*
X015837Y019271D01*
X015749Y019235D01*
X015681Y019167D01*
X015645Y019079D01*
X015645Y018587D01*
X015681Y018499D01*
X015749Y018431D01*
X015837Y018395D01*
X016069Y018395D01*
X018138Y016326D01*
X018138Y012197D01*
X018067Y012168D01*
X017873Y011974D01*
X017833Y011877D01*
X017793Y011974D01*
X017599Y012168D01*
X017345Y012273D01*
X017071Y012273D01*
X016817Y012168D01*
X016623Y011974D01*
X016518Y011720D01*
X016518Y011446D01*
X016623Y011192D01*
X016817Y010998D01*
X016848Y010985D01*
X016848Y010386D01*
X016903Y010254D01*
X017590Y009567D01*
X017692Y009465D01*
X017824Y009411D01*
X019520Y009411D01*
X019562Y009369D01*
X019650Y009332D01*
X020141Y009332D01*
X020230Y009369D01*
X020297Y009437D01*
X020334Y009525D01*
X020334Y010016D01*
X020297Y010105D01*
X020230Y010172D01*
X020141Y010209D01*
X019650Y010209D01*
X019562Y010172D01*
X019520Y010131D01*
X018045Y010131D01*
X017568Y010607D01*
X017568Y010985D01*
X017599Y010998D01*
X017793Y011192D01*
X017833Y011289D01*
X017873Y011192D01*
X018067Y010998D01*
X018321Y010893D01*
X018595Y010893D01*
X018849Y010998D01*
X019043Y011192D01*
X019056Y011224D01*
X019081Y011164D01*
X019289Y010956D01*
X019561Y010843D01*
X024953Y010843D01*
X024966Y010822D01*
X025197Y010591D01*
X025479Y010428D01*
X025795Y010343D01*
X026121Y010343D01*
X026437Y010428D01*
X026507Y010468D01*
X029934Y010468D01*
X030167Y010531D01*
X033678Y010531D01*
X033678Y008988D01*
X007920Y008988D01*
X007604Y008904D01*
X007322Y008741D01*
X007091Y008510D01*
X006928Y008227D01*
X006843Y007912D01*
X006843Y007585D01*
X006928Y007270D01*
X007091Y006987D01*
X007322Y006756D01*
X007604Y006593D01*
X007920Y006508D01*
X011483Y006508D01*
X011483Y006382D01*
X011910Y006382D01*
X011910Y006286D01*
X012006Y006286D01*
X012006Y005898D01*
X012277Y005898D01*
X012323Y005910D01*
X012364Y005934D01*
X012397Y005968D01*
X012421Y006009D01*
X012433Y006054D01*
X012433Y006286D01*
X012006Y006286D01*
X012006Y006382D01*
X012433Y006382D01*
X012433Y006508D01*
X018238Y006508D01*
X018233Y006489D01*
X018233Y006257D01*
X018660Y006257D01*
X018660Y006161D01*
X018756Y006161D01*
X018756Y005773D01*
X019027Y005773D01*
X019073Y005785D01*
X019114Y005809D01*
X019147Y005843D01*
X019171Y005884D01*
X019183Y005929D01*
X019183Y006161D01*
X018756Y006161D01*
X018756Y006257D01*
X019183Y006257D01*
X019183Y006489D01*
X019178Y006508D01*
X025238Y006508D01*
X025233Y006489D01*
X025233Y006257D01*
X025660Y006257D01*
X025660Y006161D01*
X025756Y006161D01*
X025756Y005773D01*
X026027Y005773D01*
X026073Y005785D01*
X026114Y005809D01*
X026147Y005843D01*
X026171Y005884D01*
X026183Y005929D01*
X026183Y006161D01*
X025756Y006161D01*
X025756Y006257D01*
X026183Y006257D01*
X026183Y006489D01*
X026178Y006508D01*
X032358Y006508D01*
X032358Y006382D01*
X032785Y006382D01*
X032785Y006286D01*
X032881Y006286D01*
X032881Y005898D01*
X033152Y005898D01*
X033198Y005910D01*
X033239Y005934D01*
X033272Y005968D01*
X033296Y006009D01*
X033308Y006054D01*
X033308Y006286D01*
X032881Y006286D01*
X032881Y006382D01*
X033308Y006382D01*
X033308Y006508D01*
X036246Y006508D01*
X036562Y006593D01*
X036844Y006756D01*
X037075Y006987D01*
X037239Y007270D01*
X037323Y007585D01*
X037323Y007912D01*
X037239Y008227D01*
X037075Y008510D01*
X036158Y009427D01*
X036158Y022239D01*
X036844Y022925D01*
X037075Y023156D01*
X037239Y023439D01*
X037323Y023754D01*
X037323Y024081D01*
X037239Y024396D01*
X037075Y024679D01*
X036844Y024910D01*
X036562Y025073D01*
X036246Y025158D01*
X007920Y025158D01*
X007604Y025073D01*
X007322Y024910D01*
X007091Y024679D01*
X006928Y024396D01*
X006888Y024249D01*
X006888Y024761D01*
X006851Y024849D01*
X006784Y024916D01*
X006696Y024953D01*
X006529Y024953D01*
X006529Y025708D01*
X006480Y025826D01*
X004778Y027528D01*
X004778Y027882D01*
X004444Y028216D01*
X003972Y028216D01*
X003666Y027909D01*
X003419Y028156D01*
X003208Y028156D01*
X002997Y028156D01*
X002698Y027857D01*
X002698Y027646D01*
X003208Y027646D01*
X003208Y028156D01*
X003208Y027646D01*
X003208Y027646D01*
X003208Y027646D01*
X002698Y027646D01*
X002698Y027434D01*
X002997Y027136D01*
X003208Y027136D01*
X003208Y027646D01*
X003208Y027646D01*
X003208Y027136D01*
X003419Y027136D01*
X003666Y027382D01*
X003972Y027076D01*
X004326Y027076D01*
X005889Y025512D01*
X005889Y024919D01*
X005882Y024916D01*
X005815Y024849D01*
X005778Y024761D01*
X005778Y024153D01*
X005807Y024083D01*
X005778Y024013D01*
X005778Y023405D01*
X005815Y023317D01*
X005882Y023250D01*
X005970Y023213D01*
X006696Y023213D01*
X006784Y023250D01*
X006851Y023317D01*
X006873Y023369D01*
X006968Y023369D01*
X007091Y023156D01*
X007322Y022925D01*
X007604Y022762D01*
X007920Y022678D01*
X010983Y022678D01*
X010983Y022507D01*
X011410Y022507D01*
X011410Y022411D01*
X011506Y022411D01*
X011506Y022023D01*
X011777Y022023D01*
X011823Y022035D01*
X011864Y022059D01*
X011897Y022093D01*
X011921Y022134D01*
X011933Y022179D01*
X011933Y022411D01*
X011506Y022411D01*
X011506Y022507D01*
X011933Y022507D01*
X011933Y022678D01*
X017983Y022678D01*
X017983Y022507D01*
X018410Y022507D01*
X018410Y022411D01*
X018506Y022411D01*
X018506Y022023D01*
X018777Y022023D01*
X018823Y022035D01*
X018864Y022059D01*
X018897Y022093D01*
X018921Y022134D01*
X018933Y022179D01*
X018933Y022411D01*
X018506Y022411D01*
X018506Y022507D01*
X018933Y022507D01*
X018933Y022678D01*
X025108Y022678D01*
X025108Y022507D01*
X025535Y022507D01*
X025535Y022411D01*
X025631Y022411D01*
X025631Y022023D01*
X025902Y022023D01*
X025948Y022035D01*
X025989Y022059D01*
X026022Y022093D01*
X026046Y022134D01*
X026058Y022179D01*
X026058Y022411D01*
X025631Y022411D01*
X025631Y022507D01*
X026058Y022507D01*
X026058Y022678D01*
X031722Y022678D01*
X031744Y022656D01*
X031733Y022614D01*
X031733Y022382D01*
X032160Y022382D01*
X032160Y022286D01*
X032256Y022286D01*
X032256Y021898D01*
X032527Y021898D01*
X032573Y021910D01*
X032614Y021934D01*
X032647Y021968D01*
X032671Y022009D01*
X032683Y022054D01*
X032683Y022286D01*
X032256Y022286D01*
X032256Y022382D01*
X032683Y022382D01*
X032683Y022614D01*
X032672Y022656D01*
X032694Y022678D01*
X033678Y022678D01*
X033678Y013011D01*
X029670Y013011D01*
X029437Y012948D01*
X029023Y012948D01*
X029023Y013322D01*
X029123Y013422D01*
X029123Y013869D01*
X028807Y014186D01*
X028359Y014186D01*
X028043Y013869D01*
X028043Y013422D01*
X028104Y013361D02*
X018778Y013361D01*
X018778Y013203D02*
X028143Y013203D01*
X028143Y013044D02*
X018778Y013044D01*
X018778Y012886D02*
X025687Y012886D01*
X025368Y012727D02*
X018778Y012727D01*
X018778Y012569D02*
X025190Y012569D01*
X025031Y012410D02*
X018778Y012410D01*
X018778Y012252D02*
X019388Y012252D01*
X019172Y012093D02*
X018924Y012093D01*
X018458Y011583D02*
X018458Y016458D01*
X016083Y018833D01*
X015645Y018909D02*
X012814Y018909D01*
X012823Y018936D02*
X012833Y019003D01*
X012288Y019003D01*
X012288Y018458D01*
X012356Y018469D01*
X012450Y018499D01*
X012538Y018544D01*
X012618Y018603D01*
X012689Y018673D01*
X012747Y018753D01*
X012792Y018841D01*
X012823Y018936D01*
X012745Y018750D02*
X015645Y018750D01*
X015645Y018592D02*
X012603Y018592D01*
X012288Y018592D02*
X012128Y018592D01*
X012128Y018458D02*
X012128Y019003D01*
X012288Y019003D01*
X012288Y019163D01*
X012833Y019163D01*
X012823Y019231D01*
X012792Y019325D01*
X012747Y019413D01*
X012689Y019493D01*
X012618Y019564D01*
X012538Y019622D01*
X012450Y019667D01*
X012356Y019698D01*
X012288Y019708D01*
X012288Y019163D01*
X012128Y019163D01*
X012128Y019003D01*
X011583Y019003D01*
X011594Y018936D01*
X011624Y018841D01*
X011669Y018753D01*
X011728Y018673D01*
X011798Y018603D01*
X011878Y018544D01*
X011966Y018499D01*
X012061Y018469D01*
X012128Y018458D01*
X012128Y018750D02*
X012288Y018750D01*
X012288Y018909D02*
X012128Y018909D01*
X012128Y019067D02*
X002583Y019067D01*
X002583Y018909D02*
X011602Y018909D01*
X011671Y018750D02*
X002583Y018750D01*
X002583Y018592D02*
X011813Y018592D01*
X011583Y019163D02*
X012128Y019163D01*
X012128Y019708D01*
X012061Y019698D01*
X011966Y019667D01*
X011878Y019622D01*
X011798Y019564D01*
X011728Y019493D01*
X011669Y019413D01*
X011624Y019325D01*
X011594Y019231D01*
X011583Y019163D01*
X011593Y019226D02*
X002583Y019226D01*
X002583Y019384D02*
X011654Y019384D01*
X011777Y019543D02*
X002583Y019543D01*
X002583Y019701D02*
X012083Y019701D01*
X012128Y019701D02*
X012288Y019701D01*
X012333Y019701D02*
X025833Y019701D01*
X025811Y019698D02*
X025716Y019667D01*
X025628Y019622D01*
X025548Y019564D01*
X025478Y019493D01*
X025419Y019413D01*
X025374Y019325D01*
X025344Y019231D01*
X025333Y019163D01*
X025878Y019163D01*
X025878Y019003D01*
X026038Y019003D01*
X026038Y018458D01*
X026106Y018469D01*
X026200Y018499D01*
X026288Y018544D01*
X026368Y018603D01*
X026439Y018673D01*
X026497Y018753D01*
X026542Y018841D01*
X026573Y018936D01*
X026583Y019003D01*
X026038Y019003D01*
X026038Y019163D01*
X026583Y019163D01*
X026573Y019231D01*
X026542Y019325D01*
X026497Y019413D01*
X026439Y019493D01*
X026368Y019564D01*
X026288Y019622D01*
X026200Y019667D01*
X026106Y019698D01*
X026038Y019708D01*
X026038Y019163D01*
X025878Y019163D01*
X025878Y019708D01*
X025811Y019698D01*
X025878Y019701D02*
X026038Y019701D01*
X026083Y019701D02*
X030122Y019701D01*
X030104Y019760D02*
X030142Y019634D01*
X030192Y019514D01*
X030253Y019398D01*
X030326Y019290D01*
X030409Y019189D01*
X030501Y019096D01*
X030602Y019014D01*
X030711Y018941D01*
X030826Y018879D01*
X030947Y018829D01*
X031072Y018791D01*
X031200Y018766D01*
X031316Y018755D01*
X031316Y020003D01*
X031476Y020003D01*
X031476Y020163D01*
X032724Y020163D01*
X032713Y020278D01*
X032687Y020407D01*
X032649Y020532D01*
X032599Y020652D01*
X033678Y020652D01*
X033678Y020494D02*
X032661Y020494D01*
X032701Y020335D02*
X033678Y020335D01*
X033678Y020177D02*
X032723Y020177D01*
X032724Y020003D02*
X031476Y020003D01*
X031476Y018755D01*
X031591Y018766D01*
X031719Y018791D01*
X031844Y018829D01*
X031965Y018879D01*
X032080Y018941D01*
X032189Y019014D01*
X032290Y019096D01*
X032382Y019189D01*
X032465Y019290D01*
X032538Y019398D01*
X032599Y019514D01*
X032649Y019634D01*
X032687Y019760D01*
X032713Y019888D01*
X032724Y020003D01*
X032707Y019860D02*
X033678Y019860D01*
X033678Y020018D02*
X031476Y020018D01*
X031476Y020163D02*
X031316Y020163D01*
X031316Y021412D01*
X031200Y021400D01*
X031072Y021375D01*
X030947Y021337D01*
X030826Y021287D01*
X030711Y021225D01*
X030602Y021153D01*
X030501Y021070D01*
X030409Y020977D01*
X030326Y020876D01*
X030253Y020768D01*
X030192Y020652D01*
X028603Y020652D01*
X028603Y020666D02*
X029063Y020666D01*
X029063Y020844D01*
X028782Y021126D01*
X028603Y021126D01*
X028603Y020666D01*
X028563Y020666D01*
X028563Y021126D01*
X028384Y021126D01*
X028103Y020844D01*
X028103Y020666D01*
X028563Y020666D01*
X028563Y020626D01*
X028103Y020626D01*
X028103Y020447D01*
X028384Y020166D01*
X028563Y020166D01*
X028563Y020626D01*
X028603Y020626D01*
X028603Y020666D01*
X028603Y020626D02*
X029063Y020626D01*
X029063Y020447D01*
X028782Y020166D01*
X028603Y020166D01*
X028603Y020626D01*
X028563Y020652D02*
X002583Y020652D01*
X002583Y020494D02*
X028103Y020494D01*
X028215Y020335D02*
X002583Y020335D01*
X002583Y020177D02*
X028373Y020177D01*
X028563Y020177D02*
X028603Y020177D01*
X028603Y020335D02*
X028563Y020335D01*
X028563Y020494D02*
X028603Y020494D01*
X028603Y020811D02*
X028563Y020811D01*
X028563Y020969D02*
X028603Y020969D01*
X028938Y020969D02*
X030402Y020969D01*
X030282Y020811D02*
X029063Y020811D01*
X029063Y020494D02*
X030130Y020494D01*
X030142Y020532D02*
X030104Y020407D01*
X030078Y020278D01*
X030067Y020163D01*
X031316Y020163D01*
X031316Y020003D01*
X030067Y020003D01*
X030078Y019888D01*
X030104Y019760D01*
X030084Y019860D02*
X002583Y019860D01*
X002583Y020018D02*
X031316Y020018D01*
X031316Y019860D02*
X031476Y019860D01*
X031476Y019701D02*
X031316Y019701D01*
X031316Y019543D02*
X031476Y019543D01*
X031476Y019384D02*
X031316Y019384D01*
X031316Y019226D02*
X031476Y019226D01*
X031476Y019067D02*
X031316Y019067D01*
X031316Y018909D02*
X031476Y018909D01*
X030771Y018909D02*
X026564Y018909D01*
X026495Y018750D02*
X033678Y018750D01*
X033678Y018592D02*
X026353Y018592D01*
X026038Y018592D02*
X025878Y018592D01*
X025878Y018458D02*
X025878Y019003D01*
X025333Y019003D01*
X025344Y018936D01*
X025374Y018841D01*
X025419Y018753D01*
X025478Y018673D01*
X025548Y018603D01*
X025628Y018544D01*
X025716Y018499D01*
X025811Y018469D01*
X025878Y018458D01*
X025878Y018750D02*
X026038Y018750D01*
X026038Y018909D02*
X025878Y018909D01*
X025878Y019067D02*
X016521Y019067D01*
X016521Y018909D02*
X025352Y018909D01*
X025421Y018750D02*
X016619Y018750D01*
X016777Y018592D02*
X025563Y018592D01*
X025343Y019226D02*
X016426Y019226D01*
X015740Y019226D02*
X012823Y019226D01*
X012762Y019384D02*
X025404Y019384D01*
X025527Y019543D02*
X012639Y019543D01*
X012288Y019543D02*
X012128Y019543D01*
X012128Y019384D02*
X012288Y019384D01*
X012288Y019226D02*
X012128Y019226D01*
X012288Y019067D02*
X015645Y019067D01*
X015747Y018433D02*
X005409Y018433D01*
X005354Y018488D02*
X005178Y018561D01*
X004988Y018561D01*
X004812Y018488D01*
X004678Y018354D01*
X004605Y018178D01*
X004605Y017988D01*
X004678Y017812D01*
X004812Y017678D01*
X004988Y017605D01*
X005178Y017605D01*
X005354Y017678D01*
X005488Y017812D01*
X005561Y017988D01*
X005561Y018178D01*
X005488Y018354D01*
X005354Y018488D01*
X005521Y018275D02*
X016189Y018275D01*
X016347Y018116D02*
X005561Y018116D01*
X005548Y017958D02*
X007509Y017958D01*
X007477Y017944D02*
X007337Y017804D01*
X007261Y017620D01*
X007261Y017421D01*
X007337Y017237D01*
X007477Y017097D01*
X007661Y017021D01*
X008380Y017021D01*
X008564Y017097D01*
X008704Y017237D01*
X008781Y017421D01*
X008781Y017620D01*
X008704Y017804D01*
X008564Y017944D01*
X008380Y018021D01*
X007661Y018021D01*
X007477Y017944D01*
X007335Y017799D02*
X005475Y017799D01*
X005263Y017641D02*
X007269Y017641D01*
X007261Y017482D02*
X005360Y017482D01*
X005354Y017488D02*
X005178Y017561D01*
X004988Y017561D01*
X004812Y017488D01*
X004678Y017354D01*
X004605Y017178D01*
X004605Y016988D01*
X004678Y016812D01*
X004812Y016678D01*
X004988Y016605D01*
X005178Y016605D01*
X005354Y016678D01*
X005488Y016812D01*
X005561Y016988D01*
X005561Y017178D01*
X005488Y017354D01*
X005354Y017488D01*
X005501Y017324D02*
X007301Y017324D01*
X007409Y017165D02*
X005561Y017165D01*
X005561Y017007D02*
X017457Y017007D01*
X017298Y017165D02*
X008632Y017165D01*
X008740Y017324D02*
X017140Y017324D01*
X016981Y017482D02*
X008781Y017482D01*
X008772Y017641D02*
X016823Y017641D01*
X016664Y017799D02*
X008706Y017799D01*
X008532Y017958D02*
X016506Y017958D01*
X016936Y018433D02*
X033678Y018433D01*
X033678Y018275D02*
X017094Y018275D01*
X017253Y018116D02*
X033678Y018116D01*
X033678Y017958D02*
X017411Y017958D01*
X017570Y017799D02*
X033678Y017799D01*
X033678Y017641D02*
X017728Y017641D01*
X017887Y017482D02*
X033678Y017482D01*
X033678Y017324D02*
X018045Y017324D01*
X018204Y017165D02*
X033678Y017165D01*
X033678Y017007D02*
X018362Y017007D01*
X018521Y016848D02*
X033678Y016848D01*
X033678Y016690D02*
X018679Y016690D01*
X018774Y016531D02*
X033678Y016531D01*
X033678Y016373D02*
X018778Y016373D01*
X018778Y016214D02*
X033678Y016214D01*
X033678Y016056D02*
X018778Y016056D01*
X018778Y015897D02*
X033678Y015897D01*
X033678Y015739D02*
X031930Y015739D01*
X031965Y015724D02*
X031844Y015774D01*
X031719Y015812D01*
X031591Y015838D01*
X031476Y015849D01*
X031476Y014601D01*
X032724Y014601D01*
X032713Y014716D01*
X032687Y014844D01*
X032649Y014969D01*
X032599Y015090D01*
X032538Y015205D01*
X032465Y015314D01*
X032382Y015415D01*
X032290Y015507D01*
X032189Y015590D01*
X032080Y015663D01*
X031965Y015724D01*
X032201Y015580D02*
X033678Y015580D01*
X033678Y015422D02*
X032375Y015422D01*
X032499Y015263D02*
X033678Y015263D01*
X033678Y015105D02*
X032591Y015105D01*
X032656Y014946D02*
X033678Y014946D01*
X033678Y014788D02*
X032699Y014788D01*
X032721Y014629D02*
X033678Y014629D01*
X033678Y014471D02*
X031476Y014471D01*
X031476Y014441D02*
X031476Y014601D01*
X031316Y014601D01*
X031316Y015849D01*
X031200Y015838D01*
X031072Y015812D01*
X030947Y015774D01*
X030826Y015724D01*
X030711Y015663D01*
X030602Y015590D01*
X030501Y015507D01*
X030409Y015415D01*
X030326Y015314D01*
X030253Y015205D01*
X030192Y015090D01*
X030142Y014969D01*
X030104Y014844D01*
X030078Y014716D01*
X030067Y014601D01*
X031316Y014601D01*
X031316Y014441D01*
X031476Y014441D01*
X032724Y014441D01*
X032713Y014325D01*
X032687Y014197D01*
X032649Y014072D01*
X032599Y013951D01*
X032538Y013836D01*
X032465Y013727D01*
X032382Y013626D01*
X032290Y013534D01*
X032189Y013451D01*
X032080Y013378D01*
X031965Y013317D01*
X031844Y013267D01*
X031719Y013229D01*
X031591Y013203D01*
X031476Y013192D01*
X031476Y014441D01*
X031476Y014312D02*
X031316Y014312D01*
X031316Y014441D02*
X031316Y013192D01*
X031200Y013203D01*
X031072Y013229D01*
X030947Y013267D01*
X030826Y013317D01*
X030711Y013378D01*
X030602Y013451D01*
X030501Y013534D01*
X030409Y013626D01*
X030326Y013727D01*
X030253Y013836D01*
X030192Y013951D01*
X030142Y014072D01*
X030104Y014197D01*
X030078Y014325D01*
X030067Y014441D01*
X031316Y014441D01*
X031316Y014471D02*
X018778Y014471D01*
X018778Y014629D02*
X030070Y014629D01*
X030093Y014788D02*
X018778Y014788D01*
X018778Y014946D02*
X030135Y014946D01*
X030200Y015105D02*
X018778Y015105D01*
X018778Y015263D02*
X030292Y015263D01*
X030416Y015422D02*
X018778Y015422D01*
X018778Y015580D02*
X030590Y015580D01*
X030861Y015739D02*
X018778Y015739D01*
X018138Y015739D02*
X008731Y015739D01*
X008704Y015804D02*
X008564Y015944D01*
X008380Y016021D01*
X007661Y016021D01*
X007477Y015944D01*
X007337Y015804D01*
X007261Y015620D01*
X007261Y015421D01*
X007337Y015237D01*
X007477Y015097D01*
X007661Y015021D01*
X008380Y015021D01*
X008564Y015097D01*
X008704Y015237D01*
X008781Y015421D01*
X008781Y015620D01*
X008704Y015804D01*
X008611Y015897D02*
X018138Y015897D01*
X018138Y016056D02*
X005501Y016056D01*
X005501Y016050D02*
X005501Y016083D01*
X005083Y016083D01*
X004665Y016083D01*
X004665Y016050D01*
X004676Y015985D01*
X004696Y015923D01*
X004726Y015864D01*
X004764Y015811D01*
X004811Y015764D01*
X004864Y015726D01*
X004923Y015696D01*
X004985Y015676D01*
X005050Y015665D01*
X005083Y015665D01*
X005083Y016083D01*
X005083Y016083D01*
X005083Y016083D01*
X004665Y016083D01*
X004665Y016116D01*
X004676Y016181D01*
X004696Y016243D01*
X004726Y016302D01*
X004764Y016355D01*
X004811Y016402D01*
X004864Y016440D01*
X004923Y016470D01*
X004985Y016491D01*
X005050Y016501D01*
X005083Y016501D01*
X005083Y016083D01*
X005083Y015665D01*
X005116Y015665D01*
X005181Y015676D01*
X005243Y015696D01*
X005302Y015726D01*
X005355Y015764D01*
X005402Y015811D01*
X005440Y015864D01*
X005470Y015923D01*
X005491Y015985D01*
X005501Y016050D01*
X005501Y016083D02*
X005501Y016116D01*
X005491Y016181D01*
X005470Y016243D01*
X005440Y016302D01*
X005402Y016355D01*
X005355Y016402D01*
X005302Y016440D01*
X005243Y016470D01*
X005181Y016491D01*
X005116Y016501D01*
X005083Y016501D01*
X005083Y016083D01*
X005083Y016083D01*
X005083Y016083D01*
X005501Y016083D01*
X005480Y016214D02*
X006445Y016214D01*
X006425Y016234D02*
X006474Y016185D01*
X006530Y016144D01*
X006592Y016113D01*
X006658Y016091D01*
X006726Y016081D01*
X007021Y016081D01*
X007315Y016081D01*
X007384Y016091D01*
X007449Y016113D01*
X007511Y016144D01*
X007567Y016185D01*
X007616Y016234D01*
X007657Y016290D01*
X007688Y016352D01*
X007710Y016418D01*
X007721Y016486D01*
X007721Y016521D01*
X007721Y016555D01*
X007710Y016624D01*
X007688Y016689D01*
X007657Y016751D01*
X007616Y016807D01*
X007567Y016856D01*
X007511Y016897D01*
X007449Y016928D01*
X007384Y016950D01*
X007315Y016961D01*
X007021Y016961D01*
X007021Y016521D01*
X007021Y016521D01*
X007721Y016521D01*
X007021Y016521D01*
X007021Y016521D01*
X007021Y016961D01*
X006726Y016961D01*
X006658Y016950D01*
X006592Y016928D01*
X006530Y016897D01*
X006474Y016856D01*
X006425Y016807D01*
X006384Y016751D01*
X006353Y016689D01*
X006331Y016624D01*
X006321Y016555D01*
X006321Y016521D01*
X007021Y016521D01*
X007021Y016081D01*
X007021Y016521D01*
X007021Y016521D01*
X007021Y016521D01*
X006321Y016521D01*
X006321Y016486D01*
X006331Y016418D01*
X006353Y016352D01*
X006384Y016290D01*
X006425Y016234D01*
X006346Y016373D02*
X005384Y016373D01*
X005083Y016373D02*
X005083Y016373D01*
X005083Y016214D02*
X005083Y016214D01*
X005083Y016056D02*
X005083Y016056D01*
X005083Y015897D02*
X005083Y015897D01*
X005083Y015739D02*
X005083Y015739D01*
X004846Y015739D02*
X002583Y015739D01*
X002583Y015897D02*
X004709Y015897D01*
X004665Y016056D02*
X002583Y016056D01*
X002583Y016214D02*
X004686Y016214D01*
X004782Y016373D02*
X002583Y016373D01*
X002583Y016531D02*
X006321Y016531D01*
X006353Y016690D02*
X005365Y016690D01*
X005503Y016848D02*
X006466Y016848D01*
X007021Y016848D02*
X007021Y016848D01*
X007021Y016690D02*
X007021Y016690D01*
X007021Y016531D02*
X007021Y016531D01*
X007021Y016373D02*
X007021Y016373D01*
X007021Y016214D02*
X007021Y016214D01*
X007430Y015897D02*
X005457Y015897D01*
X005320Y015739D02*
X007310Y015739D01*
X007261Y015580D02*
X002583Y015580D01*
X002583Y015422D02*
X007261Y015422D01*
X007326Y015263D02*
X002583Y015263D01*
X002583Y015105D02*
X007469Y015105D01*
X008572Y015105D02*
X009687Y015105D01*
X009681Y015088D02*
X009681Y014953D01*
X009732Y014828D01*
X011332Y013228D01*
X011332Y013025D01*
X011369Y012937D01*
X011437Y012869D01*
X011525Y012832D01*
X011933Y012832D01*
X011898Y012823D01*
X010743Y012823D01*
X010743Y012865D01*
X010707Y012953D01*
X010683Y012976D01*
X010683Y013182D01*
X010256Y013182D01*
X010256Y013278D01*
X010683Y013278D01*
X010683Y013510D01*
X010671Y013556D01*
X010647Y013597D01*
X010614Y013630D01*
X010573Y013654D01*
X010527Y013666D01*
X010256Y013666D01*
X010256Y013278D01*
X010160Y013278D01*
X010160Y013182D01*
X009733Y013182D01*
X009733Y012976D01*
X009709Y012953D01*
X009673Y012865D01*
X009673Y012823D01*
X009368Y012823D01*
X009368Y012865D01*
X009332Y012953D01*
X009308Y012976D01*
X009308Y013182D01*
X008881Y013182D01*
X008881Y013278D01*
X009308Y013278D01*
X009308Y013510D01*
X009296Y013556D01*
X009272Y013597D01*
X009239Y013630D01*
X009198Y013654D01*
X009152Y013666D01*
X008881Y013666D01*
X008881Y013278D01*
X008785Y013278D01*
X008785Y013182D01*
X008358Y013182D01*
X008358Y012976D01*
X008334Y012953D01*
X008298Y012865D01*
X008298Y012823D01*
X007585Y012823D01*
X007270Y012739D01*
X006987Y012575D01*
X006756Y012344D01*
X006593Y012062D01*
X006508Y011746D01*
X006508Y011420D01*
X006593Y011104D01*
X006756Y010822D01*
X006987Y010591D01*
X007270Y010428D01*
X007585Y010343D01*
X008270Y010343D01*
X008272Y010338D01*
X008295Y010315D01*
X008295Y010109D01*
X008723Y010109D01*
X008723Y010013D01*
X008819Y010013D01*
X008819Y010109D01*
X009246Y010109D01*
X009246Y010315D01*
X009269Y010338D01*
X009271Y010343D01*
X009645Y010343D01*
X009647Y010338D01*
X009670Y010315D01*
X009670Y010109D01*
X010098Y010109D01*
X010098Y010013D01*
X010194Y010013D01*
X010194Y010109D01*
X010621Y010109D01*
X010621Y010315D01*
X010644Y010338D01*
X010646Y010343D01*
X011681Y010343D01*
X011681Y009854D01*
X011619Y009792D01*
X011582Y009704D01*
X011582Y009212D01*
X011619Y009124D01*
X011687Y009056D01*
X011775Y009020D01*
X012266Y009020D01*
X012355Y009056D01*
X012422Y009124D01*
X012459Y009212D01*
X012459Y009704D01*
X012422Y009792D01*
X012361Y009854D01*
X012361Y010343D01*
X012371Y010343D01*
X012687Y010428D01*
X012969Y010591D01*
X013200Y010822D01*
X013364Y011104D01*
X013448Y011420D01*
X013448Y011786D01*
X013364Y012101D01*
X013292Y012225D01*
X013309Y012242D01*
X013361Y012367D01*
X013361Y012875D01*
X013422Y012937D01*
X013459Y013025D01*
X013459Y013516D01*
X013422Y013605D01*
X013355Y013672D01*
X013266Y013709D01*
X012775Y013709D01*
X012687Y013672D01*
X012619Y013605D01*
X012582Y013516D01*
X012582Y013025D01*
X012619Y012937D01*
X012681Y012875D01*
X012681Y012780D01*
X012371Y012862D01*
X012089Y012862D01*
X012105Y012869D01*
X012172Y012937D01*
X012209Y013025D01*
X012209Y013516D01*
X012172Y013605D01*
X012105Y013672D01*
X012016Y013709D01*
X011813Y013709D01*
X010213Y015309D01*
X010088Y015361D01*
X009953Y015361D01*
X009828Y015309D01*
X009732Y015213D01*
X009681Y015088D01*
X009683Y014946D02*
X002583Y014946D01*
X002583Y014788D02*
X009773Y014788D01*
X009931Y014629D02*
X002583Y014629D01*
X002583Y014471D02*
X010090Y014471D01*
X010248Y014312D02*
X002583Y014312D01*
X002583Y014154D02*
X003585Y014154D01*
X003437Y014092D02*
X003192Y013847D01*
X003060Y013528D01*
X003060Y013182D01*
X003192Y012862D01*
X003437Y012617D01*
X003756Y012485D01*
X004103Y012485D01*
X004422Y012617D01*
X004667Y012862D01*
X004799Y013182D01*
X004799Y013528D01*
X004667Y013847D01*
X004422Y014092D01*
X004103Y014225D01*
X003756Y014225D01*
X003437Y014092D01*
X003340Y013995D02*
X002583Y013995D01*
X002583Y013837D02*
X003188Y013837D01*
X003122Y013678D02*
X002583Y013678D01*
X002583Y013520D02*
X003060Y013520D01*
X003060Y013361D02*
X002583Y013361D01*
X002583Y013203D02*
X003060Y013203D01*
X003117Y013044D02*
X002583Y013044D01*
X002583Y012886D02*
X003182Y012886D01*
X003327Y012727D02*
X002583Y012727D01*
X002583Y012569D02*
X003554Y012569D01*
X004305Y012569D02*
X006980Y012569D01*
X006822Y012410D02*
X002583Y012410D01*
X002583Y012252D02*
X006703Y012252D01*
X006611Y012093D02*
X006149Y012093D01*
X006140Y012107D02*
X006107Y012140D01*
X006066Y012164D01*
X006020Y012176D01*
X005641Y012176D01*
X005641Y011641D01*
X005525Y011641D01*
X005525Y011525D01*
X005641Y011525D01*
X005641Y010990D01*
X006020Y010990D01*
X006066Y011002D01*
X006107Y011026D01*
X006140Y011059D01*
X006164Y011100D01*
X006176Y011146D01*
X006176Y011525D01*
X005641Y011525D01*
X005641Y011641D01*
X006176Y011641D01*
X006176Y012020D01*
X006164Y012066D01*
X006140Y012107D01*
X006176Y011935D02*
X006559Y011935D01*
X006516Y011776D02*
X006176Y011776D01*
X006176Y011459D02*
X006508Y011459D01*
X006508Y011618D02*
X005641Y011618D01*
X005525Y011618D02*
X002583Y011618D01*
X002583Y011776D02*
X004990Y011776D01*
X004990Y011641D02*
X004990Y012020D01*
X005002Y012066D01*
X005026Y012107D01*
X005059Y012140D01*
X005100Y012164D01*
X005146Y012176D01*
X005525Y012176D01*
X005525Y011641D01*
X004990Y011641D01*
X004990Y011525D02*
X004990Y011146D01*
X005002Y011100D01*
X005026Y011059D01*
X005059Y011026D01*
X005100Y011002D01*
X005146Y010990D01*
X005525Y010990D01*
X005525Y011525D01*
X004990Y011525D01*
X004990Y011459D02*
X002583Y011459D01*
X002583Y011301D02*
X004990Y011301D01*
X004991Y011142D02*
X002583Y011142D01*
X002583Y010984D02*
X006663Y010984D01*
X006583Y011142D02*
X006175Y011142D01*
X006176Y011301D02*
X006540Y011301D01*
X006754Y010825D02*
X002583Y010825D01*
X002583Y010667D02*
X003721Y010667D01*
X003756Y010681D02*
X003437Y010549D01*
X003192Y010304D01*
X003060Y009984D01*
X003060Y009638D01*
X003192Y009319D01*
X003437Y009074D01*
X003756Y008941D01*
X004103Y008941D01*
X004422Y009074D01*
X004667Y009319D01*
X004799Y009638D01*
X004799Y009984D01*
X004667Y010304D01*
X004422Y010549D01*
X004103Y010681D01*
X003756Y010681D01*
X004138Y010667D02*
X006911Y010667D01*
X007130Y010508D02*
X004463Y010508D01*
X004622Y010350D02*
X007561Y010350D01*
X008295Y010191D02*
X004714Y010191D01*
X004780Y010033D02*
X008723Y010033D01*
X008723Y010013D02*
X008295Y010013D01*
X008295Y009781D01*
X008308Y009736D01*
X008331Y009694D01*
X008365Y009661D01*
X008406Y009637D01*
X008452Y009625D01*
X008723Y009625D01*
X008723Y010013D01*
X008819Y010013D02*
X008819Y009625D01*
X009090Y009625D01*
X009135Y009637D01*
X009176Y009661D01*
X009210Y009694D01*
X009234Y009736D01*
X009246Y009781D01*
X009246Y010013D01*
X008819Y010013D01*
X008819Y010033D02*
X010098Y010033D01*
X010098Y010013D02*
X009670Y010013D01*
X009670Y009781D01*
X009683Y009736D01*
X009706Y009694D01*
X009740Y009661D01*
X009781Y009637D01*
X009827Y009625D01*
X010098Y009625D01*
X010098Y010013D01*
X010194Y010013D02*
X010194Y009625D01*
X010465Y009625D01*
X010510Y009637D01*
X010551Y009661D01*
X010585Y009694D01*
X010609Y009736D01*
X010621Y009781D01*
X010621Y010013D01*
X010194Y010013D01*
X010194Y010033D02*
X011681Y010033D01*
X011681Y010191D02*
X010621Y010191D01*
X010621Y009874D02*
X011681Y009874D01*
X011587Y009716D02*
X010597Y009716D01*
X010194Y009716D02*
X010098Y009716D01*
X010098Y009874D02*
X010194Y009874D01*
X009670Y009874D02*
X009246Y009874D01*
X009222Y009716D02*
X009694Y009716D01*
X009670Y010191D02*
X009246Y010191D01*
X008819Y009874D02*
X008723Y009874D01*
X008723Y009716D02*
X008819Y009716D01*
X008319Y009716D02*
X004799Y009716D01*
X004799Y009874D02*
X008295Y009874D01*
X007676Y008923D02*
X002583Y008923D01*
X002583Y008765D02*
X007363Y008765D01*
X007187Y008606D02*
X002583Y008606D01*
X002583Y008448D02*
X007055Y008448D01*
X006963Y008289D02*
X002583Y008289D01*
X002583Y008131D02*
X003851Y008131D01*
X003822Y008125D02*
X003950Y008150D01*
X004066Y008162D01*
X004066Y006913D01*
X004226Y006913D01*
X005474Y006913D01*
X005463Y007028D01*
X005437Y007157D01*
X005399Y007282D01*
X005349Y007402D01*
X005288Y007518D01*
X005215Y007626D01*
X005132Y007727D01*
X005040Y007820D01*
X004939Y007903D01*
X004830Y007975D01*
X004715Y008037D01*
X004594Y008087D01*
X004469Y008125D01*
X004341Y008150D01*
X004226Y008162D01*
X004226Y006913D01*
X004226Y006753D01*
X005474Y006753D01*
X005463Y006638D01*
X005437Y006510D01*
X005399Y006384D01*
X005349Y006264D01*
X005288Y006148D01*
X005215Y006040D01*
X005132Y005939D01*
X005040Y005846D01*
X004939Y005764D01*
X004830Y005691D01*
X004715Y005629D01*
X004594Y005579D01*
X004469Y005541D01*
X004341Y005516D01*
X004226Y005505D01*
X004226Y006753D01*
X004066Y006753D01*
X004066Y005505D01*
X003950Y005516D01*
X003822Y005541D01*
X003697Y005579D01*
X003576Y005629D01*
X003461Y005691D01*
X003352Y005764D01*
X003251Y005846D01*
X003159Y005939D01*
X003076Y006040D01*
X003003Y006148D01*
X002942Y006264D01*
X002892Y006384D01*
X002854Y006510D01*
X002828Y006638D01*
X002817Y006753D01*
X004066Y006753D01*
X004066Y006913D01*
X002817Y006913D01*
X002828Y007028D01*
X002854Y007157D01*
X002892Y007282D01*
X002942Y007402D01*
X003003Y007518D01*
X003076Y007626D01*
X003159Y007727D01*
X003251Y007820D01*
X003352Y007903D01*
X003461Y007975D01*
X003576Y008037D01*
X003697Y008087D01*
X003822Y008125D01*
X004066Y008131D02*
X004226Y008131D01*
X004226Y007972D02*
X004066Y007972D01*
X004066Y007814D02*
X004226Y007814D01*
X004226Y007655D02*
X004066Y007655D01*
X004066Y007497D02*
X004226Y007497D01*
X004226Y007338D02*
X004066Y007338D01*
X004066Y007180D02*
X004226Y007180D01*
X004226Y007021D02*
X004066Y007021D01*
X004066Y006863D02*
X002583Y006863D01*
X002583Y007021D02*
X002828Y007021D01*
X002861Y007180D02*
X002583Y007180D01*
X002583Y007338D02*
X002915Y007338D01*
X002992Y007497D02*
X002583Y007497D01*
X002583Y007655D02*
X003100Y007655D01*
X003245Y007814D02*
X002583Y007814D01*
X002583Y007972D02*
X003456Y007972D01*
X004440Y008131D02*
X006902Y008131D01*
X006859Y007972D02*
X004835Y007972D01*
X005046Y007814D02*
X006843Y007814D01*
X006843Y007655D02*
X005192Y007655D01*
X005299Y007497D02*
X006867Y007497D01*
X006909Y007338D02*
X005376Y007338D01*
X005430Y007180D02*
X006980Y007180D01*
X007071Y007021D02*
X005463Y007021D01*
X005469Y006704D02*
X007412Y006704D01*
X007215Y006863D02*
X004226Y006863D01*
X004226Y006704D02*
X004066Y006704D01*
X004066Y006546D02*
X004226Y006546D01*
X004226Y006387D02*
X004066Y006387D01*
X004066Y006229D02*
X004226Y006229D01*
X004226Y006070D02*
X004066Y006070D01*
X004066Y005912D02*
X004226Y005912D01*
X004226Y005753D02*
X004066Y005753D01*
X004066Y005595D02*
X004226Y005595D01*
X004631Y005595D02*
X008025Y005595D01*
X008025Y005641D02*
X008025Y005525D01*
X008141Y005525D01*
X008141Y004990D01*
X008520Y004990D01*
X008566Y005002D01*
X008607Y005026D01*
X008640Y005059D01*
X008664Y005100D01*
X008676Y005146D01*
X008676Y005525D01*
X008141Y005525D01*
X008141Y005641D01*
X008676Y005641D01*
X008676Y006020D01*
X008664Y006066D01*
X008640Y006107D01*
X008607Y006140D01*
X008566Y006164D01*
X008520Y006176D01*
X008141Y006176D01*
X008141Y005641D01*
X008025Y005641D01*
X007490Y005641D01*
X007490Y006020D01*
X007502Y006066D01*
X007526Y006107D01*
X007559Y006140D01*
X007600Y006164D01*
X007646Y006176D01*
X008025Y006176D01*
X008025Y005641D01*
X008025Y005753D02*
X008141Y005753D01*
X008141Y005595D02*
X015025Y005595D01*
X015025Y005641D02*
X015025Y005525D01*
X015141Y005525D01*
X015141Y004990D01*
X015520Y004990D01*
X015566Y005002D01*
X015607Y005026D01*
X015640Y005059D01*
X015664Y005100D01*
X015676Y005146D01*
X015676Y005525D01*
X015141Y005525D01*
X015141Y005641D01*
X015676Y005641D01*
X015676Y006020D01*
X015664Y006066D01*
X015640Y006107D01*
X015607Y006140D01*
X015566Y006164D01*
X015520Y006176D01*
X015141Y006176D01*
X015141Y005641D01*
X015025Y005641D01*
X014490Y005641D01*
X014490Y006020D01*
X014502Y006066D01*
X014526Y006107D01*
X014559Y006140D01*
X014600Y006164D01*
X014646Y006176D01*
X015025Y006176D01*
X015025Y005641D01*
X015025Y005753D02*
X015141Y005753D01*
X015141Y005595D02*
X022025Y005595D01*
X022025Y005641D02*
X022025Y005525D01*
X022141Y005525D01*
X022141Y004990D01*
X022520Y004990D01*
X022566Y005002D01*
X022607Y005026D01*
X022640Y005059D01*
X022664Y005100D01*
X022676Y005146D01*
X022676Y005525D01*
X022141Y005525D01*
X022141Y005641D01*
X022676Y005641D01*
X022676Y006020D01*
X022664Y006066D01*
X022640Y006107D01*
X022607Y006140D01*
X022566Y006164D01*
X022520Y006176D01*
X022141Y006176D01*
X022141Y005641D01*
X022025Y005641D01*
X021490Y005641D01*
X021490Y006020D01*
X021502Y006066D01*
X021526Y006107D01*
X021559Y006140D01*
X021600Y006164D01*
X021646Y006176D01*
X022025Y006176D01*
X022025Y005641D01*
X022025Y005753D02*
X022141Y005753D01*
X022141Y005595D02*
X029025Y005595D01*
X029025Y005641D02*
X029025Y005525D01*
X029141Y005525D01*
X029141Y004990D01*
X029520Y004990D01*
X029566Y005002D01*
X029607Y005026D01*
X029640Y005059D01*
X029664Y005100D01*
X029676Y005146D01*
X029676Y005525D01*
X029141Y005525D01*
X029141Y005641D01*
X029676Y005641D01*
X029676Y006020D01*
X029664Y006066D01*
X029640Y006107D01*
X029607Y006140D01*
X029566Y006164D01*
X029520Y006176D01*
X029141Y006176D01*
X029141Y005641D01*
X029025Y005641D01*
X028490Y005641D01*
X028490Y006020D01*
X028502Y006066D01*
X028526Y006107D01*
X028559Y006140D01*
X028600Y006164D01*
X028646Y006176D01*
X029025Y006176D01*
X029025Y005641D01*
X029025Y005753D02*
X029141Y005753D01*
X029141Y005595D02*
X036025Y005595D01*
X036025Y005641D02*
X036025Y005525D01*
X036141Y005525D01*
X036141Y004990D01*
X036520Y004990D01*
X036566Y005002D01*
X036607Y005026D01*
X036640Y005059D01*
X036664Y005100D01*
X036676Y005146D01*
X036676Y005525D01*
X036141Y005525D01*
X036141Y005641D01*
X036676Y005641D01*
X036676Y006020D01*
X036664Y006066D01*
X036640Y006107D01*
X036607Y006140D01*
X036566Y006164D01*
X036520Y006176D01*
X036141Y006176D01*
X036141Y005641D01*
X036025Y005641D01*
X035490Y005641D01*
X035490Y006020D01*
X035502Y006066D01*
X035526Y006107D01*
X035559Y006140D01*
X035600Y006164D01*
X035646Y006176D01*
X036025Y006176D01*
X036025Y005641D01*
X036025Y005753D02*
X036141Y005753D01*
X036141Y005595D02*
X040096Y005595D01*
X040096Y005753D02*
X036676Y005753D01*
X036676Y005912D02*
X040097Y005912D01*
X040097Y006070D02*
X036662Y006070D01*
X036141Y006070D02*
X036025Y006070D01*
X036025Y005912D02*
X036141Y005912D01*
X036025Y005525D02*
X035490Y005525D01*
X035490Y005146D01*
X035502Y005100D01*
X035526Y005059D01*
X035559Y005026D01*
X035600Y005002D01*
X035646Y004990D01*
X036025Y004990D01*
X036025Y005525D01*
X036025Y005436D02*
X036141Y005436D01*
X036141Y005278D02*
X036025Y005278D01*
X036025Y005119D02*
X036141Y005119D01*
X036669Y005119D02*
X040095Y005119D01*
X040094Y004961D02*
X002583Y004961D01*
X002583Y005119D02*
X007497Y005119D01*
X007502Y005100D02*
X007526Y005059D01*
X007559Y005026D01*
X007600Y005002D01*
X007646Y004990D01*
X008025Y004990D01*
X008025Y005525D01*
X007490Y005525D01*
X007490Y005146D01*
X007502Y005100D01*
X007490Y005278D02*
X002583Y005278D01*
X002583Y005436D02*
X007490Y005436D01*
X007490Y005753D02*
X004923Y005753D01*
X005105Y005912D02*
X007490Y005912D01*
X007504Y006070D02*
X005235Y006070D01*
X005331Y006229D02*
X011483Y006229D01*
X011483Y006286D02*
X011483Y006054D01*
X011495Y006009D01*
X011519Y005968D01*
X011552Y005934D01*
X011593Y005910D01*
X011639Y005898D01*
X011910Y005898D01*
X011910Y006286D01*
X011483Y006286D01*
X011483Y006387D02*
X005400Y006387D01*
X005444Y006546D02*
X007781Y006546D01*
X008025Y006070D02*
X008141Y006070D01*
X008141Y005912D02*
X008025Y005912D01*
X008025Y005436D02*
X008141Y005436D01*
X008141Y005278D02*
X008025Y005278D01*
X008025Y005119D02*
X008141Y005119D01*
X008669Y005119D02*
X014497Y005119D01*
X014502Y005100D02*
X014526Y005059D01*
X014559Y005026D01*
X014600Y005002D01*
X014646Y004990D01*
X015025Y004990D01*
X015025Y005525D01*
X014490Y005525D01*
X014490Y005146D01*
X014502Y005100D01*
X014490Y005278D02*
X008676Y005278D01*
X008676Y005436D02*
X014490Y005436D01*
X014490Y005753D02*
X008676Y005753D01*
X008676Y005912D02*
X011591Y005912D01*
X011483Y006070D02*
X008662Y006070D01*
X009362Y004667D02*
X009682Y004799D01*
X010028Y004799D01*
X010347Y004667D01*
X010592Y004422D01*
X010725Y004103D01*
X010725Y003756D01*
X010592Y003437D01*
X010347Y003192D01*
X010028Y003060D01*
X009682Y003060D01*
X009362Y003192D01*
X009117Y003437D01*
X008985Y003756D01*
X008985Y004103D01*
X009117Y004422D01*
X009362Y004667D01*
X009339Y004644D02*
X006828Y004644D01*
X006804Y004667D02*
X006484Y004799D01*
X006138Y004799D01*
X005819Y004667D01*
X005574Y004422D01*
X005441Y004103D01*
X005441Y003756D01*
X005574Y003437D01*
X005819Y003192D01*
X006138Y003060D01*
X006484Y003060D01*
X006804Y003192D01*
X007049Y003437D01*
X007181Y003756D01*
X007181Y004103D01*
X007049Y004422D01*
X006804Y004667D01*
X006986Y004485D02*
X009180Y004485D01*
X009078Y004327D02*
X007089Y004327D01*
X007154Y004168D02*
X009012Y004168D01*
X008985Y004010D02*
X007181Y004010D01*
X007181Y003851D02*
X008985Y003851D01*
X009011Y003693D02*
X007155Y003693D01*
X007089Y003534D02*
X009077Y003534D01*
X009178Y003376D02*
X006988Y003376D01*
X006829Y003217D02*
X009337Y003217D01*
X010373Y003217D02*
X012794Y003217D01*
X012819Y003192D02*
X012574Y003437D01*
X012441Y003756D01*
X012441Y004103D01*
X012574Y004422D01*
X012819Y004667D01*
X013138Y004799D01*
X013484Y004799D01*
X013804Y004667D01*
X014049Y004422D01*
X014181Y004103D01*
X014181Y003756D01*
X014049Y003437D01*
X013804Y003192D01*
X013484Y003060D01*
X013138Y003060D01*
X012819Y003192D01*
X012635Y003376D02*
X010531Y003376D01*
X010633Y003534D02*
X012534Y003534D01*
X012468Y003693D02*
X010698Y003693D01*
X010725Y003851D02*
X012441Y003851D01*
X012441Y004010D02*
X010725Y004010D01*
X010698Y004168D02*
X012469Y004168D01*
X012534Y004327D02*
X010632Y004327D01*
X010529Y004485D02*
X012637Y004485D01*
X012795Y004644D02*
X010371Y004644D01*
X011910Y005912D02*
X012006Y005912D01*
X012006Y006070D02*
X011910Y006070D01*
X011910Y006229D02*
X012006Y006229D01*
X012433Y006229D02*
X018660Y006229D01*
X018660Y006161D02*
X018233Y006161D01*
X018233Y005929D01*
X018245Y005884D01*
X018269Y005843D01*
X018302Y005809D01*
X018343Y005785D01*
X018389Y005773D01*
X018660Y005773D01*
X018660Y006161D01*
X018660Y006070D02*
X018756Y006070D01*
X018756Y005912D02*
X018660Y005912D01*
X018756Y006229D02*
X025660Y006229D01*
X025660Y006161D02*
X025233Y006161D01*
X025233Y005929D01*
X025245Y005884D01*
X025269Y005843D01*
X025302Y005809D01*
X025343Y005785D01*
X025389Y005773D01*
X025660Y005773D01*
X025660Y006161D01*
X025660Y006070D02*
X025756Y006070D01*
X025756Y005912D02*
X025660Y005912D01*
X025756Y006229D02*
X032358Y006229D01*
X032358Y006286D02*
X032358Y006054D01*
X032370Y006009D01*
X032394Y005968D01*
X032427Y005934D01*
X032468Y005910D01*
X032514Y005898D01*
X032785Y005898D01*
X032785Y006286D01*
X032358Y006286D01*
X032358Y006387D02*
X026183Y006387D01*
X026183Y006070D02*
X028504Y006070D01*
X028490Y005912D02*
X026179Y005912D01*
X025238Y005912D02*
X022676Y005912D01*
X022662Y006070D02*
X025233Y006070D01*
X025233Y006387D02*
X019183Y006387D01*
X019183Y006070D02*
X021504Y006070D01*
X021490Y005912D02*
X019179Y005912D01*
X018238Y005912D02*
X015676Y005912D01*
X015662Y006070D02*
X018233Y006070D01*
X018233Y006387D02*
X012433Y006387D01*
X012433Y006070D02*
X014504Y006070D01*
X014490Y005912D02*
X012325Y005912D01*
X013828Y004644D02*
X016339Y004644D01*
X016362Y004667D02*
X016117Y004422D01*
X015985Y004103D01*
X015985Y003756D01*
X016117Y003437D01*
X016362Y003192D01*
X016682Y003060D01*
X017028Y003060D01*
X017347Y003192D01*
X017592Y003437D01*
X017725Y003756D01*
X017725Y004103D01*
X017592Y004422D01*
X017347Y004667D01*
X017028Y004799D01*
X016682Y004799D01*
X016362Y004667D01*
X016180Y004485D02*
X013986Y004485D01*
X014089Y004327D02*
X016078Y004327D01*
X016012Y004168D02*
X014154Y004168D01*
X014181Y004010D02*
X015985Y004010D01*
X015985Y003851D02*
X014181Y003851D01*
X014155Y003693D02*
X016011Y003693D01*
X016077Y003534D02*
X014089Y003534D01*
X013988Y003376D02*
X016178Y003376D01*
X016337Y003217D02*
X013829Y003217D01*
X015025Y005119D02*
X015141Y005119D01*
X015141Y005278D02*
X015025Y005278D01*
X015025Y005436D02*
X015141Y005436D01*
X015141Y005912D02*
X015025Y005912D01*
X015025Y006070D02*
X015141Y006070D01*
X015676Y005753D02*
X021490Y005753D01*
X021490Y005525D02*
X021490Y005146D01*
X021502Y005100D01*
X021526Y005059D01*
X021559Y005026D01*
X021600Y005002D01*
X021646Y004990D01*
X022025Y004990D01*
X022025Y005525D01*
X021490Y005525D01*
X021490Y005436D02*
X015676Y005436D01*
X015676Y005278D02*
X021490Y005278D01*
X021497Y005119D02*
X015669Y005119D01*
X017371Y004644D02*
X019795Y004644D01*
X019819Y004667D02*
X019574Y004422D01*
X019441Y004103D01*
X019441Y003756D01*
X019574Y003437D01*
X019819Y003192D01*
X020138Y003060D01*
X020484Y003060D01*
X020804Y003192D01*
X021049Y003437D01*
X021181Y003756D01*
X021181Y004103D01*
X021049Y004422D01*
X020804Y004667D01*
X020484Y004799D01*
X020138Y004799D01*
X019819Y004667D01*
X019637Y004485D02*
X017529Y004485D01*
X017632Y004327D02*
X019534Y004327D01*
X019469Y004168D02*
X017698Y004168D01*
X017725Y004010D02*
X019441Y004010D01*
X019441Y003851D02*
X017725Y003851D01*
X017698Y003693D02*
X019468Y003693D01*
X019534Y003534D02*
X017633Y003534D01*
X017531Y003376D02*
X019635Y003376D01*
X019794Y003217D02*
X017373Y003217D01*
X020829Y003217D02*
X023337Y003217D01*
X023362Y003192D02*
X023682Y003060D01*
X024028Y003060D01*
X024347Y003192D01*
X024592Y003437D01*
X024725Y003756D01*
X024725Y004103D01*
X024592Y004422D01*
X024347Y004667D01*
X024028Y004799D01*
X023682Y004799D01*
X023362Y004667D01*
X023117Y004422D01*
X022985Y004103D01*
X022985Y003756D01*
X023117Y003437D01*
X023362Y003192D01*
X023178Y003376D02*
X020988Y003376D01*
X021089Y003534D02*
X023077Y003534D01*
X023011Y003693D02*
X021155Y003693D01*
X021181Y003851D02*
X022985Y003851D01*
X022985Y004010D02*
X021181Y004010D01*
X021154Y004168D02*
X023012Y004168D01*
X023078Y004327D02*
X021089Y004327D01*
X020986Y004485D02*
X023180Y004485D01*
X023339Y004644D02*
X020828Y004644D01*
X022025Y005119D02*
X022141Y005119D01*
X022141Y005278D02*
X022025Y005278D01*
X022025Y005436D02*
X022141Y005436D01*
X022141Y005912D02*
X022025Y005912D01*
X022025Y006070D02*
X022141Y006070D01*
X022676Y005753D02*
X028490Y005753D01*
X028490Y005525D02*
X028490Y005146D01*
X028502Y005100D01*
X028526Y005059D01*
X028559Y005026D01*
X028600Y005002D01*
X028646Y004990D01*
X029025Y004990D01*
X029025Y005525D01*
X028490Y005525D01*
X028490Y005436D02*
X022676Y005436D01*
X022676Y005278D02*
X028490Y005278D01*
X028497Y005119D02*
X022669Y005119D01*
X024371Y004644D02*
X026795Y004644D01*
X026819Y004667D02*
X026574Y004422D01*
X026441Y004103D01*
X026441Y003756D01*
X026574Y003437D01*
X026819Y003192D01*
X027138Y003060D01*
X027484Y003060D01*
X027804Y003192D01*
X028049Y003437D01*
X028181Y003756D01*
X028181Y004103D01*
X028049Y004422D01*
X027804Y004667D01*
X027484Y004799D01*
X027138Y004799D01*
X026819Y004667D01*
X026637Y004485D02*
X024529Y004485D01*
X024632Y004327D02*
X026534Y004327D01*
X026469Y004168D02*
X024698Y004168D01*
X024725Y004010D02*
X026441Y004010D01*
X026441Y003851D02*
X024725Y003851D01*
X024698Y003693D02*
X026468Y003693D01*
X026534Y003534D02*
X024633Y003534D01*
X024531Y003376D02*
X026635Y003376D01*
X026794Y003217D02*
X024373Y003217D01*
X027829Y003217D02*
X030337Y003217D01*
X030362Y003192D02*
X030682Y003060D01*
X031028Y003060D01*
X031347Y003192D01*
X031592Y003437D01*
X031725Y003756D01*
X031725Y004103D01*
X031592Y004422D01*
X031347Y004667D01*
X031028Y004799D01*
X030682Y004799D01*
X030362Y004667D01*
X030117Y004422D01*
X029985Y004103D01*
X029985Y003756D01*
X030117Y003437D01*
X030362Y003192D01*
X030178Y003376D02*
X027988Y003376D01*
X028089Y003534D02*
X030077Y003534D01*
X030011Y003693D02*
X028155Y003693D01*
X028181Y003851D02*
X029985Y003851D01*
X029985Y004010D02*
X028181Y004010D01*
X028154Y004168D02*
X030012Y004168D01*
X030078Y004327D02*
X028089Y004327D01*
X027986Y004485D02*
X030180Y004485D01*
X030339Y004644D02*
X027828Y004644D01*
X029025Y005119D02*
X029141Y005119D01*
X029141Y005278D02*
X029025Y005278D01*
X029025Y005436D02*
X029141Y005436D01*
X029141Y005912D02*
X029025Y005912D01*
X029025Y006070D02*
X029141Y006070D01*
X029662Y006070D02*
X032358Y006070D01*
X032466Y005912D02*
X029676Y005912D01*
X029676Y005753D02*
X035490Y005753D01*
X035490Y005912D02*
X033200Y005912D01*
X033308Y006070D02*
X035504Y006070D01*
X035490Y005436D02*
X029676Y005436D01*
X029676Y005278D02*
X035490Y005278D01*
X035497Y005119D02*
X029669Y005119D01*
X031371Y004644D02*
X033795Y004644D01*
X033819Y004667D02*
X033574Y004422D01*
X033441Y004103D01*
X033441Y003756D01*
X033574Y003437D01*
X033819Y003192D01*
X034138Y003060D01*
X034484Y003060D01*
X034804Y003192D01*
X035049Y003437D01*
X035181Y003756D01*
X035181Y004103D01*
X035049Y004422D01*
X034804Y004667D01*
X034484Y004799D01*
X034138Y004799D01*
X033819Y004667D01*
X033637Y004485D02*
X031529Y004485D01*
X031632Y004327D02*
X033534Y004327D01*
X033469Y004168D02*
X031698Y004168D01*
X031725Y004010D02*
X033441Y004010D01*
X033441Y003851D02*
X031725Y003851D01*
X031698Y003693D02*
X033468Y003693D01*
X033534Y003534D02*
X031633Y003534D01*
X031531Y003376D02*
X033635Y003376D01*
X033794Y003217D02*
X031373Y003217D01*
X032785Y005912D02*
X032881Y005912D01*
X032881Y006070D02*
X032785Y006070D01*
X032785Y006229D02*
X032881Y006229D01*
X033308Y006229D02*
X040097Y006229D01*
X040098Y006387D02*
X033308Y006387D01*
X034828Y004644D02*
X037339Y004644D01*
X037362Y004667D02*
X037117Y004422D01*
X036985Y004103D01*
X036985Y003756D01*
X037117Y003437D01*
X037362Y003192D01*
X037682Y003060D01*
X038028Y003060D01*
X038347Y003192D01*
X038592Y003437D01*
X038725Y003756D01*
X038725Y004103D01*
X038592Y004422D01*
X038347Y004667D01*
X038028Y004799D01*
X037682Y004799D01*
X037362Y004667D01*
X037180Y004485D02*
X034986Y004485D01*
X035089Y004327D02*
X037078Y004327D01*
X037012Y004168D02*
X035154Y004168D01*
X035181Y004010D02*
X036985Y004010D01*
X036985Y003851D02*
X035181Y003851D01*
X035155Y003693D02*
X037011Y003693D01*
X037077Y003534D02*
X035089Y003534D01*
X034988Y003376D02*
X037178Y003376D01*
X037337Y003217D02*
X034829Y003217D01*
X036676Y005278D02*
X040095Y005278D01*
X040096Y005436D02*
X036676Y005436D01*
X036385Y006546D02*
X040098Y006546D01*
X040098Y006704D02*
X036754Y006704D01*
X036951Y006863D02*
X040099Y006863D01*
X040099Y007021D02*
X037095Y007021D01*
X037186Y007180D02*
X040100Y007180D01*
X040100Y007338D02*
X037257Y007338D01*
X037299Y007497D02*
X040100Y007497D01*
X040101Y007655D02*
X037323Y007655D01*
X037323Y007814D02*
X040101Y007814D01*
X040101Y007972D02*
X037307Y007972D01*
X037264Y008131D02*
X038525Y008131D01*
X038564Y008115D02*
X038910Y008115D01*
X039229Y008247D01*
X039474Y008492D01*
X039607Y008812D01*
X039607Y009158D01*
X039474Y009477D01*
X039229Y009722D01*
X038910Y009855D01*
X038564Y009855D01*
X038244Y009722D01*
X037999Y009477D01*
X037867Y009158D01*
X037867Y008812D01*
X037999Y008492D01*
X038244Y008247D01*
X038564Y008115D01*
X038948Y008131D02*
X040102Y008131D01*
X040102Y008289D02*
X039271Y008289D01*
X039430Y008448D02*
X040102Y008448D01*
X040103Y008606D02*
X039521Y008606D01*
X039587Y008765D02*
X040103Y008765D01*
X040104Y008923D02*
X039607Y008923D01*
X039607Y009082D02*
X040104Y009082D01*
X040104Y009240D02*
X039572Y009240D01*
X039507Y009399D02*
X040105Y009399D01*
X040105Y009557D02*
X039394Y009557D01*
X039236Y009716D02*
X040105Y009716D01*
X040106Y009874D02*
X036158Y009874D01*
X036158Y009716D02*
X038237Y009716D01*
X038079Y009557D02*
X036158Y009557D01*
X036187Y009399D02*
X037966Y009399D01*
X037901Y009240D02*
X036345Y009240D01*
X036504Y009082D02*
X037867Y009082D01*
X037867Y008923D02*
X036662Y008923D01*
X036821Y008765D02*
X037886Y008765D01*
X037952Y008606D02*
X036979Y008606D01*
X037111Y008448D02*
X038043Y008448D01*
X038202Y008289D02*
X037203Y008289D01*
X036158Y010033D02*
X040106Y010033D01*
X040106Y010191D02*
X037593Y010191D01*
X037607Y010199D02*
X037640Y010232D01*
X037664Y010273D01*
X037676Y010319D01*
X037676Y010699D01*
X037141Y010699D01*
X037141Y010814D01*
X037676Y010814D01*
X037676Y011193D01*
X037664Y011239D01*
X037640Y011280D01*
X037607Y011314D01*
X037566Y011337D01*
X037520Y011350D01*
X037141Y011350D01*
X037141Y010814D01*
X037025Y010814D01*
X037025Y010699D01*
X036490Y010699D01*
X036490Y010319D01*
X036502Y010273D01*
X036526Y010232D01*
X036559Y010199D01*
X036600Y010175D01*
X036646Y010163D01*
X037025Y010163D01*
X037025Y010698D01*
X037141Y010698D01*
X037141Y010163D01*
X037520Y010163D01*
X037566Y010175D01*
X037607Y010199D01*
X037676Y010350D02*
X040107Y010350D01*
X040107Y010508D02*
X037676Y010508D01*
X037676Y010667D02*
X040108Y010667D01*
X040108Y010825D02*
X037676Y010825D01*
X037676Y010984D02*
X040108Y010984D01*
X040109Y011142D02*
X037676Y011142D01*
X037620Y011301D02*
X040109Y011301D01*
X040109Y011459D02*
X036158Y011459D01*
X036158Y011301D02*
X036546Y011301D01*
X036559Y011314D02*
X036526Y011280D01*
X036502Y011239D01*
X036490Y011193D01*
X036490Y010814D01*
X037025Y010814D01*
X037025Y011350D01*
X036646Y011350D01*
X036600Y011337D01*
X036559Y011314D01*
X036490Y011142D02*
X036158Y011142D01*
X036158Y010984D02*
X036490Y010984D01*
X036490Y010825D02*
X036158Y010825D01*
X036158Y010667D02*
X036490Y010667D01*
X036490Y010508D02*
X036158Y010508D01*
X036158Y010350D02*
X036490Y010350D01*
X036573Y010191D02*
X036158Y010191D01*
X037025Y010191D02*
X037141Y010191D01*
X037141Y010350D02*
X037025Y010350D01*
X037025Y010508D02*
X037141Y010508D01*
X037141Y010667D02*
X037025Y010667D01*
X037025Y010825D02*
X037141Y010825D01*
X037141Y010984D02*
X037025Y010984D01*
X037025Y011142D02*
X037141Y011142D01*
X037141Y011301D02*
X037025Y011301D01*
X037025Y011816D02*
X036646Y011816D01*
X036600Y011829D01*
X036559Y011852D01*
X036526Y011886D01*
X036502Y011927D01*
X036490Y011973D01*
X036490Y012352D01*
X037025Y012352D01*
X037025Y012468D01*
X037025Y013003D01*
X036646Y013003D01*
X036600Y012991D01*
X036559Y012967D01*
X036526Y012934D01*
X036502Y012893D01*
X036490Y012847D01*
X036490Y012468D01*
X037025Y012468D01*
X037141Y012468D01*
X037141Y013003D01*
X037520Y013003D01*
X037566Y012991D01*
X037607Y012967D01*
X037640Y012934D01*
X037664Y012893D01*
X037676Y012847D01*
X037676Y012468D01*
X037141Y012468D01*
X037141Y012352D01*
X037676Y012352D01*
X037676Y011973D01*
X037664Y011927D01*
X037640Y011886D01*
X037607Y011852D01*
X037566Y011829D01*
X037520Y011816D01*
X037141Y011816D01*
X037141Y012352D01*
X037025Y012352D01*
X037025Y011816D01*
X037025Y011935D02*
X037141Y011935D01*
X037141Y012093D02*
X037025Y012093D01*
X037025Y012252D02*
X037141Y012252D01*
X037141Y012410D02*
X040111Y012410D01*
X040111Y012252D02*
X037676Y012252D01*
X037676Y012093D02*
X040111Y012093D01*
X040110Y011935D02*
X037666Y011935D01*
X037676Y012569D02*
X040112Y012569D01*
X040112Y012727D02*
X037676Y012727D01*
X037666Y012886D02*
X040113Y012886D01*
X040113Y013044D02*
X036158Y013044D01*
X036158Y012886D02*
X036500Y012886D01*
X036490Y012727D02*
X036158Y012727D01*
X036158Y012569D02*
X036490Y012569D01*
X036490Y012252D02*
X036158Y012252D01*
X036158Y012410D02*
X037025Y012410D01*
X037025Y012569D02*
X037141Y012569D01*
X037141Y012727D02*
X037025Y012727D01*
X037025Y012886D02*
X037141Y012886D01*
X036490Y012093D02*
X036158Y012093D01*
X036158Y011935D02*
X036500Y011935D01*
X036158Y011776D02*
X040110Y011776D01*
X040110Y011618D02*
X036158Y011618D01*
X036158Y013203D02*
X040113Y013203D01*
X040114Y013361D02*
X039029Y013361D01*
X038910Y013312D02*
X039229Y013444D01*
X039474Y013689D01*
X039607Y014008D01*
X039607Y014355D01*
X039474Y014674D01*
X039229Y014919D01*
X038910Y015051D01*
X038564Y015051D01*
X038244Y014919D01*
X037999Y014674D01*
X037867Y014355D01*
X037867Y014008D01*
X037999Y013689D01*
X038244Y013444D01*
X038564Y013312D01*
X038910Y013312D01*
X039305Y013520D02*
X040114Y013520D01*
X040114Y013678D02*
X039463Y013678D01*
X039535Y013837D02*
X040115Y013837D01*
X040115Y013995D02*
X039601Y013995D01*
X039607Y014154D02*
X040115Y014154D01*
X040116Y014312D02*
X039607Y014312D01*
X039558Y014471D02*
X040116Y014471D01*
X040117Y014629D02*
X039493Y014629D01*
X039361Y014788D02*
X040117Y014788D01*
X040117Y014946D02*
X039164Y014946D01*
X038309Y014946D02*
X036158Y014946D01*
X036158Y014788D02*
X038112Y014788D01*
X037980Y014629D02*
X036158Y014629D01*
X036158Y014471D02*
X037915Y014471D01*
X037867Y014312D02*
X036158Y014312D01*
X036158Y014154D02*
X037867Y014154D01*
X037872Y013995D02*
X036158Y013995D01*
X036158Y013837D02*
X037938Y013837D01*
X038010Y013678D02*
X036158Y013678D01*
X036158Y013520D02*
X038168Y013520D01*
X038444Y013361D02*
X036158Y013361D01*
X036158Y015105D02*
X040118Y015105D01*
X040118Y015263D02*
X036158Y015263D01*
X036158Y015422D02*
X040118Y015422D01*
X040119Y015580D02*
X036158Y015580D01*
X036158Y015739D02*
X040119Y015739D01*
X040119Y015897D02*
X036158Y015897D01*
X036158Y016056D02*
X040120Y016056D01*
X040120Y016214D02*
X036158Y016214D01*
X036158Y016373D02*
X040121Y016373D01*
X040121Y016531D02*
X036158Y016531D01*
X036158Y016690D02*
X040121Y016690D01*
X040122Y016848D02*
X036158Y016848D01*
X036158Y017007D02*
X040122Y017007D01*
X040122Y017165D02*
X039031Y017165D01*
X038910Y017115D02*
X039229Y017247D01*
X039474Y017492D01*
X039607Y017812D01*
X039607Y018158D01*
X039474Y018477D01*
X039229Y018722D01*
X038910Y018855D01*
X038564Y018855D01*
X038244Y018722D01*
X037999Y018477D01*
X037867Y018158D01*
X037867Y017812D01*
X037999Y017492D01*
X038244Y017247D01*
X038564Y017115D01*
X038910Y017115D01*
X039306Y017324D02*
X040123Y017324D01*
X040123Y017482D02*
X039464Y017482D01*
X039536Y017641D02*
X040123Y017641D01*
X040124Y017799D02*
X039601Y017799D01*
X039607Y017958D02*
X040124Y017958D01*
X040125Y018116D02*
X039607Y018116D01*
X039558Y018275D02*
X040125Y018275D01*
X040125Y018433D02*
X039492Y018433D01*
X039360Y018592D02*
X040126Y018592D01*
X040126Y018750D02*
X039162Y018750D01*
X038311Y018750D02*
X036158Y018750D01*
X036158Y018592D02*
X038113Y018592D01*
X037981Y018433D02*
X036158Y018433D01*
X036158Y018275D02*
X037915Y018275D01*
X037867Y018116D02*
X036158Y018116D01*
X036158Y017958D02*
X037867Y017958D01*
X037872Y017799D02*
X036158Y017799D01*
X036158Y017641D02*
X037938Y017641D01*
X038009Y017482D02*
X036158Y017482D01*
X036158Y017324D02*
X038167Y017324D01*
X038442Y017165D02*
X036158Y017165D01*
X036158Y018909D02*
X040126Y018909D01*
X040127Y019067D02*
X036158Y019067D01*
X036158Y019226D02*
X036532Y019226D01*
X036526Y019232D02*
X036559Y019199D01*
X036600Y019175D01*
X036646Y019163D01*
X037025Y019163D01*
X037025Y019698D01*
X037141Y019698D01*
X037141Y019163D01*
X037520Y019163D01*
X037566Y019175D01*
X037607Y019199D01*
X037640Y019232D01*
X037664Y019273D01*
X037676Y019319D01*
X037676Y019699D01*
X037141Y019699D01*
X037141Y019814D01*
X037676Y019814D01*
X037676Y020193D01*
X037664Y020239D01*
X037640Y020280D01*
X037607Y020314D01*
X037566Y020337D01*
X037520Y020350D01*
X037141Y020350D01*
X037141Y019814D01*
X037025Y019814D01*
X037025Y019699D01*
X036490Y019699D01*
X036490Y019319D01*
X036502Y019273D01*
X036526Y019232D01*
X036490Y019384D02*
X036158Y019384D01*
X036158Y019543D02*
X036490Y019543D01*
X036490Y019814D02*
X036490Y020193D01*
X036502Y020239D01*
X036526Y020280D01*
X036559Y020314D01*
X036600Y020337D01*
X036646Y020350D01*
X037025Y020350D01*
X037025Y019814D01*
X036490Y019814D01*
X036490Y019860D02*
X036158Y019860D01*
X036158Y020018D02*
X036490Y020018D01*
X036490Y020177D02*
X036158Y020177D01*
X036158Y020335D02*
X036596Y020335D01*
X037025Y020335D02*
X037141Y020335D01*
X037141Y020177D02*
X037025Y020177D01*
X037025Y020018D02*
X037141Y020018D01*
X037141Y019860D02*
X037025Y019860D01*
X037025Y019701D02*
X036158Y019701D01*
X036158Y020494D02*
X040130Y020494D01*
X040130Y020652D02*
X036158Y020652D01*
X036158Y020811D02*
X040131Y020811D01*
X040131Y020969D02*
X037675Y020969D01*
X037676Y020973D02*
X037676Y021352D01*
X037141Y021352D01*
X037141Y021468D01*
X037025Y021468D01*
X037025Y022003D01*
X036646Y022003D01*
X036600Y021991D01*
X036559Y021967D01*
X036526Y021934D01*
X036502Y021893D01*
X036490Y021847D01*
X036490Y021468D01*
X037025Y021468D01*
X037025Y021352D01*
X036490Y021352D01*
X036490Y020973D01*
X036502Y020927D01*
X036526Y020886D01*
X036559Y020852D01*
X036600Y020829D01*
X036646Y020816D01*
X037025Y020816D01*
X037025Y021352D01*
X037141Y021352D01*
X037141Y020816D01*
X037520Y020816D01*
X037566Y020829D01*
X037607Y020852D01*
X037640Y020886D01*
X037664Y020927D01*
X037676Y020973D01*
X037676Y021128D02*
X040131Y021128D01*
X040132Y021286D02*
X037676Y021286D01*
X037676Y021468D02*
X037676Y021847D01*
X037664Y021893D01*
X037640Y021934D01*
X037607Y021967D01*
X037566Y021991D01*
X037520Y022003D01*
X037141Y022003D01*
X037141Y021468D01*
X037676Y021468D01*
X037676Y021603D02*
X040133Y021603D01*
X040132Y021445D02*
X037141Y021445D01*
X037025Y021445D02*
X036158Y021445D01*
X036158Y021603D02*
X036490Y021603D01*
X036490Y021762D02*
X036158Y021762D01*
X036158Y021920D02*
X036518Y021920D01*
X036158Y022079D02*
X040134Y022079D01*
X040134Y022237D02*
X036158Y022237D01*
X036315Y022396D02*
X038361Y022396D01*
X038244Y022444D02*
X038564Y022312D01*
X038910Y022312D01*
X039229Y022444D01*
X039474Y022689D01*
X039607Y023008D01*
X039607Y023355D01*
X039474Y023674D01*
X039229Y023919D01*
X038910Y024051D01*
X038564Y024051D01*
X038244Y023919D01*
X037999Y023674D01*
X037867Y023355D01*
X037867Y023008D01*
X037999Y022689D01*
X038244Y022444D01*
X038134Y022554D02*
X036473Y022554D01*
X036632Y022713D02*
X037989Y022713D01*
X037924Y022871D02*
X036790Y022871D01*
X036949Y023030D02*
X037867Y023030D01*
X037867Y023188D02*
X037094Y023188D01*
X037185Y023347D02*
X037867Y023347D01*
X037929Y023505D02*
X037256Y023505D01*
X037299Y023664D02*
X037995Y023664D01*
X038147Y023822D02*
X037323Y023822D01*
X037323Y023981D02*
X038393Y023981D01*
X039081Y023981D02*
X040138Y023981D01*
X040138Y024139D02*
X037307Y024139D01*
X037265Y024298D02*
X040139Y024298D01*
X040139Y024456D02*
X037204Y024456D01*
X037113Y024615D02*
X040139Y024615D01*
X040140Y024773D02*
X036981Y024773D01*
X036807Y024932D02*
X040140Y024932D01*
X040141Y025090D02*
X036499Y025090D01*
X036520Y025490D02*
X036141Y025490D01*
X036141Y026025D01*
X036025Y026025D01*
X035490Y026025D01*
X035490Y025646D01*
X035502Y025600D01*
X035526Y025559D01*
X035559Y025526D01*
X035600Y025502D01*
X035646Y025490D01*
X036025Y025490D01*
X036025Y026025D01*
X036025Y026141D01*
X035490Y026141D01*
X035490Y026520D01*
X035502Y026566D01*
X035526Y026607D01*
X035559Y026640D01*
X035600Y026664D01*
X035646Y026676D01*
X036025Y026676D01*
X036025Y026141D01*
X036141Y026141D01*
X036141Y026676D01*
X036520Y026676D01*
X036566Y026664D01*
X036607Y026640D01*
X036640Y026607D01*
X036664Y026566D01*
X036676Y026520D01*
X036676Y026141D01*
X036141Y026141D01*
X036141Y026025D01*
X036676Y026025D01*
X036676Y025646D01*
X036664Y025600D01*
X036640Y025559D01*
X036607Y025526D01*
X036566Y025502D01*
X036520Y025490D01*
X036644Y025566D02*
X040142Y025566D01*
X040142Y025724D02*
X036676Y025724D01*
X036676Y025883D02*
X040142Y025883D01*
X040143Y026041D02*
X036141Y026041D01*
X036025Y026041D02*
X029141Y026041D01*
X029141Y026025D02*
X029141Y026141D01*
X029025Y026141D01*
X029025Y026025D01*
X028490Y026025D01*
X028490Y025646D01*
X028502Y025600D01*
X028526Y025559D01*
X028559Y025526D01*
X028600Y025502D01*
X028646Y025490D01*
X029025Y025490D01*
X029025Y026025D01*
X029141Y026025D01*
X029141Y025490D01*
X029520Y025490D01*
X029566Y025502D01*
X029607Y025526D01*
X029640Y025559D01*
X029664Y025600D01*
X029676Y025646D01*
X029676Y026025D01*
X029141Y026025D01*
X029141Y026141D02*
X029676Y026141D01*
X029676Y026520D01*
X029664Y026566D01*
X029640Y026607D01*
X029607Y026640D01*
X029566Y026664D01*
X029520Y026676D01*
X029141Y026676D01*
X029141Y026141D01*
X029141Y026200D02*
X029025Y026200D01*
X029025Y026141D02*
X029025Y026676D01*
X028646Y026676D01*
X028600Y026664D01*
X028559Y026640D01*
X028526Y026607D01*
X028502Y026566D01*
X028490Y026520D01*
X028490Y026141D01*
X029025Y026141D01*
X029025Y026041D02*
X022141Y026041D01*
X022141Y026025D02*
X022141Y026141D01*
X022025Y026141D01*
X022025Y026025D01*
X021490Y026025D01*
X021490Y025646D01*
X021502Y025600D01*
X021526Y025559D01*
X021559Y025526D01*
X021600Y025502D01*
X021646Y025490D01*
X022025Y025490D01*
X022025Y026025D01*
X022141Y026025D01*
X022141Y025490D01*
X022520Y025490D01*
X022566Y025502D01*
X022607Y025526D01*
X022640Y025559D01*
X022664Y025600D01*
X022676Y025646D01*
X022676Y026025D01*
X022141Y026025D01*
X022141Y026141D02*
X022676Y026141D01*
X022676Y026520D01*
X022664Y026566D01*
X022640Y026607D01*
X022607Y026640D01*
X022566Y026664D01*
X022520Y026676D01*
X022141Y026676D01*
X022141Y026141D01*
X022141Y026200D02*
X022025Y026200D01*
X022025Y026141D02*
X022025Y026676D01*
X021646Y026676D01*
X021600Y026664D01*
X021559Y026640D01*
X021526Y026607D01*
X021502Y026566D01*
X021490Y026520D01*
X021490Y026141D01*
X022025Y026141D01*
X022025Y026041D02*
X015141Y026041D01*
X015141Y026025D02*
X015141Y026141D01*
X015025Y026141D01*
X015025Y026025D01*
X014490Y026025D01*
X014490Y025646D01*
X014502Y025600D01*
X014526Y025559D01*
X014559Y025526D01*
X014600Y025502D01*
X014646Y025490D01*
X015025Y025490D01*
X015025Y026025D01*
X015141Y026025D01*
X015141Y025490D01*
X015520Y025490D01*
X015566Y025502D01*
X015607Y025526D01*
X015640Y025559D01*
X015664Y025600D01*
X015676Y025646D01*
X015676Y026025D01*
X015141Y026025D01*
X015141Y026141D02*
X015676Y026141D01*
X015676Y026520D01*
X015664Y026566D01*
X015640Y026607D01*
X015607Y026640D01*
X015566Y026664D01*
X015520Y026676D01*
X015141Y026676D01*
X015141Y026141D01*
X015141Y026200D02*
X015025Y026200D01*
X015025Y026141D02*
X015025Y026676D01*
X014646Y026676D01*
X014600Y026664D01*
X014559Y026640D01*
X014526Y026607D01*
X014502Y026566D01*
X014490Y026520D01*
X014490Y026141D01*
X015025Y026141D01*
X015025Y026041D02*
X008141Y026041D01*
X008141Y026025D02*
X008141Y026141D01*
X008025Y026141D01*
X008025Y026025D01*
X007490Y026025D01*
X007490Y025646D01*
X007502Y025600D01*
X007526Y025559D01*
X007559Y025526D01*
X007600Y025502D01*
X007646Y025490D01*
X008025Y025490D01*
X008025Y026025D01*
X008141Y026025D01*
X008141Y025490D01*
X008520Y025490D01*
X008566Y025502D01*
X008607Y025526D01*
X008640Y025559D01*
X008664Y025600D01*
X008676Y025646D01*
X008676Y026025D01*
X008141Y026025D01*
X008141Y026141D02*
X008676Y026141D01*
X008676Y026520D01*
X008664Y026566D01*
X008640Y026607D01*
X008607Y026640D01*
X008566Y026664D01*
X008520Y026676D01*
X008141Y026676D01*
X008141Y026141D01*
X008141Y026200D02*
X008025Y026200D01*
X008025Y026141D02*
X008025Y026676D01*
X007646Y026676D01*
X007600Y026664D01*
X007559Y026640D01*
X007526Y026607D01*
X007502Y026566D01*
X007490Y026520D01*
X007490Y026141D01*
X008025Y026141D01*
X008025Y026041D02*
X006265Y026041D01*
X006424Y025883D02*
X007490Y025883D01*
X007490Y025724D02*
X006522Y025724D01*
X006529Y025566D02*
X007522Y025566D01*
X007668Y025090D02*
X006529Y025090D01*
X006529Y025249D02*
X040141Y025249D01*
X040141Y025407D02*
X006529Y025407D01*
X006209Y025645D02*
X004208Y027646D01*
X003858Y028102D02*
X003473Y028102D01*
X003632Y027943D02*
X003700Y027943D01*
X003208Y027943D02*
X003208Y027943D01*
X003208Y027785D02*
X003208Y027785D01*
X003208Y027626D02*
X003208Y027626D01*
X003208Y027468D02*
X003208Y027468D01*
X003208Y027309D02*
X003208Y027309D01*
X003208Y027151D02*
X003208Y027151D01*
X002982Y027151D02*
X002583Y027151D01*
X002583Y027309D02*
X002823Y027309D01*
X002698Y027468D02*
X002583Y027468D01*
X002583Y027626D02*
X002698Y027626D01*
X002698Y027785D02*
X002583Y027785D01*
X002583Y027943D02*
X002784Y027943D01*
X002943Y028102D02*
X002583Y028102D01*
X002583Y028260D02*
X005605Y028260D01*
X005574Y028229D02*
X005441Y027910D01*
X005441Y027564D01*
X005574Y027244D01*
X005819Y026999D01*
X006138Y026867D01*
X006484Y026867D01*
X006804Y026999D01*
X007049Y027244D01*
X007181Y027564D01*
X007181Y027910D01*
X007049Y028229D01*
X006804Y028474D01*
X006484Y028607D01*
X006138Y028607D01*
X005819Y028474D01*
X005574Y028229D01*
X005521Y028102D02*
X004558Y028102D01*
X004717Y027943D02*
X005455Y027943D01*
X005441Y027785D02*
X004778Y027785D01*
X004778Y027626D02*
X005441Y027626D01*
X005481Y027468D02*
X004839Y027468D01*
X004997Y027309D02*
X005547Y027309D01*
X005667Y027151D02*
X005156Y027151D01*
X005314Y026992D02*
X005836Y026992D01*
X005631Y026675D02*
X007641Y026675D01*
X007490Y026517D02*
X005790Y026517D01*
X005948Y026358D02*
X007490Y026358D01*
X007490Y026200D02*
X006107Y026200D01*
X005677Y025724D02*
X004925Y025724D01*
X004939Y025715D02*
X004830Y025788D01*
X004715Y025849D01*
X004594Y025899D01*
X004469Y025937D01*
X004341Y025963D01*
X004226Y025974D01*
X004226Y024726D01*
X005474Y024726D01*
X005463Y024841D01*
X005437Y024969D01*
X005399Y025094D01*
X005349Y025215D01*
X005288Y025330D01*
X005215Y025439D01*
X005132Y025540D01*
X005040Y025632D01*
X004939Y025715D01*
X005106Y025566D02*
X005835Y025566D01*
X005889Y025407D02*
X005236Y025407D01*
X005331Y025249D02*
X005889Y025249D01*
X005889Y025090D02*
X005401Y025090D01*
X005445Y024932D02*
X005889Y024932D01*
X005783Y024773D02*
X005469Y024773D01*
X005474Y024566D02*
X004226Y024566D01*
X004226Y024726D01*
X004066Y024726D01*
X004066Y025974D01*
X003950Y025963D01*
X003822Y025937D01*
X003697Y025899D01*
X003576Y025849D01*
X003461Y025788D01*
X003352Y025715D01*
X003251Y025632D01*
X003159Y025540D01*
X003076Y025439D01*
X003003Y025330D01*
X002942Y025215D01*
X002892Y025094D01*
X002854Y024969D01*
X002828Y024841D01*
X002817Y024726D01*
X004066Y024726D01*
X004066Y024566D01*
X004226Y024566D01*
X004226Y023317D01*
X004341Y023328D01*
X004469Y023354D01*
X004594Y023392D01*
X004715Y023442D01*
X004830Y023503D01*
X004939Y023576D01*
X005040Y023659D01*
X005132Y023751D01*
X005215Y023852D01*
X005288Y023961D01*
X005349Y024076D01*
X005399Y024197D01*
X005437Y024322D01*
X005463Y024450D01*
X005474Y024566D01*
X005463Y024456D02*
X005778Y024456D01*
X005778Y024298D02*
X005430Y024298D01*
X005375Y024139D02*
X005784Y024139D01*
X005778Y023981D02*
X005298Y023981D01*
X005190Y023822D02*
X005778Y023822D01*
X005778Y023664D02*
X005045Y023664D01*
X004833Y023505D02*
X005778Y023505D01*
X005802Y023347D02*
X004433Y023347D01*
X004226Y023347D02*
X004066Y023347D01*
X004066Y023317D02*
X004066Y024566D01*
X002817Y024566D01*
X002828Y024450D01*
X002854Y024322D01*
X002892Y024197D01*
X002942Y024076D01*
X003003Y023961D01*
X003076Y023852D01*
X003159Y023751D01*
X003251Y023659D01*
X003352Y023576D01*
X003461Y023503D01*
X003576Y023442D01*
X003697Y023392D01*
X003822Y023354D01*
X003950Y023328D01*
X004066Y023317D01*
X004066Y023505D02*
X004226Y023505D01*
X004226Y023664D02*
X004066Y023664D01*
X004066Y023822D02*
X004226Y023822D01*
X004226Y023981D02*
X004066Y023981D01*
X004066Y024139D02*
X004226Y024139D01*
X004226Y024298D02*
X004066Y024298D01*
X004066Y024456D02*
X004226Y024456D01*
X004226Y024615D02*
X005778Y024615D01*
X006209Y024583D02*
X006209Y025645D01*
X005518Y025883D02*
X004635Y025883D01*
X004226Y025883D02*
X004066Y025883D01*
X004066Y025724D02*
X004226Y025724D01*
X004226Y025566D02*
X004066Y025566D01*
X004066Y025407D02*
X004226Y025407D01*
X004226Y025249D02*
X004066Y025249D01*
X004066Y025090D02*
X004226Y025090D01*
X004226Y024932D02*
X004066Y024932D01*
X004066Y024773D02*
X004226Y024773D01*
X004066Y024615D02*
X002583Y024615D01*
X002583Y024773D02*
X002822Y024773D01*
X002846Y024932D02*
X002583Y024932D01*
X002583Y025090D02*
X002891Y025090D01*
X002960Y025249D02*
X002583Y025249D01*
X002583Y025407D02*
X003055Y025407D01*
X003185Y025566D02*
X002583Y025566D01*
X002583Y025724D02*
X003366Y025724D01*
X003657Y025883D02*
X002583Y025883D01*
X002583Y026041D02*
X005360Y026041D01*
X005201Y026200D02*
X002583Y026200D01*
X002583Y026358D02*
X005043Y026358D01*
X004884Y026517D02*
X002583Y026517D01*
X002583Y026675D02*
X004726Y026675D01*
X004567Y026834D02*
X002583Y026834D01*
X002583Y026992D02*
X004409Y026992D01*
X003897Y027151D02*
X003434Y027151D01*
X003593Y027309D02*
X003738Y027309D01*
X003208Y028102D02*
X003208Y028102D01*
X002583Y028419D02*
X005763Y028419D01*
X006067Y028577D02*
X002583Y028577D01*
X002583Y028736D02*
X040149Y028736D01*
X040149Y028894D02*
X002583Y028894D01*
X002583Y029053D02*
X040150Y029053D01*
X040150Y029083D02*
X040089Y002583D01*
X002583Y002583D01*
X040089Y002583D01*
X040089Y002742D02*
X002583Y002742D01*
X002583Y002900D02*
X040090Y002900D01*
X040090Y003059D02*
X002583Y003059D01*
X002583Y003217D02*
X002955Y003217D01*
X002972Y003201D02*
X003444Y003201D01*
X003750Y003507D01*
X003997Y003261D01*
X004208Y003261D01*
X004208Y003771D01*
X004208Y004281D01*
X003997Y004281D01*
X003750Y004034D01*
X003444Y004341D01*
X002972Y004341D01*
X002638Y004007D01*
X002638Y003534D01*
X002583Y003534D01*
X002638Y003534D02*
X002972Y003201D01*
X002797Y003376D02*
X002583Y003376D01*
X002583Y003693D02*
X002638Y003693D01*
X002638Y003851D02*
X002583Y003851D01*
X002583Y004010D02*
X002641Y004010D01*
X002583Y004168D02*
X002799Y004168D01*
X002958Y004327D02*
X002583Y004327D01*
X002583Y004485D02*
X005637Y004485D01*
X005534Y004327D02*
X003458Y004327D01*
X003617Y004168D02*
X003884Y004168D01*
X004208Y004168D02*
X004208Y004168D01*
X004208Y004281D02*
X004419Y004281D01*
X004718Y003982D01*
X004718Y003771D01*
X004208Y003771D01*
X004208Y003771D01*
X004208Y004281D01*
X004208Y004010D02*
X004208Y004010D01*
X004208Y003851D02*
X004208Y003851D01*
X004208Y003771D02*
X004208Y003771D01*
X004718Y003771D01*
X004718Y003559D01*
X004419Y003261D01*
X004208Y003261D01*
X004208Y003771D01*
X004208Y003771D01*
X004208Y003693D02*
X004208Y003693D01*
X004208Y003534D02*
X004208Y003534D01*
X004208Y003376D02*
X004208Y003376D01*
X003882Y003376D02*
X003619Y003376D01*
X003461Y003217D02*
X005794Y003217D01*
X005635Y003376D02*
X004534Y003376D01*
X004693Y003534D02*
X005534Y003534D01*
X005468Y003693D02*
X004718Y003693D01*
X004718Y003851D02*
X005441Y003851D01*
X005441Y004010D02*
X004690Y004010D01*
X004532Y004168D02*
X005469Y004168D01*
X005795Y004644D02*
X002583Y004644D01*
X002583Y004802D02*
X040094Y004802D01*
X040094Y004644D02*
X038371Y004644D01*
X038529Y004485D02*
X040093Y004485D01*
X040093Y004327D02*
X038632Y004327D01*
X038698Y004168D02*
X040093Y004168D01*
X040092Y004010D02*
X038725Y004010D01*
X038725Y003851D02*
X040092Y003851D01*
X040092Y003693D02*
X038698Y003693D01*
X038633Y003534D02*
X040091Y003534D01*
X040091Y003376D02*
X038531Y003376D01*
X038373Y003217D02*
X040090Y003217D01*
X033678Y009082D02*
X030106Y009082D01*
X030052Y009028D02*
X030451Y009426D01*
X030451Y009688D01*
X029791Y009688D01*
X029791Y009728D01*
X030451Y009728D01*
X030451Y009990D01*
X030052Y010388D01*
X029791Y010388D01*
X029791Y009728D01*
X029751Y009728D01*
X029751Y010388D01*
X029489Y010388D01*
X029091Y009990D01*
X029091Y009728D01*
X029751Y009728D01*
X029751Y009688D01*
X029791Y009688D01*
X029791Y009028D01*
X030052Y009028D01*
X029791Y009082D02*
X029751Y009082D01*
X029751Y009028D02*
X029751Y009688D01*
X029091Y009688D01*
X029091Y009426D01*
X029489Y009028D01*
X029751Y009028D01*
X029751Y009240D02*
X029791Y009240D01*
X029791Y009399D02*
X029751Y009399D01*
X029751Y009557D02*
X029791Y009557D01*
X029791Y009716D02*
X033678Y009716D01*
X033678Y009874D02*
X030451Y009874D01*
X030408Y010033D02*
X033678Y010033D01*
X033678Y010191D02*
X030249Y010191D01*
X030091Y010350D02*
X033678Y010350D01*
X033678Y010508D02*
X030083Y010508D01*
X029791Y010350D02*
X029751Y010350D01*
X029751Y010191D02*
X029791Y010191D01*
X029791Y010033D02*
X029751Y010033D01*
X029751Y009874D02*
X029791Y009874D01*
X029751Y009716D02*
X020334Y009716D01*
X020334Y009874D02*
X029091Y009874D01*
X029133Y010033D02*
X020327Y010033D01*
X020184Y010191D02*
X029292Y010191D01*
X029450Y010350D02*
X026146Y010350D01*
X025771Y010350D02*
X017826Y010350D01*
X017667Y010508D02*
X025340Y010508D01*
X025121Y010667D02*
X017568Y010667D01*
X017568Y010825D02*
X024964Y010825D01*
X028043Y013837D02*
X018778Y013837D01*
X018778Y013995D02*
X028169Y013995D01*
X028327Y014154D02*
X018778Y014154D01*
X018778Y014312D02*
X030081Y014312D01*
X030117Y014154D02*
X028839Y014154D01*
X028997Y013995D02*
X030174Y013995D01*
X030253Y013837D02*
X029123Y013837D01*
X029123Y013678D02*
X030366Y013678D01*
X030519Y013520D02*
X029123Y013520D01*
X029062Y013361D02*
X030743Y013361D01*
X031208Y013203D02*
X029023Y013203D01*
X029023Y013044D02*
X033678Y013044D01*
X033678Y013203D02*
X031583Y013203D01*
X031476Y013203D02*
X031316Y013203D01*
X031316Y013361D02*
X031476Y013361D01*
X031476Y013520D02*
X031316Y013520D01*
X031316Y013678D02*
X031476Y013678D01*
X031476Y013837D02*
X031316Y013837D01*
X031316Y013995D02*
X031476Y013995D01*
X031476Y014154D02*
X031316Y014154D01*
X031316Y014629D02*
X031476Y014629D01*
X031476Y014788D02*
X031316Y014788D01*
X031316Y014946D02*
X031476Y014946D01*
X031476Y015105D02*
X031316Y015105D01*
X031316Y015263D02*
X031476Y015263D01*
X031476Y015422D02*
X031316Y015422D01*
X031316Y015580D02*
X031476Y015580D01*
X031476Y015739D02*
X031316Y015739D01*
X032710Y014312D02*
X033678Y014312D01*
X033678Y014154D02*
X032674Y014154D01*
X032617Y013995D02*
X033678Y013995D01*
X033678Y013837D02*
X032538Y013837D01*
X032425Y013678D02*
X033678Y013678D01*
X033678Y013520D02*
X032272Y013520D01*
X032048Y013361D02*
X033678Y013361D01*
X033678Y009557D02*
X030451Y009557D01*
X030423Y009399D02*
X033678Y009399D01*
X033678Y009240D02*
X030264Y009240D01*
X029435Y009082D02*
X012380Y009082D01*
X012459Y009240D02*
X029277Y009240D01*
X029118Y009399D02*
X020259Y009399D01*
X020334Y009557D02*
X029091Y009557D01*
X019607Y010191D02*
X017984Y010191D01*
X017441Y009716D02*
X012454Y009716D01*
X012459Y009557D02*
X017600Y009557D01*
X017283Y009874D02*
X012361Y009874D01*
X012361Y010033D02*
X017124Y010033D01*
X016966Y010191D02*
X012361Y010191D01*
X012396Y010350D02*
X016863Y010350D01*
X016848Y010508D02*
X012826Y010508D01*
X013045Y010667D02*
X016848Y010667D01*
X016848Y010825D02*
X013202Y010825D01*
X013294Y010984D02*
X016848Y010984D01*
X016673Y011142D02*
X013374Y011142D01*
X013416Y011301D02*
X016578Y011301D01*
X016518Y011459D02*
X013448Y011459D01*
X013448Y011618D02*
X016518Y011618D01*
X016541Y011776D02*
X013448Y011776D01*
X013408Y011935D02*
X016607Y011935D01*
X016742Y012093D02*
X013366Y012093D01*
X013313Y012252D02*
X017019Y012252D01*
X017397Y012252D02*
X018138Y012252D01*
X018138Y012410D02*
X013361Y012410D01*
X013361Y012569D02*
X018138Y012569D01*
X018138Y012727D02*
X013361Y012727D01*
X013371Y012886D02*
X018138Y012886D01*
X018138Y013044D02*
X013459Y013044D01*
X013459Y013203D02*
X018138Y013203D01*
X018138Y013361D02*
X013459Y013361D01*
X013457Y013520D02*
X018138Y013520D01*
X018138Y013678D02*
X013340Y013678D01*
X012701Y013678D02*
X012090Y013678D01*
X012207Y013520D02*
X012584Y013520D01*
X012582Y013361D02*
X012209Y013361D01*
X012209Y013203D02*
X012582Y013203D01*
X012582Y013044D02*
X012209Y013044D01*
X012121Y012886D02*
X012670Y012886D01*
X011420Y012886D02*
X010735Y012886D01*
X010683Y013044D02*
X011332Y013044D01*
X011332Y013203D02*
X010256Y013203D01*
X010160Y013203D02*
X008881Y013203D01*
X008785Y013203D02*
X004799Y013203D01*
X004799Y013361D02*
X008358Y013361D01*
X008358Y013278D02*
X008358Y013510D01*
X008370Y013556D01*
X008394Y013597D01*
X008427Y013630D01*
X008468Y013654D01*
X008514Y013666D01*
X008785Y013666D01*
X008785Y013278D01*
X008358Y013278D01*
X008358Y013044D02*
X004742Y013044D01*
X004677Y012886D02*
X008307Y012886D01*
X008360Y013520D02*
X004799Y013520D01*
X004737Y013678D02*
X010882Y013678D01*
X010724Y013837D02*
X004672Y013837D01*
X004519Y013995D02*
X010565Y013995D01*
X010407Y014154D02*
X004274Y014154D01*
X004532Y012727D02*
X007250Y012727D01*
X005641Y012093D02*
X005525Y012093D01*
X005525Y011935D02*
X005641Y011935D01*
X005641Y011776D02*
X005525Y011776D01*
X005525Y011459D02*
X005641Y011459D01*
X005641Y011301D02*
X005525Y011301D01*
X005525Y011142D02*
X005641Y011142D01*
X004990Y011935D02*
X002583Y011935D01*
X002583Y012093D02*
X005018Y012093D01*
X003396Y010508D02*
X002583Y010508D01*
X002583Y010350D02*
X003237Y010350D01*
X003145Y010191D02*
X002583Y010191D01*
X002583Y010033D02*
X003080Y010033D01*
X003060Y009874D02*
X002583Y009874D01*
X002583Y009716D02*
X003060Y009716D01*
X003093Y009557D02*
X002583Y009557D01*
X002583Y009399D02*
X003159Y009399D01*
X003271Y009240D02*
X002583Y009240D01*
X002583Y009082D02*
X003429Y009082D01*
X004430Y009082D02*
X011661Y009082D01*
X011582Y009240D02*
X004588Y009240D01*
X004700Y009399D02*
X011582Y009399D01*
X011582Y009557D02*
X004766Y009557D01*
X002822Y006704D02*
X002583Y006704D01*
X002583Y006546D02*
X002847Y006546D01*
X002891Y006387D02*
X002583Y006387D01*
X002583Y006229D02*
X002961Y006229D01*
X003056Y006070D02*
X002583Y006070D01*
X002583Y005912D02*
X003186Y005912D01*
X003368Y005753D02*
X002583Y005753D01*
X002583Y005595D02*
X003660Y005595D01*
X002583Y002583D02*
X002583Y029083D01*
X040150Y029083D01*
X040148Y028577D02*
X038099Y028577D01*
X038028Y028607D02*
X037682Y028607D01*
X037362Y028474D01*
X037117Y028229D01*
X036985Y027910D01*
X036985Y027564D01*
X037117Y027244D01*
X037362Y026999D01*
X037682Y026867D01*
X038028Y026867D01*
X038347Y026999D01*
X038592Y027244D01*
X038725Y027564D01*
X038725Y027910D01*
X038592Y028229D01*
X038347Y028474D01*
X038028Y028607D01*
X037611Y028577D02*
X034555Y028577D01*
X034484Y028607D02*
X034138Y028607D01*
X033819Y028474D01*
X033574Y028229D01*
X033441Y027910D01*
X033441Y027564D01*
X033574Y027244D01*
X033819Y026999D01*
X034138Y026867D01*
X034484Y026867D01*
X034804Y026999D01*
X035049Y027244D01*
X035181Y027564D01*
X035181Y027910D01*
X035049Y028229D01*
X034804Y028474D01*
X034484Y028607D01*
X034067Y028577D02*
X031099Y028577D01*
X031028Y028607D02*
X030682Y028607D01*
X030362Y028474D01*
X030117Y028229D01*
X029985Y027910D01*
X029985Y027564D01*
X030117Y027244D01*
X030362Y026999D01*
X030682Y026867D01*
X031028Y026867D01*
X031347Y026999D01*
X031592Y027244D01*
X031725Y027564D01*
X031725Y027910D01*
X031592Y028229D01*
X031347Y028474D01*
X031028Y028607D01*
X030611Y028577D02*
X027555Y028577D01*
X027484Y028607D02*
X027138Y028607D01*
X026819Y028474D01*
X026574Y028229D01*
X026441Y027910D01*
X026441Y027564D01*
X026574Y027244D01*
X026819Y026999D01*
X027138Y026867D01*
X027484Y026867D01*
X027804Y026999D01*
X028049Y027244D01*
X028181Y027564D01*
X028181Y027910D01*
X028049Y028229D01*
X027804Y028474D01*
X027484Y028607D01*
X027067Y028577D02*
X024099Y028577D01*
X024028Y028607D02*
X023682Y028607D01*
X023362Y028474D01*
X023117Y028229D01*
X022985Y027910D01*
X022985Y027564D01*
X023117Y027244D01*
X023362Y026999D01*
X023682Y026867D01*
X024028Y026867D01*
X024347Y026999D01*
X024592Y027244D01*
X024725Y027564D01*
X024725Y027910D01*
X024592Y028229D01*
X024347Y028474D01*
X024028Y028607D01*
X023611Y028577D02*
X020555Y028577D01*
X020484Y028607D02*
X020138Y028607D01*
X019819Y028474D01*
X019574Y028229D01*
X019441Y027910D01*
X019441Y027564D01*
X019574Y027244D01*
X019819Y026999D01*
X020138Y026867D01*
X020484Y026867D01*
X020804Y026999D01*
X021049Y027244D01*
X021181Y027564D01*
X021181Y027910D01*
X021049Y028229D01*
X020804Y028474D01*
X020484Y028607D01*
X020067Y028577D02*
X017099Y028577D01*
X017028Y028607D02*
X017347Y028474D01*
X017592Y028229D01*
X017725Y027910D01*
X017725Y027564D01*
X017592Y027244D01*
X017347Y026999D01*
X017028Y026867D01*
X016682Y026867D01*
X016362Y026999D01*
X016117Y027244D01*
X015985Y027564D01*
X015985Y027910D01*
X016117Y028229D01*
X016362Y028474D01*
X016682Y028607D01*
X017028Y028607D01*
X016611Y028577D02*
X013555Y028577D01*
X013484Y028607D02*
X013138Y028607D01*
X012819Y028474D01*
X012574Y028229D01*
X012441Y027910D01*
X012441Y027564D01*
X012574Y027244D01*
X012819Y026999D01*
X013138Y026867D01*
X013484Y026867D01*
X013804Y026999D01*
X014049Y027244D01*
X014181Y027564D01*
X014181Y027910D01*
X014049Y028229D01*
X013804Y028474D01*
X013484Y028607D01*
X013067Y028577D02*
X010099Y028577D01*
X010028Y028607D02*
X009682Y028607D01*
X009362Y028474D01*
X009117Y028229D01*
X008985Y027910D01*
X008985Y027564D01*
X009117Y027244D01*
X009362Y026999D01*
X009682Y026867D01*
X010028Y026867D01*
X010347Y026999D01*
X010592Y027244D01*
X010725Y027564D01*
X010725Y027910D01*
X010592Y028229D01*
X010347Y028474D01*
X010028Y028607D01*
X009611Y028577D02*
X006555Y028577D01*
X006860Y028419D02*
X009306Y028419D01*
X009148Y028260D02*
X007018Y028260D01*
X007102Y028102D02*
X009064Y028102D01*
X008999Y027943D02*
X007167Y027943D01*
X007181Y027785D02*
X008985Y027785D01*
X008985Y027626D02*
X007181Y027626D01*
X007142Y027468D02*
X009025Y027468D01*
X009090Y027309D02*
X007076Y027309D01*
X006956Y027151D02*
X009210Y027151D01*
X009379Y026992D02*
X006787Y026992D01*
X008025Y026675D02*
X008141Y026675D01*
X008141Y026517D02*
X008025Y026517D01*
X008025Y026358D02*
X008141Y026358D01*
X008525Y026675D02*
X014641Y026675D01*
X014490Y026517D02*
X008676Y026517D01*
X008676Y026358D02*
X014490Y026358D01*
X014490Y026200D02*
X008676Y026200D01*
X008676Y025883D02*
X014490Y025883D01*
X014490Y025724D02*
X008676Y025724D01*
X008644Y025566D02*
X014522Y025566D01*
X015025Y025566D02*
X015141Y025566D01*
X015141Y025724D02*
X015025Y025724D01*
X015025Y025883D02*
X015141Y025883D01*
X015676Y025883D02*
X021490Y025883D01*
X021490Y025724D02*
X015676Y025724D01*
X015644Y025566D02*
X021522Y025566D01*
X022025Y025566D02*
X022141Y025566D01*
X022141Y025724D02*
X022025Y025724D01*
X022025Y025883D02*
X022141Y025883D01*
X021490Y026200D02*
X015676Y026200D01*
X015676Y026358D02*
X021490Y026358D01*
X021490Y026517D02*
X015676Y026517D01*
X015525Y026675D02*
X021641Y026675D01*
X022025Y026675D02*
X022141Y026675D01*
X022141Y026517D02*
X022025Y026517D01*
X022025Y026358D02*
X022141Y026358D01*
X022525Y026675D02*
X028641Y026675D01*
X028490Y026517D02*
X022676Y026517D01*
X022676Y026358D02*
X028490Y026358D01*
X028490Y026200D02*
X022676Y026200D01*
X022676Y025883D02*
X028490Y025883D01*
X028490Y025724D02*
X022676Y025724D01*
X022644Y025566D02*
X028522Y025566D01*
X029025Y025566D02*
X029141Y025566D01*
X029141Y025724D02*
X029025Y025724D01*
X029025Y025883D02*
X029141Y025883D01*
X029676Y025883D02*
X035490Y025883D01*
X035490Y025724D02*
X029676Y025724D01*
X029644Y025566D02*
X035522Y025566D01*
X036025Y025566D02*
X036141Y025566D01*
X036141Y025724D02*
X036025Y025724D01*
X036025Y025883D02*
X036141Y025883D01*
X036141Y026200D02*
X036025Y026200D01*
X036025Y026358D02*
X036141Y026358D01*
X036141Y026517D02*
X036025Y026517D01*
X036025Y026675D02*
X036141Y026675D01*
X036525Y026675D02*
X040144Y026675D01*
X040144Y026517D02*
X036676Y026517D01*
X036676Y026358D02*
X040143Y026358D01*
X040143Y026200D02*
X036676Y026200D01*
X035641Y026675D02*
X029525Y026675D01*
X029676Y026517D02*
X035490Y026517D01*
X035490Y026358D02*
X029676Y026358D01*
X029676Y026200D02*
X035490Y026200D01*
X034787Y026992D02*
X037379Y026992D01*
X037210Y027151D02*
X034956Y027151D01*
X035076Y027309D02*
X037090Y027309D01*
X037025Y027468D02*
X035142Y027468D01*
X035181Y027626D02*
X036985Y027626D01*
X036985Y027785D02*
X035181Y027785D01*
X035167Y027943D02*
X036999Y027943D01*
X037064Y028102D02*
X035102Y028102D01*
X035018Y028260D02*
X037148Y028260D01*
X037306Y028419D02*
X034860Y028419D01*
X033763Y028419D02*
X031403Y028419D01*
X031561Y028260D02*
X033605Y028260D01*
X033521Y028102D02*
X031645Y028102D01*
X031711Y027943D02*
X033455Y027943D01*
X033441Y027785D02*
X031725Y027785D01*
X031725Y027626D02*
X033441Y027626D01*
X033481Y027468D02*
X031685Y027468D01*
X031619Y027309D02*
X033547Y027309D01*
X033667Y027151D02*
X031499Y027151D01*
X031331Y026992D02*
X033836Y026992D01*
X030379Y026992D02*
X027787Y026992D01*
X027956Y027151D02*
X030210Y027151D01*
X030090Y027309D02*
X028076Y027309D01*
X028142Y027468D02*
X030025Y027468D01*
X029985Y027626D02*
X028181Y027626D01*
X028181Y027785D02*
X029985Y027785D01*
X029999Y027943D02*
X028167Y027943D01*
X028102Y028102D02*
X030064Y028102D01*
X030148Y028260D02*
X028018Y028260D01*
X027860Y028419D02*
X030306Y028419D01*
X029141Y026675D02*
X029025Y026675D01*
X029025Y026517D02*
X029141Y026517D01*
X029141Y026358D02*
X029025Y026358D01*
X026836Y026992D02*
X024331Y026992D01*
X024499Y027151D02*
X026667Y027151D01*
X026547Y027309D02*
X024619Y027309D01*
X024685Y027468D02*
X026481Y027468D01*
X026441Y027626D02*
X024725Y027626D01*
X024725Y027785D02*
X026441Y027785D01*
X026455Y027943D02*
X024711Y027943D01*
X024645Y028102D02*
X026521Y028102D01*
X026605Y028260D02*
X024561Y028260D01*
X024403Y028419D02*
X026763Y028419D01*
X023306Y028419D02*
X020860Y028419D01*
X021018Y028260D02*
X023148Y028260D01*
X023064Y028102D02*
X021102Y028102D01*
X021167Y027943D02*
X022999Y027943D01*
X022985Y027785D02*
X021181Y027785D01*
X021181Y027626D02*
X022985Y027626D01*
X023025Y027468D02*
X021142Y027468D01*
X021076Y027309D02*
X023090Y027309D01*
X023210Y027151D02*
X020956Y027151D01*
X020787Y026992D02*
X023379Y026992D01*
X019836Y026992D02*
X017331Y026992D01*
X017499Y027151D02*
X019667Y027151D01*
X019547Y027309D02*
X017619Y027309D01*
X017685Y027468D02*
X019481Y027468D01*
X019441Y027626D02*
X017725Y027626D01*
X017725Y027785D02*
X019441Y027785D01*
X019455Y027943D02*
X017711Y027943D01*
X017645Y028102D02*
X019521Y028102D01*
X019605Y028260D02*
X017561Y028260D01*
X017403Y028419D02*
X019763Y028419D01*
X016306Y028419D02*
X013860Y028419D01*
X014018Y028260D02*
X016148Y028260D01*
X016064Y028102D02*
X014102Y028102D01*
X014167Y027943D02*
X015999Y027943D01*
X015985Y027785D02*
X014181Y027785D01*
X014181Y027626D02*
X015985Y027626D01*
X016025Y027468D02*
X014142Y027468D01*
X014076Y027309D02*
X016090Y027309D01*
X016210Y027151D02*
X013956Y027151D01*
X013787Y026992D02*
X016379Y026992D01*
X015141Y026675D02*
X015025Y026675D01*
X015025Y026517D02*
X015141Y026517D01*
X015141Y026358D02*
X015025Y026358D01*
X012836Y026992D02*
X010331Y026992D01*
X010499Y027151D02*
X012667Y027151D01*
X012547Y027309D02*
X010619Y027309D01*
X010685Y027468D02*
X012481Y027468D01*
X012441Y027626D02*
X010725Y027626D01*
X010725Y027785D02*
X012441Y027785D01*
X012455Y027943D02*
X010711Y027943D01*
X010645Y028102D02*
X012521Y028102D01*
X012605Y028260D02*
X010561Y028260D01*
X010403Y028419D02*
X012763Y028419D01*
X008141Y025883D02*
X008025Y025883D01*
X008025Y025724D02*
X008141Y025724D01*
X008141Y025566D02*
X008025Y025566D01*
X007359Y024932D02*
X006747Y024932D01*
X006883Y024773D02*
X007185Y024773D01*
X007054Y024615D02*
X006888Y024615D01*
X006888Y024456D02*
X006962Y024456D01*
X006901Y024298D02*
X006888Y024298D01*
X006864Y023347D02*
X006981Y023347D01*
X007072Y023188D02*
X002583Y023188D01*
X002583Y023030D02*
X007218Y023030D01*
X007416Y022871D02*
X002583Y022871D01*
X002583Y022713D02*
X007790Y022713D01*
X007913Y022123D02*
X007715Y022041D01*
X007563Y021889D01*
X007481Y021690D01*
X007481Y021476D01*
X007563Y021277D01*
X007715Y021125D01*
X007913Y021043D01*
X008128Y021043D01*
X008326Y021125D01*
X008478Y021277D01*
X008521Y021379D01*
X008563Y021277D01*
X008715Y021125D01*
X008913Y021043D01*
X009128Y021043D01*
X009326Y021125D01*
X009478Y021277D01*
X009521Y021379D01*
X009563Y021277D01*
X009715Y021125D01*
X009913Y021043D01*
X010128Y021043D01*
X010326Y021125D01*
X010478Y021277D01*
X010561Y021476D01*
X010561Y021690D01*
X010478Y021889D01*
X010326Y022041D01*
X010128Y022123D01*
X009913Y022123D01*
X009715Y022041D01*
X009563Y021889D01*
X009521Y021787D01*
X009478Y021889D01*
X009326Y022041D01*
X009128Y022123D01*
X008913Y022123D01*
X008715Y022041D01*
X008563Y021889D01*
X008521Y021787D01*
X008478Y021889D01*
X008326Y022041D01*
X008128Y022123D01*
X007913Y022123D01*
X007806Y022079D02*
X004519Y022079D01*
X004507Y022091D02*
X004034Y022091D01*
X003728Y021784D01*
X003482Y022031D01*
X003271Y022031D01*
X003271Y021521D01*
X003271Y021521D01*
X003271Y022031D01*
X003059Y022031D01*
X002761Y021732D01*
X002761Y021521D01*
X003271Y021521D01*
X003271Y021011D01*
X003482Y021011D01*
X003728Y021257D01*
X004034Y020951D01*
X004507Y020951D01*
X004841Y021284D01*
X004841Y021757D01*
X004507Y022091D01*
X004677Y021920D02*
X007594Y021920D01*
X007510Y021762D02*
X004836Y021762D01*
X004841Y021603D02*
X007481Y021603D01*
X007493Y021445D02*
X004841Y021445D01*
X004841Y021286D02*
X007559Y021286D01*
X007712Y021128D02*
X004684Y021128D01*
X004525Y020969D02*
X028228Y020969D01*
X028103Y020811D02*
X002583Y020811D01*
X002583Y020969D02*
X004016Y020969D01*
X003857Y021128D02*
X003599Y021128D01*
X003271Y021128D02*
X003271Y021128D01*
X003271Y021011D02*
X003271Y021521D01*
X003271Y021521D01*
X003271Y021521D01*
X002761Y021521D01*
X002761Y021309D01*
X003059Y021011D01*
X003271Y021011D01*
X003271Y021286D02*
X003271Y021286D01*
X003271Y021445D02*
X003271Y021445D01*
X003271Y021603D02*
X003271Y021603D01*
X003271Y021762D02*
X003271Y021762D01*
X003271Y021920D02*
X003271Y021920D01*
X003592Y021920D02*
X003864Y021920D01*
X004023Y022079D02*
X002583Y022079D01*
X002583Y022237D02*
X010983Y022237D01*
X010983Y022179D02*
X010995Y022134D01*
X011019Y022093D01*
X011052Y022059D01*
X011093Y022035D01*
X011139Y022023D01*
X011410Y022023D01*
X011410Y022411D01*
X010983Y022411D01*
X010983Y022179D01*
X011033Y022079D02*
X010235Y022079D01*
X010447Y021920D02*
X031827Y021920D01*
X031843Y021910D02*
X031889Y021898D01*
X032160Y021898D01*
X032160Y022286D01*
X031733Y022286D01*
X031733Y022054D01*
X031745Y022009D01*
X031769Y021968D01*
X031802Y021934D01*
X031843Y021910D01*
X031733Y022079D02*
X026008Y022079D01*
X026058Y022237D02*
X031733Y022237D01*
X031733Y022396D02*
X026058Y022396D01*
X026058Y022554D02*
X031733Y022554D01*
X032160Y022237D02*
X032256Y022237D01*
X032256Y022079D02*
X032160Y022079D01*
X032160Y021920D02*
X032256Y021920D01*
X032590Y021920D02*
X033678Y021920D01*
X033678Y021762D02*
X010531Y021762D01*
X010561Y021603D02*
X033678Y021603D01*
X033678Y021445D02*
X010548Y021445D01*
X010482Y021286D02*
X030825Y021286D01*
X030572Y021128D02*
X010329Y021128D01*
X009712Y021128D02*
X009329Y021128D01*
X009482Y021286D02*
X009559Y021286D01*
X009594Y021920D02*
X009447Y021920D01*
X009235Y022079D02*
X009806Y022079D01*
X008806Y022079D02*
X008235Y022079D01*
X008447Y021920D02*
X008594Y021920D01*
X008559Y021286D02*
X008482Y021286D01*
X008329Y021128D02*
X008712Y021128D01*
X010983Y022396D02*
X002583Y022396D01*
X002583Y022554D02*
X010983Y022554D01*
X011410Y022396D02*
X011506Y022396D01*
X011506Y022237D02*
X011410Y022237D01*
X011410Y022079D02*
X011506Y022079D01*
X011883Y022079D02*
X018033Y022079D01*
X018019Y022093D02*
X018052Y022059D01*
X018093Y022035D01*
X018139Y022023D01*
X018410Y022023D01*
X018410Y022411D01*
X017983Y022411D01*
X017983Y022179D01*
X017995Y022134D01*
X018019Y022093D01*
X017983Y022237D02*
X011933Y022237D01*
X011933Y022396D02*
X017983Y022396D01*
X017983Y022554D02*
X011933Y022554D01*
X005473Y026834D02*
X040145Y026834D01*
X040145Y026992D02*
X038331Y026992D01*
X038499Y027151D02*
X040145Y027151D01*
X040146Y027309D02*
X038619Y027309D01*
X038685Y027468D02*
X040146Y027468D01*
X040146Y027626D02*
X038725Y027626D01*
X038725Y027785D02*
X040147Y027785D01*
X040147Y027943D02*
X038711Y027943D01*
X038645Y028102D02*
X040147Y028102D01*
X040148Y028260D02*
X038561Y028260D01*
X038403Y028419D02*
X040148Y028419D01*
X040138Y023822D02*
X039326Y023822D01*
X039479Y023664D02*
X040137Y023664D01*
X040137Y023505D02*
X039544Y023505D01*
X039607Y023347D02*
X040137Y023347D01*
X040136Y023188D02*
X039607Y023188D01*
X039607Y023030D02*
X040136Y023030D01*
X040135Y022871D02*
X039550Y022871D01*
X039484Y022713D02*
X040135Y022713D01*
X040135Y022554D02*
X039339Y022554D01*
X039113Y022396D02*
X040134Y022396D01*
X040133Y021920D02*
X037648Y021920D01*
X037676Y021762D02*
X040133Y021762D01*
X040130Y020335D02*
X037570Y020335D01*
X037676Y020177D02*
X040129Y020177D01*
X040129Y020018D02*
X037676Y020018D01*
X037676Y019860D02*
X040129Y019860D01*
X040128Y019701D02*
X037141Y019701D01*
X037141Y019543D02*
X037025Y019543D01*
X037025Y019384D02*
X037141Y019384D01*
X037141Y019226D02*
X037025Y019226D01*
X037634Y019226D02*
X040127Y019226D01*
X040127Y019384D02*
X037676Y019384D01*
X037676Y019543D02*
X040128Y019543D01*
X037141Y020969D02*
X037025Y020969D01*
X037025Y021128D02*
X037141Y021128D01*
X037141Y021286D02*
X037025Y021286D01*
X037025Y021603D02*
X037141Y021603D01*
X037141Y021762D02*
X037025Y021762D01*
X037025Y021920D02*
X037141Y021920D01*
X036490Y021286D02*
X036158Y021286D01*
X036158Y021128D02*
X036490Y021128D01*
X036491Y020969D02*
X036158Y020969D01*
X033678Y020969D02*
X032389Y020969D01*
X032382Y020977D02*
X032290Y021070D01*
X032189Y021153D01*
X032080Y021225D01*
X031965Y021287D01*
X031844Y021337D01*
X031719Y021375D01*
X031591Y021400D01*
X031476Y021412D01*
X031476Y020163D01*
X031476Y020177D02*
X031316Y020177D01*
X031316Y020335D02*
X031476Y020335D01*
X031476Y020494D02*
X031316Y020494D01*
X031316Y020652D02*
X031476Y020652D01*
X031476Y020811D02*
X031316Y020811D01*
X031316Y020969D02*
X031476Y020969D01*
X031476Y021128D02*
X031316Y021128D01*
X031316Y021286D02*
X031476Y021286D01*
X031966Y021286D02*
X033678Y021286D01*
X033678Y021128D02*
X032219Y021128D01*
X032382Y020977D02*
X032465Y020876D01*
X032538Y020768D01*
X032599Y020652D01*
X032509Y020811D02*
X033678Y020811D01*
X033678Y019701D02*
X032670Y019701D01*
X032611Y019543D02*
X033678Y019543D01*
X033678Y019384D02*
X032528Y019384D01*
X032412Y019226D02*
X033678Y019226D01*
X033678Y019067D02*
X032254Y019067D01*
X032020Y018909D02*
X033678Y018909D01*
X030537Y019067D02*
X026038Y019067D01*
X026038Y019226D02*
X025878Y019226D01*
X025878Y019384D02*
X026038Y019384D01*
X026038Y019543D02*
X025878Y019543D01*
X026389Y019543D02*
X030180Y019543D01*
X030263Y019384D02*
X026512Y019384D01*
X026573Y019226D02*
X030379Y019226D01*
X030068Y020177D02*
X028793Y020177D01*
X028951Y020335D02*
X030090Y020335D01*
X030142Y020532D02*
X030192Y020652D01*
X032683Y022079D02*
X033678Y022079D01*
X033678Y022237D02*
X032683Y022237D01*
X032683Y022396D02*
X033678Y022396D01*
X033678Y022554D02*
X032683Y022554D01*
X025631Y022396D02*
X025535Y022396D01*
X025535Y022411D02*
X025535Y022023D01*
X025264Y022023D01*
X025218Y022035D01*
X025177Y022059D01*
X025144Y022093D01*
X025120Y022134D01*
X025108Y022179D01*
X025108Y022411D01*
X025535Y022411D01*
X025535Y022237D02*
X025631Y022237D01*
X025631Y022079D02*
X025535Y022079D01*
X025158Y022079D02*
X018883Y022079D01*
X018933Y022237D02*
X025108Y022237D01*
X025108Y022396D02*
X018933Y022396D01*
X018933Y022554D02*
X025108Y022554D01*
X018506Y022396D02*
X018410Y022396D01*
X018410Y022237D02*
X018506Y022237D01*
X018506Y022079D02*
X018410Y022079D01*
X017615Y016848D02*
X007575Y016848D01*
X007688Y016690D02*
X017774Y016690D01*
X017933Y016531D02*
X007721Y016531D01*
X007695Y016373D02*
X018091Y016373D01*
X018138Y016214D02*
X007596Y016214D01*
X008781Y015580D02*
X018138Y015580D01*
X018138Y015422D02*
X008781Y015422D01*
X008715Y015263D02*
X009782Y015263D01*
X010259Y015263D02*
X018138Y015263D01*
X018138Y015105D02*
X010417Y015105D01*
X010576Y014946D02*
X018138Y014946D01*
X018138Y014788D02*
X010734Y014788D01*
X010893Y014629D02*
X018138Y014629D01*
X018138Y014471D02*
X011051Y014471D01*
X011210Y014312D02*
X018138Y014312D01*
X018138Y014154D02*
X011368Y014154D01*
X011527Y013995D02*
X018138Y013995D01*
X018138Y013837D02*
X011685Y013837D01*
X011199Y013361D02*
X010683Y013361D01*
X010681Y013520D02*
X011041Y013520D01*
X010256Y013520D02*
X010160Y013520D01*
X010160Y013666D02*
X010160Y013278D01*
X009733Y013278D01*
X009733Y013510D01*
X009745Y013556D01*
X009769Y013597D01*
X009802Y013630D01*
X009843Y013654D01*
X009889Y013666D01*
X010160Y013666D01*
X010160Y013361D02*
X010256Y013361D01*
X009733Y013361D02*
X009308Y013361D01*
X009306Y013520D02*
X009735Y013520D01*
X009733Y013044D02*
X009308Y013044D01*
X009360Y012886D02*
X009682Y012886D01*
X008881Y013361D02*
X008785Y013361D01*
X008785Y013520D02*
X008881Y013520D01*
X004801Y016690D02*
X002583Y016690D01*
X002583Y016848D02*
X004663Y016848D01*
X004605Y017007D02*
X002583Y017007D01*
X002583Y017165D02*
X004605Y017165D01*
X004666Y017324D02*
X002583Y017324D01*
X002583Y017482D02*
X004806Y017482D01*
X004903Y017641D02*
X002583Y017641D01*
X002583Y017799D02*
X004691Y017799D01*
X004618Y017958D02*
X002583Y017958D01*
X002583Y018116D02*
X004605Y018116D01*
X004645Y018275D02*
X002583Y018275D01*
X002583Y018433D02*
X004757Y018433D01*
X002942Y021128D02*
X002583Y021128D01*
X002583Y021286D02*
X002784Y021286D01*
X002761Y021445D02*
X002583Y021445D01*
X002583Y021603D02*
X002761Y021603D01*
X002790Y021762D02*
X002583Y021762D01*
X002583Y021920D02*
X002949Y021920D01*
X002583Y023347D02*
X003859Y023347D01*
X003458Y023505D02*
X002583Y023505D01*
X002583Y023664D02*
X003247Y023664D01*
X003101Y023822D02*
X002583Y023822D01*
X002583Y023981D02*
X002993Y023981D01*
X002916Y024139D02*
X002583Y024139D01*
X002583Y024298D02*
X002861Y024298D01*
X002828Y024456D02*
X002583Y024456D01*
X017674Y012093D02*
X017992Y012093D01*
X017857Y011935D02*
X017809Y011935D01*
X017743Y011142D02*
X017923Y011142D01*
X018102Y010984D02*
X017568Y010984D01*
X018814Y010984D02*
X019261Y010984D01*
X019103Y011142D02*
X018993Y011142D01*
X019532Y009399D02*
X012459Y009399D01*
D24*
X012021Y009458D03*
X011771Y013271D03*
X013021Y013271D03*
X019896Y009771D03*
X016083Y018833D03*
D25*
X015083Y023918D02*
X022083Y023918D01*
X029083Y023918D01*
X032396Y023918D01*
X036083Y023918D01*
X034918Y022752D01*
X034918Y021410D01*
X034918Y019756D01*
X034918Y012410D01*
X034918Y011771D01*
X029833Y011771D01*
X029771Y011708D01*
X026083Y011708D01*
X025958Y011583D01*
X028833Y007748D02*
X022083Y007748D01*
X015083Y007748D01*
X014771Y007748D01*
X008083Y007748D01*
X007958Y011583D02*
X012208Y011583D01*
X012208Y011622D01*
X007958Y011583D02*
X007748Y011583D01*
X008083Y023918D02*
X015083Y023918D01*
X034918Y011771D02*
X034918Y010756D01*
X034918Y008914D01*
X036083Y007748D01*
X029083Y007748D01*
X028833Y007748D01*
D26*
X026499Y007748D01*
X025708Y006957D01*
X022083Y007748D02*
X019499Y007748D01*
X018708Y006957D01*
X014771Y007748D02*
X012624Y007748D01*
X011958Y007082D01*
X012021Y009458D02*
X012021Y011396D01*
X012208Y011583D01*
X012208Y011622D02*
X013021Y012435D01*
X013021Y013271D01*
X011771Y013271D02*
X010021Y015021D01*
X010208Y012561D02*
X009230Y011583D01*
X007748Y011583D01*
X008601Y010730D01*
X010146Y010730D01*
X008771Y010730D02*
X008771Y010771D01*
X007958Y011583D01*
X007748Y011583D02*
X008726Y012561D01*
X008833Y012561D01*
X008794Y023207D02*
X008083Y023918D01*
X007874Y023709D01*
X006333Y023709D01*
X006333Y024457D02*
X006209Y024583D01*
X008794Y023207D02*
X011458Y023207D01*
X015083Y023918D02*
X015794Y023207D01*
X018458Y023207D01*
X022083Y023918D02*
X022794Y023207D01*
X025583Y023207D01*
X032208Y023082D02*
X032396Y023270D01*
X032396Y023918D01*
X034348Y012410D02*
X034918Y012410D01*
X036083Y007748D02*
X033499Y007748D01*
X032833Y007082D01*
D27*
X019896Y009771D02*
X017896Y009771D01*
X017208Y010458D01*
X017208Y011583D01*
D28*
X019708Y011583D02*
X025958Y011583D01*
D29*
X028521Y011958D02*
X028583Y012021D01*
X029458Y012021D01*
X029771Y011708D01*
X028583Y012021D02*
X028583Y013646D01*
M02*
