G75*
%MOIN*%
%OFA0B0*%
%FSLAX24Y24*%
%IPPOS*%
%LPD*%
%AMOC8*
5,1,8,0,0,1.08239X$1,22.5*
%
%ADD10C,0.1080*%
%ADD11OC8,0.1080*%
%ADD12OC8,0.0740*%
%ADD13R,0.0907X0.0907*%
%ADD14C,0.1340*%
%ADD15C,0.0980*%
%ADD16C,0.0556*%
%ADD17R,0.0476X0.0476*%
%ADD18C,0.0476*%
D10*
X030583Y014083D03*
D11*
X030583Y016083D03*
D12*
X007833Y017708D03*
X007833Y018708D03*
D13*
X007748Y015083D03*
X005583Y015083D03*
X007583Y007748D03*
X007583Y005583D03*
X014583Y005583D03*
X014583Y007748D03*
X021583Y007748D03*
X021583Y005583D03*
X028583Y005583D03*
X028583Y007748D03*
X035583Y007748D03*
X035583Y005583D03*
X035418Y014256D03*
X035418Y015910D03*
X037583Y015910D03*
X037583Y014256D03*
X035583Y022418D03*
X035583Y024583D03*
X028583Y024583D03*
X028583Y022418D03*
X021583Y022418D03*
X021583Y024583D03*
X014583Y024583D03*
X014583Y022418D03*
X007583Y022418D03*
X007583Y024583D03*
D14*
X005811Y003930D03*
X009355Y003930D03*
X012811Y003930D03*
X016355Y003930D03*
X019811Y003930D03*
X023355Y003930D03*
X026811Y003930D03*
X030355Y003930D03*
X033811Y003930D03*
X037355Y003930D03*
X039237Y012485D03*
X039237Y017681D03*
X037355Y026237D03*
X033811Y026237D03*
X030355Y026237D03*
X026811Y026237D03*
X023355Y026237D03*
X019811Y026237D03*
X016355Y026237D03*
X012811Y026237D03*
X009355Y026237D03*
X005811Y026237D03*
X003930Y016855D03*
X003930Y013311D03*
D15*
X012208Y011333D03*
X017208Y011333D03*
X018458Y011333D03*
X019708Y011333D03*
X025958Y011333D03*
X025958Y018833D03*
X012208Y018833D03*
D16*
X005083Y010583D03*
X005083Y009583D03*
X005083Y008583D03*
D17*
X016333Y017833D03*
X019708Y012958D03*
D18*
X014458Y011333D03*
M02*
