G75*
%MOIN*%
%OFA0B0*%
%FSLAX24Y24*%
%IPPOS*%
%LPD*%
%AMOC8*
5,1,8,0,0,1.08239X$1,22.5*
%
%ADD10C,0.1080*%
%ADD11OC8,0.1080*%
%ADD12R,0.0592X0.0671*%
%ADD13OC8,0.0740*%
%ADD14R,0.0907X0.0907*%
%ADD15C,0.1340*%
%ADD16R,0.0710X0.0592*%
%ADD17R,0.0592X0.0710*%
%ADD18R,0.0960X0.0560*%
%ADD19R,0.0946X0.1497*%
%ADD20C,0.0556*%
%ADD21R,0.0476X0.0476*%
%ADD22C,0.0476*%
D10*
X030583Y014083D03*
D11*
X030583Y016083D03*
D12*
X016418Y011333D03*
X015748Y011333D03*
D13*
X007833Y017708D03*
X007833Y018708D03*
D14*
X007748Y015083D03*
X005583Y015083D03*
X007583Y007748D03*
X007583Y005583D03*
X014583Y005583D03*
X014583Y007748D03*
X021583Y007748D03*
X021583Y005583D03*
X028583Y005583D03*
X028583Y007748D03*
X035583Y007748D03*
X035583Y005583D03*
X035418Y014256D03*
X035418Y015910D03*
X037583Y015910D03*
X037583Y014256D03*
X035583Y022418D03*
X035583Y024583D03*
X028583Y024583D03*
X028583Y022418D03*
X021583Y022418D03*
X021583Y024583D03*
X014583Y024583D03*
X014583Y022418D03*
X007583Y022418D03*
X007583Y024583D03*
D15*
X005811Y003930D03*
X009355Y003930D03*
X012811Y003930D03*
X016355Y003930D03*
X019811Y003930D03*
X023355Y003930D03*
X026811Y003930D03*
X030355Y003930D03*
X033811Y003930D03*
X037355Y003930D03*
X039237Y012485D03*
X039237Y017681D03*
X037355Y026237D03*
X033811Y026237D03*
X030355Y026237D03*
X026811Y026237D03*
X023355Y026237D03*
X019811Y026237D03*
X016355Y026237D03*
X012811Y026237D03*
X009355Y026237D03*
X005811Y026237D03*
X003930Y016855D03*
X003930Y013311D03*
D16*
X013833Y017959D03*
X013833Y018707D03*
X016333Y016707D03*
X016333Y015959D03*
X017833Y015959D03*
X017833Y016707D03*
D17*
X019709Y013958D03*
X020457Y013958D03*
D18*
X014803Y014923D03*
X014803Y015833D03*
X014803Y016743D03*
D19*
X012363Y015833D03*
D20*
X005083Y010583D03*
X005083Y009583D03*
X005083Y008583D03*
D21*
X016333Y017833D03*
X019708Y012958D03*
D22*
X014458Y011333D03*
M02*
