G75*
%MOIN*%
%OFA0B0*%
%FSLAX24Y24*%
%IPPOS*%
%LPD*%
%AMOC8*
5,1,8,0,0,1.08239X$1,22.5*
%
%ADD10C,0.0500*%
%ADD11C,0.0100*%
%ADD12C,0.0080*%
%ADD13C,0.0020*%
%ADD14R,0.0344X0.0197*%
%ADD15R,0.0197X0.0344*%
%ADD16C,0.0060*%
D10*
X005937Y011680D02*
X007394Y011680D01*
D11*
X002748Y010617D02*
X002748Y008649D01*
X005229Y008649D01*
X005229Y014711D01*
X002748Y014711D01*
X002748Y012743D01*
X000150Y012743D01*
X000150Y010617D01*
X002748Y010617D01*
D12*
X002728Y001918D02*
X004844Y001918D01*
X004844Y002125D01*
X004352Y002125D01*
X004352Y001928D01*
X003368Y002420D02*
X003171Y002469D01*
X003368Y002519D01*
X003368Y002912D02*
X003171Y002961D01*
X003368Y003011D01*
X003368Y003404D02*
X003171Y003454D01*
X003368Y003503D01*
X003368Y003897D02*
X003171Y003946D01*
X003368Y003995D01*
X003368Y004389D02*
X003171Y004438D01*
X003368Y004487D01*
X003368Y004881D02*
X003171Y004930D01*
X003368Y004979D01*
X003368Y005373D02*
X003171Y005422D01*
X003368Y005471D01*
X003368Y005865D02*
X003171Y005914D01*
X003368Y005963D01*
X003368Y006357D02*
X003171Y006406D01*
X003368Y006456D01*
X003368Y006849D02*
X003171Y006899D01*
X003368Y006948D01*
X003368Y007341D02*
X003171Y007391D01*
X003368Y007440D01*
X002728Y007883D02*
X002728Y001977D01*
X002728Y001918D01*
X004352Y007735D02*
X004844Y007735D01*
X004844Y007942D01*
X002728Y007942D01*
X002728Y007883D01*
X004352Y007932D02*
X004352Y007735D01*
X004719Y015293D02*
X002603Y015293D01*
X002603Y015352D01*
X002603Y021258D01*
X002603Y021317D01*
X004719Y021317D01*
X004719Y021110D01*
X004227Y021110D01*
X004227Y021307D01*
X003243Y020815D02*
X003046Y020766D01*
X003243Y020716D01*
X003243Y020323D02*
X003046Y020274D01*
X003243Y020224D01*
X003243Y019831D02*
X003046Y019781D01*
X003243Y019732D01*
X003243Y019338D02*
X003046Y019289D01*
X003243Y019240D01*
X003243Y018846D02*
X003046Y018797D01*
X003243Y018748D01*
X003243Y018354D02*
X003046Y018305D01*
X003243Y018256D01*
X003243Y017862D02*
X003046Y017813D01*
X003243Y017764D01*
X003243Y017370D02*
X003046Y017321D01*
X003243Y017272D01*
X003243Y016878D02*
X003046Y016829D01*
X003243Y016779D01*
X003243Y016386D02*
X003046Y016336D01*
X003243Y016287D01*
X003243Y015894D02*
X003046Y015844D01*
X003243Y015795D01*
X004227Y015500D02*
X004227Y015303D01*
X004227Y015500D02*
X004719Y015500D01*
X004719Y015293D01*
X028072Y014942D02*
X028072Y014735D01*
X028564Y014735D01*
X028564Y014932D01*
X028072Y014942D02*
X030188Y014942D01*
X030188Y014883D01*
X030188Y008977D01*
X030188Y008918D01*
X028072Y008918D01*
X028072Y009125D01*
X028564Y009125D01*
X028564Y008928D01*
X029549Y009420D02*
X029745Y009469D01*
X029549Y009519D01*
X029549Y009912D02*
X029745Y009961D01*
X029549Y010011D01*
X029549Y010404D02*
X029745Y010454D01*
X029549Y010503D01*
X029549Y010897D02*
X029745Y010946D01*
X029549Y010995D01*
X029549Y011389D02*
X029745Y011438D01*
X029549Y011487D01*
X029549Y011881D02*
X029745Y011930D01*
X029549Y011979D01*
X029549Y012373D02*
X029745Y012422D01*
X029549Y012471D01*
X029549Y012865D02*
X029745Y012914D01*
X029549Y012963D01*
X029549Y013357D02*
X029745Y013406D01*
X029549Y013456D01*
X029549Y013849D02*
X029745Y013899D01*
X029549Y013948D01*
X029549Y014341D02*
X029745Y014391D01*
X029549Y014440D01*
X038697Y015168D02*
X040813Y015168D01*
X040813Y015227D01*
X040813Y021133D01*
X040813Y021192D01*
X038697Y021192D01*
X038697Y020985D01*
X039189Y020985D01*
X039189Y021182D01*
X040174Y020690D02*
X040370Y020641D01*
X040174Y020591D01*
X040174Y020198D02*
X040370Y020149D01*
X040174Y020099D01*
X040174Y019706D02*
X040370Y019656D01*
X040174Y019607D01*
X040174Y019213D02*
X040370Y019164D01*
X040174Y019115D01*
X040174Y018721D02*
X040370Y018672D01*
X040174Y018623D01*
X040174Y018229D02*
X040370Y018180D01*
X040174Y018131D01*
X040174Y017737D02*
X040370Y017688D01*
X040174Y017639D01*
X040174Y017245D02*
X040370Y017196D01*
X040174Y017147D01*
X040174Y016753D02*
X040370Y016704D01*
X040174Y016654D01*
X040174Y016261D02*
X040370Y016211D01*
X040174Y016162D01*
X040174Y015769D02*
X040370Y015719D01*
X040174Y015670D01*
X039189Y015375D02*
X039189Y015178D01*
X039189Y015375D02*
X038697Y015375D01*
X038697Y015168D01*
X038822Y014442D02*
X040938Y014442D01*
X040938Y014383D01*
X040938Y008477D01*
X040938Y008418D01*
X038822Y008418D01*
X038822Y008625D01*
X039314Y008625D01*
X039314Y008428D01*
X040299Y008920D02*
X040495Y008969D01*
X040299Y009019D01*
X040299Y009412D02*
X040495Y009461D01*
X040299Y009511D01*
X040299Y009904D02*
X040495Y009954D01*
X040299Y010003D01*
X040299Y010397D02*
X040495Y010446D01*
X040299Y010495D01*
X040299Y010889D02*
X040495Y010938D01*
X040299Y010987D01*
X040299Y011381D02*
X040495Y011430D01*
X040299Y011479D01*
X040299Y011873D02*
X040495Y011922D01*
X040299Y011971D01*
X040299Y012365D02*
X040495Y012414D01*
X040299Y012463D01*
X040299Y012857D02*
X040495Y012906D01*
X040299Y012956D01*
X040299Y013349D02*
X040495Y013399D01*
X040299Y013448D01*
X040299Y013841D02*
X040495Y013891D01*
X040299Y013940D01*
X039314Y014235D02*
X039314Y014432D01*
X039314Y014235D02*
X038822Y014235D01*
X038822Y014442D01*
X035970Y020169D02*
X035763Y020169D01*
X035763Y020661D01*
X035960Y020661D01*
X035970Y020169D02*
X035970Y022285D01*
X035911Y022285D01*
X030005Y022285D01*
X029946Y022285D01*
X029946Y020169D01*
X030153Y020169D01*
X030153Y020661D01*
X029956Y020661D01*
X030448Y021646D02*
X030497Y021842D01*
X030547Y021646D01*
X030940Y021646D02*
X030990Y021842D01*
X031039Y021646D01*
X031432Y021646D02*
X031482Y021842D01*
X031531Y021646D01*
X031925Y021646D02*
X031974Y021842D01*
X032023Y021646D01*
X032417Y021646D02*
X032466Y021842D01*
X032515Y021646D01*
X032909Y021646D02*
X032958Y021842D01*
X033007Y021646D01*
X033401Y021646D02*
X033450Y021842D01*
X033499Y021646D01*
X033893Y021646D02*
X033942Y021842D01*
X033992Y021646D01*
X034385Y021646D02*
X034434Y021842D01*
X034484Y021646D01*
X034877Y021646D02*
X034927Y021842D01*
X034976Y021646D01*
X035369Y021646D02*
X035419Y021842D01*
X035468Y021646D01*
X038822Y007567D02*
X040938Y007567D01*
X040938Y007508D01*
X040938Y001602D01*
X040938Y001543D01*
X038822Y001543D01*
X038822Y001750D01*
X039314Y001750D01*
X039314Y001553D01*
X040299Y002045D02*
X040495Y002094D01*
X040299Y002144D01*
X040299Y002537D02*
X040495Y002586D01*
X040299Y002636D01*
X040299Y003029D02*
X040495Y003079D01*
X040299Y003128D01*
X040299Y003522D02*
X040495Y003571D01*
X040299Y003620D01*
X040299Y004014D02*
X040495Y004063D01*
X040299Y004112D01*
X040299Y004506D02*
X040495Y004555D01*
X040299Y004604D01*
X040299Y004998D02*
X040495Y005047D01*
X040299Y005096D01*
X040299Y005490D02*
X040495Y005539D01*
X040299Y005588D01*
X040299Y005982D02*
X040495Y006031D01*
X040299Y006081D01*
X040299Y006474D02*
X040495Y006524D01*
X040299Y006573D01*
X040299Y006966D02*
X040495Y007016D01*
X040299Y007065D01*
X039314Y007360D02*
X038822Y007360D01*
X038822Y007567D01*
X039314Y007557D02*
X039314Y007360D01*
X035970Y003316D02*
X035763Y003316D01*
X035763Y002824D01*
X035960Y002824D01*
X035970Y003316D02*
X035970Y001200D01*
X035911Y001200D01*
X030005Y001200D01*
X029946Y001200D01*
X029946Y003316D01*
X030153Y003316D01*
X030153Y002824D01*
X029956Y002824D01*
X030448Y001839D02*
X030497Y001643D01*
X030547Y001839D01*
X030940Y001839D02*
X030990Y001643D01*
X031039Y001839D01*
X031432Y001839D02*
X031482Y001643D01*
X031531Y001839D01*
X031925Y001839D02*
X031974Y001643D01*
X032023Y001839D01*
X032417Y001839D02*
X032466Y001643D01*
X032515Y001839D01*
X032909Y001839D02*
X032958Y001643D01*
X033007Y001839D01*
X033401Y001839D02*
X033450Y001643D01*
X033499Y001839D01*
X033893Y001839D02*
X033942Y001643D01*
X033992Y001839D01*
X034385Y001839D02*
X034434Y001643D01*
X034484Y001839D01*
X034877Y001839D02*
X034927Y001643D01*
X034976Y001839D01*
X035369Y001839D02*
X035419Y001643D01*
X035468Y001839D01*
D13*
X035665Y001839D02*
X035665Y002184D01*
X030251Y002184D01*
X030251Y001839D01*
X030153Y001839D01*
X030153Y001347D01*
X030005Y001200D01*
X030153Y001347D02*
X035763Y001347D01*
X035911Y001200D01*
X035763Y001347D02*
X035763Y001839D01*
X035665Y001839D01*
X035763Y001839D02*
X035960Y001839D01*
X039954Y001848D02*
X040299Y001848D01*
X040299Y001750D01*
X040791Y001750D01*
X040938Y001602D01*
X040791Y001750D02*
X040791Y007360D01*
X040938Y007508D01*
X040791Y007360D02*
X040299Y007360D01*
X040299Y007262D01*
X039954Y007262D01*
X039954Y001848D01*
X040299Y001750D02*
X040299Y001553D01*
X030153Y001839D02*
X029956Y001839D01*
X040299Y007360D02*
X040299Y007557D01*
X040299Y008428D02*
X040299Y008625D01*
X040791Y008625D01*
X040938Y008477D01*
X040791Y008625D02*
X040791Y014235D01*
X040938Y014383D01*
X040791Y014235D02*
X040299Y014235D01*
X040299Y014137D01*
X039954Y014137D01*
X039954Y008723D01*
X040299Y008723D01*
X040299Y008625D01*
X040299Y014235D02*
X040299Y014432D01*
X040174Y015178D02*
X040174Y015375D01*
X040666Y015375D01*
X040813Y015227D01*
X040666Y015375D02*
X040666Y020985D01*
X040813Y021133D01*
X040666Y020985D02*
X040174Y020985D01*
X040174Y020887D01*
X039829Y020887D01*
X039829Y015473D01*
X040174Y015473D01*
X040174Y015375D01*
X040174Y020985D02*
X040174Y021182D01*
X035960Y021646D02*
X035763Y021646D01*
X035763Y022138D01*
X035911Y022285D01*
X035763Y022138D02*
X030153Y022138D01*
X030005Y022285D01*
X030153Y022138D02*
X030153Y021646D01*
X030251Y021646D01*
X030251Y021301D01*
X035665Y021301D01*
X035665Y021646D01*
X035763Y021646D01*
X030153Y021646D02*
X029956Y021646D01*
X029549Y014932D02*
X029549Y014735D01*
X030041Y014735D01*
X030188Y014883D01*
X030041Y014735D02*
X030041Y009125D01*
X030188Y008977D01*
X030041Y009125D02*
X029549Y009125D01*
X029549Y008928D01*
X029549Y009125D02*
X029549Y009223D01*
X029204Y009223D01*
X029204Y014637D01*
X029549Y014637D01*
X029549Y014735D01*
X003587Y015598D02*
X003587Y021012D01*
X003243Y021012D01*
X003243Y021110D01*
X002750Y021110D01*
X002603Y021258D01*
X002750Y021110D02*
X002750Y015500D01*
X002603Y015352D01*
X002750Y015500D02*
X003243Y015500D01*
X003243Y015598D01*
X003587Y015598D01*
X003243Y015500D02*
X003243Y015303D01*
X003243Y021110D02*
X003243Y021307D01*
X003368Y007932D02*
X003368Y007735D01*
X002875Y007735D01*
X002728Y007883D01*
X002875Y007735D02*
X002875Y002125D01*
X002728Y001977D01*
X002875Y002125D02*
X003368Y002125D01*
X003368Y002223D01*
X003712Y002223D01*
X003712Y007637D01*
X003368Y007637D01*
X003368Y007735D01*
X003368Y002125D02*
X003368Y001928D01*
D14*
X003540Y002469D03*
X003540Y002961D03*
X003540Y003454D03*
X003540Y003946D03*
X003540Y004438D03*
X003540Y004930D03*
X003540Y005422D03*
X003540Y005914D03*
X003540Y006406D03*
X003540Y006899D03*
X003540Y007391D03*
X003415Y015844D03*
X003415Y016336D03*
X003415Y016829D03*
X003415Y017321D03*
X003415Y017813D03*
X003415Y018305D03*
X003415Y018797D03*
X003415Y019289D03*
X003415Y019781D03*
X003415Y020274D03*
X003415Y020766D03*
X029376Y014391D03*
X029376Y013899D03*
X029376Y013406D03*
X029376Y012914D03*
X029376Y012422D03*
X029376Y011930D03*
X029376Y011438D03*
X029376Y010946D03*
X029376Y010454D03*
X029376Y009961D03*
X029376Y009469D03*
X040126Y009461D03*
X040126Y009954D03*
X040126Y010446D03*
X040126Y010938D03*
X040126Y011430D03*
X040126Y011922D03*
X040126Y012414D03*
X040126Y012906D03*
X040126Y013399D03*
X040126Y013891D03*
X040001Y015719D03*
X040001Y016211D03*
X040001Y016704D03*
X040001Y017196D03*
X040001Y017688D03*
X040001Y018180D03*
X040001Y018672D03*
X040001Y019164D03*
X040001Y019656D03*
X040001Y020149D03*
X040001Y020641D03*
X040126Y008969D03*
X040126Y007016D03*
X040126Y006524D03*
X040126Y006031D03*
X040126Y005539D03*
X040126Y005047D03*
X040126Y004555D03*
X040126Y004063D03*
X040126Y003571D03*
X040126Y003079D03*
X040126Y002586D03*
X040126Y002094D03*
D15*
X035419Y002012D03*
X034927Y002012D03*
X034434Y002012D03*
X033942Y002012D03*
X033450Y002012D03*
X032958Y002012D03*
X032466Y002012D03*
X031974Y002012D03*
X031482Y002012D03*
X030990Y002012D03*
X030497Y002012D03*
X030497Y021473D03*
X030990Y021473D03*
X031482Y021473D03*
X031974Y021473D03*
X032466Y021473D03*
X032958Y021473D03*
X033450Y021473D03*
X033942Y021473D03*
X034434Y021473D03*
X034927Y021473D03*
X035419Y021473D03*
D16*
X029208Y021805D02*
X029208Y020305D01*
X028958Y020055D01*
X028458Y020055D01*
X028208Y020305D01*
X028208Y021805D01*
X027958Y022055D01*
X027458Y022055D01*
X027208Y021805D01*
X027208Y020305D01*
X026958Y020055D01*
X026458Y020055D01*
X026208Y020305D01*
X026208Y021805D01*
X025958Y022055D01*
X025458Y022055D01*
X025208Y021805D01*
X025208Y020305D01*
X024958Y020055D01*
X024458Y020055D01*
X024208Y020305D01*
X024208Y021805D01*
X023958Y022055D01*
X023458Y022055D01*
X023208Y021805D01*
X023208Y020305D01*
X022958Y020055D01*
X022458Y020055D01*
X022208Y020305D01*
X022208Y021805D01*
X022458Y022055D01*
X022958Y022055D01*
X023208Y021805D01*
X022208Y021805D02*
X021958Y022055D01*
X021458Y022055D01*
X021208Y021805D01*
X021208Y020305D01*
X020958Y020055D01*
X020458Y020055D01*
X020208Y020305D01*
X020208Y021805D01*
X020458Y022055D01*
X020958Y022055D01*
X021208Y021805D01*
X020208Y021805D02*
X019958Y022055D01*
X019458Y022055D01*
X019208Y021805D01*
X019208Y020305D01*
X018958Y020055D01*
X018458Y020055D01*
X018208Y020305D01*
X018208Y021805D01*
X018458Y022055D01*
X018958Y022055D01*
X019208Y021805D01*
X018208Y021805D02*
X017958Y022055D01*
X017458Y022055D01*
X017208Y021805D01*
X017208Y020305D01*
X016958Y020055D01*
X016458Y020055D01*
X016208Y020305D01*
X016208Y021805D01*
X016458Y022055D01*
X016958Y022055D01*
X017208Y021805D01*
X016208Y021805D02*
X015958Y022055D01*
X015458Y022055D01*
X015208Y021805D01*
X015208Y020305D01*
X014958Y020055D01*
X014458Y020055D01*
X014208Y020305D01*
X014208Y021805D01*
X014458Y022055D01*
X014958Y022055D01*
X015208Y021805D01*
X014208Y021805D02*
X013958Y022055D01*
X013458Y022055D01*
X013208Y021805D01*
X012958Y022055D01*
X012458Y022055D01*
X012208Y021805D01*
X011958Y022055D01*
X011458Y022055D01*
X011208Y021805D01*
X010958Y022055D01*
X010458Y022055D01*
X010208Y021805D01*
X009958Y022055D01*
X009458Y022055D01*
X009208Y021805D01*
X008958Y022055D01*
X008458Y022055D01*
X008208Y021805D01*
X007958Y022055D01*
X007458Y022055D01*
X007208Y021805D01*
X006958Y022055D01*
X006458Y022055D01*
X006208Y021805D01*
X006208Y020305D01*
X006458Y020055D01*
X006958Y020055D01*
X007208Y020305D01*
X007208Y021805D01*
X008208Y021805D02*
X008208Y020305D01*
X007958Y020055D01*
X007458Y020055D01*
X007208Y020305D01*
X008208Y020305D02*
X008458Y020055D01*
X008958Y020055D01*
X009208Y020305D01*
X009208Y021805D01*
X010208Y021805D02*
X010208Y020305D01*
X009958Y020055D01*
X009458Y020055D01*
X009208Y020305D01*
X010208Y020305D02*
X010458Y020055D01*
X010958Y020055D01*
X011208Y020305D01*
X011208Y021805D01*
X012208Y021805D02*
X012208Y020305D01*
X011958Y020055D01*
X011458Y020055D01*
X011208Y020305D01*
X012208Y020305D02*
X012458Y020055D01*
X012958Y020055D01*
X013208Y020305D01*
X013208Y021805D01*
X013208Y020305D02*
X013458Y020055D01*
X013958Y020055D01*
X014208Y020305D01*
X015208Y020305D02*
X015458Y020055D01*
X015958Y020055D01*
X016208Y020305D01*
X017208Y020305D02*
X017458Y020055D01*
X017958Y020055D01*
X018208Y020305D01*
X019208Y020305D02*
X019458Y020055D01*
X019958Y020055D01*
X020208Y020305D01*
X021208Y020305D02*
X021458Y020055D01*
X021958Y020055D01*
X022208Y020305D01*
X023208Y020305D02*
X023458Y020055D01*
X023958Y020055D01*
X024208Y020305D01*
X025208Y020305D02*
X025458Y020055D01*
X025958Y020055D01*
X026208Y020305D01*
X027208Y020305D02*
X027458Y020055D01*
X027958Y020055D01*
X028208Y020305D01*
X028208Y021805D02*
X028458Y022055D01*
X028958Y022055D01*
X029208Y021805D01*
X027208Y021805D02*
X026958Y022055D01*
X026458Y022055D01*
X026208Y021805D01*
X025208Y021805D02*
X024958Y022055D01*
X024458Y022055D01*
X024208Y021805D01*
X023958Y003055D02*
X023458Y003055D01*
X023208Y002805D01*
X023208Y001305D01*
X022958Y001055D01*
X022458Y001055D01*
X022208Y001305D01*
X022208Y002805D01*
X022458Y003055D01*
X022958Y003055D01*
X023208Y002805D01*
X023958Y003055D02*
X024208Y002805D01*
X024208Y001305D01*
X023958Y001055D01*
X023458Y001055D01*
X023208Y001305D01*
X022208Y001305D02*
X021958Y001055D01*
X021458Y001055D01*
X021208Y001305D01*
X021208Y002805D01*
X021458Y003055D01*
X021958Y003055D01*
X022208Y002805D01*
X021208Y002805D02*
X020958Y003055D01*
X020458Y003055D01*
X020208Y002805D01*
X020208Y001305D01*
X019958Y001055D01*
X019458Y001055D01*
X019208Y001305D01*
X019208Y002805D01*
X019458Y003055D01*
X019958Y003055D01*
X020208Y002805D01*
X019208Y002805D02*
X018958Y003055D01*
X018458Y003055D01*
X018208Y002805D01*
X018208Y001305D01*
X017958Y001055D01*
X017458Y001055D01*
X017208Y001305D01*
X017208Y002805D01*
X017458Y003055D01*
X017958Y003055D01*
X018208Y002805D01*
X017208Y002805D02*
X016958Y003055D01*
X016458Y003055D01*
X016208Y002805D01*
X016208Y001305D01*
X015958Y001055D01*
X015458Y001055D01*
X015208Y001305D01*
X015208Y002805D01*
X015458Y003055D01*
X015958Y003055D01*
X016208Y002805D01*
X015208Y002805D02*
X014958Y003055D01*
X014458Y003055D01*
X014208Y002805D01*
X014208Y001305D01*
X013958Y001055D01*
X013458Y001055D01*
X013208Y001305D01*
X012958Y001055D01*
X012458Y001055D01*
X012208Y001305D01*
X011958Y001055D01*
X011458Y001055D01*
X011208Y001305D01*
X010958Y001055D01*
X010458Y001055D01*
X010208Y001305D01*
X009958Y001055D01*
X009458Y001055D01*
X009208Y001305D01*
X008958Y001055D01*
X008458Y001055D01*
X008208Y001305D01*
X007958Y001055D01*
X007458Y001055D01*
X007208Y001305D01*
X006958Y001055D01*
X006458Y001055D01*
X006208Y001305D01*
X006208Y002805D01*
X006458Y003055D01*
X006958Y003055D01*
X007208Y002805D01*
X007208Y001305D01*
X008208Y001305D02*
X008208Y002805D01*
X007958Y003055D01*
X007458Y003055D01*
X007208Y002805D01*
X008208Y002805D02*
X008458Y003055D01*
X008958Y003055D01*
X009208Y002805D01*
X009208Y001305D01*
X010208Y001305D02*
X010208Y002805D01*
X009958Y003055D01*
X009458Y003055D01*
X009208Y002805D01*
X010208Y002805D02*
X010458Y003055D01*
X010958Y003055D01*
X011208Y002805D01*
X011208Y001305D01*
X012208Y001305D02*
X012208Y002805D01*
X011958Y003055D01*
X011458Y003055D01*
X011208Y002805D01*
X012208Y002805D02*
X012458Y003055D01*
X012958Y003055D01*
X013208Y002805D01*
X013208Y001305D01*
X014208Y001305D02*
X014458Y001055D01*
X014958Y001055D01*
X015208Y001305D01*
X016208Y001305D02*
X016458Y001055D01*
X016958Y001055D01*
X017208Y001305D01*
X018208Y001305D02*
X018458Y001055D01*
X018958Y001055D01*
X019208Y001305D01*
X020208Y001305D02*
X020458Y001055D01*
X020958Y001055D01*
X021208Y001305D01*
X024208Y001305D02*
X024458Y001055D01*
X024958Y001055D01*
X025208Y001305D01*
X025208Y002805D01*
X024958Y003055D01*
X024458Y003055D01*
X024208Y002805D01*
X025208Y002805D02*
X025458Y003055D01*
X025958Y003055D01*
X026208Y002805D01*
X026208Y001305D01*
X025958Y001055D01*
X025458Y001055D01*
X025208Y001305D01*
X026208Y001305D02*
X026458Y001055D01*
X026958Y001055D01*
X027208Y001305D01*
X027208Y002805D01*
X026958Y003055D01*
X026458Y003055D01*
X026208Y002805D01*
X027208Y002805D02*
X027458Y003055D01*
X027958Y003055D01*
X028208Y002805D01*
X028208Y001305D01*
X027958Y001055D01*
X027458Y001055D01*
X027208Y001305D01*
X028208Y001305D02*
X028458Y001055D01*
X028958Y001055D01*
X029208Y001305D01*
X029208Y002805D01*
X028958Y003055D01*
X028458Y003055D01*
X028208Y002805D01*
X014208Y002805D02*
X013958Y003055D01*
X013458Y003055D01*
X013208Y002805D01*
M02*
