G75*
%MOIN*%
%OFA0B0*%
%FSLAX24Y24*%
%IPPOS*%
%LPD*%
%AMOC8*
5,1,8,0,0,1.08239X$1,22.5*
%
%ADD10R,0.0551X0.0256*%
%ADD11R,0.0256X0.0551*%
%ADD12C,0.0060*%
%ADD13C,0.0020*%
D10*
X010457Y006267D03*
X010457Y006847D03*
X012582Y012642D03*
X012582Y013222D03*
X011457Y013392D03*
X011457Y013972D03*
X014959Y013218D03*
X014959Y012638D03*
X016209Y012638D03*
X016209Y013218D03*
X020709Y011343D03*
X020709Y010763D03*
X032959Y010093D03*
X032959Y009513D03*
X033459Y006218D03*
X033459Y005638D03*
X011457Y017767D03*
X011457Y018347D03*
D11*
X031166Y009054D03*
X031746Y009054D03*
X031795Y014056D03*
X032375Y014056D03*
X033795Y014556D03*
X034375Y014556D03*
D12*
X007059Y007545D02*
X007059Y005565D01*
X008857Y005565D01*
X008857Y007545D01*
X007059Y007545D01*
X008258Y007195D02*
X008260Y007221D01*
X008266Y007247D01*
X008275Y007271D01*
X008288Y007294D01*
X008304Y007315D01*
X008323Y007333D01*
X008344Y007349D01*
X008368Y007361D01*
X008392Y007369D01*
X008418Y007374D01*
X008445Y007375D01*
X008471Y007372D01*
X008496Y007365D01*
X008520Y007355D01*
X008543Y007341D01*
X008563Y007325D01*
X008580Y007305D01*
X008595Y007283D01*
X008606Y007259D01*
X008614Y007234D01*
X008618Y007208D01*
X008618Y007182D01*
X008614Y007156D01*
X008606Y007131D01*
X008595Y007107D01*
X008580Y007085D01*
X008563Y007065D01*
X008543Y007049D01*
X008520Y007035D01*
X008496Y007025D01*
X008471Y007018D01*
X008445Y007015D01*
X008418Y007016D01*
X008392Y007021D01*
X008368Y007029D01*
X008344Y007041D01*
X008323Y007057D01*
X008304Y007075D01*
X008288Y007096D01*
X008275Y007119D01*
X008266Y007143D01*
X008260Y007169D01*
X008258Y007195D01*
X023184Y009690D02*
X024982Y009690D01*
X024982Y011670D01*
X023184Y011670D01*
X023184Y009690D01*
X023423Y010040D02*
X023425Y010066D01*
X023431Y010092D01*
X023440Y010116D01*
X023453Y010139D01*
X023469Y010160D01*
X023488Y010178D01*
X023509Y010194D01*
X023533Y010206D01*
X023557Y010214D01*
X023583Y010219D01*
X023610Y010220D01*
X023636Y010217D01*
X023661Y010210D01*
X023685Y010200D01*
X023708Y010186D01*
X023728Y010170D01*
X023745Y010150D01*
X023760Y010128D01*
X023771Y010104D01*
X023779Y010079D01*
X023783Y010053D01*
X023783Y010027D01*
X023779Y010001D01*
X023771Y009976D01*
X023760Y009952D01*
X023745Y009930D01*
X023728Y009910D01*
X023708Y009894D01*
X023685Y009880D01*
X023661Y009870D01*
X023636Y009863D01*
X023610Y009860D01*
X023583Y009861D01*
X023557Y009866D01*
X023533Y009874D01*
X023509Y009886D01*
X023488Y009902D01*
X023469Y009920D01*
X023453Y009941D01*
X023440Y009964D01*
X023431Y009988D01*
X023425Y010014D01*
X023423Y010040D01*
X030468Y007204D02*
X030468Y005406D01*
X032448Y005406D01*
X032448Y007204D01*
X030468Y007204D01*
X030638Y006785D02*
X030640Y006811D01*
X030646Y006837D01*
X030655Y006861D01*
X030668Y006884D01*
X030684Y006905D01*
X030703Y006923D01*
X030724Y006939D01*
X030748Y006951D01*
X030772Y006959D01*
X030798Y006964D01*
X030825Y006965D01*
X030851Y006962D01*
X030876Y006955D01*
X030900Y006945D01*
X030923Y006931D01*
X030943Y006915D01*
X030960Y006895D01*
X030975Y006873D01*
X030986Y006849D01*
X030994Y006824D01*
X030998Y006798D01*
X030998Y006772D01*
X030994Y006746D01*
X030986Y006721D01*
X030975Y006697D01*
X030960Y006675D01*
X030943Y006655D01*
X030923Y006639D01*
X030900Y006625D01*
X030876Y006615D01*
X030851Y006608D01*
X030825Y006605D01*
X030798Y006606D01*
X030772Y006611D01*
X030748Y006619D01*
X030724Y006631D01*
X030703Y006647D01*
X030684Y006665D01*
X030668Y006686D01*
X030655Y006709D01*
X030646Y006733D01*
X030640Y006759D01*
X030638Y006785D01*
X034934Y006420D02*
X034934Y004440D01*
X036732Y004440D01*
X036732Y006420D01*
X034934Y006420D01*
X035173Y004790D02*
X035175Y004816D01*
X035181Y004842D01*
X035190Y004866D01*
X035203Y004889D01*
X035219Y004910D01*
X035238Y004928D01*
X035259Y004944D01*
X035283Y004956D01*
X035307Y004964D01*
X035333Y004969D01*
X035360Y004970D01*
X035386Y004967D01*
X035411Y004960D01*
X035435Y004950D01*
X035458Y004936D01*
X035478Y004920D01*
X035495Y004900D01*
X035510Y004878D01*
X035521Y004854D01*
X035529Y004829D01*
X035533Y004803D01*
X035533Y004777D01*
X035529Y004751D01*
X035521Y004726D01*
X035510Y004702D01*
X035495Y004680D01*
X035478Y004660D01*
X035458Y004644D01*
X035435Y004630D01*
X035411Y004620D01*
X035386Y004613D01*
X035360Y004610D01*
X035333Y004611D01*
X035307Y004616D01*
X035283Y004624D01*
X035259Y004636D01*
X035238Y004652D01*
X035219Y004670D01*
X035203Y004691D01*
X035190Y004714D01*
X035181Y004738D01*
X035175Y004764D01*
X035173Y004790D01*
X034934Y008815D02*
X036732Y008815D01*
X036732Y010795D01*
X034934Y010795D01*
X034934Y008815D01*
X035173Y009165D02*
X035175Y009191D01*
X035181Y009217D01*
X035190Y009241D01*
X035203Y009264D01*
X035219Y009285D01*
X035238Y009303D01*
X035259Y009319D01*
X035283Y009331D01*
X035307Y009339D01*
X035333Y009344D01*
X035360Y009345D01*
X035386Y009342D01*
X035411Y009335D01*
X035435Y009325D01*
X035458Y009311D01*
X035478Y009295D01*
X035495Y009275D01*
X035510Y009253D01*
X035521Y009229D01*
X035529Y009204D01*
X035533Y009178D01*
X035533Y009152D01*
X035529Y009126D01*
X035521Y009101D01*
X035510Y009077D01*
X035495Y009055D01*
X035478Y009035D01*
X035458Y009019D01*
X035435Y009005D01*
X035411Y008995D01*
X035386Y008988D01*
X035360Y008985D01*
X035333Y008986D01*
X035307Y008991D01*
X035283Y008999D01*
X035259Y009011D01*
X035238Y009027D01*
X035219Y009045D01*
X035203Y009066D01*
X035190Y009089D01*
X035181Y009113D01*
X035175Y009139D01*
X035173Y009165D01*
X034934Y016065D02*
X036732Y016065D01*
X036732Y018045D01*
X034934Y018045D01*
X034934Y016065D01*
X035173Y016415D02*
X035175Y016441D01*
X035181Y016467D01*
X035190Y016491D01*
X035203Y016514D01*
X035219Y016535D01*
X035238Y016553D01*
X035259Y016569D01*
X035283Y016581D01*
X035307Y016589D01*
X035333Y016594D01*
X035360Y016595D01*
X035386Y016592D01*
X035411Y016585D01*
X035435Y016575D01*
X035458Y016561D01*
X035478Y016545D01*
X035495Y016525D01*
X035510Y016503D01*
X035521Y016479D01*
X035529Y016454D01*
X035533Y016428D01*
X035533Y016402D01*
X035529Y016376D01*
X035521Y016351D01*
X035510Y016327D01*
X035495Y016305D01*
X035478Y016285D01*
X035458Y016269D01*
X035435Y016255D01*
X035411Y016245D01*
X035386Y016238D01*
X035360Y016235D01*
X035333Y016236D01*
X035307Y016241D01*
X035283Y016249D01*
X035259Y016261D01*
X035238Y016277D01*
X035219Y016295D01*
X035203Y016316D01*
X035190Y016339D01*
X035181Y016363D01*
X035175Y016389D01*
X035173Y016415D01*
X032948Y016156D02*
X032948Y017954D01*
X030968Y017954D01*
X030968Y016156D01*
X032948Y016156D01*
X032418Y016575D02*
X032420Y016601D01*
X032426Y016627D01*
X032435Y016651D01*
X032448Y016674D01*
X032464Y016695D01*
X032483Y016713D01*
X032504Y016729D01*
X032528Y016741D01*
X032552Y016749D01*
X032578Y016754D01*
X032605Y016755D01*
X032631Y016752D01*
X032656Y016745D01*
X032680Y016735D01*
X032703Y016721D01*
X032723Y016705D01*
X032740Y016685D01*
X032755Y016663D01*
X032766Y016639D01*
X032774Y016614D01*
X032778Y016588D01*
X032778Y016562D01*
X032774Y016536D01*
X032766Y016511D01*
X032755Y016487D01*
X032740Y016465D01*
X032723Y016445D01*
X032703Y016429D01*
X032680Y016415D01*
X032656Y016405D01*
X032631Y016398D01*
X032605Y016395D01*
X032578Y016396D01*
X032552Y016401D01*
X032528Y016409D01*
X032504Y016421D01*
X032483Y016437D01*
X032464Y016455D01*
X032448Y016476D01*
X032435Y016499D01*
X032426Y016523D01*
X032420Y016549D01*
X032418Y016575D01*
X008857Y017440D02*
X007059Y017440D01*
X007059Y019420D01*
X008857Y019420D01*
X008857Y017440D01*
X008258Y019070D02*
X008260Y019096D01*
X008266Y019122D01*
X008275Y019146D01*
X008288Y019169D01*
X008304Y019190D01*
X008323Y019208D01*
X008344Y019224D01*
X008368Y019236D01*
X008392Y019244D01*
X008418Y019249D01*
X008445Y019250D01*
X008471Y019247D01*
X008496Y019240D01*
X008520Y019230D01*
X008543Y019216D01*
X008563Y019200D01*
X008580Y019180D01*
X008595Y019158D01*
X008606Y019134D01*
X008614Y019109D01*
X008618Y019083D01*
X008618Y019057D01*
X008614Y019031D01*
X008606Y019006D01*
X008595Y018982D01*
X008580Y018960D01*
X008563Y018940D01*
X008543Y018924D01*
X008520Y018910D01*
X008496Y018900D01*
X008471Y018893D01*
X008445Y018890D01*
X008418Y018891D01*
X008392Y018896D01*
X008368Y018904D01*
X008344Y018916D01*
X008323Y018932D01*
X008304Y018950D01*
X008288Y018971D01*
X008275Y018994D01*
X008266Y019018D01*
X008260Y019044D01*
X008258Y019070D01*
D13*
X008767Y019330D02*
X007149Y019330D01*
X007149Y017530D01*
X008767Y017530D01*
X008767Y019330D01*
X023274Y011580D02*
X024892Y011580D01*
X024892Y009780D01*
X023274Y009780D01*
X023274Y011580D01*
X030558Y007114D02*
X030558Y005496D01*
X032358Y005496D01*
X032358Y007114D01*
X030558Y007114D01*
X035024Y006330D02*
X036642Y006330D01*
X036642Y004530D01*
X035024Y004530D01*
X035024Y006330D01*
X035024Y008905D02*
X036642Y008905D01*
X036642Y010705D01*
X035024Y010705D01*
X035024Y008905D01*
X035024Y016155D02*
X036642Y016155D01*
X036642Y017955D01*
X035024Y017955D01*
X035024Y016155D01*
X032858Y016246D02*
X032858Y017864D01*
X031058Y017864D01*
X031058Y016246D01*
X032858Y016246D01*
X008767Y007455D02*
X008767Y005655D01*
X007149Y005655D01*
X007149Y007455D01*
X008767Y007455D01*
M02*
