G75*
%MOIN*%
%OFA0B0*%
%FSLAX24Y24*%
%IPPOS*%
%LPD*%
%AMOC8*
5,1,8,0,0,1.08239X$1,22.5*
%
%ADD10R,0.0907X0.0907*%
%ADD11C,0.1340*%
%ADD12R,0.0631X0.0513*%
%ADD13R,0.0513X0.0631*%
%ADD14R,0.0200X0.0470*%
%ADD15R,0.0470X0.0200*%
%ADD16C,0.0477*%
%ADD17R,0.0674X0.0674*%
%ADD18C,0.0674*%
%ADD19R,0.0631X0.0474*%
%ADD20R,0.0476X0.0476*%
D10*
X005583Y011680D03*
X007748Y011680D03*
D11*
X003930Y009908D03*
X003930Y013452D03*
D12*
X011458Y013286D03*
X011458Y014074D03*
X012583Y013324D03*
X012583Y012536D03*
X014958Y012536D03*
X014958Y013324D03*
X016208Y013324D03*
X016208Y012536D03*
X020708Y011449D03*
X020708Y010661D03*
X010458Y006949D03*
X010458Y006161D03*
X011458Y017661D03*
X011458Y018449D03*
X032958Y010199D03*
X032958Y009411D03*
X033458Y006324D03*
X033458Y005536D03*
D13*
X031852Y009055D03*
X031064Y009055D03*
X031689Y014055D03*
X032477Y014055D03*
X033689Y014555D03*
X034477Y014555D03*
D14*
X032854Y015906D03*
X032598Y015906D03*
X032342Y015906D03*
X032086Y015906D03*
X031830Y015906D03*
X031574Y015906D03*
X031318Y015906D03*
X031062Y015906D03*
X031062Y018204D03*
X031318Y018204D03*
X031574Y018204D03*
X031830Y018204D03*
X032086Y018204D03*
X032342Y018204D03*
X032598Y018204D03*
X032854Y018204D03*
X032354Y007454D03*
X032098Y007454D03*
X031842Y007454D03*
X031586Y007454D03*
X031330Y007454D03*
X031074Y007454D03*
X030818Y007454D03*
X030562Y007454D03*
X030562Y005156D03*
X030818Y005156D03*
X031074Y005156D03*
X031330Y005156D03*
X031586Y005156D03*
X031842Y005156D03*
X032098Y005156D03*
X032354Y005156D03*
D15*
X034684Y005046D03*
X034684Y004790D03*
X034684Y004534D03*
X034684Y005302D03*
X034684Y005558D03*
X034684Y005814D03*
X034684Y006070D03*
X034684Y006326D03*
X036982Y006326D03*
X036982Y006070D03*
X036982Y005814D03*
X036982Y005558D03*
X036982Y005302D03*
X036982Y005046D03*
X036982Y004790D03*
X036982Y004534D03*
X036982Y008909D03*
X036982Y009165D03*
X036982Y009421D03*
X036982Y009677D03*
X036982Y009933D03*
X036982Y010189D03*
X036982Y010445D03*
X036982Y010701D03*
X034684Y010701D03*
X034684Y010445D03*
X034684Y010189D03*
X034684Y009933D03*
X034684Y009677D03*
X034684Y009421D03*
X034684Y009165D03*
X034684Y008909D03*
X025232Y009784D03*
X025232Y010040D03*
X025232Y010296D03*
X025232Y010552D03*
X025232Y010808D03*
X025232Y011064D03*
X025232Y011320D03*
X025232Y011576D03*
X022934Y011576D03*
X022934Y011320D03*
X022934Y011064D03*
X022934Y010808D03*
X022934Y010552D03*
X022934Y010296D03*
X022934Y010040D03*
X022934Y009784D03*
X034684Y016159D03*
X034684Y016415D03*
X034684Y016671D03*
X034684Y016927D03*
X034684Y017183D03*
X034684Y017439D03*
X034684Y017695D03*
X034684Y017951D03*
X036982Y017951D03*
X036982Y017695D03*
X036982Y017439D03*
X036982Y017183D03*
X036982Y016927D03*
X036982Y016671D03*
X036982Y016415D03*
X036982Y016159D03*
X009107Y017534D03*
X009107Y017790D03*
X009107Y018046D03*
X009107Y018302D03*
X009107Y018558D03*
X009107Y018814D03*
X009107Y019070D03*
X009107Y019326D03*
X006809Y019326D03*
X006809Y019070D03*
X006809Y018814D03*
X006809Y018558D03*
X006809Y018302D03*
X006809Y018046D03*
X006809Y017790D03*
X006809Y017534D03*
X006809Y007451D03*
X006809Y007195D03*
X006809Y006939D03*
X006809Y006683D03*
X006809Y006427D03*
X006809Y006171D03*
X006809Y005915D03*
X006809Y005659D03*
X009107Y005659D03*
X009107Y005915D03*
X009107Y006171D03*
X009107Y006427D03*
X009107Y006683D03*
X009107Y006939D03*
X009107Y007195D03*
X009107Y007451D03*
D16*
X004649Y002469D02*
X004252Y002469D01*
X004252Y002961D02*
X004649Y002961D01*
X004649Y003454D02*
X004252Y003454D01*
X004252Y003946D02*
X004649Y003946D01*
X004649Y004438D02*
X004252Y004438D01*
X004252Y004930D02*
X004649Y004930D01*
X004649Y005422D02*
X004252Y005422D01*
X004252Y005914D02*
X004649Y005914D01*
X004649Y006406D02*
X004252Y006406D01*
X004252Y006899D02*
X004649Y006899D01*
X004649Y007391D02*
X004252Y007391D01*
X004127Y015844D02*
X004524Y015844D01*
X004524Y016336D02*
X004127Y016336D01*
X004127Y016829D02*
X004524Y016829D01*
X004524Y017321D02*
X004127Y017321D01*
X004127Y017813D02*
X004524Y017813D01*
X004524Y018305D02*
X004127Y018305D01*
X004127Y018797D02*
X004524Y018797D01*
X004524Y019289D02*
X004127Y019289D01*
X004127Y019781D02*
X004524Y019781D01*
X004524Y020274D02*
X004127Y020274D01*
X004127Y020766D02*
X004524Y020766D01*
X028268Y014391D02*
X028664Y014391D01*
X028664Y013899D02*
X028268Y013899D01*
X028268Y013406D02*
X028664Y013406D01*
X028664Y012914D02*
X028268Y012914D01*
X028268Y012422D02*
X028664Y012422D01*
X028664Y011930D02*
X028268Y011930D01*
X028268Y011438D02*
X028664Y011438D01*
X028664Y010946D02*
X028268Y010946D01*
X028268Y010454D02*
X028664Y010454D01*
X028664Y009961D02*
X028268Y009961D01*
X028268Y009469D02*
X028664Y009469D01*
X039018Y009461D02*
X039414Y009461D01*
X039414Y009954D02*
X039018Y009954D01*
X039018Y010446D02*
X039414Y010446D01*
X039414Y010938D02*
X039018Y010938D01*
X039018Y011430D02*
X039414Y011430D01*
X039414Y011922D02*
X039018Y011922D01*
X039018Y012414D02*
X039414Y012414D01*
X039414Y012906D02*
X039018Y012906D01*
X039018Y013399D02*
X039414Y013399D01*
X039414Y013891D02*
X039018Y013891D01*
X038893Y015719D02*
X039289Y015719D01*
X039289Y016211D02*
X038893Y016211D01*
X038893Y016704D02*
X039289Y016704D01*
X039289Y017196D02*
X038893Y017196D01*
X038893Y017688D02*
X039289Y017688D01*
X039289Y018180D02*
X038893Y018180D01*
X038893Y018672D02*
X039289Y018672D01*
X039289Y019164D02*
X038893Y019164D01*
X038893Y019656D02*
X039289Y019656D01*
X039289Y020149D02*
X038893Y020149D01*
X038893Y020641D02*
X039289Y020641D01*
X035419Y020761D02*
X035419Y020364D01*
X034927Y020364D02*
X034927Y020761D01*
X034434Y020761D02*
X034434Y020364D01*
X033942Y020364D02*
X033942Y020761D01*
X033450Y020761D02*
X033450Y020364D01*
X032958Y020364D02*
X032958Y020761D01*
X032466Y020761D02*
X032466Y020364D01*
X031974Y020364D02*
X031974Y020761D01*
X031482Y020761D02*
X031482Y020364D01*
X030990Y020364D02*
X030990Y020761D01*
X030497Y020761D02*
X030497Y020364D01*
X039018Y008969D02*
X039414Y008969D01*
X039414Y007016D02*
X039018Y007016D01*
X039018Y006524D02*
X039414Y006524D01*
X039414Y006031D02*
X039018Y006031D01*
X039018Y005539D02*
X039414Y005539D01*
X039414Y005047D02*
X039018Y005047D01*
X039018Y004555D02*
X039414Y004555D01*
X039414Y004063D02*
X039018Y004063D01*
X039018Y003571D02*
X039414Y003571D01*
X039414Y003079D02*
X039018Y003079D01*
X039018Y002586D02*
X039414Y002586D01*
X039414Y002094D02*
X039018Y002094D01*
X035419Y002724D02*
X035419Y003121D01*
X034927Y003121D02*
X034927Y002724D01*
X034434Y002724D02*
X034434Y003121D01*
X033942Y003121D02*
X033942Y002724D01*
X033450Y002724D02*
X033450Y003121D01*
X032958Y003121D02*
X032958Y002724D01*
X032466Y002724D02*
X032466Y003121D01*
X031974Y003121D02*
X031974Y002724D01*
X031482Y002724D02*
X031482Y003121D01*
X030990Y003121D02*
X030990Y002724D01*
X030497Y002724D02*
X030497Y003121D01*
D17*
X028708Y002555D03*
X028708Y021555D03*
D18*
X027708Y021555D03*
X026708Y021555D03*
X025708Y021555D03*
X024708Y021555D03*
X023708Y021555D03*
X022708Y021555D03*
X021708Y021555D03*
X020708Y021555D03*
X019708Y021555D03*
X018708Y021555D03*
X017708Y021555D03*
X016708Y021555D03*
X015708Y021555D03*
X014708Y021555D03*
X013708Y021555D03*
X012708Y021555D03*
X011708Y021555D03*
X010708Y021555D03*
X009708Y021555D03*
X008708Y021555D03*
X007708Y021555D03*
X006708Y021555D03*
X006708Y020555D03*
X007708Y020555D03*
X008708Y020555D03*
X009708Y020555D03*
X010708Y020555D03*
X011708Y020555D03*
X012708Y020555D03*
X013708Y020555D03*
X014708Y020555D03*
X015708Y020555D03*
X016708Y020555D03*
X017708Y020555D03*
X018708Y020555D03*
X019708Y020555D03*
X020708Y020555D03*
X021708Y020555D03*
X022708Y020555D03*
X023708Y020555D03*
X024708Y020555D03*
X025708Y020555D03*
X026708Y020555D03*
X027708Y020555D03*
X028708Y020555D03*
X027708Y002555D03*
X026708Y002555D03*
X025708Y002555D03*
X024708Y002555D03*
X023708Y002555D03*
X022708Y002555D03*
X021708Y002555D03*
X020708Y002555D03*
X019708Y002555D03*
X018708Y002555D03*
X017708Y002555D03*
X016708Y002555D03*
X015708Y002555D03*
X014708Y002555D03*
X013708Y002555D03*
X012708Y002555D03*
X011708Y002555D03*
X010708Y002555D03*
X009708Y002555D03*
X008708Y002555D03*
X007708Y002555D03*
X006708Y002555D03*
X006708Y001555D03*
X007708Y001555D03*
X008708Y001555D03*
X009708Y001555D03*
X010708Y001555D03*
X011708Y001555D03*
X012708Y001555D03*
X013708Y001555D03*
X014708Y001555D03*
X015708Y001555D03*
X016708Y001555D03*
X017708Y001555D03*
X018708Y001555D03*
X019708Y001555D03*
X020708Y001555D03*
X021708Y001555D03*
X022708Y001555D03*
X023708Y001555D03*
X024708Y001555D03*
X025708Y001555D03*
X026708Y001555D03*
X027708Y001555D03*
X028708Y001555D03*
D19*
X025275Y013181D03*
X026141Y013555D03*
X025275Y013929D03*
D20*
X021208Y012930D03*
X022208Y009930D03*
X023583Y009055D03*
X025583Y009055D03*
X029833Y006805D03*
X030833Y008055D03*
X032458Y008180D03*
X033958Y007305D03*
X035333Y006930D03*
X033958Y009180D03*
X024333Y006305D03*
X013708Y012930D03*
X014352Y013930D03*
X015583Y014055D03*
X012833Y015805D03*
X010208Y014305D03*
X009083Y015430D03*
X014958Y018930D03*
X025083Y017555D03*
X030333Y016680D03*
X030583Y015930D03*
X032208Y015305D03*
X032958Y015055D03*
X034708Y015555D03*
X035958Y014680D03*
X033458Y017555D03*
X035833Y018555D03*
X009958Y011180D03*
X009583Y010680D03*
M02*
