G75*
%MOIN*%
%OFA0B0*%
%FSLAX24Y24*%
%IPPOS*%
%LPD*%
%AMOC8*
5,1,8,0,0,1.08239X$1,22.5*
%
%ADD10C,0.1000*%
%ADD11OC8,0.1000*%
%ADD12R,0.0512X0.0591*%
%ADD13OC8,0.0660*%
%ADD14R,0.0827X0.0827*%
%ADD15R,0.0630X0.0512*%
%ADD16R,0.0512X0.0630*%
%ADD17R,0.0880X0.0480*%
%ADD18R,0.0866X0.1417*%
%ADD19C,0.0476*%
%ADD20C,0.0400*%
%ADD21C,0.0160*%
%ADD22R,0.0396X0.0396*%
%ADD23C,0.0100*%
%ADD24C,0.0396*%
D10*
X030583Y014083D03*
D11*
X030583Y016083D03*
D12*
X016418Y011333D03*
X015748Y011333D03*
D13*
X007833Y017708D03*
X007833Y018708D03*
D14*
X007748Y015083D03*
X005583Y015083D03*
X007583Y007748D03*
X007583Y005583D03*
X014583Y005583D03*
X014583Y007748D03*
X021583Y007748D03*
X021583Y005583D03*
X028583Y005583D03*
X028583Y007748D03*
X035583Y007748D03*
X035583Y005583D03*
X035418Y014256D03*
X035418Y015910D03*
X037583Y015910D03*
X037583Y014256D03*
X035583Y022418D03*
X035583Y024583D03*
X028583Y024583D03*
X028583Y022418D03*
X021583Y022418D03*
X021583Y024583D03*
X014583Y024583D03*
X014583Y022418D03*
X007583Y022418D03*
X007583Y024583D03*
D15*
X013833Y018707D03*
X013833Y017959D03*
X016333Y016707D03*
X016333Y015959D03*
X017833Y015959D03*
X017833Y016707D03*
D16*
X019709Y013958D03*
X020457Y013958D03*
D17*
X014803Y014923D03*
X014803Y015833D03*
X014803Y016743D03*
D18*
X012363Y015833D03*
D19*
X005083Y010583D03*
X005083Y009583D03*
X005083Y008583D03*
D20*
X002933Y003057D02*
X002933Y027104D01*
X005345Y027104D01*
X005256Y027067D01*
X004981Y026792D01*
X004831Y026432D01*
X004831Y026042D01*
X004981Y025682D01*
X005256Y025406D01*
X005616Y025257D01*
X006006Y025257D01*
X006366Y025406D01*
X006642Y025682D01*
X006791Y026042D01*
X006791Y026432D01*
X006642Y026792D01*
X006366Y027067D01*
X006278Y027104D01*
X008888Y027104D01*
X008800Y027067D01*
X008524Y026792D01*
X008375Y026432D01*
X008375Y026042D01*
X008524Y025682D01*
X008800Y025406D01*
X009160Y025257D01*
X009550Y025257D01*
X009910Y025406D01*
X010185Y025682D01*
X010335Y026042D01*
X010335Y026432D01*
X010185Y026792D01*
X009910Y027067D01*
X009821Y027104D01*
X012345Y027104D01*
X012256Y027067D01*
X011981Y026792D01*
X011831Y026432D01*
X011831Y026042D01*
X011981Y025682D01*
X012256Y025406D01*
X012616Y025257D01*
X013006Y025257D01*
X013366Y025406D01*
X013642Y025682D01*
X013791Y026042D01*
X013791Y026432D01*
X013642Y026792D01*
X013366Y027067D01*
X013278Y027104D01*
X015888Y027104D01*
X015800Y027067D01*
X015524Y026792D01*
X015375Y026432D01*
X015375Y026042D01*
X015524Y025682D01*
X015800Y025406D01*
X016160Y025257D01*
X016550Y025257D01*
X016910Y025406D01*
X017185Y025682D01*
X017335Y026042D01*
X017335Y026432D01*
X017185Y026792D01*
X016910Y027067D01*
X016821Y027104D01*
X019345Y027104D01*
X019256Y027067D01*
X018981Y026792D01*
X018831Y026432D01*
X018831Y026042D01*
X018981Y025682D01*
X019256Y025406D01*
X019616Y025257D01*
X020006Y025257D01*
X020366Y025406D01*
X020642Y025682D01*
X020791Y026042D01*
X020791Y026432D01*
X020642Y026792D01*
X020366Y027067D01*
X020278Y027104D01*
X022888Y027104D01*
X022800Y027067D01*
X022524Y026792D01*
X022375Y026432D01*
X022375Y026042D01*
X022524Y025682D01*
X022800Y025406D01*
X023160Y025257D01*
X023550Y025257D01*
X023910Y025406D01*
X024185Y025682D01*
X024335Y026042D01*
X024335Y026432D01*
X024185Y026792D01*
X023910Y027067D01*
X023821Y027104D01*
X026345Y027104D01*
X026256Y027067D01*
X025981Y026792D01*
X025831Y026432D01*
X025831Y026042D01*
X025981Y025682D01*
X026256Y025406D01*
X026616Y025257D01*
X027006Y025257D01*
X027366Y025406D01*
X027642Y025682D01*
X027791Y026042D01*
X027791Y026432D01*
X027642Y026792D01*
X027366Y027067D01*
X027278Y027104D01*
X029888Y027104D01*
X029800Y027067D01*
X029524Y026792D01*
X029375Y026432D01*
X029375Y026042D01*
X029524Y025682D01*
X029800Y025406D01*
X030160Y025257D01*
X030550Y025257D01*
X030910Y025406D01*
X031185Y025682D01*
X031335Y026042D01*
X031335Y026432D01*
X031185Y026792D01*
X030910Y027067D01*
X030821Y027104D01*
X033345Y027104D01*
X033256Y027067D01*
X032981Y026792D01*
X032831Y026432D01*
X032831Y026042D01*
X032981Y025682D01*
X033256Y025406D01*
X033616Y025257D01*
X034006Y025257D01*
X034366Y025406D01*
X034642Y025682D01*
X034791Y026042D01*
X034791Y026432D01*
X034642Y026792D01*
X034366Y027067D01*
X034278Y027104D01*
X036888Y027104D01*
X036800Y027067D01*
X036524Y026792D01*
X036375Y026432D01*
X036375Y026042D01*
X036524Y025682D01*
X036800Y025406D01*
X037160Y025257D01*
X037550Y025257D01*
X037910Y025406D01*
X038185Y025682D01*
X038335Y026042D01*
X038335Y026432D01*
X038185Y026792D01*
X037910Y027067D01*
X037821Y027104D01*
X040103Y027104D01*
X040103Y018150D01*
X040067Y018237D01*
X039792Y018512D01*
X039432Y018661D01*
X039042Y018661D01*
X038682Y018512D01*
X038406Y018237D01*
X038257Y017876D01*
X038257Y017487D01*
X038406Y017126D01*
X038682Y016851D01*
X039042Y016702D01*
X039432Y016702D01*
X039792Y016851D01*
X040067Y017126D01*
X040103Y017213D01*
X040103Y012953D01*
X040067Y013040D01*
X039792Y013315D01*
X039432Y013465D01*
X039042Y013465D01*
X038682Y013315D01*
X038406Y013040D01*
X038257Y012680D01*
X038257Y012290D01*
X038406Y011930D01*
X038682Y011654D01*
X039042Y011505D01*
X039432Y011505D01*
X039792Y011654D01*
X040067Y011930D01*
X040103Y012016D01*
X040103Y002934D01*
X034018Y002954D01*
X034366Y003099D01*
X034642Y003374D01*
X034791Y003735D01*
X034791Y004124D01*
X034642Y004485D01*
X034366Y004760D01*
X034006Y004909D01*
X033616Y004909D01*
X033256Y004760D01*
X032981Y004485D01*
X032831Y004124D01*
X032831Y003735D01*
X032981Y003374D01*
X033256Y003099D01*
X033602Y002956D01*
X030588Y002966D01*
X030910Y003099D01*
X031185Y003374D01*
X031335Y003735D01*
X031335Y004124D01*
X031185Y004485D01*
X030910Y004760D01*
X030550Y004909D01*
X030160Y004909D01*
X029800Y004760D01*
X029524Y004485D01*
X029375Y004124D01*
X029375Y003735D01*
X029524Y003374D01*
X029800Y003099D01*
X030117Y002967D01*
X027073Y002977D01*
X027366Y003099D01*
X027642Y003374D01*
X027791Y003735D01*
X027791Y004124D01*
X027642Y004485D01*
X027366Y004760D01*
X027006Y004909D01*
X026616Y004909D01*
X026256Y004760D01*
X025981Y004485D01*
X025831Y004124D01*
X025831Y003735D01*
X025981Y003374D01*
X026256Y003099D01*
X026546Y002979D01*
X023644Y002989D01*
X023910Y003099D01*
X024185Y003374D01*
X024335Y003735D01*
X024335Y004124D01*
X024185Y004485D01*
X023910Y004760D01*
X023550Y004909D01*
X023160Y004909D01*
X022800Y004760D01*
X022524Y004485D01*
X022375Y004124D01*
X022375Y003735D01*
X022524Y003374D01*
X022800Y003099D01*
X023061Y002990D01*
X020128Y003000D01*
X020366Y003099D01*
X020642Y003374D01*
X020791Y003735D01*
X020791Y004124D01*
X020642Y004485D01*
X020366Y004760D01*
X020006Y004909D01*
X019616Y004909D01*
X019256Y004760D01*
X018981Y004485D01*
X018831Y004124D01*
X018831Y003735D01*
X018981Y003374D01*
X019256Y003099D01*
X019489Y003002D01*
X016699Y003011D01*
X016910Y003099D01*
X017185Y003374D01*
X017335Y003735D01*
X017335Y004124D01*
X017185Y004485D01*
X016910Y004760D01*
X016550Y004909D01*
X016160Y004909D01*
X015800Y004760D01*
X015524Y004485D01*
X015375Y004124D01*
X015375Y003735D01*
X015524Y003374D01*
X015800Y003099D01*
X016005Y003014D01*
X013184Y003023D01*
X013366Y003099D01*
X013642Y003374D01*
X013791Y003735D01*
X013791Y004124D01*
X013642Y004485D01*
X013366Y004760D01*
X013006Y004909D01*
X012616Y004909D01*
X012256Y004760D01*
X011981Y004485D01*
X011831Y004124D01*
X011831Y003735D01*
X011981Y003374D01*
X012256Y003099D01*
X012433Y003026D01*
X009754Y003034D01*
X009910Y003099D01*
X010185Y003374D01*
X010335Y003735D01*
X010335Y004124D01*
X010185Y004485D01*
X009910Y004760D01*
X009550Y004909D01*
X009160Y004909D01*
X008800Y004760D01*
X008524Y004485D01*
X008375Y004124D01*
X008375Y003735D01*
X008524Y003374D01*
X008800Y003099D01*
X008949Y003037D01*
X006239Y003046D01*
X006366Y003099D01*
X006642Y003374D01*
X006791Y003735D01*
X006791Y004124D01*
X006642Y004485D01*
X006366Y004760D01*
X006006Y004909D01*
X005616Y004909D01*
X005256Y004760D01*
X004981Y004485D01*
X004831Y004124D01*
X004831Y003735D01*
X004981Y003374D01*
X005256Y003099D01*
X005377Y003049D01*
X002933Y003057D01*
X002933Y003380D02*
X004978Y003380D01*
X004831Y003779D02*
X002933Y003779D01*
X002933Y004177D02*
X004853Y004177D01*
X005072Y004576D02*
X002933Y004576D01*
X002933Y004974D02*
X006941Y004974D01*
X006937Y004978D02*
X006978Y004937D01*
X007028Y004904D01*
X007082Y004881D01*
X007140Y004870D01*
X007583Y004870D01*
X007583Y005583D01*
X007583Y005583D01*
X006870Y005583D01*
X006870Y005140D01*
X006881Y005082D01*
X006904Y005028D01*
X006937Y004978D01*
X006870Y005373D02*
X002933Y005373D01*
X002933Y005771D02*
X006870Y005771D01*
X006870Y005583D02*
X006870Y006026D01*
X006881Y006084D01*
X006904Y006139D01*
X006937Y006188D01*
X006978Y006229D01*
X007028Y006262D01*
X007082Y006285D01*
X007140Y006296D01*
X007583Y006296D01*
X007583Y005583D01*
X007583Y005583D01*
X007583Y004870D01*
X008026Y004870D01*
X008084Y004881D01*
X008139Y004904D01*
X008188Y004937D01*
X008229Y004978D01*
X008262Y005028D01*
X008285Y005082D01*
X008296Y005140D01*
X008296Y005583D01*
X007583Y005583D01*
X006870Y005583D01*
X006925Y006170D02*
X002933Y006170D01*
X002933Y006568D02*
X040103Y006568D01*
X040103Y006170D02*
X036242Y006170D01*
X036229Y006188D02*
X036188Y006229D01*
X036139Y006262D01*
X036084Y006285D01*
X036026Y006296D01*
X035583Y006296D01*
X035140Y006296D01*
X035082Y006285D01*
X035028Y006262D01*
X034978Y006229D01*
X034937Y006188D01*
X034904Y006139D01*
X034881Y006084D01*
X034870Y006026D01*
X034870Y005583D01*
X034870Y005140D01*
X034881Y005082D01*
X034904Y005028D01*
X034937Y004978D01*
X034978Y004937D01*
X035028Y004904D01*
X035082Y004881D01*
X035140Y004870D01*
X035583Y004870D01*
X035583Y005583D01*
X035583Y005583D01*
X034870Y005583D01*
X035583Y005583D01*
X035583Y005583D01*
X035583Y004870D01*
X036026Y004870D01*
X036084Y004881D01*
X036139Y004904D01*
X036188Y004937D01*
X036229Y004978D01*
X036262Y005028D01*
X036285Y005082D01*
X036296Y005140D01*
X036296Y005583D01*
X035583Y005583D01*
X035583Y005583D01*
X035583Y006296D01*
X035583Y005583D01*
X035583Y005583D01*
X036296Y005583D01*
X036296Y006026D01*
X036285Y006084D01*
X036262Y006139D01*
X036229Y006188D01*
X036296Y005771D02*
X040103Y005771D01*
X040103Y005373D02*
X036296Y005373D01*
X036225Y004974D02*
X040103Y004974D01*
X040103Y004576D02*
X038094Y004576D01*
X038185Y004485D02*
X037910Y004760D01*
X037550Y004909D01*
X037160Y004909D01*
X036800Y004760D01*
X036524Y004485D01*
X036375Y004124D01*
X036375Y003735D01*
X036524Y003374D01*
X036800Y003099D01*
X037160Y002950D01*
X037550Y002950D01*
X037910Y003099D01*
X038185Y003374D01*
X038335Y003735D01*
X038335Y004124D01*
X038185Y004485D01*
X038313Y004177D02*
X040103Y004177D01*
X040103Y003779D02*
X038335Y003779D01*
X038188Y003380D02*
X040103Y003380D01*
X040103Y002982D02*
X037627Y002982D01*
X037083Y002982D02*
X034084Y002982D01*
X033539Y002982D02*
X030627Y002982D01*
X030083Y002982D02*
X027084Y002982D01*
X026539Y002982D02*
X025760Y002982D01*
X025978Y003380D02*
X024188Y003380D01*
X024335Y003779D02*
X025831Y003779D01*
X025853Y004177D02*
X024313Y004177D01*
X024094Y004576D02*
X026072Y004576D01*
X027551Y004576D02*
X029615Y004576D01*
X029225Y004974D02*
X034941Y004974D01*
X034870Y005373D02*
X029296Y005373D01*
X029296Y005583D02*
X029296Y005140D01*
X029285Y005082D01*
X029262Y005028D01*
X029229Y004978D01*
X029188Y004937D01*
X029139Y004904D01*
X029084Y004881D01*
X029026Y004870D01*
X028583Y004870D01*
X028583Y005583D01*
X028583Y005583D01*
X027870Y005583D01*
X027870Y005140D01*
X027881Y005082D01*
X027904Y005028D01*
X027937Y004978D01*
X027978Y004937D01*
X028028Y004904D01*
X028082Y004881D01*
X028140Y004870D01*
X028583Y004870D01*
X028583Y005583D01*
X028583Y005583D01*
X027870Y005583D01*
X027870Y006026D01*
X027881Y006084D01*
X027904Y006139D01*
X027937Y006188D01*
X027978Y006229D01*
X028028Y006262D01*
X028082Y006285D01*
X028140Y006296D01*
X028583Y006296D01*
X028583Y005583D01*
X028583Y005583D01*
X029296Y005583D01*
X029296Y006026D01*
X029285Y006084D01*
X029262Y006139D01*
X029229Y006188D01*
X029188Y006229D01*
X029139Y006262D01*
X029084Y006285D01*
X029026Y006296D01*
X028583Y006296D01*
X028583Y005583D01*
X028583Y005583D01*
X029296Y005583D01*
X029296Y005771D02*
X034870Y005771D01*
X034925Y006170D02*
X029242Y006170D01*
X028583Y006170D02*
X028583Y006170D01*
X028583Y005771D02*
X028583Y005771D01*
X028583Y005373D02*
X028583Y005373D01*
X028583Y004974D02*
X028583Y004974D01*
X027941Y004974D02*
X022225Y004974D01*
X022229Y004978D02*
X022262Y005028D01*
X022285Y005082D01*
X022296Y005140D01*
X022296Y005583D01*
X021583Y005583D01*
X020870Y005583D01*
X020870Y005140D01*
X020881Y005082D01*
X020904Y005028D01*
X020937Y004978D01*
X020978Y004937D01*
X021028Y004904D01*
X021082Y004881D01*
X021140Y004870D01*
X021583Y004870D01*
X021583Y005583D01*
X021583Y005583D01*
X021583Y005583D01*
X020870Y005583D01*
X020870Y006026D01*
X020881Y006084D01*
X020904Y006139D01*
X020937Y006188D01*
X020978Y006229D01*
X021028Y006262D01*
X021082Y006285D01*
X021140Y006296D01*
X021583Y006296D01*
X021583Y005583D01*
X021583Y004870D01*
X022026Y004870D01*
X022084Y004881D01*
X022139Y004904D01*
X022188Y004937D01*
X022229Y004978D01*
X022296Y005373D02*
X027870Y005373D01*
X027870Y005771D02*
X022296Y005771D01*
X022296Y005583D02*
X022296Y006026D01*
X022285Y006084D01*
X022262Y006139D01*
X022229Y006188D01*
X022188Y006229D01*
X022139Y006262D01*
X022084Y006285D01*
X022026Y006296D01*
X021583Y006296D01*
X021583Y005583D01*
X021583Y005583D01*
X021583Y005583D01*
X022296Y005583D01*
X021583Y005771D02*
X021583Y005771D01*
X021583Y006170D02*
X021583Y006170D01*
X020925Y006170D02*
X015242Y006170D01*
X015229Y006188D02*
X015188Y006229D01*
X015139Y006262D01*
X015084Y006285D01*
X015026Y006296D01*
X014583Y006296D01*
X014140Y006296D01*
X014082Y006285D01*
X014028Y006262D01*
X013978Y006229D01*
X013937Y006188D01*
X013904Y006139D01*
X013881Y006084D01*
X013870Y006026D01*
X013870Y005583D01*
X013870Y005140D01*
X013881Y005082D01*
X013904Y005028D01*
X013937Y004978D01*
X013978Y004937D01*
X014028Y004904D01*
X014082Y004881D01*
X014140Y004870D01*
X014583Y004870D01*
X014583Y005583D01*
X014583Y005583D01*
X013870Y005583D01*
X014583Y005583D01*
X014583Y005583D01*
X014583Y004870D01*
X015026Y004870D01*
X015084Y004881D01*
X015139Y004904D01*
X015188Y004937D01*
X015229Y004978D01*
X015262Y005028D01*
X015285Y005082D01*
X015296Y005140D01*
X015296Y005583D01*
X014583Y005583D01*
X014583Y005583D01*
X014583Y006296D01*
X014583Y005583D01*
X014583Y005583D01*
X015296Y005583D01*
X015296Y006026D01*
X015285Y006084D01*
X015262Y006139D01*
X015229Y006188D01*
X015296Y005771D02*
X020870Y005771D01*
X020870Y005373D02*
X015296Y005373D01*
X015225Y004974D02*
X020941Y004974D01*
X020551Y004576D02*
X022615Y004576D01*
X022397Y004177D02*
X020770Y004177D01*
X020791Y003779D02*
X022375Y003779D01*
X022522Y003380D02*
X020644Y003380D01*
X018978Y003380D02*
X017188Y003380D01*
X017335Y003779D02*
X018831Y003779D01*
X018853Y004177D02*
X017313Y004177D01*
X017094Y004576D02*
X019072Y004576D01*
X021583Y004974D02*
X021583Y004974D01*
X021583Y005373D02*
X021583Y005373D01*
X022242Y006170D02*
X027925Y006170D01*
X028110Y007035D02*
X028000Y007081D01*
X027915Y007165D01*
X027870Y007275D01*
X027870Y008221D01*
X027915Y008332D01*
X028000Y008416D01*
X028110Y008462D01*
X029056Y008462D01*
X029166Y008416D01*
X029251Y008332D01*
X029296Y008221D01*
X029296Y007275D01*
X029251Y007165D01*
X029166Y007081D01*
X029056Y007035D01*
X028110Y007035D01*
X027870Y007365D02*
X022296Y007365D01*
X022296Y007275D02*
X022251Y007165D01*
X022166Y007081D01*
X022056Y007035D01*
X021110Y007035D01*
X021000Y007081D01*
X020915Y007165D01*
X020870Y007275D01*
X020870Y008221D01*
X020915Y008332D01*
X021000Y008416D01*
X021110Y008462D01*
X022056Y008462D01*
X022166Y008416D01*
X022251Y008332D01*
X022296Y008221D01*
X022296Y007275D01*
X022296Y007764D02*
X027870Y007764D01*
X027870Y008162D02*
X022296Y008162D01*
X020870Y008162D02*
X015296Y008162D01*
X015296Y008221D02*
X015251Y008332D01*
X015166Y008416D01*
X015056Y008462D01*
X014110Y008462D01*
X014000Y008416D01*
X013915Y008332D01*
X013870Y008221D01*
X013870Y007275D01*
X013915Y007165D01*
X014000Y007081D01*
X014110Y007035D01*
X015056Y007035D01*
X015166Y007081D01*
X015251Y007165D01*
X015296Y007275D01*
X015296Y008221D01*
X015296Y007764D02*
X020870Y007764D01*
X020870Y007365D02*
X015296Y007365D01*
X013870Y007365D02*
X008296Y007365D01*
X008296Y007275D02*
X008251Y007165D01*
X008166Y007081D01*
X008056Y007035D01*
X007110Y007035D01*
X007000Y007081D01*
X006915Y007165D01*
X006870Y007275D01*
X006870Y008221D01*
X006915Y008332D01*
X007000Y008416D01*
X007110Y008462D01*
X008056Y008462D01*
X008166Y008416D01*
X008251Y008332D01*
X008296Y008221D01*
X008296Y007275D01*
X008296Y007764D02*
X013870Y007764D01*
X013870Y008162D02*
X008296Y008162D01*
X006870Y008162D02*
X005419Y008162D01*
X005433Y008173D02*
X005493Y008233D01*
X005543Y008301D01*
X005581Y008377D01*
X005608Y008457D01*
X005621Y008541D01*
X005621Y008583D01*
X005083Y008583D01*
X004545Y008583D01*
X004545Y008541D01*
X004559Y008457D01*
X004585Y008377D01*
X004623Y008301D01*
X004673Y008233D01*
X004733Y008173D01*
X004801Y008123D01*
X004877Y008085D01*
X004957Y008059D01*
X005041Y008045D01*
X005083Y008045D01*
X005083Y008583D01*
X005083Y008583D01*
X005083Y008583D01*
X004545Y008583D01*
X004545Y008625D01*
X004559Y008709D01*
X004585Y008790D01*
X004623Y008865D01*
X004673Y008933D01*
X004733Y008993D01*
X004801Y009043D01*
X004877Y009081D01*
X004883Y009084D01*
X004778Y009127D01*
X004627Y009278D01*
X004545Y009476D01*
X004545Y009690D01*
X004627Y009888D01*
X004778Y010039D01*
X004885Y010083D01*
X004778Y010127D01*
X004627Y010278D01*
X004545Y010476D01*
X004545Y010690D01*
X004627Y010888D01*
X004778Y011039D01*
X004976Y011121D01*
X005190Y011121D01*
X005388Y011039D01*
X005539Y010888D01*
X005621Y010690D01*
X005621Y010476D01*
X005539Y010278D01*
X005388Y010127D01*
X005281Y010083D01*
X005388Y010039D01*
X005539Y009888D01*
X005621Y009690D01*
X005621Y009476D01*
X005539Y009278D01*
X005388Y009127D01*
X005283Y009084D01*
X005290Y009081D01*
X005365Y009043D01*
X005433Y008993D01*
X005493Y008933D01*
X005543Y008865D01*
X005581Y008790D01*
X005608Y008709D01*
X005621Y008625D01*
X005621Y008583D01*
X005083Y008583D01*
X005083Y008045D01*
X005125Y008045D01*
X005209Y008059D01*
X005290Y008085D01*
X005365Y008123D01*
X005433Y008173D01*
X005083Y008162D02*
X005083Y008162D01*
X004748Y008162D02*
X002933Y008162D01*
X002933Y008561D02*
X004545Y008561D01*
X004699Y008959D02*
X002933Y008959D01*
X002933Y009358D02*
X004594Y009358D01*
X004573Y009756D02*
X002933Y009756D01*
X002933Y010155D02*
X004751Y010155D01*
X004545Y010553D02*
X002933Y010553D01*
X002933Y010952D02*
X004691Y010952D01*
X005475Y010952D02*
X014135Y010952D01*
X014176Y010911D02*
X014359Y010835D01*
X014557Y010835D01*
X014740Y010911D01*
X014783Y010953D01*
X015203Y010953D01*
X015238Y010868D01*
X015323Y010783D01*
X015433Y010738D01*
X016064Y010738D01*
X016086Y010747D01*
X016132Y010738D01*
X016418Y010738D01*
X016703Y010738D01*
X016761Y010749D01*
X016816Y010772D01*
X016865Y010805D01*
X016907Y010847D01*
X016939Y010896D01*
X016962Y010950D01*
X016974Y011008D01*
X016974Y011333D01*
X016418Y011333D01*
X016418Y011333D01*
X016974Y011333D01*
X016974Y011658D01*
X016962Y011716D01*
X016939Y011770D01*
X016907Y011820D01*
X016865Y011861D01*
X016816Y011894D01*
X016761Y011917D01*
X016703Y011928D01*
X016418Y011928D01*
X016418Y011333D01*
X016418Y010738D01*
X016418Y011333D01*
X016418Y011333D01*
X016418Y011333D01*
X016418Y011928D01*
X016132Y011928D01*
X016128Y011928D01*
X016128Y013717D01*
X017815Y015403D01*
X018208Y015403D01*
X018318Y015449D01*
X018402Y015533D01*
X018448Y015643D01*
X018448Y016275D01*
X018424Y016333D01*
X018448Y016392D01*
X018448Y017023D01*
X018402Y017133D01*
X018318Y017217D01*
X018208Y017263D01*
X017458Y017263D01*
X017348Y017217D01*
X017264Y017133D01*
X017245Y017087D01*
X016921Y017087D01*
X016902Y017133D01*
X016818Y017217D01*
X016708Y017263D01*
X015958Y017263D01*
X015848Y017217D01*
X015764Y017133D01*
X015745Y017087D01*
X015525Y017087D01*
X015497Y017153D01*
X015413Y017237D01*
X015303Y017283D01*
X014303Y017283D01*
X014193Y017237D01*
X014109Y017153D01*
X014063Y017043D01*
X014063Y016443D01*
X014109Y016333D01*
X014154Y016288D01*
X014109Y016243D01*
X014096Y016213D01*
X013096Y016213D01*
X013096Y016601D01*
X013072Y016660D01*
X013815Y017403D01*
X014208Y017403D01*
X014318Y017449D01*
X014352Y017483D01*
X015873Y017483D01*
X015881Y017465D01*
X015965Y017381D01*
X016075Y017335D01*
X016591Y017335D01*
X016701Y017381D01*
X016786Y017465D01*
X016831Y017575D01*
X016831Y018091D01*
X016786Y018201D01*
X016701Y018286D01*
X016591Y018331D01*
X016075Y018331D01*
X015965Y018286D01*
X015881Y018201D01*
X015873Y018183D01*
X014448Y018183D01*
X014448Y018275D01*
X014424Y018333D01*
X014448Y018392D01*
X014448Y019023D01*
X014402Y019133D01*
X014318Y019217D01*
X014208Y019263D01*
X013458Y019263D01*
X013348Y019217D01*
X013264Y019133D01*
X013245Y019088D01*
X008344Y019088D01*
X008094Y019338D01*
X007572Y019338D01*
X007203Y018969D01*
X007203Y018447D01*
X007442Y018208D01*
X007203Y017969D01*
X007203Y017447D01*
X007368Y017282D01*
X007368Y015796D01*
X007275Y015796D01*
X007165Y015751D01*
X007081Y015666D01*
X007035Y015556D01*
X007035Y014610D01*
X007081Y014500D01*
X007165Y014415D01*
X007275Y014370D01*
X008221Y014370D01*
X008332Y014415D01*
X008416Y014500D01*
X008462Y014610D01*
X008462Y015556D01*
X008416Y015666D01*
X008332Y015751D01*
X008221Y015796D01*
X008128Y015796D01*
X008128Y017112D01*
X008463Y017447D01*
X008463Y017969D01*
X008224Y018208D01*
X008344Y018328D01*
X013240Y018328D01*
X013218Y018275D01*
X013218Y017881D01*
X012178Y016842D01*
X011870Y016842D01*
X011760Y016796D01*
X011676Y016712D01*
X011630Y016601D01*
X011630Y015065D01*
X011676Y014954D01*
X011760Y014870D01*
X011870Y014824D01*
X012856Y014824D01*
X012966Y014870D01*
X013050Y014954D01*
X013096Y015065D01*
X013096Y015453D01*
X014096Y015453D01*
X014109Y015423D01*
X014154Y015378D01*
X014130Y015354D01*
X014097Y015305D01*
X014075Y015251D01*
X014063Y015193D01*
X014063Y014923D01*
X014063Y014654D01*
X014075Y014596D01*
X014097Y014541D01*
X014130Y014492D01*
X014172Y014450D01*
X014221Y014417D01*
X014276Y014395D01*
X014334Y014383D01*
X014803Y014383D01*
X014803Y014923D01*
X014803Y014923D01*
X014063Y014923D01*
X014803Y014923D01*
X014803Y014923D01*
X014803Y014383D01*
X015273Y014383D01*
X015331Y014395D01*
X015385Y014417D01*
X015434Y014450D01*
X015476Y014492D01*
X015509Y014541D01*
X015532Y014596D01*
X015543Y014654D01*
X015543Y014923D01*
X014803Y014923D01*
X014803Y014923D01*
X015543Y014923D01*
X015543Y015193D01*
X015532Y015251D01*
X015509Y015305D01*
X015476Y015354D01*
X015452Y015378D01*
X015497Y015423D01*
X015543Y015533D01*
X015543Y016133D01*
X015497Y016243D01*
X015452Y016288D01*
X015491Y016327D01*
X015740Y016327D01*
X015730Y016302D01*
X015718Y016245D01*
X015718Y015959D01*
X015718Y015674D01*
X015730Y015616D01*
X015752Y015561D01*
X015785Y015512D01*
X015827Y015470D01*
X015876Y015437D01*
X015931Y015415D01*
X015989Y015403D01*
X016333Y015403D01*
X016333Y015959D01*
X015718Y015959D01*
X016333Y015959D01*
X016333Y015959D01*
X016333Y015959D01*
X016333Y015403D01*
X016678Y015403D01*
X016736Y015415D01*
X016762Y015426D01*
X015426Y014090D01*
X015368Y013950D01*
X015368Y011902D01*
X015323Y011883D01*
X015238Y011798D01*
X015203Y011713D01*
X014783Y011713D01*
X014740Y011755D01*
X014557Y011831D01*
X014359Y011831D01*
X014176Y011755D01*
X014036Y011615D01*
X013960Y011432D01*
X013960Y011234D01*
X014036Y011051D01*
X014176Y010911D01*
X013960Y011350D02*
X002933Y011350D01*
X002933Y011749D02*
X014169Y011749D01*
X014747Y011749D02*
X015218Y011749D01*
X015368Y012147D02*
X002933Y012147D01*
X002933Y012546D02*
X003310Y012546D01*
X003374Y012481D02*
X003735Y012331D01*
X004124Y012331D01*
X004485Y012481D01*
X004760Y012756D01*
X004909Y013116D01*
X004909Y013506D01*
X004760Y013866D01*
X004485Y014142D01*
X004124Y014291D01*
X003735Y014291D01*
X003374Y014142D01*
X003099Y013866D01*
X002950Y013506D01*
X002950Y013116D01*
X003099Y012756D01*
X003374Y012481D01*
X003021Y012944D02*
X002933Y012944D01*
X002933Y013343D02*
X002950Y013343D01*
X002933Y013741D02*
X003047Y013741D01*
X002933Y014140D02*
X003372Y014140D01*
X002933Y014538D02*
X004899Y014538D01*
X004904Y014528D02*
X004937Y014478D01*
X004978Y014437D01*
X005028Y014404D01*
X005082Y014381D01*
X005140Y014370D01*
X005583Y014370D01*
X005583Y015083D01*
X004870Y015083D01*
X004870Y014640D01*
X004881Y014582D01*
X004904Y014528D01*
X004870Y014937D02*
X002933Y014937D01*
X002933Y015335D02*
X004870Y015335D01*
X004870Y015526D02*
X004870Y015083D01*
X005583Y015083D01*
X005583Y015083D01*
X005583Y015083D01*
X005583Y014370D01*
X006026Y014370D01*
X006084Y014381D01*
X006139Y014404D01*
X006188Y014437D01*
X006229Y014478D01*
X006262Y014528D01*
X006285Y014582D01*
X006296Y014640D01*
X006296Y015083D01*
X005583Y015083D01*
X005583Y015796D01*
X005140Y015796D01*
X005082Y015785D01*
X005028Y015762D01*
X004978Y015729D01*
X004937Y015688D01*
X004904Y015639D01*
X004881Y015584D01*
X004870Y015526D01*
X004985Y015734D02*
X002933Y015734D01*
X002933Y016132D02*
X003266Y016132D01*
X003374Y016024D02*
X003735Y015875D01*
X004124Y015875D01*
X004485Y016024D01*
X004760Y016300D01*
X004909Y016660D01*
X004909Y017050D01*
X004760Y017410D01*
X004485Y017685D01*
X004124Y017835D01*
X003735Y017835D01*
X003374Y017685D01*
X003099Y017410D01*
X002950Y017050D01*
X002950Y016660D01*
X003099Y016300D01*
X003374Y016024D01*
X003003Y016531D02*
X002933Y016531D01*
X002933Y016929D02*
X002950Y016929D01*
X002933Y017328D02*
X003065Y017328D01*
X002933Y017726D02*
X003473Y017726D01*
X002933Y018125D02*
X007359Y018125D01*
X007203Y018523D02*
X002933Y018523D01*
X002933Y018922D02*
X007203Y018922D01*
X007554Y019320D02*
X002933Y019320D01*
X002933Y019719D02*
X040103Y019719D01*
X040103Y020117D02*
X002933Y020117D01*
X002933Y020516D02*
X040103Y020516D01*
X040103Y020914D02*
X002933Y020914D01*
X002933Y021313D02*
X040103Y021313D01*
X040103Y021711D02*
X036072Y021711D01*
X036056Y021704D02*
X036166Y021750D01*
X036251Y021834D01*
X036296Y021945D01*
X036296Y022891D01*
X036251Y023001D01*
X036166Y023085D01*
X036056Y023131D01*
X035110Y023131D01*
X035000Y023085D01*
X034915Y023001D01*
X034870Y022891D01*
X034870Y021945D01*
X034915Y021834D01*
X035000Y021750D01*
X035110Y021704D01*
X036056Y021704D01*
X036296Y022110D02*
X040103Y022110D01*
X040103Y022508D02*
X036296Y022508D01*
X036290Y022907D02*
X040103Y022907D01*
X040103Y023305D02*
X002933Y023305D01*
X002933Y023704D02*
X040103Y023704D01*
X040103Y024102D02*
X036289Y024102D01*
X036285Y024082D02*
X036296Y024140D01*
X036296Y024583D01*
X035583Y024583D01*
X034870Y024583D01*
X034870Y024140D01*
X034881Y024082D01*
X034904Y024028D01*
X034937Y023978D01*
X034978Y023937D01*
X035028Y023904D01*
X035082Y023881D01*
X035140Y023870D01*
X035583Y023870D01*
X035583Y024583D01*
X035583Y024583D01*
X035583Y024583D01*
X034870Y024583D01*
X034870Y025026D01*
X034881Y025084D01*
X034904Y025139D01*
X034937Y025188D01*
X034978Y025229D01*
X035028Y025262D01*
X035082Y025285D01*
X035140Y025296D01*
X035583Y025296D01*
X035583Y024583D01*
X035583Y023870D01*
X036026Y023870D01*
X036084Y023881D01*
X036139Y023904D01*
X036188Y023937D01*
X036229Y023978D01*
X036262Y024028D01*
X036285Y024082D01*
X036296Y024501D02*
X040103Y024501D01*
X040103Y024899D02*
X036296Y024899D01*
X036296Y025026D02*
X036285Y025084D01*
X036262Y025139D01*
X036229Y025188D01*
X036188Y025229D01*
X036139Y025262D01*
X036084Y025285D01*
X036026Y025296D01*
X035583Y025296D01*
X035583Y024583D01*
X035583Y024583D01*
X035583Y024583D01*
X036296Y024583D01*
X036296Y025026D01*
X037061Y025298D02*
X034105Y025298D01*
X034870Y024899D02*
X029296Y024899D01*
X029296Y025026D02*
X029285Y025084D01*
X029262Y025139D01*
X029229Y025188D01*
X029188Y025229D01*
X029139Y025262D01*
X029084Y025285D01*
X029026Y025296D01*
X028583Y025296D01*
X028140Y025296D01*
X028082Y025285D01*
X028028Y025262D01*
X027978Y025229D01*
X027937Y025188D01*
X027904Y025139D01*
X027881Y025084D01*
X027870Y025026D01*
X027870Y024583D01*
X027870Y024140D01*
X027881Y024082D01*
X027904Y024028D01*
X027937Y023978D01*
X027978Y023937D01*
X028028Y023904D01*
X028082Y023881D01*
X028140Y023870D01*
X028583Y023870D01*
X028583Y024583D01*
X027870Y024583D01*
X028583Y024583D01*
X028583Y024583D01*
X028583Y024583D01*
X028583Y023870D01*
X029026Y023870D01*
X029084Y023881D01*
X029139Y023904D01*
X029188Y023937D01*
X029229Y023978D01*
X029262Y024028D01*
X029285Y024082D01*
X029296Y024140D01*
X029296Y024583D01*
X028583Y024583D01*
X028583Y025296D01*
X028583Y024583D01*
X028583Y024583D01*
X028583Y024583D01*
X029296Y024583D01*
X029296Y025026D01*
X029296Y024501D02*
X034870Y024501D01*
X034877Y024102D02*
X029289Y024102D01*
X028583Y024102D02*
X028583Y024102D01*
X028583Y024501D02*
X028583Y024501D01*
X028583Y024899D02*
X028583Y024899D01*
X027870Y024899D02*
X022296Y024899D01*
X022296Y025026D02*
X022285Y025084D01*
X022262Y025139D01*
X022229Y025188D01*
X022188Y025229D01*
X022139Y025262D01*
X022084Y025285D01*
X022026Y025296D01*
X021583Y025296D01*
X021140Y025296D01*
X021082Y025285D01*
X021028Y025262D01*
X020978Y025229D01*
X020937Y025188D01*
X020904Y025139D01*
X020881Y025084D01*
X020870Y025026D01*
X020870Y024583D01*
X020870Y024140D01*
X020881Y024082D01*
X020904Y024028D01*
X020937Y023978D01*
X020978Y023937D01*
X021028Y023904D01*
X021082Y023881D01*
X021140Y023870D01*
X021583Y023870D01*
X021583Y024583D01*
X020870Y024583D01*
X021583Y024583D01*
X021583Y024583D01*
X021583Y024583D01*
X021583Y023870D01*
X022026Y023870D01*
X022084Y023881D01*
X022139Y023904D01*
X022188Y023937D01*
X022229Y023978D01*
X022262Y024028D01*
X022285Y024082D01*
X022296Y024140D01*
X022296Y024583D01*
X021583Y024583D01*
X021583Y025296D01*
X021583Y024583D01*
X021583Y024583D01*
X021583Y024583D01*
X022296Y024583D01*
X022296Y025026D01*
X022296Y024501D02*
X027870Y024501D01*
X027877Y024102D02*
X022289Y024102D01*
X021583Y024102D02*
X021583Y024102D01*
X020877Y024102D02*
X015289Y024102D01*
X015285Y024082D02*
X015296Y024140D01*
X015296Y024583D01*
X014583Y024583D01*
X013870Y024583D01*
X013870Y024140D01*
X013881Y024082D01*
X013904Y024028D01*
X013937Y023978D01*
X013978Y023937D01*
X014028Y023904D01*
X014082Y023881D01*
X014140Y023870D01*
X014583Y023870D01*
X014583Y024583D01*
X014583Y024583D01*
X014583Y024583D01*
X013870Y024583D01*
X013870Y025026D01*
X013881Y025084D01*
X013904Y025139D01*
X013937Y025188D01*
X013978Y025229D01*
X014028Y025262D01*
X014082Y025285D01*
X014140Y025296D01*
X014583Y025296D01*
X014583Y024583D01*
X014583Y023870D01*
X015026Y023870D01*
X015084Y023881D01*
X015139Y023904D01*
X015188Y023937D01*
X015229Y023978D01*
X015262Y024028D01*
X015285Y024082D01*
X015296Y024501D02*
X020870Y024501D01*
X020870Y024899D02*
X015296Y024899D01*
X015296Y025026D02*
X015285Y025084D01*
X015262Y025139D01*
X015229Y025188D01*
X015188Y025229D01*
X015139Y025262D01*
X015084Y025285D01*
X015026Y025296D01*
X014583Y025296D01*
X014583Y024583D01*
X014583Y024583D01*
X014583Y024583D01*
X015296Y024583D01*
X015296Y025026D01*
X014583Y024899D02*
X014583Y024899D01*
X014583Y024501D02*
X014583Y024501D01*
X013870Y024501D02*
X008296Y024501D01*
X008296Y024583D02*
X007583Y024583D01*
X006870Y024583D01*
X006870Y024140D01*
X006881Y024082D01*
X006904Y024028D01*
X006937Y023978D01*
X006978Y023937D01*
X007028Y023904D01*
X007082Y023881D01*
X007140Y023870D01*
X007583Y023870D01*
X007583Y024583D01*
X007583Y024583D01*
X007583Y024583D01*
X006870Y024583D01*
X006870Y025026D01*
X006881Y025084D01*
X006904Y025139D01*
X006937Y025188D01*
X006978Y025229D01*
X007028Y025262D01*
X007082Y025285D01*
X007140Y025296D01*
X007583Y025296D01*
X007583Y024583D01*
X007583Y023870D01*
X008026Y023870D01*
X008084Y023881D01*
X008139Y023904D01*
X008188Y023937D01*
X008229Y023978D01*
X008262Y024028D01*
X008285Y024082D01*
X008296Y024140D01*
X008296Y024583D01*
X008296Y025026D01*
X008285Y025084D01*
X008262Y025139D01*
X008229Y025188D01*
X008188Y025229D01*
X008139Y025262D01*
X008084Y025285D01*
X008026Y025296D01*
X007583Y025296D01*
X007583Y024583D01*
X007583Y024583D01*
X007583Y024583D01*
X008296Y024583D01*
X008296Y024899D02*
X013870Y024899D01*
X013105Y025298D02*
X016061Y025298D01*
X016648Y025298D02*
X019518Y025298D01*
X020105Y025298D02*
X023061Y025298D01*
X023648Y025298D02*
X026518Y025298D01*
X027105Y025298D02*
X030061Y025298D01*
X030648Y025298D02*
X033518Y025298D01*
X032975Y025696D02*
X031191Y025696D01*
X031335Y026095D02*
X032831Y026095D01*
X032857Y026493D02*
X031309Y026493D01*
X031086Y026892D02*
X033081Y026892D01*
X034542Y026892D02*
X036624Y026892D01*
X036400Y026493D02*
X034766Y026493D01*
X034791Y026095D02*
X036375Y026095D01*
X036518Y025696D02*
X034648Y025696D01*
X035583Y024899D02*
X035583Y024899D01*
X035583Y024501D02*
X035583Y024501D01*
X035583Y024102D02*
X035583Y024102D01*
X034876Y022907D02*
X029290Y022907D01*
X029296Y022891D02*
X029251Y023001D01*
X029166Y023085D01*
X029056Y023131D01*
X028110Y023131D01*
X028000Y023085D01*
X027915Y023001D01*
X027870Y022891D01*
X027870Y021945D01*
X027915Y021834D01*
X028000Y021750D01*
X028110Y021704D01*
X029056Y021704D01*
X029166Y021750D01*
X029251Y021834D01*
X029296Y021945D01*
X029296Y022891D01*
X029296Y022508D02*
X034870Y022508D01*
X034870Y022110D02*
X029296Y022110D01*
X029072Y021711D02*
X035094Y021711D01*
X038708Y018523D02*
X014448Y018523D01*
X014448Y018922D02*
X040103Y018922D01*
X040103Y018523D02*
X039766Y018523D01*
X040103Y019320D02*
X008112Y019320D01*
X008308Y018125D02*
X013218Y018125D01*
X013063Y017726D02*
X008463Y017726D01*
X008344Y017328D02*
X012664Y017328D01*
X012266Y016929D02*
X008128Y016929D01*
X007368Y016929D02*
X004909Y016929D01*
X004794Y017328D02*
X007323Y017328D01*
X007203Y017726D02*
X004387Y017726D01*
X004856Y016531D02*
X007368Y016531D01*
X007368Y016132D02*
X004593Y016132D01*
X005583Y015796D02*
X005583Y015083D01*
X005583Y015083D01*
X005583Y015083D01*
X006296Y015083D01*
X006296Y015526D01*
X006285Y015584D01*
X006262Y015639D01*
X006229Y015688D01*
X006188Y015729D01*
X006139Y015762D01*
X006084Y015785D01*
X006026Y015796D01*
X005583Y015796D01*
X005583Y015734D02*
X005583Y015734D01*
X005583Y015335D02*
X005583Y015335D01*
X005583Y014937D02*
X005583Y014937D01*
X005583Y014538D02*
X005583Y014538D01*
X006267Y014538D02*
X007065Y014538D01*
X007035Y014937D02*
X006296Y014937D01*
X006296Y015335D02*
X007035Y015335D01*
X007148Y015734D02*
X006182Y015734D01*
X008128Y016132D02*
X011630Y016132D01*
X011630Y015734D02*
X008349Y015734D01*
X008462Y015335D02*
X011630Y015335D01*
X011693Y014937D02*
X008462Y014937D01*
X008432Y014538D02*
X014099Y014538D01*
X014063Y014937D02*
X013032Y014937D01*
X013096Y015335D02*
X014117Y015335D01*
X014803Y014538D02*
X014803Y014538D01*
X015507Y014538D02*
X015875Y014538D01*
X015543Y014937D02*
X016273Y014937D01*
X016672Y015335D02*
X015489Y015335D01*
X015543Y015734D02*
X015718Y015734D01*
X015718Y016132D02*
X015543Y016132D01*
X016333Y015959D02*
X016948Y015959D01*
X016333Y015959D01*
X016333Y015959D01*
X016333Y015734D02*
X016333Y015734D01*
X016925Y015589D02*
X016937Y015616D01*
X016948Y015674D01*
X016948Y015959D01*
X016948Y016245D01*
X016937Y016302D01*
X016926Y016327D01*
X017240Y016327D01*
X017218Y016275D01*
X017218Y015881D01*
X016925Y015589D01*
X016948Y015734D02*
X017070Y015734D01*
X016948Y016132D02*
X017218Y016132D01*
X017746Y015335D02*
X030200Y015335D01*
X030252Y015283D02*
X029783Y015752D01*
X029783Y016083D01*
X030583Y016083D01*
X030583Y016083D01*
X030583Y016083D01*
X030583Y015283D01*
X030252Y015283D01*
X030583Y015283D02*
X030914Y015283D01*
X031383Y015752D01*
X031383Y016083D01*
X030583Y016083D01*
X029783Y016083D01*
X029783Y016414D01*
X030252Y016883D01*
X030583Y016883D01*
X030583Y016083D01*
X030583Y015283D01*
X030583Y015335D02*
X030583Y015335D01*
X030966Y015335D02*
X034746Y015335D01*
X034750Y015327D02*
X034834Y015242D01*
X034945Y015196D01*
X035891Y015196D01*
X036001Y015242D01*
X036085Y015327D01*
X036131Y015437D01*
X036131Y016383D01*
X036085Y016493D01*
X036001Y016578D01*
X035891Y016623D01*
X034945Y016623D01*
X034834Y016578D01*
X034750Y016493D01*
X034704Y016383D01*
X034704Y015437D01*
X034750Y015327D01*
X034945Y014970D02*
X034834Y014924D01*
X034750Y014840D01*
X034704Y014729D01*
X034704Y013783D01*
X034750Y013673D01*
X034834Y013589D01*
X034945Y013543D01*
X035891Y013543D01*
X036001Y013589D01*
X036085Y013673D01*
X036131Y013783D01*
X036131Y014729D01*
X036085Y014840D01*
X036001Y014924D01*
X035891Y014970D01*
X034945Y014970D01*
X034865Y014937D02*
X017348Y014937D01*
X016949Y014538D02*
X019309Y014538D01*
X019283Y014527D02*
X019199Y014443D01*
X019153Y014333D01*
X019153Y013583D01*
X019199Y013473D01*
X019283Y013389D01*
X019308Y013379D01*
X019256Y013326D01*
X019210Y013216D01*
X019210Y012700D01*
X019256Y012590D01*
X019340Y012506D01*
X019450Y012460D01*
X019966Y012460D01*
X020076Y012506D01*
X020161Y012590D01*
X020206Y012700D01*
X020206Y013216D01*
X020161Y013326D01*
X020137Y013350D01*
X020172Y013343D01*
X020457Y013343D01*
X020457Y013958D01*
X020457Y013958D01*
X020457Y013343D01*
X020743Y013343D01*
X020800Y013355D01*
X020855Y013377D01*
X020904Y013410D01*
X020946Y013452D01*
X020979Y013501D01*
X021001Y013556D01*
X021013Y013614D01*
X021013Y013958D01*
X020457Y013958D01*
X020457Y014573D01*
X020172Y014573D01*
X020114Y014562D01*
X020083Y014549D01*
X020025Y014573D01*
X019393Y014573D01*
X019283Y014527D01*
X019153Y014140D02*
X016551Y014140D01*
X016152Y013741D02*
X019153Y013741D01*
X019272Y013343D02*
X016128Y013343D01*
X016128Y012944D02*
X019210Y012944D01*
X019300Y012546D02*
X016128Y012546D01*
X016128Y012147D02*
X038316Y012147D01*
X038257Y012546D02*
X020116Y012546D01*
X020206Y012944D02*
X038366Y012944D01*
X038747Y013343D02*
X030886Y013343D01*
X030742Y013283D02*
X031036Y013405D01*
X031261Y013630D01*
X031383Y013924D01*
X031383Y014242D01*
X031261Y014536D01*
X031036Y014761D01*
X030742Y014883D01*
X030424Y014883D01*
X030130Y014761D01*
X029905Y014536D01*
X029783Y014242D01*
X029783Y013924D01*
X029905Y013630D01*
X030130Y013405D01*
X030424Y013283D01*
X030742Y013283D01*
X030280Y013343D02*
X020144Y013343D01*
X020457Y013741D02*
X020457Y013741D01*
X020457Y013958D02*
X020457Y013958D01*
X020457Y013958D01*
X020457Y014573D01*
X020743Y014573D01*
X020800Y014562D01*
X020855Y014539D01*
X020904Y014506D01*
X020946Y014464D01*
X020979Y014415D01*
X021001Y014361D01*
X021013Y014303D01*
X021013Y013958D01*
X020457Y013958D01*
X020457Y014140D02*
X020457Y014140D01*
X021013Y014140D02*
X029783Y014140D01*
X029859Y013741D02*
X021013Y013741D01*
X020856Y014538D02*
X029907Y014538D01*
X031259Y014538D02*
X034704Y014538D01*
X034704Y014140D02*
X031383Y014140D01*
X031307Y013741D02*
X034722Y013741D01*
X036114Y013741D02*
X036887Y013741D01*
X036881Y013755D02*
X036904Y013701D01*
X036937Y013652D01*
X036978Y013610D01*
X037028Y013577D01*
X037082Y013554D01*
X037140Y013543D01*
X037583Y013543D01*
X037583Y014256D01*
X037583Y014256D01*
X037583Y013543D01*
X038026Y013543D01*
X038084Y013554D01*
X038139Y013577D01*
X038188Y013610D01*
X038229Y013652D01*
X038262Y013701D01*
X038285Y013755D01*
X038296Y013813D01*
X038296Y014256D01*
X037583Y014256D01*
X036870Y014256D01*
X036870Y013813D01*
X036881Y013755D01*
X036870Y014140D02*
X036131Y014140D01*
X036131Y014538D02*
X036870Y014538D01*
X036870Y014699D02*
X036870Y014256D01*
X037583Y014256D01*
X037583Y014256D01*
X037583Y014256D01*
X038296Y014256D01*
X038296Y014699D01*
X038285Y014757D01*
X038262Y014812D01*
X038229Y014861D01*
X038188Y014903D01*
X038139Y014936D01*
X038084Y014958D01*
X038026Y014970D01*
X037583Y014970D01*
X037140Y014970D01*
X037082Y014958D01*
X037028Y014936D01*
X036978Y014903D01*
X036937Y014861D01*
X036904Y014812D01*
X036881Y014757D01*
X036870Y014699D01*
X037030Y014937D02*
X035971Y014937D01*
X036089Y015335D02*
X036917Y015335D01*
X036904Y015354D02*
X036937Y015305D01*
X036978Y015263D01*
X037028Y015231D01*
X037082Y015208D01*
X037140Y015196D01*
X037583Y015196D01*
X037583Y015910D01*
X037583Y016623D01*
X037140Y016623D01*
X037082Y016612D01*
X037028Y016589D01*
X036978Y016556D01*
X036937Y016514D01*
X036904Y016465D01*
X036881Y016411D01*
X036870Y016353D01*
X036870Y015910D01*
X037583Y015910D01*
X037583Y015910D01*
X037583Y015910D01*
X037583Y016623D01*
X038026Y016623D01*
X038084Y016612D01*
X038139Y016589D01*
X038188Y016556D01*
X038229Y016514D01*
X038262Y016465D01*
X038285Y016411D01*
X038296Y016353D01*
X038296Y015910D01*
X037583Y015910D01*
X037583Y015910D01*
X036870Y015910D01*
X036870Y015467D01*
X036881Y015409D01*
X036904Y015354D01*
X036870Y015734D02*
X036131Y015734D01*
X036131Y016132D02*
X036870Y016132D01*
X036953Y016531D02*
X036048Y016531D01*
X034787Y016531D02*
X031267Y016531D01*
X031383Y016414D02*
X030914Y016883D01*
X030583Y016883D01*
X030583Y016083D01*
X030583Y016083D01*
X030583Y016083D01*
X031383Y016083D01*
X031383Y016414D01*
X031383Y016132D02*
X034704Y016132D01*
X034704Y015734D02*
X031365Y015734D01*
X030583Y015734D02*
X030583Y015734D01*
X030583Y016132D02*
X030583Y016132D01*
X030583Y016531D02*
X030583Y016531D01*
X029899Y016531D02*
X018448Y016531D01*
X018448Y016132D02*
X029783Y016132D01*
X029801Y015734D02*
X018448Y015734D01*
X018448Y016929D02*
X038603Y016929D01*
X038323Y017328D02*
X013739Y017328D01*
X014063Y016929D02*
X013340Y016929D01*
X013096Y016531D02*
X014063Y016531D01*
X011630Y016531D02*
X008128Y016531D01*
X004487Y014140D02*
X015476Y014140D01*
X015368Y013741D02*
X004812Y013741D01*
X004909Y013343D02*
X015368Y013343D01*
X015368Y012944D02*
X004838Y012944D01*
X004550Y012546D02*
X015368Y012546D01*
X016418Y011749D02*
X016418Y011749D01*
X016418Y011350D02*
X016418Y011350D01*
X016418Y010952D02*
X016418Y010952D01*
X016962Y010952D02*
X040103Y010952D01*
X040103Y011350D02*
X016974Y011350D01*
X016949Y011749D02*
X038587Y011749D01*
X039886Y011749D02*
X040103Y011749D01*
X040103Y010553D02*
X005621Y010553D01*
X005415Y010155D02*
X040103Y010155D01*
X040103Y009756D02*
X005594Y009756D01*
X005572Y009358D02*
X040103Y009358D01*
X040103Y008959D02*
X005468Y008959D01*
X005621Y008561D02*
X040103Y008561D01*
X040103Y008162D02*
X036296Y008162D01*
X036296Y008221D02*
X036251Y008332D01*
X036166Y008416D01*
X036056Y008462D01*
X035110Y008462D01*
X035000Y008416D01*
X034915Y008332D01*
X034870Y008221D01*
X034870Y007275D01*
X034915Y007165D01*
X035000Y007081D01*
X035110Y007035D01*
X036056Y007035D01*
X036166Y007081D01*
X036251Y007165D01*
X036296Y007275D01*
X036296Y008221D01*
X036296Y007764D02*
X040103Y007764D01*
X040103Y007365D02*
X036296Y007365D01*
X035583Y006170D02*
X035583Y006170D01*
X035583Y005771D02*
X035583Y005771D01*
X035583Y005373D02*
X035583Y005373D01*
X035583Y004974D02*
X035583Y004974D01*
X034551Y004576D02*
X036615Y004576D01*
X036397Y004177D02*
X034770Y004177D01*
X034791Y003779D02*
X036375Y003779D01*
X036522Y003380D02*
X034644Y003380D01*
X032978Y003380D02*
X031188Y003380D01*
X031335Y003779D02*
X032831Y003779D01*
X032853Y004177D02*
X031313Y004177D01*
X031094Y004576D02*
X033072Y004576D01*
X029397Y004177D02*
X027770Y004177D01*
X027791Y003779D02*
X029375Y003779D01*
X029522Y003380D02*
X027644Y003380D01*
X029296Y007365D02*
X034870Y007365D01*
X034870Y007764D02*
X029296Y007764D01*
X029296Y008162D02*
X034870Y008162D01*
X040103Y006967D02*
X002933Y006967D01*
X002933Y007365D02*
X006870Y007365D01*
X006870Y007764D02*
X002933Y007764D01*
X005083Y008561D02*
X005083Y008561D01*
X005083Y008583D02*
X005083Y008583D01*
X007583Y006296D02*
X008026Y006296D01*
X008084Y006285D01*
X008139Y006262D01*
X008188Y006229D01*
X008229Y006188D01*
X008262Y006139D01*
X008285Y006084D01*
X008296Y006026D01*
X008296Y005583D01*
X007583Y005583D01*
X007583Y005583D01*
X007583Y005583D01*
X007583Y006296D01*
X007583Y006170D02*
X007583Y006170D01*
X007583Y005771D02*
X007583Y005771D01*
X007583Y005373D02*
X007583Y005373D01*
X007583Y004974D02*
X007583Y004974D01*
X008225Y004974D02*
X013941Y004974D01*
X013870Y005373D02*
X008296Y005373D01*
X008296Y005771D02*
X013870Y005771D01*
X013925Y006170D02*
X008242Y006170D01*
X008615Y004576D02*
X006551Y004576D01*
X006770Y004177D02*
X008397Y004177D01*
X008375Y003779D02*
X006791Y003779D01*
X006644Y003380D02*
X008522Y003380D01*
X010188Y003380D02*
X011978Y003380D01*
X011831Y003779D02*
X010335Y003779D01*
X010313Y004177D02*
X011853Y004177D01*
X012072Y004576D02*
X010094Y004576D01*
X013551Y004576D02*
X015615Y004576D01*
X015397Y004177D02*
X013770Y004177D01*
X013791Y003779D02*
X015375Y003779D01*
X015522Y003380D02*
X013644Y003380D01*
X014583Y004974D02*
X014583Y004974D01*
X014583Y005373D02*
X014583Y005373D01*
X014583Y005771D02*
X014583Y005771D01*
X014583Y006170D02*
X014583Y006170D01*
X014781Y010952D02*
X015204Y010952D01*
X020457Y014538D02*
X020457Y014538D01*
X016831Y017726D02*
X038257Y017726D01*
X038359Y018125D02*
X016817Y018125D01*
X015166Y021750D02*
X015056Y021704D01*
X014110Y021704D01*
X014000Y021750D01*
X013915Y021834D01*
X013870Y021945D01*
X013870Y022891D01*
X013915Y023001D01*
X014000Y023085D01*
X014110Y023131D01*
X015056Y023131D01*
X015166Y023085D01*
X015251Y023001D01*
X015296Y022891D01*
X015296Y021945D01*
X015251Y021834D01*
X015166Y021750D01*
X015072Y021711D02*
X021094Y021711D01*
X021110Y021704D02*
X022056Y021704D01*
X022166Y021750D01*
X022251Y021834D01*
X022296Y021945D01*
X022296Y022891D01*
X022251Y023001D01*
X022166Y023085D01*
X022056Y023131D01*
X021110Y023131D01*
X021000Y023085D01*
X020915Y023001D01*
X020870Y022891D01*
X020870Y021945D01*
X020915Y021834D01*
X021000Y021750D01*
X021110Y021704D01*
X020870Y022110D02*
X015296Y022110D01*
X015296Y022508D02*
X020870Y022508D01*
X020876Y022907D02*
X015290Y022907D01*
X013876Y022907D02*
X008290Y022907D01*
X008296Y022891D02*
X008251Y023001D01*
X008166Y023085D01*
X008056Y023131D01*
X007110Y023131D01*
X007000Y023085D01*
X006915Y023001D01*
X006870Y022891D01*
X006870Y021945D01*
X006915Y021834D01*
X007000Y021750D01*
X007110Y021704D01*
X008056Y021704D01*
X008166Y021750D01*
X008251Y021834D01*
X008296Y021945D01*
X008296Y022891D01*
X008296Y022508D02*
X013870Y022508D01*
X013870Y022110D02*
X008296Y022110D01*
X008072Y021711D02*
X014094Y021711D01*
X013877Y024102D02*
X008289Y024102D01*
X007583Y024102D02*
X007583Y024102D01*
X007583Y024501D02*
X007583Y024501D01*
X007583Y024899D02*
X007583Y024899D01*
X006870Y024899D02*
X002933Y024899D01*
X002933Y024501D02*
X006870Y024501D01*
X006877Y024102D02*
X002933Y024102D01*
X002933Y022907D02*
X006876Y022907D01*
X006870Y022508D02*
X002933Y022508D01*
X002933Y022110D02*
X006870Y022110D01*
X007094Y021711D02*
X002933Y021711D01*
X002933Y025298D02*
X005518Y025298D01*
X006105Y025298D02*
X009061Y025298D01*
X009648Y025298D02*
X012518Y025298D01*
X011975Y025696D02*
X010191Y025696D01*
X010335Y026095D02*
X011831Y026095D01*
X011857Y026493D02*
X010309Y026493D01*
X010086Y026892D02*
X012081Y026892D01*
X013542Y026892D02*
X015624Y026892D01*
X015400Y026493D02*
X013766Y026493D01*
X013791Y026095D02*
X015375Y026095D01*
X015518Y025696D02*
X013648Y025696D01*
X014583Y024102D02*
X014583Y024102D01*
X017191Y025696D02*
X018975Y025696D01*
X018831Y026095D02*
X017335Y026095D01*
X017309Y026493D02*
X018857Y026493D01*
X019081Y026892D02*
X017086Y026892D01*
X020542Y026892D02*
X022624Y026892D01*
X022400Y026493D02*
X020766Y026493D01*
X020791Y026095D02*
X022375Y026095D01*
X022518Y025696D02*
X020648Y025696D01*
X021583Y024899D02*
X021583Y024899D01*
X021583Y024501D02*
X021583Y024501D01*
X022290Y022907D02*
X027876Y022907D01*
X027870Y022508D02*
X022296Y022508D01*
X022296Y022110D02*
X027870Y022110D01*
X028094Y021711D02*
X022072Y021711D01*
X024191Y025696D02*
X025975Y025696D01*
X025831Y026095D02*
X024335Y026095D01*
X024309Y026493D02*
X025857Y026493D01*
X026081Y026892D02*
X024086Y026892D01*
X027542Y026892D02*
X029624Y026892D01*
X029400Y026493D02*
X027766Y026493D01*
X027791Y026095D02*
X029375Y026095D01*
X029518Y025696D02*
X027648Y025696D01*
X037648Y025298D02*
X040103Y025298D01*
X040103Y025696D02*
X038191Y025696D01*
X038335Y026095D02*
X040103Y026095D01*
X040103Y026493D02*
X038309Y026493D01*
X038086Y026892D02*
X040103Y026892D01*
X040103Y016929D02*
X039870Y016929D01*
X040103Y016531D02*
X038213Y016531D01*
X038296Y016132D02*
X040103Y016132D01*
X040103Y015734D02*
X038296Y015734D01*
X038296Y015910D02*
X037583Y015910D01*
X037583Y015910D01*
X037583Y015196D01*
X038026Y015196D01*
X038084Y015208D01*
X038139Y015231D01*
X038188Y015263D01*
X038229Y015305D01*
X038262Y015354D01*
X038285Y015409D01*
X038296Y015467D01*
X038296Y015910D01*
X037583Y015734D02*
X037583Y015734D01*
X037583Y016132D02*
X037583Y016132D01*
X037583Y016531D02*
X037583Y016531D01*
X037583Y015335D02*
X037583Y015335D01*
X037583Y014970D02*
X037583Y014256D01*
X037583Y014256D01*
X037583Y014970D01*
X037583Y014937D02*
X037583Y014937D01*
X037583Y014538D02*
X037583Y014538D01*
X038136Y014937D02*
X040103Y014937D01*
X040103Y015335D02*
X038249Y015335D01*
X038296Y014538D02*
X040103Y014538D01*
X040103Y014140D02*
X038296Y014140D01*
X038279Y013741D02*
X040103Y013741D01*
X040103Y013343D02*
X039726Y013343D01*
X037583Y013741D02*
X037583Y013741D01*
X037583Y014140D02*
X037583Y014140D01*
X008518Y025696D02*
X006648Y025696D01*
X006791Y026095D02*
X008375Y026095D01*
X008400Y026493D02*
X006766Y026493D01*
X006542Y026892D02*
X008624Y026892D01*
X005081Y026892D02*
X002933Y026892D01*
X002933Y026493D02*
X004857Y026493D01*
X004831Y026095D02*
X002933Y026095D01*
X002933Y025696D02*
X004975Y025696D01*
D21*
X007833Y018708D02*
X013833Y018708D01*
X013833Y018707D01*
X013833Y017959D02*
X012363Y016489D01*
X012363Y015833D01*
X014803Y015833D01*
X014839Y016707D02*
X014803Y016743D01*
X014839Y016707D02*
X016333Y016707D01*
X017833Y016707D01*
X017833Y015959D02*
X015748Y013874D01*
X015748Y011333D01*
X014458Y011333D01*
X019708Y012958D02*
X019708Y013958D01*
X019709Y013958D01*
X007833Y017708D02*
X007748Y017708D01*
X007748Y015083D01*
D22*
X016333Y017833D03*
X019708Y012958D03*
D23*
X016333Y017833D02*
X013959Y017833D01*
X013833Y017959D01*
D24*
X014458Y011333D03*
M02*
