%
M48
M72
T01C0.0236
T02C0.0276
T03C0.0320
T04C0.0400
T05C0.0551
T06C0.1260
%
T01
X14458Y11333
X19708Y12958
X16333Y17833
T02
X5083Y10583
X5083Y9583
X5083Y8583
T03
X7833Y17708
X7833Y18708
T04
X30583Y16083
X30583Y14083
T05
X35418Y14256
X35418Y15910
X37583Y15910
X37583Y14256
X35583Y7748
X35583Y5583
X28583Y5583
X28583Y7748
X21583Y7748
X21583Y5583
X14583Y5583
X14583Y7748
X7583Y7748
X7583Y5583
X7748Y15083
X5583Y15083
X7583Y22418
X7583Y24583
X14583Y24583
X14583Y22418
X21583Y22418
X21583Y24583
X28583Y24583
X28583Y22418
X35583Y22418
X35583Y24583
T06
X5811Y3930
X9355Y3930
X12811Y3930
X16355Y3930
X19811Y3930
X23355Y3930
X26811Y3930
X30355Y3930
X33811Y3930
X37355Y3930
X39237Y12485
X39237Y17681
X37355Y26237
X33811Y26237
X30355Y26237
X26811Y26237
X23355Y26237
X19811Y26237
X16355Y26237
X12811Y26237
X9355Y26237
X5811Y26237
X3930Y16855
X3930Y13311
M30
