G75*
%MOIN*%
%OFA0B0*%
%FSLAX24Y24*%
%IPPOS*%
%LPD*%
%AMOC8*
5,1,8,0,0,1.08239X$1,22.5*
%
%ADD10C,0.0000*%
%ADD11C,0.1000*%
%ADD12OC8,0.1000*%
%ADD13R,0.0827X0.0827*%
%ADD14R,0.0630X0.0512*%
%ADD15C,0.0520*%
%ADD16C,0.0900*%
%ADD17C,0.0476*%
%ADD18OC8,0.0660*%
%ADD19C,0.0600*%
%ADD20R,0.0591X0.0512*%
%ADD21C,0.2300*%
%ADD22C,0.0160*%
%ADD23C,0.0200*%
%ADD24R,0.0396X0.0396*%
%ADD25C,0.2000*%
%ADD26C,0.0400*%
%ADD27C,0.1000*%
D10*
X001708Y002271D02*
X001771Y029579D01*
X040391Y029517D01*
X040328Y002208D01*
X001708Y002271D01*
X005681Y003930D02*
X005683Y003980D01*
X005689Y004030D01*
X005699Y004079D01*
X005713Y004127D01*
X005730Y004174D01*
X005751Y004219D01*
X005776Y004263D01*
X005804Y004304D01*
X005836Y004343D01*
X005870Y004380D01*
X005907Y004414D01*
X005947Y004444D01*
X005989Y004471D01*
X006033Y004495D01*
X006079Y004516D01*
X006126Y004532D01*
X006174Y004545D01*
X006224Y004554D01*
X006273Y004559D01*
X006324Y004560D01*
X006374Y004557D01*
X006423Y004550D01*
X006472Y004539D01*
X006520Y004524D01*
X006566Y004506D01*
X006611Y004484D01*
X006654Y004458D01*
X006695Y004429D01*
X006734Y004397D01*
X006770Y004362D01*
X006802Y004324D01*
X006832Y004284D01*
X006859Y004241D01*
X006882Y004197D01*
X006901Y004151D01*
X006917Y004103D01*
X006929Y004054D01*
X006937Y004005D01*
X006941Y003955D01*
X006941Y003905D01*
X006937Y003855D01*
X006929Y003806D01*
X006917Y003757D01*
X006901Y003709D01*
X006882Y003663D01*
X006859Y003619D01*
X006832Y003576D01*
X006802Y003536D01*
X006770Y003498D01*
X006734Y003463D01*
X006695Y003431D01*
X006654Y003402D01*
X006611Y003376D01*
X006566Y003354D01*
X006520Y003336D01*
X006472Y003321D01*
X006423Y003310D01*
X006374Y003303D01*
X006324Y003300D01*
X006273Y003301D01*
X006224Y003306D01*
X006174Y003315D01*
X006126Y003328D01*
X006079Y003344D01*
X006033Y003365D01*
X005989Y003389D01*
X005947Y003416D01*
X005907Y003446D01*
X005870Y003480D01*
X005836Y003517D01*
X005804Y003556D01*
X005776Y003597D01*
X005751Y003641D01*
X005730Y003686D01*
X005713Y003733D01*
X005699Y003781D01*
X005689Y003830D01*
X005683Y003880D01*
X005681Y003930D01*
X009225Y003930D02*
X009227Y003980D01*
X009233Y004030D01*
X009243Y004079D01*
X009257Y004127D01*
X009274Y004174D01*
X009295Y004219D01*
X009320Y004263D01*
X009348Y004304D01*
X009380Y004343D01*
X009414Y004380D01*
X009451Y004414D01*
X009491Y004444D01*
X009533Y004471D01*
X009577Y004495D01*
X009623Y004516D01*
X009670Y004532D01*
X009718Y004545D01*
X009768Y004554D01*
X009817Y004559D01*
X009868Y004560D01*
X009918Y004557D01*
X009967Y004550D01*
X010016Y004539D01*
X010064Y004524D01*
X010110Y004506D01*
X010155Y004484D01*
X010198Y004458D01*
X010239Y004429D01*
X010278Y004397D01*
X010314Y004362D01*
X010346Y004324D01*
X010376Y004284D01*
X010403Y004241D01*
X010426Y004197D01*
X010445Y004151D01*
X010461Y004103D01*
X010473Y004054D01*
X010481Y004005D01*
X010485Y003955D01*
X010485Y003905D01*
X010481Y003855D01*
X010473Y003806D01*
X010461Y003757D01*
X010445Y003709D01*
X010426Y003663D01*
X010403Y003619D01*
X010376Y003576D01*
X010346Y003536D01*
X010314Y003498D01*
X010278Y003463D01*
X010239Y003431D01*
X010198Y003402D01*
X010155Y003376D01*
X010110Y003354D01*
X010064Y003336D01*
X010016Y003321D01*
X009967Y003310D01*
X009918Y003303D01*
X009868Y003300D01*
X009817Y003301D01*
X009768Y003306D01*
X009718Y003315D01*
X009670Y003328D01*
X009623Y003344D01*
X009577Y003365D01*
X009533Y003389D01*
X009491Y003416D01*
X009451Y003446D01*
X009414Y003480D01*
X009380Y003517D01*
X009348Y003556D01*
X009320Y003597D01*
X009295Y003641D01*
X009274Y003686D01*
X009257Y003733D01*
X009243Y003781D01*
X009233Y003830D01*
X009227Y003880D01*
X009225Y003930D01*
X012681Y003930D02*
X012683Y003980D01*
X012689Y004030D01*
X012699Y004079D01*
X012713Y004127D01*
X012730Y004174D01*
X012751Y004219D01*
X012776Y004263D01*
X012804Y004304D01*
X012836Y004343D01*
X012870Y004380D01*
X012907Y004414D01*
X012947Y004444D01*
X012989Y004471D01*
X013033Y004495D01*
X013079Y004516D01*
X013126Y004532D01*
X013174Y004545D01*
X013224Y004554D01*
X013273Y004559D01*
X013324Y004560D01*
X013374Y004557D01*
X013423Y004550D01*
X013472Y004539D01*
X013520Y004524D01*
X013566Y004506D01*
X013611Y004484D01*
X013654Y004458D01*
X013695Y004429D01*
X013734Y004397D01*
X013770Y004362D01*
X013802Y004324D01*
X013832Y004284D01*
X013859Y004241D01*
X013882Y004197D01*
X013901Y004151D01*
X013917Y004103D01*
X013929Y004054D01*
X013937Y004005D01*
X013941Y003955D01*
X013941Y003905D01*
X013937Y003855D01*
X013929Y003806D01*
X013917Y003757D01*
X013901Y003709D01*
X013882Y003663D01*
X013859Y003619D01*
X013832Y003576D01*
X013802Y003536D01*
X013770Y003498D01*
X013734Y003463D01*
X013695Y003431D01*
X013654Y003402D01*
X013611Y003376D01*
X013566Y003354D01*
X013520Y003336D01*
X013472Y003321D01*
X013423Y003310D01*
X013374Y003303D01*
X013324Y003300D01*
X013273Y003301D01*
X013224Y003306D01*
X013174Y003315D01*
X013126Y003328D01*
X013079Y003344D01*
X013033Y003365D01*
X012989Y003389D01*
X012947Y003416D01*
X012907Y003446D01*
X012870Y003480D01*
X012836Y003517D01*
X012804Y003556D01*
X012776Y003597D01*
X012751Y003641D01*
X012730Y003686D01*
X012713Y003733D01*
X012699Y003781D01*
X012689Y003830D01*
X012683Y003880D01*
X012681Y003930D01*
X016225Y003930D02*
X016227Y003980D01*
X016233Y004030D01*
X016243Y004079D01*
X016257Y004127D01*
X016274Y004174D01*
X016295Y004219D01*
X016320Y004263D01*
X016348Y004304D01*
X016380Y004343D01*
X016414Y004380D01*
X016451Y004414D01*
X016491Y004444D01*
X016533Y004471D01*
X016577Y004495D01*
X016623Y004516D01*
X016670Y004532D01*
X016718Y004545D01*
X016768Y004554D01*
X016817Y004559D01*
X016868Y004560D01*
X016918Y004557D01*
X016967Y004550D01*
X017016Y004539D01*
X017064Y004524D01*
X017110Y004506D01*
X017155Y004484D01*
X017198Y004458D01*
X017239Y004429D01*
X017278Y004397D01*
X017314Y004362D01*
X017346Y004324D01*
X017376Y004284D01*
X017403Y004241D01*
X017426Y004197D01*
X017445Y004151D01*
X017461Y004103D01*
X017473Y004054D01*
X017481Y004005D01*
X017485Y003955D01*
X017485Y003905D01*
X017481Y003855D01*
X017473Y003806D01*
X017461Y003757D01*
X017445Y003709D01*
X017426Y003663D01*
X017403Y003619D01*
X017376Y003576D01*
X017346Y003536D01*
X017314Y003498D01*
X017278Y003463D01*
X017239Y003431D01*
X017198Y003402D01*
X017155Y003376D01*
X017110Y003354D01*
X017064Y003336D01*
X017016Y003321D01*
X016967Y003310D01*
X016918Y003303D01*
X016868Y003300D01*
X016817Y003301D01*
X016768Y003306D01*
X016718Y003315D01*
X016670Y003328D01*
X016623Y003344D01*
X016577Y003365D01*
X016533Y003389D01*
X016491Y003416D01*
X016451Y003446D01*
X016414Y003480D01*
X016380Y003517D01*
X016348Y003556D01*
X016320Y003597D01*
X016295Y003641D01*
X016274Y003686D01*
X016257Y003733D01*
X016243Y003781D01*
X016233Y003830D01*
X016227Y003880D01*
X016225Y003930D01*
X019681Y003930D02*
X019683Y003980D01*
X019689Y004030D01*
X019699Y004079D01*
X019713Y004127D01*
X019730Y004174D01*
X019751Y004219D01*
X019776Y004263D01*
X019804Y004304D01*
X019836Y004343D01*
X019870Y004380D01*
X019907Y004414D01*
X019947Y004444D01*
X019989Y004471D01*
X020033Y004495D01*
X020079Y004516D01*
X020126Y004532D01*
X020174Y004545D01*
X020224Y004554D01*
X020273Y004559D01*
X020324Y004560D01*
X020374Y004557D01*
X020423Y004550D01*
X020472Y004539D01*
X020520Y004524D01*
X020566Y004506D01*
X020611Y004484D01*
X020654Y004458D01*
X020695Y004429D01*
X020734Y004397D01*
X020770Y004362D01*
X020802Y004324D01*
X020832Y004284D01*
X020859Y004241D01*
X020882Y004197D01*
X020901Y004151D01*
X020917Y004103D01*
X020929Y004054D01*
X020937Y004005D01*
X020941Y003955D01*
X020941Y003905D01*
X020937Y003855D01*
X020929Y003806D01*
X020917Y003757D01*
X020901Y003709D01*
X020882Y003663D01*
X020859Y003619D01*
X020832Y003576D01*
X020802Y003536D01*
X020770Y003498D01*
X020734Y003463D01*
X020695Y003431D01*
X020654Y003402D01*
X020611Y003376D01*
X020566Y003354D01*
X020520Y003336D01*
X020472Y003321D01*
X020423Y003310D01*
X020374Y003303D01*
X020324Y003300D01*
X020273Y003301D01*
X020224Y003306D01*
X020174Y003315D01*
X020126Y003328D01*
X020079Y003344D01*
X020033Y003365D01*
X019989Y003389D01*
X019947Y003416D01*
X019907Y003446D01*
X019870Y003480D01*
X019836Y003517D01*
X019804Y003556D01*
X019776Y003597D01*
X019751Y003641D01*
X019730Y003686D01*
X019713Y003733D01*
X019699Y003781D01*
X019689Y003830D01*
X019683Y003880D01*
X019681Y003930D01*
X023225Y003930D02*
X023227Y003980D01*
X023233Y004030D01*
X023243Y004079D01*
X023257Y004127D01*
X023274Y004174D01*
X023295Y004219D01*
X023320Y004263D01*
X023348Y004304D01*
X023380Y004343D01*
X023414Y004380D01*
X023451Y004414D01*
X023491Y004444D01*
X023533Y004471D01*
X023577Y004495D01*
X023623Y004516D01*
X023670Y004532D01*
X023718Y004545D01*
X023768Y004554D01*
X023817Y004559D01*
X023868Y004560D01*
X023918Y004557D01*
X023967Y004550D01*
X024016Y004539D01*
X024064Y004524D01*
X024110Y004506D01*
X024155Y004484D01*
X024198Y004458D01*
X024239Y004429D01*
X024278Y004397D01*
X024314Y004362D01*
X024346Y004324D01*
X024376Y004284D01*
X024403Y004241D01*
X024426Y004197D01*
X024445Y004151D01*
X024461Y004103D01*
X024473Y004054D01*
X024481Y004005D01*
X024485Y003955D01*
X024485Y003905D01*
X024481Y003855D01*
X024473Y003806D01*
X024461Y003757D01*
X024445Y003709D01*
X024426Y003663D01*
X024403Y003619D01*
X024376Y003576D01*
X024346Y003536D01*
X024314Y003498D01*
X024278Y003463D01*
X024239Y003431D01*
X024198Y003402D01*
X024155Y003376D01*
X024110Y003354D01*
X024064Y003336D01*
X024016Y003321D01*
X023967Y003310D01*
X023918Y003303D01*
X023868Y003300D01*
X023817Y003301D01*
X023768Y003306D01*
X023718Y003315D01*
X023670Y003328D01*
X023623Y003344D01*
X023577Y003365D01*
X023533Y003389D01*
X023491Y003416D01*
X023451Y003446D01*
X023414Y003480D01*
X023380Y003517D01*
X023348Y003556D01*
X023320Y003597D01*
X023295Y003641D01*
X023274Y003686D01*
X023257Y003733D01*
X023243Y003781D01*
X023233Y003830D01*
X023227Y003880D01*
X023225Y003930D01*
X026681Y003930D02*
X026683Y003980D01*
X026689Y004030D01*
X026699Y004079D01*
X026713Y004127D01*
X026730Y004174D01*
X026751Y004219D01*
X026776Y004263D01*
X026804Y004304D01*
X026836Y004343D01*
X026870Y004380D01*
X026907Y004414D01*
X026947Y004444D01*
X026989Y004471D01*
X027033Y004495D01*
X027079Y004516D01*
X027126Y004532D01*
X027174Y004545D01*
X027224Y004554D01*
X027273Y004559D01*
X027324Y004560D01*
X027374Y004557D01*
X027423Y004550D01*
X027472Y004539D01*
X027520Y004524D01*
X027566Y004506D01*
X027611Y004484D01*
X027654Y004458D01*
X027695Y004429D01*
X027734Y004397D01*
X027770Y004362D01*
X027802Y004324D01*
X027832Y004284D01*
X027859Y004241D01*
X027882Y004197D01*
X027901Y004151D01*
X027917Y004103D01*
X027929Y004054D01*
X027937Y004005D01*
X027941Y003955D01*
X027941Y003905D01*
X027937Y003855D01*
X027929Y003806D01*
X027917Y003757D01*
X027901Y003709D01*
X027882Y003663D01*
X027859Y003619D01*
X027832Y003576D01*
X027802Y003536D01*
X027770Y003498D01*
X027734Y003463D01*
X027695Y003431D01*
X027654Y003402D01*
X027611Y003376D01*
X027566Y003354D01*
X027520Y003336D01*
X027472Y003321D01*
X027423Y003310D01*
X027374Y003303D01*
X027324Y003300D01*
X027273Y003301D01*
X027224Y003306D01*
X027174Y003315D01*
X027126Y003328D01*
X027079Y003344D01*
X027033Y003365D01*
X026989Y003389D01*
X026947Y003416D01*
X026907Y003446D01*
X026870Y003480D01*
X026836Y003517D01*
X026804Y003556D01*
X026776Y003597D01*
X026751Y003641D01*
X026730Y003686D01*
X026713Y003733D01*
X026699Y003781D01*
X026689Y003830D01*
X026683Y003880D01*
X026681Y003930D01*
X030225Y003930D02*
X030227Y003980D01*
X030233Y004030D01*
X030243Y004079D01*
X030257Y004127D01*
X030274Y004174D01*
X030295Y004219D01*
X030320Y004263D01*
X030348Y004304D01*
X030380Y004343D01*
X030414Y004380D01*
X030451Y004414D01*
X030491Y004444D01*
X030533Y004471D01*
X030577Y004495D01*
X030623Y004516D01*
X030670Y004532D01*
X030718Y004545D01*
X030768Y004554D01*
X030817Y004559D01*
X030868Y004560D01*
X030918Y004557D01*
X030967Y004550D01*
X031016Y004539D01*
X031064Y004524D01*
X031110Y004506D01*
X031155Y004484D01*
X031198Y004458D01*
X031239Y004429D01*
X031278Y004397D01*
X031314Y004362D01*
X031346Y004324D01*
X031376Y004284D01*
X031403Y004241D01*
X031426Y004197D01*
X031445Y004151D01*
X031461Y004103D01*
X031473Y004054D01*
X031481Y004005D01*
X031485Y003955D01*
X031485Y003905D01*
X031481Y003855D01*
X031473Y003806D01*
X031461Y003757D01*
X031445Y003709D01*
X031426Y003663D01*
X031403Y003619D01*
X031376Y003576D01*
X031346Y003536D01*
X031314Y003498D01*
X031278Y003463D01*
X031239Y003431D01*
X031198Y003402D01*
X031155Y003376D01*
X031110Y003354D01*
X031064Y003336D01*
X031016Y003321D01*
X030967Y003310D01*
X030918Y003303D01*
X030868Y003300D01*
X030817Y003301D01*
X030768Y003306D01*
X030718Y003315D01*
X030670Y003328D01*
X030623Y003344D01*
X030577Y003365D01*
X030533Y003389D01*
X030491Y003416D01*
X030451Y003446D01*
X030414Y003480D01*
X030380Y003517D01*
X030348Y003556D01*
X030320Y003597D01*
X030295Y003641D01*
X030274Y003686D01*
X030257Y003733D01*
X030243Y003781D01*
X030233Y003830D01*
X030227Y003880D01*
X030225Y003930D01*
X033681Y003930D02*
X033683Y003980D01*
X033689Y004030D01*
X033699Y004079D01*
X033713Y004127D01*
X033730Y004174D01*
X033751Y004219D01*
X033776Y004263D01*
X033804Y004304D01*
X033836Y004343D01*
X033870Y004380D01*
X033907Y004414D01*
X033947Y004444D01*
X033989Y004471D01*
X034033Y004495D01*
X034079Y004516D01*
X034126Y004532D01*
X034174Y004545D01*
X034224Y004554D01*
X034273Y004559D01*
X034324Y004560D01*
X034374Y004557D01*
X034423Y004550D01*
X034472Y004539D01*
X034520Y004524D01*
X034566Y004506D01*
X034611Y004484D01*
X034654Y004458D01*
X034695Y004429D01*
X034734Y004397D01*
X034770Y004362D01*
X034802Y004324D01*
X034832Y004284D01*
X034859Y004241D01*
X034882Y004197D01*
X034901Y004151D01*
X034917Y004103D01*
X034929Y004054D01*
X034937Y004005D01*
X034941Y003955D01*
X034941Y003905D01*
X034937Y003855D01*
X034929Y003806D01*
X034917Y003757D01*
X034901Y003709D01*
X034882Y003663D01*
X034859Y003619D01*
X034832Y003576D01*
X034802Y003536D01*
X034770Y003498D01*
X034734Y003463D01*
X034695Y003431D01*
X034654Y003402D01*
X034611Y003376D01*
X034566Y003354D01*
X034520Y003336D01*
X034472Y003321D01*
X034423Y003310D01*
X034374Y003303D01*
X034324Y003300D01*
X034273Y003301D01*
X034224Y003306D01*
X034174Y003315D01*
X034126Y003328D01*
X034079Y003344D01*
X034033Y003365D01*
X033989Y003389D01*
X033947Y003416D01*
X033907Y003446D01*
X033870Y003480D01*
X033836Y003517D01*
X033804Y003556D01*
X033776Y003597D01*
X033751Y003641D01*
X033730Y003686D01*
X033713Y003733D01*
X033699Y003781D01*
X033689Y003830D01*
X033683Y003880D01*
X033681Y003930D01*
X037225Y003930D02*
X037227Y003980D01*
X037233Y004030D01*
X037243Y004079D01*
X037257Y004127D01*
X037274Y004174D01*
X037295Y004219D01*
X037320Y004263D01*
X037348Y004304D01*
X037380Y004343D01*
X037414Y004380D01*
X037451Y004414D01*
X037491Y004444D01*
X037533Y004471D01*
X037577Y004495D01*
X037623Y004516D01*
X037670Y004532D01*
X037718Y004545D01*
X037768Y004554D01*
X037817Y004559D01*
X037868Y004560D01*
X037918Y004557D01*
X037967Y004550D01*
X038016Y004539D01*
X038064Y004524D01*
X038110Y004506D01*
X038155Y004484D01*
X038198Y004458D01*
X038239Y004429D01*
X038278Y004397D01*
X038314Y004362D01*
X038346Y004324D01*
X038376Y004284D01*
X038403Y004241D01*
X038426Y004197D01*
X038445Y004151D01*
X038461Y004103D01*
X038473Y004054D01*
X038481Y004005D01*
X038485Y003955D01*
X038485Y003905D01*
X038481Y003855D01*
X038473Y003806D01*
X038461Y003757D01*
X038445Y003709D01*
X038426Y003663D01*
X038403Y003619D01*
X038376Y003576D01*
X038346Y003536D01*
X038314Y003498D01*
X038278Y003463D01*
X038239Y003431D01*
X038198Y003402D01*
X038155Y003376D01*
X038110Y003354D01*
X038064Y003336D01*
X038016Y003321D01*
X037967Y003310D01*
X037918Y003303D01*
X037868Y003300D01*
X037817Y003301D01*
X037768Y003306D01*
X037718Y003315D01*
X037670Y003328D01*
X037623Y003344D01*
X037577Y003365D01*
X037533Y003389D01*
X037491Y003416D01*
X037451Y003446D01*
X037414Y003480D01*
X037380Y003517D01*
X037348Y003556D01*
X037320Y003597D01*
X037295Y003641D01*
X037274Y003686D01*
X037257Y003733D01*
X037243Y003781D01*
X037233Y003830D01*
X037227Y003880D01*
X037225Y003930D01*
X038107Y008985D02*
X038109Y009035D01*
X038115Y009085D01*
X038125Y009134D01*
X038139Y009182D01*
X038156Y009229D01*
X038177Y009274D01*
X038202Y009318D01*
X038230Y009359D01*
X038262Y009398D01*
X038296Y009435D01*
X038333Y009469D01*
X038373Y009499D01*
X038415Y009526D01*
X038459Y009550D01*
X038505Y009571D01*
X038552Y009587D01*
X038600Y009600D01*
X038650Y009609D01*
X038699Y009614D01*
X038750Y009615D01*
X038800Y009612D01*
X038849Y009605D01*
X038898Y009594D01*
X038946Y009579D01*
X038992Y009561D01*
X039037Y009539D01*
X039080Y009513D01*
X039121Y009484D01*
X039160Y009452D01*
X039196Y009417D01*
X039228Y009379D01*
X039258Y009339D01*
X039285Y009296D01*
X039308Y009252D01*
X039327Y009206D01*
X039343Y009158D01*
X039355Y009109D01*
X039363Y009060D01*
X039367Y009010D01*
X039367Y008960D01*
X039363Y008910D01*
X039355Y008861D01*
X039343Y008812D01*
X039327Y008764D01*
X039308Y008718D01*
X039285Y008674D01*
X039258Y008631D01*
X039228Y008591D01*
X039196Y008553D01*
X039160Y008518D01*
X039121Y008486D01*
X039080Y008457D01*
X039037Y008431D01*
X038992Y008409D01*
X038946Y008391D01*
X038898Y008376D01*
X038849Y008365D01*
X038800Y008358D01*
X038750Y008355D01*
X038699Y008356D01*
X038650Y008361D01*
X038600Y008370D01*
X038552Y008383D01*
X038505Y008399D01*
X038459Y008420D01*
X038415Y008444D01*
X038373Y008471D01*
X038333Y008501D01*
X038296Y008535D01*
X038262Y008572D01*
X038230Y008611D01*
X038202Y008652D01*
X038177Y008696D01*
X038156Y008741D01*
X038139Y008788D01*
X038125Y008836D01*
X038115Y008885D01*
X038109Y008935D01*
X038107Y008985D01*
X038107Y014181D02*
X038109Y014231D01*
X038115Y014281D01*
X038125Y014330D01*
X038139Y014378D01*
X038156Y014425D01*
X038177Y014470D01*
X038202Y014514D01*
X038230Y014555D01*
X038262Y014594D01*
X038296Y014631D01*
X038333Y014665D01*
X038373Y014695D01*
X038415Y014722D01*
X038459Y014746D01*
X038505Y014767D01*
X038552Y014783D01*
X038600Y014796D01*
X038650Y014805D01*
X038699Y014810D01*
X038750Y014811D01*
X038800Y014808D01*
X038849Y014801D01*
X038898Y014790D01*
X038946Y014775D01*
X038992Y014757D01*
X039037Y014735D01*
X039080Y014709D01*
X039121Y014680D01*
X039160Y014648D01*
X039196Y014613D01*
X039228Y014575D01*
X039258Y014535D01*
X039285Y014492D01*
X039308Y014448D01*
X039327Y014402D01*
X039343Y014354D01*
X039355Y014305D01*
X039363Y014256D01*
X039367Y014206D01*
X039367Y014156D01*
X039363Y014106D01*
X039355Y014057D01*
X039343Y014008D01*
X039327Y013960D01*
X039308Y013914D01*
X039285Y013870D01*
X039258Y013827D01*
X039228Y013787D01*
X039196Y013749D01*
X039160Y013714D01*
X039121Y013682D01*
X039080Y013653D01*
X039037Y013627D01*
X038992Y013605D01*
X038946Y013587D01*
X038898Y013572D01*
X038849Y013561D01*
X038800Y013554D01*
X038750Y013551D01*
X038699Y013552D01*
X038650Y013557D01*
X038600Y013566D01*
X038552Y013579D01*
X038505Y013595D01*
X038459Y013616D01*
X038415Y013640D01*
X038373Y013667D01*
X038333Y013697D01*
X038296Y013731D01*
X038262Y013768D01*
X038230Y013807D01*
X038202Y013848D01*
X038177Y013892D01*
X038156Y013937D01*
X038139Y013984D01*
X038125Y014032D01*
X038115Y014081D01*
X038109Y014131D01*
X038107Y014181D01*
X038107Y017985D02*
X038109Y018035D01*
X038115Y018085D01*
X038125Y018134D01*
X038139Y018182D01*
X038156Y018229D01*
X038177Y018274D01*
X038202Y018318D01*
X038230Y018359D01*
X038262Y018398D01*
X038296Y018435D01*
X038333Y018469D01*
X038373Y018499D01*
X038415Y018526D01*
X038459Y018550D01*
X038505Y018571D01*
X038552Y018587D01*
X038600Y018600D01*
X038650Y018609D01*
X038699Y018614D01*
X038750Y018615D01*
X038800Y018612D01*
X038849Y018605D01*
X038898Y018594D01*
X038946Y018579D01*
X038992Y018561D01*
X039037Y018539D01*
X039080Y018513D01*
X039121Y018484D01*
X039160Y018452D01*
X039196Y018417D01*
X039228Y018379D01*
X039258Y018339D01*
X039285Y018296D01*
X039308Y018252D01*
X039327Y018206D01*
X039343Y018158D01*
X039355Y018109D01*
X039363Y018060D01*
X039367Y018010D01*
X039367Y017960D01*
X039363Y017910D01*
X039355Y017861D01*
X039343Y017812D01*
X039327Y017764D01*
X039308Y017718D01*
X039285Y017674D01*
X039258Y017631D01*
X039228Y017591D01*
X039196Y017553D01*
X039160Y017518D01*
X039121Y017486D01*
X039080Y017457D01*
X039037Y017431D01*
X038992Y017409D01*
X038946Y017391D01*
X038898Y017376D01*
X038849Y017365D01*
X038800Y017358D01*
X038750Y017355D01*
X038699Y017356D01*
X038650Y017361D01*
X038600Y017370D01*
X038552Y017383D01*
X038505Y017399D01*
X038459Y017420D01*
X038415Y017444D01*
X038373Y017471D01*
X038333Y017501D01*
X038296Y017535D01*
X038262Y017572D01*
X038230Y017611D01*
X038202Y017652D01*
X038177Y017696D01*
X038156Y017741D01*
X038139Y017788D01*
X038125Y017836D01*
X038115Y017885D01*
X038109Y017935D01*
X038107Y017985D01*
X038107Y023181D02*
X038109Y023231D01*
X038115Y023281D01*
X038125Y023330D01*
X038139Y023378D01*
X038156Y023425D01*
X038177Y023470D01*
X038202Y023514D01*
X038230Y023555D01*
X038262Y023594D01*
X038296Y023631D01*
X038333Y023665D01*
X038373Y023695D01*
X038415Y023722D01*
X038459Y023746D01*
X038505Y023767D01*
X038552Y023783D01*
X038600Y023796D01*
X038650Y023805D01*
X038699Y023810D01*
X038750Y023811D01*
X038800Y023808D01*
X038849Y023801D01*
X038898Y023790D01*
X038946Y023775D01*
X038992Y023757D01*
X039037Y023735D01*
X039080Y023709D01*
X039121Y023680D01*
X039160Y023648D01*
X039196Y023613D01*
X039228Y023575D01*
X039258Y023535D01*
X039285Y023492D01*
X039308Y023448D01*
X039327Y023402D01*
X039343Y023354D01*
X039355Y023305D01*
X039363Y023256D01*
X039367Y023206D01*
X039367Y023156D01*
X039363Y023106D01*
X039355Y023057D01*
X039343Y023008D01*
X039327Y022960D01*
X039308Y022914D01*
X039285Y022870D01*
X039258Y022827D01*
X039228Y022787D01*
X039196Y022749D01*
X039160Y022714D01*
X039121Y022682D01*
X039080Y022653D01*
X039037Y022627D01*
X038992Y022605D01*
X038946Y022587D01*
X038898Y022572D01*
X038849Y022561D01*
X038800Y022554D01*
X038750Y022551D01*
X038699Y022552D01*
X038650Y022557D01*
X038600Y022566D01*
X038552Y022579D01*
X038505Y022595D01*
X038459Y022616D01*
X038415Y022640D01*
X038373Y022667D01*
X038333Y022697D01*
X038296Y022731D01*
X038262Y022768D01*
X038230Y022807D01*
X038202Y022848D01*
X038177Y022892D01*
X038156Y022937D01*
X038139Y022984D01*
X038125Y023032D01*
X038115Y023081D01*
X038109Y023131D01*
X038107Y023181D01*
X037225Y027737D02*
X037227Y027787D01*
X037233Y027837D01*
X037243Y027886D01*
X037257Y027934D01*
X037274Y027981D01*
X037295Y028026D01*
X037320Y028070D01*
X037348Y028111D01*
X037380Y028150D01*
X037414Y028187D01*
X037451Y028221D01*
X037491Y028251D01*
X037533Y028278D01*
X037577Y028302D01*
X037623Y028323D01*
X037670Y028339D01*
X037718Y028352D01*
X037768Y028361D01*
X037817Y028366D01*
X037868Y028367D01*
X037918Y028364D01*
X037967Y028357D01*
X038016Y028346D01*
X038064Y028331D01*
X038110Y028313D01*
X038155Y028291D01*
X038198Y028265D01*
X038239Y028236D01*
X038278Y028204D01*
X038314Y028169D01*
X038346Y028131D01*
X038376Y028091D01*
X038403Y028048D01*
X038426Y028004D01*
X038445Y027958D01*
X038461Y027910D01*
X038473Y027861D01*
X038481Y027812D01*
X038485Y027762D01*
X038485Y027712D01*
X038481Y027662D01*
X038473Y027613D01*
X038461Y027564D01*
X038445Y027516D01*
X038426Y027470D01*
X038403Y027426D01*
X038376Y027383D01*
X038346Y027343D01*
X038314Y027305D01*
X038278Y027270D01*
X038239Y027238D01*
X038198Y027209D01*
X038155Y027183D01*
X038110Y027161D01*
X038064Y027143D01*
X038016Y027128D01*
X037967Y027117D01*
X037918Y027110D01*
X037868Y027107D01*
X037817Y027108D01*
X037768Y027113D01*
X037718Y027122D01*
X037670Y027135D01*
X037623Y027151D01*
X037577Y027172D01*
X037533Y027196D01*
X037491Y027223D01*
X037451Y027253D01*
X037414Y027287D01*
X037380Y027324D01*
X037348Y027363D01*
X037320Y027404D01*
X037295Y027448D01*
X037274Y027493D01*
X037257Y027540D01*
X037243Y027588D01*
X037233Y027637D01*
X037227Y027687D01*
X037225Y027737D01*
X033681Y027737D02*
X033683Y027787D01*
X033689Y027837D01*
X033699Y027886D01*
X033713Y027934D01*
X033730Y027981D01*
X033751Y028026D01*
X033776Y028070D01*
X033804Y028111D01*
X033836Y028150D01*
X033870Y028187D01*
X033907Y028221D01*
X033947Y028251D01*
X033989Y028278D01*
X034033Y028302D01*
X034079Y028323D01*
X034126Y028339D01*
X034174Y028352D01*
X034224Y028361D01*
X034273Y028366D01*
X034324Y028367D01*
X034374Y028364D01*
X034423Y028357D01*
X034472Y028346D01*
X034520Y028331D01*
X034566Y028313D01*
X034611Y028291D01*
X034654Y028265D01*
X034695Y028236D01*
X034734Y028204D01*
X034770Y028169D01*
X034802Y028131D01*
X034832Y028091D01*
X034859Y028048D01*
X034882Y028004D01*
X034901Y027958D01*
X034917Y027910D01*
X034929Y027861D01*
X034937Y027812D01*
X034941Y027762D01*
X034941Y027712D01*
X034937Y027662D01*
X034929Y027613D01*
X034917Y027564D01*
X034901Y027516D01*
X034882Y027470D01*
X034859Y027426D01*
X034832Y027383D01*
X034802Y027343D01*
X034770Y027305D01*
X034734Y027270D01*
X034695Y027238D01*
X034654Y027209D01*
X034611Y027183D01*
X034566Y027161D01*
X034520Y027143D01*
X034472Y027128D01*
X034423Y027117D01*
X034374Y027110D01*
X034324Y027107D01*
X034273Y027108D01*
X034224Y027113D01*
X034174Y027122D01*
X034126Y027135D01*
X034079Y027151D01*
X034033Y027172D01*
X033989Y027196D01*
X033947Y027223D01*
X033907Y027253D01*
X033870Y027287D01*
X033836Y027324D01*
X033804Y027363D01*
X033776Y027404D01*
X033751Y027448D01*
X033730Y027493D01*
X033713Y027540D01*
X033699Y027588D01*
X033689Y027637D01*
X033683Y027687D01*
X033681Y027737D01*
X030225Y027737D02*
X030227Y027787D01*
X030233Y027837D01*
X030243Y027886D01*
X030257Y027934D01*
X030274Y027981D01*
X030295Y028026D01*
X030320Y028070D01*
X030348Y028111D01*
X030380Y028150D01*
X030414Y028187D01*
X030451Y028221D01*
X030491Y028251D01*
X030533Y028278D01*
X030577Y028302D01*
X030623Y028323D01*
X030670Y028339D01*
X030718Y028352D01*
X030768Y028361D01*
X030817Y028366D01*
X030868Y028367D01*
X030918Y028364D01*
X030967Y028357D01*
X031016Y028346D01*
X031064Y028331D01*
X031110Y028313D01*
X031155Y028291D01*
X031198Y028265D01*
X031239Y028236D01*
X031278Y028204D01*
X031314Y028169D01*
X031346Y028131D01*
X031376Y028091D01*
X031403Y028048D01*
X031426Y028004D01*
X031445Y027958D01*
X031461Y027910D01*
X031473Y027861D01*
X031481Y027812D01*
X031485Y027762D01*
X031485Y027712D01*
X031481Y027662D01*
X031473Y027613D01*
X031461Y027564D01*
X031445Y027516D01*
X031426Y027470D01*
X031403Y027426D01*
X031376Y027383D01*
X031346Y027343D01*
X031314Y027305D01*
X031278Y027270D01*
X031239Y027238D01*
X031198Y027209D01*
X031155Y027183D01*
X031110Y027161D01*
X031064Y027143D01*
X031016Y027128D01*
X030967Y027117D01*
X030918Y027110D01*
X030868Y027107D01*
X030817Y027108D01*
X030768Y027113D01*
X030718Y027122D01*
X030670Y027135D01*
X030623Y027151D01*
X030577Y027172D01*
X030533Y027196D01*
X030491Y027223D01*
X030451Y027253D01*
X030414Y027287D01*
X030380Y027324D01*
X030348Y027363D01*
X030320Y027404D01*
X030295Y027448D01*
X030274Y027493D01*
X030257Y027540D01*
X030243Y027588D01*
X030233Y027637D01*
X030227Y027687D01*
X030225Y027737D01*
X026681Y027737D02*
X026683Y027787D01*
X026689Y027837D01*
X026699Y027886D01*
X026713Y027934D01*
X026730Y027981D01*
X026751Y028026D01*
X026776Y028070D01*
X026804Y028111D01*
X026836Y028150D01*
X026870Y028187D01*
X026907Y028221D01*
X026947Y028251D01*
X026989Y028278D01*
X027033Y028302D01*
X027079Y028323D01*
X027126Y028339D01*
X027174Y028352D01*
X027224Y028361D01*
X027273Y028366D01*
X027324Y028367D01*
X027374Y028364D01*
X027423Y028357D01*
X027472Y028346D01*
X027520Y028331D01*
X027566Y028313D01*
X027611Y028291D01*
X027654Y028265D01*
X027695Y028236D01*
X027734Y028204D01*
X027770Y028169D01*
X027802Y028131D01*
X027832Y028091D01*
X027859Y028048D01*
X027882Y028004D01*
X027901Y027958D01*
X027917Y027910D01*
X027929Y027861D01*
X027937Y027812D01*
X027941Y027762D01*
X027941Y027712D01*
X027937Y027662D01*
X027929Y027613D01*
X027917Y027564D01*
X027901Y027516D01*
X027882Y027470D01*
X027859Y027426D01*
X027832Y027383D01*
X027802Y027343D01*
X027770Y027305D01*
X027734Y027270D01*
X027695Y027238D01*
X027654Y027209D01*
X027611Y027183D01*
X027566Y027161D01*
X027520Y027143D01*
X027472Y027128D01*
X027423Y027117D01*
X027374Y027110D01*
X027324Y027107D01*
X027273Y027108D01*
X027224Y027113D01*
X027174Y027122D01*
X027126Y027135D01*
X027079Y027151D01*
X027033Y027172D01*
X026989Y027196D01*
X026947Y027223D01*
X026907Y027253D01*
X026870Y027287D01*
X026836Y027324D01*
X026804Y027363D01*
X026776Y027404D01*
X026751Y027448D01*
X026730Y027493D01*
X026713Y027540D01*
X026699Y027588D01*
X026689Y027637D01*
X026683Y027687D01*
X026681Y027737D01*
X023225Y027737D02*
X023227Y027787D01*
X023233Y027837D01*
X023243Y027886D01*
X023257Y027934D01*
X023274Y027981D01*
X023295Y028026D01*
X023320Y028070D01*
X023348Y028111D01*
X023380Y028150D01*
X023414Y028187D01*
X023451Y028221D01*
X023491Y028251D01*
X023533Y028278D01*
X023577Y028302D01*
X023623Y028323D01*
X023670Y028339D01*
X023718Y028352D01*
X023768Y028361D01*
X023817Y028366D01*
X023868Y028367D01*
X023918Y028364D01*
X023967Y028357D01*
X024016Y028346D01*
X024064Y028331D01*
X024110Y028313D01*
X024155Y028291D01*
X024198Y028265D01*
X024239Y028236D01*
X024278Y028204D01*
X024314Y028169D01*
X024346Y028131D01*
X024376Y028091D01*
X024403Y028048D01*
X024426Y028004D01*
X024445Y027958D01*
X024461Y027910D01*
X024473Y027861D01*
X024481Y027812D01*
X024485Y027762D01*
X024485Y027712D01*
X024481Y027662D01*
X024473Y027613D01*
X024461Y027564D01*
X024445Y027516D01*
X024426Y027470D01*
X024403Y027426D01*
X024376Y027383D01*
X024346Y027343D01*
X024314Y027305D01*
X024278Y027270D01*
X024239Y027238D01*
X024198Y027209D01*
X024155Y027183D01*
X024110Y027161D01*
X024064Y027143D01*
X024016Y027128D01*
X023967Y027117D01*
X023918Y027110D01*
X023868Y027107D01*
X023817Y027108D01*
X023768Y027113D01*
X023718Y027122D01*
X023670Y027135D01*
X023623Y027151D01*
X023577Y027172D01*
X023533Y027196D01*
X023491Y027223D01*
X023451Y027253D01*
X023414Y027287D01*
X023380Y027324D01*
X023348Y027363D01*
X023320Y027404D01*
X023295Y027448D01*
X023274Y027493D01*
X023257Y027540D01*
X023243Y027588D01*
X023233Y027637D01*
X023227Y027687D01*
X023225Y027737D01*
X019681Y027737D02*
X019683Y027787D01*
X019689Y027837D01*
X019699Y027886D01*
X019713Y027934D01*
X019730Y027981D01*
X019751Y028026D01*
X019776Y028070D01*
X019804Y028111D01*
X019836Y028150D01*
X019870Y028187D01*
X019907Y028221D01*
X019947Y028251D01*
X019989Y028278D01*
X020033Y028302D01*
X020079Y028323D01*
X020126Y028339D01*
X020174Y028352D01*
X020224Y028361D01*
X020273Y028366D01*
X020324Y028367D01*
X020374Y028364D01*
X020423Y028357D01*
X020472Y028346D01*
X020520Y028331D01*
X020566Y028313D01*
X020611Y028291D01*
X020654Y028265D01*
X020695Y028236D01*
X020734Y028204D01*
X020770Y028169D01*
X020802Y028131D01*
X020832Y028091D01*
X020859Y028048D01*
X020882Y028004D01*
X020901Y027958D01*
X020917Y027910D01*
X020929Y027861D01*
X020937Y027812D01*
X020941Y027762D01*
X020941Y027712D01*
X020937Y027662D01*
X020929Y027613D01*
X020917Y027564D01*
X020901Y027516D01*
X020882Y027470D01*
X020859Y027426D01*
X020832Y027383D01*
X020802Y027343D01*
X020770Y027305D01*
X020734Y027270D01*
X020695Y027238D01*
X020654Y027209D01*
X020611Y027183D01*
X020566Y027161D01*
X020520Y027143D01*
X020472Y027128D01*
X020423Y027117D01*
X020374Y027110D01*
X020324Y027107D01*
X020273Y027108D01*
X020224Y027113D01*
X020174Y027122D01*
X020126Y027135D01*
X020079Y027151D01*
X020033Y027172D01*
X019989Y027196D01*
X019947Y027223D01*
X019907Y027253D01*
X019870Y027287D01*
X019836Y027324D01*
X019804Y027363D01*
X019776Y027404D01*
X019751Y027448D01*
X019730Y027493D01*
X019713Y027540D01*
X019699Y027588D01*
X019689Y027637D01*
X019683Y027687D01*
X019681Y027737D01*
X016225Y027737D02*
X016227Y027787D01*
X016233Y027837D01*
X016243Y027886D01*
X016257Y027934D01*
X016274Y027981D01*
X016295Y028026D01*
X016320Y028070D01*
X016348Y028111D01*
X016380Y028150D01*
X016414Y028187D01*
X016451Y028221D01*
X016491Y028251D01*
X016533Y028278D01*
X016577Y028302D01*
X016623Y028323D01*
X016670Y028339D01*
X016718Y028352D01*
X016768Y028361D01*
X016817Y028366D01*
X016868Y028367D01*
X016918Y028364D01*
X016967Y028357D01*
X017016Y028346D01*
X017064Y028331D01*
X017110Y028313D01*
X017155Y028291D01*
X017198Y028265D01*
X017239Y028236D01*
X017278Y028204D01*
X017314Y028169D01*
X017346Y028131D01*
X017376Y028091D01*
X017403Y028048D01*
X017426Y028004D01*
X017445Y027958D01*
X017461Y027910D01*
X017473Y027861D01*
X017481Y027812D01*
X017485Y027762D01*
X017485Y027712D01*
X017481Y027662D01*
X017473Y027613D01*
X017461Y027564D01*
X017445Y027516D01*
X017426Y027470D01*
X017403Y027426D01*
X017376Y027383D01*
X017346Y027343D01*
X017314Y027305D01*
X017278Y027270D01*
X017239Y027238D01*
X017198Y027209D01*
X017155Y027183D01*
X017110Y027161D01*
X017064Y027143D01*
X017016Y027128D01*
X016967Y027117D01*
X016918Y027110D01*
X016868Y027107D01*
X016817Y027108D01*
X016768Y027113D01*
X016718Y027122D01*
X016670Y027135D01*
X016623Y027151D01*
X016577Y027172D01*
X016533Y027196D01*
X016491Y027223D01*
X016451Y027253D01*
X016414Y027287D01*
X016380Y027324D01*
X016348Y027363D01*
X016320Y027404D01*
X016295Y027448D01*
X016274Y027493D01*
X016257Y027540D01*
X016243Y027588D01*
X016233Y027637D01*
X016227Y027687D01*
X016225Y027737D01*
X012681Y027737D02*
X012683Y027787D01*
X012689Y027837D01*
X012699Y027886D01*
X012713Y027934D01*
X012730Y027981D01*
X012751Y028026D01*
X012776Y028070D01*
X012804Y028111D01*
X012836Y028150D01*
X012870Y028187D01*
X012907Y028221D01*
X012947Y028251D01*
X012989Y028278D01*
X013033Y028302D01*
X013079Y028323D01*
X013126Y028339D01*
X013174Y028352D01*
X013224Y028361D01*
X013273Y028366D01*
X013324Y028367D01*
X013374Y028364D01*
X013423Y028357D01*
X013472Y028346D01*
X013520Y028331D01*
X013566Y028313D01*
X013611Y028291D01*
X013654Y028265D01*
X013695Y028236D01*
X013734Y028204D01*
X013770Y028169D01*
X013802Y028131D01*
X013832Y028091D01*
X013859Y028048D01*
X013882Y028004D01*
X013901Y027958D01*
X013917Y027910D01*
X013929Y027861D01*
X013937Y027812D01*
X013941Y027762D01*
X013941Y027712D01*
X013937Y027662D01*
X013929Y027613D01*
X013917Y027564D01*
X013901Y027516D01*
X013882Y027470D01*
X013859Y027426D01*
X013832Y027383D01*
X013802Y027343D01*
X013770Y027305D01*
X013734Y027270D01*
X013695Y027238D01*
X013654Y027209D01*
X013611Y027183D01*
X013566Y027161D01*
X013520Y027143D01*
X013472Y027128D01*
X013423Y027117D01*
X013374Y027110D01*
X013324Y027107D01*
X013273Y027108D01*
X013224Y027113D01*
X013174Y027122D01*
X013126Y027135D01*
X013079Y027151D01*
X013033Y027172D01*
X012989Y027196D01*
X012947Y027223D01*
X012907Y027253D01*
X012870Y027287D01*
X012836Y027324D01*
X012804Y027363D01*
X012776Y027404D01*
X012751Y027448D01*
X012730Y027493D01*
X012713Y027540D01*
X012699Y027588D01*
X012689Y027637D01*
X012683Y027687D01*
X012681Y027737D01*
X009225Y027737D02*
X009227Y027787D01*
X009233Y027837D01*
X009243Y027886D01*
X009257Y027934D01*
X009274Y027981D01*
X009295Y028026D01*
X009320Y028070D01*
X009348Y028111D01*
X009380Y028150D01*
X009414Y028187D01*
X009451Y028221D01*
X009491Y028251D01*
X009533Y028278D01*
X009577Y028302D01*
X009623Y028323D01*
X009670Y028339D01*
X009718Y028352D01*
X009768Y028361D01*
X009817Y028366D01*
X009868Y028367D01*
X009918Y028364D01*
X009967Y028357D01*
X010016Y028346D01*
X010064Y028331D01*
X010110Y028313D01*
X010155Y028291D01*
X010198Y028265D01*
X010239Y028236D01*
X010278Y028204D01*
X010314Y028169D01*
X010346Y028131D01*
X010376Y028091D01*
X010403Y028048D01*
X010426Y028004D01*
X010445Y027958D01*
X010461Y027910D01*
X010473Y027861D01*
X010481Y027812D01*
X010485Y027762D01*
X010485Y027712D01*
X010481Y027662D01*
X010473Y027613D01*
X010461Y027564D01*
X010445Y027516D01*
X010426Y027470D01*
X010403Y027426D01*
X010376Y027383D01*
X010346Y027343D01*
X010314Y027305D01*
X010278Y027270D01*
X010239Y027238D01*
X010198Y027209D01*
X010155Y027183D01*
X010110Y027161D01*
X010064Y027143D01*
X010016Y027128D01*
X009967Y027117D01*
X009918Y027110D01*
X009868Y027107D01*
X009817Y027108D01*
X009768Y027113D01*
X009718Y027122D01*
X009670Y027135D01*
X009623Y027151D01*
X009577Y027172D01*
X009533Y027196D01*
X009491Y027223D01*
X009451Y027253D01*
X009414Y027287D01*
X009380Y027324D01*
X009348Y027363D01*
X009320Y027404D01*
X009295Y027448D01*
X009274Y027493D01*
X009257Y027540D01*
X009243Y027588D01*
X009233Y027637D01*
X009227Y027687D01*
X009225Y027737D01*
X005681Y027737D02*
X005683Y027787D01*
X005689Y027837D01*
X005699Y027886D01*
X005713Y027934D01*
X005730Y027981D01*
X005751Y028026D01*
X005776Y028070D01*
X005804Y028111D01*
X005836Y028150D01*
X005870Y028187D01*
X005907Y028221D01*
X005947Y028251D01*
X005989Y028278D01*
X006033Y028302D01*
X006079Y028323D01*
X006126Y028339D01*
X006174Y028352D01*
X006224Y028361D01*
X006273Y028366D01*
X006324Y028367D01*
X006374Y028364D01*
X006423Y028357D01*
X006472Y028346D01*
X006520Y028331D01*
X006566Y028313D01*
X006611Y028291D01*
X006654Y028265D01*
X006695Y028236D01*
X006734Y028204D01*
X006770Y028169D01*
X006802Y028131D01*
X006832Y028091D01*
X006859Y028048D01*
X006882Y028004D01*
X006901Y027958D01*
X006917Y027910D01*
X006929Y027861D01*
X006937Y027812D01*
X006941Y027762D01*
X006941Y027712D01*
X006937Y027662D01*
X006929Y027613D01*
X006917Y027564D01*
X006901Y027516D01*
X006882Y027470D01*
X006859Y027426D01*
X006832Y027383D01*
X006802Y027343D01*
X006770Y027305D01*
X006734Y027270D01*
X006695Y027238D01*
X006654Y027209D01*
X006611Y027183D01*
X006566Y027161D01*
X006520Y027143D01*
X006472Y027128D01*
X006423Y027117D01*
X006374Y027110D01*
X006324Y027107D01*
X006273Y027108D01*
X006224Y027113D01*
X006174Y027122D01*
X006126Y027135D01*
X006079Y027151D01*
X006033Y027172D01*
X005989Y027196D01*
X005947Y027223D01*
X005907Y027253D01*
X005870Y027287D01*
X005836Y027324D01*
X005804Y027363D01*
X005776Y027404D01*
X005751Y027448D01*
X005730Y027493D01*
X005713Y027540D01*
X005699Y027588D01*
X005689Y027637D01*
X005683Y027687D01*
X005681Y027737D01*
X003300Y013355D02*
X003302Y013405D01*
X003308Y013455D01*
X003318Y013504D01*
X003332Y013552D01*
X003349Y013599D01*
X003370Y013644D01*
X003395Y013688D01*
X003423Y013729D01*
X003455Y013768D01*
X003489Y013805D01*
X003526Y013839D01*
X003566Y013869D01*
X003608Y013896D01*
X003652Y013920D01*
X003698Y013941D01*
X003745Y013957D01*
X003793Y013970D01*
X003843Y013979D01*
X003892Y013984D01*
X003943Y013985D01*
X003993Y013982D01*
X004042Y013975D01*
X004091Y013964D01*
X004139Y013949D01*
X004185Y013931D01*
X004230Y013909D01*
X004273Y013883D01*
X004314Y013854D01*
X004353Y013822D01*
X004389Y013787D01*
X004421Y013749D01*
X004451Y013709D01*
X004478Y013666D01*
X004501Y013622D01*
X004520Y013576D01*
X004536Y013528D01*
X004548Y013479D01*
X004556Y013430D01*
X004560Y013380D01*
X004560Y013330D01*
X004556Y013280D01*
X004548Y013231D01*
X004536Y013182D01*
X004520Y013134D01*
X004501Y013088D01*
X004478Y013044D01*
X004451Y013001D01*
X004421Y012961D01*
X004389Y012923D01*
X004353Y012888D01*
X004314Y012856D01*
X004273Y012827D01*
X004230Y012801D01*
X004185Y012779D01*
X004139Y012761D01*
X004091Y012746D01*
X004042Y012735D01*
X003993Y012728D01*
X003943Y012725D01*
X003892Y012726D01*
X003843Y012731D01*
X003793Y012740D01*
X003745Y012753D01*
X003698Y012769D01*
X003652Y012790D01*
X003608Y012814D01*
X003566Y012841D01*
X003526Y012871D01*
X003489Y012905D01*
X003455Y012942D01*
X003423Y012981D01*
X003395Y013022D01*
X003370Y013066D01*
X003349Y013111D01*
X003332Y013158D01*
X003318Y013206D01*
X003308Y013255D01*
X003302Y013305D01*
X003300Y013355D01*
X003300Y009811D02*
X003302Y009861D01*
X003308Y009911D01*
X003318Y009960D01*
X003332Y010008D01*
X003349Y010055D01*
X003370Y010100D01*
X003395Y010144D01*
X003423Y010185D01*
X003455Y010224D01*
X003489Y010261D01*
X003526Y010295D01*
X003566Y010325D01*
X003608Y010352D01*
X003652Y010376D01*
X003698Y010397D01*
X003745Y010413D01*
X003793Y010426D01*
X003843Y010435D01*
X003892Y010440D01*
X003943Y010441D01*
X003993Y010438D01*
X004042Y010431D01*
X004091Y010420D01*
X004139Y010405D01*
X004185Y010387D01*
X004230Y010365D01*
X004273Y010339D01*
X004314Y010310D01*
X004353Y010278D01*
X004389Y010243D01*
X004421Y010205D01*
X004451Y010165D01*
X004478Y010122D01*
X004501Y010078D01*
X004520Y010032D01*
X004536Y009984D01*
X004548Y009935D01*
X004556Y009886D01*
X004560Y009836D01*
X004560Y009786D01*
X004556Y009736D01*
X004548Y009687D01*
X004536Y009638D01*
X004520Y009590D01*
X004501Y009544D01*
X004478Y009500D01*
X004451Y009457D01*
X004421Y009417D01*
X004389Y009379D01*
X004353Y009344D01*
X004314Y009312D01*
X004273Y009283D01*
X004230Y009257D01*
X004185Y009235D01*
X004139Y009217D01*
X004091Y009202D01*
X004042Y009191D01*
X003993Y009184D01*
X003943Y009181D01*
X003892Y009182D01*
X003843Y009187D01*
X003793Y009196D01*
X003745Y009209D01*
X003698Y009225D01*
X003652Y009246D01*
X003608Y009270D01*
X003566Y009297D01*
X003526Y009327D01*
X003489Y009361D01*
X003455Y009398D01*
X003423Y009437D01*
X003395Y009478D01*
X003370Y009522D01*
X003349Y009567D01*
X003332Y009614D01*
X003318Y009662D01*
X003308Y009711D01*
X003302Y009761D01*
X003300Y009811D01*
D11*
X029771Y011708D03*
D12*
X029771Y009708D03*
D13*
X029083Y007748D03*
X029083Y005583D03*
X036083Y005583D03*
X036083Y007748D03*
X037083Y010756D03*
X034918Y010756D03*
X034918Y012410D03*
X037083Y012410D03*
X037083Y019756D03*
X037083Y021410D03*
X034918Y021410D03*
X034918Y019756D03*
X036083Y023918D03*
X036083Y026083D03*
X029083Y026083D03*
X029083Y023918D03*
X022083Y023918D03*
X022083Y026083D03*
X015083Y026083D03*
X015083Y023918D03*
X008083Y023918D03*
X008083Y026083D03*
X007748Y011583D03*
X005583Y011583D03*
X008083Y007748D03*
X008083Y005583D03*
X015083Y005583D03*
X015083Y007748D03*
X022083Y007748D03*
X022083Y005583D03*
D14*
X032833Y010147D03*
X032833Y010895D03*
X006333Y023709D03*
X006333Y024457D03*
D15*
X008698Y017458D02*
X009218Y017458D01*
X007218Y016458D02*
X006698Y016458D01*
X008698Y015458D02*
X009218Y015458D01*
D16*
X012208Y019083D03*
X012208Y011583D03*
X017208Y011583D03*
X018458Y011583D03*
X019708Y011583D03*
X025958Y011583D03*
X025958Y019083D03*
D17*
X005083Y018083D03*
X005083Y017083D03*
X005083Y016083D03*
D18*
X004271Y021521D03*
X003271Y021521D03*
X003208Y027646D03*
X004208Y027646D03*
X004208Y003771D03*
X003208Y003771D03*
D19*
X008021Y021583D03*
X009021Y021583D03*
X010021Y021583D03*
D20*
X011458Y024647D03*
X011458Y025395D03*
X018521Y025395D03*
X018521Y024647D03*
X025583Y024709D03*
X025583Y025457D03*
X032521Y025395D03*
X032521Y024647D03*
X010271Y010918D03*
X010271Y010248D03*
X008833Y010248D03*
X008833Y010918D03*
X008833Y012311D03*
X008833Y012980D03*
X010208Y012980D03*
X010208Y012311D03*
X011958Y007082D03*
X011958Y006334D03*
X018708Y006209D03*
X018708Y006957D03*
X025708Y006957D03*
X025708Y006209D03*
X032833Y006334D03*
X032833Y007082D03*
D21*
X031396Y014521D03*
X031396Y020083D03*
X004146Y024646D03*
X004146Y006833D03*
D22*
X004226Y006863D02*
X007159Y006863D01*
X007059Y006962D02*
X007297Y006724D01*
X007589Y006556D01*
X007915Y006468D01*
X011483Y006468D01*
X011483Y006382D01*
X011910Y006382D01*
X011910Y006286D01*
X012006Y006286D01*
X012006Y005898D01*
X012277Y005898D01*
X012323Y005910D01*
X012364Y005934D01*
X012397Y005968D01*
X012421Y006009D01*
X012433Y006054D01*
X012433Y006286D01*
X012006Y006286D01*
X012006Y006382D01*
X012433Y006382D01*
X012433Y006468D01*
X018233Y006468D01*
X018233Y006257D01*
X018660Y006257D01*
X018660Y006161D01*
X018756Y006161D01*
X018756Y005773D01*
X019027Y005773D01*
X019073Y005785D01*
X019114Y005809D01*
X019147Y005843D01*
X019171Y005884D01*
X019183Y005929D01*
X019183Y006161D01*
X018756Y006161D01*
X018756Y006257D01*
X019183Y006257D01*
X019183Y006428D01*
X024502Y006428D01*
X024652Y006468D01*
X025233Y006468D01*
X025233Y006257D01*
X025660Y006257D01*
X025660Y006161D01*
X025756Y006161D01*
X025756Y005773D01*
X026027Y005773D01*
X026073Y005785D01*
X026114Y005809D01*
X026147Y005843D01*
X026171Y005884D01*
X026183Y005929D01*
X026183Y006161D01*
X025756Y006161D01*
X025756Y006257D01*
X026183Y006257D01*
X026183Y006468D01*
X032358Y006468D01*
X032358Y006382D01*
X032785Y006382D01*
X032785Y006286D01*
X032881Y006286D01*
X032881Y005898D01*
X033152Y005898D01*
X033198Y005910D01*
X033239Y005934D01*
X033272Y005968D01*
X033296Y006009D01*
X033308Y006054D01*
X033308Y006286D01*
X032881Y006286D01*
X032881Y006382D01*
X033308Y006382D01*
X033308Y006468D01*
X036252Y006468D01*
X036577Y006556D01*
X036869Y006724D01*
X037107Y006962D01*
X037276Y007254D01*
X037363Y007580D01*
X037363Y007917D01*
X037276Y008242D01*
X037107Y008534D01*
X036869Y008773D01*
X036577Y008941D01*
X036252Y009028D01*
X036198Y009028D01*
X036198Y011752D01*
X036132Y011996D01*
X036198Y012241D01*
X036198Y022638D01*
X036252Y022638D01*
X036577Y022725D01*
X036869Y022893D01*
X037107Y023132D01*
X037276Y023424D01*
X037363Y023749D01*
X037363Y024086D01*
X037276Y024412D01*
X037107Y024704D01*
X036869Y024942D01*
X036577Y025110D01*
X036252Y025198D01*
X032996Y025198D01*
X032996Y025347D01*
X032569Y025347D01*
X032569Y025443D01*
X032996Y025443D01*
X032996Y025674D01*
X032984Y025720D01*
X032960Y025761D01*
X032926Y025795D01*
X032885Y025818D01*
X032840Y025830D01*
X032569Y025830D01*
X032569Y025443D01*
X032473Y025443D01*
X032473Y025830D01*
X032202Y025830D01*
X032156Y025818D01*
X032115Y025795D01*
X032081Y025761D01*
X032058Y025720D01*
X032045Y025674D01*
X032045Y025443D01*
X032473Y025443D01*
X032473Y025347D01*
X032045Y025347D01*
X032045Y025198D01*
X026058Y025198D01*
X026058Y025409D01*
X025631Y025409D01*
X025631Y025505D01*
X026058Y025505D01*
X026058Y025737D01*
X026046Y025782D01*
X026022Y025824D01*
X025989Y025857D01*
X025948Y025881D01*
X025902Y025893D01*
X025631Y025893D01*
X025631Y025505D01*
X025535Y025505D01*
X025535Y025409D01*
X025108Y025409D01*
X025108Y025198D01*
X018996Y025198D01*
X018996Y025347D01*
X018569Y025347D01*
X018569Y025443D01*
X018996Y025443D01*
X018996Y025674D01*
X018984Y025720D01*
X018960Y025761D01*
X018926Y025795D01*
X018885Y025818D01*
X018840Y025830D01*
X018569Y025830D01*
X018569Y025443D01*
X018473Y025443D01*
X018473Y025830D01*
X018202Y025830D01*
X018156Y025818D01*
X018115Y025795D01*
X018081Y025761D01*
X018058Y025720D01*
X018045Y025674D01*
X018045Y025443D01*
X018473Y025443D01*
X018473Y025347D01*
X018045Y025347D01*
X018045Y025198D01*
X011933Y025198D01*
X011933Y025347D01*
X011506Y025347D01*
X011506Y025443D01*
X011410Y025443D01*
X011410Y025830D01*
X011139Y025830D01*
X011093Y025818D01*
X011052Y025795D01*
X011019Y025761D01*
X010995Y025720D01*
X010983Y025674D01*
X010983Y025443D01*
X011410Y025443D01*
X011410Y025347D01*
X010983Y025347D01*
X010983Y025198D01*
X007915Y025198D01*
X007589Y025110D01*
X007297Y024942D01*
X007059Y024704D01*
X006928Y024477D01*
X006928Y024769D01*
X006885Y024872D01*
X006807Y024950D01*
X006704Y024993D01*
X006569Y024993D01*
X006569Y025716D01*
X006514Y025849D01*
X004818Y027545D01*
X004818Y027898D01*
X004461Y028256D01*
X003955Y028256D01*
X003637Y027938D01*
X003419Y028156D01*
X003208Y028156D01*
X002997Y028156D01*
X002698Y027857D01*
X002698Y027646D01*
X003208Y027646D01*
X003208Y028156D01*
X003208Y027646D01*
X003208Y027646D01*
X003208Y027646D01*
X002698Y027646D01*
X002698Y027434D01*
X002997Y027136D01*
X003208Y027136D01*
X003208Y027646D01*
X003208Y027646D01*
X003208Y027136D01*
X003419Y027136D01*
X003637Y027354D01*
X003955Y027036D01*
X004309Y027036D01*
X005849Y025495D01*
X005849Y024940D01*
X005781Y024872D01*
X005738Y024769D01*
X005738Y024145D01*
X005764Y024083D01*
X005738Y024021D01*
X005738Y023397D01*
X005781Y023295D01*
X005860Y023216D01*
X005962Y023173D01*
X006704Y023173D01*
X006776Y023203D01*
X007018Y023203D01*
X007059Y023132D01*
X007297Y022893D01*
X007589Y022725D01*
X007915Y022638D01*
X033638Y022638D01*
X033638Y013067D01*
X033583Y012863D01*
X030330Y012863D01*
X030265Y012901D01*
X029939Y012988D01*
X025915Y012988D01*
X025589Y012901D01*
X025297Y012732D01*
X025059Y012494D01*
X024934Y012369D01*
X024930Y012363D01*
X019553Y012363D01*
X019266Y012244D01*
X019048Y012026D01*
X018872Y012202D01*
X018603Y012313D01*
X018313Y012313D01*
X018279Y012299D01*
X016463Y014115D01*
X016463Y018483D01*
X016519Y018539D01*
X016561Y018642D01*
X016561Y019149D01*
X016519Y019252D01*
X016440Y019331D01*
X016337Y019374D01*
X015829Y019374D01*
X015726Y019331D01*
X015648Y019252D01*
X015605Y019149D01*
X015605Y018642D01*
X015648Y018539D01*
X015703Y018483D01*
X015703Y013882D01*
X015761Y013743D01*
X015868Y013636D01*
X017191Y012313D01*
X017063Y012313D01*
X016795Y012202D01*
X016589Y011997D01*
X016478Y011728D01*
X016478Y011438D01*
X016589Y011170D01*
X016795Y010964D01*
X016848Y010942D01*
X016848Y010324D01*
X016903Y010192D01*
X017004Y010090D01*
X017355Y009740D01*
X017355Y009517D01*
X017398Y009414D01*
X017476Y009335D01*
X017579Y009292D01*
X018087Y009292D01*
X018190Y009335D01*
X018269Y009414D01*
X018311Y009517D01*
X018311Y010024D01*
X018269Y010127D01*
X018190Y010206D01*
X018087Y010249D01*
X017864Y010249D01*
X017568Y010545D01*
X017568Y010942D01*
X017622Y010964D01*
X017827Y011170D01*
X017833Y011184D01*
X017839Y011170D01*
X018045Y010964D01*
X018313Y010853D01*
X018603Y010853D01*
X018872Y010964D01*
X019048Y011140D01*
X019266Y010922D01*
X019553Y010803D01*
X024930Y010803D01*
X024934Y010797D01*
X025172Y010559D01*
X025464Y010390D01*
X025790Y010303D01*
X026127Y010303D01*
X026452Y010390D01*
X026518Y010428D01*
X029336Y010428D01*
X029402Y010390D01*
X029472Y010371D01*
X029091Y009990D01*
X029091Y009728D01*
X029751Y009728D01*
X029751Y009688D01*
X029091Y009688D01*
X029091Y009426D01*
X029489Y009028D01*
X007915Y009028D01*
X007589Y008941D01*
X007297Y008773D01*
X007059Y008534D01*
X006890Y008242D01*
X006803Y007917D01*
X006803Y007580D01*
X006890Y007254D01*
X007059Y006962D01*
X007025Y007021D02*
X005463Y007021D01*
X005463Y007028D02*
X005437Y007157D01*
X005399Y007282D01*
X005349Y007402D01*
X005288Y007518D01*
X005215Y007626D01*
X005132Y007727D01*
X005040Y007820D01*
X004939Y007903D01*
X004830Y007975D01*
X004715Y008037D01*
X004594Y008087D01*
X004469Y008125D01*
X004341Y008150D01*
X004226Y008162D01*
X004226Y006913D01*
X005474Y006913D01*
X005463Y007028D01*
X005430Y007180D02*
X006933Y007180D01*
X006868Y007338D02*
X005376Y007338D01*
X005299Y007497D02*
X006825Y007497D01*
X006803Y007655D02*
X005192Y007655D01*
X005046Y007814D02*
X006803Y007814D01*
X006818Y007972D02*
X004835Y007972D01*
X004440Y008131D02*
X006860Y008131D01*
X006917Y008289D02*
X002583Y008289D01*
X002583Y008131D02*
X003851Y008131D01*
X003822Y008125D02*
X003950Y008150D01*
X004066Y008162D01*
X004066Y006913D01*
X004226Y006913D01*
X004226Y006753D01*
X005474Y006753D01*
X005463Y006638D01*
X005437Y006510D01*
X005399Y006384D01*
X005349Y006264D01*
X005288Y006148D01*
X005215Y006040D01*
X005132Y005939D01*
X005040Y005846D01*
X004939Y005764D01*
X004830Y005691D01*
X004715Y005629D01*
X004594Y005579D01*
X004469Y005541D01*
X004341Y005516D01*
X004226Y005505D01*
X004226Y006753D01*
X004066Y006753D01*
X004066Y005505D01*
X003950Y005516D01*
X003822Y005541D01*
X003697Y005579D01*
X003576Y005629D01*
X003461Y005691D01*
X003352Y005764D01*
X003251Y005846D01*
X003159Y005939D01*
X003076Y006040D01*
X003003Y006148D01*
X002942Y006264D01*
X002892Y006384D01*
X002854Y006510D01*
X002828Y006638D01*
X002817Y006753D01*
X004066Y006753D01*
X004066Y006913D01*
X002817Y006913D01*
X002828Y007028D01*
X002854Y007157D01*
X002892Y007282D01*
X002942Y007402D01*
X003003Y007518D01*
X003076Y007626D01*
X003159Y007727D01*
X003251Y007820D01*
X003352Y007903D01*
X003461Y007975D01*
X003576Y008037D01*
X003697Y008087D01*
X003822Y008125D01*
X004066Y008131D02*
X004226Y008131D01*
X004226Y007972D02*
X004066Y007972D01*
X004066Y007814D02*
X004226Y007814D01*
X004226Y007655D02*
X004066Y007655D01*
X004066Y007497D02*
X004226Y007497D01*
X004226Y007338D02*
X004066Y007338D01*
X004066Y007180D02*
X004226Y007180D01*
X004226Y007021D02*
X004066Y007021D01*
X004066Y006863D02*
X002583Y006863D01*
X002583Y007021D02*
X002828Y007021D01*
X002861Y007180D02*
X002583Y007180D01*
X002583Y007338D02*
X002915Y007338D01*
X002992Y007497D02*
X002583Y007497D01*
X002583Y007655D02*
X003100Y007655D01*
X003245Y007814D02*
X002583Y007814D01*
X002583Y007972D02*
X003456Y007972D01*
X003548Y008765D02*
X002583Y008765D01*
X002583Y008923D02*
X003248Y008923D01*
X003501Y008777D01*
X003783Y008701D01*
X004076Y008701D01*
X004358Y008777D01*
X004611Y008923D01*
X004818Y009130D01*
X004964Y009383D01*
X005039Y009665D01*
X005039Y009958D01*
X004964Y010240D01*
X004818Y010493D01*
X004611Y010700D01*
X004358Y010846D01*
X004076Y010921D01*
X003783Y010921D01*
X003501Y010846D01*
X003248Y010700D01*
X003041Y010493D01*
X002895Y010240D01*
X002820Y009958D01*
X002820Y009665D01*
X002895Y009383D01*
X003041Y009130D01*
X003248Y008923D01*
X003090Y009082D02*
X002583Y009082D01*
X002583Y009240D02*
X002978Y009240D01*
X002891Y009399D02*
X002583Y009399D01*
X002583Y009557D02*
X002849Y009557D01*
X002820Y009716D02*
X002583Y009716D01*
X002583Y009874D02*
X002820Y009874D01*
X002840Y010033D02*
X002583Y010033D01*
X002583Y010191D02*
X002882Y010191D01*
X002959Y010350D02*
X002583Y010350D01*
X002583Y010508D02*
X003057Y010508D01*
X003215Y010667D02*
X002583Y010667D01*
X002583Y010825D02*
X003465Y010825D01*
X002583Y010984D02*
X006617Y010984D01*
X006556Y011089D02*
X006724Y010797D01*
X006962Y010559D01*
X007254Y010390D01*
X007580Y010303D01*
X008358Y010303D01*
X008358Y010296D01*
X008785Y010296D01*
X008785Y010200D01*
X008881Y010200D01*
X008881Y009813D01*
X009152Y009813D01*
X009198Y009825D01*
X009239Y009848D01*
X009272Y009882D01*
X009296Y009923D01*
X009308Y009969D01*
X009308Y010200D01*
X008881Y010200D01*
X008881Y010296D01*
X009308Y010296D01*
X009308Y010303D01*
X009795Y010303D01*
X009795Y010296D01*
X010223Y010296D01*
X010223Y010200D01*
X010319Y010200D01*
X010319Y010296D01*
X010746Y010296D01*
X010746Y010303D01*
X011828Y010303D01*
X011828Y010120D01*
X011773Y010065D01*
X011730Y009962D01*
X011730Y009454D01*
X011773Y009351D01*
X011851Y009273D01*
X011954Y009230D01*
X012462Y009230D01*
X012565Y009273D01*
X012644Y009351D01*
X012686Y009454D01*
X012686Y009962D01*
X012644Y010065D01*
X012588Y010120D01*
X012588Y010360D01*
X012702Y010390D01*
X012994Y010559D01*
X013232Y010797D01*
X013401Y011089D01*
X013488Y011415D01*
X013488Y011752D01*
X013401Y012077D01*
X013232Y012369D01*
X012994Y012607D01*
X012838Y012697D01*
X012838Y012858D01*
X012894Y012914D01*
X012936Y013017D01*
X012936Y013524D01*
X012894Y013627D01*
X012815Y013706D01*
X012712Y013749D01*
X012204Y013749D01*
X012114Y013711D01*
X012024Y013749D01*
X011830Y013749D01*
X010401Y015178D01*
X010401Y021143D01*
X010512Y021255D01*
X010601Y021468D01*
X010601Y021698D01*
X010512Y021912D01*
X010349Y022075D01*
X010136Y022163D01*
X009905Y022163D01*
X009692Y022075D01*
X009580Y021963D01*
X009461Y021963D01*
X009349Y022075D01*
X009136Y022163D01*
X008905Y022163D01*
X008692Y022075D01*
X008580Y021963D01*
X008461Y021963D01*
X008349Y022075D01*
X008136Y022163D01*
X007905Y022163D01*
X007692Y022075D01*
X007529Y021912D01*
X007441Y021698D01*
X007441Y021468D01*
X007529Y021255D01*
X007692Y021091D01*
X007905Y021003D01*
X008136Y021003D01*
X008349Y021091D01*
X008461Y021203D01*
X008580Y021203D01*
X008692Y021091D01*
X008905Y021003D01*
X009136Y021003D01*
X009349Y021091D01*
X009461Y021203D01*
X009580Y021203D01*
X009641Y021143D01*
X009641Y017799D01*
X009524Y017916D01*
X009325Y017998D01*
X008591Y017998D01*
X008392Y017916D01*
X008240Y017764D01*
X008158Y017565D01*
X008158Y017351D01*
X008240Y017152D01*
X008392Y017000D01*
X008591Y016918D01*
X009325Y016918D01*
X009524Y017000D01*
X009641Y017117D01*
X009641Y015799D01*
X009524Y015916D01*
X009325Y015998D01*
X008591Y015998D01*
X008392Y015916D01*
X008240Y015764D01*
X008158Y015565D01*
X008158Y015351D01*
X008240Y015152D01*
X008392Y015000D01*
X008591Y014918D01*
X009325Y014918D01*
X009524Y015000D01*
X009641Y015117D01*
X009641Y014945D01*
X009698Y014805D01*
X011292Y013211D01*
X011292Y013017D01*
X011335Y012914D01*
X011386Y012863D01*
X010683Y012863D01*
X010683Y012932D01*
X010256Y012932D01*
X010256Y013028D01*
X010683Y013028D01*
X010683Y013260D01*
X010671Y013306D01*
X010647Y013347D01*
X010614Y013380D01*
X010573Y013404D01*
X010527Y013416D01*
X010256Y013416D01*
X010256Y013028D01*
X010160Y013028D01*
X010160Y012932D01*
X009733Y012932D01*
X009733Y012863D01*
X009308Y012863D01*
X009308Y012932D01*
X008881Y012932D01*
X008881Y013028D01*
X009308Y013028D01*
X009308Y013260D01*
X009296Y013306D01*
X009272Y013347D01*
X009239Y013380D01*
X009198Y013404D01*
X009152Y013416D01*
X008881Y013416D01*
X008881Y013028D01*
X008785Y013028D01*
X008785Y012932D01*
X008358Y012932D01*
X008358Y012863D01*
X007580Y012863D01*
X007254Y012776D01*
X006962Y012607D01*
X006724Y012369D01*
X006556Y012077D01*
X006468Y011752D01*
X006468Y011415D01*
X006556Y011089D01*
X006541Y011142D02*
X006175Y011142D01*
X006176Y011146D02*
X006176Y011525D01*
X005641Y011525D01*
X005641Y010990D01*
X006020Y010990D01*
X006066Y011002D01*
X006107Y011026D01*
X006140Y011059D01*
X006164Y011100D01*
X006176Y011146D01*
X006176Y011301D02*
X006499Y011301D01*
X006468Y011459D02*
X006176Y011459D01*
X006176Y011641D02*
X006176Y012020D01*
X006164Y012066D01*
X006140Y012107D01*
X006107Y012140D01*
X006066Y012164D01*
X006020Y012176D01*
X005641Y012176D01*
X005641Y011641D01*
X005525Y011641D01*
X005525Y011525D01*
X005641Y011525D01*
X005641Y011641D01*
X006176Y011641D01*
X006176Y011776D02*
X006475Y011776D01*
X006468Y011618D02*
X005641Y011618D01*
X005525Y011618D02*
X002583Y011618D01*
X002583Y011776D02*
X004990Y011776D01*
X004990Y011641D02*
X004990Y012020D01*
X005002Y012066D01*
X005026Y012107D01*
X005059Y012140D01*
X005100Y012164D01*
X005146Y012176D01*
X005525Y012176D01*
X005525Y011641D01*
X004990Y011641D01*
X004990Y011525D02*
X004990Y011146D01*
X005002Y011100D01*
X005026Y011059D01*
X005059Y011026D01*
X005100Y011002D01*
X005146Y010990D01*
X005525Y010990D01*
X005525Y011525D01*
X004990Y011525D01*
X004990Y011459D02*
X002583Y011459D01*
X002583Y011301D02*
X004990Y011301D01*
X004991Y011142D02*
X002583Y011142D01*
X002583Y011935D02*
X004990Y011935D01*
X005018Y012093D02*
X002583Y012093D01*
X002583Y012252D02*
X003758Y012252D01*
X003783Y012245D02*
X004076Y012245D01*
X004358Y012320D01*
X004611Y012467D01*
X004818Y012673D01*
X004964Y012926D01*
X005039Y013209D01*
X005039Y013501D01*
X004964Y013783D01*
X004818Y014036D01*
X004611Y014243D01*
X004358Y014389D01*
X004076Y014465D01*
X003783Y014465D01*
X003501Y014389D01*
X003248Y014243D01*
X003041Y014036D01*
X002895Y013783D01*
X002820Y013501D01*
X002820Y013209D01*
X002895Y012926D01*
X003041Y012673D01*
X003248Y012467D01*
X003501Y012320D01*
X003783Y012245D01*
X004101Y012252D02*
X006656Y012252D01*
X006565Y012093D02*
X006149Y012093D01*
X006176Y011935D02*
X006517Y011935D01*
X006765Y012410D02*
X004513Y012410D01*
X004713Y012569D02*
X006924Y012569D01*
X007170Y012727D02*
X004849Y012727D01*
X004940Y012886D02*
X008358Y012886D01*
X008358Y013028D02*
X008785Y013028D01*
X008785Y013416D01*
X008514Y013416D01*
X008468Y013404D01*
X008427Y013380D01*
X008394Y013347D01*
X008370Y013306D01*
X008358Y013260D01*
X008358Y013028D01*
X008358Y013044D02*
X004995Y013044D01*
X005038Y013203D02*
X008358Y013203D01*
X008408Y013361D02*
X005039Y013361D01*
X005034Y013520D02*
X010984Y013520D01*
X010826Y013678D02*
X004992Y013678D01*
X004933Y013837D02*
X010667Y013837D01*
X010509Y013995D02*
X004841Y013995D01*
X004700Y014154D02*
X010350Y014154D01*
X010192Y014312D02*
X004491Y014312D01*
X003368Y014312D02*
X002583Y014312D01*
X002583Y014154D02*
X003159Y014154D01*
X003018Y013995D02*
X002583Y013995D01*
X002583Y013837D02*
X002926Y013837D01*
X002867Y013678D02*
X002583Y013678D01*
X002583Y013520D02*
X002825Y013520D01*
X002820Y013361D02*
X002583Y013361D01*
X002583Y013203D02*
X002821Y013203D01*
X002864Y013044D02*
X002583Y013044D01*
X002583Y012886D02*
X002919Y012886D01*
X003010Y012727D02*
X002583Y012727D01*
X002583Y012569D02*
X003146Y012569D01*
X003346Y012410D02*
X002583Y012410D01*
X004394Y010825D02*
X006708Y010825D01*
X006855Y010667D02*
X004644Y010667D01*
X004803Y010508D02*
X007050Y010508D01*
X007406Y010350D02*
X004900Y010350D01*
X004977Y010191D02*
X008358Y010191D01*
X008358Y010200D02*
X008358Y009969D01*
X008370Y009923D01*
X008394Y009882D01*
X008427Y009848D01*
X008468Y009825D01*
X008514Y009813D01*
X008785Y009813D01*
X008785Y010200D01*
X008358Y010200D01*
X008358Y010033D02*
X005019Y010033D01*
X005039Y009874D02*
X008402Y009874D01*
X008785Y009874D02*
X008881Y009874D01*
X008881Y010033D02*
X008785Y010033D01*
X008785Y010191D02*
X008881Y010191D01*
X009308Y010191D02*
X009795Y010191D01*
X009795Y010200D02*
X009795Y009969D01*
X009808Y009923D01*
X009831Y009882D01*
X009865Y009848D01*
X009906Y009825D01*
X009952Y009813D01*
X010223Y009813D01*
X010223Y010200D01*
X009795Y010200D01*
X009795Y010033D02*
X009308Y010033D01*
X009264Y009874D02*
X009839Y009874D01*
X010223Y009874D02*
X010319Y009874D01*
X010319Y009813D02*
X010590Y009813D01*
X010635Y009825D01*
X010676Y009848D01*
X010710Y009882D01*
X010734Y009923D01*
X010746Y009969D01*
X010746Y010200D01*
X010319Y010200D01*
X010319Y009813D01*
X010319Y010033D02*
X010223Y010033D01*
X010223Y010191D02*
X010319Y010191D01*
X010746Y010191D02*
X011828Y010191D01*
X011759Y010033D02*
X010746Y010033D01*
X010702Y009874D02*
X011730Y009874D01*
X011730Y009716D02*
X005039Y009716D01*
X005010Y009557D02*
X011730Y009557D01*
X011753Y009399D02*
X004968Y009399D01*
X004881Y009240D02*
X011930Y009240D01*
X012486Y009240D02*
X029277Y009240D01*
X029435Y009082D02*
X004769Y009082D01*
X004611Y008923D02*
X007558Y008923D01*
X007289Y008765D02*
X004311Y008765D01*
X002583Y008606D02*
X007131Y008606D01*
X007009Y008448D02*
X002583Y008448D01*
X002583Y006704D02*
X002822Y006704D01*
X002847Y006546D02*
X002583Y006546D01*
X002583Y006387D02*
X002891Y006387D01*
X002961Y006229D02*
X002583Y006229D01*
X002583Y006070D02*
X003056Y006070D01*
X003186Y005912D02*
X002583Y005912D01*
X002583Y005753D02*
X003368Y005753D01*
X003660Y005595D02*
X002583Y005595D01*
X002583Y005436D02*
X007490Y005436D01*
X007490Y005525D02*
X007490Y005146D01*
X007502Y005100D01*
X007526Y005059D01*
X007559Y005026D01*
X007600Y005002D01*
X007646Y004990D01*
X008025Y004990D01*
X008025Y005525D01*
X008141Y005525D01*
X008141Y004990D01*
X008520Y004990D01*
X008566Y005002D01*
X008607Y005026D01*
X008640Y005059D01*
X008664Y005100D01*
X008676Y005146D01*
X008676Y005525D01*
X008141Y005525D01*
X008141Y005641D01*
X008676Y005641D01*
X008676Y006020D01*
X008664Y006066D01*
X008640Y006107D01*
X008607Y006140D01*
X008566Y006164D01*
X008520Y006176D01*
X008141Y006176D01*
X008141Y005641D01*
X008025Y005641D01*
X008025Y005525D01*
X007490Y005525D01*
X007490Y005641D02*
X008025Y005641D01*
X008025Y006176D01*
X007646Y006176D01*
X007600Y006164D01*
X007559Y006140D01*
X007526Y006107D01*
X007502Y006066D01*
X007490Y006020D01*
X007490Y005641D01*
X007490Y005753D02*
X004923Y005753D01*
X005105Y005912D02*
X007490Y005912D01*
X007504Y006070D02*
X005235Y006070D01*
X005331Y006229D02*
X011483Y006229D01*
X011483Y006286D02*
X011483Y006054D01*
X011495Y006009D01*
X011519Y005968D01*
X011552Y005934D01*
X011593Y005910D01*
X011639Y005898D01*
X011910Y005898D01*
X011910Y006286D01*
X011483Y006286D01*
X011483Y006387D02*
X005400Y006387D01*
X005444Y006546D02*
X007627Y006546D01*
X007332Y006704D02*
X005469Y006704D01*
X004226Y006704D02*
X004066Y006704D01*
X004066Y006546D02*
X004226Y006546D01*
X004226Y006387D02*
X004066Y006387D01*
X004066Y006229D02*
X004226Y006229D01*
X004226Y006070D02*
X004066Y006070D01*
X004066Y005912D02*
X004226Y005912D01*
X004226Y005753D02*
X004066Y005753D01*
X004066Y005595D02*
X004226Y005595D01*
X004631Y005595D02*
X008025Y005595D01*
X008141Y005595D02*
X015025Y005595D01*
X015025Y005641D02*
X015025Y005525D01*
X015141Y005525D01*
X015141Y004990D01*
X015520Y004990D01*
X015566Y005002D01*
X015607Y005026D01*
X015640Y005059D01*
X015664Y005100D01*
X015676Y005146D01*
X015676Y005525D01*
X015141Y005525D01*
X015141Y005641D01*
X015676Y005641D01*
X015676Y006020D01*
X015664Y006066D01*
X015640Y006107D01*
X015607Y006140D01*
X015566Y006164D01*
X015520Y006176D01*
X015141Y006176D01*
X015141Y005641D01*
X015025Y005641D01*
X014490Y005641D01*
X014490Y006020D01*
X014502Y006066D01*
X014526Y006107D01*
X014559Y006140D01*
X014600Y006164D01*
X014646Y006176D01*
X015025Y006176D01*
X015025Y005641D01*
X015025Y005753D02*
X015141Y005753D01*
X015141Y005595D02*
X022025Y005595D01*
X022025Y005641D02*
X022025Y005525D01*
X022141Y005525D01*
X022141Y004990D01*
X022520Y004990D01*
X022566Y005002D01*
X022607Y005026D01*
X022640Y005059D01*
X022664Y005100D01*
X022676Y005146D01*
X022676Y005525D01*
X022141Y005525D01*
X022141Y005641D01*
X022676Y005641D01*
X022676Y006020D01*
X022664Y006066D01*
X022640Y006107D01*
X022607Y006140D01*
X022566Y006164D01*
X022520Y006176D01*
X022141Y006176D01*
X022141Y005641D01*
X022025Y005641D01*
X021490Y005641D01*
X021490Y006020D01*
X021502Y006066D01*
X021526Y006107D01*
X021559Y006140D01*
X021600Y006164D01*
X021646Y006176D01*
X022025Y006176D01*
X022025Y005641D01*
X022025Y005753D02*
X022141Y005753D01*
X022141Y005595D02*
X029025Y005595D01*
X029025Y005641D02*
X029025Y005525D01*
X029141Y005525D01*
X029141Y004990D01*
X029520Y004990D01*
X029566Y005002D01*
X029607Y005026D01*
X029640Y005059D01*
X029664Y005100D01*
X029676Y005146D01*
X029676Y005525D01*
X029141Y005525D01*
X029141Y005641D01*
X029676Y005641D01*
X029676Y006020D01*
X029664Y006066D01*
X029640Y006107D01*
X029607Y006140D01*
X029566Y006164D01*
X029520Y006176D01*
X029141Y006176D01*
X029141Y005641D01*
X029025Y005641D01*
X028490Y005641D01*
X028490Y006020D01*
X028502Y006066D01*
X028526Y006107D01*
X028559Y006140D01*
X028600Y006164D01*
X028646Y006176D01*
X029025Y006176D01*
X029025Y005641D01*
X029025Y005753D02*
X029141Y005753D01*
X029141Y005595D02*
X036025Y005595D01*
X036025Y005641D02*
X036025Y005525D01*
X036141Y005525D01*
X036141Y004990D01*
X036520Y004990D01*
X036566Y005002D01*
X036607Y005026D01*
X036640Y005059D01*
X036664Y005100D01*
X036676Y005146D01*
X036676Y005525D01*
X036141Y005525D01*
X036141Y005641D01*
X036676Y005641D01*
X036676Y006020D01*
X036664Y006066D01*
X036640Y006107D01*
X036607Y006140D01*
X036566Y006164D01*
X036520Y006176D01*
X036141Y006176D01*
X036141Y005641D01*
X036025Y005641D01*
X035490Y005641D01*
X035490Y006020D01*
X035502Y006066D01*
X035526Y006107D01*
X035559Y006140D01*
X035600Y006164D01*
X035646Y006176D01*
X036025Y006176D01*
X036025Y005641D01*
X036025Y005753D02*
X036141Y005753D01*
X036141Y005595D02*
X039856Y005595D01*
X039856Y005753D02*
X036676Y005753D01*
X036676Y005912D02*
X039857Y005912D01*
X039857Y006070D02*
X036662Y006070D01*
X036540Y006546D02*
X039858Y006546D01*
X039858Y006704D02*
X036834Y006704D01*
X037007Y006863D02*
X039859Y006863D01*
X039859Y007021D02*
X037141Y007021D01*
X037233Y007180D02*
X039860Y007180D01*
X039860Y007338D02*
X037298Y007338D01*
X037341Y007497D02*
X039860Y007497D01*
X039861Y007655D02*
X037363Y007655D01*
X037363Y007814D02*
X039861Y007814D01*
X039861Y007972D02*
X039203Y007972D01*
X039165Y007950D02*
X039418Y008096D01*
X039625Y008303D01*
X039771Y008556D01*
X039847Y008839D01*
X039847Y009131D01*
X039771Y009413D01*
X039625Y009666D01*
X039418Y009873D01*
X039165Y010019D01*
X038883Y010095D01*
X038590Y010095D01*
X038308Y010019D01*
X038055Y009873D01*
X037848Y009666D01*
X037702Y009413D01*
X037627Y009131D01*
X037627Y008839D01*
X037702Y008556D01*
X037848Y008303D01*
X038055Y008096D01*
X038308Y007950D01*
X038590Y007875D01*
X038883Y007875D01*
X039165Y007950D01*
X039452Y008131D02*
X039862Y008131D01*
X039862Y008289D02*
X039611Y008289D01*
X039708Y008448D02*
X039862Y008448D01*
X039863Y008606D02*
X039784Y008606D01*
X039827Y008765D02*
X039863Y008765D01*
X039847Y008923D02*
X039864Y008923D01*
X039847Y009082D02*
X039864Y009082D01*
X039864Y009240D02*
X039817Y009240D01*
X039775Y009399D02*
X039865Y009399D01*
X039865Y009557D02*
X039688Y009557D01*
X039575Y009716D02*
X039865Y009716D01*
X039866Y009874D02*
X039416Y009874D01*
X039114Y010033D02*
X039866Y010033D01*
X039866Y010191D02*
X037593Y010191D01*
X037607Y010199D02*
X037640Y010232D01*
X037664Y010273D01*
X037676Y010319D01*
X037676Y010699D01*
X037141Y010699D01*
X037141Y010814D01*
X037676Y010814D01*
X037676Y011193D01*
X037664Y011239D01*
X037640Y011280D01*
X037607Y011314D01*
X037566Y011337D01*
X037520Y011350D01*
X037141Y011350D01*
X037141Y010814D01*
X037025Y010814D01*
X037025Y010699D01*
X036490Y010699D01*
X036490Y010319D01*
X036502Y010273D01*
X036526Y010232D01*
X036559Y010199D01*
X036600Y010175D01*
X036646Y010163D01*
X037025Y010163D01*
X037025Y010698D01*
X037141Y010698D01*
X037141Y010163D01*
X037520Y010163D01*
X037566Y010175D01*
X037607Y010199D01*
X037676Y010350D02*
X039867Y010350D01*
X039867Y010508D02*
X037676Y010508D01*
X037676Y010667D02*
X039868Y010667D01*
X039868Y010825D02*
X037676Y010825D01*
X037676Y010984D02*
X039868Y010984D01*
X039869Y011142D02*
X037676Y011142D01*
X037620Y011301D02*
X039869Y011301D01*
X039869Y011459D02*
X036198Y011459D01*
X036198Y011301D02*
X036546Y011301D01*
X036559Y011314D02*
X036526Y011280D01*
X036502Y011239D01*
X036490Y011193D01*
X036490Y010814D01*
X037025Y010814D01*
X037025Y011350D01*
X036646Y011350D01*
X036600Y011337D01*
X036559Y011314D01*
X036490Y011142D02*
X036198Y011142D01*
X036198Y010984D02*
X036490Y010984D01*
X036490Y010825D02*
X036198Y010825D01*
X036198Y010667D02*
X036490Y010667D01*
X036490Y010508D02*
X036198Y010508D01*
X036198Y010350D02*
X036490Y010350D01*
X036573Y010191D02*
X036198Y010191D01*
X036198Y010033D02*
X038359Y010033D01*
X038057Y009874D02*
X036198Y009874D01*
X036198Y009716D02*
X037898Y009716D01*
X037785Y009557D02*
X036198Y009557D01*
X036198Y009399D02*
X037698Y009399D01*
X037656Y009240D02*
X036198Y009240D01*
X036198Y009082D02*
X037627Y009082D01*
X037627Y008923D02*
X036609Y008923D01*
X036877Y008765D02*
X037647Y008765D01*
X037689Y008606D02*
X037036Y008606D01*
X037157Y008448D02*
X037765Y008448D01*
X037863Y008289D02*
X037249Y008289D01*
X037306Y008131D02*
X038021Y008131D01*
X038271Y007972D02*
X037348Y007972D01*
X036141Y006070D02*
X036025Y006070D01*
X036025Y005912D02*
X036141Y005912D01*
X036025Y005525D02*
X035490Y005525D01*
X035490Y005146D01*
X035502Y005100D01*
X035526Y005059D01*
X035559Y005026D01*
X035600Y005002D01*
X035646Y004990D01*
X036025Y004990D01*
X036025Y005525D01*
X036025Y005436D02*
X036141Y005436D01*
X036141Y005278D02*
X036025Y005278D01*
X036025Y005119D02*
X036141Y005119D01*
X036669Y005119D02*
X039855Y005119D01*
X039854Y004961D02*
X038289Y004961D01*
X038283Y004964D02*
X038001Y005039D01*
X037709Y005039D01*
X037426Y004964D01*
X037173Y004818D01*
X036967Y004611D01*
X036820Y004358D01*
X036745Y004076D01*
X036745Y003783D01*
X036820Y003501D01*
X036967Y003248D01*
X037173Y003041D01*
X037426Y002895D01*
X037709Y002820D01*
X038001Y002820D01*
X038283Y002895D01*
X038536Y003041D01*
X038743Y003248D01*
X038889Y003501D01*
X038965Y003783D01*
X038965Y004076D01*
X038889Y004358D01*
X038743Y004611D01*
X038536Y004818D01*
X038283Y004964D01*
X038552Y004802D02*
X039854Y004802D01*
X039854Y004644D02*
X038710Y004644D01*
X038816Y004485D02*
X039853Y004485D01*
X039853Y004327D02*
X038897Y004327D01*
X038940Y004168D02*
X039853Y004168D01*
X039852Y004010D02*
X038965Y004010D01*
X038965Y003851D02*
X039852Y003851D01*
X039852Y003693D02*
X038940Y003693D01*
X038898Y003534D02*
X039851Y003534D01*
X039851Y003376D02*
X038817Y003376D01*
X038712Y003217D02*
X039850Y003217D01*
X039850Y003059D02*
X038553Y003059D01*
X038291Y002900D02*
X039850Y002900D01*
X039849Y002742D02*
X007268Y002742D01*
X006993Y003041D02*
X007200Y003248D01*
X007346Y003501D01*
X007421Y003783D01*
X007421Y004076D01*
X007346Y004358D01*
X007200Y004611D01*
X006993Y004818D01*
X006740Y004964D01*
X006458Y005039D01*
X006165Y005039D01*
X005883Y004964D01*
X005630Y004818D01*
X005423Y004611D01*
X005277Y004358D01*
X005201Y004076D01*
X005201Y003783D01*
X005277Y003501D01*
X005423Y003248D01*
X005630Y003041D01*
X005883Y002895D01*
X006165Y002820D01*
X006458Y002820D01*
X006740Y002895D01*
X006993Y003041D01*
X007010Y003059D02*
X009156Y003059D01*
X009173Y003041D02*
X009426Y002895D01*
X009709Y002820D01*
X010001Y002820D01*
X010283Y002895D01*
X010536Y003041D01*
X010743Y003248D01*
X010889Y003501D01*
X010965Y003783D01*
X010965Y004076D01*
X010889Y004358D01*
X010743Y004611D01*
X010536Y004818D01*
X010283Y004964D01*
X010001Y005039D01*
X009709Y005039D01*
X009426Y004964D01*
X009173Y004818D01*
X008967Y004611D01*
X008820Y004358D01*
X008745Y004076D01*
X008745Y003783D01*
X008820Y003501D01*
X008967Y003248D01*
X009173Y003041D01*
X008998Y003217D02*
X007169Y003217D01*
X007273Y003376D02*
X008893Y003376D01*
X008812Y003534D02*
X007355Y003534D01*
X007397Y003693D02*
X008769Y003693D01*
X008745Y003851D02*
X007421Y003851D01*
X007421Y004010D02*
X008745Y004010D01*
X008770Y004168D02*
X007397Y004168D01*
X007354Y004327D02*
X008812Y004327D01*
X008894Y004485D02*
X007272Y004485D01*
X007167Y004644D02*
X008999Y004644D01*
X009158Y004802D02*
X007009Y004802D01*
X006745Y004961D02*
X009421Y004961D01*
X008669Y005119D02*
X014497Y005119D01*
X014502Y005100D02*
X014526Y005059D01*
X014559Y005026D01*
X014600Y005002D01*
X014646Y004990D01*
X015025Y004990D01*
X015025Y005525D01*
X014490Y005525D01*
X014490Y005146D01*
X014502Y005100D01*
X014490Y005278D02*
X008676Y005278D01*
X008676Y005436D02*
X014490Y005436D01*
X014490Y005753D02*
X008676Y005753D01*
X008676Y005912D02*
X011591Y005912D01*
X011483Y006070D02*
X008662Y006070D01*
X008141Y006070D02*
X008025Y006070D01*
X008025Y005912D02*
X008141Y005912D01*
X008141Y005753D02*
X008025Y005753D01*
X008025Y005436D02*
X008141Y005436D01*
X008141Y005278D02*
X008025Y005278D01*
X008025Y005119D02*
X008141Y005119D01*
X007497Y005119D02*
X002583Y005119D01*
X002583Y004961D02*
X005877Y004961D01*
X005614Y004802D02*
X002583Y004802D01*
X002583Y004644D02*
X005456Y004644D01*
X005351Y004485D02*
X002583Y004485D01*
X002583Y004327D02*
X002901Y004327D01*
X002955Y004381D02*
X002598Y004023D01*
X002598Y003518D01*
X002955Y003161D01*
X003461Y003161D01*
X003779Y003479D01*
X003997Y003261D01*
X004208Y003261D01*
X004208Y003771D01*
X004208Y004281D01*
X003997Y004281D01*
X003779Y004063D01*
X003461Y004381D01*
X002955Y004381D01*
X002743Y004168D02*
X002583Y004168D01*
X002583Y004010D02*
X002598Y004010D01*
X002583Y003851D02*
X002598Y003851D01*
X002583Y003693D02*
X002598Y003693D01*
X002583Y003534D02*
X002598Y003534D01*
X002583Y003376D02*
X002740Y003376D01*
X002583Y003217D02*
X002899Y003217D01*
X002583Y003059D02*
X005613Y003059D01*
X005454Y003217D02*
X003517Y003217D01*
X003676Y003376D02*
X003882Y003376D01*
X004208Y003376D02*
X004208Y003376D01*
X004208Y003261D02*
X004419Y003261D01*
X004718Y003559D01*
X004718Y003771D01*
X004718Y003982D01*
X004419Y004281D01*
X004208Y004281D01*
X004208Y003771D01*
X004208Y003771D01*
X004718Y003771D01*
X004208Y003771D01*
X004208Y003771D01*
X004208Y003771D01*
X004208Y003261D01*
X004208Y003534D02*
X004208Y003534D01*
X004208Y003693D02*
X004208Y003693D01*
X004208Y003851D02*
X004208Y003851D01*
X004208Y004010D02*
X004208Y004010D01*
X004208Y004168D02*
X004208Y004168D01*
X003884Y004168D02*
X003673Y004168D01*
X003515Y004327D02*
X005269Y004327D01*
X005226Y004168D02*
X004532Y004168D01*
X004690Y004010D02*
X005201Y004010D01*
X005201Y003851D02*
X004718Y003851D01*
X004718Y003693D02*
X005226Y003693D01*
X005268Y003534D02*
X004693Y003534D01*
X004534Y003376D02*
X005350Y003376D01*
X005875Y002900D02*
X002583Y002900D01*
X002583Y002749D02*
X039849Y002689D01*
X039910Y029037D01*
X011697Y029083D01*
X002583Y029083D01*
X002583Y002749D01*
X002583Y005278D02*
X007490Y005278D01*
X006748Y002900D02*
X009418Y002900D01*
X010291Y002900D02*
X012875Y002900D01*
X012883Y002895D02*
X013165Y002820D01*
X013458Y002820D01*
X013740Y002895D01*
X013993Y003041D01*
X014200Y003248D01*
X014346Y003501D01*
X014421Y003783D01*
X014421Y004076D01*
X014346Y004358D01*
X014200Y004611D01*
X013993Y004818D01*
X013740Y004964D01*
X013458Y005039D01*
X013165Y005039D01*
X012883Y004964D01*
X012630Y004818D01*
X012423Y004611D01*
X012277Y004358D01*
X012201Y004076D01*
X012201Y003783D01*
X012277Y003501D01*
X012423Y003248D01*
X012630Y003041D01*
X012883Y002895D01*
X012613Y003059D02*
X010553Y003059D01*
X010712Y003217D02*
X012454Y003217D01*
X012350Y003376D02*
X010817Y003376D01*
X010898Y003534D02*
X012268Y003534D01*
X012226Y003693D02*
X010940Y003693D01*
X010965Y003851D02*
X012201Y003851D01*
X012201Y004010D02*
X010965Y004010D01*
X010940Y004168D02*
X012226Y004168D01*
X012269Y004327D02*
X010897Y004327D01*
X010816Y004485D02*
X012351Y004485D01*
X012456Y004644D02*
X010710Y004644D01*
X010552Y004802D02*
X012614Y004802D01*
X012877Y004961D02*
X010289Y004961D01*
X011910Y005912D02*
X012006Y005912D01*
X012006Y006070D02*
X011910Y006070D01*
X011910Y006229D02*
X012006Y006229D01*
X012433Y006229D02*
X018660Y006229D01*
X018660Y006161D02*
X018233Y006161D01*
X018233Y005929D01*
X018245Y005884D01*
X018269Y005843D01*
X018302Y005809D01*
X018343Y005785D01*
X018389Y005773D01*
X018660Y005773D01*
X018660Y006161D01*
X018660Y006070D02*
X018756Y006070D01*
X018756Y005912D02*
X018660Y005912D01*
X018756Y006229D02*
X025660Y006229D01*
X025660Y006161D02*
X025233Y006161D01*
X025233Y005929D01*
X025245Y005884D01*
X025269Y005843D01*
X025302Y005809D01*
X025343Y005785D01*
X025389Y005773D01*
X025660Y005773D01*
X025660Y006161D01*
X025660Y006070D02*
X025756Y006070D01*
X025756Y005912D02*
X025660Y005912D01*
X025756Y006229D02*
X032358Y006229D01*
X032358Y006286D02*
X032358Y006054D01*
X032370Y006009D01*
X032394Y005968D01*
X032427Y005934D01*
X032468Y005910D01*
X032514Y005898D01*
X032785Y005898D01*
X032785Y006286D01*
X032358Y006286D01*
X032358Y006387D02*
X026183Y006387D01*
X026183Y006070D02*
X028504Y006070D01*
X028490Y005912D02*
X026179Y005912D01*
X025238Y005912D02*
X022676Y005912D01*
X022662Y006070D02*
X025233Y006070D01*
X025233Y006387D02*
X019183Y006387D01*
X019183Y006070D02*
X021504Y006070D01*
X021490Y005912D02*
X019179Y005912D01*
X018238Y005912D02*
X015676Y005912D01*
X015662Y006070D02*
X018233Y006070D01*
X018233Y006387D02*
X012433Y006387D01*
X012433Y006070D02*
X014504Y006070D01*
X014490Y005912D02*
X012325Y005912D01*
X013745Y004961D02*
X016421Y004961D01*
X016426Y004964D02*
X016173Y004818D01*
X015967Y004611D01*
X015820Y004358D01*
X015745Y004076D01*
X015745Y003783D01*
X015820Y003501D01*
X015967Y003248D01*
X016173Y003041D01*
X016426Y002895D01*
X016709Y002820D01*
X017001Y002820D01*
X017283Y002895D01*
X017536Y003041D01*
X017743Y003248D01*
X017889Y003501D01*
X017965Y003783D01*
X017965Y004076D01*
X017889Y004358D01*
X017743Y004611D01*
X017536Y004818D01*
X017283Y004964D01*
X017001Y005039D01*
X016709Y005039D01*
X016426Y004964D01*
X016158Y004802D02*
X014009Y004802D01*
X014167Y004644D02*
X015999Y004644D01*
X015894Y004485D02*
X014272Y004485D01*
X014354Y004327D02*
X015812Y004327D01*
X015770Y004168D02*
X014397Y004168D01*
X014421Y004010D02*
X015745Y004010D01*
X015745Y003851D02*
X014421Y003851D01*
X014397Y003693D02*
X015769Y003693D01*
X015812Y003534D02*
X014355Y003534D01*
X014273Y003376D02*
X015893Y003376D01*
X015998Y003217D02*
X014169Y003217D01*
X014010Y003059D02*
X016156Y003059D01*
X016418Y002900D02*
X013748Y002900D01*
X015025Y005119D02*
X015141Y005119D01*
X015141Y005278D02*
X015025Y005278D01*
X015025Y005436D02*
X015141Y005436D01*
X015141Y005912D02*
X015025Y005912D01*
X015025Y006070D02*
X015141Y006070D01*
X015676Y005753D02*
X021490Y005753D01*
X021490Y005525D02*
X021490Y005146D01*
X021502Y005100D01*
X021526Y005059D01*
X021559Y005026D01*
X021600Y005002D01*
X021646Y004990D01*
X022025Y004990D01*
X022025Y005525D01*
X021490Y005525D01*
X021490Y005436D02*
X015676Y005436D01*
X015676Y005278D02*
X021490Y005278D01*
X021497Y005119D02*
X015669Y005119D01*
X017289Y004961D02*
X019877Y004961D01*
X019883Y004964D02*
X019630Y004818D01*
X019423Y004611D01*
X019277Y004358D01*
X019201Y004076D01*
X019201Y003783D01*
X019277Y003501D01*
X019423Y003248D01*
X019630Y003041D01*
X019883Y002895D01*
X020165Y002820D01*
X020458Y002820D01*
X020740Y002895D01*
X020993Y003041D01*
X021200Y003248D01*
X021346Y003501D01*
X021421Y003783D01*
X021421Y004076D01*
X021346Y004358D01*
X021200Y004611D01*
X020993Y004818D01*
X020740Y004964D01*
X020458Y005039D01*
X020165Y005039D01*
X019883Y004964D01*
X019614Y004802D02*
X017552Y004802D01*
X017710Y004644D02*
X019456Y004644D01*
X019351Y004485D02*
X017816Y004485D01*
X017897Y004327D02*
X019269Y004327D01*
X019226Y004168D02*
X017940Y004168D01*
X017965Y004010D02*
X019201Y004010D01*
X019201Y003851D02*
X017965Y003851D01*
X017940Y003693D02*
X019226Y003693D01*
X019268Y003534D02*
X017898Y003534D01*
X017817Y003376D02*
X019350Y003376D01*
X019454Y003217D02*
X017712Y003217D01*
X017553Y003059D02*
X019613Y003059D01*
X019875Y002900D02*
X017291Y002900D01*
X020748Y002900D02*
X023418Y002900D01*
X023426Y002895D02*
X023709Y002820D01*
X024001Y002820D01*
X024283Y002895D01*
X024536Y003041D01*
X024743Y003248D01*
X024889Y003501D01*
X024965Y003783D01*
X024965Y004076D01*
X024889Y004358D01*
X024743Y004611D01*
X024536Y004818D01*
X024283Y004964D01*
X024001Y005039D01*
X023709Y005039D01*
X023426Y004964D01*
X023173Y004818D01*
X022967Y004611D01*
X022820Y004358D01*
X022745Y004076D01*
X022745Y003783D01*
X022820Y003501D01*
X022967Y003248D01*
X023173Y003041D01*
X023426Y002895D01*
X023156Y003059D02*
X021010Y003059D01*
X021169Y003217D02*
X022998Y003217D01*
X022893Y003376D02*
X021273Y003376D01*
X021355Y003534D02*
X022812Y003534D01*
X022769Y003693D02*
X021397Y003693D01*
X021421Y003851D02*
X022745Y003851D01*
X022745Y004010D02*
X021421Y004010D01*
X021397Y004168D02*
X022770Y004168D01*
X022812Y004327D02*
X021354Y004327D01*
X021272Y004485D02*
X022894Y004485D01*
X022999Y004644D02*
X021167Y004644D01*
X021009Y004802D02*
X023158Y004802D01*
X023421Y004961D02*
X020745Y004961D01*
X022025Y005119D02*
X022141Y005119D01*
X022141Y005278D02*
X022025Y005278D01*
X022025Y005436D02*
X022141Y005436D01*
X022141Y005912D02*
X022025Y005912D01*
X022025Y006070D02*
X022141Y006070D01*
X022676Y005753D02*
X028490Y005753D01*
X028490Y005525D02*
X028490Y005146D01*
X028502Y005100D01*
X028526Y005059D01*
X028559Y005026D01*
X028600Y005002D01*
X028646Y004990D01*
X029025Y004990D01*
X029025Y005525D01*
X028490Y005525D01*
X028490Y005436D02*
X022676Y005436D01*
X022676Y005278D02*
X028490Y005278D01*
X028497Y005119D02*
X022669Y005119D01*
X024289Y004961D02*
X026877Y004961D01*
X026883Y004964D02*
X026630Y004818D01*
X026423Y004611D01*
X026277Y004358D01*
X026201Y004076D01*
X026201Y003783D01*
X026277Y003501D01*
X026423Y003248D01*
X026630Y003041D01*
X026883Y002895D01*
X027165Y002820D01*
X027458Y002820D01*
X027740Y002895D01*
X027993Y003041D01*
X028200Y003248D01*
X028346Y003501D01*
X028421Y003783D01*
X028421Y004076D01*
X028346Y004358D01*
X028200Y004611D01*
X027993Y004818D01*
X027740Y004964D01*
X027458Y005039D01*
X027165Y005039D01*
X026883Y004964D01*
X026614Y004802D02*
X024552Y004802D01*
X024710Y004644D02*
X026456Y004644D01*
X026351Y004485D02*
X024816Y004485D01*
X024897Y004327D02*
X026269Y004327D01*
X026226Y004168D02*
X024940Y004168D01*
X024965Y004010D02*
X026201Y004010D01*
X026201Y003851D02*
X024965Y003851D01*
X024940Y003693D02*
X026226Y003693D01*
X026268Y003534D02*
X024898Y003534D01*
X024817Y003376D02*
X026350Y003376D01*
X026454Y003217D02*
X024712Y003217D01*
X024553Y003059D02*
X026613Y003059D01*
X026875Y002900D02*
X024291Y002900D01*
X027748Y002900D02*
X030418Y002900D01*
X030426Y002895D02*
X030709Y002820D01*
X031001Y002820D01*
X031283Y002895D01*
X031536Y003041D01*
X031743Y003248D01*
X031889Y003501D01*
X031965Y003783D01*
X031965Y004076D01*
X031889Y004358D01*
X031743Y004611D01*
X031536Y004818D01*
X031283Y004964D01*
X031001Y005039D01*
X030709Y005039D01*
X030426Y004964D01*
X030173Y004818D01*
X029967Y004611D01*
X029820Y004358D01*
X029745Y004076D01*
X029745Y003783D01*
X029820Y003501D01*
X029967Y003248D01*
X030173Y003041D01*
X030426Y002895D01*
X030156Y003059D02*
X028010Y003059D01*
X028169Y003217D02*
X029998Y003217D01*
X029893Y003376D02*
X028273Y003376D01*
X028355Y003534D02*
X029812Y003534D01*
X029769Y003693D02*
X028397Y003693D01*
X028421Y003851D02*
X029745Y003851D01*
X029745Y004010D02*
X028421Y004010D01*
X028397Y004168D02*
X029770Y004168D01*
X029812Y004327D02*
X028354Y004327D01*
X028272Y004485D02*
X029894Y004485D01*
X029999Y004644D02*
X028167Y004644D01*
X028009Y004802D02*
X030158Y004802D01*
X030421Y004961D02*
X027745Y004961D01*
X029025Y005119D02*
X029141Y005119D01*
X029141Y005278D02*
X029025Y005278D01*
X029025Y005436D02*
X029141Y005436D01*
X029141Y005912D02*
X029025Y005912D01*
X029025Y006070D02*
X029141Y006070D01*
X029662Y006070D02*
X032358Y006070D01*
X032466Y005912D02*
X029676Y005912D01*
X029676Y005753D02*
X035490Y005753D01*
X035490Y005912D02*
X033200Y005912D01*
X033308Y006070D02*
X035504Y006070D01*
X035490Y005436D02*
X029676Y005436D01*
X029676Y005278D02*
X035490Y005278D01*
X035497Y005119D02*
X029669Y005119D01*
X031289Y004961D02*
X033877Y004961D01*
X033883Y004964D02*
X033630Y004818D01*
X033423Y004611D01*
X033277Y004358D01*
X033201Y004076D01*
X033201Y003783D01*
X033277Y003501D01*
X033423Y003248D01*
X033630Y003041D01*
X033883Y002895D01*
X034165Y002820D01*
X034458Y002820D01*
X034740Y002895D01*
X034993Y003041D01*
X035200Y003248D01*
X035346Y003501D01*
X035421Y003783D01*
X035421Y004076D01*
X035346Y004358D01*
X035200Y004611D01*
X034993Y004818D01*
X034740Y004964D01*
X034458Y005039D01*
X034165Y005039D01*
X033883Y004964D01*
X033614Y004802D02*
X031552Y004802D01*
X031710Y004644D02*
X033456Y004644D01*
X033351Y004485D02*
X031816Y004485D01*
X031897Y004327D02*
X033269Y004327D01*
X033226Y004168D02*
X031940Y004168D01*
X031965Y004010D02*
X033201Y004010D01*
X033201Y003851D02*
X031965Y003851D01*
X031940Y003693D02*
X033226Y003693D01*
X033268Y003534D02*
X031898Y003534D01*
X031817Y003376D02*
X033350Y003376D01*
X033454Y003217D02*
X031712Y003217D01*
X031553Y003059D02*
X033613Y003059D01*
X033875Y002900D02*
X031291Y002900D01*
X034748Y002900D02*
X037418Y002900D01*
X037156Y003059D02*
X035010Y003059D01*
X035169Y003217D02*
X036998Y003217D01*
X036893Y003376D02*
X035273Y003376D01*
X035355Y003534D02*
X036812Y003534D01*
X036769Y003693D02*
X035397Y003693D01*
X035421Y003851D02*
X036745Y003851D01*
X036745Y004010D02*
X035421Y004010D01*
X035397Y004168D02*
X036770Y004168D01*
X036812Y004327D02*
X035354Y004327D01*
X035272Y004485D02*
X036894Y004485D01*
X036999Y004644D02*
X035167Y004644D01*
X035009Y004802D02*
X037158Y004802D01*
X037421Y004961D02*
X034745Y004961D01*
X033308Y006229D02*
X039857Y006229D01*
X039858Y006387D02*
X033308Y006387D01*
X032881Y006229D02*
X032785Y006229D01*
X032785Y006070D02*
X032881Y006070D01*
X032881Y005912D02*
X032785Y005912D01*
X036676Y005436D02*
X039856Y005436D01*
X039855Y005278D02*
X036676Y005278D01*
X033638Y009028D02*
X030053Y009028D01*
X030451Y009426D01*
X030451Y009688D01*
X029791Y009688D01*
X029791Y009728D01*
X030451Y009728D01*
X030451Y009990D01*
X030137Y010303D01*
X032338Y010303D01*
X032338Y010195D01*
X032785Y010195D01*
X032785Y010099D01*
X032338Y010099D01*
X032338Y009867D01*
X032350Y009821D01*
X032374Y009780D01*
X032408Y009747D01*
X032449Y009723D01*
X032494Y009711D01*
X032785Y009711D01*
X032785Y010099D01*
X032881Y010099D01*
X032881Y010195D01*
X033328Y010195D01*
X033328Y010303D01*
X033638Y010303D01*
X033638Y009028D01*
X033638Y009082D02*
X030106Y009082D01*
X030264Y009240D02*
X033638Y009240D01*
X033638Y009399D02*
X030423Y009399D01*
X030451Y009557D02*
X033638Y009557D01*
X033638Y009716D02*
X033190Y009716D01*
X033172Y009711D02*
X033218Y009723D01*
X033259Y009747D01*
X033292Y009780D01*
X033316Y009821D01*
X033328Y009867D01*
X033328Y010099D01*
X032881Y010099D01*
X032881Y009711D01*
X033172Y009711D01*
X033328Y009874D02*
X033638Y009874D01*
X033638Y010033D02*
X033328Y010033D01*
X033638Y010191D02*
X032881Y010191D01*
X032785Y010191D02*
X030249Y010191D01*
X030408Y010033D02*
X032338Y010033D01*
X032338Y009874D02*
X030451Y009874D01*
X029791Y009716D02*
X032476Y009716D01*
X032785Y009716D02*
X032881Y009716D01*
X032881Y009874D02*
X032785Y009874D01*
X032785Y010033D02*
X032881Y010033D01*
X036198Y011618D02*
X039870Y011618D01*
X039870Y011776D02*
X036191Y011776D01*
X036149Y011935D02*
X036500Y011935D01*
X036502Y011927D02*
X036526Y011886D01*
X036559Y011852D01*
X036600Y011829D01*
X036646Y011816D01*
X037025Y011816D01*
X037025Y012352D01*
X036490Y012352D01*
X036490Y011973D01*
X036502Y011927D01*
X036490Y012093D02*
X036158Y012093D01*
X036198Y012252D02*
X036490Y012252D01*
X036490Y012468D02*
X036490Y012847D01*
X036502Y012893D01*
X036526Y012934D01*
X036559Y012967D01*
X036600Y012991D01*
X036646Y013003D01*
X037025Y013003D01*
X037025Y012468D01*
X037141Y012468D01*
X037141Y013003D01*
X037520Y013003D01*
X037566Y012991D01*
X037607Y012967D01*
X037640Y012934D01*
X037664Y012893D01*
X037676Y012847D01*
X037676Y012468D01*
X037141Y012468D01*
X037141Y012352D01*
X037676Y012352D01*
X037676Y011973D01*
X037664Y011927D01*
X037640Y011886D01*
X037607Y011852D01*
X037566Y011829D01*
X037520Y011816D01*
X037141Y011816D01*
X037141Y012352D01*
X037025Y012352D01*
X037025Y012468D01*
X036490Y012468D01*
X036490Y012569D02*
X036198Y012569D01*
X036198Y012727D02*
X036490Y012727D01*
X036500Y012886D02*
X036198Y012886D01*
X036198Y013044D02*
X039873Y013044D01*
X039873Y012886D02*
X037666Y012886D01*
X037676Y012727D02*
X039872Y012727D01*
X039872Y012569D02*
X037676Y012569D01*
X037676Y012252D02*
X039871Y012252D01*
X039871Y012410D02*
X037141Y012410D01*
X037025Y012410D02*
X036198Y012410D01*
X036198Y013203D02*
X038212Y013203D01*
X038308Y013147D02*
X038590Y013072D01*
X038883Y013072D01*
X039165Y013147D01*
X039418Y013293D01*
X039625Y013500D01*
X039771Y013753D01*
X039847Y014035D01*
X039847Y014328D01*
X039771Y014610D01*
X039625Y014863D01*
X039418Y015070D01*
X039165Y015216D01*
X038883Y015291D01*
X038590Y015291D01*
X038308Y015216D01*
X038055Y015070D01*
X037848Y014863D01*
X037702Y014610D01*
X037627Y014328D01*
X037627Y014035D01*
X037702Y013753D01*
X037848Y013500D01*
X038055Y013293D01*
X038308Y013147D01*
X037987Y013361D02*
X036198Y013361D01*
X036198Y013520D02*
X037837Y013520D01*
X037746Y013678D02*
X036198Y013678D01*
X036198Y013837D02*
X037680Y013837D01*
X037637Y013995D02*
X036198Y013995D01*
X036198Y014154D02*
X037627Y014154D01*
X037627Y014312D02*
X036198Y014312D01*
X036198Y014471D02*
X037665Y014471D01*
X037713Y014629D02*
X036198Y014629D01*
X036198Y014788D02*
X037805Y014788D01*
X037932Y014946D02*
X036198Y014946D01*
X036198Y015105D02*
X038116Y015105D01*
X038485Y015263D02*
X036198Y015263D01*
X036198Y015422D02*
X039878Y015422D01*
X039879Y015580D02*
X036198Y015580D01*
X036198Y015739D02*
X039879Y015739D01*
X039879Y015897D02*
X036198Y015897D01*
X036198Y016056D02*
X039880Y016056D01*
X039880Y016214D02*
X036198Y016214D01*
X036198Y016373D02*
X039881Y016373D01*
X039881Y016531D02*
X036198Y016531D01*
X036198Y016690D02*
X039881Y016690D01*
X039882Y016848D02*
X036198Y016848D01*
X036198Y017007D02*
X038211Y017007D01*
X038308Y016950D02*
X038590Y016875D01*
X038883Y016875D01*
X039165Y016950D01*
X039418Y017096D01*
X039625Y017303D01*
X039771Y017556D01*
X039847Y017839D01*
X039847Y018131D01*
X039771Y018413D01*
X039625Y018666D01*
X039418Y018873D01*
X039165Y019019D01*
X038883Y019095D01*
X038590Y019095D01*
X038308Y019019D01*
X038055Y018873D01*
X037848Y018666D01*
X037702Y018413D01*
X037627Y018131D01*
X037627Y017839D01*
X037702Y017556D01*
X037848Y017303D01*
X038055Y017096D01*
X038308Y016950D01*
X037986Y017165D02*
X036198Y017165D01*
X036198Y017324D02*
X037837Y017324D01*
X037745Y017482D02*
X036198Y017482D01*
X036198Y017641D02*
X037680Y017641D01*
X037637Y017799D02*
X036198Y017799D01*
X036198Y017958D02*
X037627Y017958D01*
X037627Y018116D02*
X036198Y018116D01*
X036198Y018275D02*
X037665Y018275D01*
X037714Y018433D02*
X036198Y018433D01*
X036198Y018592D02*
X037805Y018592D01*
X037932Y018750D02*
X036198Y018750D01*
X036198Y018909D02*
X038117Y018909D01*
X038488Y019067D02*
X036198Y019067D01*
X036198Y019226D02*
X036532Y019226D01*
X036526Y019232D02*
X036559Y019199D01*
X036600Y019175D01*
X036646Y019163D01*
X037025Y019163D01*
X037025Y019698D01*
X037141Y019698D01*
X037141Y019163D01*
X037520Y019163D01*
X037566Y019175D01*
X037607Y019199D01*
X037640Y019232D01*
X037664Y019273D01*
X037676Y019319D01*
X037676Y019699D01*
X037141Y019699D01*
X037141Y019814D01*
X037676Y019814D01*
X037676Y020193D01*
X037664Y020239D01*
X037640Y020280D01*
X037607Y020314D01*
X037566Y020337D01*
X037520Y020350D01*
X037141Y020350D01*
X037141Y019814D01*
X037025Y019814D01*
X037025Y019699D01*
X036490Y019699D01*
X036490Y019319D01*
X036502Y019273D01*
X036526Y019232D01*
X036490Y019384D02*
X036198Y019384D01*
X036198Y019543D02*
X036490Y019543D01*
X036490Y019814D02*
X036490Y020193D01*
X036502Y020239D01*
X036526Y020280D01*
X036559Y020314D01*
X036600Y020337D01*
X036646Y020350D01*
X037025Y020350D01*
X037025Y019814D01*
X036490Y019814D01*
X036490Y019860D02*
X036198Y019860D01*
X036198Y020018D02*
X036490Y020018D01*
X036490Y020177D02*
X036198Y020177D01*
X036198Y020335D02*
X036596Y020335D01*
X036198Y020494D02*
X039890Y020494D01*
X039890Y020652D02*
X036198Y020652D01*
X036198Y020811D02*
X039891Y020811D01*
X039891Y020969D02*
X037675Y020969D01*
X037676Y020973D02*
X037676Y021352D01*
X037141Y021352D01*
X037141Y021468D01*
X037025Y021468D01*
X037025Y022003D01*
X036646Y022003D01*
X036600Y021991D01*
X036559Y021967D01*
X036526Y021934D01*
X036502Y021893D01*
X036490Y021847D01*
X036490Y021468D01*
X037025Y021468D01*
X037025Y021352D01*
X036490Y021352D01*
X036490Y020973D01*
X036502Y020927D01*
X036526Y020886D01*
X036559Y020852D01*
X036600Y020829D01*
X036646Y020816D01*
X037025Y020816D01*
X037025Y021352D01*
X037141Y021352D01*
X037141Y020816D01*
X037520Y020816D01*
X037566Y020829D01*
X037607Y020852D01*
X037640Y020886D01*
X037664Y020927D01*
X037676Y020973D01*
X037676Y021128D02*
X039891Y021128D01*
X039892Y021286D02*
X037676Y021286D01*
X037676Y021468D02*
X037676Y021847D01*
X037664Y021893D01*
X037640Y021934D01*
X037607Y021967D01*
X037566Y021991D01*
X037520Y022003D01*
X037141Y022003D01*
X037141Y021468D01*
X037676Y021468D01*
X037676Y021603D02*
X039893Y021603D01*
X039892Y021445D02*
X037141Y021445D01*
X037025Y021445D02*
X036198Y021445D01*
X036198Y021603D02*
X036490Y021603D01*
X036490Y021762D02*
X036198Y021762D01*
X036198Y021920D02*
X036518Y021920D01*
X036198Y022079D02*
X038564Y022079D01*
X038590Y022072D02*
X038883Y022072D01*
X039165Y022147D01*
X039418Y022293D01*
X039625Y022500D01*
X039771Y022753D01*
X039847Y023035D01*
X039847Y023328D01*
X039771Y023610D01*
X039625Y023863D01*
X039418Y024070D01*
X039165Y024216D01*
X038883Y024291D01*
X038590Y024291D01*
X038308Y024216D01*
X038055Y024070D01*
X037848Y023863D01*
X037702Y023610D01*
X037627Y023328D01*
X037627Y023035D01*
X037702Y022753D01*
X037848Y022500D01*
X038055Y022293D01*
X038308Y022147D01*
X038590Y022072D01*
X038909Y022079D02*
X039894Y022079D01*
X039894Y022237D02*
X039321Y022237D01*
X039520Y022396D02*
X039894Y022396D01*
X039895Y022554D02*
X039656Y022554D01*
X039748Y022713D02*
X039895Y022713D01*
X039895Y022871D02*
X039803Y022871D01*
X039845Y023030D02*
X039896Y023030D01*
X039896Y023188D02*
X039847Y023188D01*
X039841Y023347D02*
X039897Y023347D01*
X039897Y023505D02*
X039799Y023505D01*
X039740Y023664D02*
X039897Y023664D01*
X039898Y023822D02*
X039648Y023822D01*
X039507Y023981D02*
X039898Y023981D01*
X039898Y024139D02*
X039298Y024139D01*
X039899Y024298D02*
X037306Y024298D01*
X037349Y024139D02*
X038175Y024139D01*
X037966Y023981D02*
X037363Y023981D01*
X037363Y023822D02*
X037825Y023822D01*
X037733Y023664D02*
X037340Y023664D01*
X037298Y023505D02*
X037674Y023505D01*
X037632Y023347D02*
X037231Y023347D01*
X037140Y023188D02*
X037627Y023188D01*
X037628Y023030D02*
X037005Y023030D01*
X036830Y022871D02*
X037671Y022871D01*
X037726Y022713D02*
X036531Y022713D01*
X036198Y022554D02*
X037817Y022554D01*
X037953Y022396D02*
X036198Y022396D01*
X036198Y022237D02*
X038153Y022237D01*
X037648Y021920D02*
X039893Y021920D01*
X039893Y021762D02*
X037676Y021762D01*
X037141Y021762D02*
X037025Y021762D01*
X037025Y021920D02*
X037141Y021920D01*
X037141Y021603D02*
X037025Y021603D01*
X037025Y021286D02*
X037141Y021286D01*
X037141Y021128D02*
X037025Y021128D01*
X037025Y020969D02*
X037141Y020969D01*
X037141Y020335D02*
X037025Y020335D01*
X037025Y020177D02*
X037141Y020177D01*
X037141Y020018D02*
X037025Y020018D01*
X037025Y019860D02*
X037141Y019860D01*
X037141Y019701D02*
X039888Y019701D01*
X039888Y019543D02*
X037676Y019543D01*
X037676Y019384D02*
X039887Y019384D01*
X039887Y019226D02*
X037634Y019226D01*
X037141Y019226D02*
X037025Y019226D01*
X037025Y019384D02*
X037141Y019384D01*
X037141Y019543D02*
X037025Y019543D01*
X037025Y019701D02*
X036198Y019701D01*
X036198Y020969D02*
X036491Y020969D01*
X036490Y021128D02*
X036198Y021128D01*
X036198Y021286D02*
X036490Y021286D01*
X037570Y020335D02*
X039890Y020335D01*
X039889Y020177D02*
X037676Y020177D01*
X037676Y020018D02*
X039889Y020018D01*
X039889Y019860D02*
X037676Y019860D01*
X038985Y019067D02*
X039887Y019067D01*
X039886Y018909D02*
X039356Y018909D01*
X039541Y018750D02*
X039886Y018750D01*
X039886Y018592D02*
X039668Y018592D01*
X039759Y018433D02*
X039885Y018433D01*
X039885Y018275D02*
X039808Y018275D01*
X039847Y018116D02*
X039885Y018116D01*
X039884Y017958D02*
X039847Y017958D01*
X039836Y017799D02*
X039884Y017799D01*
X039883Y017641D02*
X039793Y017641D01*
X039728Y017482D02*
X039883Y017482D01*
X039883Y017324D02*
X039637Y017324D01*
X039487Y017165D02*
X039882Y017165D01*
X039882Y017007D02*
X039262Y017007D01*
X038988Y015263D02*
X039878Y015263D01*
X039878Y015105D02*
X039358Y015105D01*
X039542Y014946D02*
X039877Y014946D01*
X039877Y014788D02*
X039668Y014788D01*
X039760Y014629D02*
X039877Y014629D01*
X039876Y014471D02*
X039808Y014471D01*
X039847Y014312D02*
X039876Y014312D01*
X039875Y014154D02*
X039847Y014154D01*
X039836Y013995D02*
X039875Y013995D01*
X039875Y013837D02*
X039793Y013837D01*
X039728Y013678D02*
X039874Y013678D01*
X039874Y013520D02*
X039636Y013520D01*
X039486Y013361D02*
X039874Y013361D01*
X039873Y013203D02*
X039261Y013203D01*
X039871Y012093D02*
X037676Y012093D01*
X037666Y011935D02*
X039870Y011935D01*
X037141Y011935D02*
X037025Y011935D01*
X037025Y012093D02*
X037141Y012093D01*
X037141Y012252D02*
X037025Y012252D01*
X037025Y012569D02*
X037141Y012569D01*
X037141Y012727D02*
X037025Y012727D01*
X037025Y012886D02*
X037141Y012886D01*
X037141Y011301D02*
X037025Y011301D01*
X037025Y011142D02*
X037141Y011142D01*
X037141Y010984D02*
X037025Y010984D01*
X037025Y010825D02*
X037141Y010825D01*
X037141Y010667D02*
X037025Y010667D01*
X037025Y010508D02*
X037141Y010508D01*
X037141Y010350D02*
X037025Y010350D01*
X037025Y010191D02*
X037141Y010191D01*
X033589Y012886D02*
X030291Y012886D01*
X030602Y013451D02*
X030711Y013378D01*
X030826Y013317D01*
X030947Y013267D01*
X031072Y013229D01*
X031200Y013203D01*
X031316Y013192D01*
X031316Y014441D01*
X031476Y014441D01*
X031476Y014601D01*
X032724Y014601D01*
X032713Y014716D01*
X032687Y014844D01*
X032649Y014969D01*
X032599Y015090D01*
X032538Y015205D01*
X032465Y015314D01*
X032382Y015415D01*
X032290Y015507D01*
X032189Y015590D01*
X032080Y015663D01*
X031965Y015724D01*
X031844Y015774D01*
X031719Y015812D01*
X031591Y015838D01*
X031476Y015849D01*
X031476Y014601D01*
X031316Y014601D01*
X031316Y015849D01*
X031200Y015838D01*
X031072Y015812D01*
X030947Y015774D01*
X030826Y015724D01*
X030711Y015663D01*
X030602Y015590D01*
X030501Y015507D01*
X030409Y015415D01*
X030326Y015314D01*
X030253Y015205D01*
X030192Y015090D01*
X030142Y014969D01*
X030104Y014844D01*
X030078Y014716D01*
X030067Y014601D01*
X031316Y014601D01*
X031316Y014441D01*
X030067Y014441D01*
X030078Y014325D01*
X030104Y014197D01*
X030142Y014072D01*
X030192Y013951D01*
X030253Y013836D01*
X030326Y013727D01*
X030409Y013626D01*
X030501Y013534D01*
X030602Y013451D01*
X030519Y013520D02*
X017059Y013520D01*
X016900Y013678D02*
X030366Y013678D01*
X030253Y013837D02*
X016742Y013837D01*
X016583Y013995D02*
X030174Y013995D01*
X030117Y014154D02*
X016463Y014154D01*
X016463Y014312D02*
X030081Y014312D01*
X030070Y014629D02*
X016463Y014629D01*
X016463Y014471D02*
X031316Y014471D01*
X031316Y014629D02*
X031476Y014629D01*
X031476Y014471D02*
X033638Y014471D01*
X033638Y014629D02*
X032721Y014629D01*
X032699Y014788D02*
X033638Y014788D01*
X033638Y014946D02*
X032656Y014946D01*
X032591Y015105D02*
X033638Y015105D01*
X033638Y015263D02*
X032499Y015263D01*
X032375Y015422D02*
X033638Y015422D01*
X033638Y015580D02*
X032201Y015580D01*
X031930Y015739D02*
X033638Y015739D01*
X033638Y015897D02*
X016463Y015897D01*
X016463Y015739D02*
X030861Y015739D01*
X030590Y015580D02*
X016463Y015580D01*
X016463Y015422D02*
X030416Y015422D01*
X030292Y015263D02*
X016463Y015263D01*
X016463Y015105D02*
X030200Y015105D01*
X030135Y014946D02*
X016463Y014946D01*
X016463Y014788D02*
X030093Y014788D01*
X031316Y014788D02*
X031476Y014788D01*
X031476Y014946D02*
X031316Y014946D01*
X031316Y015105D02*
X031476Y015105D01*
X031476Y015263D02*
X031316Y015263D01*
X031316Y015422D02*
X031476Y015422D01*
X031476Y015580D02*
X031316Y015580D01*
X031316Y015739D02*
X031476Y015739D01*
X031476Y014441D02*
X032724Y014441D01*
X032713Y014325D01*
X032687Y014197D01*
X032649Y014072D01*
X032599Y013951D01*
X032538Y013836D01*
X032465Y013727D01*
X032382Y013626D01*
X032290Y013534D01*
X032189Y013451D01*
X032080Y013378D01*
X031965Y013317D01*
X031844Y013267D01*
X031719Y013229D01*
X031591Y013203D01*
X031476Y013192D01*
X031476Y014441D01*
X031476Y014312D02*
X031316Y014312D01*
X031316Y014154D02*
X031476Y014154D01*
X031476Y013995D02*
X031316Y013995D01*
X031316Y013837D02*
X031476Y013837D01*
X031476Y013678D02*
X031316Y013678D01*
X031316Y013520D02*
X031476Y013520D01*
X031476Y013361D02*
X031316Y013361D01*
X031316Y013203D02*
X031476Y013203D01*
X031583Y013203D02*
X033638Y013203D01*
X033638Y013361D02*
X032048Y013361D01*
X032272Y013520D02*
X033638Y013520D01*
X033638Y013678D02*
X032425Y013678D01*
X032538Y013837D02*
X033638Y013837D01*
X033638Y013995D02*
X032617Y013995D01*
X032674Y014154D02*
X033638Y014154D01*
X033638Y014312D02*
X032710Y014312D01*
X033631Y013044D02*
X017534Y013044D01*
X017376Y013203D02*
X031208Y013203D01*
X030743Y013361D02*
X017217Y013361D01*
X017693Y012886D02*
X025563Y012886D01*
X025292Y012727D02*
X017851Y012727D01*
X018010Y012569D02*
X025133Y012569D01*
X024975Y012410D02*
X018168Y012410D01*
X018752Y012252D02*
X019284Y012252D01*
X019115Y012093D02*
X018980Y012093D01*
X017867Y011142D02*
X017799Y011142D01*
X017641Y010984D02*
X018025Y010984D01*
X017568Y010825D02*
X019500Y010825D01*
X019204Y010984D02*
X018891Y010984D01*
X018205Y010191D02*
X029292Y010191D01*
X029133Y010033D02*
X018308Y010033D01*
X018311Y009874D02*
X029091Y009874D01*
X029091Y009557D02*
X018311Y009557D01*
X018311Y009716D02*
X029751Y009716D01*
X029118Y009399D02*
X018253Y009399D01*
X017833Y009771D02*
X017208Y010396D01*
X017208Y011583D01*
X016535Y011301D02*
X013458Y011301D01*
X013488Y011459D02*
X016478Y011459D01*
X016478Y011618D02*
X013488Y011618D01*
X013482Y011776D02*
X016498Y011776D01*
X016564Y011935D02*
X013439Y011935D01*
X013392Y012093D02*
X016686Y012093D01*
X016914Y012252D02*
X013300Y012252D01*
X013191Y012410D02*
X017094Y012410D01*
X016935Y012569D02*
X013033Y012569D01*
X012838Y012727D02*
X016777Y012727D01*
X016618Y012886D02*
X012865Y012886D01*
X012936Y013044D02*
X016460Y013044D01*
X016301Y013203D02*
X012936Y013203D01*
X012936Y013361D02*
X016143Y013361D01*
X015984Y013520D02*
X012936Y013520D01*
X012843Y013678D02*
X015826Y013678D01*
X015722Y013837D02*
X011742Y013837D01*
X011583Y013995D02*
X015703Y013995D01*
X015703Y014154D02*
X011425Y014154D01*
X011266Y014312D02*
X015703Y014312D01*
X015703Y014471D02*
X011108Y014471D01*
X010949Y014629D02*
X015703Y014629D01*
X015703Y014788D02*
X010791Y014788D01*
X010632Y014946D02*
X015703Y014946D01*
X015703Y015105D02*
X010474Y015105D01*
X010401Y015263D02*
X015703Y015263D01*
X015703Y015422D02*
X010401Y015422D01*
X010401Y015580D02*
X015703Y015580D01*
X015703Y015739D02*
X010401Y015739D01*
X010401Y015897D02*
X015703Y015897D01*
X015703Y016056D02*
X010401Y016056D01*
X010401Y016214D02*
X015703Y016214D01*
X015703Y016373D02*
X010401Y016373D01*
X010401Y016531D02*
X015703Y016531D01*
X015703Y016690D02*
X010401Y016690D01*
X010401Y016848D02*
X015703Y016848D01*
X015703Y017007D02*
X010401Y017007D01*
X010401Y017165D02*
X015703Y017165D01*
X015703Y017324D02*
X010401Y017324D01*
X010401Y017482D02*
X015703Y017482D01*
X015703Y017641D02*
X010401Y017641D01*
X010401Y017799D02*
X015703Y017799D01*
X015703Y017958D02*
X010401Y017958D01*
X010401Y018116D02*
X015703Y018116D01*
X015703Y018275D02*
X010401Y018275D01*
X010401Y018433D02*
X015703Y018433D01*
X015626Y018592D02*
X012603Y018592D01*
X012618Y018603D02*
X012689Y018673D01*
X012747Y018753D01*
X012792Y018841D01*
X012823Y018936D01*
X012833Y019003D01*
X012288Y019003D01*
X012288Y018458D01*
X012356Y018469D01*
X012450Y018499D01*
X012538Y018544D01*
X012618Y018603D01*
X012745Y018750D02*
X015605Y018750D01*
X015605Y018909D02*
X012814Y018909D01*
X012833Y019163D02*
X012823Y019231D01*
X012792Y019325D01*
X012747Y019413D01*
X012689Y019493D01*
X012618Y019564D01*
X012538Y019622D01*
X012450Y019667D01*
X012356Y019698D01*
X012288Y019708D01*
X012288Y019163D01*
X012833Y019163D01*
X012823Y019226D02*
X015637Y019226D01*
X015605Y019067D02*
X012288Y019067D01*
X012288Y019003D02*
X012288Y019163D01*
X012128Y019163D01*
X012128Y019003D01*
X012288Y019003D01*
X012288Y018909D02*
X012128Y018909D01*
X012128Y019003D02*
X012128Y018458D01*
X012061Y018469D01*
X011966Y018499D01*
X011878Y018544D01*
X011798Y018603D01*
X011728Y018673D01*
X011669Y018753D01*
X011624Y018841D01*
X011594Y018936D01*
X011583Y019003D01*
X012128Y019003D01*
X012128Y019067D02*
X010401Y019067D01*
X010401Y018909D02*
X011602Y018909D01*
X011671Y018750D02*
X010401Y018750D01*
X010401Y018592D02*
X011813Y018592D01*
X012128Y018592D02*
X012288Y018592D01*
X012288Y018750D02*
X012128Y018750D01*
X012128Y019163D02*
X011583Y019163D01*
X011594Y019231D01*
X011624Y019325D01*
X011669Y019413D01*
X011728Y019493D01*
X011798Y019564D01*
X011878Y019622D01*
X011966Y019667D01*
X012061Y019698D01*
X012128Y019708D01*
X012128Y019163D01*
X012128Y019226D02*
X012288Y019226D01*
X012288Y019384D02*
X012128Y019384D01*
X012128Y019543D02*
X012288Y019543D01*
X012288Y019701D02*
X012128Y019701D01*
X012083Y019701D02*
X010401Y019701D01*
X010401Y019543D02*
X011777Y019543D01*
X011654Y019384D02*
X010401Y019384D01*
X010401Y019226D02*
X011593Y019226D01*
X012333Y019701D02*
X025833Y019701D01*
X025811Y019698D02*
X025716Y019667D01*
X025628Y019622D01*
X025548Y019564D01*
X025478Y019493D01*
X025419Y019413D01*
X025374Y019325D01*
X025344Y019231D01*
X025333Y019163D01*
X025878Y019163D01*
X025878Y019003D01*
X026038Y019003D01*
X026038Y018458D01*
X026106Y018469D01*
X026200Y018499D01*
X026288Y018544D01*
X026368Y018603D01*
X026439Y018673D01*
X026497Y018753D01*
X026542Y018841D01*
X026573Y018936D01*
X026583Y019003D01*
X026038Y019003D01*
X026038Y019163D01*
X026583Y019163D01*
X026573Y019231D01*
X026542Y019325D01*
X026497Y019413D01*
X026439Y019493D01*
X026368Y019564D01*
X026288Y019622D01*
X026200Y019667D01*
X026106Y019698D01*
X026038Y019708D01*
X026038Y019163D01*
X025878Y019163D01*
X025878Y019708D01*
X025811Y019698D01*
X025878Y019701D02*
X026038Y019701D01*
X026083Y019701D02*
X030122Y019701D01*
X030104Y019760D02*
X030142Y019634D01*
X030192Y019514D01*
X030253Y019398D01*
X030326Y019290D01*
X030409Y019189D01*
X030501Y019096D01*
X030602Y019014D01*
X030711Y018941D01*
X030826Y018879D01*
X030947Y018829D01*
X031072Y018791D01*
X031200Y018766D01*
X031316Y018755D01*
X031316Y020003D01*
X031476Y020003D01*
X031476Y020163D01*
X032724Y020163D01*
X032713Y020278D01*
X032687Y020407D01*
X032649Y020532D01*
X032599Y020652D01*
X033638Y020652D01*
X033638Y020494D02*
X032661Y020494D01*
X032701Y020335D02*
X033638Y020335D01*
X033638Y020177D02*
X032723Y020177D01*
X032724Y020003D02*
X031476Y020003D01*
X031476Y018755D01*
X031591Y018766D01*
X031719Y018791D01*
X031844Y018829D01*
X031965Y018879D01*
X032080Y018941D01*
X032189Y019014D01*
X032290Y019096D01*
X032382Y019189D01*
X032465Y019290D01*
X032538Y019398D01*
X032599Y019514D01*
X032649Y019634D01*
X032687Y019760D01*
X032713Y019888D01*
X032724Y020003D01*
X032707Y019860D02*
X033638Y019860D01*
X033638Y020018D02*
X031476Y020018D01*
X031476Y020163D02*
X031316Y020163D01*
X031316Y021412D01*
X031200Y021400D01*
X031072Y021375D01*
X030947Y021337D01*
X030826Y021287D01*
X030711Y021225D01*
X030602Y021153D01*
X030501Y021070D01*
X030409Y020977D01*
X030326Y020876D01*
X030253Y020768D01*
X030192Y020652D01*
X010401Y020652D01*
X010401Y020494D02*
X030130Y020494D01*
X030142Y020532D02*
X030104Y020407D01*
X030078Y020278D01*
X030067Y020163D01*
X031316Y020163D01*
X031316Y020003D01*
X030067Y020003D01*
X030078Y019888D01*
X030104Y019760D01*
X030084Y019860D02*
X010401Y019860D01*
X010401Y020018D02*
X031316Y020018D01*
X031316Y019860D02*
X031476Y019860D01*
X031476Y019701D02*
X031316Y019701D01*
X031316Y019543D02*
X031476Y019543D01*
X031476Y019384D02*
X031316Y019384D01*
X031316Y019226D02*
X031476Y019226D01*
X031476Y019067D02*
X031316Y019067D01*
X031316Y018909D02*
X031476Y018909D01*
X030771Y018909D02*
X026564Y018909D01*
X026495Y018750D02*
X033638Y018750D01*
X033638Y018592D02*
X026353Y018592D01*
X026038Y018592D02*
X025878Y018592D01*
X025878Y018458D02*
X025878Y019003D01*
X025333Y019003D01*
X025344Y018936D01*
X025374Y018841D01*
X025419Y018753D01*
X025478Y018673D01*
X025548Y018603D01*
X025628Y018544D01*
X025716Y018499D01*
X025811Y018469D01*
X025878Y018458D01*
X025878Y018750D02*
X026038Y018750D01*
X026038Y018909D02*
X025878Y018909D01*
X025878Y019067D02*
X016561Y019067D01*
X016561Y018909D02*
X025352Y018909D01*
X025421Y018750D02*
X016561Y018750D01*
X016540Y018592D02*
X025563Y018592D01*
X025343Y019226D02*
X016530Y019226D01*
X016463Y018433D02*
X033638Y018433D01*
X033638Y018275D02*
X016463Y018275D01*
X016463Y018116D02*
X033638Y018116D01*
X033638Y017958D02*
X016463Y017958D01*
X016463Y017799D02*
X033638Y017799D01*
X033638Y017641D02*
X016463Y017641D01*
X016463Y017482D02*
X033638Y017482D01*
X033638Y017324D02*
X016463Y017324D01*
X016463Y017165D02*
X033638Y017165D01*
X033638Y017007D02*
X016463Y017007D01*
X016463Y016848D02*
X033638Y016848D01*
X033638Y016690D02*
X016463Y016690D01*
X016463Y016531D02*
X033638Y016531D01*
X033638Y016373D02*
X016463Y016373D01*
X016463Y016214D02*
X033638Y016214D01*
X033638Y016056D02*
X016463Y016056D01*
X012762Y019384D02*
X025404Y019384D01*
X025527Y019543D02*
X012639Y019543D01*
X010401Y020177D02*
X030068Y020177D01*
X030090Y020335D02*
X010401Y020335D01*
X010401Y020811D02*
X030282Y020811D01*
X030192Y020652D02*
X030142Y020532D01*
X030402Y020969D02*
X010401Y020969D01*
X010401Y021128D02*
X030572Y021128D01*
X030825Y021286D02*
X010525Y021286D01*
X010591Y021445D02*
X033638Y021445D01*
X033638Y021603D02*
X010601Y021603D01*
X010574Y021762D02*
X033638Y021762D01*
X033638Y021920D02*
X010504Y021920D01*
X010340Y022079D02*
X033638Y022079D01*
X033638Y022237D02*
X002583Y022237D01*
X002583Y022079D02*
X003966Y022079D01*
X004018Y022131D02*
X003700Y021813D01*
X003482Y022031D01*
X003271Y022031D01*
X003271Y021521D01*
X003271Y021521D01*
X003271Y022031D01*
X003059Y022031D01*
X002761Y021732D01*
X002761Y021521D01*
X003271Y021521D01*
X003271Y021011D01*
X003482Y021011D01*
X003700Y021229D01*
X004018Y020911D01*
X004523Y020911D01*
X004778Y021165D01*
X004862Y021200D01*
X004968Y021307D01*
X005026Y021447D01*
X005025Y021598D01*
X004967Y021738D01*
X004860Y021844D01*
X004774Y021879D01*
X004523Y022131D01*
X004018Y022131D01*
X003807Y021920D02*
X003592Y021920D01*
X003271Y021920D02*
X003271Y021920D01*
X003271Y021762D02*
X003271Y021762D01*
X003271Y021603D02*
X003271Y021603D01*
X003271Y021521D02*
X003271Y021521D01*
X003271Y021521D01*
X003271Y021011D01*
X003059Y021011D01*
X002761Y021309D01*
X002761Y021521D01*
X003271Y021521D01*
X003271Y021445D02*
X003271Y021445D01*
X003271Y021286D02*
X003271Y021286D01*
X003271Y021128D02*
X003271Y021128D01*
X003599Y021128D02*
X003801Y021128D01*
X003959Y020969D02*
X002583Y020969D01*
X002583Y020811D02*
X009641Y020811D01*
X009641Y020969D02*
X004582Y020969D01*
X004740Y021128D02*
X007656Y021128D01*
X007516Y021286D02*
X004947Y021286D01*
X005025Y021445D02*
X007450Y021445D01*
X007441Y021603D02*
X005023Y021603D01*
X004943Y021762D02*
X007467Y021762D01*
X007537Y021920D02*
X004734Y021920D01*
X004575Y022079D02*
X007701Y022079D01*
X008340Y022079D02*
X008701Y022079D01*
X009340Y022079D02*
X009701Y022079D01*
X009641Y021128D02*
X009385Y021128D01*
X009641Y020652D02*
X002583Y020652D01*
X002583Y020494D02*
X009641Y020494D01*
X009641Y020335D02*
X002583Y020335D01*
X002583Y020177D02*
X009641Y020177D01*
X009641Y020018D02*
X002583Y020018D01*
X002583Y019860D02*
X009641Y019860D01*
X009641Y019701D02*
X002583Y019701D01*
X002583Y019543D02*
X009641Y019543D01*
X009641Y019384D02*
X002583Y019384D01*
X002583Y019226D02*
X009641Y019226D01*
X009641Y019067D02*
X002583Y019067D01*
X002583Y018909D02*
X009641Y018909D01*
X009641Y018750D02*
X002583Y018750D01*
X002583Y018592D02*
X004958Y018592D01*
X004980Y018601D02*
X004790Y018522D01*
X004644Y018376D01*
X004565Y018186D01*
X004565Y017980D01*
X004644Y017790D01*
X004790Y017644D01*
X004937Y017583D01*
X004790Y017522D01*
X004644Y017376D01*
X004565Y017186D01*
X004565Y016980D01*
X004644Y016790D01*
X004790Y016644D01*
X004980Y016565D01*
X005186Y016565D01*
X005376Y016644D01*
X005522Y016790D01*
X005601Y016980D01*
X005601Y017186D01*
X005522Y017376D01*
X005376Y017522D01*
X005229Y017583D01*
X005376Y017644D01*
X005522Y017790D01*
X005601Y017980D01*
X005601Y018186D01*
X005522Y018376D01*
X005376Y018522D01*
X005186Y018601D01*
X004980Y018601D01*
X005208Y018592D02*
X009641Y018592D01*
X009641Y018433D02*
X005465Y018433D01*
X005564Y018275D02*
X009641Y018275D01*
X009641Y018116D02*
X005601Y018116D01*
X005592Y017958D02*
X008493Y017958D01*
X008275Y017799D02*
X005526Y017799D01*
X005368Y017641D02*
X008189Y017641D01*
X008158Y017482D02*
X005416Y017482D01*
X005544Y017324D02*
X008169Y017324D01*
X008235Y017165D02*
X005601Y017165D01*
X005601Y017007D02*
X008386Y017007D01*
X007626Y016627D02*
X007594Y016689D01*
X007554Y016745D01*
X007505Y016794D01*
X007449Y016834D01*
X007387Y016866D01*
X007321Y016887D01*
X007253Y016898D01*
X006958Y016898D01*
X006663Y016898D01*
X006595Y016887D01*
X006529Y016866D01*
X006467Y016834D01*
X006411Y016794D01*
X006362Y016745D01*
X006322Y016689D01*
X006290Y016627D01*
X006269Y016561D01*
X006258Y016493D01*
X006258Y016458D01*
X006258Y016423D01*
X006269Y016355D01*
X006290Y016289D01*
X006322Y016227D01*
X006362Y016171D01*
X006411Y016122D01*
X006467Y016082D01*
X006529Y016050D01*
X006595Y016029D01*
X006663Y016018D01*
X006958Y016018D01*
X006958Y016458D01*
X006958Y016458D01*
X006258Y016458D01*
X006958Y016458D01*
X006958Y016458D01*
X006958Y016018D01*
X007253Y016018D01*
X007321Y016029D01*
X007387Y016050D01*
X007449Y016082D01*
X007505Y016122D01*
X007554Y016171D01*
X007594Y016227D01*
X007626Y016289D01*
X007647Y016355D01*
X007658Y016423D01*
X007658Y016458D01*
X006958Y016458D01*
X006958Y016898D01*
X006958Y016458D01*
X006958Y016458D01*
X006958Y016458D01*
X007658Y016458D01*
X007658Y016493D01*
X007647Y016561D01*
X007626Y016627D01*
X007594Y016690D02*
X009641Y016690D01*
X009641Y016848D02*
X007422Y016848D01*
X007652Y016531D02*
X009641Y016531D01*
X009641Y016373D02*
X007650Y016373D01*
X007585Y016214D02*
X009641Y016214D01*
X009641Y016056D02*
X007397Y016056D01*
X006958Y016056D02*
X006958Y016056D01*
X006958Y016214D02*
X006958Y016214D01*
X006958Y016373D02*
X006958Y016373D01*
X006958Y016531D02*
X006958Y016531D01*
X006958Y016690D02*
X006958Y016690D01*
X006958Y016848D02*
X006958Y016848D01*
X006494Y016848D02*
X005546Y016848D01*
X005422Y016690D02*
X006322Y016690D01*
X006264Y016531D02*
X002583Y016531D01*
X002583Y016373D02*
X004782Y016373D01*
X004764Y016355D02*
X004726Y016302D01*
X004696Y016243D01*
X004676Y016181D01*
X004665Y016116D01*
X004665Y016083D01*
X004665Y016050D01*
X004676Y015985D01*
X004696Y015923D01*
X004726Y015864D01*
X004764Y015811D01*
X004811Y015764D01*
X004864Y015726D01*
X004923Y015696D01*
X004985Y015676D01*
X005050Y015665D01*
X005083Y015665D01*
X005083Y016083D01*
X004665Y016083D01*
X005083Y016083D01*
X005083Y016083D01*
X005083Y016083D01*
X005083Y015665D01*
X005116Y015665D01*
X005181Y015676D01*
X005243Y015696D01*
X005302Y015726D01*
X005355Y015764D01*
X005402Y015811D01*
X005440Y015864D01*
X005470Y015923D01*
X005491Y015985D01*
X005501Y016050D01*
X005501Y016083D01*
X005083Y016083D01*
X005083Y016501D01*
X005050Y016501D01*
X004985Y016491D01*
X004923Y016470D01*
X004864Y016440D01*
X004811Y016402D01*
X004764Y016355D01*
X004686Y016214D02*
X002583Y016214D01*
X002583Y016056D02*
X004665Y016056D01*
X004709Y015897D02*
X002583Y015897D01*
X002583Y015739D02*
X004846Y015739D01*
X005083Y015739D02*
X005083Y015739D01*
X005083Y015897D02*
X005083Y015897D01*
X005083Y016056D02*
X005083Y016056D01*
X005083Y016083D02*
X005083Y016083D01*
X005083Y016083D01*
X005083Y016501D01*
X005116Y016501D01*
X005181Y016491D01*
X005243Y016470D01*
X005302Y016440D01*
X005355Y016402D01*
X005402Y016355D01*
X005440Y016302D01*
X005470Y016243D01*
X005491Y016181D01*
X005501Y016116D01*
X005501Y016083D01*
X005083Y016083D01*
X005083Y016214D02*
X005083Y016214D01*
X005083Y016373D02*
X005083Y016373D01*
X005384Y016373D02*
X006266Y016373D01*
X006331Y016214D02*
X005480Y016214D01*
X005501Y016056D02*
X006519Y016056D01*
X005457Y015897D02*
X008373Y015897D01*
X008230Y015739D02*
X005320Y015739D01*
X004744Y016690D02*
X002583Y016690D01*
X002583Y016848D02*
X004620Y016848D01*
X004565Y017007D02*
X002583Y017007D01*
X002583Y017165D02*
X004565Y017165D01*
X004622Y017324D02*
X002583Y017324D01*
X002583Y017482D02*
X004750Y017482D01*
X004798Y017641D02*
X002583Y017641D01*
X002583Y017799D02*
X004640Y017799D01*
X004575Y017958D02*
X002583Y017958D01*
X002583Y018116D02*
X004565Y018116D01*
X004602Y018275D02*
X002583Y018275D01*
X002583Y018433D02*
X004701Y018433D01*
X002942Y021128D02*
X002583Y021128D01*
X002583Y021286D02*
X002784Y021286D01*
X002761Y021445D02*
X002583Y021445D01*
X002583Y021603D02*
X002761Y021603D01*
X002790Y021762D02*
X002583Y021762D01*
X002583Y021920D02*
X002949Y021920D01*
X002583Y022396D02*
X033638Y022396D01*
X033638Y022554D02*
X002583Y022554D01*
X002583Y022713D02*
X007635Y022713D01*
X007336Y022871D02*
X002583Y022871D01*
X002583Y023030D02*
X007161Y023030D01*
X007026Y023188D02*
X006740Y023188D01*
X005926Y023188D02*
X002583Y023188D01*
X002583Y023347D02*
X003859Y023347D01*
X003822Y023354D02*
X003950Y023328D01*
X004066Y023317D01*
X004066Y024566D01*
X004226Y024566D01*
X004226Y024726D01*
X005474Y024726D01*
X005463Y024841D01*
X005437Y024969D01*
X005399Y025094D01*
X005349Y025215D01*
X005288Y025330D01*
X005215Y025439D01*
X005132Y025540D01*
X005040Y025632D01*
X004939Y025715D01*
X004830Y025788D01*
X004715Y025849D01*
X004594Y025899D01*
X004469Y025937D01*
X004341Y025963D01*
X004226Y025974D01*
X004226Y024726D01*
X004066Y024726D01*
X004066Y025974D01*
X003950Y025963D01*
X003822Y025937D01*
X003697Y025899D01*
X003576Y025849D01*
X003461Y025788D01*
X003352Y025715D01*
X003251Y025632D01*
X003159Y025540D01*
X003076Y025439D01*
X003003Y025330D01*
X002942Y025215D01*
X002892Y025094D01*
X002854Y024969D01*
X002828Y024841D01*
X002817Y024726D01*
X004066Y024726D01*
X004066Y024566D01*
X002817Y024566D01*
X002828Y024450D01*
X002854Y024322D01*
X002892Y024197D01*
X002942Y024076D01*
X003003Y023961D01*
X003076Y023852D01*
X003159Y023751D01*
X003251Y023659D01*
X003352Y023576D01*
X003461Y023503D01*
X003576Y023442D01*
X003697Y023392D01*
X003822Y023354D01*
X004066Y023347D02*
X004226Y023347D01*
X004226Y023317D02*
X004341Y023328D01*
X004469Y023354D01*
X004594Y023392D01*
X004715Y023442D01*
X004830Y023503D01*
X004939Y023576D01*
X005040Y023659D01*
X005132Y023751D01*
X005215Y023852D01*
X005288Y023961D01*
X005349Y024076D01*
X005399Y024197D01*
X005437Y024322D01*
X005463Y024450D01*
X005474Y024566D01*
X004226Y024566D01*
X004226Y023317D01*
X004226Y023505D02*
X004066Y023505D01*
X004066Y023664D02*
X004226Y023664D01*
X004226Y023822D02*
X004066Y023822D01*
X004066Y023981D02*
X004226Y023981D01*
X004226Y024139D02*
X004066Y024139D01*
X004066Y024298D02*
X004226Y024298D01*
X004226Y024456D02*
X004066Y024456D01*
X004066Y024615D02*
X002583Y024615D01*
X002583Y024773D02*
X002822Y024773D01*
X002846Y024932D02*
X002583Y024932D01*
X002583Y025090D02*
X002891Y025090D01*
X002960Y025249D02*
X002583Y025249D01*
X002583Y025407D02*
X003055Y025407D01*
X003185Y025566D02*
X002583Y025566D01*
X002583Y025724D02*
X003366Y025724D01*
X003657Y025883D02*
X002583Y025883D01*
X002583Y026041D02*
X005303Y026041D01*
X005145Y026200D02*
X002583Y026200D01*
X002583Y026358D02*
X004986Y026358D01*
X004828Y026517D02*
X002583Y026517D01*
X002583Y026675D02*
X004669Y026675D01*
X004511Y026834D02*
X002583Y026834D01*
X002583Y026992D02*
X004352Y026992D01*
X003840Y027151D02*
X003434Y027151D01*
X003593Y027309D02*
X003682Y027309D01*
X003208Y027309D02*
X003208Y027309D01*
X003208Y027151D02*
X003208Y027151D01*
X002982Y027151D02*
X002583Y027151D01*
X002583Y027309D02*
X002823Y027309D01*
X002698Y027468D02*
X002583Y027468D01*
X002583Y027626D02*
X002698Y027626D01*
X002698Y027785D02*
X002583Y027785D01*
X002583Y027943D02*
X002784Y027943D01*
X002943Y028102D02*
X002583Y028102D01*
X002583Y028260D02*
X005332Y028260D01*
X005277Y028165D02*
X005423Y028418D01*
X005630Y028625D01*
X005883Y028771D01*
X006165Y028847D01*
X006458Y028847D01*
X006740Y028771D01*
X006993Y028625D01*
X007200Y028418D01*
X007346Y028165D01*
X007421Y027883D01*
X007421Y027590D01*
X007346Y027308D01*
X007200Y027055D01*
X006993Y026848D01*
X006740Y026702D01*
X006458Y026627D01*
X006165Y026627D01*
X005883Y026702D01*
X005630Y026848D01*
X005423Y027055D01*
X005277Y027308D01*
X005201Y027590D01*
X005201Y027883D01*
X005277Y028165D01*
X005260Y028102D02*
X004615Y028102D01*
X004773Y027943D02*
X005218Y027943D01*
X005201Y027785D02*
X004818Y027785D01*
X004818Y027626D02*
X005201Y027626D01*
X005234Y027468D02*
X004895Y027468D01*
X005054Y027309D02*
X005277Y027309D01*
X005212Y027151D02*
X005368Y027151D01*
X005371Y026992D02*
X005486Y026992D01*
X005529Y026834D02*
X005656Y026834D01*
X005688Y026675D02*
X005985Y026675D01*
X005846Y026517D02*
X007490Y026517D01*
X007490Y026520D02*
X007490Y026141D01*
X008025Y026141D01*
X008025Y026025D01*
X007490Y026025D01*
X007490Y025646D01*
X007502Y025600D01*
X007526Y025559D01*
X007559Y025526D01*
X007600Y025502D01*
X007646Y025490D01*
X008025Y025490D01*
X008025Y026025D01*
X008141Y026025D01*
X008141Y025490D01*
X008520Y025490D01*
X008566Y025502D01*
X008607Y025526D01*
X008640Y025559D01*
X008664Y025600D01*
X008676Y025646D01*
X008676Y026025D01*
X008141Y026025D01*
X008141Y026141D01*
X008025Y026141D01*
X008025Y026676D01*
X007646Y026676D01*
X007600Y026664D01*
X007559Y026640D01*
X007526Y026607D01*
X007502Y026566D01*
X007490Y026520D01*
X007490Y026358D02*
X006005Y026358D01*
X006163Y026200D02*
X007490Y026200D01*
X007490Y025883D02*
X006480Y025883D01*
X006566Y025724D02*
X007490Y025724D01*
X007522Y025566D02*
X006569Y025566D01*
X006569Y025407D02*
X011410Y025407D01*
X011506Y025407D02*
X018473Y025407D01*
X018569Y025407D02*
X025108Y025407D01*
X025108Y025505D02*
X025535Y025505D01*
X025535Y025893D01*
X025264Y025893D01*
X025218Y025881D01*
X025177Y025857D01*
X025144Y025824D01*
X025120Y025782D01*
X025108Y025737D01*
X025108Y025505D01*
X025108Y025566D02*
X022644Y025566D01*
X022640Y025559D02*
X022664Y025600D01*
X022676Y025646D01*
X022676Y026025D01*
X022141Y026025D01*
X022141Y025490D01*
X022520Y025490D01*
X022566Y025502D01*
X022607Y025526D01*
X022640Y025559D01*
X022676Y025724D02*
X025108Y025724D01*
X025225Y025883D02*
X022676Y025883D01*
X022676Y026141D02*
X022676Y026520D01*
X022664Y026566D01*
X022640Y026607D01*
X022607Y026640D01*
X022566Y026664D01*
X022520Y026676D01*
X022141Y026676D01*
X022141Y026141D01*
X022025Y026141D01*
X022025Y026025D01*
X021490Y026025D01*
X021490Y025646D01*
X021502Y025600D01*
X021526Y025559D01*
X021559Y025526D01*
X021600Y025502D01*
X021646Y025490D01*
X022025Y025490D01*
X022025Y026025D01*
X022141Y026025D01*
X022141Y026141D01*
X022676Y026141D01*
X022676Y026200D02*
X028490Y026200D01*
X028490Y026141D02*
X029025Y026141D01*
X029025Y026025D01*
X028490Y026025D01*
X028490Y025646D01*
X028502Y025600D01*
X028526Y025559D01*
X028559Y025526D01*
X028600Y025502D01*
X028646Y025490D01*
X029025Y025490D01*
X029025Y026025D01*
X029141Y026025D01*
X029141Y025490D01*
X029520Y025490D01*
X029566Y025502D01*
X029607Y025526D01*
X029640Y025559D01*
X029664Y025600D01*
X029676Y025646D01*
X029676Y026025D01*
X029141Y026025D01*
X029141Y026141D01*
X029025Y026141D01*
X029025Y026676D01*
X028646Y026676D01*
X028600Y026664D01*
X028559Y026640D01*
X028526Y026607D01*
X028502Y026566D01*
X028490Y026520D01*
X028490Y026141D01*
X028490Y026358D02*
X022676Y026358D01*
X022676Y026517D02*
X028490Y026517D01*
X028641Y026675D02*
X027638Y026675D01*
X027740Y026702D02*
X027458Y026627D01*
X027165Y026627D01*
X026883Y026702D01*
X026630Y026848D01*
X026423Y027055D01*
X026277Y027308D01*
X026201Y027590D01*
X026201Y027883D01*
X026277Y028165D01*
X026423Y028418D01*
X026630Y028625D01*
X026883Y028771D01*
X027165Y028847D01*
X027458Y028847D01*
X027740Y028771D01*
X027993Y028625D01*
X028200Y028418D01*
X028346Y028165D01*
X028421Y027883D01*
X028421Y027590D01*
X028346Y027308D01*
X028200Y027055D01*
X027993Y026848D01*
X027740Y026702D01*
X027967Y026834D02*
X030199Y026834D01*
X030173Y026848D02*
X030426Y026702D01*
X030709Y026627D01*
X031001Y026627D01*
X031283Y026702D01*
X031536Y026848D01*
X031743Y027055D01*
X031889Y027308D01*
X031965Y027590D01*
X031965Y027883D01*
X031889Y028165D01*
X031743Y028418D01*
X031536Y028625D01*
X031283Y028771D01*
X031001Y028847D01*
X030709Y028847D01*
X030426Y028771D01*
X030173Y028625D01*
X029967Y028418D01*
X029820Y028165D01*
X029745Y027883D01*
X029745Y027590D01*
X029820Y027308D01*
X029967Y027055D01*
X030173Y026848D01*
X030030Y026992D02*
X028137Y026992D01*
X028255Y027151D02*
X029911Y027151D01*
X029820Y027309D02*
X028346Y027309D01*
X028388Y027468D02*
X029778Y027468D01*
X029745Y027626D02*
X028421Y027626D01*
X028421Y027785D02*
X029745Y027785D01*
X029761Y027943D02*
X028405Y027943D01*
X028363Y028102D02*
X029803Y028102D01*
X029875Y028260D02*
X028291Y028260D01*
X028199Y028419D02*
X029967Y028419D01*
X030126Y028577D02*
X028041Y028577D01*
X027801Y028736D02*
X030365Y028736D01*
X030518Y029053D02*
X002583Y029053D01*
X002583Y028894D02*
X039909Y028894D01*
X039909Y028736D02*
X038344Y028736D01*
X038283Y028771D02*
X038001Y028847D01*
X037709Y028847D01*
X037426Y028771D01*
X037173Y028625D01*
X036967Y028418D01*
X036820Y028165D01*
X036745Y027883D01*
X036745Y027590D01*
X036820Y027308D01*
X036967Y027055D01*
X037173Y026848D01*
X037426Y026702D01*
X037709Y026627D01*
X038001Y026627D01*
X038283Y026702D01*
X038536Y026848D01*
X038743Y027055D01*
X038889Y027308D01*
X038965Y027590D01*
X038965Y027883D01*
X038889Y028165D01*
X038743Y028418D01*
X038536Y028625D01*
X038283Y028771D01*
X038584Y028577D02*
X039908Y028577D01*
X039908Y028419D02*
X038742Y028419D01*
X038834Y028260D02*
X039908Y028260D01*
X039907Y028102D02*
X038906Y028102D01*
X038948Y027943D02*
X039907Y027943D01*
X039907Y027785D02*
X038965Y027785D01*
X038965Y027626D02*
X039906Y027626D01*
X039906Y027468D02*
X038932Y027468D01*
X038889Y027309D02*
X039906Y027309D01*
X039905Y027151D02*
X038798Y027151D01*
X038680Y026992D02*
X039905Y026992D01*
X039905Y026834D02*
X038511Y026834D01*
X038182Y026675D02*
X039904Y026675D01*
X039904Y026517D02*
X036676Y026517D01*
X036676Y026520D02*
X036664Y026566D01*
X036640Y026607D01*
X036607Y026640D01*
X036566Y026664D01*
X036520Y026676D01*
X036141Y026676D01*
X036141Y026141D01*
X036025Y026141D01*
X036025Y026025D01*
X035490Y026025D01*
X035490Y025646D01*
X035502Y025600D01*
X035526Y025559D01*
X035559Y025526D01*
X035600Y025502D01*
X035646Y025490D01*
X036025Y025490D01*
X036025Y026025D01*
X036141Y026025D01*
X036141Y025490D01*
X036520Y025490D01*
X036566Y025502D01*
X036607Y025526D01*
X036640Y025559D01*
X036664Y025600D01*
X036676Y025646D01*
X036676Y026025D01*
X036141Y026025D01*
X036141Y026141D01*
X036676Y026141D01*
X036676Y026520D01*
X036676Y026358D02*
X039903Y026358D01*
X039903Y026200D02*
X036676Y026200D01*
X036676Y025883D02*
X039902Y025883D01*
X039903Y026041D02*
X036141Y026041D01*
X036025Y026041D02*
X029141Y026041D01*
X029141Y026141D02*
X029676Y026141D01*
X029676Y026520D01*
X029664Y026566D01*
X029640Y026607D01*
X029607Y026640D01*
X029566Y026664D01*
X029520Y026676D01*
X029141Y026676D01*
X029141Y026141D01*
X029141Y026200D02*
X029025Y026200D01*
X029025Y026358D02*
X029141Y026358D01*
X029141Y026517D02*
X029025Y026517D01*
X029025Y026675D02*
X029141Y026675D01*
X029525Y026675D02*
X030528Y026675D01*
X031182Y026675D02*
X033985Y026675D01*
X033883Y026702D02*
X034165Y026627D01*
X034458Y026627D01*
X034740Y026702D01*
X034993Y026848D01*
X035200Y027055D01*
X035346Y027308D01*
X035421Y027590D01*
X035421Y027883D01*
X035346Y028165D01*
X035200Y028418D01*
X034993Y028625D01*
X034740Y028771D01*
X034458Y028847D01*
X034165Y028847D01*
X033883Y028771D01*
X033630Y028625D01*
X033423Y028418D01*
X033277Y028165D01*
X033201Y027883D01*
X033201Y027590D01*
X033277Y027308D01*
X033423Y027055D01*
X033630Y026848D01*
X033883Y026702D01*
X033656Y026834D02*
X031511Y026834D01*
X031680Y026992D02*
X033486Y026992D01*
X033368Y027151D02*
X031798Y027151D01*
X031889Y027309D02*
X033277Y027309D01*
X033234Y027468D02*
X031932Y027468D01*
X031965Y027626D02*
X033201Y027626D01*
X033201Y027785D02*
X031965Y027785D01*
X031948Y027943D02*
X033218Y027943D01*
X033260Y028102D02*
X031906Y028102D01*
X031834Y028260D02*
X033332Y028260D01*
X033424Y028419D02*
X031742Y028419D01*
X031584Y028577D02*
X033582Y028577D01*
X033822Y028736D02*
X031344Y028736D01*
X029676Y026517D02*
X035490Y026517D01*
X035490Y026520D02*
X035490Y026141D01*
X036025Y026141D01*
X036025Y026676D01*
X035646Y026676D01*
X035600Y026664D01*
X035559Y026640D01*
X035526Y026607D01*
X035502Y026566D01*
X035490Y026520D01*
X035490Y026358D02*
X029676Y026358D01*
X029676Y026200D02*
X035490Y026200D01*
X035490Y025883D02*
X029676Y025883D01*
X029676Y025724D02*
X032060Y025724D01*
X032045Y025566D02*
X029644Y025566D01*
X029141Y025566D02*
X029025Y025566D01*
X029025Y025724D02*
X029141Y025724D01*
X029141Y025883D02*
X029025Y025883D01*
X029025Y026041D02*
X022141Y026041D01*
X022025Y026041D02*
X015141Y026041D01*
X015141Y026025D02*
X015141Y026141D01*
X015025Y026141D01*
X015025Y026025D01*
X014490Y026025D01*
X014490Y025646D01*
X014502Y025600D01*
X014526Y025559D01*
X014559Y025526D01*
X014600Y025502D01*
X014646Y025490D01*
X015025Y025490D01*
X015025Y026025D01*
X015141Y026025D01*
X015141Y025490D01*
X015520Y025490D01*
X015566Y025502D01*
X015607Y025526D01*
X015640Y025559D01*
X015664Y025600D01*
X015676Y025646D01*
X015676Y026025D01*
X015141Y026025D01*
X015141Y026141D02*
X015676Y026141D01*
X015676Y026520D01*
X015664Y026566D01*
X015640Y026607D01*
X015607Y026640D01*
X015566Y026664D01*
X015520Y026676D01*
X015141Y026676D01*
X015141Y026141D01*
X015141Y026200D02*
X015025Y026200D01*
X015025Y026141D02*
X015025Y026676D01*
X014646Y026676D01*
X014600Y026664D01*
X014559Y026640D01*
X014526Y026607D01*
X014502Y026566D01*
X014490Y026520D01*
X014490Y026141D01*
X015025Y026141D01*
X015025Y026041D02*
X008141Y026041D01*
X008141Y026141D02*
X008676Y026141D01*
X008676Y026520D01*
X008664Y026566D01*
X008640Y026607D01*
X008607Y026640D01*
X008566Y026664D01*
X008520Y026676D01*
X008141Y026676D01*
X008141Y026141D01*
X008141Y026200D02*
X008025Y026200D01*
X008025Y026358D02*
X008141Y026358D01*
X008141Y026517D02*
X008025Y026517D01*
X008025Y026675D02*
X008141Y026675D01*
X008525Y026675D02*
X009528Y026675D01*
X009426Y026702D02*
X009709Y026627D01*
X010001Y026627D01*
X010283Y026702D01*
X010536Y026848D01*
X010743Y027055D01*
X010889Y027308D01*
X010965Y027590D01*
X010965Y027883D01*
X010889Y028165D01*
X010743Y028418D01*
X010536Y028625D01*
X010283Y028771D01*
X010001Y028847D01*
X009709Y028847D01*
X009426Y028771D01*
X009173Y028625D01*
X008967Y028418D01*
X008820Y028165D01*
X008745Y027883D01*
X008745Y027590D01*
X008820Y027308D01*
X008967Y027055D01*
X009173Y026848D01*
X009426Y026702D01*
X009199Y026834D02*
X006967Y026834D01*
X007137Y026992D02*
X009030Y026992D01*
X008911Y027151D02*
X007255Y027151D01*
X007346Y027309D02*
X008820Y027309D01*
X008778Y027468D02*
X007388Y027468D01*
X007421Y027626D02*
X008745Y027626D01*
X008745Y027785D02*
X007421Y027785D01*
X007405Y027943D02*
X008761Y027943D01*
X008803Y028102D02*
X007363Y028102D01*
X007291Y028260D02*
X008875Y028260D01*
X008967Y028419D02*
X007199Y028419D01*
X007041Y028577D02*
X009126Y028577D01*
X009365Y028736D02*
X006801Y028736D01*
X005822Y028736D02*
X002583Y028736D01*
X002583Y028577D02*
X005582Y028577D01*
X005424Y028419D02*
X002583Y028419D01*
X003208Y028102D02*
X003208Y028102D01*
X003208Y027943D02*
X003208Y027943D01*
X003208Y027785D02*
X003208Y027785D01*
X003208Y027626D02*
X003208Y027626D01*
X003208Y027468D02*
X003208Y027468D01*
X003632Y027943D02*
X003643Y027943D01*
X003801Y028102D02*
X003473Y028102D01*
X004208Y027646D02*
X006209Y025645D01*
X006209Y024583D01*
X005738Y024615D02*
X004226Y024615D01*
X004226Y024773D02*
X004066Y024773D01*
X004066Y024932D02*
X004226Y024932D01*
X004226Y025090D02*
X004066Y025090D01*
X004066Y025249D02*
X004226Y025249D01*
X004226Y025407D02*
X004066Y025407D01*
X004066Y025566D02*
X004226Y025566D01*
X004226Y025724D02*
X004066Y025724D01*
X004066Y025883D02*
X004226Y025883D01*
X004635Y025883D02*
X005462Y025883D01*
X005620Y025724D02*
X004925Y025724D01*
X005106Y025566D02*
X005779Y025566D01*
X005849Y025407D02*
X005236Y025407D01*
X005331Y025249D02*
X005849Y025249D01*
X005849Y025090D02*
X005401Y025090D01*
X005445Y024932D02*
X005841Y024932D01*
X005740Y024773D02*
X005469Y024773D01*
X005463Y024456D02*
X005738Y024456D01*
X005738Y024298D02*
X005430Y024298D01*
X005375Y024139D02*
X005741Y024139D01*
X005738Y023981D02*
X005298Y023981D01*
X005190Y023822D02*
X005738Y023822D01*
X005738Y023664D02*
X005045Y023664D01*
X004833Y023505D02*
X005738Y023505D01*
X005759Y023347D02*
X004433Y023347D01*
X003458Y023505D02*
X002583Y023505D01*
X002583Y023664D02*
X003247Y023664D01*
X003101Y023822D02*
X002583Y023822D01*
X002583Y023981D02*
X002993Y023981D01*
X002916Y024139D02*
X002583Y024139D01*
X002583Y024298D02*
X002861Y024298D01*
X002828Y024456D02*
X002583Y024456D01*
X006322Y026041D02*
X008025Y026041D01*
X008025Y025883D02*
X008141Y025883D01*
X008141Y025724D02*
X008025Y025724D01*
X008025Y025566D02*
X008141Y025566D01*
X008644Y025566D02*
X010983Y025566D01*
X010997Y025724D02*
X008676Y025724D01*
X008676Y025883D02*
X014490Y025883D01*
X014490Y025724D02*
X011919Y025724D01*
X011921Y025720D02*
X011897Y025761D01*
X011864Y025795D01*
X011823Y025818D01*
X011777Y025830D01*
X011506Y025830D01*
X011506Y025443D01*
X011933Y025443D01*
X011933Y025674D01*
X011921Y025720D01*
X011933Y025566D02*
X014522Y025566D01*
X015025Y025566D02*
X015141Y025566D01*
X015141Y025724D02*
X015025Y025724D01*
X015025Y025883D02*
X015141Y025883D01*
X015676Y025883D02*
X021490Y025883D01*
X021490Y025724D02*
X018981Y025724D01*
X018996Y025566D02*
X021522Y025566D01*
X022025Y025566D02*
X022141Y025566D01*
X022141Y025724D02*
X022025Y025724D01*
X022025Y025883D02*
X022141Y025883D01*
X022025Y026141D02*
X021490Y026141D01*
X021490Y026520D01*
X021502Y026566D01*
X021526Y026607D01*
X021559Y026640D01*
X021600Y026664D01*
X021646Y026676D01*
X022025Y026676D01*
X022025Y026141D01*
X022025Y026200D02*
X022141Y026200D01*
X022141Y026358D02*
X022025Y026358D01*
X022025Y026517D02*
X022141Y026517D01*
X022141Y026675D02*
X022025Y026675D01*
X021641Y026675D02*
X020638Y026675D01*
X020740Y026702D02*
X020993Y026848D01*
X021200Y027055D01*
X021346Y027308D01*
X021421Y027590D01*
X021421Y027883D01*
X021346Y028165D01*
X021200Y028418D01*
X020993Y028625D01*
X020740Y028771D01*
X020458Y028847D01*
X020165Y028847D01*
X019883Y028771D01*
X019630Y028625D01*
X019423Y028418D01*
X019277Y028165D01*
X019201Y027883D01*
X019201Y027590D01*
X019277Y027308D01*
X019423Y027055D01*
X019630Y026848D01*
X019883Y026702D01*
X020165Y026627D01*
X020458Y026627D01*
X020740Y026702D01*
X020967Y026834D02*
X023199Y026834D01*
X023173Y026848D02*
X023426Y026702D01*
X023709Y026627D01*
X024001Y026627D01*
X024283Y026702D01*
X024536Y026848D01*
X024743Y027055D01*
X024889Y027308D01*
X024965Y027590D01*
X024965Y027883D01*
X024889Y028165D01*
X024743Y028418D01*
X024536Y028625D01*
X024283Y028771D01*
X024001Y028847D01*
X023709Y028847D01*
X023426Y028771D01*
X023173Y028625D01*
X022967Y028418D01*
X022820Y028165D01*
X022745Y027883D01*
X022745Y027590D01*
X022820Y027308D01*
X022967Y027055D01*
X023173Y026848D01*
X023030Y026992D02*
X021137Y026992D01*
X021255Y027151D02*
X022911Y027151D01*
X022820Y027309D02*
X021346Y027309D01*
X021388Y027468D02*
X022778Y027468D01*
X022745Y027626D02*
X021421Y027626D01*
X021421Y027785D02*
X022745Y027785D01*
X022761Y027943D02*
X021405Y027943D01*
X021363Y028102D02*
X022803Y028102D01*
X022875Y028260D02*
X021291Y028260D01*
X021199Y028419D02*
X022967Y028419D01*
X023126Y028577D02*
X021041Y028577D01*
X020801Y028736D02*
X023365Y028736D01*
X024344Y028736D02*
X026822Y028736D01*
X026582Y028577D02*
X024584Y028577D01*
X024742Y028419D02*
X026424Y028419D01*
X026332Y028260D02*
X024834Y028260D01*
X024906Y028102D02*
X026260Y028102D01*
X026218Y027943D02*
X024948Y027943D01*
X024965Y027785D02*
X026201Y027785D01*
X026201Y027626D02*
X024965Y027626D01*
X024932Y027468D02*
X026234Y027468D01*
X026277Y027309D02*
X024889Y027309D01*
X024798Y027151D02*
X026368Y027151D01*
X026486Y026992D02*
X024680Y026992D01*
X024511Y026834D02*
X026656Y026834D01*
X026985Y026675D02*
X024182Y026675D01*
X023528Y026675D02*
X022525Y026675D01*
X021490Y026517D02*
X015676Y026517D01*
X015676Y026358D02*
X021490Y026358D01*
X021490Y026200D02*
X015676Y026200D01*
X015676Y025724D02*
X018060Y025724D01*
X018045Y025566D02*
X015644Y025566D01*
X015141Y026358D02*
X015025Y026358D01*
X015025Y026517D02*
X015141Y026517D01*
X015141Y026675D02*
X015025Y026675D01*
X014641Y026675D02*
X013638Y026675D01*
X013740Y026702D02*
X013458Y026627D01*
X013165Y026627D01*
X012883Y026702D01*
X012630Y026848D01*
X012423Y027055D01*
X012277Y027308D01*
X012201Y027590D01*
X012201Y027883D01*
X012277Y028165D01*
X012423Y028418D01*
X012630Y028625D01*
X012883Y028771D01*
X013165Y028847D01*
X013458Y028847D01*
X013740Y028771D01*
X013993Y028625D01*
X014200Y028418D01*
X014346Y028165D01*
X014421Y027883D01*
X014421Y027590D01*
X014346Y027308D01*
X014200Y027055D01*
X013993Y026848D01*
X013740Y026702D01*
X013967Y026834D02*
X016199Y026834D01*
X016173Y026848D02*
X016426Y026702D01*
X016709Y026627D01*
X017001Y026627D01*
X017283Y026702D01*
X017536Y026848D01*
X017743Y027055D01*
X017889Y027308D01*
X017965Y027590D01*
X017965Y027883D01*
X017889Y028165D01*
X017743Y028418D01*
X017536Y028625D01*
X017283Y028771D01*
X017001Y028847D01*
X016709Y028847D01*
X016426Y028771D01*
X016173Y028625D01*
X015967Y028418D01*
X015820Y028165D01*
X015745Y027883D01*
X015745Y027590D01*
X015820Y027308D01*
X015967Y027055D01*
X016173Y026848D01*
X016030Y026992D02*
X014137Y026992D01*
X014255Y027151D02*
X015911Y027151D01*
X015820Y027309D02*
X014346Y027309D01*
X014388Y027468D02*
X015778Y027468D01*
X015745Y027626D02*
X014421Y027626D01*
X014421Y027785D02*
X015745Y027785D01*
X015761Y027943D02*
X014405Y027943D01*
X014363Y028102D02*
X015803Y028102D01*
X015875Y028260D02*
X014291Y028260D01*
X014199Y028419D02*
X015967Y028419D01*
X016126Y028577D02*
X014041Y028577D01*
X013801Y028736D02*
X016365Y028736D01*
X017344Y028736D02*
X019822Y028736D01*
X019582Y028577D02*
X017584Y028577D01*
X017742Y028419D02*
X019424Y028419D01*
X019332Y028260D02*
X017834Y028260D01*
X017906Y028102D02*
X019260Y028102D01*
X019218Y027943D02*
X017948Y027943D01*
X017965Y027785D02*
X019201Y027785D01*
X019201Y027626D02*
X017965Y027626D01*
X017932Y027468D02*
X019234Y027468D01*
X019277Y027309D02*
X017889Y027309D01*
X017798Y027151D02*
X019368Y027151D01*
X019486Y026992D02*
X017680Y026992D01*
X017511Y026834D02*
X019656Y026834D01*
X019985Y026675D02*
X017182Y026675D01*
X016528Y026675D02*
X015525Y026675D01*
X014490Y026517D02*
X008676Y026517D01*
X008676Y026358D02*
X014490Y026358D01*
X014490Y026200D02*
X008676Y026200D01*
X007641Y026675D02*
X006638Y026675D01*
X006569Y025249D02*
X010983Y025249D01*
X011410Y025566D02*
X011506Y025566D01*
X011506Y025724D02*
X011410Y025724D01*
X011933Y025249D02*
X018045Y025249D01*
X018473Y025566D02*
X018569Y025566D01*
X018569Y025724D02*
X018473Y025724D01*
X018996Y025249D02*
X025108Y025249D01*
X025535Y025566D02*
X025631Y025566D01*
X025631Y025724D02*
X025535Y025724D01*
X025535Y025883D02*
X025631Y025883D01*
X025941Y025883D02*
X028490Y025883D01*
X028490Y025724D02*
X026058Y025724D01*
X026058Y025566D02*
X028522Y025566D01*
X026058Y025407D02*
X032473Y025407D01*
X032569Y025407D02*
X039901Y025407D01*
X039901Y025249D02*
X032996Y025249D01*
X032996Y025566D02*
X035522Y025566D01*
X035490Y025724D02*
X032981Y025724D01*
X032569Y025724D02*
X032473Y025724D01*
X032473Y025566D02*
X032569Y025566D01*
X032045Y025249D02*
X026058Y025249D01*
X031316Y021286D02*
X031476Y021286D01*
X031476Y021412D02*
X031591Y021400D01*
X031719Y021375D01*
X031844Y021337D01*
X031965Y021287D01*
X032080Y021225D01*
X032189Y021153D01*
X032290Y021070D01*
X032382Y020977D01*
X032465Y020876D01*
X032538Y020768D01*
X032599Y020652D01*
X032509Y020811D02*
X033638Y020811D01*
X033638Y020969D02*
X032389Y020969D01*
X032219Y021128D02*
X033638Y021128D01*
X033638Y021286D02*
X031966Y021286D01*
X031476Y021412D02*
X031476Y020163D01*
X031476Y020177D02*
X031316Y020177D01*
X031316Y020335D02*
X031476Y020335D01*
X031476Y020494D02*
X031316Y020494D01*
X031316Y020652D02*
X031476Y020652D01*
X031476Y020811D02*
X031316Y020811D01*
X031316Y020969D02*
X031476Y020969D01*
X031476Y021128D02*
X031316Y021128D01*
X032670Y019701D02*
X033638Y019701D01*
X033638Y019543D02*
X032611Y019543D01*
X032528Y019384D02*
X033638Y019384D01*
X033638Y019226D02*
X032412Y019226D01*
X032254Y019067D02*
X033638Y019067D01*
X033638Y018909D02*
X032020Y018909D01*
X030537Y019067D02*
X026038Y019067D01*
X026038Y019226D02*
X025878Y019226D01*
X025878Y019384D02*
X026038Y019384D01*
X026038Y019543D02*
X025878Y019543D01*
X026389Y019543D02*
X030180Y019543D01*
X030263Y019384D02*
X026512Y019384D01*
X026573Y019226D02*
X030379Y019226D01*
X037250Y024456D02*
X039899Y024456D01*
X039899Y024615D02*
X037159Y024615D01*
X037038Y024773D02*
X039900Y024773D01*
X039900Y024932D02*
X036879Y024932D01*
X036612Y025090D02*
X039901Y025090D01*
X039902Y025566D02*
X036644Y025566D01*
X036676Y025724D02*
X039902Y025724D01*
X037528Y026675D02*
X036525Y026675D01*
X036141Y026675D02*
X036025Y026675D01*
X036025Y026517D02*
X036141Y026517D01*
X036141Y026358D02*
X036025Y026358D01*
X036025Y026200D02*
X036141Y026200D01*
X036141Y025883D02*
X036025Y025883D01*
X036025Y025724D02*
X036141Y025724D01*
X036141Y025566D02*
X036025Y025566D01*
X035641Y026675D02*
X034638Y026675D01*
X034967Y026834D02*
X037199Y026834D01*
X037030Y026992D02*
X035137Y026992D01*
X035255Y027151D02*
X036911Y027151D01*
X036820Y027309D02*
X035346Y027309D01*
X035388Y027468D02*
X036778Y027468D01*
X036745Y027626D02*
X035421Y027626D01*
X035421Y027785D02*
X036745Y027785D01*
X036761Y027943D02*
X035405Y027943D01*
X035363Y028102D02*
X036803Y028102D01*
X036875Y028260D02*
X035291Y028260D01*
X035199Y028419D02*
X036967Y028419D01*
X037126Y028577D02*
X035041Y028577D01*
X034801Y028736D02*
X037365Y028736D01*
X016617Y011142D02*
X013415Y011142D01*
X013340Y010984D02*
X016775Y010984D01*
X016848Y010825D02*
X013248Y010825D01*
X013102Y010667D02*
X016848Y010667D01*
X016848Y010508D02*
X012906Y010508D01*
X012588Y010350D02*
X016848Y010350D01*
X016903Y010191D02*
X012588Y010191D01*
X012657Y010033D02*
X017062Y010033D01*
X017004Y010090D02*
X017004Y010090D01*
X017220Y009874D02*
X012686Y009874D01*
X012686Y009716D02*
X017355Y009716D01*
X017355Y009557D02*
X012686Y009557D01*
X012663Y009399D02*
X017413Y009399D01*
X017763Y010350D02*
X025616Y010350D01*
X025260Y010508D02*
X017605Y010508D01*
X017568Y010667D02*
X025064Y010667D01*
X026300Y010350D02*
X029450Y010350D01*
X011363Y012886D02*
X010683Y012886D01*
X010683Y013044D02*
X011292Y013044D01*
X011292Y013203D02*
X010683Y013203D01*
X010633Y013361D02*
X011143Y013361D01*
X010256Y013361D02*
X010160Y013361D01*
X010160Y013416D02*
X009889Y013416D01*
X009843Y013404D01*
X009802Y013380D01*
X009769Y013347D01*
X009745Y013306D01*
X009733Y013260D01*
X009733Y013028D01*
X010160Y013028D01*
X010160Y013416D01*
X010160Y013203D02*
X010256Y013203D01*
X010256Y013044D02*
X010160Y013044D01*
X009733Y013044D02*
X009308Y013044D01*
X009308Y012886D02*
X009733Y012886D01*
X009733Y013203D02*
X009308Y013203D01*
X009258Y013361D02*
X009783Y013361D01*
X008881Y013361D02*
X008785Y013361D01*
X008785Y013203D02*
X008881Y013203D01*
X008881Y013044D02*
X008785Y013044D01*
X010033Y014471D02*
X002583Y014471D01*
X002583Y014629D02*
X009875Y014629D01*
X009716Y014788D02*
X002583Y014788D01*
X002583Y014946D02*
X008523Y014946D01*
X008288Y015105D02*
X002583Y015105D01*
X002583Y015263D02*
X008194Y015263D01*
X008158Y015422D02*
X002583Y015422D01*
X002583Y015580D02*
X008164Y015580D01*
X009393Y014946D02*
X009641Y014946D01*
X009628Y015105D02*
X009641Y015105D01*
X009641Y015897D02*
X009543Y015897D01*
X009530Y017007D02*
X009641Y017007D01*
X009641Y017958D02*
X009423Y017958D01*
X008656Y021128D02*
X008385Y021128D01*
X007007Y024615D02*
X006928Y024615D01*
X006926Y024773D02*
X007128Y024773D01*
X007287Y024932D02*
X006825Y024932D01*
X006569Y025090D02*
X007554Y025090D01*
X010182Y026675D02*
X012985Y026675D01*
X012656Y026834D02*
X010511Y026834D01*
X010680Y026992D02*
X012486Y026992D01*
X012368Y027151D02*
X010798Y027151D01*
X010889Y027309D02*
X012277Y027309D01*
X012234Y027468D02*
X010932Y027468D01*
X010965Y027626D02*
X012201Y027626D01*
X012201Y027785D02*
X010965Y027785D01*
X010948Y027943D02*
X012218Y027943D01*
X012260Y028102D02*
X010906Y028102D01*
X010834Y028260D02*
X012332Y028260D01*
X012424Y028419D02*
X010742Y028419D01*
X010584Y028577D02*
X012582Y028577D01*
X012822Y028736D02*
X010344Y028736D01*
X005641Y012093D02*
X005525Y012093D01*
X005525Y011935D02*
X005641Y011935D01*
X005641Y011776D02*
X005525Y011776D01*
X005525Y011459D02*
X005641Y011459D01*
X005641Y011301D02*
X005525Y011301D01*
X005525Y011142D02*
X005641Y011142D01*
D23*
X010021Y015021D02*
X011771Y013271D01*
X012458Y013271D02*
X012458Y011833D01*
X012208Y011583D01*
X012208Y009708D01*
X012083Y007748D02*
X011998Y007748D01*
X011833Y007583D01*
X011833Y007207D01*
X011958Y007082D01*
X018708Y006957D02*
X018833Y007082D01*
X018833Y007748D01*
X018458Y011583D02*
X016083Y013958D01*
X016083Y018896D01*
X010021Y021583D02*
X010021Y015021D01*
X004646Y021522D02*
X004271Y021521D01*
X006333Y023709D02*
X006374Y023918D01*
X006709Y023583D01*
X008333Y023583D01*
X008083Y023833D01*
X008083Y023918D01*
X006333Y024457D02*
X006209Y024583D01*
X008021Y021583D02*
X009021Y021583D01*
X010021Y021583D01*
X011458Y023918D02*
X011458Y024647D01*
X018458Y023918D02*
X018521Y024647D01*
X025583Y024709D02*
X025583Y023918D01*
X032333Y023918D02*
X032333Y023207D01*
X032521Y024647D01*
X032708Y012410D02*
X034918Y012410D01*
X034918Y011583D01*
X032833Y011583D02*
X032833Y010895D01*
X033208Y007748D02*
X033208Y007457D01*
X032833Y007082D01*
X025708Y006957D02*
X025708Y007748D01*
D24*
X017833Y009771D03*
X012458Y013271D03*
X011771Y013271D03*
X012208Y009708D03*
X016083Y018896D03*
D25*
X015083Y023918D02*
X011458Y023918D01*
X008083Y023918D01*
X015083Y023918D02*
X018458Y023918D01*
X022083Y023918D01*
X025583Y023918D01*
X029083Y023918D01*
X032333Y023918D01*
X036083Y023918D01*
X034918Y023918D01*
X034918Y021410D01*
X034918Y019756D01*
X034918Y012410D01*
X034918Y012583D01*
X034833Y012583D01*
X034918Y011583D02*
X032833Y011583D01*
X029896Y011583D01*
X029771Y011708D01*
X026083Y011708D01*
X025958Y011583D01*
X025708Y007748D02*
X022083Y007748D01*
X018833Y007748D01*
X018873Y007708D01*
X024333Y007708D01*
X025708Y007748D02*
X029083Y007748D01*
X033208Y007748D01*
X036083Y007748D01*
X034918Y007748D01*
X034918Y010756D01*
X034918Y011583D01*
X018833Y007748D02*
X015083Y007748D01*
X012083Y007748D01*
X008083Y007748D01*
X007748Y011583D02*
X008771Y011583D01*
X008896Y011583D01*
X009958Y011583D01*
X010458Y011583D01*
X012208Y011583D01*
D26*
X010458Y011583D02*
X010271Y010918D01*
X009958Y011583D02*
X010208Y011833D01*
X010208Y012311D01*
X009021Y011458D02*
X008896Y011583D01*
X008833Y011646D02*
X008771Y011583D01*
X008833Y011646D02*
X008833Y012311D01*
X009021Y011458D02*
X008833Y010918D01*
D27*
X019708Y011583D02*
X025958Y011583D01*
M02*
